<svg><defs><font id="TRYClother-Black" horiz-adv-x="0"><font-face font-family="TRY Clother Black" font-weight="900" panose-1="2 11 9 3 2 2 3 2 2 3" ascent="800" descent="-200" x-height="470" cap-height="685" bbox="-762 -585 1502 1264" underline-thickness="50" underline-position="-55" unicode-range="U+000D-FEFC"/><glyph glyph-name="fi" unicode="fi" horiz-adv-x="638" d="M309 559q-22 0-37-14t-15-34q0-12 2-22t7-19h317V0H408v321H288V0H113v321H14v144l85 5q-9 21-13 42t-4 43q0 71 53 115.5T273 715q52 0 108.5-20T496 635l-70-125q-40 26-67 37.5T309 559z"/><glyph glyph-name="fl" unicode="fl" horiz-adv-x="638" d="M113 321H14v144l85 5q-9 21-13 42t-4 43q0 71 53 115.5T273 715q38 0 79.5-11t84.5-33l11 34h135V0H408v521q-32 20-55.5 29t-43.5 9q-22 0-37-14t-15-34q0-12 2-22t7-19h80V321h-58V0H113v321z"/><glyph glyph-name="lam.init_alef.fina" unicode="ﻟﺎ" horiz-adv-x="613" arabic-form="isolated" d="M180 181q-24 96-77 197.5T-29 584l137 96q75-93 137-234t75-255q38 13 55.5 41.5T393 311v394h155V307q0-154-86.5-235.5T215-10q-51 0-96.5 4.5T43 8l8 187q26-5 57.5-8.5T180 181z"/><glyph glyph-name="lam.medi_alef.fina" unicode="ﻠﺎ" horiz-adv-x="656" arabic-form="final" d="M485 93q-34-48-106.5-75.5T215-10q-51 0-96.5 4.5T43 8l8 187q30-6 63.5-9.5T180 181q-24 96-77 197.5T-29 584l137 96q75-93 136-232.5T319 193q39 12 56.5 40t17.5 78v394h155V296q0-61 21-83.5t74-22.5h13V0h-10q-62 0-103 23.5T485 93z"/><glyph glyph-name="lam.init_ah.fina" unicode="ﻟﺂ" horiz-adv-x="613" arabic-form="isolated" d="M117 751q22-8 32-10.5t18-2.5q16 0 30.5 2.5T233 750l-10-90q-18-9-34-13.5t-32-4.5q-12 0-26 3.5T90 659q-21 8-31 10.5T42 672q-16 0-30.5-2.5T-24 660l10 90q18 9 34 13.5t32 4.5q12 0 25.5-3t39.5-14zM21 512l134 95q56-78 103.5-196T320 191q38 13 55.5 41t17.5 79v394h155V307q0-154-87-235.5T215-10q-51 0-96.5 4.5T43 8l8 187q26-5 57.5-8.5T179 181q-21 88-61.5 172.5T21 512z"/><glyph glyph-name="lam.medi_ah.fina" unicode="ﻠﺂ" horiz-adv-x="656" arabic-form="final" d="M117 751q22-8 32-10.5t18-2.5q16 0 30.5 2.5T233 750l-10-90q-18-9-34-13.5t-32-4.5q-12 0-26 3.5T90 659q-21 8-31 10.5T42 672q-16 0-30.5-2.5T-24 660l10 90q18 9 34 13.5t32 4.5q12 0 25.5-3t39.5-14zM485 93q-34-48-106-75.5T215-10q-51 0-96.5 4.5T43 8l8 187q29-6 63-9.5t65-4.5q-21 88-61.5 172.5T21 512l134 95q55-77 102.5-195T320 193q39 13 56 40.5t17 77.5v394h155V296q0-61 21-83.5t74-22.5h13V0h-10q-62 0-103 23.5T485 93z"/><glyph glyph-name="lam.init_alefHamzeAbove.fina" unicode="ﻟﺄ" horiz-adv-x="613" arabic-form="isolated" d="M179 181q-21 88-61.5 172.5T21 512l134 95q56-78 103.5-196T320 191q38 13 55.5 41t17.5 79v394h155V307q0-154-87-235.5T215-10q-51 0-96.5 4.5T43 8l8 187q26-5 57.5-8.5T179 181zm69 577v-92l-270-40v92l59 8q-11 18-17 38.5T14 807q0 52 31 83t82 31q26 0 50.5-7t47.5-21l-21-73q-19 5-37.5 8t-32.5 3q-10 0-18.5-1t-14.5-4q2-34 18-57.5t39-23.5q8 0 47.5 6.5T248 758z"/><glyph glyph-name="lam.medi_alefHamzeAbove.fina" unicode="ﻠﺄ" horiz-adv-x="656" arabic-form="final" d="M485 93q-34-48-106-75.5T215-10q-51 0-96.5 4.5T43 8l8 187q29-6 63-9.5t65-4.5q-21 88-61.5 172.5T21 512l134 95q55-77 102.5-195T320 193q39 13 56 40.5t17 77.5v394h155V296q0-61 21-83.5t74-22.5h13V0h-10q-62 0-103 23.5T485 93zM248 758v-92l-270-40v92l59 8q-11 18-17 38.5T14 807q0 52 31 83t82 31q26 0 50.5-7t47.5-21l-21-73q-19 5-37.5 8t-32.5 3q-10 0-18.5-1t-14.5-4q2-34 18-57.5t39-23.5q8 0 47.5 6.5T248 758z"/><glyph glyph-name="lam.init_alefHamzeBelow.fina" unicode="ﻟﺈ" horiz-adv-x="613" arabic-form="isolated" d="M180 181q-24 96-77 197.5T-29 584l137 96q75-93 137-234t75-255q38 13 55.5 41.5T393 311v394h155V307q0-154-86.5-235.5T215-10q-51 0-96.5 4.5T43 8l8 187q26-5 57.5-8.5T180 181zm93-389v-92L3-340v92l59 8q-11 18-17 38.5T39-159q0 52 31 83t82 31q26 0 50.5-7T250-73l-21-73q-32 9-59.5 11t-43.5-5q2-34 18-57.5t39-23.5q8 0 47.5 6.5T273-208z"/><glyph glyph-name="lam.medi_alefHamzeBelow.fina" unicode="ﻠﺈ" horiz-adv-x="656" arabic-form="final" d="M485 93q-34-48-106.5-75.5T215-10q-51 0-96.5 4.5T43 8l8 187q30-6 63.5-9.5T180 181q-24 96-77 197.5T-29 584l137 96q75-93 136-232.5T319 193q39 12 56.5 40t17.5 78v394h155V296q0-61 21-83.5t74-22.5h13V0h-10q-62 0-103 23.5T485 93zM273-208v-92L3-340v92l59 8q-11 18-17 38.5T39-159q0 52 31 83t82 31q26 0 50.5-7T250-73l-21-73q-32 9-59.5 11t-43.5-5q2-34 18-57.5t39-23.5q8 0 47.5 6.5T273-208z"/><glyph glyph-name="allah" unicode="ﺍﻟﻠﻪ" horiz-adv-x="1394" arabic-form="isolated" d="M617 849v167h92V849h-92zm117-47 66 25q12-35 14-77t-6-87q-20-13-42.5-20.5T722 635q-19 0-34 4.5T662 654q-18-9-36.5-14t-36.5-5q-36 0-55.5 21T514 717v95h66v-74q0-12 5-16.5t18-4.5q7 0 14 1.5t13 4.5q-1 4-1 8v73h66v-60q0-14 5.5-19t19.5-5q7 0 15.5 2t16.5 5q-3 18-7.5 38T734 802zm595-97V0h-155v705h155zM334 94q-24-16-51-23.5T225 63q-88 0-144 50T25 242q0 91 71.5 160T309 516v44h155V274q0-47 11-65.5t37-18.5q22 0 41.5 7.5T588 219v361h155V287q0-48 16.5-72.5T809 190q38 0 55.5 23.5T882 288v308h155V286q0-147-52-216.5T823 0q-50 0-85 23.5T682 95q-34-49-80.5-72T492 0q-52 0-93.5 24.5T334 94zM169 265q0-21 20.5-30.5T254 225q10 0 22.5 1t32.5 4v114q-72-13-106-31.5T169 265z"/><glyph glyph-name="alef.isol" unicode="ا" horiz-adv-x="285" arabic-form="isolated" d="M220 705V0H65v705h155z"/><glyph glyph-name="alef.fina" unicode="ا" horiz-adv-x="301" arabic-form="final" d="M288 190h13V0h-33Q163 0 114 56T65 232v473h155V255q0-37 15-51t53-14z"/><glyph glyph-name="ah.isol" unicode="آ" horiz-adv-x="285" arabic-form="isolated" d="M220 705V0H65v705h155zm-63 181q22-8 32-10.5t18-2.5q16 0 30.5 2.5T273 885l-10-90q-18-9-34-13.5t-32-4.5q-12 0-26 3.5T130 794q-21 8-31 10.5T82 807q-16 0-30.5-2.5T16 795l10 90q18 9 34 13.5t32 4.5q12 0 25.5-3t39.5-14z"/><glyph glyph-name="ah.fina" unicode="آ" horiz-adv-x="301" arabic-form="final" d="M288 190h13V0h-33Q163 0 114 56T65 232v473h155V255q0-37 15-51t53-14zM157 886q22-8 32-10.5t18-2.5q16 0 30.5 2.5T273 885l-10-90q-18-9-34-13.5t-32-4.5q-12 0-26 3.5T130 794q-21 8-31 10.5T82 807q-16 0-30.5-2.5T16 795l10 90q18 9 34 13.5t32 4.5q12 0 25.5-3t39.5-14z"/><glyph glyph-name="alefHamzeAbove.isol" unicode="أ" horiz-adv-x="285" arabic-form="isolated" d="M220 705V0H65v705h155zm58 188v-92L8 761v92l59 8q-11 18-17 38.5T44 942q0 52 31 83t82 31q26 0 50.5-7t47.5-21l-21-73q-32 9-59.5 11t-43.5-5q2-34 18-57.5t39-23.5q8 0 47.5 6.5T278 893z"/><glyph glyph-name="alefHamzeAbove.fina" unicode="أ" horiz-adv-x="301" arabic-form="final" d="M288 190h13V0h-33Q163 0 114 56T65 232v473h155V255q0-37 15-51t53-14zm-10 703v-92L8 761v92l59 8q-11 18-17 38.5T44 942q0 52 31 83t82 31q26 0 50.5-7t47.5-21l-21-73q-32 9-59.5 11t-43.5-5q2-34 18-57.5t39-23.5q8 0 47.5 6.5T278 893z"/><glyph glyph-name="alefHamzeBelow.isol" unicode="إ" horiz-adv-x="285" arabic-form="isolated" d="M220 705V0H65v705h155zm62-913v-92L12-340v92l59 8q-11 18-17 38.5T48-159q0 52 31 83t82 31q26 0 50.5-7T259-73l-21-73q-32 9-59.5 11t-43.5-5q2-34 18-57.5t39-23.5q8 0 47.5 6.5T282-208z"/><glyph glyph-name="alefHamzeBelow.fina" unicode="إ" horiz-adv-x="301" arabic-form="final" d="M288 190h13V0h-33Q163 0 114 56T65 232v473h155V255q0-37 15-51t53-14zm-6-398v-92L12-340v92l59 8q-11 18-17 38.5T48-159q0 52 31 83t82 31q26 0 50.5-7T259-73l-21-73q-32 9-59.5 11t-43.5-5q2-34 18-57.5t39-23.5q8 0 47.5 6.5T282-208z"/><glyph glyph-name="alefWavyHamzehAbove.fina" unicode="ٲ" horiz-adv-x="301" d="M288 190h13V0h-33Q163 0 114 56T65 232v473h155V255q0-37 15-51t53-14zm-10 611-142-21q-36-5-74-1t-95 21q-22 7-30.5 9t-14.5 2q-9 0-20-2t-36-10l10 86q18 9 34 13.5t32 4.5q12 0 27-3.5T14 884q20-8 30-11t19-5q-9 17-14 36t-5 38q0 52 31 83t82 31q26 0 50.5-7t47.5-21l-21-73q-32 9-59.5 11t-43.5-5q2-34 18-57.5t39-23.5q8 0 47.5 6.5T278 893v-92z"/><glyph glyph-name="alefWasleh.isol" unicode="ٱ" horiz-adv-x="285" arabic-form="isolated" d="M220 705V0H65v705h155zm-26 307q48 0 76-58t13-140q-23-18-47-27.5t-48-9.5q-13 0-27.5 3.5T121 795q-18 8-25.5 10T82 807q-16 0-30.5-2.5T16 795l10 90q16 8 30.5 12.5T84 903q16 50 45.5 79.5T194 1012zm21-123q0 14-9 26.5T186 928t-20.5-10-19.5-31q20-9 27.5-11.5T187 873q14 0 21 4t7 12z"/><glyph glyph-name="alefWasleh.fina" unicode="ٱ" horiz-adv-x="301" arabic-form="final" d="M288 190h13V0h-33Q163 0 114 56T65 232v473h155V255q0-37 15-51t53-14zm-94 822q48 0 76-58t13-140q-23-18-47-27.5t-48-9.5q-13 0-27.5 3.5T121 795q-18 8-25.5 10T82 807q-16 0-30.5-2.5T16 795l10 90q16 8 30.5 12.5T84 903q16 50 45.5 79.5T194 1012zm21-123q0 14-9 26.5T186 928t-20.5-10-19.5-31q20-9 27.5-11.5T187 873q14 0 21 4t7 12z"/><glyph glyph-name="dotlessBeh.init" unicode="ٮ" horiz-adv-x="375" d="M6 0H0q-9 0-15 27t-6 67q0 41 6 68.5T0 190h7q54 0 92 5.5t64 16.5q-5 42-17 86t-30 87l158 57q30-86 35.5-183T295 62q-53-29-129-45.5T6 0z"/><glyph glyph-name="dotlessBeh.medi" unicode="ٮ" horiz-adv-x="426" d="M4 0H0q-9 0-15 27t-6 67q0 41 6 68.5T0 190h15q41 0 71.5 7t56.5 22v148h155v-71q0-54 28-80t87-26h13V0h-10q-65 0-112 25t-67 70q-30-44-92.5-69.5T4 0z"/><glyph glyph-name="dotlessBeh.fina" unicode="ٮ" horiz-adv-x="917" d="M917 0h-6q-59 0-108.5 16.5T719 64q-76-34-172-54T359-10q-163 0-246 59T30 224q0 47 16.5 95T94 410l110-55q-11-28-15-45t-4-34q0-53 50.5-74.5T407 180q67 0 126.5 8T638 210l-38 124 151 43 19-59q26-80 54-104t87-24h6V0z"/><glyph glyph-name="beh.isol" unicode="ب" horiz-adv-x="845" arabic-form="isolated" d="M407 180q62 0 125.5 7.5T633 208q-4 34-15 72t-28 81l158 57q27-77 31.5-168.5T765 62Q688 29 578.5 9.5T359-10q-163 0-246 59T30 224q0 47 16.5 95T94 410l110-55q-11-28-15-45t-4-34q0-53 50.5-74.5T407 180zm89-339-83-82-83 82 83 83z"/><glyph glyph-name="beh.fina" unicode="ب" horiz-adv-x="917" arabic-form="final" d="M917 0h-6q-59 0-108.5 16.5T719 64q-76-34-172-54T359-10q-163 0-246 59T30 224q0 47 16.5 95T94 410l110-55q-11-28-15-45t-4-34q0-53 50.5-74.5T407 180q67 0 126.5 8T638 210l-38 124 151 43 19-59q26-80 54-104t87-24h6V0zM506-159l-83-82-83 82 83 83z"/><glyph glyph-name="beh.medi" unicode="ب" horiz-adv-x="426" arabic-form="medial" d="M4 0H0q-9 0-15 27t-6 67q0 41 6 68.5T0 190h15q41 0 71.5 7t56.5 22v148h155v-71q0-54 28-80t87-26h13V0h-10q-65 0-112 25t-67 70q-30-44-92.5-69.5T4 0zm292-159-83-82-83 82 83 83z"/><glyph glyph-name="beh.init" unicode="ب" horiz-adv-x="375" d="M6 0H0q-9 0-15 27t-6 67q0 41 6 68.5T0 190h7q54 0 92 5.5t64 16.5q-5 42-17 86t-30 87l158 57q30-86 35.5-183T295 62q-53-29-129-45.5T6 0zm300-159-83-82-83 82 83 83z"/><glyph glyph-name="peh.isol" unicode="پ" horiz-adv-x="845" arabic-form="isolated" d="M407 180q62 0 125.5 7.5T633 208q-4 34-15 72t-28 81l158 57q27-77 31.5-168.5T765 62Q688 29 578.5 9.5T359-10q-163 0-246 59T30 224q0 47 16.5 95T94 410l110-55q-11-28-15-45t-4-34q0-53 50.5-74.5T407 180zm6-349-73-72-83 82 83 83 73-73 73 73 83-83-83-82zm83-140-83-82-83 82 83 83z"/><glyph glyph-name="peh.fina" unicode="پ" horiz-adv-x="917" arabic-form="final" d="M917 0h-6q-59 0-108.5 16.5T719 64q-76-34-172-54T359-10q-163 0-246 59T30 224q0 47 16.5 95T94 410l110-55q-11-28-15-45t-4-34q0-53 50.5-74.5T407 180q67 0 126.5 8T638 210l-38 124 151 43 19-59q26-80 54-104t87-24h6V0zM423-169l-73-72-83 82 83 83 73-73 73 73 83-83-83-82zm83-140-83-82-83 82 83 83z"/><glyph glyph-name="peh.medi" unicode="پ" horiz-adv-x="426" arabic-form="medial" d="M4 0H0q-9 0-15 27t-6 67q0 41 6 68.5T0 190h15q41 0 71.5 7t56.5 22v148h155v-71q0-54 28-80t87-26h13V0h-10q-65 0-112 25t-67 70q-30-44-92.5-69.5T4 0zm209-169-73-72-83 82 83 83 73-73 73 73 83-83-83-82zm83-140-83-82-83 82 83 83z"/><glyph glyph-name="peh.init" unicode="پ" horiz-adv-x="375" d="M6 0H0q-9 0-15 27t-6 67q0 41 6 68.5T0 190h7q54 0 92 5.5t64 16.5q-5 42-17 86t-30 87l158 57q30-86 35.5-183T295 62q-53-29-129-45.5T6 0zm217-169-73-72-83 82 83 83 73-73 73 73 83-83-83-82zm83-140-83-82-83 82 83 83z"/><glyph glyph-name="teh.isol" unicode="ت" horiz-adv-x="845" arabic-form="isolated" d="M407 180q62 0 125.5 7.5T633 208q-4 34-15 72t-28 81l158 57q27-77 31.5-168.5T765 62Q688 29 578.5 9.5T359-10q-163 0-246 59T30 224q0 47 16.5 95T94 410l110-55q-11-28-15-45t-4-34q0-53 50.5-74.5T407 180zm6 357-73-72-83 82 83 83 73-73 73 73 83-83-83-82z"/><glyph glyph-name="teh.fina" unicode="ت" horiz-adv-x="917" arabic-form="final" d="M917 0h-6q-59 0-108.5 16.5T719 64q-76-34-172-54T359-10q-163 0-246 59T30 224q0 47 16.5 95T94 410l110-55q-11-28-15-45t-4-34q0-53 50.5-74.5T407 180q67 0 126.5 8T638 210l-38 124 151 43 19-59q26-80 54-104t87-24h6V0zM423 537l-73-72-83 82 83 83 73-73 73 73 83-83-83-82z"/><glyph glyph-name="teh.medi" unicode="ت" horiz-adv-x="426" arabic-form="medial" d="M4 0H0q-9 0-15 27t-6 67q0 41 6 68.5T0 190h15q41 0 71.5 7t56.5 22v148h155v-71q0-54 28-80t87-26h13V0h-10q-65 0-112 25t-67 70q-30-44-92.5-69.5T4 0zm209 537-73-72-83 82 83 83 73-73 73 73 83-83-83-82z"/><glyph glyph-name="teh.init" unicode="ت" horiz-adv-x="375" d="M6 0H0q-9 0-15 27t-6 67q0 41 6 68.5T0 190h7q54 0 92 5.5t64 16.5q-5 42-17 86t-30 87l158 57q30-86 35.5-183T295 62q-53-29-129-45.5T6 0zm167 597-73-72-83 82 83 83 73-73 73 73 83-83-83-82z"/><glyph glyph-name="theh.isol" unicode="ث" horiz-adv-x="845" arabic-form="isolated" d="M407 180q62 0 125.5 7.5T633 208q-4 34-15 72t-28 81l158 57q27-77 31.5-168.5T765 62Q688 29 578.5 9.5T359-10q-163 0-246 59T30 224q0 47 16.5 95T94 410l110-55q-11-28-15-45t-4-34q0-53 50.5-74.5T407 180zm89 518-83-82-83 82 83 83zm-83-161-73-72-83 82 83 83 73-73 73 73 83-83-83-82z"/><glyph glyph-name="theh.fina" unicode="ث" horiz-adv-x="917" arabic-form="final" d="M917 0h-6q-59 0-108.5 16.5T719 64q-76-34-172-54T359-10q-163 0-246 59T30 224q0 47 16.5 95T94 410l110-55q-11-28-15-45t-4-34q0-53 50.5-74.5T407 180q67 0 126.5 8T638 210l-38 124 151 43 19-59q26-80 54-104t87-24h6V0zM506 698l-83-82-83 82 83 83zm-83-161-73-72-83 82 83 83 73-73 73 73 83-83-83-82z"/><glyph glyph-name="theh.medi" unicode="ث" horiz-adv-x="426" arabic-form="medial" d="M4 0H0q-9 0-15 27t-6 67q0 41 6 68.5T0 190h15q41 0 71.5 7t56.5 22v148h155v-71q0-54 28-80t87-26h13V0h-10q-65 0-112 25t-67 70q-30-44-92.5-69.5T4 0zm292 698-83-82-83 82 83 83zm-83-161-73-72-83 82 83 83 73-73 73 73 83-83-83-82z"/><glyph glyph-name="theh.init" unicode="ث" horiz-adv-x="375" d="M6 0H0q-9 0-15 27t-6 67q0 41 6 68.5T0 190h7q54 0 92 5.5t64 16.5q-5 42-17 86t-30 87l158 57q30-86 35.5-183T295 62q-53-29-129-45.5T6 0zm250 758-83-82-83 82 83 83zm-83-161-73-72-83 82 83 83 73-73 73 73 83-83-83-82z"/><glyph glyph-name="tehTa.isol" unicode="ٹ" horiz-adv-x="845" arabic-form="isolated" d="M407 180q62 0 125.5 7.5T633 208q-4 34-15 72t-28 81l158 57q27-77 31.5-168.5T765 62Q688 29 578.5 9.5T359-10q-163 0-246 59T30 224q0 47 16.5 95T94 410l110-55q-11-28-15-45t-4-34q0-53 50.5-74.5T407 180zm55 483q52 0 84.5-34.5T579 538q0-19-6-39.5T557 464q-34-8-82-12t-110-4q-33 0-68 5t-62 14l25 75q12-3 23.5-5.5T307 532q3 13 7.5 24.5T324 578v172h77V647q14 8 29 12t32 4zm37-127q0 22-13 35t-36 13-41-14-28-40q56 1 80 2.5t38 3.5z"/><glyph glyph-name="tehTa.fina" unicode="ٹ" horiz-adv-x="917" arabic-form="final" d="M917 0h-6q-59 0-108.5 16.5T719 64q-76-34-172-54T359-10q-163 0-246 59T30 224q0 47 16.5 95T94 410l110-55q-11-28-15-45t-4-34q0-53 50.5-74.5T407 180q67 0 126.5 8T638 210l-38 124 151 43 19-59q26-80 54-104t87-24h6V0zM472 663q52 0 84.5-34.5T589 538q0-19-6-39.5T567 464q-34-8-82-12t-110-4q-33 0-68 5t-62 14l25 75q12-3 23.5-5.5T317 532q3 13 7.5 24.5T334 578v172h77V647q14 8 29 12t32 4zm37-127q0 22-13 35t-36 13-41-14-28-40q56 1 80 2.5t38 3.5z"/><glyph glyph-name="tehTa.medi" unicode="ٹ" horiz-adv-x="426" arabic-form="medial" d="M4 0H0q-9 0-15 27t-6 67q0 41 6 68.5T0 190h15q41 0 71.5 7t56.5 22v148h155v-71q0-54 28-80t87-26h13V0h-10q-65 0-112 25t-67 70q-30-44-92.5-69.5T4 0zm258 663q52 0 84.5-34.5T379 538q0-19-6-39.5T357 464q-34-8-82-12t-110-4q-33 0-68 5t-62 14l25 75q12-3 23.5-5.5T107 532q3 13 7.5 24.5T124 578v172h77V647q14 8 29 12t32 4zm37-127q0 22-13 35t-36 13-41-14-28-40q56 1 80 2.5t38 3.5z"/><glyph glyph-name="tehTa.init" unicode="ٹ" horiz-adv-x="375" d="M6 0H0q-9 0-15 27t-6 67q0 41 6 68.5T0 190h7q54 0 92 5.5t64 16.5q-5 42-17 86t-30 87l158 57q30-86 35.5-183T295 62q-53-29-129-45.5T6 0zm216 723q52 0 84.5-34.5T339 598q0-19-6-39.5T317 524q-34-8-82-12t-110-4q-33 0-68 5t-62 14l25 75q12-3 23.5-5.5T67 592q3 13 7.5 24.5T84 638v172h77V707q14 8 29 12t32 4zm37-127q0 22-13 35t-36 13-41-14-28-40q56 1 80 2.5t38 3.5z"/><glyph glyph-name="jim.isol" unicode="ج" horiz-adv-x="742" arabic-form="isolated" d="M408-293q-178 0-283 78T20-4q0 125 99 214.5T407 344q-34 4-60.5 6t-46.5 2q-60 0-120-12T59 304L13 466q66 26 129 38t131 12q91 0 215.5-33.5T722 396l-35-141q-236-2-370-63.5T183 30q0-67 52.5-100T395-103q66 0 126.5 5.5T650-79l-9-188q-62-14-118-20t-115-6zm75 336-83-82-83 82 83 83z"/><glyph glyph-name="jim.fina" unicode="ج" horiz-adv-x="742" arabic-form="final" d="M408-293q-178 0-283 78T20-4q0 125 99 214.5T407 344q-34 4-60.5 6t-46.5 2q-60 0-120-12T59 304L13 466q66 26 129 38t131 12q91 0 215.5-33.5T722 396l-31-125q-32 0-59-1t-50-3q16-39 53-58t98-19h9V0h-12Q614 0 548 60t-76 177q-138-24-213.5-79T183 30q0-67 52.5-100T395-103q66 0 126.5 5.5T650-79l-9-188q-62-14-118-20t-115-6zm45 336-83-82-83 82 83 83z"/><glyph glyph-name="jim.medi" unicode="ج" horiz-adv-x="742" arabic-form="medial" d="M3 0H0q-9 0-15 27t-6 67q0 41 6 68.5T0 190h6q125 0 233.5 41.5T402 346q-25 3-50 4.5t-52 1.5q-60 0-120-12T59 304L13 467q67 26 131.5 38T286 517q111 0 227-29t212-81l-63-137q-24 11-48.5 20.5T564 309q-4-8-9-16t-11-17q15-42 63-64t126-22h9V0h-12Q622 0 553 44.5T459 175Q371 91 252 45.5T3 0zm472-159-83-82-83 82 83 83z"/><glyph glyph-name="jim.init" unicode="ج" horiz-adv-x="742" d="M3 0H0q-9 0-15 27t-6 67q0 41 6 68.5T0 190h6q125 0 233.5 41.5T402 346q-25 3-50 4.5t-52 1.5q-61 0-121.5-12T59 304L13 467q67 26 131.5 38T286 517q111 0 227-29t212-81l-63-137q-24 11-48.5 20.5T564 309Q482 165 331 82.5T3 0zm472-159-83-82-83 82 83 83z"/><glyph glyph-name="cheh.isol" unicode="چ" horiz-adv-x="742" arabic-form="isolated" d="M408-293q-178 0-283 78T20-4q0 125 99 214.5T407 344q-34 4-60.5 6t-46.5 2q-60 0-120-12T59 304L13 466q66 26 129 38t131 12q91 0 215.5-33.5T722 396l-35-141q-236-2-370-63.5T183 30q0-67 52.5-100T395-103q66 0 126.5 5.5T650-79l-9-188q-62-14-118-20t-115-6zm-8 379-62-61-71 70 71 71 62-62 62 62 71-71-71-70zm71-94-71-70-71 70 71 71z"/><glyph glyph-name="cheh.fina" unicode="چ" horiz-adv-x="742" arabic-form="final" d="M408-293q-178 0-283 78T20-4q0 125 99 214.5T407 344q-34 4-60.5 6t-46.5 2q-60 0-120-12T59 304L13 466q66 26 129 38t131 12q91 0 215.5-33.5T722 396l-31-125q-32 0-59-1t-50-3q16-39 53-58t98-19h9V0h-12Q614 0 548 60t-76 177q-138-24-213.5-79T183 30q0-67 52.5-100T395-103q66 0 126.5 5.5T650-79l-9-188q-62-14-118-20t-115-6zM370 86l-62-61-71 70 71 71 62-62 62 62 71-71-71-70zm71-94-71-70-71 70 71 71z"/><glyph glyph-name="cheh.medi" unicode="چ" horiz-adv-x="742" arabic-form="medial" d="M3 0H0q-9 0-15 27t-6 67q0 41 6 68.5T0 190h6q125 0 233.5 41.5T402 346q-25 3-50 4.5t-52 1.5q-60 0-120-12T59 304L13 467q67 26 131.5 38T286 517q111 0 227-29t212-81l-63-137q-24 11-48.5 20.5T564 309q-4-8-9-16t-11-17q15-42 63-64t126-22h9V0h-12Q622 0 553 44.5T459 175Q371 91 252 45.5T3 0zm389-169-73-72-83 82 83 83 73-73 73 73 83-83-83-82zm83-140-83-82-83 82 83 83z"/><glyph glyph-name="cheh.init" unicode="چ" horiz-adv-x="742" d="M3 0H0q-9 0-15 27t-6 67q0 41 6 68.5T0 190h6q125 0 233.5 41.5T402 346q-25 3-50 4.5t-52 1.5q-61 0-121.5-12T59 304L13 467q67 26 131.5 38T286 517q111 0 227-29t212-81l-63-137q-24 11-48.5 20.5T564 309Q482 165 331 82.5T3 0zm389-169-73-72-83 82 83 83 73-73 73 73 83-83-83-82zm83-140-83-82-83 82 83 83z"/><glyph glyph-name="hah.isol" unicode="ح" horiz-adv-x="742" arabic-form="isolated" d="M408-293q-178 0-283 78T20-4q0 125 99 214.5T407 344q-34 4-60.5 6t-46.5 2q-60 0-120-12T59 304L13 466q66 26 129 38t131 12q91 0 215.5-33.5T722 396l-35-141q-236-2-370-63.5T183 30q0-67 52.5-100T395-103q66 0 126.5 5.5T650-79l-9-188q-62-14-118-20t-115-6z"/><glyph glyph-name="hah.fina" unicode="ح" horiz-adv-x="742" arabic-form="final" d="M408-293q-178 0-283 78T20-4q0 125 99 214.5T407 344q-34 4-60.5 6t-46.5 2q-60 0-120-12T59 304L13 466q66 26 129 38t131 12q91 0 215.5-33.5T722 396l-31-125q-32 0-59-1t-50-3q16-39 53-58t98-19h9V0h-12Q614 0 548 60t-76 177q-138-24-213.5-79T183 30q0-67 52.5-100T395-103q66 0 126.5 5.5T650-79l-9-188q-62-14-118-20t-115-6z"/><glyph glyph-name="hah.medi" unicode="ح" horiz-adv-x="742" arabic-form="medial" d="M3 0H0q-9 0-15 27t-6 67q0 41 6 68.5T0 190h6q125 0 233.5 41.5T402 346q-25 3-50 4.5t-52 1.5q-60 0-120-12T59 304L13 467q67 26 131.5 38T286 517q111 0 227-29t212-81l-63-137q-24 11-48.5 20.5T564 309q-4-8-9-16t-11-17q15-42 63-64t126-22h9V0h-12Q622 0 553 44.5T459 175Q371 91 252 45.5T3 0z"/><glyph glyph-name="hah.init" unicode="ح" horiz-adv-x="742" d="M3 0H0q-9 0-15 27t-6 67q0 41 6 68.5T0 190h6q125 0 233.5 41.5T402 346q-25 3-50 4.5t-52 1.5q-61 0-121.5-12T59 304L13 467q67 26 131.5 38T286 517q111 0 227-29t212-81l-63-137q-24 11-48.5 20.5T564 309Q482 165 331 82.5T3 0z"/><glyph glyph-name="kheh.isol" unicode="خ" horiz-adv-x="742" arabic-form="isolated" d="M408-293q-178 0-283 78T20-4q0 125 99 214.5T407 344q-34 4-60.5 6t-46.5 2q-60 0-120-12T59 304L13 466q66 26 129 38t131 12q91 0 215.5-33.5T722 396l-35-141q-236-2-370-63.5T183 30q0-67 52.5-100T395-103q66 0 126.5 5.5T650-79l-9-188q-62-14-118-20t-115-6zm28 950-83-82-83 82 83 83z"/><glyph glyph-name="kheh.fina" unicode="خ" horiz-adv-x="742" arabic-form="final" d="M408-293q-178 0-283 78T20-4q0 125 99 214.5T407 344q-34 4-60.5 6t-46.5 2q-60 0-120-12T59 304L13 466q66 26 129 38t131 12q91 0 215.5-33.5T722 396l-31-125q-32 0-59-1t-50-3q16-39 53-58t98-19h9V0h-12Q614 0 548 60t-76 177q-138-24-213.5-79T183 30q0-67 52.5-100T395-103q66 0 126.5 5.5T650-79l-9-188q-62-14-118-20t-115-6zm28 950-83-82-83 82 83 83z"/><glyph glyph-name="kheh.medi" unicode="خ" horiz-adv-x="742" arabic-form="medial" d="M3 0H0q-9 0-15 27t-6 67q0 41 6 68.5T0 190h6q125 0 233.5 41.5T402 346q-25 3-50 4.5t-52 1.5q-60 0-120-12T59 304L13 467q67 26 131.5 38T286 517q111 0 227-29t212-81l-63-137q-24 11-48.5 20.5T564 309q-4-8-9-16t-11-17q15-42 63-64t126-22h9V0h-12Q622 0 553 44.5T459 175Q371 91 252 45.5T3 0zm433 657-83-82-83 82 83 83z"/><glyph glyph-name="kheh.init" unicode="خ" horiz-adv-x="742" d="M3 0H0q-9 0-15 27t-6 67q0 41 6 68.5T0 190h6q125 0 233.5 41.5T402 346q-25 3-50 4.5t-52 1.5q-61 0-121.5-12T59 304L13 467q67 26 131.5 38T286 517q111 0 227-29t212-81l-63-137q-24 11-48.5 20.5T564 309Q482 165 331 82.5T3 0zm433 657-83-82-83 82 83 83z"/><glyph glyph-name="dal.isol" unicode="د" horiz-adv-x="677" arabic-form="isolated" d="M601 79q-60-45-136-67T292-10q-78 0-151 12.5T19 36l69 174q49-15 96.5-22.5T279 180q60 0 98.5 5.5T446 204q-38 60-101 118t-130 93l96 165q140-72 223-210.5T601 79z"/><glyph glyph-name="dal.fina" unicode="د" horiz-adv-x="709" arabic-form="final" d="M351 218 177 488l140 92 154-251q47-77 97-108t133-31h8V0h-12q-77 0-127 15t-92 50q-43-38-96.5-56.5T262-10q-65 0-129 12.5T19 36l69 174q49-15 96.5-22.5T279 180q25 0 48.5 1.5T372 186q-4 5-8 11.5T351 218z"/><glyph glyph-name="zal.isol" unicode="ذ" horiz-adv-x="677" arabic-form="isolated" d="M601 79q-60-45-136-67T292-10q-78 0-151 12.5T19 36l69 174q49-15 96.5-22.5T279 180q60 0 98.5 5.5T446 204q-38 60-101 118t-130 93l96 165q140-72 223-210.5T601 79zM394 744l-83-82-83 82 83 83z"/><glyph glyph-name="zal.fina" unicode="ذ" horiz-adv-x="709" arabic-form="final" d="M351 218 177 488l140 92 154-251q47-77 97-108t133-31h8V0h-12q-77 0-127 15t-92 50q-43-38-96.5-56.5T262-10q-65 0-129 12.5T19 36l69 174q49-15 96.5-22.5T279 180q25 0 48.5 1.5T372 186q-4 5-8 11.5T351 218zm-37 526-83-82-83 82 83 83z"/><glyph glyph-name="dalTa.isol" unicode="ڈ" horiz-adv-x="677" arabic-form="isolated" d="M601 79q-60-45-136-67T292-10q-78 0-151 12.5T19 36l69 174q49-15 96.5-22.5T279 180q60 0 98.5 5.5T446 204q-38 60-101 118t-130 93l96 165q140-72 223-210.5T601 79zM360 860q52 0 84.5-34.5T477 735q0-19-6-39.5T455 661q-34-8-82-12t-110-4q-33 0-68 5t-62 14l25 75q12-3 23.5-5.5T205 729q3 13 7.5 24.5T222 775v172h77V844q14 8 29 12t32 4zm37-127q0 22-13 35t-36 13-41-14-28-40q56 1 80 2.5t38 3.5z"/><glyph glyph-name="dalTa.fina" unicode="ڈ" horiz-adv-x="709" arabic-form="final" d="M351 218 177 488l140 92 154-251q47-77 97-108t133-31h8V0h-12q-77 0-127 15t-92 50q-43-38-96.5-56.5T262-10q-65 0-129 12.5T19 36l69 174q49-15 96.5-22.5T279 180q25 0 48.5 1.5T372 186q-4 5-8 11.5T351 218zm-71 642q52 0 84.5-34.5T397 735q0-19-6-39.5T375 661q-34-8-82-12t-110-4q-33 0-68 5t-62 14l25 75q12-3 23.5-5.5T125 729q3 13 7.5 24.5T142 775v172h77V844q14 8 29 12t32 4zm37-127q0 22-13 35t-36 13-41-14-28-40q56 1 80 2.5t38 3.5z"/><glyph glyph-name="reh.isol" unicode="ر" horiz-adv-x="618" arabic-form="isolated" d="M560 102q0-75-23.5-144T468-166q-49-60-114-93.5T220-293q-52 0-92 7.5T47-259l36 140q24-5 42.5-7t35.5-2q71 0 140.5 47T423 47q-8 42-38.5 120T314 328l162 71q41-93 62.5-168.5T560 102z"/><glyph glyph-name="reh.fina" unicode="ر" horiz-adv-x="649" arabic-form="final" d="M450 81q-23 26-44.5 62T363 227l-44 101 146 63 44-105q22-55 50-75.5t84-20.5h6V0h-7q-26 0-48.5 3T551 13q-26-132-120.5-219T220-293q-52 0-92 7.5T47-259l36 140q24-5 42.5-7t35.5-2q77 0 151 54T450 81z"/><glyph glyph-name="zeh.isol" unicode="ز" horiz-adv-x="618" arabic-form="isolated" d="M560 102q0-75-23.5-144T468-166q-49-60-114-93.5T220-293q-52 0-92 7.5T47-259l36 140q24-5 42.5-7t35.5-2q71 0 140.5 47T423 47q-8 42-38.5 120T314 328l162 71q41-93 62.5-168.5T560 102zM414 554l-83-82-83 82 83 83z"/><glyph glyph-name="zeh.fina" unicode="ز" horiz-adv-x="649" arabic-form="final" d="M450 81q-23 26-44.5 62T363 227l-44 101 146 63 44-105q22-55 50-75.5t84-20.5h6V0h-7q-26 0-48.5 3T551 13q-26-132-120.5-219T220-293q-52 0-92 7.5T47-259l36 140q24-5 42.5-7t35.5-2q77 0 151 54T450 81zm-36 473-83-82-83 82 83 83z"/><glyph glyph-name="zheh.isol" unicode="ژ" horiz-adv-x="618" arabic-form="isolated" d="M560 102q0-75-23.5-144T468-166q-49-60-114-93.5T220-293q-52 0-92 7.5T47-259l36 140q24-5 42.5-7t35.5-2q71 0 140.5 47T423 47q-8 42-38.5 120T314 328l162 71q41-93 62.5-168.5T560 102zM414 705l-83-82-83 82 83 83zm-83-161-73-72-83 82 83 83 73-73 73 73 83-83-83-82z"/><glyph glyph-name="zheh.fina" unicode="ژ" horiz-adv-x="649" arabic-form="final" d="M450 81q-23 26-44.5 62T363 227l-44 101 146 63 44-105q22-55 50-75.5t84-20.5h6V0h-7q-26 0-48.5 3T551 13q-26-132-120.5-219T220-293q-52 0-92 7.5T47-259l36 140q24-5 42.5-7t35.5-2q77 0 151 54T450 81zm-36 624-83-82-83 82 83 83zm-83-161-73-72-83 82 83 83 73-73 73 73 83-83-83-82z"/><glyph glyph-name="rehTa.isol" unicode="ڑ" horiz-adv-x="618" arabic-form="isolated" d="M560 102q0-75-23.5-144T468-166q-49-60-114-93.5T220-293q-52 0-92 7.5T47-259l36 140q24-5 42.5-7t35.5-2q71 0 140.5 47T423 47q-8 42-38.5 120T314 328l162 71q41-93 62.5-168.5T560 102zM380 670q52 0 84.5-34.5T497 545q0-19-6-39.5T475 471q-34-8-82-12t-110-4q-33 0-68 5t-62 14l25 75q12-3 23.5-5.5T225 539q3 13 7.5 24.5T242 585v172h77V654q14 8 29 12t32 4zm37-127q0 22-13 35t-36 13-41-14-28-40q56 1 80 2.5t38 3.5z"/><glyph glyph-name="rehTa.fina" unicode="ڑ" horiz-adv-x="649" arabic-form="final" d="M450 81q-23 26-44.5 62T363 227l-44 101 146 63 44-105q22-55 50-75.5t84-20.5h6V0h-7q-26 0-48.5 3T551 13q-26-132-120.5-219T220-293q-52 0-92 7.5T47-259l36 140q24-5 42.5-7t35.5-2q77 0 151 54T450 81zm-70 589q52 0 84.5-34.5T497 545q0-19-6-39.5T475 471q-34-8-82-12t-110-4q-33 0-68 5t-62 14l25 75q12-3 23.5-5.5T225 539q3 13 7.5 24.5T242 585v172h77V654q14 8 29 12t32 4zm37-127q0 22-13 35t-36 13-41-14-28-40q56 1 80 2.5t38 3.5z"/><glyph glyph-name="sin.isol" unicode="س" horiz-adv-x="1437" arabic-form="isolated" d="M694 13q3-41 3-84t-3-86q-66-51-155-81t-180-30q-128 0-203 64T81-27q0 48 16 99t49 107l119-53q-14-31-20-55t-6-46q0-56 36.5-80.5T394-80q38 0 80.5 9T551-47q-1 62-20 156t-58 227l160 46 26-88q18-60 46.5-87t74.5-27q44 0 67.5 24.5T871 275v92h155v-91q0-46 21.5-71t61.5-25q25 0 46.5 7t47.5 25q-5 42-17 86t-30 87l158 57q30-86 35.5-183T1335 62q-45-36-90-54t-90-18q-59 0-101 26.5T988 95q-27-49-80.5-77T786-10q-29 0-52 6t-40 17z"/><glyph glyph-name="sin.fina" unicode="س" horiz-adv-x="1502" arabic-form="final" d="M1304 91q-20-47-64-74t-100-27q-58 0-102.5 25.5T969 89q-25-47-73-73T786-10q-29 0-52 6t-40 17q3-41 3-84t-3-86q-66-51-155-81t-180-30q-128 0-203 64T81-27q0 48 16 99t49 107l119-53q-14-31-20-55t-6-46q0-56 36.5-80.5T394-80q38 0 80.5 9T551-47q-1 62-20 156t-58 227l160 46 26-87q18-60 47-87.5t74-27.5q44 0 67.5 24.5T871 275v92h155v-91q0-46 21.5-71t61.5-25q41 0 64.5 25t23.5 69v138h155V290q0-56 29-78t111-22h10V0h-10q-65 0-113.5 23.5T1304 91z"/><glyph glyph-name="sin.medi" unicode="س" horiz-adv-x="1102" arabic-form="medial" d="M4 0H0q-9 0-15 27t-6 67q0 41 6 68.5T0 190h24q61 0 87.5 23.5T138 292v87h155V276q0-48 23-72t69-24q42 0 64 24t22 71v92h155v-91q0-46 21.5-71t61.5-25q41 0 64.5 25t23.5 69v138h155V290q0-56 29-78t111-22h10V0h-10q-66 0-114 23t-74 68q-20-47-64-74T740-10q-60 0-103.5 24.5T569 87q-25-46-73-71.5T385-10q-64 0-111 26t-72 74q-27-44-77.5-67T4 0z"/><glyph glyph-name="sin.init" unicode="س" horiz-adv-x="1037" d="M4 0H0q-9 0-15 27t-6 67q0 41 6 68.5T0 190h24q61 0 87.5 23.5T138 292v87h155V276q0-48 23-72t69-24q42 0 64 24t22 71v92h155v-91q0-46 21.5-71t61.5-25q30 0 55.5 6.5T808 205q-6 47-18 92.5T761 385l155 57q29-87 34.5-183.5T937 61q-36-33-81.5-52T764-10q-71 0-119.5 24.5T569 88q-24-47-72.5-72.5T385-10q-64 0-111 26t-72 74q-27-44-77.5-67T4 0z"/><glyph glyph-name="shin.isol" unicode="ش" horiz-adv-x="1437" arabic-form="isolated" d="M694 13q3-41 3-84t-3-86q-66-51-155-81t-180-30q-128 0-203 64T81-27q0 48 16 99t49 107l119-53q-14-31-20-55t-6-46q0-56 36.5-80.5T394-80q38 0 80.5 9T551-47q-1 62-20 156t-58 227l160 46 26-88q18-60 46.5-87t74.5-27q44 0 67.5 24.5T871 275v92h155v-91q0-46 21.5-71t61.5-25q25 0 46.5 7t47.5 25q-5 42-17 86t-30 87l158 57q30-86 35.5-183T1335 62q-45-36-90-54t-90-18q-59 0-101 26.5T988 95q-27-49-80.5-77T786-10q-29 0-52 6t-40 17zm332 685-83-82-83 82 83 83zm-83-161-73-72-83 82 83 83 73-73 73 73 83-83-83-82z"/><glyph glyph-name="shin.fina" unicode="ش" horiz-adv-x="1502" arabic-form="final" d="M1304 91q-20-47-64-74t-100-27q-58 0-102.5 25.5T969 89q-25-47-73-73T786-10q-29 0-52 6t-40 17q3-41 3-84t-3-86q-66-51-155-81t-180-30q-128 0-203 64T81-27q0 48 16 99t49 107l119-53q-14-31-20-55t-6-46q0-56 36.5-80.5T394-80q38 0 80.5 9T551-47q-1 62-20 156t-58 227l160 46 26-87q18-60 47-87.5t74-27.5q44 0 67.5 24.5T871 275v92h155v-91q0-46 21.5-71t61.5-25q41 0 64.5 25t23.5 69v138h155V290q0-56 29-78t111-22h10V0h-10q-65 0-113.5 23.5T1304 91zm-278 607-83-82-83 82 83 83zm-83-161-73-72-83 82 83 83 73-73 73 73 83-83-83-82z"/><glyph glyph-name="shin.medi" unicode="ش" horiz-adv-x="1102" arabic-form="medial" d="M4 0H0q-9 0-15 27t-6 67q0 41 6 68.5T0 190h24q61 0 87.5 23.5T138 292v87h155V276q0-48 23-72t69-24q42 0 64 24t22 71v92h155v-91q0-46 21.5-71t61.5-25q41 0 64.5 25t23.5 69v138h155V290q0-56 29-78t111-22h10V0h-10q-66 0-114 23t-74 68q-20-47-64-74T740-10q-60 0-103.5 24.5T569 87q-25-46-73-71.5T385-10q-64 0-111 26t-72 74q-27-44-77.5-67T4 0zm625 698-83-82-83 82 83 83zm-83-161-73-72-83 82 83 83 73-73 73 73 83-83-83-82z"/><glyph glyph-name="shin.init" unicode="ش" horiz-adv-x="1037" d="M4 0H0q-9 0-15 27t-6 67q0 41 6 68.5T0 190h24q61 0 87.5 23.5T138 292v87h155V276q0-48 23-72t69-24q42 0 64 24t22 71v92h155v-91q0-46 21.5-71t61.5-25q30 0 55.5 6.5T808 205q-6 47-18 92.5T761 385l155 57q29-87 34.5-183.5T937 61q-36-33-81.5-52T764-10q-71 0-119.5 24.5T569 88q-24-47-72.5-72.5T385-10q-64 0-111 26t-72 74q-27-44-77.5-67T4 0zm625 698-83-82-83 82 83 83zm-83-161-73-72-83 82 83 83 73-73 73 73 83-83-83-82z"/><glyph glyph-name="sad.isol" unicode="ص" horiz-adv-x="1356" arabic-form="isolated" d="M677 202q38 144 128 222t217 78q116 0 195-82.5t79-210.5q0-42-13.5-89.5T1248 37q-52-19-145-28T868 0q-51 0-96.5 2T694 8q3-41 3-82.5t-3-82.5q-66-51-155-81t-180-30q-128 0-203 64T81-27q0 48 16 99t49 107l119-53q-14-31-20-55t-6-46q0-56 36.5-80.5T394-80q38 0 80.5 9T551-47q-1 62-20 156t-58 227l160 46q14-49 25-93t19-87zm456 3q0 55-37 88.5t-96 33.5q-65 0-113.5-35T812 191q12-1 26.5-1H884q111 0 165.5 3.5T1133 205z"/><glyph glyph-name="sad.fina" unicode="ص" horiz-adv-x="1399" arabic-form="final" d="M677 202q38 144 128 222t217 78q116 0 195-82.5t79-210.5v-10q21-5 41-7t42-2h20V0h-13q-61 0-105 5.5T1197 23q-55-12-136-17.5T868 0q-51 0-96.5 2T694 8q3-41 3-82.5t-3-82.5q-66-51-155-81t-180-30q-128 0-203 64T81-27q0 48 16 99t49 107l119-53q-14-31-20-55t-6-46q0-56 36.5-80.5T394-80q38 0 80.5 9T551-47q-1 62-20 155.5T473 335l160 46q15-50 25.5-94t18.5-85zm456 3q0 55-37 88.5t-96 33.5q-65 0-113.5-35T812 191q12-1 26.5-1H884q111 0 165.5 3.5T1133 205z"/><glyph glyph-name="sad.medi" unicode="ص" horiz-adv-x="1059" arabic-form="medial" d="M4 0H0q-9 0-15 27t-6 67q0 41 6 68.5T0 190h15q40 0 70.5 6.5T141 218v149h160v-98q0-31 8-47.5t26-24.5q38 147 128.5 226T682 502q116 0 195-82.5T956 209v-10q21-5 41-7t42-2h20V0h-13q-59 0-104 5.5T853 24Q786 12 684.5 6T426 0q-93 0-153 19.5T181 80q-25-39-70-59.5T4 0zm789 205q0 55-37 88.5T660 327q-66 0-114.5-35T472 190q111 1 191.5 4.5T793 205z"/><glyph glyph-name="sad.init" unicode="ص" horiz-adv-x="1016" d="M4 0H0q-9 0-15 27t-6 67q0 41 6 68.5T0 190h15q40 0 70.5 6.5T141 218v149h160v-98q0-31 8-47.5t26-24.5q38 147 128.5 226T682 502q116 0 195-82.5T956 209q0-42-13.5-89.5T908 37Q844 18 731.5 9T426 0q-93 0-153 19.5T181 80q-25-39-70-59.5T4 0zm789 205q0 55-37 88.5T660 327q-66 0-114.5-35T472 190q111 1 191.5 4.5T793 205z"/><glyph glyph-name="zad.isol" unicode="ض" horiz-adv-x="1356" arabic-form="isolated" d="M677 202q38 144 128 222t217 78q116 0 195-82.5t79-210.5q0-42-13.5-89.5T1248 37q-52-19-145-28T868 0q-51 0-96.5 2T694 8q3-41 3-82.5t-3-82.5q-66-51-155-81t-180-30q-128 0-203 64T81-27q0 48 16 99t49 107l119-53q-14-31-20-55t-6-46q0-56 36.5-80.5T394-80q38 0 80.5 9T551-47q-1 62-20 156t-58 227l160 46q14-49 25-93t19-87zm456 3q0 55-37 88.5t-96 33.5q-65 0-113.5-35T812 191q12-1 26.5-1H884q111 0 165.5 3.5T1133 205zm-44 452-83-82-83 82 83 83z"/><glyph glyph-name="zad.fina" unicode="ض" horiz-adv-x="1399" arabic-form="final" d="M677 202q38 144 128 222t217 78q116 0 195-82.5t79-210.5v-10q21-5 41-7t42-2h20V0h-13q-61 0-105 5.5T1197 23q-55-12-136-17.5T868 0q-51 0-96.5 2T694 8q3-41 3-82.5t-3-82.5q-66-51-155-81t-180-30q-128 0-203 64T81-27q0 48 16 99t49 107l119-53q-14-31-20-55t-6-46q0-56 36.5-80.5T394-80q38 0 80.5 9T551-47q-1 62-20 155.5T473 335l160 46q15-50 25.5-94t18.5-85zm456 3q0 55-37 88.5t-96 33.5q-65 0-113.5-35T812 191q12-1 26.5-1H884q111 0 165.5 3.5T1133 205zm-44 452-83-82-83 82 83 83z"/><glyph glyph-name="zad.medi" unicode="ض" horiz-adv-x="1059" arabic-form="medial" d="M4 0H0q-9 0-15 27t-6 67q0 41 6 68.5T0 190h15q40 0 70.5 6.5T141 218v149h160v-98q0-31 8-47.5t26-24.5q38 147 128.5 226T682 502q116 0 195-82.5T956 209v-10q21-5 41-7t42-2h20V0h-13q-59 0-104 5.5T853 24Q786 12 684.5 6T426 0q-93 0-153 19.5T181 80q-25-39-70-59.5T4 0zm789 205q0 55-37 88.5T660 327q-66 0-114.5-35T472 190q111 1 191.5 4.5T793 205zm-54 452-83-82-83 82 83 83z"/><glyph glyph-name="zad.init" unicode="ض" horiz-adv-x="1016" d="M4 0H0q-9 0-15 27t-6 67q0 41 6 68.5T0 190h15q40 0 70.5 6.5T141 218v149h160v-98q0-31 8-47.5t26-24.5q38 147 128.5 226T682 502q116 0 195-82.5T956 209q0-42-13.5-89.5T908 37Q844 18 731.5 9T426 0q-93 0-153 19.5T181 80q-25-39-70-59.5T4 0zm789 205q0 55-37 88.5T660 327q-66 0-114.5-35T472 190q111 1 191.5 4.5T793 205zm-54 452-83-82-83 82 83 83z"/><glyph glyph-name="ta.isol" unicode="ط" horiz-adv-x="868" arabic-form="isolated" d="M534 502q116 0 195-82.5T808 209q0-42-13.5-89.5T760 37Q696 18 583.5 9T288 0q-79 0-152 12T10 46l69 174q23-8 47.5-14t50.5-11q7 28 16.5 55.5T217 306v399h155V450q37 26 77.5 39t84.5 13zm111-297q0 55-37 88.5T512 327q-62 0-108-35t-71-102q108 1 186 4.5T645 205z"/><glyph glyph-name="ta.fina" unicode="ط" horiz-adv-x="911" arabic-form="final" d="M288 0q-79 0-152 12T10 46l69 174q23-8 47.5-14t50.5-11q7 28 16.5 55.5T217 306v399h155V450q37 26 77.5 39t84.5 13q116 0 195-82.5T808 209v-10q21-5 41-7t42-2h20V0h-13q-60 0-105 5.5T705 24Q637 12 535.5 6T288 0zm357 205q0 55-37 88.5T512 327q-62 0-108-35t-71-102q108 1 186 4.5T645 205z"/><glyph glyph-name="ta.medi" unicode="ط" horiz-adv-x="832" arabic-form="medial" d="M209 0H0q-9 0-15 27t-6 67q0 41 6 68.5T0 190h96q8 33 18.5 62t23.5 54v399h155V450q37 26 77.5 39t84.5 13q116 0 195-82.5T729 209v-10q21-5 41-7t42-2h20V0h-13q-60 0-105 5.5T626 24Q558 12 456.5 6T209 0zm357 205q0 55-37 88.5T433 327q-62 0-108-35t-71-102q108 1 186 4.5T566 205z"/><glyph glyph-name="ta.init" unicode="ط" horiz-adv-x="790" d="M210 0H0q-9 0-15 27t-6 67q0 41 6 68.5T0 190h97q8 33 18.5 62t23.5 54v399h155V450q37 26 77.5 39t84.5 13q116 0 195-82.5T730 209q0-42-13.5-89.5T682 37Q618 18 505.5 9T210 0zm357 205q0 55-37 88.5T434 327q-62 0-108-35t-71-102q108 1 186 4.5T567 205z"/><glyph glyph-name="za.isol" unicode="ظ" horiz-adv-x="868" arabic-form="isolated" d="M534 502q116 0 195-82.5T808 209q0-42-13.5-89.5T760 37Q696 18 583.5 9T288 0q-79 0-152 12T10 46l69 174q23-8 47.5-14t50.5-11q7 28 16.5 55.5T217 306v399h155V450q37 26 77.5 39t84.5 13zm111-297q0 55-37 88.5T512 327q-62 0-108-35t-71-102q108 1 186 4.5T645 205zm64 452-83-82-83 82 83 83z"/><glyph glyph-name="za.fina" unicode="ظ" horiz-adv-x="911" arabic-form="final" d="M288 0q-79 0-152 12T10 46l69 174q23-8 47.5-14t50.5-11q7 28 16.5 55.5T217 306v399h155V450q37 26 77.5 39t84.5 13q116 0 195-82.5T808 209v-10q21-5 41-7t42-2h20V0h-13q-60 0-105 5.5T705 24Q637 12 535.5 6T288 0zm357 205q0 55-37 88.5T512 327q-62 0-108-35t-71-102q108 1 186 4.5T645 205zm64 452-83-82-83 82 83 83z"/><glyph glyph-name="za.medi" unicode="ظ" horiz-adv-x="832" arabic-form="medial" d="M209 0H0q-9 0-15 27t-6 67q0 41 6 68.5T0 190h96q8 33 18.5 62t23.5 54v399h155V450q37 26 77.5 39t84.5 13q116 0 195-82.5T729 209v-10q21-5 41-7t42-2h20V0h-13q-60 0-105 5.5T626 24Q558 12 456.5 6T209 0zm357 205q0 55-37 88.5T433 327q-62 0-108-35t-71-102q108 1 186 4.5T566 205zm53 452-83-82-83 82 83 83z"/><glyph glyph-name="za.init" unicode="ظ" horiz-adv-x="790" d="M210 0H0q-9 0-15 27t-6 67q0 41 6 68.5T0 190h97q8 33 18.5 62t23.5 54v399h155V450q37 26 77.5 39t84.5 13q116 0 195-82.5T730 209q0-42-13.5-89.5T682 37Q618 18 505.5 9T210 0zm357 205q0 55-37 88.5T434 327q-62 0-108-35t-71-102q108 1 186 4.5T567 205zm52 452-83-82-83 82 83 83z"/><glyph glyph-name="eyn.isol" unicode="ع" horiz-adv-x="712" arabic-form="isolated" d="M272 418q7-60 37-105t65-45q17 0 61.5 9T554 305l17-156-140-33Q301 85 250.5 58.5T200-12q0-45 53.5-68T413-103q64 0 123 5.5T662-79l-9-188q-50-12-110.5-19T426-293q-177 0-279 71.5T45-26q0 66 35 118t107 93q-36 41-55 92t-19 107q0 93 61 152.5T328 596q48 0 89-12t86-40l-38-138q-32 10-65.5 15.5T337 427q-19 0-35.5-2.5T272 418z"/><glyph glyph-name="eyn.fina" unicode="ع" horiz-adv-x="681" arabic-form="final" d="M414-293q-178 0-279.5 63.5T33-54q0 70 43 126t129 97q-23 27-44 59t-40 72q-18-7-34.5-14T54 272L-1 429q92 42 189 66t176 24q126 0 189.5-43T617 347q0-41-18-79.5T545 194q26-2 57.5-3t71.5-1h7V0h-8Q550 0 460 20.5T302 85q-55-22-80.5-47T196-21q0-41 51-61.5T401-103q64 0 123 5.5T650-79l-9-188q-60-14-115-20t-112-6zm-11 515q26 19 40 40t14 41q0 26-26 40.5T357 358q-25 0-48-2.5t-48-8.5q26-47 60.5-77.5T403 222z"/><glyph glyph-name="eyn.medi" unicode="ع" horiz-adv-x="681" arabic-form="medial" d="M15 0H0q-9 0-15 27t-6 67q0 41 6 68.5T0 190h11q45 0 88 1t85 4q-17 23-33 49.5T121 300q-18-7-34.5-14T54 272L-1 429q92 42 189 66t176 24q126 0 189.5-43T617 347q0-40-17-78.5T550 194q25-2 55.5-3t68.5-1h7V0h-8Q567 0 486.5 15.5T342 63q-77-30-161.5-46.5T15 0zm441 303q0 26-26 40.5T357 358q-25 0-48-2.5t-48-8.5q24-42 53.5-70.5T383 230q37 14 55 32t18 41z"/><glyph glyph-name="eyn.init" unicode="ع" horiz-adv-x="615" d="M16 0H0q-9 0-15 27t-6 67q0 41 6 68.5T0 190h93l36 1q-23 36-34.5 77T83 354q0 93 61 152.5T298 566q48 0 89-12t86-40l-38-138q-32 10-65.5 15.5T307 397q-19 0-35.5-2.5T242 388q7-61 37.5-107.5T346 234q26 0 88.5 15.5T569 289l46-177Q472 52 332 26T16 0z"/><glyph glyph-name="gheyn.isol" unicode="غ" horiz-adv-x="712" arabic-form="isolated" d="M272 418q7-60 37-105t65-45q17 0 61.5 9T554 305l17-156-140-33Q301 85 250.5 58.5T200-12q0-45 53.5-68T413-103q64 0 123 5.5T662-79l-9-188q-50-12-110.5-19T426-293q-177 0-279 71.5T45-26q0 66 35 118t107 93q-36 41-55 92t-19 107q0 93 61 152.5T328 596q48 0 89-12t86-40l-38-138q-32 10-65.5 15.5T337 427q-19 0-35.5-2.5T272 418zm147 333-83-82-83 82 83 83z"/><glyph glyph-name="gheyn.fina" unicode="غ" horiz-adv-x="681" arabic-form="final" d="M414-293q-178 0-279.5 63.5T33-54q0 70 43 126t129 97q-23 27-44 59t-40 72q-18-7-34.5-14T54 272L-1 429q92 42 189 66t176 24q126 0 189.5-43T617 347q0-41-18-79.5T545 194q26-2 57.5-3t71.5-1h7V0h-8Q550 0 460 20.5T302 85q-55-22-80.5-47T196-21q0-41 51-61.5T401-103q64 0 123 5.5T650-79l-9-188q-60-14-115-20t-112-6zm-11 515q26 19 40 40t14 41q0 26-26 40.5T357 358q-25 0-48-2.5t-48-8.5q26-47 60.5-77.5T403 222zm76 452-83-82-83 82 83 83z"/><glyph glyph-name="gheyn.medi" unicode="غ" horiz-adv-x="681" arabic-form="medial" d="M15 0H0q-9 0-15 27t-6 67q0 41 6 68.5T0 190h11q45 0 88 1t85 4q-17 23-33 49.5T121 300q-18-7-34.5-14T54 272L-1 429q92 42 189 66t176 24q126 0 189.5-43T617 347q0-40-17-78.5T550 194q25-2 55.5-3t68.5-1h7V0h-8Q567 0 486.5 15.5T342 63q-77-30-161.5-46.5T15 0zm441 303q0 26-26 40.5T357 358q-25 0-48-2.5t-48-8.5q24-42 53.5-70.5T383 230q37 14 55 32t18 41zm23 371-83-82-83 82 83 83z"/><glyph glyph-name="gheyn.init" unicode="غ" horiz-adv-x="615" d="M16 0H0q-9 0-15 27t-6 67q0 41 6 68.5T0 190h93l36 1q-23 36-34.5 77T83 354q0 93 61 152.5T298 566q48 0 89-12t86-40l-38-138q-32 10-65.5 15.5T307 397q-19 0-35.5-2.5T242 388q7-61 37.5-107.5T346 234q26 0 88.5 15.5T569 289l46-177Q472 52 332 26T16 0zm373 721-83-82-83 82 83 83z"/><glyph glyph-name="feh.isol" unicode="ف" horiz-adv-x="875" arabic-form="isolated" d="m656 787-83-82-83 82 83 83zm104-244q34-46 52-100.5T830 332q0-177-104.5-259.5T399-10q-178 0-273.5 68.5T30 252q0 45 16.5 90.5T94 430l110-55q-11-29-15-46.5t-4-34.5q0-61 54.5-87.5T417 180q118 0 182.5 21.5T684 268q-29-10-63.5-15t-73.5-5q-90 0-137 41t-47 119q0 97 62.5 172T573 655q49 0 99-30t88-82zm-197-59q-24 0-38.5-15T510 430q0-22 15.5-31t51.5-9q25 0 51 2.5t51 6.5q-15 40-46 62.5T563 484z"/><glyph glyph-name="feh.fina" unicode="ف" horiz-adv-x="947" arabic-form="final" d="m750 657-83-82-83 82 83 83zM185 296q0-63 48-89.5T397 180q27 0 52 1t47 2q-26 34-39.5 69T443 323q0 83 61.5 135T668 510t163.5-52T893 323q0-32-13-65t-38-66q30-1 51-1.5t40-.5h14V0h-9q-72 0-141.5 14.5T667 57Q600 24 524 7T370-10q-167 0-253.5 67T30 253q0 44 17 91.5T94 430l110-55q-11-28-15-45t-4-34zm483 47q-37 0-56-12t-19-35q0-24 20.5-43.5T674 219q34 15 51.5 34.5T743 296t-19 35-56 12z"/><glyph glyph-name="feh.medi" unicode="ف" horiz-adv-x="573" arabic-form="medial" d="M7 0H0q-9 0-15 27t-6 67q0 41 6 68.5T0 190h16q26 0 49.5 1t45.5 2q-21 31-31.5 63.5T69 323q0 83 61.5 135T294 510t163.5-52T519 323q0-32-13.5-65.5T466 193q21-1 44.5-2t48.5-1h14V0h-8q-76 0-148.5 15T281 58q-63-28-133-43T7 0zm287 343q-37 0-56-12t-19-35 18-41.5 54-31.5q39 14 58.5 32.5T369 296q0 23-19 35t-56 12zm83 314-83-82-83 82 83 83z"/><glyph glyph-name="feh.init" unicode="ف" horiz-adv-x="558" d="M115 0H0q-9 0-15 27t-6 67q0 41 6 68.5T0 190h115q119 0 180.5 19t75.5 60q-31-10-67-15.5t-74-5.5q-90 0-137 41T46 408q0 97 62.5 172T256 655q51 0 101-30.5t88-83.5q33-46 50.5-101.5T513 325q0-172-94-248.5T115 0zm127 484q-22 0-35.5-15.5T193 430q0-22 15.5-31t51.5-9q25 0 50.5 2.5T360 399q-17 41-47.5 63T242 484zm97 320-83-82-83 82 83 83z"/><glyph glyph-name="ghaf.isol" unicode="ق" horiz-adv-x="785" arabic-form="isolated" d="m487 537-73-72-83 82 83 83 73-73 73 73 83-83-83-82zm191-241q30-48 46-108t16-125q0-168-102.5-262T348-293q-147 0-232.5 71.5T30-31q0 52 17 104.5T94 168l110-55q-10-24-14.5-46.5T185 23q0-61 47.5-93.5T372-103q97 0 152 30t69 90Q564 2 530-5t-73-7q-88 0-136 49.5T273 178q0 97 62.5 172T483 425q54 0 106-34t89-95zm-203-38q-23 0-39-17t-16-41q0-22 15.5-31t51.5-9q23 0 48 2t51 6q-15 44-43 67t-68 23z"/><glyph glyph-name="ghaf.fina" unicode="ق" horiz-adv-x="812" arabic-form="final" d="m487 567-73-72-83 82 83 83 73-73 73 73 83-83-83-82zm325-377V0h-76q-19-140-119.5-216.5T348-293q-147 0-232.5 71.5T30-31q0 52 17 104.5T94 168l110-55q-10-24-14.5-46.5T185 23q0-61 47.5-93.5T372-103q90 0 143 25.5T588 0H477q-91 0-147.5 53.5T273 196q0 106 61 182.5T483 455q79 0 148-74t95-191h86zm-392 40q0-21 15.5-30.5T487 190h97q-15 48-43.5 73T472 288q-23 0-37.5-16.5T420 230z"/><glyph glyph-name="ghaf.medi" unicode="ق" horiz-adv-x="573" arabic-form="medial" d="M7 0H0q-9 0-15 27t-6 67q0 41 6 68.5T0 190h16q26 0 49.5 1t45.5 2q-21 31-31.5 63.5T69 323q0 83 61.5 135T294 510t163.5-52T519 323q0-32-13.5-65.5T466 193q21-1 44.5-2t48.5-1h14V0h-8q-76 0-148.5 15T281 58q-63-28-133-43T7 0zm287 343q-37 0-56-12t-19-35 18-41.5 54-31.5q39 14 58.5 32.5T369 296q0 23-19 35t-56 12zm0 304-73-72-83 82 83 83 73-73 73 73 83-83-83-82z"/><glyph glyph-name="ghaf.init" unicode="ق" horiz-adv-x="585" d="M115 0H0q-9 0-15 27t-6 67q0 41 6 68.5T0 190h115q119 0 180.5 19t75.5 60q-31-10-67-15.5t-74-5.5q-90 0-137 41T46 408q0 97 62.5 172T256 655q51 0 101-30.5t88-83.5q33-46 50.5-101.5T513 325q0-172-94-248.5T115 0zm127 484q-22 0-35.5-15.5T193 430q0-22 15.5-31t51.5-9q25 0 50.5 2.5T360 399q-17 41-47.5 63T242 484zm14 310-73-72-83 82 83 83 73-73 73 73 83-83-83-82z"/><glyph glyph-name="kafArabic.isol" unicode="ك" horiz-adv-x="830" arabic-form="isolated" d="M738 62Q663 29 560.5 9.5T359-10q-163 0-246 59T30 224q0 47 16.5 95T94 410l110-55q-11-28-15-45t-4-34q0-53 50.5-74.5T407 180q49 0 101 4.5t90 11.5q6 27 9 63t3 81v365h155V340q0-71-7.5-146T738 62zM544 348q0-42-34-62.5T407 265q-34 0-61 2t-45 6l10 84q24-5 48.5-8t45.5-3q18 0 33.5 1.5T465 352q-8 6-23 15t-40 23q-42 23-59 43t-17 46q0 43 41.5 74T499 611l20-88q-39-9-67-19t-45-20l61-37q41-25 58.5-47.5T544 348z"/><glyph glyph-name="kafArabic.fina" unicode="ك" horiz-adv-x="846" arabic-form="final" d="M833 190h13V0h-33q-44 0-78 10t-58 29Q607 16 523 3T359-10q-163 0-246 59T30 224q0 47 16.5 95T94 410l110-55q-11-28-15-45t-4-34q0-53 50.5-74.5T407 180q49 0 104 5t100 13q-1 6-1 13v494h155V255q0-37 15-51t53-14zM544 348q0-42-34-62.5T407 265q-34 0-61 2t-45 6l10 84q24-5 48.5-8t45.5-3q18 0 33.5 1.5T465 352q-8 6-23 15t-40 23q-42 23-59 43t-17 46q0 43 41.5 74T499 611l20-88q-39-9-67-19t-45-20l61-37q41-25 58.5-47.5T544 348z"/><glyph glyph-name="kafArabic.medi" unicode="ك" horiz-adv-x="632" arabic-form="medial" d="M337 101q-51-48-139-74.5T0 0q-9 0-15 27t-6 67q0 41 6 68.5T0 190q79 0 138 6.5T238 216L93 391q-33 39-46.5 65T33 506q0 29 15 52.5T94 601q63 38 160.5 69.5T450 715l33-153q-87-16-150.5-33.5T214 489l116-140q76-92 136-125.5T623 190h9V0h-20q-86 0-153 24.5T337 101z"/><glyph glyph-name="kafArabic.init" unicode="ك" horiz-adv-x="483" d="M404 190q0-96-100-143T0 0q-9 0-15 27t-6 67q0 41 6 68.5T0 190q106 0 161 3.5t72 11.5q-6 17-27 48t-60 80l-46 58q-33 42-46.5 67.5T40 506q0 29 15 52.5t46 42.5q63 38 161.5 69.5T460 715l33-153q-76-15-139.5-33T231 488q95-109 134-174t39-124z"/><glyph glyph-name="kaf.isol" unicode="ک" horiz-adv-x="870" arabic-form="isolated" d="M185 276q0-51 44.5-73.5T372 180q75 0 149 7.5t99 18.5q-6 17-27 48t-60 80l-46 57q-33 40-46.5 66T427 506q0 31 13.5 55t40.5 40q62 38 162.5 69.5T847 715l33-153q-72-13-136-31t-126-43q95-109 134-174t39-124q0-100-108-150T360-10q-157 0-243.5 61.5T30 224q0 47 16.5 95T94 410l110-55q-11-28-15-45t-4-34z"/><glyph glyph-name="kaf.fina" unicode="ک" horiz-adv-x="1009" arabic-form="final" d="M1000 190h9V0h-20q-87 0-153 24.5T716 100q-53-52-146-81T360-10q-157 0-243.5 61.5T30 224q0 47 16.5 95T94 410l110-55q-11-28-15-45t-4-34q0-51 44.5-73.5T372 180q67 0 130.5 9.5T615 216L470 391q-33 39-46.5 65T410 506q0 29 15 52.5t46 42.5q63 38 160.5 69.5T827 715l33-153q-87-16-150.5-33.5T591 489l116-140q76-92 136-125.5t157-33.5z"/><glyph glyph-name="kaf.medi" unicode="ک" horiz-adv-x="632" arabic-form="medial" d="M337 101q-51-48-139-74.5T0 0q-9 0-15 27t-6 67q0 41 6 68.5T0 190q79 0 138 6.5T238 216L93 391q-33 39-46.5 65T33 506q0 29 15 52.5T94 601q63 38 160.5 69.5T450 715l33-153q-87-16-150.5-33.5T214 489l116-140q76-92 136-125.5T623 190h9V0h-20q-86 0-153 24.5T337 101z"/><glyph glyph-name="kaf.init" unicode="ک" horiz-adv-x="483" d="M404 190q0-96-100-143T0 0q-9 0-15 27t-6 67q0 41 6 68.5T0 190q106 0 161 3.5t72 11.5q-6 17-27 48t-60 80l-46 58q-33 42-46.5 67.5T40 506q0 29 15 52.5t46 42.5q63 38 161.5 69.5T460 715l33-153q-76-15-139.5-33T231 488q95-109 134-174t39-124z"/><glyph glyph-name="gaf.isol" unicode="گ" horiz-adv-x="870" arabic-form="isolated" d="m445 669-22 93q63 30 147 56t162 40l22-95q-75-13-161.5-39T445 669zM185 276q0-51 44.5-73.5T372 180q75 0 149 7.5t99 18.5q-6 17-27 48t-60 80l-46 57q-33 40-46.5 66T427 506q0 31 13.5 55t40.5 40q62 38 162.5 69.5T847 715l33-153q-76-15-139.5-33T618 488q95-109 134-174t39-124q0-100-108-150T360-10q-157 0-243.5 61.5T30 224q0 47 16.5 95T94 410l110-55q-11-28-15-45t-4-34z"/><glyph glyph-name="gaf.fina" unicode="گ" horiz-adv-x="1009" arabic-form="final" d="m445 669-22 93q63 30 147 56t162 40l22-95q-75-13-161.5-39T445 669zm555-479h9V0h-20q-87 0-153 24.5T716 100q-53-52-146-81T360-10q-157 0-243.5 61.5T30 224q0 47 16.5 95T94 410l110-55q-11-28-15-45t-4-34q0-51 44.5-73.5T372 180q67 0 130.5 9.5T615 216L470 391q-33 39-46.5 65T410 506q0 29 15 52.5t46 42.5q63 38 160.5 69.5T827 715l33-153q-87-16-150.5-33.5T591 489l116-140q76-92 136-125.5t157-33.5z"/><glyph glyph-name="gaf.medi" unicode="گ" horiz-adv-x="632" arabic-form="medial" d="m81 669-22 93q63 30 147 56t162 40l22-95q-75-13-161.5-39T81 669zm256-568q-51-48-139-74.5T0 0q-9 0-15 27t-6 67q0 41 6 68.5T0 190q79 0 138 6.5T238 216L93 391q-33 39-46.5 65T33 506q0 29 15 52.5T94 601q63 38 160.5 69.5T450 715l33-153q-87-16-150.5-33.5T214 489l116-140q76-92 136-125.5T623 190h9V0h-20q-86 0-153 24.5T337 101z"/><glyph glyph-name="gaf.init" unicode="گ" horiz-adv-x="483" d="m98 669-22 93q63 30 147 56t162 40l22-95q-75-13-161.5-39T98 669zm306-479q0-96-100-143T0 0q-9 0-15 27t-6 67q0 41 6 68.5T0 190q106 0 161 3.5t72 11.5q-6 17-27 48t-60 80l-46 58q-33 42-46.5 67.5T40 506q0 29 15 52.5t46 42.5q63 38 161.5 69.5T460 715l33-153q-76-15-139.5-33T231 488q95-109 134-174t39-124z"/><glyph glyph-name="lam.isol" unicode="ل" horiz-adv-x="705" arabic-form="isolated" d="M473-3q6 29 9 70t3 104v534h155V177q0-90-6.5-162T615-106q-44-44-127.5-73T323-208q-128 0-203 64.5T45 33q0 48 16 99t49 107l119-53q-14-31-20-55t-6-46q0-53 33.5-79T338-20q39 0 72.5 4.5T473-3z"/><glyph glyph-name="lam.fina" unicode="ل" horiz-adv-x="748" arabic-form="final" d="M473-3q6 29 9 69.5t3 103.5v535h155V296q0-54 23-80t72-26h13V0h-10q-30 0-56.5 7T634 27q-3-38-7.5-72T615-106q-44-44-127.5-73T323-208q-128 0-203 64.5T45 33q0 48 16 99t49 107l119-53q-14-31-20-55t-6-46q0-53 33.5-79T338-20q39 0 72.5 4.5T473-3z"/><glyph glyph-name="lam.medi" unicode="ل" horiz-adv-x="376" arabic-form="medial" d="M4 0H0q-9 0-15 27t-6 67q0 41 6 68.5T0 190h15q25 0 46.5 5.5T113 219v486h155V296q0-54 23-80t72-26h13V0h-10q-57 0-98.5 24T207 91q-27-43-81.5-67T4 0z"/><glyph glyph-name="lam.init" unicode="ل" horiz-adv-x="333" d="M11 0H0q-9 0-15 27t-6 67q0 41 6 68.5T0 190h11q48 0 75 29t27 83v403h155V295q0-152-62-223.5T11 0z"/><glyph glyph-name="mim.isol" unicode="م" horiz-adv-x="784" arabic-form="isolated" d="M190 9q0-48 14-117.5T239-239L79-284q-22 69-35.5 147T30-2q0 113 58.5 185T253 273q40 116 96 172.5T480 502q66 0 127-43.5T704 341q30-60 37.5-132.5T734 57q-40-31-96-49T525-10q-74 0-148 27.5T245 93q-28-5-41.5-25.5T190 9zm396 187q0 43-32.5 82T483 317q-29 0-52-21.5T381 220q39-26 75.5-38.5T528 169q31 0 44.5 6.5T586 196z"/><glyph glyph-name="mim.fina" unicode="م" horiz-adv-x="830" arabic-form="final" d="M190 9q0-48 14-117.5T239-239L79-284q-22 69-35.5 147T30-2q0 113 58.5 185T253 273q40 116 97 172.5T484 502q64 0 113-42.5T709 301q34-62 58-86.5t57-24.5h6V0h-7q-34 0-64 12.5T692 55q-22-32-64.5-48.5T526-10q-73 0-146.5 27T245 93q-28-5-41.5-25.5T190 9zm396 187q0 43-32.5 82T483 317q-28 0-50.5-21T381 220q41-26 77-38.5t70-12.5q31 0 44.5 6.5T586 196z"/><glyph glyph-name="mim.medi" unicode="م" horiz-adv-x="743" arabic-form="medial" d="M7 0H0q-9 0-15 27t-6 67q0 41 6 68.5T0 190h7q57 0 92.5 25t80.5 92q43 66 59 88t29 38q31 37 61.5 53t67.5 16q62 0 110-40.5T619 307q39-68 62.5-92.5T737 190h6V0h-7q-34 0-64 12.5T605 55q-22-32-64.5-48.5T439-10q-67 0-134 22T181 74q-40-36-85-55T7 0zm492 197q0 42-31.5 81T400 317q-27 0-47.5-19.5T293 220q40-26 78-38.5t76-12.5q27 0 39.5 6.5T499 197z"/><glyph glyph-name="mim.init" unicode="م" horiz-adv-x="699" d="M7 0H0q-9 0-15 27t-6 67q0 41 6 68.5T0 190h7q64 0 102 25.5t69 82.5q33 59 50.5 87t32.5 48q29 37 60.5 53t73.5 16q66 0 127-43.5T619 341q30-60 37.5-132.5T649 57q-40-31-96-49T440-10q-63 0-127 20.5T194 68q-39-33-87-50.5T7 0zm494 198q0 42-32.5 80.5T398 317q-28 0-51-21.5T293 215q37-23 75-34.5t75-11.5q31 0 44.5 6.5T501 198z"/><glyph glyph-name="noonGhuna.isol" unicode="ں" horiz-adv-x="766" arabic-form="isolated" d="m475 399 162 48q50-120 59.5-294.5T661-119q-56-45-132-68t-171-23q-145 0-228 76T47 77q0 62 22 127.5T130 323l116-57q-20-38-31-76.5T204 118q0-71 41-104.5T374-20q51 0 97.5 9.5T551 15q0 81-20.5 183T475 399z"/><glyph glyph-name="noonGhuna.fina" unicode="ں" horiz-adv-x="836" arabic-form="final" d="M694 48q2-68-6.5-126T661-179q-56-45-132-68t-171-23q-145 0-228 76T47 17q0 62 22 127.5T130 263l116-57q-20-38-31-76.5T204 58q0-71 41-104.5T374-80q51 0 97.5 9.5T551-45q0 83-22.5 190.5T467 363l162 48q4-12 8.5-26.5T650 340q4-15 6-22t4-13q20-67 57-91t111-24h8V0h-8q-51 0-81.5 11T694 48z"/><glyph glyph-name="noon.isol" unicode="ن" horiz-adv-x="766" arabic-form="isolated" d="m475 399 162 48q50-120 59.5-294.5T661-119q-56-45-132-68t-171-23q-145 0-228 76T47 77q0 62 22 127.5T130 323l116-57q-20-38-31-76.5T204 118q0-71 41-104.5T374-20q51 0 97.5 9.5T551 15q0 81-20.5 183T475 399zm-18 188-83-82-83 82 83 83z"/><glyph glyph-name="noon.fina" unicode="ن" horiz-adv-x="836" arabic-form="final" d="M694 48q2-68-6.5-126T661-179q-56-45-132-68t-171-23q-145 0-228 76T47 17q0 62 22 127.5T130 263l116-57q-20-38-31-76.5T204 58q0-71 41-104.5T374-80q51 0 97.5 9.5T551-45q0 83-22.5 190.5T467 363l162 48q4-12 8.5-26.5T650 340q4-15 6-22t4-13q20-67 57-91t111-24h8V0h-8q-51 0-81.5 11T694 48zM456 547l-83-82-83 82 83 83z"/><glyph glyph-name="noon.medi" unicode="ن" horiz-adv-x="426" arabic-form="medial" d="M4 0H0q-9 0-15 27t-6 67q0 41 6 68.5T0 190h15q41 0 71.5 7t56.5 22v148h155v-71q0-54 28-80t87-26h13V0h-10q-65 0-112 25t-67 70q-30-44-92.5-69.5T4 0zm292 547-83-82-83 82 83 83z"/><glyph glyph-name="noon.init" unicode="ن" horiz-adv-x="375" d="M6 0H0q-9 0-15 27t-6 67q0 41 6 68.5T0 190h7q54 0 92 5.5t64 16.5q-5 42-17 86t-30 87l158 57q30-86 35.5-183T295 62q-53-29-129-45.5T6 0zm250 607-83-82-83 82 83 83z"/><glyph glyph-name="vav.isol" unicode="و" horiz-adv-x="615" arabic-form="isolated" d="M488 353q27-52 41-116t14-135q0-75-24-144t-70-124q-49-60-115-93.5T199-293q-49 0-91 8.5T30-259l36 140q16-4 36.5-6.5T139-128q72 0 135 37T386 16Q360 3 333.5-3.5T280-10q-100 0-157 61T66 220q0 110 67 196t158 86q56 0 108.5-39.5T488 353zm-203-38q-32 0-52-21t-20-53q0-35 17.5-49.5T290 177q27 0 53.5 2.5T395 187q-13 64-40 96t-70 32z"/><glyph glyph-name="vav.fina" unicode="و" horiz-adv-x="655" arabic-form="final" d="M655 190V0H532q-30-129-123.5-211T199-293q-50 0-91.5 8.5T30-259l36 140q22-5 39.5-7t33.5-2q67 0 127.5 32.5T375 0h-85Q186 0 126 59T66 220q0 110 67 196t158 86q87 0 157.5-87.5T537 190h118zm-442 51q0-28 17.5-39.5T290 190h104q-13 62-40 93.5T285 315q-32 0-52-21t-20-53z"/><glyph glyph-name="vavHamzeAbove.isol" unicode="ؤ" horiz-adv-x="615" arabic-form="isolated" d="M488 353q27-52 41-116t14-135q0-75-24-144t-70-124q-49-60-115-93.5T199-293q-49 0-91 8.5T30-259l36 140q16-4 36.5-6.5T139-128q72 0 135 37T386 16Q360 3 333.5-3.5T280-10q-100 0-157 61T66 220q0 110 67 196t158 86q56 0 108.5-39.5T488 353zm-203-38q-32 0-52-21t-20-53q0-35 17.5-49.5T290 177q27 0 53.5 2.5T395 187q-13 64-40 96t-70 32zm141 362v-92l-270-40v92l59 8q-11 18-17 38.5t-6 42.5q0 52 31 83t82 31q26 0 50.5-7t47.5-21l-21-73q-32 9-59.5 11t-43.5-5q2-34 18-57.5t39-23.5q8 0 47.5 6.5T426 677z"/><glyph glyph-name="vavHamzeAbove.fina" unicode="ؤ" horiz-adv-x="655" arabic-form="final" d="M655 190V0H532q-30-129-123.5-211T199-293q-50 0-91.5 8.5T30-259l36 140q22-5 39.5-7t33.5-2q67 0 127.5 32.5T375 0h-85Q186 0 126 59T66 220q0 110 67 196t158 86q87 0 157.5-87.5T537 190h118zm-442 51q0-28 17.5-39.5T290 190h104q-13 62-40 93.5T285 315q-32 0-52-21t-20-53zm213 436v-92l-270-40v92l59 8q-11 18-17 38.5t-6 42.5q0 52 31 83t82 31q26 0 50.5-7t47.5-21l-21-73q-32 9-59.5 11t-43.5-5q2-34 18-57.5t39-23.5q8 0 47.5 6.5T426 677z"/><glyph glyph-name="heh.isol" unicode="ه" horiz-adv-x="545" arabic-form="isolated" d="M45 200q0 92 54.5 173T259 518q120-40 180.5-115T500 221q0-102-65-166.5T267-10q-101 0-161.5 57.5T45 200zm219 129q-31-23-48-48.5T199 232q0-24 19-38t53-14 54.5 15.5T346 236q0 26-20.5 49T264 329z"/><glyph glyph-name="heh.fina" unicode="ه" horiz-adv-x="545" arabic-form="final" d="M333 94q-24-16-51-23.5T225 63q-88 0-144 52.5T25 252q0 96 72 169t212 118v51h155V255q0-37 15-51t53-14h13V0h-33q-68 0-112.5 23T333 94zM169 275q0-26 21-38t64-12q10 0 22.5 1t32.5 4v137q-71-14-105.5-36T169 275z"/><glyph glyph-name="heh.medi" unicode="ه" horiz-adv-x="661" arabic-form="medial" d="M102 0H0q-9 0-15 27t-6 67q0 41 6 68.5T0 190h107q13 61 37 125.5T197 434q27 50 54 73t59 23q25 0 47-11.5t44-35.5q59-63 89-123t30-114q0-14-3-27.5T507 190h154V0h-84q10-19 14.5-38.5T596-82q0-94-58-156t-147-62q-107 0-187 82.5T102 0zm286 236q0 25-20 51t-64 61q-17-39-30-82.5T255 182h44q44 0 66.5 13.5T388 236zm78-292q0 30-26.5 47T364 8H260q13-67 46.5-99t90.5-32q31 0 50 18.5T466-56z"/><glyph glyph-name="heh.init" unicode="ه" horiz-adv-x="752" d="M52 0H0q-9 0-15 27t-6 67q0 41 6 68.5T0 190h22q20 0 38.5 1t35.5 2q-21 31-31.5 64.5T54 327q0 88 55.5 143T256 525q17 0 33-2.5t30-7.5l45 83q169-88 256-189.5T707 200q0-90-43.5-155T559-20q-70 0-146 18T269 49q-50-24-105.5-36.5T52 0zm219 377q-36 0-54-13.5T199 322q0-22 16-46t47-47q41 18 63.5 41.5T348 320q0 27-20.5 42T271 377zm231-229q27 0 40.5 14t13.5 41-22.5 59.5T465 334q1-8 2-17.5t1-18.5q0-35-14-70.5T414 159q23-6 45-8.5t43-2.5z"/><glyph glyph-name="tehArabic.isol" unicode="ة" horiz-adv-x="545" arabic-form="isolated" d="M45 200q0 92 54.5 173T259 518q120-40 180.5-115T500 221q0-102-65-166.5T267-10q-101 0-161.5 57.5T45 200zm219 129q-31-23-48-48.5T199 232q0-24 19-38t53-14 54.5 15.5T346 236q0 26-20.5 49T264 329zm-1 318-73-72-83 82 83 83 73-73 73 73 83-83-83-82z"/><glyph glyph-name="tehArabic.fina" unicode="ة" horiz-adv-x="545" arabic-form="final" d="M333 94q-24-16-51-23.5T225 63q-88 0-144 52.5T25 252q0 96 72 169t212 118v51h155V255q0-37 15-51t53-14h13V0h-33q-68 0-112.5 23T333 94zM169 275q0-26 21-38t64-12q10 0 22.5 1t32.5 4v137q-71-14-105.5-36T169 275zm168 460-73-72-83 82 83 83 73-73 73 73 83-83-83-82z"/><glyph glyph-name="hehUrdu.isol" unicode="ہ" horiz-adv-x="545" arabic-form="isolated" d="M45 200q0 92 54.5 173T259 518q120-40 180.5-115T500 221q0-102-65-166.5T267-10q-101 0-161.5 57.5T45 200zm219 129q-31-23-48-48.5T199 232q0-24 19-38t53-14 54.5 15.5T346 236q0 26-20.5 49T264 329z"/><glyph glyph-name="hehUrdu.fina" unicode="ہ" horiz-adv-x="553" arabic-form="final" d="M344 286q65-59 105-77.5t83-18.5h21V0h-13q-75 0-137 24t-144 94q-51 44-76.5 56.5T131 187q-27 0-52-5.5T30 164l27 191q24 11 54 16.5t59 5.5q39 0 75.5-17.5T344 286z"/><glyph glyph-name="hehUrdu.medi" unicode="ہ" horiz-adv-x="635" arabic-form="medial" d="M19 0H0q-9 0-15 27t-6 67q0 41 6 68.5T0 190h7q59 0 91 40t52 137l152-23q-20-144 6-232T419-51q-1 107 51 174t140 67h25V0h-11q-56 0-76.5-55.5T557-198l-110-95q-105 73-173.5 169.5T193 67q-34-34-76-50.5T19 0z"/><glyph glyph-name="hehUrdu.init" unicode="ہ" horiz-adv-x="405" d="M6 0H0q-9 0-15 27t-6 67q0 41 6 68.5T0 190h7q61 0 108 5.5t78 16.5q-5 36-14.5 73T155 355l158 57q24-78 27-167.5T325 62q-54-30-137-46T6 0zm180-137q0-16 7.5-24t24.5-9q26-2 44-22.5t18-49.5q0-31-23.5-52T197-315q-49 0-81.5 38T83-179q0 33 9 68.5T116-45l88-25q-8-16-13-35t-5-32z"/><glyph glyph-name="hehDocheshm.isol" unicode="ھ" horiz-adv-x="775" arabic-form="isolated" d="M291 49q-33-17-70-33t-78-30L67-40 10 124l60 22q6 2 13 4.5t20 7.5q14 5 20.5 7.5T135 170q-29 36-43.5 75.5T77 327q0 88 55.5 143T279 525q17 0 33-2.5t30-7.5l45 83q169-87 256-189t87-210q0-90-43.5-155T582-21q-71 0-147.5 18.5T291 49zm3 328q-36 0-54-13.5T222 322q0-22 16-45.5t46-47.5q49 23 68 42.5t19 48.5q0 27-20.5 42T294 377zm232-230q27 0 40 13.5t13 41.5q0 27-23 60t-68 72q1-8 2-17.5t1-18.5q0-37-14-72t-41-67q22-6 45-9t45-3z"/><glyph glyph-name="hehDocheshm.fina" unicode="ھ" horiz-adv-x="700" arabic-form="final" d="M47-63 14 121l124 23q9 66 36 145.5T236 434q27 50 54 73t59 23q25 0 47-11.5t44-35.5q59-63 89-123t30-114q0-14-3-27.5T546 190h154V0h-83q9-19 13.5-37t4.5-39q0-95-59.5-159.5T430-300q-97 0-173.5 70T150-43zm380 303q0 23-19.5 48T344 348q-19-41-32-86.5T293 173l42 8q53 10 72.5 23t19.5 36zm78-296q0 37-38 52.5T362-1l-56-11q16-50 48-74t82-24q33 0 51 14t18 40z"/><glyph glyph-name="hehDocheshm.medi" unicode="ھ" horiz-adv-x="661" arabic-form="medial" d="M102 0H0q-9 0-15 27t-6 67q0 41 6 68.5T0 190h107q13 61 37 125.5T197 434q27 50 54 73t59 23q25 0 47-11.5t44-35.5q59-63 89-123t30-114q0-14-3-27.5T507 190h154V0h-84q10-19 14.5-38.5T596-82q0-94-58-156t-147-62q-107 0-187 82.5T102 0zm286 236q0 25-20 51t-64 61q-17-39-30-82.5T255 182h44q44 0 66.5 13.5T388 236zm78-292q0 30-26.5 47T364 8H260q13-67 46.5-99t90.5-32q31 0 50 18.5T466-56z"/><glyph glyph-name="hehDocheshm.init" unicode="ھ" horiz-adv-x="752" d="M52 0H0q-9 0-15 27t-6 67q0 41 6 68.5T0 190h22q20 0 38.5 1t35.5 2q-21 31-31.5 64.5T54 327q0 88 55.5 143T256 525q17 0 33-2.5t30-7.5l45 83q169-88 256-189.5T707 200q0-90-43.5-155T559-20q-70 0-146 18T269 49q-50-24-105.5-36.5T52 0zm219 377q-36 0-54-13.5T199 322q0-22 16-46t47-47q41 18 63.5 41.5T348 320q0 27-20.5 42T271 377zm231-229q27 0 40.5 14t13.5 41-22.5 59.5T465 334q1-8 2-17.5t1-18.5q0-35-14-70.5T414 159q23-6 45-8.5t43-2.5z"/><glyph glyph-name="hehHamzehAbove.fina" unicode="ۂ" horiz-adv-x="553" d="M344 286q65-59 105-77.5t83-18.5h21V0h-13q-75 0-137 24t-144 94q-51 44-76.5 56.5T131 187q-27 0-52-5.5T30 164l27 191q24 11 54 16.5t59 5.5q39 0 75.5-17.5T344 286zm-46 269v-92L28 423v92l59 8q-11 18-17 38.5T64 604q0 52 31 83t82 31q26 0 50.5-7t47.5-21l-21-73q-32 9-59.5 11t-43.5-5q2-34 18-57.5t39-23.5q8 0 47.5 6.5T298 555z"/><glyph glyph-name="hehTehUrdu.fina" unicode="ۃ" horiz-adv-x="553" d="M344 286q65-59 105-77.5t83-18.5h21V0h-13q-75 0-137 24t-144 94q-51 44-76.5 56.5T131 187q-27 0-52-5.5T30 164l27 191q24 11 54 16.5t59 5.5q39 0 75.5-17.5T344 286zM163 512l-73-72-83 82 83 83 73-73 73 73 83-83-83-82z"/><glyph glyph-name="yeh.isol" unicode="ی" horiz-adv-x="795" arabic-form="isolated" d="M380-210q-139 0-219.5 74.5T80 64q0 47 16.5 95t47.5 91l110-55q-10-24-14.5-47t-4.5-44q0-60 37-92t108-32q62 0 129.5 18T598 38q-4 13-19.5 24.5T517 95q-51 24-76 40t-43 34q-24 26-36.5 57.5T349 297q0 92 63 155t163 63q64 0 119.5-34.5T777 393l-92-94q-39 38-68 53t-61 15q-27 0-42.5-12.5T498 322t19-37.5 83-47.5q100-47 133.5-86.5T767 59q0-54-38-108t-104-94q-53-32-116.5-49.5T380-210z"/><glyph glyph-name="yeh.fina" unicode="ی" horiz-adv-x="830" arabic-form="final" d="M481 0h-11l24 190h336V0h-94q2-9 2.5-18t.5-19q0-107-108.5-181.5T360-293q-138 0-219 83T60 11q0 80 29 161.5T176 337l110-55q-38-74-54.5-127.5T215 52q0-76 40-115.5T372-103q80 0 140.5 21.5T607-21q-17 9-53 15t-73 6z"/><glyph glyph-name="yeh.medi" unicode="ی" horiz-adv-x="426" arabic-form="medial" d="M4 0H0q-9 0-15 27t-6 67q0 41 6 68.5T0 190h15q41 0 71.5 7t56.5 22v148h155v-71q0-54 28-80t87-26h13V0h-10q-65 0-112 25t-67 70q-30-44-92.5-69.5T4 0zm209-169-73-72-83 82 83 83 73-73 73 73 83-83-83-82z"/><glyph glyph-name="yeh.init" unicode="ی" horiz-adv-x="375" d="M6 0H0q-9 0-15 27t-6 67q0 41 6 68.5T0 190h7q54 0 92 5.5t64 16.5q-5 42-17 86t-30 87l158 57q30-86 35.5-183T295 62q-53-29-129-45.5T6 0zm217-169-73-72-83 82 83 83 73-73 73 73 83-83-83-82z"/><glyph glyph-name="yehArabic.isol" unicode="ي" horiz-adv-x="795" arabic-form="isolated" d="M380-210q-139 0-219.5 74.5T80 64q0 47 16.5 95t47.5 91l110-55q-10-24-14.5-47t-4.5-44q0-60 37-92t108-32q62 0 129.5 18T598 38q-4 13-19.5 24.5T517 95q-51 24-76 40t-43 34q-24 26-36.5 57.5T349 297q0 92 63 155t163 63q64 0 119.5-34.5T777 393l-92-94q-39 38-68 53t-61 15q-27 0-42.5-12.5T498 322t19-37.5 83-47.5q100-47 133.5-86.5T767 59q0-54-38-108t-104-94q-53-32-116.5-49.5T380-210zm0-159-73-72-83 82 83 83 73-73 73 73 83-83-83-82z"/><glyph glyph-name="yehArabic.fina" unicode="ي" horiz-adv-x="830" arabic-form="final" d="M481 0h-11l24 190h336V0h-94q2-9 2.5-18t.5-19q0-107-108.5-181.5T360-293q-138 0-219 83T60 11q0 80 29 161.5T176 337l110-55q-38-74-54.5-127.5T215 52q0-76 40-115.5T372-103q80 0 140.5 21.5T607-21q-17 9-53 15t-73 6zM375-452l-73-72-83 82 83 83 73-73 73 73 83-83-83-82z"/><glyph glyph-name="yehArabic.medi" unicode="ي" horiz-adv-x="426" arabic-form="medial" d="M4 0H0q-9 0-15 27t-6 67q0 41 6 68.5T0 190h15q41 0 71.5 7t56.5 22v148h155v-71q0-54 28-80t87-26h13V0h-10q-65 0-112 25t-67 70q-30-44-92.5-69.5T4 0zm209-169-73-72-83 82 83 83 73-73 73 73 83-83-83-82z"/><glyph glyph-name="yehArabic.init" unicode="ي" horiz-adv-x="375" d="M6 0H0q-9 0-15 27t-6 67q0 41 6 68.5T0 190h7q54 0 92 5.5t64 16.5q-5 42-17 86t-30 87l158 57q30-86 35.5-183T295 62q-53-29-129-45.5T6 0zm217-169-73-72-83 82 83 83 73-73 73 73 83-83-83-82z"/><glyph glyph-name="yehHamze.isol" unicode="ئ" horiz-adv-x="795" arabic-form="isolated" d="M380-210q-139 0-219.5 74.5T80 64q0 47 16.5 95t47.5 91l110-55q-10-24-14.5-47t-4.5-44q0-60 37-92t108-32q62 0 129.5 18T598 38q-4 13-19.5 24.5T517 95q-51 24-76 40t-43 34q-24 26-36.5 57.5T349 297q0 92 63 155t163 63q64 0 119.5-34.5T777 393l-92-94q-39 38-68 53t-61 15q-27 0-42.5-12.5T498 322t19-37.5 83-47.5q100-47 133.5-86.5T767 59q0-54-38-108t-104-94q-53-32-116.5-49.5T380-210zm-69 637v-92L41 295v92l59 8q-11 18-17 38.5T77 476q0 52 31 83t82 31q26 0 50.5-7t47.5-21l-21-73q-32 9-59.5 11t-43.5-5q2-34 18-57.5t39-23.5q8 0 47.5 6.5T311 427z"/><glyph glyph-name="yehHamze.fina" unicode="ئ" horiz-adv-x="830" arabic-form="final" d="M481 0h-11l24 190h336V0h-94q2-9 2.5-18t.5-19q0-107-108.5-181.5T360-293q-138 0-219 83T60 11q0 80 29 161.5T176 337l110-55q-38-74-54.5-127.5T215 52q0-76 40-115.5T372-103q80 0 140.5 21.5T607-21q-17 9-53 15t-73 6zM364 509v-92L94 377v92l59 8q-11 18-17 38.5t-6 42.5q0 52 31 83t82 31q26 0 50.5-7t47.5-21l-21-73q-32 9-59.5 11t-43.5-5q2-34 18-57.5t39-23.5q8 0 47.5 6.5T364 509z"/><glyph glyph-name="yehHamze.medi" unicode="ئ" horiz-adv-x="426" arabic-form="medial" d="M4 0H0q-9 0-15 27t-6 67q0 41 6 68.5T0 190h15q41 0 71.5 7t56.5 22v148h155v-71q0-54 28-80t87-26h13V0h-10q-65 0-112 25t-67 70q-30-44-92.5-69.5T4 0zm344 580v-92L78 448v92l59 8q-11 18-17 38.5t-6 42.5q0 52 31 83t82 31q26 0 50.5-7t47.5-21l-21-73q-32 9-59.5 11t-43.5-5q2-34 18-57.5t39-23.5q8 0 47.5 6.5T348 580z"/><glyph glyph-name="yehHamze.init" unicode="ئ" horiz-adv-x="375" d="M6 0H0q-9 0-15 27t-6 67q0 41 6 68.5T0 190h7q54 0 92 5.5t64 16.5q-5 42-17 86t-30 87l158 57q30-86 35.5-183T295 62q-53-29-129-45.5T6 0zm302 640v-92L38 508v92l59 8q-11 18-17 38.5T74 689q0 52 31 83t82 31q26 0 50.5-7t47.5-21l-21-73q-32 9-59.5 11t-43.5-5q2-34 18-57.5t39-23.5q8 0 47.5 6.5T308 640z"/><glyph glyph-name="alefMaghsureh.isol" unicode="ى" horiz-adv-x="795" arabic-form="isolated" d="M380-210q-139 0-219.5 74.5T80 64q0 47 16.5 95t47.5 91l110-55q-10-24-14.5-47t-4.5-44q0-60 37-92t108-32q62 0 129.5 18T598 38q-4 13-19.5 24.5T517 95q-51 24-76 40t-43 34q-24 26-36.5 57.5T349 297q0 92 63 155t163 63q64 0 119.5-34.5T777 393l-92-94q-39 38-68 53t-61 15q-27 0-42.5-12.5T498 322t19-37.5 83-47.5q100-47 133.5-86.5T767 59q0-54-38-108t-104-94q-53-32-116.5-49.5T380-210z"/><glyph glyph-name="alefMaghsureh.fina" unicode="ى" horiz-adv-x="830" arabic-form="final" d="M481 0h-11l24 190h336V0h-94q2-9 2.5-18t.5-19q0-107-108.5-181.5T360-293q-138 0-219 83T60 11q0 80 29 161.5T176 337l110-55q-38-74-54.5-127.5T215 52q0-76 40-115.5T372-103q80 0 140.5 21.5T607-21q-17 9-53 15t-73 6z"/><glyph glyph-name="yehBaree.isol" unicode="ے" horiz-adv-x="683" arabic-form="isolated" d="M44 250q0 118 78.5 194T313 520q30 0 61-7.5t52-19.5l-47-171q-16 4-34.5 6t-43.5 2q-53 0-81-19t-28-55q0-32 20-49t58-17h333L589 0H319Q193 0 118.5 67.5T44 250z"/><glyph glyph-name="yehBaree.fina" unicode="ے" horiz-adv-x="603" arabic-form="final" d="M44-83q0 124 81.5 198.5T342 190h261V0H297q-48 0-73.5-17.5T198-68q0-28 18-43t53-15h314l-9-190H305q-127 0-194 59.5T44-83z"/><glyph glyph-name="yehBareeHamzehAbove.isol" unicode="ۓ" horiz-adv-x="683" arabic-form="isolated" d="M44 250q0 118 78.5 194T313 520q30 0 61-7.5t52-19.5l-47-171q-16 4-34.5 6t-43.5 2q-53 0-81-19t-28-55q0-32 20-49t58-17h333L589 0H319Q193 0 118.5 67.5T44 250zm394 440v-92l-270-40v92l59 8q-11 18-17 38.5t-6 42.5q0 52 31 83t82 31q26 0 50.5-7t47.5-21l-21-73q-32 9-59.5 11t-43.5-5q2-34 18-57.5t39-23.5q8 0 47.5 6.5T438 690z"/><glyph glyph-name="yehBareeHamzehAbove.fina" unicode="ۓ" horiz-adv-x="603" arabic-form="final" d="M44-83q0 124 81.5 198.5T342 190h261V0H297q-48 0-73.5-17.5T198-68q0-28 18-43t53-15h314l-9-190H305q-127 0-194 59.5T44-83zm434 461v-92l-270-40v92l59 8q-11 18-17 38.5t-6 42.5q0 52 31 83t82 31q26 0 50.5-7t47.5-21l-21-73q-32 9-59.5 11t-43.5-5q2-34 18-57.5t39-23.5q8 0 47.5 6.5T478 378z"/><glyph glyph-name="tashdid_zamehTanvin.cmps" unicode="ﱞ" arabic-form="isolated" d="M154 776q-20-13-42.5-20.5T68 748q-19 0-34 4.5T8 767q-18-9-36.5-14t-36.5-5q-36 0-55.5 21t-19.5 61v95h66v-74q0-12 5-16.5t18-4.5q7 0 14 1.5t13 4.5q-1 4-1 8v73h66v-60q0-14 5.5-19t19.5-5q7 0 15.5 2t16.5 5q-3 18-7.5 38T80 915l66 25q12-35 14-77t-6-87zm-192 323q0 39 26.5 64.5T56 1189q43 0 69.5-27.5T152 1089q0-62-47.5-95.5T-31 960h-110v88h121q-9 11-13.5 23.5T-38 1099zm124-9q0 13-8.5 21t-21.5 8-20.5-7-7.5-19q0-11 9-21.5t26-17.5q12 7 17.5 16t5.5 20z"/><glyph glyph-name="tashdid_fatheh.cmps" unicode="ﱠ" arabic-form="isolated" d="M154 776q-20-13-42.5-20.5T68 748q-19 0-34 4.5T8 767q-18-9-36.5-14t-36.5-5q-36 0-55.5 21t-19.5 61v95h66v-74q0-12 5-16.5t18-4.5q7 0 14 1.5t13 4.5q-1 4-1 8v73h66v-60q0-14 5.5-19t19.5-5q7 0 15.5 2t16.5 5q-3 18-7.5 38T80 915l66 25q12-35 14-77t-6-87zm-19 316v-92l-270-40v92z"/><glyph glyph-name="tashdid_zameh.cmps" unicode="ﱡ" arabic-form="isolated" d="M154 776q-20-13-42.5-20.5T68 748q-19 0-34 4.5T8 767q-18-9-36.5-14t-36.5-5q-36 0-55.5 21t-19.5 61v95h66v-74q0-12 5-16.5t18-4.5q7 0 14 1.5t13 4.5q-1 4-1 8v73h66v-60q0-14 5.5-19t19.5-5q7 0 15.5 2t16.5 5q-3 18-7.5 38T80 915l66 25q12-35 14-77t-6-87zM-11 960h-140v76q20 2 29 6.5t9 12.5-9.5 12-28.5 4v86q42 3 69-17t27-54q0-12-2.5-21.5T-66 1048H0q-9 11-13.5 23.5T-18 1099q0 39 26.5 64.5T76 1189q43 0 69.5-27.5T172 1089q0-62-47.5-95.5T-11 960zm117 130q0 13-8.5 21t-21.5 8-20.5-7-7.5-19q0-11 9-21.5t26-17.5q12 7 17.5 16t5.5 20z"/><glyph glyph-name="fatheh_tashdid.cmps" unicode="ﱢ" arabic-form="isolated" d="M135 847v-92l-270-40v92zm9 79q-20-13-42.5-20.5T58 898q-19 0-34 4.5T-2 917q-18-9-36.5-14t-36.5-5q-36 0-55.5 21t-19.5 61v95h66v-74q0-12 5-16.5t18-4.5q7 0 14 1.5t13 4.5q-1 4-1 8v73h66v-60q0-14 5.5-19t19.5-5q7 0 15.5 2t16.5 5q-3 18-7.5 38T70 1065l66 25q12-35 14-77t-6-87z"/><glyph glyph-name="tashdid_superScriptAlef.cmps" unicode="ﱣ" arabic-form="isolated" d="M154 776q-20-13-42.5-20.5T68 748q-19 0-34 4.5T8 767q-18-9-36.5-14t-36.5-5q-36 0-55.5 21t-19.5 61v95h66v-74q0-12 5-16.5t18-4.5q7 0 14 1.5t13 4.5q-1 4-1 8v73h66v-60q0-14 5.5-19t19.5-5q7 0 15.5 2t16.5 5q-3 18-7.5 38T80 915l66 25q12-35 14-77t-6-87zM-43 999v167h92V999h-92z"/><glyph glyph-name="fathehTanvin_tashdid.cmps" unicode="ﱟ" arabic-form="isolated" d="M135 977v-92l-270-40v92zm0-130v-92l-270-40v92zm9 209q-20-13-42.5-20.5T58 1028q-19 0-34 4.5T-2 1047q-18-9-36.5-14t-36.5-5q-36 0-55.5 21t-19.5 61v95h66v-74q0-12 5-16.5t18-4.5q7 0 14 1.5t13 4.5q-1 4-1 8v73h66v-60q0-14 5.5-19t19.5-5q7 0 15.5 2t16.5 5q-3 18-7.5 38T70 1195l66 25q12-35 14-77t-6-87z"/><glyph glyph-name="rial" unicode="﷼" horiz-adv-x="1264" arabic-form="isolated" d="M473-63q6 27 9 63t3 81v108q-28-9-56-13t-57-4q-80 0-128.5 49T195 353q0 48 16 99t49 107l119-53q-14-31-20-55t-6-46q0-30 13-45t38-15q19 0 39.5 3t41.5 10v347h155V443q18 13 39.5 28.5T744 519v186h155v-96q36 14 69.5 21t66.5 7q27 0 59-4.5t57-11.5l-9-172q-25 7-49.5 10.5T1045 463q-35 0-71-8.5T899 428V255q0-37 15-51t53-14q16 0 31 2.5t54 19.5q-2 13-5.5 27t-10.5 31q-4 10-12 28.5t-11 26.5l158 57q24-69 27-150.5T1184 62q-63-34-118-48T947 0Q842 0 793 56t-49 176v102q-31-22-56.5-39T640 264V81q0-69-6.5-135T615-166q-44-44-127.5-73T323-268q-128 0-203 64.5T45-27q0 48 16 99t49 107l119-53q-14-31-20-55t-6-46q0-53 33.5-79T338-80q39 0 72.5 4.5T473-63zm516-106-73-72-83 82 83 83 73-73 73 73 83-83-83-82z"/><glyph glyph-name=".notdef" horiz-adv-x="682" d="M587 0H95v685h492V0zM147 638V47h388v591H147z"/><glyph glyph-name=".null"/><glyph glyph-name=".null"/><glyph glyph-name="CR"/><glyph glyph-name="space" horiz-adv-x="155"/><glyph glyph-name="uni00A0" horiz-adv-x="155"/><glyph glyph-name="uni200E" unicode="‎"/><glyph glyph-name="uni200F" unicode="‏"/><glyph glyph-name="A" unicode="A" horiz-adv-x="729" d="M723 0H536l-40 107H223L183 0H6l270 685h177zM360 472l-79-211h157z"/><glyph glyph-name="B" unicode="B" horiz-adv-x="623" d="M323 0H70v685h238q120 0 187.5-48.5T563 500q0-45-24.5-82T467 355q61-27 93.5-67.5T593 198q0-91-73.5-144.5T323 0zm65 480q0 25-20 39.5T313 534h-68V426h68q34 0 54.5 14.5T388 480zm30-267q0 29-23.5 45.5T328 275h-83V151h83q43 0 66.5 16.5T418 213z"/><glyph glyph-name="C" unicode="C" horiz-adv-x="665" d="M216 342q0-80 50-134t123-54q42 0 77 17t74 56l111-120q-58-60-122-88.5T389-10Q236-10 133.5 90.5T31 342t102.5 252T389 695q72 0 135.5-27.5T641 587L532 467q-33 33-67.5 48.5T389 531q-74 0-123.5-54T216 342z"/><glyph glyph-name="D" unicode="D" horiz-adv-x="711" d="M287 0H70v685h217q185 0 288.5-90.5T679 342q0-161-103.5-251.5T287 0zm207 342q0 89-51 134t-151 45h-42V164h42q100 0 151 45t51 133z"/><glyph glyph-name="E" unicode="E" horiz-adv-x="563" d="M518 0H70v685h448V526H250V426h238V267H250V159h268V0z"/><glyph glyph-name="F" unicode="F" horiz-adv-x="552" d="M250 0H70v685h448V526H250V406h238V247H250V0z"/><glyph glyph-name="G" unicode="G" horiz-adv-x="748" d="M723 342q0-152-94.5-252T390-10Q236-10 133.5 90.5T31 342t102.5 252T389 695q72 0 135.5-27.5T641 587L532 467q-33 33-67.5 48.5T389 531q-74 0-123.5-54T216 342q0-80 50-134t124-54q49 0 84.5 23t54.5 66H370v149h351q1-8 1.5-23.5t.5-26.5z"/><glyph glyph-name="H" unicode="H" horiz-adv-x="752" d="M682 0H502v271H250V0H70v685h180V430h252v255h180V0z"/><glyph glyph-name="I" unicode="I" horiz-adv-x="320" d="M250 0H70v685h180V0z"/><glyph glyph-name="J" unicode="J" horiz-adv-x="529" d="M217-10q-60 0-113 23.5T5 84l109 120q24-25 49-37.5t52-12.5q38 0 58 22.5t20 65.5v443h180V240q0-123-65-186.5T217-10z"/><glyph glyph-name="K" unicode="K" horiz-adv-x="690" d="M685 0H478L314 276q-15-3-31.5-4.5T250 270V0H70v685h180V429q39 1 61.5 15t45.5 52l112 189h194L549 498q-26-43-48-74.5T459 368z"/><glyph glyph-name="L" unicode="L" horiz-adv-x="548" d="M250 159h278V0H70v685h180V159z"/><glyph glyph-name="M" unicode="M" horiz-adv-x="940" d="M556 0H380L254 382 199 0H24l113 685h176l157-488 157 488h176L916 0H735l-55 378z"/><glyph glyph-name="N" unicode="N" horiz-adv-x="736" d="M666 0H494L240 399V0H70v685h172l254-399v399h170V0z"/><glyph glyph-name="O" unicode="O" horiz-adv-x="776" d="M31 343q0 150 102.5 251T388 695t254.5-101T745 343q0-151-102-252T388-10 133 91 31 343zm529 0q0 80-49.5 134T388 531t-122.5-54T216 343q0-81 49-135t123-54 123 54 49 135z"/><glyph glyph-name="P" unicode="P" horiz-adv-x="598" d="M245 0H70v685h231q124 0 198-63t74-170-74-170-198-63h-56V0zm148 452q0 35-24.5 54.5T301 526h-56V378h56q43 0 67.5 19.5T393 452z"/><glyph glyph-name="Q" unicode="Q" horiz-adv-x="776" d="m664 114 79-93L619-86 532 18Q498 4 462-3t-74-7Q235-10 133 91T31 343q0 150 102.5 251T388 695t254.5-101T745 343q0-65-20.5-123.5T664 114zM388 531q-73 0-122.5-54T216 343q0-81 49-135t123-54q5 0 10.5.5L415 156l-80 95 124 104 84-98q8 19 12.5 41t4.5 45q0 80-49.5 134T388 531z"/><glyph glyph-name="R" unicode="R" horiz-adv-x="632" d="M245 0H70v685h242q119 0 192.5-59T578 470q0-62-28-109t-81-73L618 0H430L311 239h-66V0zm153 462q0 29-22 46.5T317 526h-72V398h72q37 0 59 17.5t22 46.5z"/><glyph glyph-name="S" unicode="S" horiz-adv-x="569" d="M283 541q-31 0-49-12.5T216 494t26.5-39 99.5-42q111-37 156-83.5T543 206q0-91-73.5-153.5T288-10q-75 0-145 27.5T21 94l95 119q38-35 80.5-52t91.5-17q37 0 57.5 14.5T366 198q0 20-25 35t-101 41q-111 37-156 84.5T39 486q0 89 69.5 149T281 695q65 0 127-25t110-71L417 480q-34 31-66.5 46T283 541z"/><glyph glyph-name="T" unicode="T" horiz-adv-x="606" d="M213 526H20v159h566V526H393V0H213v526z"/><glyph glyph-name="U" unicode="U" horiz-adv-x="682" d="M341-10q-131 0-208 78T56 280v405h180V282q0-60 28-94t77-34 77 34 28 94v403h180V280q0-134-77-212T341-10z"/><glyph glyph-name="V" unicode="V" horiz-adv-x="705" d="M520 685h177L441 0H264L8 685h187l163-462z"/><glyph glyph-name="W" unicode="W" horiz-adv-x="1031" d="M799 0H625L516 310 406 0H232L8 685h190l133-438 102 302-51 136h273l-48-134 104-308 134 442h178z"/><glyph glyph-name="X" unicode="X" horiz-adv-x="717" d="M704 0H500L354 218 207 0H13l245 363L43 685h204l116-174 117 174h194L460 366z"/><glyph glyph-name="Y" unicode="Y" horiz-adv-x="669" d="M473 685h190L425 273V0H245v273L6 685h200l134-235z"/><glyph glyph-name="Z" unicode="Z" horiz-adv-x="604" d="M255 159h314V0H35v139l305 387H48v159h511V546z"/><glyph glyph-name="AE" unicode="Æ" horiz-adv-x="933" d="M660 159h228V0H536l-40 107H223L183 0H6l270 685h612V526H516l39-100h303V267H618zM360 472l-79-211h157z"/><glyph glyph-name="OE" unicode="Œ" horiz-adv-x="953" d="M31 342q0 162 103.5 252.5T423 685h485V526H640V426h238V267H640V159h268V0H423Q238 0 134.5 90.5T31 342zm185 0q0-90 51-136.5T418 159h42v367h-42q-100 0-151-46.5T216 342z"/><glyph glyph-name="Lslash" unicode="Ł" horiz-adv-x="591" d="M293 159h278V0H113v251l-63-20L5 372l108 35v278h180V465l110 35 45-141-155-50V159z"/><glyph glyph-name="Oslash" unicode="Ø" horiz-adv-x="776" d="M745 343q0-151-102-252T388-10q-48 0-93.5 11T209 34l-63-69L36 69l60 66q-32 44-48.5 97T31 343q0 150 102.5 251T388 695q48 0 93.5-11t85.5-33l63 69 110-104-60-66q32-44 48.5-97T745 343zM388 531q-73 0-122.5-54T216 343q0-18 2.5-35t7.5-31l222 243q-15 6-30 8.5t-30 2.5zm0-377q74 0 123 54t49 135q0 18-2.5 34.5T550 408L328 165q15-6 30-8.5t30-2.5z"/><glyph glyph-name="Eth" unicode="Ð" horiz-adv-x="751" d="M20 262v159h90v264h217q185 0 288.5-90.5T719 342q0-161-103.5-251.5T327 0H110v262H20zm390 159V262H290v-98h42q100 0 151 45t51 133q0 89-51 134t-151 45h-42V421h120z"/><glyph glyph-name="Thorn" unicode="Þ" horiz-adv-x="598" d="M573 341q0-107-74-170t-198-63h-56V0H70v685h175V574h56q124 0 198-63t74-170zm-180 0q0 35-24.5 54.5T301 415h-56V267h56q43 0 67.5 19.5T393 341z"/><glyph glyph-name="uni0191" unicode="Ƒ" horiz-adv-x="553" d="M17-51q26 0 40 19.5T71 22v663h448V526H251V406h248V247H251V7q0-104-56-160.5T37-210q-43 0-85 14t-73 39l85 125q15-10 28-14.5T17-51z"/><glyph glyph-name="uni1E9E" unicode="ẞ" horiz-adv-x="725" d="M700 222q0-101-66.5-166.5T464-10q-52 0-99.5 17.5T269 62l90 127q27-19 46.5-27t40.5-8q35 0 54.5 20t19.5 56q0 40-28.5 60T407 310l-58 110 90 102q-23 12-47 17.5t-51 5.5q-54 0-82-38.5T231 393V0H56v395q0 140 76.5 220T344 695q46 0 100-14t102-38l70-113-88-99q82-18 127-73t45-136z"/><glyph glyph-name="a" unicode="a" horiz-adv-x="591" d="M536 0H381l-18 57q-24-33-55.5-50T238-10q-91 0-151 70T27 235t60 175 151 70q38 0 70-17t55-49l18 56h155V0zM197 235q0-39 24.5-64.5T282 145q37 0 61 25.5t24 64.5-24 64.5-61 25.5q-36 0-60.5-25.5T197 235z"/><glyph glyph-name="b" unicode="b" horiz-adv-x="591" d="M353 480q92 0 151.5-69.5T564 235 504.5 59.5 353-10q-38 0-70.5 15T226 50L210 0H55v705h175V425q23 27 54.5 41t68.5 14zm-44-155q-37 0-61-25.5T224 235t24-64.5 61-25.5q36 0 60.5 25.5T394 235t-24.5 64.5T309 325z"/><glyph glyph-name="c" unicode="c" horiz-adv-x="478" d="M198 235q0-38 22.5-62t57.5-24q24 0 43.5 8.5T359 184L471 72q-40-42-87.5-62T278-10Q168-10 95.5 59.5T23 235t72.5 175.5T278 480q49 0 97-20t86-57L349 291q-15 15-33 22.5t-38 7.5q-35 0-57.5-24T198 235z"/><glyph glyph-name="d" unicode="d" horiz-adv-x="591" d="M536 0H381l-18 56q-24-32-55.5-49T238-10q-92 0-151.5 69.5T27 235t59.5 175.5T238 480q37 0 68.5-16t54.5-47v288h175V0zM197 235q0-39 24.5-64.5T282 145q37 0 61 25.5t24 64.5-24 64.5-61 25.5q-36 0-60.5-25.5T197 235z"/><glyph glyph-name="e" unicode="e" horiz-adv-x="535" d="m388 168 95-101q-37-37-87.5-57T289-10Q172-10 97.5 59T23 235q0 105 71.5 175T273 480q104 0 173-69t69-173q0-15-1.5-30t-3.5-24H182q12-29 37.5-44t63.5-15q34 0 59 10.5t46 32.5zM268 349q-31 0-53.5-16T181 287h179q-10 30-33 46t-59 16z"/><glyph glyph-name="f" unicode="f" horiz-adv-x="411" d="M113 321H14v144l85 5q-9 21-13 42t-4 43q0 71 53 115.5T273 715q42 0 85.5-13.5T442 662l-70-125q-16 10-32.5 16t-30.5 6q-22 0-37-14t-15-34q0-12 2-22t7-19h135V321H288V0H113v321z"/><glyph glyph-name="g" unicode="g" horiz-adv-x="584" d="M554 20q0-103-78.5-166.5T270-210q-74 0-142 19.5T10-136L86-5q43-28 87.5-42T260-61q56 0 90 26.5T384 35q0 15-4 30t-13 32q-23-42-59.5-64.5T227 10q-85 0-143.5 67.5T25 245q0 99 58.5 167T227 480q37 0 69-16t56-47l17 53h155V159l4-10q12-31 19-64.5t7-64.5zM195 245q0-36 22-59.5t56-23.5q35 0 58.5 23.5T355 245t-23.5 59.5T273 328q-34 0-56-23.5T195 245z"/><glyph glyph-name="h" unicode="h" horiz-adv-x="585" d="M304 321q-22 0-40.5-11.5T230 275V0H55v705h175V408q26 34 61 53t73 19q80 0 127.5-56T539 274V0H369v246q0 36-17 55.5T304 321z"/><glyph glyph-name="i" unicode="i" horiz-adv-x="285" d="M242 615q0-41-29.5-70.5T142 515t-70.5 29.5T42 615t29.5 70.5T142 715t70.5-29.5T242 615zM55 470h175V0H55v470z"/><glyph glyph-name="j" unicode="j" horiz-adv-x="295" d="M252 615q0-41-29.5-70.5T152 515t-70.5 29.5T52 615t29.5 70.5T152 715t70.5-29.5T252 615zM11-51q26 0 40 19.5T65 22v448h175V7q0-104-54.5-160.5T31-210q-43 0-85 14t-73 39l85 125q15-10 28-14.5T11-51z"/><glyph glyph-name="k" unicode="k" horiz-adv-x="583" d="M240 163h-10V0H55v705h175V322h10q39 0 58.5 12.5T334 380l42 90h181l-42-88q-24-51-44-84t-39-55L583 0H385l-95 166q-12-2-24.5-2.5T240 163z"/><glyph glyph-name="l" unicode="l" horiz-adv-x="285" d="M55 705h175V0H55v705z"/><glyph glyph-name="m" unicode="m" horiz-adv-x="884" d="M299 321q-21 0-38-11t-31-33V0H55v470h155l20-62q25 34 59 53t70 19q48 0 85-20.5t60-59.5q32 38 74 59t85 21q80 0 127.5-56T838 274V0H663v246q0 36-15.5 55.5T603 321q-21 0-38-11t-31-33V0H359v246q0 36-15.5 55.5T299 321z"/><glyph glyph-name="n" unicode="n" horiz-adv-x="590" d="M304 321q-22 0-40.5-11.5T230 275V0H55v470h155l20-62q26 34 61 53t73 19q83 0 131.5-56T544 274V0H369v246q0 36-17 55.5T304 321z"/><glyph glyph-name="o" unicode="o" horiz-adv-x="556" d="M533 235q0-106-72.5-175.5T278-10 95.5 59.5 23 235t72.5 175.5T278 480t182.5-69.5T533 235zm-340 0q0-39 24-64.5t61-25.5 61 25.5 24 64.5-24 64.5-61 25.5-61-25.5-24-64.5z"/><glyph glyph-name="p" unicode="p" horiz-adv-x="591" d="M564 235q0-106-59.5-175.5T353-10q-36 0-67 14t-56 41v-245H55v670h155l16-49q24 29 56.5 44t70.5 15q92 0 151.5-69.5T564 235zm-255 90q-37 0-61-25.5T224 235t24-64.5 61-25.5q36 0 60.5 25.5T394 235t-24.5 64.5T309 325z"/><glyph glyph-name="q" unicode="q" horiz-adv-x="591" d="M381 470h155v-670H361V54q-23-31-54-47.5T238-10q-92 0-151.5 69.5T27 235t59.5 175.5T238 480q38 0 70-17t55-49zM197 235q0-39 24.5-64.5T282 145q37 0 61 25.5t24 64.5-24 64.5-61 25.5q-36 0-60.5-25.5T197 235z"/><glyph glyph-name="r" unicode="r" horiz-adv-x="405" d="M304 295q-23 0-41.5-7.5T230 266V0H55v470h155l20-61q24 34 54 52.5t61 18.5q16 0 28.5-2.5T400 470l-49-183q-13 4-24.5 6t-22.5 2z"/><glyph glyph-name="s" unicode="s" horiz-adv-x="455" d="M41 328q0 66 56.5 109T241 480q49 0 98.5-14.5T428 426l-74-116q-25 18-58 29.5T238 351q-16 0-23.5-4.5T207 333q0-10 15-17.5t54-17.5q82-21 120.5-58t38.5-94q0-74-52.5-115T235-10q-58 0-113 16.5T14 56l76 119q33-24 73.5-39t71.5-15q17 0 26 5t9 14q0 10-10.5 16.5T200 175q-88 22-123.5 58.5T41 328z"/><glyph glyph-name="t" unicode="t" horiz-adv-x="475" d="M104 321H14v144l90 5h10l20 134h145V470h142V321H279V212q0-30 13.5-46.5T330 149q12 0 25 4.5t28 14.5l80-125q-31-25-73-39t-84-14q-96 0-149 56.5T104 207v114z"/><glyph glyph-name="u" unicode="u" horiz-adv-x="584" d="M529 0H374l-19 59q-26-33-61-51t-72-18q-81 0-129 55T45 193v277h175V221q0-35 16-53.5t46-18.5q22 0 40 10.5t32 31.5v279h175V0z"/><glyph glyph-name="v" unicode="v" horiz-adv-x="540" d="M363 470h174L358 0H182L3 470h186l85-267z"/><glyph glyph-name="w" unicode="w" horiz-adv-x="812" d="M657 0H476l-70 187L336 0H155L-17 470h172l104-300 72 192-41 108h236l-40-106 72-193 104 299h167z"/><glyph glyph-name="x" unicode="x" horiz-adv-x="560" d="M556 0H356l-85 118L190 0H4l175 247L19 470h200l69-97 67 97h186L381 244z"/><glyph glyph-name="y" unicode="y" horiz-adv-x="579" d="M554 20q0-101-78.5-165.5T278-210q-71 0-139.5 19.5T20-136L96-5q39-28 79-42t82-14q58 0 92.5 26.5T384 35q0 14-3.5 27.5T370 90q-20-38-57.5-59T227 10q-82 0-131.5 55.5T46 213v257h175V241q0-35 16-53.5t45-18.5q20 0 36.5 10t30.5 31v260h175V159l4-10q12-31 19-64.5t7-64.5z"/><glyph glyph-name="z" unicode="z" horiz-adv-x="487" d="M248 149h207V0H32v129l188 192H42v149h403V350z"/><glyph glyph-name="ae" unicode="æ" horiz-adv-x="903" d="m752 156 97-94q-34-34-82.5-53T664-10q-44 0-83.5 13T509 42L496 0H381l-18 57q-24-33-55.5-50T238-10q-91 0-151 70T27 235t60 175 151 70q38 0 70-17t55-49l18 56h115l12-37q29 23 64 35t76 12q101 0 168-69t67-173q0-14-1.5-28.5T878 186H563q11-30 36.5-45.5T663 125q29 0 50 7.5t39 23.5zM648 351q-31 0-53-16.5T563 287h173q-10 31-32 47.5T648 351zM197 235q0-39 24.5-64.5T282 145q37 0 61 25.5t24 64.5-24 64.5-61 25.5q-36 0-60.5-25.5T197 235z"/><glyph glyph-name="oe" unicode="œ" horiz-adv-x="876" d="m729 168 95-101q-37-37-87.5-57T630-10q-54 0-101.5 16T445 53q-32-31-74.5-47T278-10Q168-10 95.5 59.5T23 235t72.5 175.5T278 480q50 0 92.5-16t73.5-46q34 30 77.5 46t92.5 16q104 0 173-69t69-173q0-15-1.5-30t-3.5-24H523q12-29 37.5-44t63.5-15q34 0 59 10.5t46 32.5zM609 349q-31 0-53.5-16T522 287h179q-10 30-33 46t-59 16zM193 235q0-39 24-64.5t61-25.5 61 25.5 24 64.5-24 64.5-61 25.5-61-25.5-24-64.5z"/><glyph glyph-name="lslash" unicode="ł" horiz-adv-x="392" d="m327 494 60-129-103-48V0H109v236l-44-20L5 345l104 48v312h175V474z"/><glyph glyph-name="oslash" unicode="ø" horiz-adv-x="556" d="M533 235q0-106-72.5-175.5T278-10q-38 0-72 8.5T143 24L91-34 34 18l49 55q-29 32-44.5 73.5T23 235q0 106 72.5 175.5T278 480q38 0 72-8.5t63-25.5l52 58 57-52-49-55q29-32 44.5-73.5T533 235zm-255 90q-37 0-61-25.5T193 235q0-8 1.5-16t3.5-16l105 118q-5 2-11.5 3t-13.5 1zm0-180q37 0 61 25.5t24 64.5q0 8-1.5 16t-3.5 16L253 149q5-2 11.5-3t13.5-1z"/><glyph glyph-name="eth" unicode="ð" horiz-adv-x="557" d="M534 293q0-139-70.5-221T274-10Q166-10 94.5 57T23 225t63 165.5T248 455q33 0 60.5-8.5T360 421q-14 34-31.5 58.5T288 521l-40-51-62 50 29 38q-21 7-39.5 11.5T139 577l33 118q32-5 63.5-13.5T296 661l42 54 62-50-32-42q81-53 123.5-137.5T534 293zm-336-68q0-33 21.5-54.5T274 149t54.5 21.5T350 225t-21.5 54.5T274 301t-54.5-21.5T198 225z"/><glyph glyph-name="thorn" unicode="þ" horiz-adv-x="591" d="M564 235q0-106-59.5-175.5T353-10q-36 0-67 14t-56 41v-245H55v905h175V425q23 27 54.5 41t68.5 14q92 0 151.5-69.5T564 235zm-255 90q-37 0-61-25.5T224 235t24-64.5 61-25.5q36 0 60.5 25.5T394 235t-24.5 64.5T309 325z"/><glyph glyph-name="uni0192" unicode="ƒ" horiz-adv-x="411" d="M288 321V0q-5-101-63.5-155.5T64-210q-42 0-85 15.5T-99-151l84 121Q5-43 22-49.5T54-56q29 0 44 21.5T113 27v294H14v144l85 5q-9 21-13 42t-4 43q0 71 53 115.5T273 715q42 0 85.5-13.5T442 662l-70-125q-16 10-32.5 16t-30.5 6q-22 0-37-14t-15-34q0-12 2-22t7-19h135V321H288z"/><glyph glyph-name="germandbls" unicode="ß" horiz-adv-x="705" d="M113 321H14v144l85 5q-8 20-12.5 41T82 547q0 72 68.5 120T321 715q106 0 172.5-50T560 535q0-35-9-63.5T523 418q81-25 120-75t39-131q0-96-61-159T467-10q-42 0-76.5 9.5T323 31l55 126q17-9 32.5-14t28.5-5q32 0 49 20t17 57q0 45-28.5 72T400 314l-40 113q21 19 30.5 35.5T400 499q0 29-19.5 47T330 564t-50.5-18-19.5-47q0-13 3.5-24.5T275 449l13-22V0H113v321z"/><glyph glyph-name="dotlessi" unicode="ı" horiz-adv-x="285" d="M55 470h175V0H55v470z"/><glyph glyph-name="dotlessj" unicode="ȷ" horiz-adv-x="286" d="M2-51q26 0 40 19.5T56 22v448h175V7q0-104-54.5-160.5T22-210q-43 0-85 14t-73 39l85 125q15-10 28-14.5T2-51z"/><glyph glyph-name="Aacute" unicode="Á" horiz-adv-x="729" d="M723 0H536l-40 107H223L183 0H6l270 685h177zM360 472l-79-211h157zm-58 268-57 90 200 147 74-126z"/><glyph glyph-name="Acircumflex" unicode="Â" horiz-adv-x="729" d="M723 0H536l-40 107H223L183 0H6l270 685h177zM360 472l-79-211h157zm10 500 182-157-67-80-116 84-114-84-67 80z"/><glyph glyph-name="Adieresis" unicode="Ä" horiz-adv-x="729" d="M723 0H536l-40 107H223L183 0H6l270 685h177zM360 472l-79-211h157zm-10 363q0-34-25.5-59.5T265 750t-60 25.5-26 59.5 26 59.5 60 25.5 59.5-25.5T350 835zm211 0q0-34-25.5-59.5T475 750q-34 0-59.5 25.5T390 835t25.5 59.5T475 920q35 0 60.5-25.5T561 835z"/><glyph glyph-name="Agrave" unicode="À" horiz-adv-x="729" d="M723 0H536l-40 107H223L183 0H6l270 685h177zM360 472l-79-211h157zm-61 505 200-147-57-90-217 111z"/><glyph glyph-name="Aring" unicode="Å" horiz-adv-x="729" d="M723 0H536l-40 107H223L183 0H6l270 685h177zM360 472l-79-211h157zM240 857q0 53 37.5 89.5T370 983t92.5-36.5T500 857t-37.5-89.5T370 731t-92.5 36.5T240 857zm172 0q0 19-12 31t-30 12-30-12-12-31 11.5-31 30.5-12 30.5 12 11.5 31z"/><glyph glyph-name="Atilde" unicode="Ã" horiz-adv-x="729" d="M723 0H536l-40 107H223L183 0H6l270 685h177zM360 472l-79-211h157zm76 291q-16 0-31 3.5T365 782q-18 8-27 10.5t-17 2.5q-14 0-24-9.5T278 753l-99 46q26 65 55 93t70 28q16 0 31-3.5t40-15.5q18-8 27-10.5t17-2.5q14 0 24 9.5t19 32.5l99-46q-26-65-55-93t-70-28z"/><glyph glyph-name="Abreve" unicode="Ă" horiz-adv-x="729" d="M723 0H536l-40 107H223L183 0H6l270 685h177zM360 472l-79-211h157zm10 383q20 0 31 14.5t11 40.5v10h121v-20q0-68-45.5-111.5T370 745t-117.5 43.5T207 900v20h121v-10q0-26 11-40.5t31-14.5z"/><glyph glyph-name="Amacron" unicode="Ā" horiz-adv-x="729" d="M723 0H536l-40 107H223L183 0H6l270 685h177zM360 472l-79-211h157zM221 891h298V773H221v118z"/><glyph glyph-name="Aogonek" unicode="Ą" horiz-adv-x="729" d="m706-112 33-88q-21-11-44-16.5t-48-5.5q-59 0-94 28t-35 76q0 36 19 67t54 51h-55l-40 107H223L183 0H6l270 685h177L723 0q-35-19-55.5-42.5T647-87q0-14 8.5-22.5T677-118q7 0 14 1.5t15 4.5zM360 472l-79-211h157z"/><glyph glyph-name="Ccedilla" unicode="Ç" horiz-adv-x="665" d="M497-124q0-45-34-72t-92-27q-33 0-58 5t-54 18l26 79q20-9 32.5-12.5T342-137t19 5 7 15-5.5 14.5T346-98l-42 48 14 46Q190 20 110.5 115.5T31 342q0 151 102.5 252T389 695q72 0 135.5-27.5T641 587L532 467q-33 33-67.5 48.5T389 531q-74 0-123.5-54T216 342q0-80 50-134t123-54q42 0 77 17t74 56l111-120q-55-56-114-84.5T409-10l-7-22q44-5 69.5-30t25.5-62z"/><glyph glyph-name="Cacute" unicode="Ć" horiz-adv-x="665" d="M216 342q0-80 50-134t123-54q42 0 77 17t74 56l111-120q-58-60-122-88.5T389-10Q236-10 133.5 90.5T31 342t102.5 252T389 695q72 0 135.5-27.5T641 587L532 467q-33 33-67.5 48.5T389 531q-74 0-123.5-54T216 342zm77 398-57 90 200 147 74-126z"/><glyph glyph-name="Ccaron" unicode="Č" horiz-adv-x="665" d="M216 342q0-80 50-134t123-54q42 0 77 17t74 56l111-120q-58-60-122-88.5T389-10Q236-10 133.5 90.5T31 342t102.5 252T389 695q72 0 135.5-27.5T641 587L532 467q-33 33-67.5 48.5T389 531q-74 0-123.5-54T216 342zm267 630 67-80-182-157-182 157 67 80 116-84z"/><glyph glyph-name="Ccircumflex" unicode="Ĉ" horiz-adv-x="665" d="M216 342q0-80 50-134t123-54q42 0 77 17t74 56l111-120q-58-60-122-88.5T389-10Q236-10 133.5 90.5T31 342t102.5 252T389 695q72 0 135.5-27.5T641 587L532 467q-33 33-67.5 48.5T389 531q-74 0-123.5-54T216 342zm152 630 182-157-67-80-116 84-114-84-67 80z"/><glyph glyph-name="Cdotaccent" unicode="Ċ" horiz-adv-x="665" d="M216 342q0-80 50-134t123-54q42 0 77 17t74 56l111-120q-58-60-122-88.5T389-10Q236-10 133.5 90.5T31 342t102.5 252T389 695q72 0 135.5-27.5T641 587L532 467q-33 33-67.5 48.5T389 531q-74 0-123.5-54T216 342zm248 498q0-38-28.5-66.5T369 745t-66.5 29-28.5 66q0 38 28.5 66.5T369 935t66.5-28.5T464 840z"/><glyph glyph-name="Dcaron" unicode="Ď" horiz-adv-x="711" d="M287 0H70v685h217q185 0 288.5-90.5T679 342q0-161-103.5-251.5T287 0zm207 342q0 89-51 134t-151 45h-42V164h42q100 0 151 45t51 133zm-36 630 67-80-182-157-182 157 67 80 116-84z"/><glyph glyph-name="Dcroat" unicode="Đ" horiz-adv-x="751" d="M20 262v159h90v264h217q185 0 288.5-90.5T719 342q0-161-103.5-251.5T327 0H110v262H20zm390 159V262H290v-98h42q100 0 151 45t51 133q0 89-51 134t-151 45h-42V421h120z"/><glyph glyph-name="Eacute" unicode="É" horiz-adv-x="563" d="M518 0H70v685h448V526H250V426h238V267H250V159h268V0zM223 740l-57 90 200 147 74-126z"/><glyph glyph-name="Ecircumflex" unicode="Ê" horiz-adv-x="563" d="M518 0H70v685h448V526H250V426h238V267H250V159h268V0zM288 972l182-157-67-80-116 84-114-84-67 80z"/><glyph glyph-name="Edieresis" unicode="Ë" horiz-adv-x="563" d="M518 0H70v685h448V526H250V426h238V267H250V159h268V0zM269 835q0-34-25.5-59.5T184 750t-60 25.5T98 835t26 59.5 60 25.5 59.5-25.5T269 835zm211 0q0-34-25.5-59.5T394 750q-34 0-59.5 25.5T309 835t25.5 59.5T394 920q35 0 60.5-25.5T480 835z"/><glyph glyph-name="Egrave" unicode="È" horiz-adv-x="563" d="M518 0H70v685h448V526H250V426h238V267H250V159h268V0zM225 977l200-147-57-90-217 111z"/><glyph glyph-name="Ebreve" unicode="Ĕ" horiz-adv-x="563" d="M518 0H70v685h448V526H250V426h238V267H250V159h268V0zM289 855q20 0 31 14.5t11 40.5v10h121v-20q0-68-45.5-111.5T289 745t-117.5 43.5T126 900v20h121v-10q0-26 11-40.5t31-14.5z"/><glyph glyph-name="Ecaron" unicode="Ě" horiz-adv-x="563" d="M518 0H70v685h448V526H250V426h238V267H250V159h268V0zM405 972l67-80-182-157-182 157 67 80 116-84z"/><glyph glyph-name="Edotaccent" unicode="Ė" horiz-adv-x="563" d="M518 0H70v685h448V526H250V426h238V267H250V159h268V0zM385 840q0-38-28.5-66.5T290 745t-66.5 29-28.5 66q0 38 28.5 66.5T290 935t66.5-28.5T385 840z"/><glyph glyph-name="Emacron" unicode="Ē" horiz-adv-x="563" d="M518 0H70v685h448V526H250V426h238V267H250V159h268V0zM141 891h298V773H141v118z"/><glyph glyph-name="Eogonek" unicode="Ę" horiz-adv-x="563" d="m501-112 33-88q-21-11-44-16.5t-48-5.5q-59 0-94 28t-35 76q0 36 19 67t54 51H70v685h448V526H250V426h238V267H250V159h268V0q-35-19-55.5-42.5T442-87q0-14 8.5-22.5T472-118q7 0 14 1.5t15 4.5z"/><glyph glyph-name="Gbreve" unicode="Ğ" horiz-adv-x="748" d="M723 342q0-152-94.5-252T390-10Q236-10 133.5 90.5T31 342t102.5 252T389 695q72 0 135.5-27.5T641 587L532 467q-33 33-67.5 48.5T389 531q-74 0-123.5-54T216 342q0-80 50-134t124-54q49 0 84.5 23t54.5 66H370v149h351q1-8 1.5-23.5t.5-26.5zM373 855q20 0 31 14.5t11 40.5v10h121v-20q0-68-45.5-111.5T373 745t-117.5 43.5T210 900v20h121v-10q0-26 11-40.5t31-14.5z"/><glyph glyph-name="Gcircumflex" unicode="Ĝ" horiz-adv-x="748" d="M723 342q0-152-94.5-252T390-10Q236-10 133.5 90.5T31 342t102.5 252T389 695q72 0 135.5-27.5T641 587L532 467q-33 33-67.5 48.5T389 531q-74 0-123.5-54T216 342q0-80 50-134t124-54q49 0 84.5 23t54.5 66H370v149h351q1-8 1.5-23.5t.5-26.5zM373 972l182-157-67-80-116 84-114-84-67 80z"/><glyph glyph-name="Gcommaaccent" unicode="Ģ" horiz-adv-x="748" d="M723 342q0-152-94.5-252T390-10Q236-10 133.5 90.5T31 342t102.5 252T389 695q72 0 135.5-27.5T641 587L532 467q-33 33-67.5 48.5T389 531q-74 0-123.5-54T216 342q0-80 50-134t124-54q49 0 84.5 23t54.5 66H370v149h351q1-8 1.5-23.5t.5-26.5zM374-44q37 0 63-27t26-65q0-24-8-46t-27-47l-65-89-80 46 44 72q-19 11-29.5 30T287-128q0 35 25.5 59.5T374-44z"/><glyph glyph-name="Gdotaccent" unicode="Ġ" horiz-adv-x="748" d="M723 342q0-152-94.5-252T390-10Q236-10 133.5 90.5T31 342t102.5 252T389 695q72 0 135.5-27.5T641 587L532 467q-33 33-67.5 48.5T389 531q-74 0-123.5-54T216 342q0-80 50-134t124-54q49 0 84.5 23t54.5 66H370v149h351q1-8 1.5-23.5t.5-26.5zM468 840q0-38-28.5-66.5T373 745t-66.5 29-28.5 66q0 38 28.5 66.5T373 935t66.5-28.5T468 840z"/><glyph glyph-name="Hbar" unicode="Ħ" horiz-adv-x="752" d="M502 271H250V0H70v497h-85v123h85v65h180v-65h252v65h180v-65h85V497h-85V0H502v271zM250 497v-67h252v67H250z"/><glyph glyph-name="Hcircumflex" unicode="Ĥ" horiz-adv-x="752" d="M682 0H502v271H250V0H70v685h180V430h252v255h180V0zM376 972l182-157-67-80-116 84-114-84-67 80z"/><glyph glyph-name="Iacute" unicode="Í" horiz-adv-x="320" d="M250 0H70v685h180V0zM82 740l-57 90 200 147 74-126z"/><glyph glyph-name="Icircumflex" unicode="Î" horiz-adv-x="320" d="M250 0H70v685h180V0zm-90 972 182-157-67-80-116 84-114-84-67 80z"/><glyph glyph-name="Idieresis" unicode="Ï" horiz-adv-x="320" d="M250 0H70v685h180V0zM140 835q0-34-25.5-59.5T55 750t-60 25.5-26 59.5 26 59.5T55 920t59.5-25.5T140 835zm211 0q0-34-25.5-59.5T265 750q-34 0-59.5 25.5T180 835t25.5 59.5T265 920q35 0 60.5-25.5T351 835z"/><glyph glyph-name="Igrave" unicode="Ì" horiz-adv-x="320" d="M250 0H70v685h180V0zM99 977l200-147-57-90L25 851z"/><glyph glyph-name="Ibreve" unicode="Ĭ" horiz-adv-x="320" d="M250 0H70v685h180V0zm-90 855q20 0 31 14.5t11 40.5v10h121v-20q0-68-45.5-111.5T160 745 42.5 788.5-3 900v20h121v-10q0-26 11-40.5t31-14.5z"/><glyph glyph-name="Idotaccent" unicode="İ" horiz-adv-x="320" d="M250 0H70v685h180V0zm5 840q0-38-28.5-66.5T160 745t-66.5 29T65 840q0 38 28.5 66.5T160 935t66.5-28.5T255 840z"/><glyph glyph-name="Imacron" unicode="Ī" horiz-adv-x="320" d="M250 0H70v685h180V0zM11 891h298V773H11v118z"/><glyph glyph-name="Iogonek" unicode="Į" horiz-adv-x="320" d="m233-112 33-88q-21-11-44-16.5t-48-5.5q-59 0-94 28t-35 76q0 36 19 67t54 51H70v685h180V0q-35-19-55.5-42.5T174-87q0-14 8.5-22.5T204-118q7 0 14 1.5t15 4.5z"/><glyph glyph-name="Itilde" unicode="Ĩ" horiz-adv-x="320" d="M250 0H70v685h180V0zm-24 763q-16 0-31 3.5T155 782q-18 8-27 10.5t-17 2.5q-14 0-24-9.5T68 753l-99 46q26 65 55 93t70 28q16 0 31-3.5t40-15.5q18-8 27-10.5t17-2.5q14 0 24 9.5t19 32.5l99-46q-26-65-55-93t-70-28z"/><glyph glyph-name="Jcircumflex" unicode="Ĵ" horiz-adv-x="529" d="M217-10q-60 0-113 23.5T5 84l109 120q24-25 49-37.5t52-12.5q38 0 58 22.5t20 65.5v443h180V240q0-123-65-186.5T217-10zm164 982 182-157-67-80-116 84-114-84-67 80z"/><glyph glyph-name="IJ" unicode="Ĳ" horiz-adv-x="662" d="M250 310H70v375h180V310zM350-10q-60 0-113 23.5T138 84l109 120q24-25 49-37.5t52-12.5q38 0 58 22.5t20 65.5v443h180V240q0-123-65-186.5T350-10z"/><glyph glyph-name="Kcommaaccent" unicode="Ķ" horiz-adv-x="690" d="M685 0H478L314 276q-15-3-31.5-4.5T250 270V0H70v685h180V429q39 1 61.5 15t45.5 52l112 189h194L549 498q-26-43-48-74.5T459 368zM360-44q37 0 63-27t26-65q0-24-8-46t-27-47l-65-89-80 46 44 72q-19 11-29.5 30T273-128q0 35 25.5 59.5T360-44z"/><glyph glyph-name="kgreenlandic.case" horiz-adv-x="852" d="M685 0H478L314 276q-15-3-31.5-4.5T250 270V0H70v685h180V429q39 1 61.5 15t45.5 52l112 189h194L549 498q-26-43-48-74.5T459 368zm-49 415 86 270h125l-31-270H636z"/><glyph glyph-name="Lacute" unicode="Ĺ" horiz-adv-x="548" d="M250 159h278V0H70v685h180V159zM97 740l-57 90 200 147 74-126z"/><glyph glyph-name="Lcaron" unicode="Ľ" horiz-adv-x="548" d="M250 159h278V0H70v685h180V159zm233 526-20-198H342v198h141z"/><glyph glyph-name="Lcommaaccent" unicode="Ļ" horiz-adv-x="548" d="M250 159h278V0H70v685h180V159zm40-203q37 0 63-27t26-65q0-24-8-46t-27-47l-65-89-80 46 44 72q-19 11-29.5 30T203-128q0 35 25.5 59.5T290-44z"/><glyph glyph-name="Ldot" unicode="Ŀ" horiz-adv-x="548" d="M250 159h278V0H70v685h180V159zm278 226q0-39-28-67t-67-28-67 28-28 67 28 67 67 28 67-28 28-67z"/><glyph glyph-name="Ntilde" unicode="Ñ" horiz-adv-x="736" d="M666 0H494L240 399V0H70v685h172l254-399v399h170V0zM434 763q-16 0-31 3.5T363 782q-18 8-27 10.5t-17 2.5q-14 0-24-9.5T276 753l-99 46q26 65 55 93t70 28q16 0 31-3.5t40-15.5q18-8 27-10.5t17-2.5q14 0 24 9.5t19 32.5l99-46q-26-65-55-93t-70-28z"/><glyph glyph-name="Nacute" unicode="Ń" horiz-adv-x="736" d="M666 0H494L240 399V0H70v685h172l254-399v399h170V0zM305 740l-57 90 200 147 74-126z"/><glyph glyph-name="Ncaron" unicode="Ň" horiz-adv-x="736" d="M666 0H494L240 399V0H70v685h172l254-399v399h170V0zM483 972l67-80-182-157-182 157 67 80 116-84z"/><glyph glyph-name="Ncommaaccent" unicode="Ņ" horiz-adv-x="736" d="M666 0H494L240 399V0H70v685h172l254-399v399h170V0zM369-44q37 0 63-27t26-65q0-24-8-46t-27-47l-65-89-80 46 44 72q-19 11-29.5 30T282-128q0 35 25.5 59.5T369-44z"/><glyph glyph-name="Eng" unicode="Ŋ" horiz-adv-x="736" d="M666 685V0q-2-101-56.5-155.5T457-210q-43 0-85 14t-73 39l85 125q15-10 28-14.5t25-4.5q21 0 36.5 13.5T494 0L240 399V0H70v685h172l254-399v399h170z"/><glyph glyph-name="napostrophe.case" horiz-adv-x="874" d="M804 0H632L378 399V0H208v685h172l254-399v399h170V0zM181 685 95 415H-30L1 685h180z"/><glyph glyph-name="Oacute" unicode="Ó" horiz-adv-x="776" d="M31 343q0 150 102.5 251T388 695t254.5-101T745 343q0-151-102-252T388-10 133 91 31 343zm529 0q0 80-49.5 134T388 531t-122.5-54T216 343q0-81 49-135t123-54 123 54 49 135zM310 740l-57 90 200 147 74-126z"/><glyph glyph-name="Ocircumflex" unicode="Ô" horiz-adv-x="776" d="M31 343q0 150 102.5 251T388 695t254.5-101T745 343q0-151-102-252T388-10 133 91 31 343zm529 0q0 80-49.5 134T388 531t-122.5-54T216 343q0-81 49-135t123-54 123 54 49 135zM388 972l182-157-67-80-116 84-114-84-67 80z"/><glyph glyph-name="Odieresis" unicode="Ö" horiz-adv-x="776" d="M31 343q0 150 102.5 251T388 695t254.5-101T745 343q0-151-102-252T388-10 133 91 31 343zm529 0q0 80-49.5 134T388 531t-122.5-54T216 343q0-81 49-135t123-54 123 54 49 135zM368 835q0-34-25.5-59.5T283 750t-60 25.5-26 59.5 26 59.5 60 25.5 59.5-25.5T368 835zm211 0q0-34-25.5-59.5T493 750q-34 0-59.5 25.5T408 835t25.5 59.5T493 920q35 0 60.5-25.5T579 835z"/><glyph glyph-name="Ograve" unicode="Ò" horiz-adv-x="776" d="M31 343q0 150 102.5 251T388 695t254.5-101T745 343q0-151-102-252T388-10 133 91 31 343zm529 0q0 80-49.5 134T388 531t-122.5-54T216 343q0-81 49-135t123-54 123 54 49 135zM327 977l200-147-57-90-217 111z"/><glyph glyph-name="Otilde" unicode="Õ" horiz-adv-x="776" d="M31 343q0 150 102.5 251T388 695t254.5-101T745 343q0-151-102-252T388-10 133 91 31 343zm529 0q0 80-49.5 134T388 531t-122.5-54T216 343q0-81 49-135t123-54 123 54 49 135zM454 763q-16 0-31 3.5T383 782q-18 8-27 10.5t-17 2.5q-14 0-24-9.5T296 753l-99 46q26 65 55 93t70 28q16 0 31-3.5t40-15.5q18-8 27-10.5t17-2.5q14 0 24 9.5t19 32.5l99-46q-26-65-55-93t-70-28z"/><glyph glyph-name="Obreve" unicode="Ŏ" horiz-adv-x="776" d="M31 343q0 150 102.5 251T388 695t254.5-101T745 343q0-151-102-252T388-10 133 91 31 343zm529 0q0 80-49.5 134T388 531t-122.5-54T216 343q0-81 49-135t123-54 123 54 49 135zM388 855q20 0 31 14.5t11 40.5v10h121v-20q0-68-45.5-111.5T388 745t-117.5 43.5T225 900v20h121v-10q0-26 11-40.5t31-14.5z"/><glyph glyph-name="Ohungarumlaut" unicode="Ő" horiz-adv-x="776" d="M31 343q0 150 102.5 251T388 695t254.5-101T745 343q0-151-102-252T388-10 133 91 31 343zm529 0q0 80-49.5 134T388 531t-122.5-54T216 343q0-81 49-135t123-54 123 54 49 135zM313 739l-91 55 103 190 118-74zm204 0-91 55 103 190 118-74z"/><glyph glyph-name="Omacron" unicode="Ō" horiz-adv-x="776" d="M31 343q0 150 102.5 251T388 695t254.5-101T745 343q0-151-102-252T388-10 133 91 31 343zm529 0q0 80-49.5 134T388 531t-122.5-54T216 343q0-81 49-135t123-54 123 54 49 135zM239 891h298V773H239v118z"/><glyph glyph-name="Racute" unicode="Ŕ" horiz-adv-x="632" d="M245 0H70v685h242q119 0 192.5-59T578 470q0-62-28-109t-81-73L618 0H430L311 239h-66V0zm153 462q0 29-22 46.5T317 526h-72V398h72q37 0 59 17.5t22 46.5zM250 740l-57 90 200 147 74-126z"/><glyph glyph-name="Rcaron" unicode="Ř" horiz-adv-x="632" d="M245 0H70v685h242q119 0 192.5-59T578 470q0-62-28-109t-81-73L618 0H430L311 239h-66V0zm153 462q0 29-22 46.5T317 526h-72V398h72q37 0 59 17.5t22 46.5zm31 510 67-80-182-157-182 157 67 80 116-84z"/><glyph glyph-name="Rcommaaccent" unicode="Ŗ" horiz-adv-x="632" d="M245 0H70v685h242q119 0 192.5-59T578 470q0-62-28-109t-81-73L618 0H430L311 239h-66V0zm153 462q0 29-22 46.5T317 526h-72V398h72q37 0 59 17.5t22 46.5zM315-44q37 0 63-27t26-65q0-24-8-46t-27-47l-65-89-80 46 44 72q-19 11-29.5 30T228-128q0 35 25.5 59.5T315-44z"/><glyph glyph-name="Scaron" unicode="Š" horiz-adv-x="569" d="M283 541q-31 0-49-12.5T216 494t26.5-39 99.5-42q111-37 156-83.5T543 206q0-91-73.5-153.5T288-10q-75 0-145 27.5T21 94l95 119q38-35 80.5-52t91.5-17q37 0 57.5 14.5T366 198q0 20-25 35t-101 41q-111 37-156 84.5T39 486q0 89 69.5 149T281 695q65 0 127-25t110-71L417 480q-34 31-66.5 46T283 541zm116 431 67-80-182-157-182 157 67 80 116-84z"/><glyph glyph-name="Sacute" unicode="Ś" horiz-adv-x="569" d="M283 541q-31 0-49-12.5T216 494t26.5-39 99.5-42q111-37 156-83.5T543 206q0-91-73.5-153.5T288-10q-75 0-145 27.5T21 94l95 119q38-35 80.5-52t91.5-17q37 0 57.5 14.5T366 198q0 20-25 35t-101 41q-111 37-156 84.5T39 486q0 89 69.5 149T281 695q65 0 127-25t110-71L417 480q-34 31-66.5 46T283 541zm-69 199-57 90 200 147 74-126z"/><glyph glyph-name="Scedilla" unicode="Ş" horiz-adv-x="569" d="M415-124q0-45-34-72t-92-27q-33 0-58 5t-54 18l26 79q20-9 32.5-12.5T260-137t19 5 7 15-5.5 14.5T264-98l-42 48 13 44q-60 7-115.5 33T21 94l95 119q38-35 80.5-52t91.5-17q37 0 57.5 14.5T366 198q0 20-25 35t-101 41q-111 37-156 84.5T39 486q0 89 69.5 149T281 695q65 0 127-25t110-71L417 480q-34 31-66.5 46T283 541q-31 0-49-12.5T216 494t26.5-39 99.5-42q111-37 156-83.5T543 206q0-82-60.5-142T327-8l-7-24q44-5 69.5-30t25.5-62z"/><glyph glyph-name="Scircumflex" unicode="Ŝ" horiz-adv-x="569" d="M283 541q-31 0-49-12.5T216 494t26.5-39 99.5-42q111-37 156-83.5T543 206q0-91-73.5-153.5T288-10q-75 0-145 27.5T21 94l95 119q38-35 80.5-52t91.5-17q37 0 57.5 14.5T366 198q0 20-25 35t-101 41q-111 37-156 84.5T39 486q0 89 69.5 149T281 695q65 0 127-25t110-71L417 480q-34 31-66.5 46T283 541zm1 431 182-157-67-80-116 84-114-84-67 80z"/><glyph glyph-name="uni0218" unicode="Ș" horiz-adv-x="569" d="M283 541q-31 0-49-12.5T216 494t26.5-39 99.5-42q111-37 156-83.5T543 206q0-91-73.5-153.5T288-10q-75 0-145 27.5T21 94l95 119q38-35 80.5-52t91.5-17q37 0 57.5 14.5T366 198q0 20-25 35t-101 41q-111 37-156 84.5T39 486q0 89 69.5 149T281 695q65 0 127-25t110-71L417 480q-34 31-66.5 46T283 541zm2-585q37 0 63-27t26-65q0-24-8-46t-27-47l-65-89-80 46 44 72q-19 11-29.5 30T198-128q0 35 25.5 59.5T285-44z"/><glyph glyph-name="Tbar" unicode="Ŧ" horiz-adv-x="606" d="M213 526H20v159h566V526H393V405h95V262h-95V0H213v262h-95v143h95v121z"/><glyph glyph-name="Tcaron" unicode="Ť" horiz-adv-x="606" d="M213 526H20v159h566V526H393V0H213v526zm205 446 67-80-182-157-182 157 67 80 116-84z"/><glyph glyph-name="uni0162" unicode="Ţ" horiz-adv-x="606" d="M213 526H20v159h566V526H393V0H213v526zm91-570q37 0 63-27t26-65q0-24-8-46t-27-47l-65-89-80 46 44 72q-19 11-29.5 30T217-128q0 35 25.5 59.5T304-44z"/><glyph glyph-name="uni021A" unicode="Ț" horiz-adv-x="606" d="M213 526H20v159h566V526H393V0H213v526zm91-570q37 0 63-27t26-65q0-24-8-46t-27-47l-65-89-80 46 44 72q-19 11-29.5 30T217-128q0 35 25.5 59.5T304-44z"/><glyph glyph-name="Uacute" unicode="Ú" horiz-adv-x="682" d="M341-10q-131 0-208 78T56 280v405h180V282q0-60 28-94t77-34 77 34 28 94v403h180V280q0-134-77-212T341-10zm-58 750-57 90 200 147 74-126z"/><glyph glyph-name="Ucircumflex" unicode="Û" horiz-adv-x="682" d="M341-10q-131 0-208 78T56 280v405h180V282q0-60 28-94t77-34 77 34 28 94v403h180V280q0-134-77-212T341-10zm0 982 182-157-67-80-116 84-114-84-67 80z"/><glyph glyph-name="Udieresis" unicode="Ü" horiz-adv-x="682" d="M341-10q-131 0-208 78T56 280v405h180V282q0-60 28-94t77-34 77 34 28 94v403h180V280q0-134-77-212T341-10zm-20 845q0-34-25.5-59.5T236 750t-60 25.5-26 59.5 26 59.5 60 25.5 59.5-25.5T321 835zm211 0q0-34-25.5-59.5T446 750q-34 0-59.5 25.5T361 835t25.5 59.5T446 920q35 0 60.5-25.5T532 835z"/><glyph glyph-name="Ugrave" unicode="Ù" horiz-adv-x="682" d="M341-10q-131 0-208 78T56 280v405h180V282q0-60 28-94t77-34 77 34 28 94v403h180V280q0-134-77-212T341-10zm-81 987 200-147-57-90-217 111z"/><glyph glyph-name="Ubreve" unicode="Ŭ" horiz-adv-x="682" d="M341-10q-131 0-208 78T56 280v405h180V282q0-60 28-94t77-34 77 34 28 94v403h180V280q0-134-77-212T341-10zm0 865q20 0 31 14.5t11 40.5v10h121v-20q0-68-45.5-111.5T341 745t-117.5 43.5T178 900v20h121v-10q0-26 11-40.5t31-14.5z"/><glyph glyph-name="Uhungarumlaut" unicode="Ű" horiz-adv-x="682" d="M341-10q-131 0-208 78T56 280v405h180V282q0-60 28-94t77-34 77 34 28 94v403h180V280q0-134-77-212T341-10zm-75 749-91 55 103 190 118-74zm204 0-91 55 103 190 118-74z"/><glyph glyph-name="Umacron" unicode="Ū" horiz-adv-x="682" d="M341-10q-131 0-208 78T56 280v405h180V282q0-60 28-94t77-34 77 34 28 94v403h180V280q0-134-77-212T341-10zM192 891h298V773H192v118z"/><glyph glyph-name="Uogonek" unicode="Ų" horiz-adv-x="682" d="M441-222q-59 0-94 28t-35 76q0 32 15.5 60.5T371-10h-30q-131 0-208 78T56 280v405h180V282q0-60 28-94t77-34 77 34 28 94v403h180V280q0-76-25-134.5T526 47q-41-33-63-67.5T441-87q0-14 8.5-22.5T471-118q7 0 14 1.5t15 4.5l33-88q-21-11-44-16.5t-48-5.5z"/><glyph glyph-name="Uring" unicode="Ů" horiz-adv-x="682" d="M341-10q-131 0-208 78T56 280v405h180V282q0-60 28-94t77-34 77 34 28 94v403h180V280q0-134-77-212T341-10zM211 857q0 53 37.5 89.5T341 983t92.5-36.5T471 857t-37.5-89.5T341 731t-92.5 36.5T211 857zm172 0q0 19-12 31t-30 12-30-12-12-31 11.5-31 30.5-12 30.5 12 11.5 31z"/><glyph glyph-name="Utilde" unicode="Ũ" horiz-adv-x="682" d="M341-10q-131 0-208 78T56 280v405h180V282q0-60 28-94t77-34 77 34 28 94v403h180V280q0-134-77-212T341-10zm66 773q-16 0-31 3.5T336 782q-18 8-27 10.5t-17 2.5q-14 0-24-9.5T249 753l-99 46q26 65 55 93t70 28q16 0 31-3.5t40-15.5q18-8 27-10.5t17-2.5q14 0 24 9.5t19 32.5l99-46q-26-65-55-93t-70-28z"/><glyph glyph-name="Wacute" unicode="Ẃ" horiz-adv-x="1031" d="M799 0H625L516 310 406 0H232L8 685h190l133-438 102 302-51 136h273l-48-134 104-308 134 442h178zM461 740l-57 90 200 147 74-126z"/><glyph glyph-name="Wcircumflex" unicode="Ŵ" horiz-adv-x="1031" d="M799 0H625L516 310 406 0H232L8 685h190l133-438 102 302-51 136h273l-48-134 104-308 134 442h178zM519 972l182-157-67-80-116 84-114-84-67 80z"/><glyph glyph-name="Wdieresis" unicode="Ẅ" horiz-adv-x="1031" d="M799 0H625L516 310 406 0H232L8 685h190l133-438 102 302-51 136h273l-48-134 104-308 134 442h178zM499 835q0-34-25.5-59.5T414 750t-60 25.5-26 59.5 26 59.5 60 25.5 59.5-25.5T499 835zm211 0q0-34-25.5-59.5T624 750q-34 0-59.5 25.5T539 835t25.5 59.5T624 920q35 0 60.5-25.5T710 835z"/><glyph glyph-name="Wgrave" unicode="Ẁ" horiz-adv-x="1031" d="M799 0H625L516 310 406 0H232L8 685h190l133-438 102 302-51 136h273l-48-134 104-308 134 442h178zM438 977l200-147-57-90-217 111z"/><glyph glyph-name="Yacute" unicode="Ý" horiz-adv-x="669" d="M473 685h190L425 273V0H245v273L6 685h200l134-235zm-186 55-57 90 200 147 74-126z"/><glyph glyph-name="Ydieresis" unicode="Ÿ" horiz-adv-x="669" d="M473 685h190L425 273V0H245v273L6 685h200l134-235zM315 835q0-34-25.5-59.5T230 750t-60 25.5-26 59.5 26 59.5 60 25.5 59.5-25.5T315 835zm211 0q0-34-25.5-59.5T440 750q-34 0-59.5 25.5T355 835t25.5 59.5T440 920q35 0 60.5-25.5T526 835z"/><glyph glyph-name="Ycircumflex" unicode="Ŷ" horiz-adv-x="669" d="M473 685h190L425 273V0H245v273L6 685h200l134-235zM335 972l182-157-67-80-116 84-114-84-67 80z"/><glyph glyph-name="Ygrave" unicode="Ỳ" horiz-adv-x="669" d="M473 685h190L425 273V0H245v273L6 685h200l134-235zM254 977l200-147-57-90-217 111z"/><glyph glyph-name="Zcaron" unicode="Ž" horiz-adv-x="604" d="M255 159h314V0H35v139l305 387H48v159h511V546zm162 813 67-80-182-157-182 157 67 80 116-84z"/><glyph glyph-name="Zacute" unicode="Ź" horiz-adv-x="604" d="M255 159h314V0H35v139l305 387H48v159h511V546zm-10 581-57 90 200 147 74-126z"/><glyph glyph-name="Zdotaccent" unicode="Ż" horiz-adv-x="604" d="M255 159h314V0H35v139l305 387H48v159h511V546zm142 681q0-38-28.5-66.5T302 745t-66.5 29-28.5 66q0 38 28.5 66.5T302 935t66.5-28.5T397 840z"/><glyph glyph-name="aacute" unicode="á" horiz-adv-x="591" d="M536 0H381l-18 57q-24-33-55.5-50T238-10q-91 0-151 70T27 235t60 175 151 70q38 0 70-17t55-49l18 56h155V0zM197 235q0-39 24.5-64.5T282 145q37 0 61 25.5t24 64.5-24 64.5-61 25.5q-36 0-60.5-25.5T197 235zm31 290-57 90 200 147 74-126z"/><glyph glyph-name="acircumflex" unicode="â" horiz-adv-x="591" d="M536 0H381l-18 57q-24-33-55.5-50T238-10q-91 0-151 70T27 235t60 175 151 70q38 0 70-17t55-49l18 56h155V0zM197 235q0-39 24.5-64.5T282 145q37 0 61 25.5t24 64.5-24 64.5-61 25.5q-36 0-60.5-25.5T197 235zm99 522 182-157-67-80-116 84-114-84-67 80z"/><glyph glyph-name="adieresis" unicode="ä" horiz-adv-x="591" d="M536 0H381l-18 57q-24-33-55.5-50T238-10q-91 0-151 70T27 235t60 175 151 70q38 0 70-17t55-49l18 56h155V0zM197 235q0-39 24.5-64.5T282 145q37 0 61 25.5t24 64.5-24 64.5-61 25.5q-36 0-60.5-25.5T197 235zm79 385q0-34-25.5-59.5T191 535t-60 25.5-26 59.5 26 59.5 60 25.5 59.5-25.5T276 620zm211 0q0-34-25.5-59.5T401 535q-34 0-59.5 25.5T316 620t25.5 59.5T401 705q35 0 60.5-25.5T487 620z"/><glyph glyph-name="agrave" unicode="à" horiz-adv-x="591" d="M536 0H381l-18 57q-24-33-55.5-50T238-10q-91 0-151 70T27 235t60 175 151 70q38 0 70-17t55-49l18 56h155V0zM197 235q0-39 24.5-64.5T282 145q37 0 61 25.5t24 64.5-24 64.5-61 25.5q-36 0-60.5-25.5T197 235zm28 527 200-147-57-90-217 111z"/><glyph glyph-name="aring" unicode="å" horiz-adv-x="591" d="M536 0H381l-18 57q-24-33-55.5-50T238-10q-91 0-151 70T27 235t60 175 151 70q38 0 70-17t55-49l18 56h155V0zM197 235q0-39 24.5-64.5T282 145q37 0 61 25.5t24 64.5-24 64.5-61 25.5q-36 0-60.5-25.5T197 235zm-44 407q0 53 37.5 89.5T283 768t92.5-36.5T413 642t-37.5-89.5T283 516t-92.5 36.5T153 642zm172 0q0 19-12 31t-30 12-30-12-12-31 11.5-31 30.5-12 30.5 12 11.5 31z"/><glyph glyph-name="atilde" unicode="ã" horiz-adv-x="591" d="M536 0H381l-18 57q-24-33-55.5-50T238-10q-91 0-151 70T27 235t60 175 151 70q38 0 70-17t55-49l18 56h155V0zM197 235q0-39 24.5-64.5T282 145q37 0 61 25.5t24 64.5-24 64.5-61 25.5q-36 0-60.5-25.5T197 235zm165 313q-16 0-31 3.5T291 567q-18 8-27 10.5t-17 2.5q-14 0-24-9.5T204 538l-99 46q26 65 55 93t70 28q16 0 31-3.5t40-15.5q18-8 27-10.5t17-2.5q14 0 24 9.5t19 32.5l99-46q-26-65-55-93t-70-28z"/><glyph glyph-name="abreve" unicode="ă" horiz-adv-x="591" d="M536 0H381l-18 57q-24-33-55.5-50T238-10q-91 0-151 70T27 235t60 175 151 70q38 0 70-17t55-49l18 56h155V0zM197 235q0-39 24.5-64.5T282 145q37 0 61 25.5t24 64.5-24 64.5-61 25.5q-36 0-60.5-25.5T197 235zm99 405q20 0 31 14.5t11 40.5v10h121v-20q0-68-45.5-111.5T296 530t-117.5 43.5T133 685v20h121v-10q0-26 11-40.5t31-14.5z"/><glyph glyph-name="amacron" unicode="ā" horiz-adv-x="591" d="M536 0H381l-18 57q-24-33-55.5-50T238-10q-91 0-151 70T27 235t60 175 151 70q38 0 70-17t55-49l18 56h155V0zM197 235q0-39 24.5-64.5T282 145q37 0 61 25.5t24 64.5-24 64.5-61 25.5q-36 0-60.5-25.5T197 235zm-50 441h298V558H147v118z"/><glyph glyph-name="aogonek" unicode="ą" horiz-adv-x="591" d="m519-112 33-88q-21-11-44-16.5t-48-5.5q-59 0-94 28t-35 76q0 36 19 67t54 51h-23l-18 57q-24-33-55.5-50T238-10q-91 0-151 70T27 235t60 175 151 70q38 0 70-17t55-49l18 56h155V0q-35-19-55.5-42.5T460-87q0-14 8.5-22.5T490-118q7 0 14 1.5t15 4.5zM197 235q0-39 24.5-64.5T282 145q37 0 61 25.5t24 64.5-24 64.5-61 25.5q-36 0-60.5-25.5T197 235z"/><glyph glyph-name="ccedilla" unicode="ç" horiz-adv-x="478" d="M381-124q0-45-34-72t-92-27q-33 0-58 5t-54 18l26 79q20-9 32.5-12.5T226-137t19 5 7 15-5.5 14.5T230-98l-42 48 15 50Q121 22 72 86T23 235q0 106 72.5 175.5T278 480q49 0 97-20t86-57L349 291q-15 15-33 22.5t-38 7.5q-35 0-57.5-24T198 235t22.5-62 57.5-24q24 0 43.5 8.5T359 184L471 72q-39-40-82.5-60T293-10l-7-22q44-5 69.5-30t25.5-62z"/><glyph glyph-name="cacute" unicode="ć" horiz-adv-x="478" d="M198 235q0-38 22.5-62t57.5-24q24 0 43.5 8.5T359 184L471 72q-40-42-87.5-62T278-10Q168-10 95.5 59.5T23 235t72.5 175.5T278 480q49 0 97-20t86-57L349 291q-15 15-33 22.5t-38 7.5q-35 0-57.5-24T198 235zm-7 290-57 90 200 147 74-126z"/><glyph glyph-name="ccaron" unicode="č" horiz-adv-x="478" d="M198 235q0-38 22.5-62t57.5-24q24 0 43.5 8.5T359 184L471 72q-40-42-87.5-62T278-10Q168-10 95.5 59.5T23 235t72.5 175.5T278 480q49 0 97-20t86-57L349 291q-15 15-33 22.5t-38 7.5q-35 0-57.5-24T198 235zm183 522 67-80-182-157L84 677l67 80 116-84z"/><glyph glyph-name="ccircumflex" unicode="ĉ" horiz-adv-x="478" d="M198 235q0-38 22.5-62t57.5-24q24 0 43.5 8.5T359 184L471 72q-40-42-87.5-62T278-10Q168-10 95.5 59.5T23 235t72.5 175.5T278 480q49 0 97-20t86-57L349 291q-15 15-33 22.5t-38 7.5q-35 0-57.5-24T198 235zm66 522 182-157-67-80-116 84-114-84-67 80z"/><glyph glyph-name="cdotaccent" unicode="ċ" horiz-adv-x="478" d="M198 235q0-38 22.5-62t57.5-24q24 0 43.5 8.5T359 184L471 72q-40-42-87.5-62T278-10Q168-10 95.5 59.5T23 235t72.5 175.5T278 480q49 0 97-20t86-57L349 291q-15 15-33 22.5t-38 7.5q-35 0-57.5-24T198 235zm162 390q0-38-28.5-66.5T265 530t-66.5 29-28.5 66q0 38 28.5 66.5T265 720t66.5-28.5T360 625z"/><glyph glyph-name="dcaron" unicode="ď" horiz-adv-x="721" d="M536 0H381l-18 56q-24-32-55.5-49T238-10q-92 0-151.5 69.5T27 235t59.5 175.5T238 480q37 0 68.5-16t54.5-47v288h175V0zM197 235q0-39 24.5-64.5T282 145q37 0 61 25.5t24 64.5-24 64.5-61 25.5q-36 0-60.5-25.5T197 235zm534 470-20-198H590v198h141z"/><glyph glyph-name="dcroat" unicode="đ" horiz-adv-x="610" d="M536 0H381l-18 56q-24-32-55.5-49T238-10q-92 0-151.5 69.5T27 235t59.5 175.5T238 480q37 0 68.5-16t54.5-47v103H218v115h143v70h175v-70h74V520h-74V0zM197 235q0-39 24.5-64.5T282 145q37 0 61 25.5t24 64.5-24 64.5-61 25.5q-36 0-60.5-25.5T197 235z"/><glyph glyph-name="eacute" unicode="é" horiz-adv-x="535" d="m388 168 95-101q-37-37-87.5-57T289-10Q172-10 97.5 59T23 235q0 105 71.5 175T273 480q104 0 173-69t69-173q0-15-1.5-30t-3.5-24H182q12-29 37.5-44t63.5-15q34 0 59 10.5t46 32.5zM268 349q-31 0-53.5-16T181 287h179q-10 30-33 46t-59 16zm-76 176-57 90 200 147 74-126z"/><glyph glyph-name="ecircumflex" unicode="ê" horiz-adv-x="535" d="m388 168 95-101q-37-37-87.5-57T289-10Q172-10 97.5 59T23 235q0 105 71.5 175T273 480q104 0 173-69t69-173q0-15-1.5-30t-3.5-24H182q12-29 37.5-44t63.5-15q34 0 59 10.5t46 32.5zM268 349q-31 0-53.5-16T181 287h179q-10 30-33 46t-59 16zm-6 408 182-157-67-80-116 84-114-84-67 80z"/><glyph glyph-name="edieresis" unicode="ë" horiz-adv-x="535" d="m388 168 95-101q-37-37-87.5-57T289-10Q172-10 97.5 59T23 235q0 105 71.5 175T273 480q104 0 173-69t69-173q0-15-1.5-30t-3.5-24H182q12-29 37.5-44t63.5-15q34 0 59 10.5t46 32.5zM268 349q-31 0-53.5-16T181 287h179q-10 30-33 46t-59 16zm-26 271q0-34-25.5-59.5T157 535t-60 25.5T71 620t26 59.5 60 25.5 59.5-25.5T242 620zm211 0q0-34-25.5-59.5T367 535q-34 0-59.5 25.5T282 620t25.5 59.5T367 705q35 0 60.5-25.5T453 620z"/><glyph glyph-name="egrave" unicode="è" horiz-adv-x="535" d="m388 168 95-101q-37-37-87.5-57T289-10Q172-10 97.5 59T23 235q0 105 71.5 175T273 480q104 0 173-69t69-173q0-15-1.5-30t-3.5-24H182q12-29 37.5-44t63.5-15q34 0 59 10.5t46 32.5zM268 349q-31 0-53.5-16T181 287h179q-10 30-33 46t-59 16zm-81 413 200-147-57-90-217 111z"/><glyph glyph-name="ebreve" unicode="ĕ" horiz-adv-x="535" d="m388 168 95-101q-37-37-87.5-57T289-10Q172-10 97.5 59T23 235q0 105 71.5 175T273 480q104 0 173-69t69-173q0-15-1.5-30t-3.5-24H182q12-29 37.5-44t63.5-15q34 0 59 10.5t46 32.5zM268 349q-31 0-53.5-16T181 287h179q-10 30-33 46t-59 16zm-6 291q20 0 31 14.5t11 40.5v10h121v-20q0-68-45.5-111.5T262 530t-117.5 43.5T99 685v20h121v-10q0-26 11-40.5t31-14.5z"/><glyph glyph-name="ecaron" unicode="ě" horiz-adv-x="535" d="m388 168 95-101q-37-37-87.5-57T289-10Q172-10 97.5 59T23 235q0 105 71.5 175T273 480q104 0 173-69t69-173q0-15-1.5-30t-3.5-24H182q12-29 37.5-44t63.5-15q34 0 59 10.5t46 32.5zM268 349q-31 0-53.5-16T181 287h179q-10 30-33 46t-59 16zm109 408 67-80-182-157L80 677l67 80 116-84z"/><glyph glyph-name="edotaccent" unicode="ė" horiz-adv-x="535" d="m388 168 95-101q-37-37-87.5-57T289-10Q172-10 97.5 59T23 235q0 105 71.5 175T273 480q104 0 173-69t69-173q0-15-1.5-30t-3.5-24H182q12-29 37.5-44t63.5-15q34 0 59 10.5t46 32.5zM268 349q-31 0-53.5-16T181 287h179q-10 30-33 46t-59 16zm89 276q0-38-28.5-66.5T262 530t-66.5 29-28.5 66q0 38 28.5 66.5T262 720t66.5-28.5T357 625z"/><glyph glyph-name="emacron" unicode="ē" horiz-adv-x="535" d="m388 168 95-101q-37-37-87.5-57T289-10Q172-10 97.5 59T23 235q0 105 71.5 175T273 480q104 0 173-69t69-173q0-15-1.5-30t-3.5-24H182q12-29 37.5-44t63.5-15q34 0 59 10.5t46 32.5zM268 349q-31 0-53.5-16T181 287h179q-10 30-33 46t-59 16zM113 676h298V558H113v118z"/><glyph glyph-name="eogonek" unicode="ę" horiz-adv-x="535" d="m431-112 33-88q-21-11-44-16.5t-48-5.5q-59 0-94 28t-35 76q0 26 11.5 53.5T289-10Q172-10 97.5 59T23 235q0 105 71.5 175T273 480q104 0 173-69t69-173q0-15-1.5-30t-3.5-24H182q12-29 37.5-44t63.5-15q34 0 59 10.5t46 32.5l95-101-49-46q-36-34-53-58.5T364-81q0-16 10.5-26.5T402-118q7 0 14 1.5t15 4.5zM268 349q-31 0-54-16.5T181 287h179q-9 30-32.5 46T268 349z"/><glyph glyph-name="gbreve" unicode="ğ" horiz-adv-x="584" d="M554 20q0-103-78.5-166.5T270-210q-74 0-142 19.5T10-136L86-5q43-28 87.5-42T260-61q56 0 90 26.5T384 35q0 15-4 30t-13 32q-23-42-59.5-64.5T227 10q-85 0-143.5 67.5T25 245q0 99 58.5 167T227 480q37 0 69-16t56-47l17 53h155V159l4-10q12-31 19-64.5t7-64.5zM195 245q0-36 22-59.5t56-23.5q35 0 58.5 23.5T355 245t-23.5 59.5T273 328q-34 0-56-23.5T195 245zm100 395q20 0 31 14.5t11 40.5v10h121v-20q0-68-45.5-111.5T295 530t-117.5 43.5T132 685v20h121v-10q0-26 11-40.5t31-14.5z"/><glyph glyph-name="gcircumflex" unicode="ĝ" horiz-adv-x="584" d="M554 20q0-103-78.5-166.5T270-210q-74 0-142 19.5T10-136L86-5q43-28 87.5-42T260-61q56 0 90 26.5T384 35q0 15-4 30t-13 32q-23-42-59.5-64.5T227 10q-85 0-143.5 67.5T25 245q0 99 58.5 167T227 480q37 0 69-16t56-47l17 53h155V159l4-10q12-31 19-64.5t7-64.5zM195 245q0-36 22-59.5t56-23.5q35 0 58.5 23.5T355 245t-23.5 59.5T273 328q-34 0-56-23.5T195 245zm98 512 182-157-67-80-116 84-114-84-67 80z"/><glyph glyph-name="gcommaaccent" unicode="ģ" horiz-adv-x="584" d="M554 20q0-103-78.5-166.5T270-210q-74 0-142 19.5T10-136L86-5q43-28 87.5-42T260-61q56 0 90 26.5T384 35q0 15-4 30t-13 32q-23-42-59.5-64.5T227 10q-85 0-143.5 67.5T25 245q0 99 58.5 167T227 480q37 0 69-16t56-47l17 53h155V159l4-10q12-31 19-64.5t7-64.5zM195 245q0-36 22-59.5t56-23.5q35 0 58.5 23.5T355 245t-23.5 59.5T273 328q-34 0-56-23.5T195 245zm99 275q-37 0-63 27t-26 65q0 24 8 46t27 47l65 89 80-46-44-73q19-11 29.5-30t10.5-41q0-35-25.5-59.5T294 520z"/><glyph glyph-name="gdotaccent" unicode="ġ" horiz-adv-x="584" d="M554 20q0-103-78.5-166.5T270-210q-74 0-142 19.5T10-136L86-5q43-28 87.5-42T260-61q56 0 90 26.5T384 35q0 15-4 30t-13 32q-23-42-59.5-64.5T227 10q-85 0-143.5 67.5T25 245q0 99 58.5 167T227 480q37 0 69-16t56-47l17 53h155V159l4-10q12-31 19-64.5t7-64.5zM195 245q0-36 22-59.5t56-23.5q35 0 58.5 23.5T355 245t-23.5 59.5T273 328q-34 0-56-23.5T195 245zm195 380q0-38-28.5-66.5T295 530t-66.5 29-28.5 66q0 38 28.5 66.5T295 720t66.5-28.5T390 625z"/><glyph glyph-name="hbar" unicode="ħ" horiz-adv-x="604" d="M323 321q-22 0-40.5-11.5T249 275V0H74v520H0v115h74v70h175v-70h143V520H249V408q26 34 61 53t73 19q80 0 127.5-56T558 274V0H388v246q0 36-17 55.5T323 321z"/><glyph glyph-name="hcircumflex" unicode="ĥ" horiz-adv-x="585" d="M304 321q-22 0-40.5-11.5T230 275V0H55v705h175V408q26 34 61 53t73 19q80 0 127.5-56T539 274V0H369v246q0 36-17 55.5T304 321zm1 661 182-157-67-80-116 84-114-84-67 80z"/><glyph glyph-name="iacute" unicode="í" horiz-adv-x="285" d="M55 470h175V0H55v470zm9 55L7 615l200 147 74-126z"/><glyph glyph-name="icircumflex" unicode="î" horiz-adv-x="285" d="M55 470h175V0H55v470zm87 287 182-157-67-80-116 84-114-84-67 80z"/><glyph glyph-name="idieresis" unicode="ï" horiz-adv-x="285" d="M55 470h175V0H55v470zm67 150q0-34-25.5-59.5T37 535t-60 25.5-26 59.5 26 59.5T37 705t59.5-25.5T122 620zm211 0q0-34-25.5-59.5T247 535q-34 0-59.5 25.5T162 620t25.5 59.5T247 705q35 0 60.5-25.5T333 620z"/><glyph glyph-name="igrave" unicode="ì" horiz-adv-x="285" d="M55 470h175V0H55v470zm26 292 200-147-57-90L7 636z"/><glyph glyph-name="ibreve" unicode="ĭ" horiz-adv-x="285" d="M55 470h175V0H55v470zm87 170q20 0 31 14.5t11 40.5v10h121v-20q0-68-45.5-111.5T142 530 24.5 573.5-21 685v20h121v-10q0-26 11-40.5t31-14.5z"/><glyph glyph-name="i.dot" horiz-adv-x="285" d="M242 615q0-41-29.5-70.5T142 515t-70.5 29.5T42 615t29.5 70.5T142 715t70.5-29.5T242 615zM55 470h175V0H55v470z"/><glyph glyph-name="imacron" unicode="ī" horiz-adv-x="285" d="M55 470h175V0H55v470zM-7 676h298V558H-7v118z"/><glyph glyph-name="iogonek" unicode="į" horiz-adv-x="285" d="M242 615q0-41-29.5-70.5T142 515t-70.5 29.5T42 615t29.5 70.5T142 715t70.5-29.5T242 615zm-29-727 33-88q-21-11-44-16.5t-48-5.5q-59 0-94 28t-35 76q0 36 19 67T98 0H55v470h175V0q-35-19-55.5-42.5T154-87q0-14 8.5-22.5T184-118q7 0 14 1.5t15 4.5z"/><glyph glyph-name="itilde" unicode="ĩ" horiz-adv-x="285" d="M55 470h175V0H55v470zm153 78q-16 0-31 3.5T137 567q-18 8-27 10.5T93 580q-14 0-24-9.5T50 538l-99 46q26 65 55 93t70 28q16 0 31-3.5t40-15.5q18-8 27-10.5t17-2.5q14 0 24 9.5t19 32.5l99-46q-26-65-55-93t-70-28z"/><glyph glyph-name="jcircumflex" unicode="ĵ" horiz-adv-x="286" d="M2-51q26 0 40 19.5T56 22v448h175V7q0-104-54.5-160.5T22-210q-43 0-85 14t-73 39l85 125q15-10 28-14.5T2-51zm151 808 182-157-67-80-116 84-114-84-67 80z"/><glyph glyph-name="ij" unicode="ĳ" horiz-adv-x="600" d="M242 615q0-41-29.5-70.5T142 515t-70.5 29.5T42 615t29.5 70.5T142 715t70.5-29.5T242 615zM55 470h175V0H55v470zm502 145q0-41-29.5-70.5T457 515t-70.5 29.5T357 615t29.5 70.5T457 715t70.5-29.5T557 615zM316-51q26 0 40 19.5T370 22v448h175V7q0-104-54.5-160.5T336-210q-43 0-85 14t-73 39l85 125q15-10 28-14.5t25-4.5z"/><glyph glyph-name="kcommaaccent" unicode="ķ" horiz-adv-x="583" d="M240 163h-10V0H55v705h175V322h10q39 0 58.5 12.5T334 380l42 90h181l-42-88q-24-51-44-84t-39-55L583 0H385l-95 166q-12-2-24.5-2.5T240 163zm75-207q37 0 63-27t26-65q0-24-8-46t-27-47l-65-89-80 46 44 72q-19 11-29.5 30T228-128q0 35 25.5 59.5T315-44z"/><glyph glyph-name="kgreenlandic" unicode="ĸ" horiz-adv-x="583" d="M240 163h-10V0H55v470h175V322h10q39 0 58.5 12.5T334 380l42 90h181l-42-88q-24-51-44-84t-39-55L583 0H385l-95 166q-12-2-24.5-2.5T240 163z"/><glyph glyph-name="lacute" unicode="ĺ" horiz-adv-x="285" d="M55 705h175V0H55v705zm20 35-57 90 200 147 74-126z"/><glyph glyph-name="lcaron" unicode="ľ" horiz-adv-x="415" d="M55 705h175V0H55v705zm370 0-20-198H284v198h141z"/><glyph glyph-name="lcommaaccent" unicode="ļ" horiz-adv-x="285" d="M55 705h175V0H55v705zm88-749q37 0 63-27t26-65q0-24-8-46t-27-47l-65-89-80 46 44 72q-19 11-29.5 30T56-128q0 35 25.5 59.5T143-44z"/><glyph glyph-name="ldot" unicode="ŀ" horiz-adv-x="445" d="M55 705h175V0H55v705zm405-377q0-39-28-67t-67-28-67 28-28 67 28 67 67 28 67-28 28-67z"/><glyph glyph-name="ntilde" unicode="ñ" horiz-adv-x="590" d="M304 321q-22 0-40.5-11.5T230 275V0H55v470h155l20-62q26 34 61 53t73 19q83 0 131.5-56T544 274V0H369v246q0 36-17 55.5T304 321zm57 227q-16 0-31 3.5T290 567q-18 8-27 10.5t-17 2.5q-14 0-24-9.5T203 538l-99 46q26 65 55 93t70 28q16 0 31-3.5t40-15.5q18-8 27-10.5t17-2.5q14 0 24 9.5t19 32.5l99-46q-26-65-55-93t-70-28z"/><glyph glyph-name="nacute" unicode="ń" horiz-adv-x="590" d="M304 321q-22 0-40.5-11.5T230 275V0H55v470h155l20-62q26 34 61 53t73 19q83 0 131.5-56T544 274V0H369v246q0 36-17 55.5T304 321zm-69 204-57 90 200 147 74-126z"/><glyph glyph-name="ncaron" unicode="ň" horiz-adv-x="590" d="M304 321q-22 0-40.5-11.5T230 275V0H55v470h155l20-62q26 34 61 53t73 19q83 0 131.5-56T544 274V0H369v246q0 36-17 55.5T304 321zm106 436 67-80-182-157-182 157 67 80 116-84z"/><glyph glyph-name="ncommaaccent" unicode="ņ" horiz-adv-x="590" d="M304 321q-22 0-40.5-11.5T230 275V0H55v470h155l20-62q26 34 61 53t73 19q83 0 131.5-56T544 274V0H369v246q0 36-17 55.5T304 321zm-8-365q37 0 63-27t26-65q0-24-8-46t-27-47l-65-89-80 46 44 72q-19 11-29.5 30T209-128q0 35 25.5 59.5T296-44z"/><glyph glyph-name="eng" unicode="ŋ" horiz-adv-x="590" d="M544 274V0q-2-101-56.5-155.5T335-210q-43 0-85 14t-73 39l85 125q15-10 28-14.5t25-4.5q26 0 40 19.5T369 22v224q0 36-17 55.5T304 321q-22 0-40.5-11.5T230 275V0H55v470h155l20-62q26 34 61 53t73 19q83 0 131.5-56T544 274z"/><glyph glyph-name="napostrophe" unicode="ŉ" horiz-adv-x="695" d="M409 321q-22 0-40.5-11.5T335 275V0H160v470h155l20-62q26 34 61 53t73 19q83 0 131.5-56T649 274V0H474v246q0 36-17 55.5T409 321zM181 685 95 415H-30L1 685h180z"/><glyph glyph-name="oacute" unicode="ó" horiz-adv-x="556" d="M533 235q0-106-72.5-175.5T278-10 95.5 59.5 23 235t72.5 175.5T278 480t182.5-69.5T533 235zm-340 0q0-39 24-64.5t61-25.5 61 25.5 24 64.5-24 64.5-61 25.5-61-25.5-24-64.5zm7 290-57 90 200 147 74-126z"/><glyph glyph-name="ocircumflex" unicode="ô" horiz-adv-x="556" d="M533 235q0-106-72.5-175.5T278-10 95.5 59.5 23 235t72.5 175.5T278 480t182.5-69.5T533 235zm-340 0q0-39 24-64.5t61-25.5 61 25.5 24 64.5-24 64.5-61 25.5-61-25.5-24-64.5zm85 522 182-157-67-80-116 84-114-84-67 80z"/><glyph glyph-name="odieresis" unicode="ö" horiz-adv-x="556" d="M533 235q0-106-72.5-175.5T278-10 95.5 59.5 23 235t72.5 175.5T278 480t182.5-69.5T533 235zm-340 0q0-39 24-64.5t61-25.5 61 25.5 24 64.5-24 64.5-61 25.5-61-25.5-24-64.5zm65 385q0-34-25.5-59.5T173 535t-60 25.5T87 620t26 59.5 60 25.5 59.5-25.5T258 620zm211 0q0-34-25.5-59.5T383 535q-34 0-59.5 25.5T298 620t25.5 59.5T383 705q35 0 60.5-25.5T469 620z"/><glyph glyph-name="ograve" unicode="ò" horiz-adv-x="556" d="M533 235q0-106-72.5-175.5T278-10 95.5 59.5 23 235t72.5 175.5T278 480t182.5-69.5T533 235zm-340 0q0-39 24-64.5t61-25.5 61 25.5 24 64.5-24 64.5-61 25.5-61-25.5-24-64.5zm14 527 200-147-57-90-217 111z"/><glyph glyph-name="otilde" unicode="õ" horiz-adv-x="556" d="M533 235q0-106-72.5-175.5T278-10 95.5 59.5 23 235t72.5 175.5T278 480t182.5-69.5T533 235zm-340 0q0-39 24-64.5t61-25.5 61 25.5 24 64.5-24 64.5-61 25.5-61-25.5-24-64.5zm150 313q-16 0-31 3.5T272 567q-18 8-27 10.5t-17 2.5q-14 0-24-9.5T185 538l-99 46q26 65 55 93t70 28q16 0 31-3.5t40-15.5q18-8 27-10.5t17-2.5q14 0 24 9.5t19 32.5l99-46q-26-65-55-93t-70-28z"/><glyph glyph-name="obreve" unicode="ŏ" horiz-adv-x="556" d="M533 235q0-106-72.5-175.5T278-10 95.5 59.5 23 235t72.5 175.5T278 480t182.5-69.5T533 235zm-340 0q0-39 24-64.5t61-25.5 61 25.5 24 64.5-24 64.5-61 25.5-61-25.5-24-64.5zm85 405q20 0 31 14.5t11 40.5v10h121v-20q0-68-45.5-111.5T278 530t-117.5 43.5T115 685v20h121v-10q0-26 11-40.5t31-14.5z"/><glyph glyph-name="ohungarumlaut" unicode="ő" horiz-adv-x="556" d="M533 235q0-106-72.5-175.5T278-10 95.5 59.5 23 235t72.5 175.5T278 480t182.5-69.5T533 235zm-340 0q0-39 24-64.5t61-25.5 61 25.5 24 64.5-24 64.5-61 25.5-61-25.5-24-64.5zm0 289-91 55 103 190 118-74zm204 0-91 55 103 190 118-74z"/><glyph glyph-name="omacron" unicode="ō" horiz-adv-x="556" d="M533 235q0-106-72.5-175.5T278-10 95.5 59.5 23 235t72.5 175.5T278 480t182.5-69.5T533 235zm-340 0q0-39 24-64.5t61-25.5 61 25.5 24 64.5-24 64.5-61 25.5-61-25.5-24-64.5zm-64 441h298V558H129v118z"/><glyph glyph-name="racute" unicode="ŕ" horiz-adv-x="405" d="M304 295q-23 0-41.5-7.5T230 266V0H55v470h155l20-61q24 34 54 52.5t61 18.5q16 0 28.5-2.5T400 470l-49-183q-13 4-24.5 6t-22.5 2zM163 525l-57 90 200 147 74-126z"/><glyph glyph-name="rcaron" unicode="ř" horiz-adv-x="405" d="M304 295q-23 0-41.5-7.5T230 266V0H55v470h155l20-61q24 34 54 52.5t61 18.5q16 0 28.5-2.5T400 470l-49-183q-13 4-24.5 6t-22.5 2zm24 462 67-80-182-157L31 677l67 80 116-84z"/><glyph glyph-name="rcommaaccent" unicode="ŗ" horiz-adv-x="405" d="M304 295q-23 0-41.5-7.5T230 266V0H55v470h155l20-61q24 34 54 52.5t61 18.5q16 0 28.5-2.5T400 470l-49-183q-13 4-24.5 6t-22.5 2zM143-44q37 0 63-27t26-65q0-24-8-46t-27-47l-65-89-80 46 44 72q-19 11-29.5 30T56-128q0 35 25.5 59.5T143-44z"/><glyph glyph-name="scaron" unicode="š" horiz-adv-x="455" d="M41 328q0 66 56.5 109T241 480q49 0 98.5-14.5T428 426l-74-116q-25 18-58 29.5T238 351q-16 0-23.5-4.5T207 333q0-10 15-17.5t54-17.5q82-21 120.5-58t38.5-94q0-74-52.5-115T235-10q-58 0-113 16.5T14 56l76 119q33-24 73.5-39t71.5-15q17 0 26 5t9 14q0 10-10.5 16.5T200 175q-88 22-123.5 58.5T41 328zm325 429 67-80-182-157L69 677l67 80 116-84z"/><glyph glyph-name="sacute" unicode="ś" horiz-adv-x="455" d="M41 328q0 66 56.5 109T241 480q49 0 98.5-14.5T428 426l-74-116q-25 18-58 29.5T238 351q-16 0-23.5-4.5T207 333q0-10 15-17.5t54-17.5q82-21 120.5-58t38.5-94q0-74-52.5-115T235-10q-58 0-113 16.5T14 56l76 119q33-24 73.5-39t71.5-15q17 0 26 5t9 14q0 10-10.5 16.5T200 175q-88 22-123.5 58.5T41 328zm114 197-57 90 200 147 74-126z"/><glyph glyph-name="scedilla" unicode="ş" horiz-adv-x="455" d="M344-124q0-45-34-72t-92-27q-33 0-58 5t-54 18l26 79q20-9 32.5-12.5T189-137t19 5 7 15-5.5 14.5T193-98l-42 48 14 46q-38 7-75.5 21.5T14 56l76 119q33-24 73.5-39t71.5-15q17 0 26 5t9 14q0 10-10.5 16.5T200 175q-88 22-123.5 58.5T41 328q0 66 56.5 109T241 480q49 0 98.5-14.5T428 426l-74-116q-25 18-58 29.5T238 351q-16 0-23.5-4.5T207 333q0-10 15-17.5t54-17.5q82-21 120.5-58t38.5-94q0-69-46.5-110T256-9l-7-23q44-5 69.5-30t25.5-62z"/><glyph glyph-name="scircumflex" unicode="ŝ" horiz-adv-x="455" d="M41 328q0 66 56.5 109T241 480q49 0 98.5-14.5T428 426l-74-116q-25 18-58 29.5T238 351q-16 0-23.5-4.5T207 333q0-10 15-17.5t54-17.5q82-21 120.5-58t38.5-94q0-74-52.5-115T235-10q-58 0-113 16.5T14 56l76 119q33-24 73.5-39t71.5-15q17 0 26 5t9 14q0 10-10.5 16.5T200 175q-88 22-123.5 58.5T41 328zm200 429 182-157-67-80-116 84-114-84-67 80z"/><glyph glyph-name="uni0219" unicode="ș" horiz-adv-x="455" d="M41 328q0 66 56.5 109T241 480q49 0 98.5-14.5T428 426l-74-116q-25 18-58 29.5T238 351q-16 0-23.5-4.5T207 333q0-10 15-17.5t54-17.5q82-21 120.5-58t38.5-94q0-74-52.5-115T235-10q-58 0-113 16.5T14 56l76 119q33-24 73.5-39t71.5-15q17 0 26 5t9 14q0 10-10.5 16.5T200 175q-88 22-123.5 58.5T41 328zM224-44q37 0 63-27t26-65q0-24-8-46t-27-47l-65-89-80 46 44 72q-19 11-29.5 30T137-128q0 35 25.5 59.5T224-44z"/><glyph glyph-name="tbar" unicode="ŧ" horiz-adv-x="475" d="M104 331H14v134l90 5h10l20 134h145V470h142V331H279v-31h142v-99H280q2-25 15-38.5t35-13.5q12 0 25 4.5t28 14.5l80-125q-31-25-73-39t-84-14q-96 0-149 55.5T104 201H14v99h90v31z"/><glyph glyph-name="tcaron" unicode="ť" horiz-adv-x="475" d="M104 321H14v144l90 5h10l20 134h145V470h142V321H279V212q0-30 13.5-46.5T330 149q12 0 25 4.5t28 14.5l80-125q-31-25-73-39t-84-14q-96 0-149 56.5T104 207v114zm355 384-20-198H318v198h141z"/><glyph glyph-name="uni0163" unicode="ţ" horiz-adv-x="475" d="M104 321H14v144l90 5h10l20 134h145V470h142V321H279V212q0-30 13.5-46.5T330 149q12 0 25 4.5t28 14.5l80-125q-31-25-73-39t-84-14q-96 0-149 56.5T104 207v114zM240-44q37 0 63-27t26-65q0-24-8-46t-27-47l-65-89-80 46 44 72q-19 11-29.5 30T153-128q0 35 25.5 59.5T240-44z"/><glyph glyph-name="uni021B" unicode="ț" horiz-adv-x="475" d="M104 321H14v144l90 5h10l20 134h145V470h142V321H279V212q0-30 13.5-46.5T330 149q12 0 25 4.5t28 14.5l80-125q-31-25-73-39t-84-14q-96 0-149 56.5T104 207v114zM240-44q37 0 63-27t26-65q0-24-8-46t-27-47l-65-89-80 46 44 72q-19 11-29.5 30T153-128q0 35 25.5 59.5T240-44z"/><glyph glyph-name="uacute" unicode="ú" horiz-adv-x="584" d="M529 0H374l-19 59q-26-33-61-51t-72-18q-81 0-129 55T45 193v277h175V221q0-35 16-53.5t46-18.5q22 0 40 10.5t32 31.5v279h175V0zM234 525l-57 90 200 147 74-126z"/><glyph glyph-name="ucircumflex" unicode="û" horiz-adv-x="584" d="M529 0H374l-19 59q-26-33-61-51t-72-18q-81 0-129 55T45 193v277h175V221q0-35 16-53.5t46-18.5q22 0 40 10.5t32 31.5v279h175V0zM292 757l182-157-67-80-116 84-114-84-67 80z"/><glyph glyph-name="udieresis" unicode="ü" horiz-adv-x="584" d="M529 0H374l-19 59q-26-33-61-51t-72-18q-81 0-129 55T45 193v277h175V221q0-35 16-53.5t46-18.5q22 0 40 10.5t32 31.5v279h175V0zM272 620q0-34-25.5-59.5T187 535t-60 25.5-26 59.5 26 59.5 60 25.5 59.5-25.5T272 620zm211 0q0-34-25.5-59.5T397 535q-34 0-59.5 25.5T312 620t25.5 59.5T397 705q35 0 60.5-25.5T483 620z"/><glyph glyph-name="ugrave" unicode="ù" horiz-adv-x="584" d="M529 0H374l-19 59q-26-33-61-51t-72-18q-81 0-129 55T45 193v277h175V221q0-35 16-53.5t46-18.5q22 0 40 10.5t32 31.5v279h175V0zM220 762l200-147-57-90-217 111z"/><glyph glyph-name="ubreve" unicode="ŭ" horiz-adv-x="584" d="M529 0H374l-19 59q-26-33-61-51t-72-18q-81 0-129 55T45 193v277h175V221q0-35 16-53.5t46-18.5q22 0 40 10.5t32 31.5v279h175V0zM292 640q20 0 31 14.5t11 40.5v10h121v-20q0-68-45.5-111.5T292 530t-117.5 43.5T129 685v20h121v-10q0-26 11-40.5t31-14.5z"/><glyph glyph-name="uhungarumlaut" unicode="ű" horiz-adv-x="584" d="M529 0H374l-19 59q-26-33-61-51t-72-18q-81 0-129 55T45 193v277h175V221q0-35 16-53.5t46-18.5q22 0 40 10.5t32 31.5v279h175V0zM212 524l-91 55 103 190 118-74zm204 0-91 55 103 190 118-74z"/><glyph glyph-name="umacron" unicode="ū" horiz-adv-x="584" d="M529 0H374l-19 59q-26-33-61-51t-72-18q-81 0-129 55T45 193v277h175V221q0-35 16-53.5t46-18.5q22 0 40 10.5t32 31.5v279h175V0zM143 676h298V558H143v118z"/><glyph glyph-name="uogonek" unicode="ų" horiz-adv-x="584" d="m512-112 33-88q-21-11-44-16.5t-48-5.5q-59 0-94 28t-35 76q0 36 19 67t54 51h-23l-19 59q-26-33-61-51t-72-18q-81 0-129 55T45 193v277h175V221q0-35 16-53.5t46-18.5q22 0 40 10.5t32 31.5v279h175V0q-35-19-55.5-42.5T453-87q0-14 8.5-22.5T483-118q7 0 14 1.5t15 4.5z"/><glyph glyph-name="uring" unicode="ů" horiz-adv-x="584" d="M529 0H374l-19 59q-26-33-61-51t-72-18q-81 0-129 55T45 193v277h175V221q0-35 16-53.5t46-18.5q22 0 40 10.5t32 31.5v279h175V0zM162 642q0 53 37.5 89.5T292 768t92.5-36.5T422 642t-37.5-89.5T292 516t-92.5 36.5T162 642zm172 0q0 19-12 31t-30 12-30-12-12-31 11.5-31 30.5-12 30.5 12 11.5 31z"/><glyph glyph-name="utilde" unicode="ũ" horiz-adv-x="584" d="M529 0H374l-19 59q-26-33-61-51t-72-18q-81 0-129 55T45 193v277h175V221q0-35 16-53.5t46-18.5q22 0 40 10.5t32 31.5v279h175V0zM358 548q-16 0-31 3.5T287 567q-18 8-27 10.5t-17 2.5q-14 0-24-9.5T200 538l-99 46q26 65 55 93t70 28q16 0 31-3.5t40-15.5q18-8 27-10.5t17-2.5q14 0 24 9.5t19 32.5l99-46q-26-65-55-93t-70-28z"/><glyph glyph-name="wacute" unicode="ẃ" horiz-adv-x="812" d="M657 0H476l-70 187L336 0H155L-17 470h172l104-300 72 192-41 108h236l-40-106 72-193 104 299h167zM344 525l-57 90 200 147 74-126z"/><glyph glyph-name="wcircumflex" unicode="ŵ" horiz-adv-x="812" d="M657 0H476l-70 187L336 0H155L-17 470h172l104-300 72 192-41 108h236l-40-106 72-193 104 299h167zM402 757l182-157-67-80-116 84-114-84-67 80z"/><glyph glyph-name="wdieresis" unicode="ẅ" horiz-adv-x="812" d="M657 0H476l-70 187L336 0H155L-17 470h172l104-300 72 192-41 108h236l-40-106 72-193 104 299h167zM382 620q0-34-25.5-59.5T297 535t-60 25.5-26 59.5 26 59.5 60 25.5 59.5-25.5T382 620zm211 0q0-34-25.5-59.5T507 535q-34 0-59.5 25.5T422 620t25.5 59.5T507 705q35 0 60.5-25.5T593 620z"/><glyph glyph-name="wgrave" unicode="ẁ" horiz-adv-x="812" d="M657 0H476l-70 187L336 0H155L-17 470h172l104-300 72 192-41 108h236l-40-106 72-193 104 299h167zM331 762l200-147-57-90-217 111z"/><glyph glyph-name="yacute" unicode="ý" horiz-adv-x="579" d="M554 20q0-101-78.5-165.5T278-210q-71 0-139.5 19.5T20-136L96-5q39-28 79-42t82-14q58 0 92.5 26.5T384 35q0 14-3.5 27.5T370 90q-20-38-57.5-59T227 10q-82 0-131.5 55.5T46 213v257h175V241q0-35 16-53.5t45-18.5q20 0 36.5 10t30.5 31v260h175V159l4-10q12-31 19-64.5t7-64.5zM228 525l-57 90 200 147 74-126z"/><glyph glyph-name="ydieresis" unicode="ÿ" horiz-adv-x="579" d="M554 20q0-101-78.5-165.5T278-210q-71 0-139.5 19.5T20-136L96-5q39-28 79-42t82-14q58 0 92.5 26.5T384 35q0 14-3.5 27.5T370 90q-20-38-57.5-59T227 10q-82 0-131.5 55.5T46 213v257h175V241q0-35 16-53.5t45-18.5q20 0 36.5 10t30.5 31v260h175V159l4-10q12-31 19-64.5t7-64.5zM276 620q0-34-25.5-59.5T191 535t-60 25.5-26 59.5 26 59.5 60 25.5 59.5-25.5T276 620zm211 0q0-34-25.5-59.5T401 535q-34 0-59.5 25.5T316 620t25.5 59.5T401 705q35 0 60.5-25.5T487 620z"/><glyph glyph-name="ycircumflex" unicode="ŷ" horiz-adv-x="579" d="M554 20q0-101-78.5-165.5T278-210q-71 0-139.5 19.5T20-136L96-5q39-28 79-42t82-14q58 0 92.5 26.5T384 35q0 14-3.5 27.5T370 90q-20-38-57.5-59T227 10q-82 0-131.5 55.5T46 213v257h175V241q0-35 16-53.5t45-18.5q20 0 36.5 10t30.5 31v260h175V159l4-10q12-31 19-64.5t7-64.5zM296 757l182-157-67-80-116 84-114-84-67 80z"/><glyph glyph-name="ygrave" unicode="ỳ" horiz-adv-x="579" d="M554 20q0-101-78.5-165.5T278-210q-71 0-139.5 19.5T20-136L96-5q39-28 79-42t82-14q58 0 92.5 26.5T384 35q0 14-3.5 27.5T370 90q-20-38-57.5-59T227 10q-82 0-131.5 55.5T46 213v257h175V241q0-35 16-53.5t45-18.5q20 0 36.5 10t30.5 31v260h175V159l4-10q12-31 19-64.5t7-64.5zM206 762l200-147-57-90-217 111z"/><glyph glyph-name="zcaron" unicode="ž" horiz-adv-x="487" d="M248 149h207V0H32v129l188 192H42v149h403V350zm111 608 67-80-182-157L62 677l67 80 116-84z"/><glyph glyph-name="zacute" unicode="ź" horiz-adv-x="487" d="M248 149h207V0H32v129l188 192H42v149h403V350zm-62 376-57 90 200 147 74-126z"/><glyph glyph-name="zdotaccent" unicode="ż" horiz-adv-x="487" d="M248 149h207V0H32v129l188 192H42v149h403V350zm91 476q0-38-28.5-66.5T244 530t-66.5 29-28.5 66q0 38 28.5 66.5T244 720t66.5-28.5T339 625z"/><glyph glyph-name="acute" unicode="´" horiz-adv-x="500" d="m172 525-57 90 200 147 74-126z"/><glyph glyph-name="grave" unicode="`" horiz-adv-x="500" d="m189 762 200-147-57-90-217 111z"/><glyph glyph-name="circumflex" unicode="ˆ" horiz-adv-x="500" d="m250 757 182-157-67-80-116 84-114-84-67 80z"/><glyph glyph-name="caron" unicode="ˇ" horiz-adv-x="500" d="m365 757 67-80-182-157L68 677l67 80 116-84z"/><glyph glyph-name="tilde" unicode="˜" horiz-adv-x="500" d="M316 548q-16 0-31 3.5T245 567q-18 8-27 10.5t-17 2.5q-14 0-24-9.5T158 538l-99 46q26 65 55 93t70 28q16 0 31-3.5t40-15.5q18-8 27-10.5t17-2.5q14 0 24 9.5t19 32.5l99-46q-26-65-55-93t-70-28z"/><glyph glyph-name="dieresis" unicode="¨" horiz-adv-x="500" d="M230 620q0-34-25.5-59.5T145 535t-60 25.5T59 620t26 59.5 60 25.5 59.5-25.5T230 620zm211 0q0-34-25.5-59.5T355 535q-34 0-59.5 25.5T270 620t25.5 59.5T355 705q35 0 60.5-25.5T441 620z"/><glyph glyph-name="ring" unicode="˚" horiz-adv-x="500" d="M120 642q0 53 37.5 89.5T250 768t92.5-36.5T380 642t-37.5-89.5T250 516t-92.5 36.5T120 642zm172 0q0 19-12 31t-30 12-30-12-12-31 11.5-31 30.5-12 30.5 12 11.5 31z"/><glyph glyph-name="cedilla" unicode="¸" horiz-adv-x="500" d="M371-124q0-45-34-72t-92-27q-33 0-58 5t-54 18l26 79q20-9 32.5-12.5T216-137t19 5 7 15-5.5 14.5T220-98l-42 48 20 68h93l-15-50q44-5 69.5-30t25.5-62z"/><glyph glyph-name="hungarumlaut" unicode="˝" horiz-adv-x="500" d="m135 524-91 55 103 190 118-74zm204 0-91 55 103 190 118-74z"/><glyph glyph-name="breve" unicode="˘" horiz-adv-x="500" d="M250 640q20 0 31 14.5t11 40.5v10h121v-20q0-68-45.5-111.5T250 530t-117.5 43.5T87 685v20h121v-10q0-26 11-40.5t31-14.5z"/><glyph glyph-name="macron" unicode="¯" horiz-adv-x="500" d="M101 676h298V558H101v118z"/><glyph glyph-name="dotaccent" unicode="˙" horiz-adv-x="500" d="M345 625q0-38-28.5-66.5T250 530t-66.5 29-28.5 66q0 38 28.5 66.5T250 720t66.5-28.5T345 625z"/><glyph glyph-name="periodcentered" unicode="·" horiz-adv-x="336" d="M263 318q0-39-28-67t-67-28-67 28-28 67 28 67 67 28 67-28 28-67z"/><glyph glyph-name="ogonek" unicode="˛" horiz-adv-x="500" d="M125-118q0 37 21 69.5T205 4l125-4q-35-19-55.5-42.5T254-87q0-14 8.5-22.5T284-118q7 0 14 1.5t15 4.5l33-88q-21-11-44-16.5t-48-5.5q-59 0-94 28t-35 76z"/><glyph glyph-name="commaaccent" unicode="" horiz-adv-x="500" d="M251-44q37 0 63-27t26-65q0-24-8-46t-27-47l-65-89-80 46 44 72q-19 11-29.5 30T164-128q0 35 25.5 59.5T251-44z"/><glyph glyph-name="caron.alt" horiz-adv-x="500" d="m469 685-20-198H328v198h141z"/><glyph glyph-name="revcommaaccent" horiz-adv-x="500" d="M249 520q-37 0-63 27t-26 65q0 24 8 46t27 47l65 89 80-46-44-73q19-11 29.5-30t10.5-41q0-35-25.5-59.5T249 520z"/><glyph glyph-name="afii10017" unicode="А" horiz-adv-x="729" d="M723 0H536l-40 107H223L183 0H6l270 685h177zM360 472l-79-211h157z"/><glyph glyph-name="afii10018" unicode="Б" horiz-adv-x="617" d="M315 0H70v685h459V526H245v-90h70q124 0 198-59t74-158q0-101-73.5-160T315 0zm92 219q0 28-24 43t-68 15h-70V159h70q43 0 67.5 16t24.5 44z"/><glyph glyph-name="afii10019" unicode="В" horiz-adv-x="623" d="M323 0H70v685h238q120 0 187.5-48.5T563 500q0-45-24.5-82T467 355q61-27 93.5-67.5T593 198q0-91-73.5-144.5T323 0zm65 480q0 25-20 39.5T313 534h-68V426h68q34 0 54.5 14.5T388 480zm30-267q0 29-23.5 45.5T328 275h-83V151h83q43 0 66.5 16.5T418 213z"/><glyph glyph-name="afii10020" unicode="Г" horiz-adv-x="524" d="M245 0H70v685h434V526H245V0z"/><glyph glyph-name="afii10021" unicode="Д" horiz-adv-x="755" d="M289 685h177l200-526h69v-329H565V0H190v-170H20v329h69zm84-218L263 159h219z"/><glyph glyph-name="afii10022" unicode="Е" horiz-adv-x="563" d="M518 0H70v685h448V526H250V426h238V267H250V159h268V0z"/><glyph glyph-name="afii10023" unicode="Ё" horiz-adv-x="563" d="M518 0H70v685h448V526H250V426h238V267H250V159h268V0zM269 835q0-34-25.5-59.5T184 750t-60 25.5T98 835t26 59.5 60 25.5 59.5-25.5T269 835zm211 0q0-34-25.5-59.5T394 750q-34 0-59.5 25.5T309 835t25.5 59.5T394 920q35 0 60.5-25.5T480 835z"/><glyph glyph-name="afii10024" unicode="Ж" horiz-adv-x="1048" d="M614 0H434v270q-21 1-32 2t-20 3L215 0H5l230 366q-18 21-39 50t-54 82L24 685h191l117-189q23-39 44-52.5t58-14.5v256h180V429q37 1 58 14.5t44 52.5l117 189h191L906 498q-33-53-54-82t-39-50L1043 0H833L666 275q-9-2-20-3t-32-2V0z"/><glyph glyph-name="afii10025" unicode="З" horiz-adv-x="614" d="M406 208q0 30-27 47.5T305 273H185v147h89q55 0 85 15.5t30 44.5q0 27-26.5 43.5T293 540q-38 0-84.5-19T124 470L38 589q60 51 129.5 78.5T303 695q118 0 189.5-51T564 509q0-50-27-90t-78-65q61-24 93-66t32-97q0-90-77.5-145.5T303-10q-81 0-148.5 27.5T22 104l87 120q43-38 91.5-58.5T293 145q52 0 82.5 17t30.5 46z"/><glyph glyph-name="afii10026" unicode="И" horiz-adv-x="736" d="M666 0H496v418L242 0H70v685h170V268l254 417h172V0z"/><glyph glyph-name="afii10027" unicode="Й" horiz-adv-x="736" d="M666 0H496v418L242 0H70v685h170V268l254 417h172V0zM376 720q-77 0-128 41.5T197 868v27h130v-17q0-28 12.5-43t36.5-15 36.5 14.5T425 876v19h130v-29q0-65-50-105.5T376 720z"/><glyph glyph-name="afii10028" unicode="К" horiz-adv-x="690" d="M685 0H478L314 276q-15-3-31.5-4.5T250 270V0H70v685h180V429q39 1 61.5 15t45.5 52l112 189h194L549 498q-26-43-48-74.5T459 368z"/><glyph glyph-name="afii10029" unicode="Л" horiz-adv-x="689" d="M683 0H496L340 461 183 0H6l250 685h177z"/><glyph glyph-name="afii10030" unicode="М" horiz-adv-x="940" d="M556 0H380L254 382 199 0H24l113 685h176l157-488 157 488h176L916 0H735l-55 378z"/><glyph glyph-name="afii10031" unicode="Н" horiz-adv-x="752" d="M682 0H502v271H250V0H70v685h180V430h252v255h180V0z"/><glyph glyph-name="afii10032" unicode="О" horiz-adv-x="776" d="M31 343q0 150 102.5 251T388 695t254.5-101T745 343q0-151-102-252T388-10 133 91 31 343zm529 0q0 80-49.5 134T388 531t-122.5-54T216 343q0-81 49-135t123-54 123 54 49 135z"/><glyph glyph-name="afii10033" unicode="П" horiz-adv-x="742" d="M250 0H70v685h602V0H492v526H250V0z"/><glyph glyph-name="afii10034" unicode="Р" horiz-adv-x="598" d="M245 0H70v685h231q124 0 198-63t74-170-74-170-198-63h-56V0zm148 452q0 35-24.5 54.5T301 526h-56V378h56q43 0 67.5 19.5T393 452z"/><glyph glyph-name="afii10035" unicode="С" horiz-adv-x="665" d="M216 342q0-80 50-134t123-54q42 0 77 17t74 56l111-120q-58-60-122-88.5T389-10Q236-10 133.5 90.5T31 342t102.5 252T389 695q72 0 135.5-27.5T641 587L532 467q-33 33-67.5 48.5T389 531q-74 0-123.5-54T216 342z"/><glyph glyph-name="afii10036" unicode="Т" horiz-adv-x="606" d="M213 526H20v159h566V526H393V0H213v526z"/><glyph glyph-name="afii10037" unicode="У" horiz-adv-x="677" d="M481 685h181L368 0H191l72 171L15 685h199l137-308z"/><glyph glyph-name="afii10038" unicode="Ф" horiz-adv-x="871" d="M846 342q0-121-89.5-195T522 69v-89H349v89q-145 4-234.5 78T25 342t89.5 195.5T349 616v89h173v-89q145-4 234.5-78.5T846 342zm-642 0q0-57 40.5-92T349 215v255q-65-1-105-35.5T204 342zm463 0q0 58-40.5 93T522 470V215q65 1 105 35.5t40 91.5z"/><glyph glyph-name="afii10039" unicode="Х" horiz-adv-x="717" d="M704 0H500L354 218 207 0H13l245 363L43 685h204l116-174 117 174h194L460 366z"/><glyph glyph-name="afii10040" unicode="Ц" horiz-adv-x="760" d="M480 685h180V159h90v-329H580V0H70v685h180V159h230v526z"/><glyph glyph-name="afii10041" unicode="Ч" horiz-adv-x="714" d="M464 685h180V0H464v253q-32-8-67-12.5t-65-4.5q-120 0-191 68.5T70 484v201h180V504q0-55 30-82.5t89-27.5q27 0 50 2.5t45 8.5v280z"/><glyph glyph-name="afii10042" unicode="Ш" horiz-adv-x="950" d="M700 685h180V0H70v685h180V159h135v526h180V159h135v526z"/><glyph glyph-name="afii10043" unicode="Щ" horiz-adv-x="980" d="M700 685h180V159h90v-329H800V0H70v685h180V159h135v526h180V159h135v526z"/><glyph glyph-name="afii10044" unicode="Ъ" horiz-adv-x="727" d="M165 526H10v159h330V436h90q124 0 198-59t74-158q0-101-73.5-160T430 0H165v526zm357-307q0 28-24 43t-68 15h-90V159h90q43 0 67.5 16t24.5 44z"/><glyph glyph-name="afii10045" unicode="Ы" horiz-adv-x="903" d="M833 2H653v685h180V2zM607 219q0-101-73.5-160T335 0H70v685h175V436h90q124 0 198-59t74-158zm-180 0q0 28-24 43t-68 15h-90V159h90q43 0 67.5 16t24.5 44z"/><glyph glyph-name="afii10046" unicode="Ь" horiz-adv-x="632" d="M607 219q0-101-73.5-160T335 0H70v685h175V436h90q124 0 198-59t74-158zm-180 0q0 28-24 43t-68 15h-90V159h90q43 0 67.5 16t24.5 44z"/><glyph glyph-name="afii10047" unicode="Э" horiz-adv-x="681" d="M297 695q155 0 254-99.5T650 342q0-153-99-252.5T297-10q-81 0-150.5 29.5T20 107l111 117q39-39 76.5-56t84.5-17q61 0 106.5 32.5T462 273H191v147h268q-19 54-63 84t-104 30q-46 0-83-15.5T139 470L30 587q52 52 121 80t146 28z"/><glyph glyph-name="afii10048" unicode="Ю" horiz-adv-x="1075" d="M687 695q152 0 254.5-101T1044 343q0-151-102-252T687-10q-132 0-229 78T337 271h-87V0H70v685h180V430h90q29 118 124.5 191.5T687 695zm172-352q0 80-49.5 134T687 531t-122.5-54T515 343q0-81 49-135t123-54 123 54 49 135z"/><glyph glyph-name="afii10049" unicode="Я" horiz-adv-x="653" d="M51 470q0 98 72.5 156.5T317 685h266V0H408v239h-41L209 0H13l188 270q-72 24-111 75.5T51 470zm180-8q0-29 22-46.5t59-17.5h96v128h-96q-37 0-59-17.5T231 462z"/><glyph glyph-name="afii10052" unicode="Ѓ" horiz-adv-x="524" d="M245 0H70v685h434V526H245V0zm-23 740-57 90 200 147 74-126z"/><glyph glyph-name="afii10050" unicode="Ґ" horiz-adv-x="524" d="M338 685v166h166V526H245V0H70v685h268z"/><glyph glyph-name="afii10051" unicode="Ђ" horiz-adv-x="769" d="M559 430q86 0 138-56.5T749 224V61q0-100-57.5-157T535-153q-40 0-78 14t-70 39l82 119q10-9 22-14t24-5q27 0 40.5 16T569 65v121q0 39-21.5 62T489 271q-29 0-54-15t-42-44V0H213v526H20v159h566V526H393V347q27 38 72.5 60.5T559 430z"/><glyph glyph-name="afii10053" unicode="Є" horiz-adv-x="665" d="m540 227 111-120q-58-60-122-88.5T389-10Q236-10 133.5 90.5T31 342t102.5 252T389 695q72 0 135.5-27.5T641 587L532 467q-33 33-67.5 48.5T389 531q-54 0-96.5-30T230 420h258V273H227q19-54 63-86.5t99-32.5q42 0 77 17t74 56z"/><glyph glyph-name="afii10054" unicode="Ѕ" horiz-adv-x="569" d="M283 541q-31 0-49-12.5T216 494t26.5-39 99.5-42q111-37 156-83.5T543 206q0-91-73.5-153.5T288-10q-75 0-145 27.5T21 94l95 119q38-35 80.5-52t91.5-17q37 0 57.5 14.5T366 198q0 20-25 35t-101 41q-111 37-156 84.5T39 486q0 89 69.5 149T281 695q65 0 127-25t110-71L417 480q-34 31-66.5 46T283 541z"/><glyph glyph-name="uni0400" unicode="Ѐ" horiz-adv-x="563" d="M518 0H70v685h448V526H250V426h238V267H250V159h268V0zM225 977l200-147-57-90-217 111z"/><glyph glyph-name="afii10055" unicode="І" horiz-adv-x="320" d="M250 0H70v685h180V0z"/><glyph glyph-name="afii10056" unicode="Ї" horiz-adv-x="320" d="M250 0H70v685h180V0zM140 835q0-34-25.5-59.5T55 750t-60 25.5-26 59.5 26 59.5T55 920t59.5-25.5T140 835zm211 0q0-34-25.5-59.5T265 750q-34 0-59.5 25.5T180 835t25.5 59.5T265 920q35 0 60.5-25.5T351 835z"/><glyph glyph-name="afii10057" unicode="Ј" horiz-adv-x="529" d="M217-10q-60 0-113 23.5T5 84l109 120q24-25 49-37.5t52-12.5q38 0 58 22.5t20 65.5v443h180V240q0-123-65-186.5T217-10z"/><glyph glyph-name="uni040D" unicode="Ѝ" horiz-adv-x="736" d="M666 0H496v418L242 0H70v685h170V268l254 417h172V0zM293 977l200-147-57-90-217 111z"/><glyph glyph-name="afii10061" unicode="Ќ" horiz-adv-x="690" d="M685 0H478L314 276q-15-3-31.5-4.5T250 270V0H70v685h180V429q39 1 61.5 15t45.5 52l112 189h194L549 498q-26-43-48-74.5T459 368zM302 740l-57 90 200 147 74-126z"/><glyph glyph-name="afii10058" unicode="Љ" horiz-adv-x="968" d="M496 0 340 461 183 0H6l250 685h177l91-249h147q124 0 198-59t74-158q0-98-70-157T683 0H496zm267 219q0 28-24 43t-68 15h-89l43-118h46q43 0 67.5 16t24.5 44z"/><glyph glyph-name="afii10059" unicode="Њ" horiz-adv-x="1069" d="M1044 219q0-101-73.5-160T772 0H502v271H250V0H70v685h180V430h252v255h180V436h90q124 0 198-59t74-158zm-180 0q0 28-24 43t-68 15h-90V159h90q43 0 67.5 16t24.5 44z"/><glyph glyph-name="afii10060" unicode="Ћ" horiz-adv-x="769" d="M489 271q-29 0-54-15t-42-44V0H213v526H20v159h566V526H393V347q27 38 72.5 60.5T559 430q86 0 138-56.5T749 224V0H569v186q0 39-21.5 62T489 271z"/><glyph glyph-name="afii10062" unicode="Ў" horiz-adv-x="677" d="M481 685h181L368 0H191l72 171L15 685h199l137-308zm-132 50q-77 0-128 41.5T170 883v27h130v-17q0-28 12.5-43t36.5-15 36.5 14.5T398 891v19h130v-29q0-65-50-105.5T349 735z"/><glyph glyph-name="afii10145" unicode="Џ" horiz-adv-x="742" d="M672 685V0H456v-170H286V0H70v685h180V159h242v526h180z"/><glyph glyph-name="afii10146" unicode="Ѣ" horiz-adv-x="717" d="M692 219q0-101-73.5-160T420 0H155v526H25v159h130v100h175V685h170V526H330v-90h90q124 0 198-59t74-158zm-180 0q0 28-24 43t-68 15h-90V159h90q43 0 67.5 16t24.5 44z"/><glyph glyph-name="afii10147" unicode="Ѳ" horiz-adv-x="776" d="M31 343q0 150 102.5 251T388 695t254.5-101T745 343q0-151-102-252T388-10 133 91 31 343zm357 188q-54 0-97-31t-62-83h318q-19 52-62 83t-97 31zm0-377q54 0 97 31t62 83H229q19-52 62-83t97-31z"/><glyph glyph-name="afii10148" unicode="Ѵ" horiz-adv-x="710" d="M626 487 444 0H267L11 685h187l162-462 117 332q25 71 67.5 105.5T648 695q11 0 23.5-1.5T694 689V530q-27 0-43-10t-25-33z"/><glyph glyph-name="afii10065" unicode="а" horiz-adv-x="591" d="M536 0H381l-18 57q-24-33-55.5-50T238-10q-91 0-151 70T27 235t60 175 151 70q38 0 70-17t55-49l18 56h155V0zM197 235q0-39 24.5-64.5T282 145q37 0 61 25.5t24 64.5-24 64.5-61 25.5q-36 0-60.5-25.5T197 235z"/><glyph glyph-name="afii10066" unicode="б" horiz-adv-x="553" d="M294 452q103 0 169.5-64.5T530 222q0-102-69-167T284-10q-110 0-180.5 65T33 222q0 29 6.5 56.5T59 330q-18 32-27 64.5T23 460q0 89 61.5 143.5T262 671l221 24 18-146-221-24q-43-4-62.5-19T198 462q0-7 1-12.5t4-9.5q21 6 43.5 9t47.5 3zm-91-230q0-37 21-60.5t55-23.5q36 0 58.5 23.5T360 222q0 36-22.5 59T279 304q-34 0-55-23t-21-59z"/><glyph glyph-name="afii10067" unicode="в" horiz-adv-x="547" d="M314 0H55v470h265q84 0 134.5-31t50.5-88q0-38-23-65t-67-42q55-11 82.5-39.5T525 132q0-65-54.5-98.5T314 0zm22 326q0 18-14.5 26.5T275 361h-51v-71h51q33 0 47 8.5t14 27.5zm15-176q0 19-16 28t-52 9h-59v-74h59q36 0 52 9t16 28z"/><glyph glyph-name="afii10068" unicode="г" horiz-adv-x="434" d="M228 0H55v470h369V325H228V0z"/><glyph glyph-name="afii10069" unicode="д" horiz-adv-x="610" d="M600-140H448V0H162v-140H10v269h58l139 341h190l144-341h59v-269zM300 328l-75-199h150z"/><glyph glyph-name="afii10070" unicode="е" horiz-adv-x="535" d="m388 168 95-101q-37-37-87.5-57T289-10Q172-10 97.5 59T23 235q0 105 71.5 175T273 480q104 0 173-69t69-173q0-15-1.5-30t-3.5-24H182q12-29 37.5-44t63.5-15q34 0 59 10.5t46 32.5zM268 349q-31 0-53.5-16T181 287h179q-10 30-33 46t-59 16z"/><glyph glyph-name="afii10071" unicode="ё" horiz-adv-x="535" d="m388 168 95-101q-37-37-87.5-57T289-10Q172-10 97.5 59T23 235q0 105 71.5 175T273 480q104 0 173-69t69-173q0-15-1.5-30t-3.5-24H182q12-29 37.5-44t63.5-15q34 0 59 10.5t46 32.5zM268 349q-31 0-53.5-16T181 287h179q-10 30-33 46t-59 16zm-20 271q0-34-25.5-59.5T163 535t-60 25.5T77 620t26 59.5 60 25.5 59.5-25.5T248 620zm211 0q0-34-25.5-59.5T373 535q-34 0-59.5 25.5T288 620t25.5 59.5T373 705q35 0 60.5-25.5T459 620z"/><glyph glyph-name="afii10072" unicode="ж" horiz-adv-x="870" d="M520 0H350v174q-4 0-11.5.5t-11.5.5L214 0H12l169 245q-24 23-50 57t-58 85l-52 83h180l53-83q26-42 47-57.5t46-15.5h3v156h170V314h3q25 0 45.5 15t47.5 58l53 83h180l-52-83q-32-51-58-85t-50-57L858 0H656L543 175q-4 0-11.5-.5T520 174V0z"/><glyph glyph-name="afii10073" unicode="з" horiz-adv-x="508" d="M306 149q0 17-13.5 25t-41.5 8h-92v108h88q26 0 38.5 7.5T298 321q0 15-14 23t-37 8q-35 0-68.5-12.5T117 303l-87 97q51 40 108 60t117 20q93 0 153-35.5t60-91.5q0-34-21.5-62.5T386 243q49-15 74.5-43.5T486 132q0-64-66-103T247-10q-71 0-127 20T15 72l94 97q28-25 62.5-37.5T244 119q30 0 46 7.5t16 22.5z"/><glyph glyph-name="afii10074" unicode="и" horiz-adv-x="580" d="M525 0H365v230L215 0H55v470h160V240l150 230h160V0z"/><glyph glyph-name="afii10075" unicode="й" horiz-adv-x="580" d="M525 0H365v230L215 0H55v470h160V240l150 230h160V0zM290 520q-77 0-128 41.5T111 668v27h130v-17q0-28 12.5-43t36.5-15 36.5 14.5T339 676v19h130v-29q0-65-50-105.5T290 520z"/><glyph glyph-name="afii10076" unicode="к" horiz-adv-x="586" d="M583 0H379l-92 169q-12-2-26.5-3t-30.5-1V0H55v470h175V314q33 0 56 15.5t47 57.5l49 83h183l-48-83q-26-45-48-77.5T428 254z"/><glyph glyph-name="afii10077" unicode="л" horiz-adv-x="542" d="M536 0H357l-91 279L175 0H6l167 470h190z"/><glyph glyph-name="afii10078" unicode="м" horiz-adv-x="757" d="M455 0H298l-85 251L173 0H3l101 470h176l99-263 91 263h176L754 0H580l-46 257z"/><glyph glyph-name="afii10079" unicode="н" horiz-adv-x="593" d="M538 0H365v165H228V0H55v470h173V314h137v156h173V0z"/><glyph glyph-name="afii10080" unicode="о" horiz-adv-x="556" d="M533 235q0-106-72.5-175.5T278-10 95.5 59.5 23 235t72.5 175.5T278 480t182.5-69.5T533 235zm-340 0q0-39 24-64.5t61-25.5 61 25.5 24 64.5-24 64.5-61 25.5-61-25.5-24-64.5z"/><glyph glyph-name="afii10081" unicode="п" horiz-adv-x="595" d="M228 0H55v470h485V0H367v325H228V0z"/><glyph glyph-name="afii10082" unicode="р" horiz-adv-x="591" d="M564 235q0-106-59.5-175.5T353-10q-36 0-67 14t-56 41v-245H55v670h155l16-49q24 29 56.5 44t70.5 15q92 0 151.5-69.5T564 235zm-255 90q-37 0-61-25.5T224 235t24-64.5 61-25.5q36 0 60.5 25.5T394 235t-24.5 64.5T309 325z"/><glyph glyph-name="afii10083" unicode="с" horiz-adv-x="478" d="M198 235q0-38 22.5-62t57.5-24q24 0 43.5 8.5T359 184L471 72q-40-42-87.5-62T278-10Q168-10 95.5 59.5T23 235t72.5 175.5T278 480q49 0 97-20t86-57L349 291q-15 15-33 22.5t-38 7.5q-35 0-57.5-24T198 235z"/><glyph glyph-name="afii10084" unicode="т" horiz-adv-x="493" d="M160 325H20v145h453V325H333V0H160v325z"/><glyph glyph-name="afii10085" unicode="у" horiz-adv-x="579" d="M554 20q0-101-78.5-165.5T278-210q-71 0-139.5 19.5T20-136L96-5q39-28 79-42t82-14q58 0 92.5 26.5T384 35q0 14-3.5 27.5T370 90q-20-38-57.5-59T227 10q-82 0-131.5 55.5T46 213v257h175V241q0-35 16-53.5t45-18.5q20 0 36.5 10t30.5 31v260h175V159l4-10q12-31 19-64.5t7-64.5z"/><glyph glyph-name="afii10086" unicode="ф" horiz-adv-x="711" d="M691 235q0-102-73-171T434-10v-190H277v190Q166-5 93 64T20 235t73 171 184 74v205h157V480q111-5 184-74t73-171zm-162 0q0 43-28.5 71.5T429 335V135q44 2 72 30t28 70zm-347 0q0-43 28.5-71.5T282 135v200q-43-1-71.5-29.5T182 235z"/><glyph glyph-name="afii10087" unicode="х" horiz-adv-x="560" d="M556 0H356l-85 118L190 0H4l175 247L19 470h200l69-97 67 97h186L381 244z"/><glyph glyph-name="afii10088" unicode="ц" horiz-adv-x="632" d="M356 470h173V145h89v-285H458V0H55v470h173V145h128v325z"/><glyph glyph-name="afii10088.alt" horiz-adv-x="609" d="M607-26q0-17-2-38t-5-43H432v97q0 23-4 40.5T415 62q-31-35-71-53.5T256-10q-92 0-153 58.5T42 196v274h175V221q0-35 16-53.5t46-18.5q22 0 40 10.5t32 31.5v279h175V172l23-30q31-41 44.5-80.5T607-26z"/><glyph glyph-name="afii10089" unicode="ч" horiz-adv-x="565" d="M335 470h175V0H335v185q-30-27-61-39.5T203 133q-82 0-130 55T25 336v134h175V364q0-35 16.5-53.5T263 292q23 0 39.5 8t32.5 27v143z"/><glyph glyph-name="afii10090" unicode="ш" horiz-adv-x="834" d="M611 470h168V0H55v470h168V145h110v325h168V145h110v325z"/><glyph glyph-name="afii10091" unicode="щ" horiz-adv-x="883" d="M869-140H709V0H55v470h168V145h110v325h168V145h110v325h168V145h90v-285z"/><glyph glyph-name="afii10091.alt" horiz-adv-x="888" d="M878-26q0-17-2-38t-5-43H708v97q0 23-3.5 39T693 58q-30-34-68.5-51T541-10q-42 0-79.5 15T395 49q-30-29-66.5-44T251-10q-87 0-145.5 58.5T47 196v274h170V221q0-35 14.5-53.5T274 149q19 0 34.5 8.5T337 184v286h170V221q0-35 14.5-53.5T564 149q19 0 34.5 8.5T627 184v286h170V172l23-30q31-41 44.5-80.5T878-26z"/><glyph glyph-name="afii10092" unicode="ъ" horiz-adv-x="605" d="M140 325H0v145h313V322h80q92 0 147-43t55-118-53.5-118T399 0H140v325zm285-164q0 22-17 32t-59 10h-36v-84h36q42 0 59 10t17 32z"/><glyph glyph-name="afii10093" unicode="ы" horiz-adv-x="793" d="M510 161q0-75-53.5-118T314 0H55v470h173V322h80q92 0 147-43t55-118zm-170 0q0 22-17 32t-59 10h-36v-84h36q42 0 59 10t17 32zm223 309h175V0H563v470z"/><glyph glyph-name="afii10094" unicode="ь" horiz-adv-x="520" d="M510 161q0-75-53.5-118T314 0H55v470h173V322h80q92 0 147-43t55-118zm-170 0q0 22-17 32t-59 10h-36v-84h36q42 0 59 10t17 32z"/><glyph glyph-name="afii10095" unicode="э" horiz-adv-x="499" d="M229 480q108 0 177.5-68.5T476 235 406 58.5 226-10q-62 0-116 21T18 72l100 97q21-21 47-31.5t54-10.5q32 0 57.5 15t39.5 42H155v103h160q-13 26-38.5 41T219 343q-26 0-49-9t-42-26L28 403q37 37 89 57t112 20z"/><glyph glyph-name="afii10096" unicode="ю" horiz-adv-x="798" d="M520 480q110 0 182.5-69.5T775 235 702.5 59.5 520-10q-89 0-156 48t-90 127h-44V0H55v470h175V314h47q24 76 90 121t153 45zm-85-245q0-39 24-64.5t61-25.5 61 25.5 24 64.5-24 64.5-61 25.5-61-25.5-24-64.5z"/><glyph glyph-name="afii10097" unicode="я" horiz-adv-x="560" d="M45 310q0 74 56.5 117T252 470h258V0H337v148h-32L205 0H15l131 179q-50 18-75.5 51T45 310zm175-1q0-19 15.5-28.5T286 271h51v76h-51q-35 0-50.5-9.5T220 309z"/><glyph glyph-name="afii10100" unicode="ѓ" horiz-adv-x="434" d="M228 0H55v470h369V325H228V0zm-61 525-57 90 200 147 74-126z"/><glyph glyph-name="afii10098" unicode="ґ" horiz-adv-x="439" d="M272 620h157V325H228V0H55v470h217v150z"/><glyph glyph-name="afii10099" unicode="ђ" horiz-adv-x="606" d="M395 400q76 0 120.5-55.5T560 194V4q0-102-54-158t-150-56q-40 0-78 14t-70 39l82 119q10-9 22-14t24-5q27 0 40.5 16T390 8v158q0 36-17 55.5T325 241q-22 0-40.5-11.5T251 195V0H76v470H0v122h76v93h175v-93h155V470H251V327q27 35 65 54t79 19z"/><glyph glyph-name="afii10101" unicode="є" horiz-adv-x="478" d="m370 169 100-97q-40-42-87.5-62T277-10Q167-10 94.5 59.5T22 235t72.5 175.5T277 480q49 0 97-20t86-57l-100-95q-18 18-38.5 26.5T275 343q-28 0-51.5-14.5T187 289h146V187H184q12-28 36.5-44t54.5-16q28 0 50 9.5t45 32.5z"/><glyph glyph-name="afii10102" unicode="ѕ" horiz-adv-x="455" d="M41 328q0 66 56.5 109T241 480q49 0 98.5-14.5T428 426l-74-116q-25 18-58 29.5T238 351q-16 0-23.5-4.5T207 333q0-10 15-17.5t54-17.5q82-21 120.5-58t38.5-94q0-74-52.5-115T235-10q-58 0-113 16.5T14 56l76 119q33-24 73.5-39t71.5-15q17 0 26 5t9 14q0 10-10.5 16.5T200 175q-88 22-123.5 58.5T41 328z"/><glyph glyph-name="uni0450" unicode="ѐ" horiz-adv-x="535" d="m388 168 95-101q-37-37-87.5-57T289-10Q172-10 97.5 59T23 235q0 105 71.5 175T273 480q104 0 173-69t69-173q0-15-1.5-30t-3.5-24H182q12-29 37.5-44t63.5-15q34 0 59 10.5t46 32.5zM268 349q-31 0-53.5-16T181 287h179q-10 30-33 46t-59 16zm-56 413 200-147-57-90-217 111z"/><glyph glyph-name="afii10103" unicode="і" horiz-adv-x="285" d="M242 615q0-41-29.5-70.5T142 515t-70.5 29.5T42 615t29.5 70.5T142 715t70.5-29.5T242 615zM55 470h175V0H55v470z"/><glyph glyph-name="afii10104" unicode="ї" horiz-adv-x="382" d="M104 470h175V0H104v470zm67 150q0-34-25.5-59.5T86 535t-60 25.5T0 620t26 59.5T86 705t59.5-25.5T171 620zm211 0q0-34-25.5-59.5T296 535q-34 0-59.5 25.5T211 620t25.5 59.5T296 705q35 0 60.5-25.5T382 620z"/><glyph glyph-name="afii10105" unicode="ј" horiz-adv-x="295" d="M252 615q0-41-29.5-70.5T152 515t-70.5 29.5T52 615t29.5 70.5T152 715t70.5-29.5T252 615zM11-51q26 0 40 19.5T65 22v448h175V7q0-104-54.5-160.5T31-210q-43 0-85 14t-73 39l85 125q15-10 28-14.5T11-51z"/><glyph glyph-name="uni045D" unicode="ѝ" horiz-adv-x="580" d="m237 762 200-147-57-90-217 111zM525 0H365v230L215 0H55v470h160V240l150 230h160V0z"/><glyph glyph-name="afii10109" unicode="ќ" horiz-adv-x="586" d="M583 0H379l-92 169q-12-2-26.5-3t-30.5-1V0H55v470h175V314q33 0 56 15.5t47 57.5l49 83h183l-48-83q-26-45-48-77.5T428 254zM232 525l-57 90 200 147 74-126z"/><glyph glyph-name="afii10106" unicode="љ" horiz-adv-x="770" d="M760 162q0-75-55-118.5T559 0H357l-91 279L175 0H6l167 470h190l54-148h136q95 0 151-42.5T760 162zm-175-1q0 20-14.5 29t-61.5 9h-46l28-76h18q47 0 61.5 9t14.5 29z"/><glyph glyph-name="afii10107" unicode="њ" horiz-adv-x="838" d="M632 0H373v171H228V0H55v470h173V310h145v160h173V322h80q92 0 147-43t55-118-53.5-118T632 0zm26 161q0 22-17 32t-59 10h-36v-84h36q42 0 59 10t17 32z"/><glyph glyph-name="afii10108" unicode="ћ" horiz-adv-x="606" d="M325 241q-22 0-40.5-11.5T251 195V0H76v470H0v122h76v93h175v-93h155V470H251V327q27 35 65 54t79 19q76 0 120.5-55.5T560 194V0H390v166q0 36-17 55.5T325 241z"/><glyph glyph-name="afii10110" unicode="ў" horiz-adv-x="579" d="M554 20q0-101-78.5-165.5T278-210q-71 0-139.5 19.5T20-136L96-5q39-28 79-42t82-14q58 0 92.5 26.5T384 35q0 14-3.5 27.5T370 90q-20-38-57.5-59T227 10q-82 0-131.5 55.5T46 213v257h175V241q0-35 16-53.5t45-18.5q20 0 36.5 10t30.5 31v260h175V159l4-10q12-31 19-64.5t7-64.5zM285 520q-77 0-128 41.5T106 668v27h130v-17q0-28 12.5-43t36.5-15 36.5 14.5T334 676v19h130v-29q0-65-50-105.5T285 520z"/><glyph glyph-name="afii10193" unicode="џ" horiz-adv-x="584" d="M356 470h173V0H372v-140H212V0H55v470h173V145h128v325z"/><glyph glyph-name="afii10194" unicode="ѣ" horiz-adv-x="541" d="M531 161q0-75-53.5-118T335 0H76v423H0v122h76v140h173V545h142V423H249V322h80q92 0 147-43t55-118zm-170 0q0 22-17 32t-59 10h-36v-84h36q42 0 59 10t17 32z"/><glyph glyph-name="afii10195" unicode="ѳ" horiz-adv-x="554" d="M532 235q0-106-72.5-175.5T277-10 94.5 59.5 22 235t72.5 175.5T277 480t182.5-69.5T532 235zM277 345q-31 0-56-16.5T184 283h186q-12 29-36.5 45.5T277 345zm0-219q31 0 55.5 15.5T369 185H185q13-28 37.5-43.5T277 126z"/><glyph glyph-name="afii10196" unicode="ѵ" horiz-adv-x="537" d="M468 291 357 0H181L2 470h190l82-261 43 130q24 71 65.5 106T485 480q11 0 22.5-1t20.5-3V336q-23 0-37-10.5T468 291z"/><glyph glyph-name="breve_cyr" d="M0 520q-77 0-128 41.5T-179 668v27h130v-17q0-28 12.5-43T0 620t36.5 14.5T49 676v19h130v-29q0-65-50-105.5T0 520z"/><glyph glyph-name="alef:hb" unicode="א" horiz-adv-x="642" d="M637 0H423L237 270q-9-16-13-39.5t-4-57.5V0H40v144q0 82 26 137.5t81 91.5L25 550h215l137-199q16 17 23 43t7 71v85h180v-66q0-87-29-144t-90-92z"/><glyph glyph-name="bet:hb" unicode="ב" horiz-adv-x="595" d="M224 560q130 0 198-64.5T490 309V150h80V0H50v150h250v149q0 50-30 79.5T189 408q-27 0-59.5-3.5T60 394v147q39 9 83.5 14t80.5 5z"/><glyph glyph-name="gimel:hb" unicode="ג" horiz-adv-x="451" d="M80-10q-17 0-33 2.5T21 0v145h20q50 0 85 21t65 68v102q0 37-17 56.5T126 412q-15 0-32-3.5T56 398L20 528q33 16 70.5 24t74.5 8q106 0 161-58.5T381 330V225L426 0H261l-24 108q-26-57-67-87.5T80-10z"/><glyph glyph-name="dalet:hb" unicode="ד" horiz-adv-x="535" d="M515 550V400h-80V0H245v400H15v150h500z"/><glyph glyph-name="he:hb" unicode="ה" horiz-adv-x="625" d="M267 560q155 0 231.5-70T575 277V0H385v277q0 65-34.5 98T247 408q-41 0-91.5-8T55 378v149q60 16 114 24.5t98 8.5zM60 0v269l180 5V0H60z"/><glyph glyph-name="vav:hb" unicode="ו" horiz-adv-x="320" d="M65 0v550h190V0H65z"/><glyph glyph-name="zayin:hb" unicode="ז" horiz-adv-x="376" d="M263 220q0-50 11-104T309 0H118Q95 56 83.5 108.5T72 210q0 45 11 91.5t34 98.5H20v150h341V400h-72q-13-44-19.5-88t-6.5-92z"/><glyph glyph-name="het:hb" unicode="ח" horiz-adv-x="650" d="M317 408q-17 0-34-3t-33-9V0H60v506q67 25 138.5 39.5T327 560q135 0 204-66.5T600 297V0H410v302q0 53-23 79.5T317 408z"/><glyph glyph-name="tet:hb" unicode="ט" horiz-adv-x="650" d="M376 560q112 0 175.5-73T615 285q0-140-75-217.5T330-10q-133 0-206.5 75T50 275v275h190V275q0-65 23-99t67-34q45 0 67.5 36T420 285q0 55-23 91t-58 36q-10 0-21.5-1.5T295 407v143q16 4 38.5 7t42.5 3z"/><glyph glyph-name="yod:hb" unicode="י" horiz-adv-x="275" d="M45 215v335h185V219z"/><glyph glyph-name="finalkaf:hb" unicode="ך" horiz-adv-x="515" d="M199 560q130 0 198-64.5T465 309v-459H275v449q0 50-30 79.5T164 408q-27 0-59.5-3.5T35 394v147q39 9 83.5 14t80.5 5z"/><glyph glyph-name="kaf:hb" unicode="כ" horiz-adv-x="530" d="M200 560q140 0 220-76t80-209-80-209-220-76q-37 0-81 5.5T40 11v153q38-9 68.5-13t66.5-4q62 0 96 33.5t34 94.5-34 94.5-96 33.5q-36 0-66.5-4T40 386v153q35 10 79 15.5t81 5.5z"/><glyph glyph-name="lamed:hb" unicode="ל" horiz-adv-x="538" d="M215 550h288V410L315 0H115l189 400H35v260h172q2-28 4-52t4-58z"/><glyph glyph-name="finalmem:hb" unicode="ם" horiz-adv-x="650" d="M327 560q135 0 204-66.5T600 297V0H60v506q67 25 139 39.5T327 560zm-10-152q-18 0-36.5-3.5T245 394V145h170v157q0 53-24.5 79.5T317 408z"/><glyph glyph-name="mem:hb" unicode="מ" horiz-adv-x="653" d="M250 0H65v550h150q0-2 5.5-30t7.5-42q34 39 80.5 60.5T406 560q88 0 143.5-61.5T605 340V0H335v145h85v185q0 36-18.5 57T351 408q-26 0-54-13t-47-35V0z"/><glyph glyph-name="finalnun:hb" unicode="ן" horiz-adv-x="320" d="M65-150v700h190v-700H65z"/><glyph glyph-name="nun:hb" unicode="נ" horiz-adv-x="414" d="M364 0H35v150h139v186q0 37-17 56.5T109 412q-10 0-22-2t-26-7L25 533q29 13 61 20t62 7q106 0 161-58.5T364 330V0z"/><glyph glyph-name="samekh:hb" unicode="ס" horiz-adv-x="640" d="M605 275q0-135-73.5-210T325-10q-130 0-202.5 75T50 275v231q71 25 145 39.5T325 560q133 0 206.5-75T605 275zm-190 0q0 61-27 97t-73 36q-21 0-40.5-4T235 392V275q0-64 23-98.5t67-34.5 67 33.5 23 99.5z"/><glyph glyph-name="ayin:hb" unicode="ע" horiz-adv-x="610" d="M575 550V399q0-209-94.5-304T179 0H35v150h101L35 550h195l76-385q42 22 60.5 74T385 389v161h190z"/><glyph glyph-name="finalpe:hb" unicode="ף" horiz-adv-x="605" d="M365-150v430q0 59-27 93.5T265 408q-12 0-24.5-2.5T215 399V269l-180-4v245q53 21 122 35.5T275 560q133 0 206.5-73.5T555 280v-430H365z"/><glyph glyph-name="pe:hb" unicode="פ" horiz-adv-x="610" d="m240 280-180-4v234q56 22 122 36t113 14q135 0 210-73.5T580 280q0-129-83.5-204.5T270 0H55v150h185q63 0 104 36.5t41 93.5q0 60-27 95t-73 35q-12 0-23-2t-22-6V280z"/><glyph glyph-name="finaltsadi:hb" unicode="ץ" horiz-adv-x="556" d="M531 550v-85q0-100-38-169T376 184v-334H186v301q-65 70-108 161.5T10 530l180 30q26-93 48.5-155T290 282q27 23 39 58.5t12 94.5v115h190z"/><glyph glyph-name="tsadi:hb" unicode="צ" horiz-adv-x="566" d="M362 254q32-31 71-59t88-55L496 0H55v150l220-6q-110 64-170.5 162T25 550h190q11-58 28.5-106.5T286 352q37 21 53.5 52.5T356 485v65h175v-45q0-103-40.5-163T362 254z"/><glyph glyph-name="qof:hb" unicode="ק" horiz-adv-x="635" d="M585 550V410L505 0H320l78 400H60v150h525zM65-150v415l185 4v-419H65z"/><glyph glyph-name="resh:hb" unicode="ר" horiz-adv-x="515" d="M465 309V0H275v299q0 50-30 79.5T164 408q-27 0-59.5-3.5T35 394v147q39 9 83.5 14t80.5 5q130 0 198-64.5T465 309z"/><glyph glyph-name="shin:hb" unicode="ש" horiz-adv-x="804" d="M754 550V345q0-169-93-262T402-10 143 83 50 345v205h180V354q11-2 19.5-3t15.5-1q25 0 37.5 14.5T315 409v141h174V406q0-98-42-146t-128-48q-19 0-35 2t-32 6q20-38 58-58t92-20q84 0 128 47t44 136v225h180z"/><glyph glyph-name="tav:hb" unicode="ת" horiz-adv-x="710" d="M367 408q-7 0-15.5-.5T320 406V206q0-111-47-163.5T127-10q-24 0-43.5 2.5T45 0v141q13-2 20-2.5t27-.5q27 0 37.5 12.5T140 194v190q-28-5-53-10t-47-11v147q72 22 165.5 36T377 560q142 0 212.5-67.5T660 290V0H470v305q0 53-25 78t-78 25z"/><glyph glyph-name="shinwithshinDot:hb" unicode="שׁ" horiz-adv-x="804" d="M754 550V345q0-169-93-262T402-10 143 83 50 345v205h180V354q11-2 19.5-3t15.5-1q25 0 37.5 14.5T315 409v141h174V406q0-98-42-146t-128-48q-19 0-35 2t-32 6q20-38 58-58t92-20q84 0 128 47t44 136v225h180zm-90 55q-17 0-28.5 12T624 645q0 17 11.5 28.5T664 685t28.5-11.5T704 645q0-16-11.5-28T664 605z"/><glyph glyph-name="shinwithsinDot:hb" unicode="שׂ" horiz-adv-x="804" d="M754 550V345q0-169-93-262T402-10 143 83 50 345v205h180V354q11-2 19.5-3t15.5-1q25 0 37.5 14.5T315 409v141h174V406q0-98-42-146t-128-48q-19 0-35 2t-32 6q20-38 58-58t92-20q84 0 128 47t44 136v225h180zm-614 55q-17 0-28.5 12T100 645q0 17 11.5 28.5T140 685t28.5-11.5T180 645q0-16-11.5-28T140 605z"/><glyph glyph-name="shinwithdageshandshinDot:hb" unicode="שּׁ" horiz-adv-x="804" d="M754 550V345q0-169-93-262T402-10 143 83 50 345v205h180V354q11-2 19.5-3t15.5-1q25 0 37.5 14.5T315 409v141h174V406q0-98-42-146t-128-48q-19 0-35 2t-32 6q20-38 58-58t92-20q84 0 128 47t44 136v225h180zm-90 55q-17 0-28.5 12T624 645q0 17 11.5 28.5T664 685t28.5-11.5T704 645q0-16-11.5-28T664 605zM495 193q-17 0-28.5 12T455 233q0 17 11.5 28.5T495 273t28.5-11.5T535 233q0-16-11.5-28T495 193z"/><glyph glyph-name="shinwithdageshandsinDot:hb" unicode="שּׂ" horiz-adv-x="804" d="M754 550V345q0-169-93-262T402-10 143 83 50 345v205h180V354q11-2 19.5-3t15.5-1q25 0 37.5 14.5T315 409v141h174V406q0-98-42-146t-128-48q-19 0-35 2t-32 6q20-38 58-58t92-20q84 0 128 47t44 136v225h180zm-614 55q-17 0-28.5 12T100 645q0 17 11.5 28.5T140 685t28.5-11.5T180 645q0-16-11.5-28T140 605zm355-412q-17 0-28.5 12T455 233q0 17 11.5 28.5T495 273t28.5-11.5T535 233q0-16-11.5-28T495 193z"/><glyph glyph-name="alefwithpatah:hb" unicode="אַ" horiz-adv-x="642" d="M637 0H423L237 270q-9-16-13-39.5t-4-57.5V0H40v144q0 82 26 137.5t81 91.5L25 550h215l137-199q16 17 23 43t7 71v85h180v-66q0-87-29-144t-90-92zM437-123H257v56h180v-56z"/><glyph glyph-name="alefwithqamats:hb" unicode="אָ" horiz-adv-x="642" d="M637 0H423L237 270q-9-16-13-39.5t-4-57.5V0H40v144q0 82 26 137.5t81 91.5L25 550h215l137-199q16 17 23 43t7 71v85h180v-66q0-87-29-144t-90-92zM317-123h-60v56h180v-56h-60v-67h-60v67z"/><glyph glyph-name="alefwithmapiq:hb" unicode="אּ" horiz-adv-x="642" d="M637 0H423L237 270q-9-16-13-39.5t-4-57.5V0H40v144q0 82 26 137.5t81 91.5L25 550h215l137-199q16 17 23 43t7 71v85h180v-66q0-87-29-144t-90-92zM285 44q-17 0-28.5 11.5T245 84q0 16 11.5 28t28.5 12 28.5-12T325 84q0-17-11.5-28.5T285 44z"/><glyph glyph-name="betwithdagesh:hb" unicode="בּ" horiz-adv-x="595" d="M224 560q130 0 198-64.5T490 309V150h80V0H50v150h250v149q0 50-30 79.5T189 408q-27 0-59.5-3.5T60 394v147q39 9 83.5 14t80.5 5zm-69-325q-17 0-28.5 12T115 275q0 17 11.5 28.5T155 315t28.5-11.5T195 275q0-16-11.5-28T155 235z"/><glyph glyph-name="gimelwithdagesh:hb" unicode="גּ" horiz-adv-x="451" d="M80-10q-17 0-33 2.5T21 0v145h20q50 0 85 21t65 68v102q0 37-17 56.5T126 412q-15 0-32-3.5T56 398L20 528q33 16 70.5 24t74.5 8q106 0 161-58.5T381 330V225L426 0H261l-24 108q-26-57-67-87.5T80-10zm15 256q-17 0-28.5 12T55 286q0 17 11.5 28.5T95 326t28.5-11.5T135 286q0-16-11.5-28T95 246z"/><glyph glyph-name="daletwithdagesh:hb" unicode="דּ" horiz-adv-x="540" d="M515 550V400h-80V0H245v400H15v150h500zM136 205q-17 0-28.5 12T96 245q0 17 11.5 28.5T136 285t28.5-11.5T176 245q0-16-11.5-28T136 205z"/><glyph glyph-name="hewithmapiq:hb" unicode="הּ" horiz-adv-x="625" d="M267 560q155 0 231.5-70T575 277V0H385v277q0 65-34.5 98T247 408q-41 0-91.5-8T55 378v149q60 16 114 24.5t98 8.5zM60 0v269l180 5V0H60zm250 160q-17 0-28.5 12T270 200q0 17 11.5 28.5T310 240t28.5-11.5T350 200q0-16-11.5-28T310 160z"/><glyph glyph-name="vavwithdagesh:hb" unicode="וּ" horiz-adv-x="320" d="M65 0v550h190V0H65zM0 235q-17 0-28.5 12T-40 275q0 17 11.5 28.5T0 315t28.5-11.5T40 275q0-16-11.5-28T0 235z"/><glyph glyph-name="zayinwithdagesh:hb" unicode="זּ" horiz-adv-x="386" d="M263 220q0-50 11-104T309 0H118Q95 56 83.5 108.5T72 210q0 45 11 91.5t34 98.5H20v150h341V400h-72q-13-44-19.5-88t-6.5-92zM0 170q-17 0-28.5 12T-40 210q0 17 11.5 28.5T0 250t28.5-11.5T40 210q0-16-11.5-28T0 170z"/><glyph glyph-name="tetwithdagesh:hb" unicode="טּ" horiz-adv-x="650" d="M376 560q112 0 175.5-73T615 285q0-140-75-217.5T330-10q-133 0-206.5 75T50 275v275h190V275q0-65 23-99t67-34q45 0 67.5 36T420 285q0 55-23 91t-58 36q-10 0-21.5-1.5T295 407v143q16 4 38.5 7t42.5 3zm-46-325q-17 0-28.5 12T290 275q0 17 11.5 28.5T330 315t28.5-11.5T370 275q0-16-11.5-28T330 235z"/><glyph glyph-name="yodwithdagesh:hb" unicode="יּ" horiz-adv-x="275" d="M45 215v335h185V219zm-73 125q-17 0-28.5 12T-68 380q0 17 11.5 28.5T-28 420 .5 408.5 12 380q0-16-11.5-28T-28 340z"/><glyph glyph-name="yodwithhiriq:hb" unicode="יִ" horiz-adv-x="275" d="M45 215v335h185V219zm93-110q-17 0-28.5 11.5T98 145q0 16 11.5 28t28.5 12 28.5-12 11.5-28q0-17-11.5-28.5T138 105z"/><glyph glyph-name="finalkafwithdagesh:hb" unicode="ךּ" horiz-adv-x="515" d="M199 560q130 0 198-64.5T465 309v-459H275v449q0 50-30 79.5T164 408q-27 0-59.5-3.5T35 394v147q39 9 83.5 14t80.5 5zm-59-385q-17 0-28.5 12T100 215q0 17 11.5 28.5T140 255t28.5-11.5T180 215q0-16-11.5-28T140 175z"/><glyph glyph-name="kafwithdagesh:hb" unicode="כּ" horiz-adv-x="530" d="M200 560q140 0 220-76t80-209-80-209-220-76q-37 0-81 5.5T40 11v153q38-9 68.5-13t66.5-4q62 0 96 33.5t34 94.5-34 94.5-96 33.5q-36 0-66.5-4T40 386v153q35 10 79 15.5t81 5.5zm-35-325q-17 0-28.5 12T125 275q0 17 11.5 28.5T165 315t28.5-11.5T205 275q0-16-11.5-28T165 235z"/><glyph glyph-name="lamedwithdagesh:hb" unicode="לּ" horiz-adv-x="538" d="M215 550h288V410L315 0H115l189 400H35v260h172q2-28 4-52t4-58zm-90-302q-17 0-28.5 12T85 288q0 17 11.5 28.5T125 328t28.5-11.5T165 288q0-16-11.5-28T125 248z"/><glyph glyph-name="memwithdagesh:hb" unicode="מּ" horiz-adv-x="653" d="M250 0H65v550h150q0-2 5.5-30t7.5-42q34 39 80.5 60.5T406 560q88 0 143.5-61.5T605 340V0H335v145h85v185q0 36-18.5 57T351 408q-26 0-54-13t-47-35V0zm85 220q-17 0-28.5 12T295 260q0 17 11.5 28.5T335 300t28.5-11.5T375 260q0-16-11.5-28T335 220z"/><glyph glyph-name="nunwithdagesh:hb" unicode="נּ" horiz-adv-x="414" d="M364 0H35v150h139v186q0 37-17 56.5T109 412q-10 0-22-2t-26-7L25 533q29 13 61 20t62 7q106 0 161-58.5T364 330V0zM80 240q-17 0-28.5 12T40 280q0 17 11.5 28.5T80 320t28.5-11.5T120 280q0-16-11.5-28T80 240z"/><glyph glyph-name="samekhwithdagesh:hb" unicode="סּ" horiz-adv-x="640" d="M605 275q0-135-73.5-210T325-10q-130 0-202.5 75T50 275v231q71 25 145 39.5T325 560q133 0 206.5-75T605 275zm-190 0q0 61-27 97t-73 36q-21 0-40.5-4T235 392V275q0-64 23-98.5t67-34.5 67 33.5 23 99.5zm-90-40q-17 0-28.5 12T285 275q0 17 11.5 28.5T325 315t28.5-11.5T365 275q0-16-11.5-28T325 235z"/><glyph glyph-name="finalpewithdagesh:hb" unicode="ףּ" horiz-adv-x="605" d="M365-150v430q0 59-27 93.5T265 408q-12 0-24.5-2.5T215 399V269l-180-4v245q53 21 122 35.5T275 560q133 0 206.5-73.5T555 280v-430H365zm-80 433q-17 0-28.5 12T245 323q0 17 11.5 28.5T285 363t28.5-11.5T325 323q0-16-11.5-28T285 283z"/><glyph glyph-name="pewithdagesh:hb" unicode="פּ" horiz-adv-x="610" d="m240 280-180-4v234q56 22 122 36t113 14q135 0 210-73.5T580 280q0-129-83.5-204.5T270 0H55v150h185q63 0 104 36.5t41 93.5q0 60-27 95t-73 35q-12 0-23-2t-22-6V280zm69-14q-17 0-28.5 12T269 306q0 17 11.5 28.5T309 346t28.5-11.5T349 306q0-16-11.5-28T309 266z"/><glyph glyph-name="tsadiwithdagesh:hb" unicode="צּ" horiz-adv-x="566" d="M362 254q32-31 71-59t88-55L496 0H55v150l220-6q-110 64-170.5 162T25 550h190q11-58 28.5-106.5T286 352q37 21 53.5 52.5T356 485v65h175v-45q0-103-40.5-163T362 254zM75 178q-17 0-28.5 12T35 218q0 17 11.5 28.5T75 258t28.5-11.5T115 218q0-16-11.5-28T75 178z"/><glyph glyph-name="qofwithdagesh:hb" unicode="קּ" horiz-adv-x="635" d="M585 550V410L505 0H320l78 400H60v150h525zM65-150v415l185 4v-419H65zm240 349q-17 0-28.5 12T265 239q0 17 11.5 28.5T305 279t28.5-11.5T345 239q0-16-11.5-28T305 199z"/><glyph glyph-name="reshwithdagesh:hb" unicode="רּ" horiz-adv-x="515" d="M465 309V0H275v299q0 50-30 79.5T164 408q-27 0-59.5-3.5T35 394v147q39 9 83.5 14t80.5 5q130 0 198-64.5T465 309zM140 175q-17 0-28.5 12T100 215q0 17 11.5 28.5T140 255t28.5-11.5T180 215q0-16-11.5-28T140 175z"/><glyph glyph-name="shinwithdagesh:hb" unicode="שּ" horiz-adv-x="804" d="M754 550V345q0-169-93-262T402-10 143 83 50 345v205h180V354q11-2 19.5-3t15.5-1q25 0 37.5 14.5T315 409v141h174V406q0-98-42-146t-128-48q-19 0-35 2t-32 6q20-38 58-58t92-20q84 0 128 47t44 136v225h180zM495 193q-17 0-28.5 12T455 233q0 17 11.5 28.5T495 273t28.5-11.5T535 233q0-16-11.5-28T495 193z"/><glyph glyph-name="tavwithdagesh:hb" unicode="תּ" horiz-adv-x="710" d="M367 408q-7 0-15.5-.5T320 406V206q0-111-47-163.5T127-10q-24 0-43.5 2.5T45 0v141q13-2 20-2.5t27-.5q27 0 37.5 12.5T140 194v190q-28-5-53-10t-47-11v147q72 22 165.5 36T377 560q142 0 212.5-67.5T660 290V0H470v305q0 53-25 78t-78 25zm28-203q-17 0-28.5 12T355 245q0 17 11.5 28.5T395 285t28.5-11.5T435 245q0-16-11.5-28T395 205z"/><glyph glyph-name="vavwithholam:hb" unicode="וֹ" horiz-adv-x="320" d="M65 0v550h190V0H65zm95 605q-17 0-28.5 12T120 645q0 17 11.5 28.5T160 685t28.5-11.5T200 645q0-16-11.5-28T160 605z"/><glyph glyph-name="yod_yod:hb" unicode="ײ" horiz-adv-x="545" d="M45 215v335h185V219zm270 0v335h185V219z"/><glyph glyph-name="yod_yod_patah:hb" unicode="ײַ" horiz-adv-x="545" d="M45 215v335h185V219zm270 0v335h185V219zm54-111H189v56h180v-56z"/><glyph glyph-name="vav_yod:hb" unicode="ױ" horiz-adv-x="570" d="M45 215v335h185V219zM315 0v550h190V0H315z"/><glyph glyph-name="vav_vav:hb" unicode="װ" horiz-adv-x="595" d="M65 0v550h190V0H65zm275 0v550h190V0H340z"/><glyph glyph-name="geresh:hb" unicode="׳" horiz-adv-x="243" d="m233 550-86-270H22l31 270h180z"/><glyph glyph-name="gershayim:hb" unicode="״" horiz-adv-x="480" d="m233 550-86-270H22l31 270h180zm237 0-86-270H259l31 270h180z"/><glyph glyph-name="maqaf:hb" unicode="־" horiz-adv-x="450" d="M315 217H135v56h180v-56z"/><glyph glyph-name="sheva:hb" unicode="ְ" d="M0-135q-17 0-28.5 11.5T-40-95q0 16 11.5 28T0-55t28.5-12T40-95q0-17-11.5-28.5T0-135zm0-110q-17 0-28.5 11.5T-40-205q0 16 11.5 28T0-165t28.5-12T40-205q0-17-11.5-28.5T0-245z"/><glyph glyph-name="hatafSegol:hb" unicode="ֱ" d="M-120-135q-17 0-28.5 11.5T-160-95q0 16 11.5 28t28.5 12q16 0 28-12t12-28q0-17-12-28.5t-28-11.5zm120 0q-17 0-28.5 11.5T-40-95q0 16 11.5 28T0-55t28.5-12T40-95q0-17-11.5-28.5T0-135zm120 0q-16 0-28 11.5T80-95q0 16 12 28t28 12q17 0 28.5-12T160-95q0-17-11.5-28.5T120-135zM-60-235q-17 0-28.5 11.5T-100-195q0 16 11.5 28t28.5 12q16 0 28-12t12-28q0-17-12-28.5T-60-235zm180-10q-16 0-28 11.5T80-205q0 16 12 28t28 12q17 0 28.5-12t11.5-28q0-17-11.5-28.5T120-245z"/><glyph glyph-name="hatafPatah:hb" unicode="ֲ" d="M120-135q-16 0-28 11.5T80-95q0 16 12 28t28 12q17 0 28.5-12T160-95q0-17-11.5-28.5T120-135zm-80 12h-180v56H40v-56zm80-122q-16 0-28 11.5T80-205q0 16 12 28t28 12q17 0 28.5-12t11.5-28q0-17-11.5-28.5T120-245z"/><glyph glyph-name="hatafQamats:hb" unicode="ֳ" d="M120-135q-16 0-28 11.5T80-95q0 16 12 28t28 12q17 0 28.5-12T160-95q0-17-11.5-28.5T120-135zm-200 12h-60v56H40v-56h-60v-67h-60v67zm200-122q-16 0-28 11.5T80-205q0 16 12 28t28 12q17 0 28.5-12t11.5-28q0-17-11.5-28.5T120-245z"/><glyph glyph-name="hiriq:hb" unicode="ִ" d="M0-135q-17 0-28.5 11.5T-40-95q0 16 11.5 28T0-55t28.5-12T40-95q0-17-11.5-28.5T0-135z"/><glyph glyph-name="tsere:hb" unicode="ֵ" d="M-60-135q-17 0-28.5 11.5T-100-95q0 16 11.5 28T-60-55q16 0 28-12t12-28q0-17-12-28.5T-60-135zm120 0q-16 0-28 11.5T20-95q0 16 12 28t28 12q17 0 28.5-12T100-95q0-17-11.5-28.5T60-135z"/><glyph glyph-name="segol:hb" unicode="ֶ" d="M-60-135q-17 0-28.5 11.5T-100-95q0 16 11.5 28T-60-55q16 0 28-12t12-28q0-17-12-28.5T-60-135zm120 0q-16 0-28 11.5T20-95q0 16 12 28t28 12q17 0 28.5-12T100-95q0-17-11.5-28.5T60-135zM0-235q-17 0-28.5 11.5T-40-195q0 16 11.5 28T0-155t28.5-12T40-195q0-17-11.5-28.5T0-235z"/><glyph glyph-name="patah:hb" unicode="ַ" d="M90-123H-90v56H90v-56z"/><glyph glyph-name="qamats:hb" unicode="ָ" d="M-30-123h-60v56H90v-56H30v-67h-60v67z"/><glyph glyph-name="holam:hb" unicode="ֹ" d="M0 605q-17 0-28.5 12T-40 645q0 17 11.5 28.5T0 685t28.5-11.5T40 645q0-16-11.5-28T0 605z"/><glyph glyph-name="holamHaser:hb" unicode="ֺ" d="M0 605q-17 0-28.5 12T-40 645q0 17 11.5 28.5T0 685t28.5-11.5T40 645q0-16-11.5-28T0 605z"/><glyph glyph-name="qubuts:hb" unicode="ֻ" d="M-75-135q-17 0-28.5 11.5T-115-95q0 16 11.5 28T-75-55q16 0 28-12t12-28q0-17-12-28.5T-75-135zm75-85q-17 0-28.5 11.5T-40-180q0 16 11.5 28T0-140t28.5-12T40-180q0-17-11.5-28.5T0-220zm75-85q-16 0-28 11.5T35-265q0 16 12 28t28 12q17 0 28.5-12t11.5-28q0-17-11.5-28.5T75-305z"/><glyph glyph-name="dagesh:hb" unicode="ּ" d="M0 205q-17 0-28.5 12T-40 245q0 17 11.5 28.5T0 285t28.5-11.5T40 245q0-16-11.5-28T0 205z"/><glyph glyph-name="shinDot:hb" unicode="ׁ" d="M0 605q-17 0-28.5 12T-40 645q0 17 11.5 28.5T0 685t28.5-11.5T40 645q0-16-11.5-28T0 605z"/><glyph glyph-name="sinDot:hb" unicode="ׂ" d="M0 605q-17 0-28.5 12T-40 645q0 17 11.5 28.5T0 685t28.5-11.5T40 645q0-16-11.5-28T0 605z"/><glyph glyph-name="qamatsQatan:hb" unicode="ׇ" d="M-30-123h-60v56H90v-56H30v-67h-60v67z"/><glyph glyph-name="alefWavyHamzehAbove" unicode="ٲ" horiz-adv-x="285" d="M220 705V0H65v705h155zm58 96-142-21q-36-5-74-1t-95 21q-22 7-30.5 9t-14.5 2q-9 0-20-2t-36-10l10 86q18 9 34 13.5t32 4.5q12 0 27-3.5T14 884q20-8 30-11t19-5q-9 17-14 36t-5 38q0 52 31 83t82 31q26 0 50.5-7t47.5-21l-21-73q-32 9-59.5 11t-43.5-5q2-34 18-57.5t39-23.5q8 0 47.5 6.5T278 893v-92z"/><glyph glyph-name="dotlessBeh" unicode="ٮ" horiz-adv-x="845" d="M407 180q62 0 125.5 7.5T633 208q-4 34-15 72t-28 81l158 57q27-77 31.5-168.5T765 62Q688 29 578.5 9.5T359-10q-163 0-246 59T30 224q0 47 16.5 95T94 410l110-55q-11-28-15-45t-4-34q0-53 50.5-74.5T407 180z"/><glyph glyph-name="dotlessFeh.medi" horiz-adv-x="573" d="M7 0H0q-9 0-15 27t-6 67q0 41 6 68.5T0 190h16q26 0 49.5 1t45.5 2q-21 31-31.5 63.5T69 323q0 83 61.5 135T294 510t163.5-52T519 323q0-32-13.5-65.5T466 193q21-1 44.5-2t48.5-1h14V0h-8q-76 0-148.5 15T281 58q-63-28-133-43T7 0zm287 343q-37 0-56-12t-19-35 18-41.5 54-31.5q39 14 58.5 32.5T369 296q0 23-19 35t-56 12z"/><glyph glyph-name="dotlessFeh.init" horiz-adv-x="585" d="M115 0H0q-9 0-15 27t-6 67q0 41 6 68.5T0 190h115q119 0 180.5 19t75.5 60q-31-10-67-15.5t-74-5.5q-90 0-137 41T46 408q0 97 62.5 172T256 655q51 0 101-30.5t88-83.5q33-46 50.5-101.5T513 325q0-172-94-248.5T115 0zm127 484q-22 0-35.5-15.5T193 430q0-22 15.5-31t51.5-9q25 0 50.5 2.5T360 399q-17 41-47.5 63T242 484z"/><glyph glyph-name="hehHamzehAbove" unicode="ۂ" horiz-adv-x="545" d="M45 200q0 92 54.5 173T259 518q120-40 180.5-115T500 221q0-102-65-166.5T267-10q-101 0-161.5 57.5T45 200zm219 129q-31-23-48-48.5T199 232q0-24 19-38t53-14 54.5 15.5T346 236q0 26-20.5 49T264 329zm134 361v-92l-270-40v92l59 8q-11 18-17 38.5t-6 42.5q0 52 31 83t82 31q26 0 50.5-7t47.5-21l-21-73q-32 9-59.5 11t-43.5-5q2-34 18-57.5t39-23.5q8 0 47.5 6.5T398 690z"/><glyph glyph-name="hehTehUrdu" unicode="ۃ" horiz-adv-x="545" d="M45 200q0 92 54.5 173T259 518q120-40 180.5-115T500 221q0-102-65-166.5T267-10q-101 0-161.5 57.5T45 200zm219 129q-31-23-48-48.5T199 232q0-24 19-38t53-14 54.5 15.5T346 236q0 26-20.5 49T264 329zm-1 318-73-72-83 82 83 83 73-73 73 73 83-83-83-82z"/><glyph glyph-name="hamze" unicode="ء" horiz-adv-x="612" d="m494 222 46-125L129-45 86 85l109 37q-28 34-44.5 77T134 281q0 72 44 116t117 44q34 0 68-10t66-30l-29-104q-18 8-45 12t-52 4q-14 0-26.5-1.5T256 307q4-50 34-89t66-39q15 0 50.5 11t87.5 32z"/><glyph glyph-name="ah" unicode="آ" horiz-adv-x="285" d="M220 705V0H65v705h155zm-63 181q22-8 32-10.5t18-2.5q16 0 30.5 2.5T273 885l-10-90q-18-9-34-13.5t-32-4.5q-12 0-26 3.5T130 794q-21 8-31 10.5T82 807q-16 0-30.5-2.5T16 795l10 90q18 9 34 13.5t32 4.5q12 0 25.5-3t39.5-14z"/><glyph glyph-name="alefHamzeAbove" unicode="أ" horiz-adv-x="285" d="M220 705V0H65v705h155zm58 188v-92L8 761v92l59 8q-11 18-17 38.5T44 942q0 52 31 83t82 31q26 0 50.5-7t47.5-21l-21-73q-32 9-59.5 11t-43.5-5q2-34 18-57.5t39-23.5q8 0 47.5 6.5T278 893z"/><glyph glyph-name="alefHamzeBelow" unicode="إ" horiz-adv-x="285" d="M220 705V0H65v705h155zm62-913v-92L12-340v92l59 8q-11 18-17 38.5T48-159q0 52 31 83t82 31q26 0 50.5-7T259-73l-21-73q-32 9-59.5 11t-43.5-5q2-34 18-57.5t39-23.5q8 0 47.5 6.5T282-208z"/><glyph glyph-name="alefWasleh" unicode="ٱ" horiz-adv-x="285" d="M220 705V0H65v705h155zm-26 307q48 0 76-58t13-140q-23-18-47-27.5t-48-9.5q-13 0-27.5 3.5T121 795q-18 8-25.5 10T82 807q-16 0-30.5-2.5T16 795l10 90q16 8 30.5 12.5T84 903q16 50 45.5 79.5T194 1012zm21-123q0 14-9 26.5T186 928t-20.5-10-19.5-31q20-9 27.5-11.5T187 873q14 0 21 4t7 12z"/><glyph glyph-name="alef" unicode="ا" horiz-adv-x="285" d="M220 705V0H65v705h155z"/><glyph glyph-name="beh" unicode="ب" horiz-adv-x="845" d="M407 180q62 0 125.5 7.5T633 208q-4 34-15 72t-28 81l158 57q27-77 31.5-168.5T765 62Q688 29 578.5 9.5T359-10q-163 0-246 59T30 224q0 47 16.5 95T94 410l110-55q-11-28-15-45t-4-34q0-53 50.5-74.5T407 180zm89-339-83-82-83 82 83 83z"/><glyph glyph-name="peh" unicode="پ" horiz-adv-x="845" d="M407 180q62 0 125.5 7.5T633 208q-4 34-15 72t-28 81l158 57q27-77 31.5-168.5T765 62Q688 29 578.5 9.5T359-10q-163 0-246 59T30 224q0 47 16.5 95T94 410l110-55q-11-28-15-45t-4-34q0-53 50.5-74.5T407 180zm6-349-73-72-83 82 83 83 73-73 73 73 83-83-83-82zm83-140-83-82-83 82 83 83z"/><glyph glyph-name="teh" unicode="ت" horiz-adv-x="845" d="M407 180q62 0 125.5 7.5T633 208q-4 34-15 72t-28 81l158 57q27-77 31.5-168.5T765 62Q688 29 578.5 9.5T359-10q-163 0-246 59T30 224q0 47 16.5 95T94 410l110-55q-11-28-15-45t-4-34q0-53 50.5-74.5T407 180zm6 357-73-72-83 82 83 83 73-73 73 73 83-83-83-82z"/><glyph glyph-name="tehTa" unicode="ٹ" horiz-adv-x="845" d="M407 180q62 0 125.5 7.5T633 208q-4 34-15 72t-28 81l158 57q27-77 31.5-168.5T765 62Q688 29 578.5 9.5T359-10q-163 0-246 59T30 224q0 47 16.5 95T94 410l110-55q-11-28-15-45t-4-34q0-53 50.5-74.5T407 180zm55 483q52 0 84.5-34.5T579 538q0-19-6-39.5T557 464q-34-8-82-12t-110-4q-33 0-68 5t-62 14l25 75q12-3 23.5-5.5T307 532q3 13 7.5 24.5T324 578v172h77V647q14 8 29 12t32 4zm37-127q0 22-13 35t-36 13-41-14-28-40q56 1 80 2.5t38 3.5z"/><glyph glyph-name="theh" unicode="ث" horiz-adv-x="845" d="M407 180q62 0 125.5 7.5T633 208q-4 34-15 72t-28 81l158 57q27-77 31.5-168.5T765 62Q688 29 578.5 9.5T359-10q-163 0-246 59T30 224q0 47 16.5 95T94 410l110-55q-11-28-15-45t-4-34q0-53 50.5-74.5T407 180zm89 518-83-82-83 82 83 83zm-83-161-73-72-83 82 83 83 73-73 73 73 83-83-83-82z"/><glyph glyph-name="jim" unicode="ج" horiz-adv-x="742" d="M408-293q-178 0-283 78T20-4q0 125 99 214.5T407 344q-34 4-60.5 6t-46.5 2q-60 0-120-12T59 304L13 466q66 26 129 38t131 12q91 0 215.5-33.5T722 396l-35-141q-236-2-370-63.5T183 30q0-67 52.5-100T395-103q66 0 126.5 5.5T650-79l-9-188q-62-14-118-20t-115-6zm75 336-83-82-83 82 83 83z"/><glyph glyph-name="cheh" unicode="چ" horiz-adv-x="742" d="M408-293q-178 0-283 78T20-4q0 125 99 214.5T407 344q-34 4-60.5 6t-46.5 2q-60 0-120-12T59 304L13 466q66 26 129 38t131 12q91 0 215.5-33.5T722 396l-35-141q-236-2-370-63.5T183 30q0-67 52.5-100T395-103q66 0 126.5 5.5T650-79l-9-188q-62-14-118-20t-115-6zm-8 379-62-61-71 70 71 71 62-62 62 62 71-71-71-70zm71-94-71-70-71 70 71 71z"/><glyph glyph-name="hah" unicode="ح" horiz-adv-x="742" d="M408-293q-178 0-283 78T20-4q0 125 99 214.5T407 344q-34 4-60.5 6t-46.5 2q-60 0-120-12T59 304L13 466q66 26 129 38t131 12q91 0 215.5-33.5T722 396l-35-141q-236-2-370-63.5T183 30q0-67 52.5-100T395-103q66 0 126.5 5.5T650-79l-9-188q-62-14-118-20t-115-6z"/><glyph glyph-name="kheh" unicode="خ" horiz-adv-x="742" d="M408-293q-178 0-283 78T20-4q0 125 99 214.5T407 344q-34 4-60.5 6t-46.5 2q-60 0-120-12T59 304L13 466q66 26 129 38t131 12q91 0 215.5-33.5T722 396l-35-141q-236-2-370-63.5T183 30q0-67 52.5-100T395-103q66 0 126.5 5.5T650-79l-9-188q-62-14-118-20t-115-6zm28 950-83-82-83 82 83 83z"/><glyph glyph-name="dal" unicode="د" horiz-adv-x="677" d="M601 79q-60-45-136-67T292-10q-78 0-151 12.5T19 36l69 174q49-15 96.5-22.5T279 180q60 0 98.5 5.5T446 204q-38 60-101 118t-130 93l96 165q140-72 223-210.5T601 79z"/><glyph glyph-name="zal" unicode="ذ" horiz-adv-x="677" d="M601 79q-60-45-136-67T292-10q-78 0-151 12.5T19 36l69 174q49-15 96.5-22.5T279 180q60 0 98.5 5.5T446 204q-38 60-101 118t-130 93l96 165q140-72 223-210.5T601 79zM394 744l-83-82-83 82 83 83z"/><glyph glyph-name="dalTa" unicode="ڈ" horiz-adv-x="677" d="M601 79q-60-45-136-67T292-10q-78 0-151 12.5T19 36l69 174q49-15 96.5-22.5T279 180q60 0 98.5 5.5T446 204q-38 60-101 118t-130 93l96 165q140-72 223-210.5T601 79zM360 860q52 0 84.5-34.5T477 735q0-19-6-39.5T455 661q-34-8-82-12t-110-4q-33 0-68 5t-62 14l25 75q12-3 23.5-5.5T205 729q3 13 7.5 24.5T222 775v172h77V844q14 8 29 12t32 4zm37-127q0 22-13 35t-36 13-41-14-28-40q56 1 80 2.5t38 3.5z"/><glyph glyph-name="reh" unicode="ر" horiz-adv-x="618" d="M560 102q0-75-23.5-144T468-166q-49-60-114-93.5T220-293q-52 0-92 7.5T47-259l36 140q24-5 42.5-7t35.5-2q71 0 140.5 47T423 47q-8 42-38.5 120T314 328l162 71q41-93 62.5-168.5T560 102z"/><glyph glyph-name="zeh" unicode="ز" horiz-adv-x="618" d="M560 102q0-75-23.5-144T468-166q-49-60-114-93.5T220-293q-52 0-92 7.5T47-259l36 140q24-5 42.5-7t35.5-2q71 0 140.5 47T423 47q-8 42-38.5 120T314 328l162 71q41-93 62.5-168.5T560 102zM414 554l-83-82-83 82 83 83z"/><glyph glyph-name="zheh" unicode="ژ" horiz-adv-x="618" d="M560 102q0-75-23.5-144T468-166q-49-60-114-93.5T220-293q-52 0-92 7.5T47-259l36 140q24-5 42.5-7t35.5-2q71 0 140.5 47T423 47q-8 42-38.5 120T314 328l162 71q41-93 62.5-168.5T560 102zM414 705l-83-82-83 82 83 83zm-83-161-73-72-83 82 83 83 73-73 73 73 83-83-83-82z"/><glyph glyph-name="rehTa" unicode="ڑ" horiz-adv-x="618" d="M560 102q0-75-23.5-144T468-166q-49-60-114-93.5T220-293q-52 0-92 7.5T47-259l36 140q24-5 42.5-7t35.5-2q71 0 140.5 47T423 47q-8 42-38.5 120T314 328l162 71q41-93 62.5-168.5T560 102zM380 670q52 0 84.5-34.5T497 545q0-19-6-39.5T475 471q-34-8-82-12t-110-4q-33 0-68 5t-62 14l25 75q12-3 23.5-5.5T225 539q3 13 7.5 24.5T242 585v172h77V654q14 8 29 12t32 4zm37-127q0 22-13 35t-36 13-41-14-28-40q56 1 80 2.5t38 3.5z"/><glyph glyph-name="sin" unicode="س" horiz-adv-x="1437" d="M694 13q3-41 3-84t-3-86q-66-51-155-81t-180-30q-128 0-203 64T81-27q0 48 16 99t49 107l119-53q-14-31-20-55t-6-46q0-56 36.5-80.5T394-80q38 0 80.5 9T551-47q-1 62-20 156t-58 227l160 46 26-88q18-60 46.5-87t74.5-27q44 0 67.5 24.5T871 275v92h155v-91q0-46 21.5-71t61.5-25q25 0 46.5 7t47.5 25q-5 42-17 86t-30 87l158 57q30-86 35.5-183T1335 62q-45-36-90-54t-90-18q-59 0-101 26.5T988 95q-27-49-80.5-77T786-10q-29 0-52 6t-40 17z"/><glyph glyph-name="shin" unicode="ش" horiz-adv-x="1437" d="M694 13q3-41 3-84t-3-86q-66-51-155-81t-180-30q-128 0-203 64T81-27q0 48 16 99t49 107l119-53q-14-31-20-55t-6-46q0-56 36.5-80.5T394-80q38 0 80.5 9T551-47q-1 62-20 156t-58 227l160 46 26-88q18-60 46.5-87t74.5-27q44 0 67.5 24.5T871 275v92h155v-91q0-46 21.5-71t61.5-25q25 0 46.5 7t47.5 25q-5 42-17 86t-30 87l158 57q30-86 35.5-183T1335 62q-45-36-90-54t-90-18q-59 0-101 26.5T988 95q-27-49-80.5-77T786-10q-29 0-52 6t-40 17zm332 685-83-82-83 82 83 83zm-83-161-73-72-83 82 83 83 73-73 73 73 83-83-83-82z"/><glyph glyph-name="sad" unicode="ص" horiz-adv-x="1356" d="M677 202q38 144 128 222t217 78q116 0 195-82.5t79-210.5q0-42-13.5-89.5T1248 37q-52-19-145-28T868 0q-51 0-96.5 2T694 8q3-41 3-82.5t-3-82.5q-66-51-155-81t-180-30q-128 0-203 64T81-27q0 48 16 99t49 107l119-53q-14-31-20-55t-6-46q0-56 36.5-80.5T394-80q38 0 80.5 9T551-47q-1 62-20 156t-58 227l160 46q14-49 25-93t19-87zm456 3q0 55-37 88.5t-96 33.5q-65 0-113.5-35T812 191q12-1 26.5-1H884q111 0 165.5 3.5T1133 205z"/><glyph glyph-name="zad" unicode="ض" horiz-adv-x="1356" d="M677 202q38 144 128 222t217 78q116 0 195-82.5t79-210.5q0-42-13.5-89.5T1248 37q-52-19-145-28T868 0q-51 0-96.5 2T694 8q3-41 3-82.5t-3-82.5q-66-51-155-81t-180-30q-128 0-203 64T81-27q0 48 16 99t49 107l119-53q-14-31-20-55t-6-46q0-56 36.5-80.5T394-80q38 0 80.5 9T551-47q-1 62-20 156t-58 227l160 46q14-49 25-93t19-87zm456 3q0 55-37 88.5t-96 33.5q-65 0-113.5-35T812 191q12-1 26.5-1H884q111 0 165.5 3.5T1133 205zm-44 452-83-82-83 82 83 83z"/><glyph glyph-name="ta" unicode="ط" horiz-adv-x="868" d="M534 502q116 0 195-82.5T808 209q0-42-13.5-89.5T760 37Q696 18 583.5 9T288 0q-79 0-152 12T10 46l69 174q23-8 47.5-14t50.5-11q7 28 16.5 55.5T217 306v399h155V450q37 26 77.5 39t84.5 13zm111-297q0 55-37 88.5T512 327q-62 0-108-35t-71-102q108 1 186 4.5T645 205z"/><glyph glyph-name="za" unicode="ظ" horiz-adv-x="868" d="M534 502q116 0 195-82.5T808 209q0-42-13.5-89.5T760 37Q696 18 583.5 9T288 0q-79 0-152 12T10 46l69 174q23-8 47.5-14t50.5-11q7 28 16.5 55.5T217 306v399h155V450q37 26 77.5 39t84.5 13zm111-297q0 55-37 88.5T512 327q-62 0-108-35t-71-102q108 1 186 4.5T645 205zm64 452-83-82-83 82 83 83z"/><glyph glyph-name="eyn" unicode="ع" horiz-adv-x="712" d="M272 418q7-60 37-105t65-45q17 0 61.5 9T554 305l17-156-140-33Q301 85 250.5 58.5T200-12q0-45 53.5-68T413-103q64 0 123 5.5T662-79l-9-188q-50-12-110.5-19T426-293q-177 0-279 71.5T45-26q0 66 35 118t107 93q-36 41-55 92t-19 107q0 93 61 152.5T328 596q48 0 89-12t86-40l-38-138q-32 10-65.5 15.5T337 427q-19 0-35.5-2.5T272 418z"/><glyph glyph-name="gheyn" unicode="غ" horiz-adv-x="712" d="M272 418q7-60 37-105t65-45q17 0 61.5 9T554 305l17-156-140-33Q301 85 250.5 58.5T200-12q0-45 53.5-68T413-103q64 0 123 5.5T662-79l-9-188q-50-12-110.5-19T426-293q-177 0-279 71.5T45-26q0 66 35 118t107 93q-36 41-55 92t-19 107q0 93 61 152.5T328 596q48 0 89-12t86-40l-38-138q-32 10-65.5 15.5T337 427q-19 0-35.5-2.5T272 418zm147 333-83-82-83 82 83 83z"/><glyph glyph-name="feh" unicode="ف" horiz-adv-x="875" d="m656 787-83-82-83 82 83 83zm104-244q34-46 52-100.5T830 332q0-177-104.5-259.5T399-10q-178 0-273.5 68.5T30 252q0 45 16.5 90.5T94 430l110-55q-11-29-15-46.5t-4-34.5q0-61 54.5-87.5T417 180q118 0 182.5 21.5T684 268q-29-10-63.5-15t-73.5-5q-90 0-137 41t-47 119q0 97 62.5 172T573 655q49 0 99-30t88-82zm-197-59q-24 0-38.5-15T510 430q0-22 15.5-31t51.5-9q25 0 51 2.5t51 6.5q-15 40-46 62.5T563 484z"/><glyph glyph-name="ghaf" unicode="ق" horiz-adv-x="785" d="m487 537-73-72-83 82 83 83 73-73 73 73 83-83-83-82zm191-241q30-48 46-108t16-125q0-168-102.5-262T348-293q-147 0-232.5 71.5T30-31q0 52 17 104.5T94 168l110-55q-10-24-14.5-46.5T185 23q0-61 47.5-93.5T372-103q97 0 152 30t69 90Q564 2 530-5t-73-7q-88 0-136 49.5T273 178q0 97 62.5 172T483 425q54 0 106-34t89-95zm-203-38q-23 0-39-17t-16-41q0-22 15.5-31t51.5-9q23 0 48 2t51 6q-15 44-43 67t-68 23z"/><glyph glyph-name="kaf" unicode="ک" horiz-adv-x="870" d="M185 276q0-51 44.5-73.5T372 180q75 0 149 7.5t99 18.5q-6 17-27 48t-60 80l-46 57q-33 40-46.5 66T427 506q0 31 13.5 55t40.5 40q62 38 162.5 69.5T847 715l33-153q-72-13-136-31t-126-43q95-109 134-174t39-124q0-100-108-150T360-10q-157 0-243.5 61.5T30 224q0 47 16.5 95T94 410l110-55q-11-28-15-45t-4-34z"/><glyph glyph-name="gaf" unicode="گ" horiz-adv-x="927" d="m445 669-22 93q63 30 147 56t162 40l22-95q-75-13-161.5-39T445 669zM185 276q0-51 44.5-73.5T372 180q75 0 149 7.5t99 18.5q-6 17-27 48t-60 80l-46 57q-33 40-46.5 66T427 506q0 31 13.5 55t40.5 40q62 38 162.5 69.5T847 715l33-153q-76-15-139.5-33T618 488q95-109 134-174t39-124q0-100-108-150T360-10q-157 0-243.5 61.5T30 224q0 47 16.5 95T94 410l110-55q-11-28-15-45t-4-34z"/><glyph glyph-name="kafArabic" unicode="ك" horiz-adv-x="830" d="M738 62Q663 29 560.5 9.5T359-10q-163 0-246 59T30 224q0 47 16.5 95T94 410l110-55q-11-28-15-45t-4-34q0-53 50.5-74.5T407 180q49 0 101 4.5t90 11.5q6 27 9 63t3 81v365h155V340q0-71-7.5-146T738 62zM544 348q0-42-34-62.5T407 265q-34 0-61 2t-45 6l10 84q24-5 48.5-8t45.5-3q18 0 33.5 1.5T465 352q-8 6-23 15t-40 23q-42 23-59 43t-17 46q0 43 41.5 74T499 611l20-88q-39-9-67-19t-45-20l61-37q41-25 58.5-47.5T544 348z"/><glyph glyph-name="lam" unicode="ل" horiz-adv-x="705" d="M473-3q6 29 9 70t3 104v534h155V177q0-90-6.5-162T615-106q-44-44-127.5-73T323-208q-128 0-203 64.5T45 33q0 48 16 99t49 107l119-53q-14-31-20-55t-6-46q0-53 33.5-79T338-20q39 0 72.5 4.5T473-3z"/><glyph glyph-name="mim" unicode="م" horiz-adv-x="784" d="M190 9q0-48 14-117.5T239-239L79-284q-22 69-35.5 147T30-2q0 113 58.5 185T253 273q40 116 96 172.5T480 502q66 0 127-43.5T704 341q30-60 37.5-132.5T734 57q-40-31-96-49T525-10q-74 0-148 27.5T245 93q-28-5-41.5-25.5T190 9zm396 187q0 43-32.5 82T483 317q-29 0-52-21.5T381 220q39-26 75.5-38.5T528 169q31 0 44.5 6.5T586 196z"/><glyph glyph-name="noonGhuna" unicode="ں" horiz-adv-x="766" d="m475 399 162 48q50-120 59.5-294.5T661-119q-56-45-132-68t-171-23q-145 0-228 76T47 77q0 62 22 127.5T130 323l116-57q-20-38-31-76.5T204 118q0-71 41-104.5T374-20q51 0 97.5 9.5T551 15q0 81-20.5 183T475 399z"/><glyph glyph-name="noon" unicode="ن" horiz-adv-x="766" d="m475 399 162 48q50-120 59.5-294.5T661-119q-56-45-132-68t-171-23q-145 0-228 76T47 77q0 62 22 127.5T130 323l116-57q-20-38-31-76.5T204 118q0-71 41-104.5T374-20q51 0 97.5 9.5T551 15q0 81-20.5 183T475 399zm-18 188-83-82-83 82 83 83z"/><glyph glyph-name="vav" unicode="و" horiz-adv-x="615" d="M488 353q27-52 41-116t14-135q0-75-24-144t-70-124q-49-60-115-93.5T199-293q-49 0-91 8.5T30-259l36 140q16-4 36.5-6.5T139-128q72 0 135 37T386 16Q360 3 333.5-3.5T280-10q-100 0-157 61T66 220q0 110 67 196t158 86q56 0 108.5-39.5T488 353zm-203-38q-32 0-52-21t-20-53q0-35 17.5-49.5T290 177q27 0 53.5 2.5T395 187q-13 64-40 96t-70 32z"/><glyph glyph-name="vavHamzeAbove" unicode="ؤ" horiz-adv-x="615" d="M488 353q27-52 41-116t14-135q0-75-24-144t-70-124q-49-60-115-93.5T199-293q-49 0-91 8.5T30-259l36 140q16-4 36.5-6.5T139-128q72 0 135 37T386 16Q360 3 333.5-3.5T280-10q-100 0-157 61T66 220q0 110 67 196t158 86q56 0 108.5-39.5T488 353zm-203-38q-32 0-52-21t-20-53q0-35 17.5-49.5T290 177q27 0 53.5 2.5T395 187q-13 64-40 96t-70 32zm141 362v-92l-270-40v92l59 8q-11 18-17 38.5t-6 42.5q0 52 31 83t82 31q26 0 50.5-7t47.5-21l-21-73q-32 9-59.5 11t-43.5-5q2-34 18-57.5t39-23.5q8 0 47.5 6.5T426 677z"/><glyph glyph-name="heh" unicode="ه" horiz-adv-x="775" d="M291 49q-33-17-70-33t-78-30L67-40 10 124l60 22q6 2 13 4.5t20 7.5q14 5 20.5 7.5T135 170q-29 36-43.5 75.5T77 327q0 88 55.5 143T279 525q17 0 33-2.5t30-7.5l45 83q169-87 256-189t87-210q0-90-43.5-155T582-21q-71 0-147.5 18.5T291 49zm3 328q-36 0-54-13.5T222 322q0-22 16-45.5t46-47.5q49 23 68 42.5t19 48.5q0 27-20.5 42T294 377zm232-230q27 0 40 13.5t13 41.5q0 27-23 60t-68 72q1-8 2-17.5t1-18.5q0-37-14-72t-41-67q22-6 45-9t45-3z"/><glyph glyph-name="tehArabic" unicode="ة" horiz-adv-x="545" d="M45 200q0 92 54.5 173T259 518q120-40 180.5-115T500 221q0-102-65-166.5T267-10q-101 0-161.5 57.5T45 200zm219 129q-31-23-48-48.5T199 232q0-24 19-38t53-14 54.5 15.5T346 236q0 26-20.5 49T264 329zm-1 318-73-72-83 82 83 83 73-73 73 73 83-83-83-82z"/><glyph glyph-name="hehDocheshm" unicode="ھ" horiz-adv-x="775" d="M291 49q-33-17-70-33t-78-30L67-40 10 124l60 22q6 2 13 4.5t20 7.5q14 5 20.5 7.5T135 170q-29 36-43.5 75.5T77 327q0 88 55.5 143T279 525q17 0 33-2.5t30-7.5l45 83q169-87 256-189t87-210q0-90-43.5-155T582-21q-71 0-147.5 18.5T291 49zm3 328q-36 0-54-13.5T222 322q0-22 16-45.5t46-47.5q49 23 68 42.5t19 48.5q0 27-20.5 42T294 377zm232-230q27 0 40 13.5t13 41.5q0 27-23 60t-68 72q1-8 2-17.5t1-18.5q0-37-14-72t-41-67q22-6 45-9t45-3z"/><glyph glyph-name="hehUrdu" unicode="ہ" horiz-adv-x="545" d="M45 200q0 92 54.5 173T259 518q120-40 180.5-115T500 221q0-102-65-166.5T267-10q-101 0-161.5 57.5T45 200zm219 129q-31-23-48-48.5T199 232q0-24 19-38t53-14 54.5 15.5T346 236q0 26-20.5 49T264 329z"/><glyph glyph-name="yeh" unicode="ی" horiz-adv-x="795" d="M380-210q-139 0-219.5 74.5T80 64q0 47 16.5 95t47.5 91l110-55q-10-24-14.5-47t-4.5-44q0-60 37-92t108-32q62 0 129.5 18T598 38q-4 13-19.5 24.5T517 95q-51 24-76 40t-43 34q-24 26-36.5 57.5T349 297q0 92 63 155t163 63q64 0 119.5-34.5T777 393l-92-94q-39 38-68 53t-61 15q-27 0-42.5-12.5T498 322t19-37.5 83-47.5q100-47 133.5-86.5T767 59q0-54-38-108t-104-94q-53-32-116.5-49.5T380-210z"/><glyph glyph-name="yehArabic" unicode="ي" horiz-adv-x="795" d="M380-210q-139 0-219.5 74.5T80 64q0 47 16.5 95t47.5 91l110-55q-10-24-14.5-47t-4.5-44q0-60 37-92t108-32q62 0 129.5 18T598 38q-4 13-19.5 24.5T517 95q-51 24-76 40t-43 34q-24 26-36.5 57.5T349 297q0 92 63 155t163 63q64 0 119.5-34.5T777 393l-92-94q-39 38-68 53t-61 15q-27 0-42.5-12.5T498 322t19-37.5 83-47.5q100-47 133.5-86.5T767 59q0-54-38-108t-104-94q-53-32-116.5-49.5T380-210zm0-159-73-72-83 82 83 83 73-73 73 73 83-83-83-82z"/><glyph glyph-name="yehHamze" unicode="ئ" horiz-adv-x="795" d="M380-210q-139 0-219.5 74.5T80 64q0 47 16.5 95t47.5 91l110-55q-10-24-14.5-47t-4.5-44q0-60 37-92t108-32q62 0 129.5 18T598 38q-4 13-19.5 24.5T517 95q-51 24-76 40t-43 34q-24 26-36.5 57.5T349 297q0 92 63 155t163 63q64 0 119.5-34.5T777 393l-92-94q-39 38-68 53t-61 15q-27 0-42.5-12.5T498 322t19-37.5 83-47.5q100-47 133.5-86.5T767 59q0-54-38-108t-104-94q-53-32-116.5-49.5T380-210zm-69 637v-92L41 295v92l59 8q-11 18-17 38.5T77 476q0 52 31 83t82 31q26 0 50.5-7t47.5-21l-21-73q-32 9-59.5 11t-43.5-5q2-34 18-57.5t39-23.5q8 0 47.5 6.5T311 427z"/></font>
</defs>
</svg>
