<svg><defs><font id="TRYClother-Light" horiz-adv-x="0"><font-face font-family="TRY Clother Light" font-weight="300" panose-1="2 11 4 3 2 2 3 2 2 3" ascent="800" descent="-200" x-height="440" cap-height="685" bbox="-607 -433 1255 1119" underline-thickness="50" underline-position="-55" unicode-range="U+000D-FEFC"/><glyph glyph-name="fi" unicode="fi" horiz-adv-x="532" d="M131 563q0-19 6-43t21-66l5-14h279V0h-50v395H167V0h-50v395H23v40l90 5-5 14q-15 38-21 63.5T81 563q0 69 41 110.5T231 715q29 0 56.5-10.5T336 676l-30-33q-14 13-34.5 20t-40.5 7q-44 0-72-30t-28-77zm326 21q0-16-11.5-28T417 544q-16 0-28 12t-12 28q0 17 12 28.5t28 11.5q17 0 28.5-11.5T457 584z"/><glyph glyph-name="fl" unicode="fl" horiz-adv-x="532" d="M295 440v-45H167V0h-50v395H23v40l90 5-8 19q-12 28-18 53t-6 45q0 74 44 116t121 42q44 0 81.5-10.5T398 672l4 33h40V0h-50v618l1 7q-34 23-70.5 34T246 670q-53 0-84-30.5T131 557q0-20 6-45t18-53l8-19h132z"/><glyph glyph-name="lam.init_alef.fina" unicode="ﻟﺎ" horiz-adv-x="471" arabic-form="isolated" d="M371 705V198q0-102-56-155T151-10q-30 0-67 5.5T24 10v55q30-9 66.5-14.5T151 45h18l11 1q-8 137-61.5 255.5T-65 572l39 35q129-157 187-288t61-267q53 12 77 49t24 106v498h48z"/><glyph glyph-name="lam.medi_alef.fina" unicode="ﻠﺎ" horiz-adv-x="492" arabic-form="final" d="M345 95q-22-49-74-77T151-10q-30 0-67 5.5T24 10v55q30-9 66.5-14.5T151 45h18l11 1q-8 137-61.5 255.5T-65 572l39 35q129-157 187-288t61-267q53 12 77 50t24 110v493h48V166q0-60 25.5-85.5T484 55h8V0h-8q-58 0-92 23t-47 72z"/><glyph glyph-name="lam.init_ah.fina" unicode="ﻟﺂ" horiz-adv-x="471" arabic-form="isolated" d="M-39 717q18-7 27-9.5T4 705q11 0 21.5 2.5T52 717l-4-42q-14-7-24.5-10.5T1 661q-9 0-19 2.5T-47 674t-28 10.5-16 2.5-16-2-32-10l4 42q14 7 25.5 10.5T-88 731q9 0 19-2.5t30-11.5zm410-12V198q0-102-56-155T151-10q-30 0-67 5.5T24 10v55q30-9 66.5-14.5T151 45h18l11 1q-8 137-61.5 255.5T-65 572l39 35q129-157 187-288t61-267q53 12 77 49t24 106v498h48z"/><glyph glyph-name="lam.medi_ah.fina" unicode="ﻠﺂ" horiz-adv-x="492" arabic-form="final" d="M-39 717q18-7 27-9.5T4 705q11 0 21.5 2.5T52 717l-4-42q-14-7-24.5-10.5T1 661q-9 0-19 2.5T-47 674t-28 10.5-16 2.5-16-2-32-10l4 42q14 7 25.5 10.5T-88 731q9 0 19-2.5t30-11.5zM345 95q-22-49-74-77T151-10q-30 0-67 5.5T24 10v55q30-9 66.5-14.5T151 45h18l11 1q-8 137-61.5 255.5T-65 572l39 35q129-157 187-288t61-267q53 12 77 50t24 110v493h48V166q0-60 25.5-85.5T484 55h8V0h-8q-58 0-92 23t-47 72z"/><glyph glyph-name="lam.init_alefHamzeAbove.fina" unicode="ﻟﺄ" horiz-adv-x="471" arabic-form="isolated" d="M371 705V198q0-102-56-155T151-10q-30 0-67 5.5T24 10v55q30-9 66.5-14.5T151 45h18l11 1q-8 137-61.5 255.5T-65 572l39 35q129-157 187-288t61-267q53 12 77 49t24 106v498h48zM60 725v-38l-180-27v38l47 8q-10 14-14.5 29t-4.5 32q0 30 20.5 48.5T-18 834q19 0 35.5-6.5T43 809l-15-27q-11 5-25 8t-28 3q-9 0-18-1.5t-16-4.5q1-29 16-50t34-21q5 0 33 4t36 5z"/><glyph glyph-name="lam.medi_alefHamzeAbove.fina" unicode="ﻠﺄ" horiz-adv-x="492" arabic-form="final" d="M345 95q-22-49-74-77T151-10q-30 0-67 5.5T24 10v55q30-9 66.5-14.5T151 45h18l11 1q-8 137-61.5 255.5T-65 572l39 35q129-157 187-288t61-267q53 12 77 50t24 110v493h48V166q0-60 25.5-85.5T484 55h8V0h-8q-58 0-92 23t-47 72zM60 725v-38l-180-27v38l47 8q-10 14-14.5 29t-4.5 32q0 30 20.5 48.5T-18 834q19 0 35.5-6.5T43 809l-15-27q-11 5-25 8t-28 3q-9 0-18-1.5t-16-4.5q1-29 16-50t34-21q5 0 33 4t36 5z"/><glyph glyph-name="lam.init_alefHamzeBelow.fina" unicode="ﻟﺈ" horiz-adv-x="471" arabic-form="isolated" d="M371 705V198q0-102-56-155T151-10q-30 0-67 5.5T24 10v55q30-9 66.5-14.5T151 45h18l11 1q-8 137-61.5 255.5T-65 572l39 35q129-157 187-288t61-267q53 12 77 49t24 106v498h48zM241-156v-38L61-221v38l47 8q-10 14-14.5 29T89-114q0 30 20.5 48.5T163-47q19 0 35.5-6.5T224-72l-15-27q-18 9-44.5 10.5T122-94q1-29 16-50t34-21q5 0 33 4t36 5z"/><glyph glyph-name="lam.medi_alefHamzeBelow.fina" unicode="ﻠﺈ" horiz-adv-x="492" arabic-form="final" d="M345 95q-22-49-74-77T151-10q-30 0-67 5.5T24 10v55q30-9 66.5-14.5T151 45h18l11 1q-8 137-61.5 255.5T-65 572l39 35q129-157 187-288t61-267q53 12 77 50t24 110v493h48V166q0-60 25.5-85.5T484 55h8V0h-8q-58 0-92 23t-47 72zM241-156v-38L61-221v38l47 8q-10 14-14.5 29T89-114q0 30 20.5 48.5T163-47q19 0 35.5-6.5T224-72l-15-27q-18 9-44.5 10.5T122-94q1-29 16-50t34-21q5 0 33 4t36 5z"/><glyph glyph-name="allah" unicode="ﺍﻟﻠﻪ" horiz-adv-x="1337" arabic-form="isolated" d="M621 764v147h38V764h-38zm89-47 37 14q11-30 12.5-61t-5.5-61q-14-9-28.5-13.5T698 591q-19 0-33 4.5T642 609q-18-10-32-14t-27-4q-32 0-47.5 18T520 664v63h36v-66q0-18 6.5-25t24.5-7q10 0 19.5 3t18.5 9q-3 8-4 18.5t-1 25.5v34h36v-37q0-27 9.5-38.5T696 632q7 0 14.5 2t16.5 5q-2 21-6.5 41T710 717zm545-12V0h-48v705h48zM336 94q-23-15-54.5-23T218 63q-68 0-108.5 35.5T69 194q0 76 67 129t196 77v40h48V147q0-50 21.5-71T474 55q49 0 86 14.5t60 43.5v432h48V162q0-55 28-81t88-26q72 0 108 28t36 84v478h48V171q0-85-49-128T783 0q-51 0-87.5 19T644 73q-30-34-75-53.5T474 0q-60 0-94 23.5T336 94zM115 196q0-38 26.5-58t76.5-20q32 0 61 6.5t53 18.5v199q-105-13-161-52t-56-94z"/><glyph glyph-name="alef.isol" unicode="ا" horiz-adv-x="248" arabic-form="isolated" d="M148 705V0h-48v705h48z"/><glyph glyph-name="alef.fina" unicode="ا" horiz-adv-x="269" arabic-form="final" d="M262 55h7V0h-7q-79 0-120.5 38.5T100 151v554h48V147q0-45 29-68.5T262 55z"/><glyph glyph-name="ah.isol" unicode="آ" horiz-adv-x="248" arabic-form="isolated" d="M148 705V0h-48v705h48zm-20 128q18-7 27-9.5t16-2.5q11 0 21.5 2.5T219 833l-4-42q-14-7-24.5-10.5T168 777q-9 0-19 2.5T120 790t-28 10.5-16 2.5-16-2-32-10l4 42q14 7 25.5 10.5T79 847q9 0 19-2.5t30-11.5z"/><glyph glyph-name="ah.fina" unicode="آ" horiz-adv-x="269" arabic-form="final" d="M262 55h7V0h-7q-79 0-120.5 38.5T100 151v554h48V147q0-45 29-68.5T262 55zM128 833q18-7 27-9.5t16-2.5q11 0 21.5 2.5T219 833l-4-42q-14-7-24.5-10.5T168 777q-9 0-19 2.5T120 790t-28 10.5-16 2.5-16-2-32-10l4 42q14 7 25.5 10.5T79 847q9 0 19-2.5t30-11.5z"/><glyph glyph-name="alefHamzeAbove.isol" unicode="أ" horiz-adv-x="248" arabic-form="isolated" d="M148 705V0h-48v705h48zm68 136v-38L36 776v38l47 8q-10 14-14.5 29T64 883q0 30 20.5 48.5T138 950q19 0 35.5-6.5T199 925l-15-27q-18 9-44.5 10.5T97 903q1-29 16-50t34-21q5 0 33 4t36 5z"/><glyph glyph-name="alefHamzeAbove.fina" unicode="أ" horiz-adv-x="269" arabic-form="final" d="M262 55h7V0h-7q-79 0-120.5 38.5T100 151v554h48V147q0-45 29-68.5T262 55zm-46 786v-38L36 776v38l47 8q-10 14-14.5 29T64 883q0 30 20.5 48.5T138 950q19 0 35.5-6.5T199 925l-15-27q-18 9-44.5 10.5T97 903q1-29 16-50t34-21q5 0 33 4t36 5z"/><glyph glyph-name="alefHamzeBelow.isol" unicode="إ" horiz-adv-x="248" arabic-form="isolated" d="M148 705V0h-48v705h48zm68-861v-38L36-221v38l47 8q-10 14-14.5 29T64-114q0 30 20.5 48.5T138-47q19 0 35.5-6.5T199-72l-15-27q-18 9-44.5 10.5T97-94q1-29 16-50t34-21q5 0 33 4t36 5z"/><glyph glyph-name="alefHamzeBelow.fina" unicode="إ" horiz-adv-x="269" arabic-form="final" d="M262 55h7V0h-7q-79 0-120.5 38.5T100 151v554h48V147q0-45 29-68.5T262 55zm-46-211v-38L36-221v38l47 8q-10 14-14.5 29T64-114q0 30 20.5 48.5T138-47q19 0 35.5-6.5T199-72l-15-27q-18 9-44.5 10.5T97-94q1-29 16-50t34-21q5 0 33 4t36 5z"/><glyph glyph-name="alefWavyHamzehAbove.fina" unicode="ٲ" horiz-adv-x="269" d="M262 55h7V0h-7q-79 0-120.5 38.5T100 151v554h48V147q0-45 29-68.5T262 55zm-46 748L96 785q-15-2-29.5 0T29 796q-13 6-20 7.5T-4 805q-7 0-16-2t-32-10l4 40q14 7 25.5 10.5T-1 847q7 0 15-2.5t23-9.5q17-9 27-11.5t19-1.5q-10 14-14.5 29T64 883q0 30 20.5 48.5T138 950q19 0 35.5-6.5T199 925l-15-27q-18 9-44.5 10.5T97 903q1-29 16-50t34-21q5 0 33 4t36 5v-38z"/><glyph glyph-name="alefWasleh.isol" unicode="ٱ" horiz-adv-x="248" arabic-form="isolated" d="M148 705V0h-48v705h48zm-4 225q41 0 64-35.5t13-90.5q-12-12-26.5-18.5T164 779q-10 0-21.5 2.5T110 793t-31.5 11.5T58 807q-12 0-23.5-3T8 795l4 42q8 5 17.5 8.5T50 851q14 37 39 58t55 21zm42-89q0 18-14 32.5T140 888q-15 0-26.5-10T91 848q5-1 11-3.5t17-6.5q17-8 26.5-10.5T164 825q11 0 16.5 4t5.5 12z"/><glyph glyph-name="alefWasleh.fina" unicode="ٱ" horiz-adv-x="269" arabic-form="final" d="M262 55h7V0h-7q-79 0-120.5 38.5T100 151v554h48V147q0-45 29-68.5T262 55zM144 930q41 0 64-35.5t13-90.5q-12-12-26.5-18.5T164 779q-10 0-21.5 2.5T110 793t-31.5 11.5T58 807q-12 0-23.5-3T8 795l4 42q8 5 17.5 8.5T50 851q14 37 39 58t55 21zm42-89q0 18-14 32.5T140 888q-15 0-26.5-10T91 848q5-1 11-3.5t17-6.5q17-8 26.5-10.5T164 825q11 0 16.5 4t5.5 12z"/><glyph glyph-name="dotlessBeh.init" unicode="ٮ" horiz-adv-x="322" d="M11 0H0q-9 0-15 8t-6 19q0 12 6 20t15 8h5q58 0 107 9.5T201 93q0 92-4.5 128.5T183 301l48 11q15-75 15.5-135T233 59q-45-30-99.5-44.5T11 0z"/><glyph glyph-name="dotlessBeh.medi" unicode="ٮ" horiz-adv-x="358" d="M4 0H0q-9 0-15 8t-6 19q0 12 6 20t15 8h7q50 0 89.5 15t62.5 43v144h48v-95q0-55 35.5-81T353 55h5V0h-20q-55 0-97 20t-57 54q-28-32-77.5-53T4 0z"/><glyph glyph-name="dotlessBeh.fina" unicode="ٮ" horiz-adv-x="820" d="M820 0h-11q-53 0-91.5 16.5T661 64q-60-34-148.5-54T333-10q-136 0-204.5 46.5T60 175q0 31 11 63.5t33 63.5l32-21q-16-27-23-50.5t-7-48.5q0-68 57-102.5T333 45q86 0 161 14t145 43l-46 155 45 15 26-89q25-84 53.5-106T814 55h6V0z"/><glyph glyph-name="beh.isol" unicode="ب" horiz-adv-x="789" arabic-form="isolated" d="M383 45q88 0 164.5 12.5T668 93q0 92-4.5 128.5T650 301l48 11q15-75 15.5-135T700 59Q653 27 567.5 8.5T383-10q-163 0-243 47T60 179q0 30 12 63t33 60l33-22q-16-24-24-48.5t-8-51.5q0-68 68.5-101.5T383 45zm54-171-52-49-52 49 52 50z"/><glyph glyph-name="beh.fina" unicode="ب" horiz-adv-x="820" arabic-form="final" d="M820 0h-11q-53 0-91.5 16.5T661 64q-60-34-148.5-54T333-10q-136 0-204.5 46.5T60 175q0 31 11 63.5t33 63.5l32-21q-16-27-23-50.5t-7-48.5q0-68 57-102.5T333 45q86 0 161 14t145 43l-46 155 45 15 26-89q25-84 53.5-106T814 55h6V0zM407-126l-52-49-52 49 52 50z"/><glyph glyph-name="beh.medi" unicode="ب" horiz-adv-x="358" arabic-form="medial" d="M4 0H0q-9 0-15 8t-6 19q0 12 6 20t15 8h7q50 0 89.5 15t62.5 43v144h48v-95q0-55 35.5-81T353 55h5V0h-20q-55 0-97 20t-57 54q-28-32-77.5-53T4 0zm233-126-52-49-52 49 52 50z"/><glyph glyph-name="beh.init" unicode="ب" horiz-adv-x="322" d="M11 0H0q-9 0-15 8t-6 19q0 12 6 20t15 8h5q58 0 107 9.5T201 93q0 92-4.5 128.5T183 301l48 11q15-75 15.5-135T233 59q-45-30-99.5-44.5T11 0zm220-126-52-49-52 49 52 50z"/><glyph glyph-name="peh.isol" unicode="پ" horiz-adv-x="789" arabic-form="isolated" d="M383 45q88 0 164.5 12.5T668 93q0 92-4.5 128.5T650 301l48 11q15-75 15.5-135T700 59Q653 27 567.5 8.5T383-10q-163 0-243 47T60 179q0 30 12 63t33 60l33-22q-16-24-24-48.5t-8-51.5q0-68 68.5-101.5T383 45zm-6-171-52-49-52 49 52 50zm120 0-52-49-52 49 52 50zm-60-90-52-49-52 49 52 50z"/><glyph glyph-name="peh.fina" unicode="پ" horiz-adv-x="820" arabic-form="final" d="M820 0h-11q-53 0-91.5 16.5T661 64q-60-34-148.5-54T333-10q-136 0-204.5 46.5T60 175q0 31 11 63.5t33 63.5l32-21q-16-27-23-50.5t-7-48.5q0-68 57-102.5T333 45q86 0 161 14t145 43l-46 155 45 15 26-89q25-84 53.5-106T814 55h6V0zM347-126l-52-49-52 49 52 50zm120 0-52-49-52 49 52 50zm-60-90-52-49-52 49 52 50z"/><glyph glyph-name="peh.medi" unicode="پ" horiz-adv-x="358" arabic-form="medial" d="M4 0H0q-9 0-15 8t-6 19q0 12 6 20t15 8h7q50 0 89.5 15t62.5 43v144h48v-95q0-55 35.5-81T353 55h5V0h-20q-55 0-97 20t-57 54q-28-32-77.5-53T4 0zm173-126-52-49-52 49 52 50zm120 0-52-49-52 49 52 50zm-60-90-52-49-52 49 52 50z"/><glyph glyph-name="peh.init" unicode="پ" horiz-adv-x="322" d="M11 0H0q-9 0-15 8t-6 19q0 12 6 20t15 8h5q58 0 107 9.5T201 93q0 92-4.5 128.5T183 301l48 11q15-75 15.5-135T233 59q-45-30-99.5-44.5T11 0zm160-126-52-49-52 49 52 50zm120 0-52-49-52 49 52 50zm-60-90-52-49-52 49 52 50z"/><glyph glyph-name="teh.isol" unicode="ت" horiz-adv-x="789" arabic-form="isolated" d="M383 45q88 0 164.5 12.5T668 93q0 92-4.5 128.5T650 301l48 11q15-75 15.5-135T700 59Q653 27 567.5 8.5T383-10q-163 0-243 47T60 179q0 30 12 63t33 60l33-22q-16-24-24-48.5t-8-51.5q0-68 68.5-101.5T383 45zm-6 414-52-49-52 49 52 50zm120 0-52-49-52 49 52 50z"/><glyph glyph-name="teh.fina" unicode="ت" horiz-adv-x="820" arabic-form="final" d="M820 0h-11q-53 0-91.5 16.5T661 64q-60-34-148.5-54T333-10q-136 0-204.5 46.5T60 175q0 31 11 63.5t33 63.5l32-21q-16-27-23-50.5t-7-48.5q0-68 57-102.5T333 45q86 0 161 14t145 43l-46 155 45 15 26-89q25-84 53.5-106T814 55h6V0zM347 459l-52-49-52 49 52 50zm120 0-52-49-52 49 52 50z"/><glyph glyph-name="teh.medi" unicode="ت" horiz-adv-x="358" arabic-form="medial" d="M4 0H0q-9 0-15 8t-6 19q0 12 6 20t15 8h7q50 0 89.5 15t62.5 43v144h48v-95q0-55 35.5-81T353 55h5V0h-20q-55 0-97 20t-57 54q-28-32-77.5-53T4 0zm173 432-52-49-52 49 52 50zm120 0-52-49-52 49 52 50z"/><glyph glyph-name="teh.init" unicode="ت" horiz-adv-x="322" d="M11 0H0q-9 0-15 8t-6 19q0 12 6 20t15 8h5q58 0 107 9.5T201 93q0 92-4.5 128.5T183 301l48 11q15-75 15.5-135T233 59q-45-30-99.5-44.5T11 0zm133 477-52-49-52 49 52 50zm120 0-52-49-52 49 52 50z"/><glyph glyph-name="theh.isol" unicode="ث" horiz-adv-x="789" arabic-form="isolated" d="M383 45q88 0 164.5 12.5T668 93q0 92-4.5 128.5T650 301l48 11q15-75 15.5-135T700 59Q653 27 567.5 8.5T383-10q-163 0-243 47T60 179q0 30 12 63t33 60l33-22q-16-24-24-48.5t-8-51.5q0-68 68.5-101.5T383 45zm54 504-52-49-52 49 52 50zm-60-90-52-49-52 49 52 50zm120 0-52-49-52 49 52 50z"/><glyph glyph-name="theh.fina" unicode="ث" horiz-adv-x="820" arabic-form="final" d="M820 0h-11q-53 0-91.5 16.5T661 64q-60-34-148.5-54T333-10q-136 0-204.5 46.5T60 175q0 31 11 63.5t33 63.5l32-21q-16-27-23-50.5t-7-48.5q0-68 57-102.5T333 45q86 0 161 14t145 43l-46 155 45 15 26-89q25-84 53.5-106T814 55h6V0zM407 549l-52-49-52 49 52 50zm-60-90-52-49-52 49 52 50zm120 0-52-49-52 49 52 50z"/><glyph glyph-name="theh.medi" unicode="ث" horiz-adv-x="358" arabic-form="medial" d="M4 0H0q-9 0-15 8t-6 19q0 12 6 20t15 8h7q50 0 89.5 15t62.5 43v144h48v-95q0-55 35.5-81T353 55h5V0h-20q-55 0-97 20t-57 54q-28-32-77.5-53T4 0zm233 522-52-49-52 49 52 50zm-60-90-52-49-52 49 52 50zm120 0-52-49-52 49 52 50z"/><glyph glyph-name="theh.init" unicode="ث" horiz-adv-x="322" d="M11 0H0q-9 0-15 8t-6 19q0 12 6 20t15 8h5q58 0 107 9.5T201 93q0 92-4.5 128.5T183 301l48 11q15-75 15.5-135T233 59q-45-30-99.5-44.5T11 0zm193 567-52-49-52 49 52 50zm-60-90-52-49-52 49 52 50zm120 0-52-49-52 49 52 50z"/><glyph glyph-name="tehTa.isol" unicode="ٹ" horiz-adv-x="789" arabic-form="isolated" d="M383 45q88 0 164.5 12.5T668 93q0 92-4.5 128.5T650 301l48 11q15-75 15.5-135T700 59Q653 27 567.5 8.5T383-10q-163 0-243 47T60 179q0 30 12 63t33 60l33-22q-16-24-24-48.5t-8-51.5q0-68 68.5-101.5T383 45zm51 511q33 0 54.5-24t21.5-61q0-16-3.5-28T495 421q-29-7-66-11t-79-4q-28 0-51 3.5T256 421l13 39q14-4 24-6t20-3q3 8 5 14t5 11v137h39v-92q16 18 34 26.5t38 8.5zm37-100q0 26-13 41t-35 15q-25 0-44.5-16T350 450q41 0 72 1.5t49 4.5z"/><glyph glyph-name="tehTa.fina" unicode="ٹ" horiz-adv-x="820" arabic-form="final" d="M820 0h-11q-53 0-91.5 16.5T661 64q-60-34-148.5-54T333-10q-136 0-204.5 46.5T60 175q0 31 11 63.5t33 63.5l32-21q-16-27-23-50.5t-7-48.5q0-68 57-102.5T333 45q86 0 161 14t145 43l-46 155 45 15 26-89q25-84 53.5-106T814 55h6V0zM404 556q33 0 54.5-24t21.5-61q0-16-3.5-28T465 421q-29-7-66-11t-79-4q-28 0-51 3.5T226 421l13 39q14-4 24-6t20-3q3 8 5 14t5 11v137h39v-92q16 18 34 26.5t38 8.5zm37-100q0 26-13 41t-35 15q-25 0-44.5-16T320 450q41 0 72 1.5t49 4.5z"/><glyph glyph-name="tehTa.medi" unicode="ٹ" horiz-adv-x="358" arabic-form="medial" d="M4 0H0q-9 0-15 8t-6 19q0 12 6 20t15 8h7q50 0 89.5 15t62.5 43v144h48v-95q0-55 35.5-81T353 55h5V0h-20q-55 0-97 20t-57 54q-28-32-77.5-53T4 0zm230 529q33 0 54.5-24t21.5-61q0-16-3.5-28T295 394q-29-7-66-11t-79-4q-28 0-51 3.5T56 394l13 39q14-4 24-6t20-3q3 8 5 14t5 11v137h39v-92q16 18 34 26.5t38 8.5zm37-100q0 26-13 41t-35 15q-25 0-44.5-16T150 423q41 0 72 1.5t49 4.5z"/><glyph glyph-name="tehTa.init" unicode="ٹ" horiz-adv-x="322" d="M11 0H0q-9 0-15 8t-6 19q0 12 6 20t15 8h5q58 0 107 9.5T201 93q0 92-4.5 128.5T183 301l48 11q15-75 15.5-135T233 59q-45-30-99.5-44.5T11 0zm190 574q33 0 54.5-24t21.5-61q0-16-3.5-28T262 439q-29-7-66-11t-79-4q-28 0-51 3.5T23 439l13 39q14-4 24-6t20-3q3 8 5 14t5 11v137h39v-92q16 18 34 26.5t38 8.5zm37-100q0 26-13 41t-35 15q-25 0-44.5-16T117 468q41 0 72 1.5t49 4.5z"/><glyph glyph-name="jim.isol" unicode="ج" horiz-adv-x="697" arabic-form="isolated" d="M378-258q-153 0-236.5 57.5T58-39q0 135 123.5 221T531 286q-75 34-150 53.5T245 359q-57 0-101-8.5T55 323l-17 48q49 19 96 28t104 9q85 0 191.5-33.5T628 287l-13-46q-242-2-377-75T103-33q0-84 67-127t198-43q55 0 99 5.5t87 16.5l-4-52q-33-11-80.5-18t-91.5-7zm11 271-52-49-52 49 52 50z"/><glyph glyph-name="jim.fina" unicode="ج" horiz-adv-x="697" arabic-form="final" d="M378-258q-153 0-236.5 57.5T58-39q0 135 123.5 221T531 286q-75 34-150 53.5T245 359q-57 0-101-8.5T55 323l-17 48q49 19 96 28t104 9q85 0 191.5-33.5T628 287l-13-42q-27 0-53.5-1t-56.5-4q6-101 47-143t140-42h5V0h-7Q578 0 525 54.5T465 231q-173-22-267.5-91T103-33q0-84 67-127t198-43q55 0 99 5.5t87 16.5l-4-52q-33-11-80.5-18t-91.5-7zm11 271-52-49-52 49 52 50z"/><glyph glyph-name="jim.medi" unicode="ج" horiz-adv-x="697" arabic-form="medial" d="M4 0H0q-9 0-15 8t-6 19q0 12 6 20t15 8h7q158 0 283.5 65T484 307q-61 26-121 39t-118 13q-57 0-101-8.5T55 323l-17 48q49 19 96 28t104 9q85 0 191.5-33.5T628 287l-24-43q-16 10-34.5 20.5T526 288q-7-15-15-27.5T495 237q5-100 47.5-141T692 55h5V0h-7Q580 0 525.5 45T459 189Q379 97 263 48.5T4 0zm374-126-52-49-52 49 52 50z"/><glyph glyph-name="jim.init" unicode="ج" horiz-adv-x="697" d="M4 0H0q-9 0-15 8t-6 19q0 12 6 20t15 8h7q158 0 283.5 65T484 307q-61 26-121 39t-118 13q-57 0-101-8.5T55 323l-17 48q49 19 96 28t104 9q85 0 191.5-33.5T628 287l-24-43q-16 10-34.5 20.5T526 288Q454 150 318 75T4 0zm374-126-52-49-52 49 52 50z"/><glyph glyph-name="cheh.isol" unicode="چ" horiz-adv-x="697" arabic-form="isolated" d="M378-258q-153 0-236.5 57.5T58-39q0 135 123.5 221T531 286q-75 34-150 53.5T245 359q-57 0-101-8.5T55 323l-17 48q49 19 96 28t104 9q85 0 191.5-33.5T628 287l-13-46q-242-2-377-75T103-33q0-84 67-127t198-43q55 0 99 5.5t87 16.5l-4-52q-33-11-80.5-18t-91.5-7zM329 38l-52-49-52 49 52 50zm120 0-52-49-52 49 52 50zm-60-90-52-49-52 49 52 50z"/><glyph glyph-name="cheh.fina" unicode="چ" horiz-adv-x="697" arabic-form="final" d="M378-258q-153 0-236.5 57.5T58-39q0 135 123.5 221T531 286q-75 34-150 53.5T245 359q-57 0-101-8.5T55 323l-17 48q49 19 96 28t104 9q85 0 191.5-33.5T628 287l-13-42q-27 0-53.5-1t-56.5-4q6-101 47-143t140-42h5V0h-7Q578 0 525 54.5T465 231q-173-22-267.5-91T103-33q0-84 67-127t198-43q55 0 99 5.5t87 16.5l-4-52q-33-11-80.5-18t-91.5-7zM329 38l-52-49-52 49 52 50zm120 0-52-49-52 49 52 50zm-60-90-52-49-52 49 52 50z"/><glyph glyph-name="cheh.medi" unicode="چ" horiz-adv-x="697" arabic-form="medial" d="M4 0H0q-9 0-15 8t-6 19q0 12 6 20t15 8h7q158 0 283.5 65T484 307q-61 26-121 39t-118 13q-57 0-101-8.5T55 323l-17 48q49 19 96 28t104 9q85 0 191.5-33.5T628 287l-24-43q-16 10-34.5 20.5T526 288q-7-15-15-27.5T495 237q5-100 47.5-141T692 55h5V0h-7Q580 0 525.5 45T459 189Q379 97 263 48.5T4 0zm314-126-52-49-52 49 52 50zm120 0-52-49-52 49 52 50zm-60-90-52-49-52 49 52 50z"/><glyph glyph-name="cheh.init" unicode="چ" horiz-adv-x="697" d="M4 0H0q-9 0-15 8t-6 19q0 12 6 20t15 8h7q158 0 283.5 65T484 307q-61 26-121 39t-118 13q-57 0-101-8.5T55 323l-17 48q49 19 96 28t104 9q85 0 191.5-33.5T628 287l-24-43q-16 10-34.5 20.5T526 288Q454 150 318 75T4 0zm314-126-52-49-52 49 52 50zm120 0-52-49-52 49 52 50zm-60-90-52-49-52 49 52 50z"/><glyph glyph-name="hah.isol" unicode="ح" horiz-adv-x="697" arabic-form="isolated" d="M378-258q-153 0-236.5 57.5T58-39q0 135 123.5 221T531 286q-75 34-150 53.5T245 359q-57 0-101-8.5T55 323l-17 48q49 19 96 28t104 9q85 0 191.5-33.5T628 287l-13-46q-242-2-377-75T103-33q0-84 67-127t198-43q55 0 99 5.5t87 16.5l-4-52q-33-11-80.5-18t-91.5-7z"/><glyph glyph-name="hah.fina" unicode="ح" horiz-adv-x="697" arabic-form="final" d="M378-258q-153 0-236.5 57.5T58-39q0 135 123.5 221T531 286q-75 34-150 53.5T245 359q-57 0-101-8.5T55 323l-17 48q49 19 96 28t104 9q85 0 191.5-33.5T628 287l-13-42q-27 0-53.5-1t-56.5-4q6-101 47-143t140-42h5V0h-7Q578 0 525 54.5T465 231q-173-22-267.5-91T103-33q0-84 67-127t198-43q55 0 99 5.5t87 16.5l-4-52q-33-11-80.5-18t-91.5-7z"/><glyph glyph-name="hah.medi" unicode="ح" horiz-adv-x="697" arabic-form="medial" d="M4 0H0q-9 0-15 8t-6 19q0 12 6 20t15 8h7q158 0 283.5 65T484 307q-61 26-121 39t-118 13q-57 0-101-8.5T55 323l-17 48q49 19 96 28t104 9q85 0 191.5-33.5T628 287l-24-43q-16 10-34.5 20.5T526 288q-7-15-15-27.5T495 237q5-100 47.5-141T692 55h5V0h-7Q580 0 525.5 45T459 189Q379 97 263 48.5T4 0z"/><glyph glyph-name="hah.init" unicode="ح" horiz-adv-x="697" d="M4 0H0q-9 0-15 8t-6 19q0 12 6 20t15 8h7q158 0 283.5 65T484 307q-61 26-121 39t-118 13q-57 0-101-8.5T55 323l-17 48q49 19 96 28t104 9q85 0 191.5-33.5T628 287l-24-43q-16 10-34.5 20.5T526 288Q454 150 318 75T4 0z"/><glyph glyph-name="kheh.isol" unicode="خ" horiz-adv-x="697" arabic-form="isolated" d="M378-258q-153 0-236.5 57.5T58-39q0 135 123.5 221T531 286q-75 34-150 53.5T245 359q-57 0-101-8.5T55 323l-17 48q49 19 96 28t104 9q85 0 191.5-33.5T628 287l-13-46q-242-2-377-75T103-33q0-84 67-127t198-43q55 0 99 5.5t87 16.5l-4-52q-33-11-80.5-18t-91.5-7zm-35 821-52-49-52 49 52 50z"/><glyph glyph-name="kheh.fina" unicode="خ" horiz-adv-x="697" arabic-form="final" d="M378-258q-153 0-236.5 57.5T58-39q0 135 123.5 221T531 286q-75 34-150 53.5T245 359q-57 0-101-8.5T55 323l-17 48q49 19 96 28t104 9q85 0 191.5-33.5T628 287l-13-42q-27 0-53.5-1t-56.5-4q6-101 47-143t140-42h5V0h-7Q578 0 525 54.5T465 231q-173-22-267.5-91T103-33q0-84 67-127t198-43q55 0 99 5.5t87 16.5l-4-52q-33-11-80.5-18t-91.5-7zm-35 821-52-49-52 49 52 50z"/><glyph glyph-name="kheh.medi" unicode="خ" horiz-adv-x="697" arabic-form="medial" d="M4 0H0q-9 0-15 8t-6 19q0 12 6 20t15 8h7q158 0 283.5 65T484 307q-61 26-121 39t-118 13q-57 0-101-8.5T55 323l-17 48q49 19 96 28t104 9q85 0 191.5-33.5T628 287l-24-43q-16 10-34.5 20.5T526 288q-7-15-15-27.5T495 237q5-100 47.5-141T692 55h5V0h-7Q580 0 525.5 45T459 189Q379 97 263 48.5T4 0zm339 563-52-49-52 49 52 50z"/><glyph glyph-name="kheh.init" unicode="خ" horiz-adv-x="697" d="M4 0H0q-9 0-15 8t-6 19q0 12 6 20t15 8h7q158 0 283.5 65T484 307q-61 26-121 39t-118 13q-57 0-101-8.5T55 323l-17 48q49 19 96 28t104 9q85 0 191.5-33.5T628 287l-24-43q-16 10-34.5 20.5T526 288Q454 150 318 75T4 0zm339 563-52-49-52 49 52 50z"/><glyph glyph-name="dal.isol" unicode="د" horiz-adv-x="541" arabic-form="isolated" d="M477 43q-41-28-95.5-40.5T250-10q-69 0-130 11.5T20 34l25 55q49-22 104.5-33T263 45t98 6.5T434 73q-21 88-80.5 165.5T210 365l27 44q97-52 167-156.5T477 43z"/><glyph glyph-name="dal.fina" unicode="د" horiz-adv-x="578" arabic-form="final" d="M341 171 234 413l46 20 108-247q16-35 33-60t36-41q20-16 44.5-23t71.5-7h5V0h-12q-59 0-92.5 12.5T412 54q-46-34-94-49T210-10q-50 0-104 12.5T20 34l25 55q45-22 89.5-33T223 45q45 0 82.5 9.5T386 88q-11 15-22 36t-23 47z"/><glyph glyph-name="zal.isol" unicode="ذ" horiz-adv-x="541" arabic-form="isolated" d="M477 43q-41-28-95.5-40.5T250-10q-69 0-130 11.5T20 34l25 55q49-22 104.5-33T263 45t98 6.5T434 73q-21 88-80.5 165.5T210 365l27 44q97-52 167-156.5T477 43zM244 546l-52-49-52 49 52 50z"/><glyph glyph-name="zal.fina" unicode="ذ" horiz-adv-x="578" arabic-form="final" d="M341 171 234 413l46 20 108-247q16-35 33-60t36-41q20-16 44.5-23t71.5-7h5V0h-12q-59 0-92.5 12.5T412 54q-46-34-94-49T210-10q-50 0-104 12.5T20 34l25 55q45-22 89.5-33T223 45q45 0 82.5 9.5T386 88q-11 15-22 36t-23 47zm-88 391-52-49-52 49 52 50z"/><glyph glyph-name="dalTa.isol" unicode="ڈ" horiz-adv-x="541" arabic-form="isolated" d="M477 43q-41-28-95.5-40.5T250-10q-69 0-130 11.5T20 34l25 55q49-22 104.5-33T263 45t98 6.5T434 73q-21 88-80.5 165.5T210 365l27 44q97-52 167-156.5T477 43zM241 643q33 0 54.5-24t21.5-61q0-16-3.5-28T302 508q-29-7-66-11t-79-4q-28 0-51 3.5T63 508l13 39q14-4 24-6t20-3q3 8 5 14t5 11v137h39v-92q16 18 34 26.5t38 8.5zm37-100q0 26-13 41t-35 15q-25 0-44.5-16T157 537q41 0 72 1.5t49 4.5z"/><glyph glyph-name="dalTa.fina" unicode="ڈ" horiz-adv-x="578" arabic-form="final" d="M341 171 234 413l46 20 108-247q16-35 33-60t36-41q20-16 44.5-23t71.5-7h5V0h-12q-59 0-92.5 12.5T412 54q-46-34-94-49T210-10q-50 0-104 12.5T20 34l25 55q45-22 89.5-33T223 45q45 0 82.5 9.5T386 88q-11 15-22 36t-23 47zm-91 488q33 0 54.5-24t21.5-61q0-16-3.5-28T311 524q-29-7-66-11t-79-4q-28 0-51 3.5T72 524l13 39q14-4 24-6t20-3q3 8 5 14t5 11v137h39v-92q16 18 34 26.5t38 8.5zm37-100q0 26-13 41t-35 15q-25 0-44.5-16T166 553q41 0 72 1.5t49 4.5z"/><glyph glyph-name="reh.isol" unicode="ر" horiz-adv-x="512" arabic-form="isolated" d="M412 65q0-63-20.5-119T331-155q-41-48-97-75.5T123-258q-27 0-53 4.5T20-240l11 38q20-4 37-5.5t34-1.5q94 0 169 62.5T369 20q-1 60-14.5 119T308 280l49 22q29-78 42-134t13-103z"/><glyph glyph-name="reh.fina" unicode="ر" horiz-adv-x="544" arabic-form="final" d="M386 88q-3 6-6.5 14T364 136l-61 145 46 19 64-154q25-61 48-76t78-15h5V0h-11q-45 0-72.5 10.5T413 45q-6-60-28.5-112.5T324-162q-42-45-95-70.5T123-258q-27 0-53 4.5T20-240l11 38q20-4 37-5.5t34-1.5q110 0 186.5 78T386 88z"/><glyph glyph-name="zeh.isol" unicode="ز" horiz-adv-x="512" arabic-form="isolated" d="M412 65q0-63-20.5-119T331-155q-41-48-97-75.5T123-258q-27 0-53 4.5T20-240l11 38q20-4 37-5.5t34-1.5q94 0 169 62.5T369 20q-1 60-14.5 119T308 280l49 22q29-78 42-134t13-103zm-78 412-52-49-52 49 52 50z"/><glyph glyph-name="zeh.fina" unicode="ز" horiz-adv-x="544" arabic-form="final" d="M386 88q-3 6-6.5 14T364 136l-61 145 46 19 64-154q25-61 48-76t78-15h5V0h-11q-45 0-72.5 10.5T413 45q-6-60-28.5-112.5T324-162q-42-45-95-70.5T123-258q-27 0-53 4.5T20-240l11 38q20-4 37-5.5t34-1.5q110 0 186.5 78T386 88zm-52 389-52-49-52 49 52 50z"/><glyph glyph-name="zheh.isol" unicode="ژ" horiz-adv-x="512" arabic-form="isolated" d="M412 65q0-63-20.5-119T331-155q-41-48-97-75.5T123-258q-27 0-53 4.5T20-240l11 38q20-4 37-5.5t34-1.5q94 0 169 62.5T369 20q-1 60-14.5 119T308 280l49 22q29-78 42-134t13-103zm-78 502-52-49-52 49 52 50zm-60-90-52-49-52 49 52 50zm120 0-52-49-52 49 52 50z"/><glyph glyph-name="zheh.fina" unicode="ژ" horiz-adv-x="544" arabic-form="final" d="M386 88q-3 6-6.5 14T364 136l-61 145 46 19 64-154q25-61 48-76t78-15h5V0h-11q-45 0-72.5 10.5T413 45q-6-60-28.5-112.5T324-162q-42-45-95-70.5T123-258q-27 0-53 4.5T20-240l11 38q20-4 37-5.5t34-1.5q110 0 186.5 78T386 88zm-52 479-52-49-52 49 52 50zm-60-90-52-49-52 49 52 50zm120 0-52-49-52 49 52 50z"/><glyph glyph-name="rehTa.isol" unicode="ڑ" horiz-adv-x="512" arabic-form="isolated" d="M412 65q0-63-20.5-119T331-155q-41-48-97-75.5T123-258q-27 0-53 4.5T20-240l11 38q20-4 37-5.5t34-1.5q94 0 169 62.5T369 20q-1 60-14.5 119T308 280l49 22q29-78 42-134t13-103zm-81 509q33 0 54.5-24t21.5-61q0-16-3.5-28T392 439q-29-7-66-11t-79-4q-28 0-51 3.5T153 439l13 39q14-4 24-6t20-3q3 8 5 14t5 11v137h39v-92q16 18 34 26.5t38 8.5zm37-100q0 26-13 41t-35 15q-25 0-44.5-16T247 468q41 0 72 1.5t49 4.5z"/><glyph glyph-name="rehTa.fina" unicode="ڑ" horiz-adv-x="544" arabic-form="final" d="M386 88q-3 6-6.5 14T364 136l-61 145 46 19 64-154q25-61 48-76t78-15h5V0h-11q-45 0-72.5 10.5T413 45q-6-60-28.5-112.5T324-162q-42-45-95-70.5T123-258q-27 0-53 4.5T20-240l11 38q20-4 37-5.5t34-1.5q110 0 186.5 78T386 88zm-55 486q33 0 54.5-24t21.5-61q0-16-3.5-28T392 439q-29-7-66-11t-79-4q-28 0-51 3.5T153 439l13 39q14-4 24-6t20-3q3 8 5 14t5 11v137h39v-92q16 18 34 26.5t38 8.5zm37-100q0 26-13 41t-35 15q-25 0-44.5-16T247 468q41 0 72 1.5t49 4.5z"/><glyph glyph-name="sin.isol" unicode="س" horiz-adv-x="1152" arabic-form="isolated" d="M532 43q7-72 7.5-112t-4.5-85q-57-39-124-60t-134-21q-109 0-167 47T52-53q0 37 13.5 82t36.5 84l36-16q-17-35-27.5-73T100-42q0-69 46-103.5T283-180q58 0 115.5 14T500-127q0 105-14 188t-49 191l47 15 27-96q18-64 50.5-95T645 45q52 0 82.5 42.5T758 198v59h48v-61q0-77 27.5-114T919 45q37 0 66 9t51 27q0 104-4.5 140.5T1018 301l48 11q16-78 16.5-141T1068 47q-32-30-67-43.5T916-10q-48 0-81.5 23.5T784 83q-19-43-56.5-68T644-10q-35 0-63 13t-49 40z"/><glyph glyph-name="sin.fina" unicode="س" horiz-adv-x="1225" arabic-form="final" d="M1050 91q-18-45-55-73t-79-28q-48 0-81.5 23.5T784 83q-19-43-56.5-68T644-10q-35 0-63 13t-49 40q7-72 7.5-112t-4.5-85q-57-39-124-60t-134-21q-109 0-167 47T52-53q0 37 13.5 82t36.5 84l36-16q-17-35-27.5-73T100-42q0-69 46-103.5T283-180q58 0 115.5 14T500-127q0 105-14 188t-49 191l47 15 27-96q18-64 50.5-95T645 45q52 0 82.5 42.5T758 198v59h48v-61q0-77 27.5-114T919 45q49 0 75.5 40.5T1021 202v100h48v-74q0-93 32-133t116-40h8V0h-8q-65 0-105 22t-62 69z"/><glyph glyph-name="sin.medi" unicode="س" horiz-adv-x="854" arabic-form="medial" d="M7 0H0q-9 0-15 8t-6 19q0 12 6 20t15 8h7q54 0 85.5 38T124 199v79h48v-82q0-76 26.5-113.5T278 45q50 0 79.5 41.5T387 198v59h48v-61q0-78 27.5-114.5T548 45q49 0 75.5 40.5T650 202v100h48v-74q0-97 30-135t118-38h8V0h-8q-71 0-108.5 21T679 91q-18-45-55-73t-79-28q-49 0-82 23t-50 70q-19-43-55.5-68T277-10q-46 0-79 25.5T147 88q-17-37-56.5-62.5T7 0z"/><glyph glyph-name="sin.init" unicode="س" horiz-adv-x="785" d="M7 0H0q-9 0-15 8t-6 19q0 12 6 20t15 8h7q54 0 85.5 38T124 199v79h48v-82q0-76 26.5-113.5T278 45q50 0 79.5 41.5T387 198v59h48v-61q0-77 27.5-114T548 45q37 0 66 9t51 27q0 104-4.5 141T647 301l48 11q16-78 16.5-141T697 47q-33-30-67.5-43.5T545-10q-48 0-81 23.5T413 83q-19-43-55.5-68T277-10q-46 0-79 25.5T147 88q-17-37-56.5-62.5T7 0z"/><glyph glyph-name="shin.isol" unicode="ش" horiz-adv-x="1152" arabic-form="isolated" d="M532 43q7-72 7.5-112t-4.5-85q-57-39-124-60t-134-21q-109 0-167 47T52-53q0 37 13.5 82t36.5 84l36-16q-17-35-27.5-73T100-42q0-69 46-103.5T283-180q58 0 115.5 14T500-127q0 105-14 188t-49 191l47 15 27-96q18-64 50.5-95T645 45q52 0 82.5 42.5T758 198v59h48v-61q0-77 27.5-114T919 45q37 0 66 9t51 27q0 104-4.5 140.5T1018 301l48 11q16-78 16.5-141T1068 47q-32-30-67-43.5T916-10q-48 0-81.5 23.5T784 83q-19-43-56.5-68T644-10q-35 0-63 13t-49 40zm304 506-52-49-52 49 52 50zm-60-90-52-49-52 49 52 50zm120 0-52-49-52 49 52 50z"/><glyph glyph-name="shin.fina" unicode="ش" horiz-adv-x="1225" arabic-form="final" d="M1050 91q-18-45-55-73t-79-28q-48 0-81.5 23.5T784 83q-19-43-56.5-68T644-10q-35 0-63 13t-49 40q7-72 7.5-112t-4.5-85q-57-39-124-60t-134-21q-109 0-167 47T52-53q0 37 13.5 82t36.5 84l36-16q-17-35-27.5-73T100-42q0-69 46-103.5T283-180q58 0 115.5 14T500-127q0 105-14 188t-49 191l47 15 27-96q18-64 50.5-95T645 45q52 0 82.5 42.5T758 198v59h48v-61q0-77 27.5-114T919 45q49 0 75.5 40.5T1021 202v100h48v-74q0-93 32-133t116-40h8V0h-8q-65 0-105 22t-62 69zM836 549l-52-49-52 49 52 50zm-60-90-52-49-52 49 52 50zm120 0-52-49-52 49 52 50z"/><glyph glyph-name="shin.medi" unicode="ش" horiz-adv-x="854" arabic-form="medial" d="M7 0H0q-9 0-15 8t-6 19q0 12 6 20t15 8h7q54 0 85.5 38T124 199v79h48v-82q0-76 26.5-113.5T278 45q50 0 79.5 41.5T387 198v59h48v-61q0-78 27.5-114.5T548 45q49 0 75.5 40.5T650 202v100h48v-74q0-97 30-135t118-38h8V0h-8q-71 0-108.5 21T679 91q-18-45-55-73t-79-28q-49 0-82 23t-50 70q-19-43-55.5-68T277-10q-46 0-79 25.5T147 88q-17-37-56.5-62.5T7 0zm457 549-52-49-52 49 52 50zm-60-90-52-49-52 49 52 50zm120 0-52-49-52 49 52 50z"/><glyph glyph-name="shin.init" unicode="ش" horiz-adv-x="785" d="M7 0H0q-9 0-15 8t-6 19q0 12 6 20t15 8h7q54 0 85.5 38T124 199v79h48v-82q0-76 26.5-113.5T278 45q50 0 79.5 41.5T387 198v59h48v-61q0-77 27.5-114T548 45q37 0 66 9t51 27q0 104-4.5 141T647 301l48 11q16-78 16.5-141T697 47q-33-30-67.5-43.5T545-10q-48 0-81 23.5T413 83q-19-43-55.5-68T277-10q-46 0-79 25.5T147 88q-17-37-56.5-62.5T7 0zm458 549-52-49-52 49 52 50zm-60-90-52-49-52 49 52 50zm120 0-52-49-52 49 52 50z"/><glyph glyph-name="sad.isol" unicode="ص" horiz-adv-x="1115" arabic-form="isolated" d="M532 73q40 137 115 208t181 71q94 0 155.5-62.5T1045 131q0-17-2-35t-7-38q-62-32-141.5-45T671 0q-39 0-74.5 3T538 11q2-81 1-108.5t-4-56.5q-57-39-124-60t-134-21q-109 0-167 47T52-53q0 37 13.5 82t36.5 84l36-16q-17-35-27.5-73T100-42q0-69 46-103.5T283-180q58 0 115.5 14T500-127q0 98-15 186.5T437 252l47 15q19-65 29.5-107.5T532 73zm466 19q0 94-47.5 149.5T821 297q-89 0-153.5-61T570 58q17-2 40-2.5t53-.5q129 0 204 8t131 29z"/><glyph glyph-name="sad.fina" unicode="ص" horiz-adv-x="1159" arabic-form="final" d="M532 73q40 137 115 208t181 71q94 0 155.5-62.5T1045 131q0-12-1-25.5t-4-29.5q19-9 49-15t60-6h10V0h-9q-46 0-84 11.5T1004 43q-57-23-131.5-33T671 0q-39 0-74.5 3T538 11q2-81 1-108.5t-4-56.5q-57-39-124-60t-134-21q-109 0-167 47T52-53q0 37 13.5 82t36.5 84l36-16q-17-35-27.5-73T100-42q0-69 46-103.5T283-180q58 0 115.5 14T500-127q0 98-15 186.5T437 252l47 15q19-65 29.5-107.5T532 73zm466 19q0 94-47.5 149.5T821 297q-89 0-153.5-61T570 58q17-2 40-2.5t53-.5q129 0 204 8t131 29z"/><glyph glyph-name="sad.medi" unicode="ص" horiz-adv-x="829" arabic-form="medial" d="M4 0H0q-9 0-15 8t-6 19q0 12 6 20t15 8h7q44 0 82 13t61 36q-4 13-5.5 30t-1.5 37v86h48v-73q0-32 4-53.5T208 95q41 126 115 191.5T498 352q94 0 155.5-62.5T715 131q0-12-1-25.5T710 76q19-9 49-15t60-6h10V0h-9q-46 0-84 11.5T674 43q-57-23-131.5-33T341 0q-69 0-111 15.5T167 64q-29-30-72-47T4 0zm664 92q0 94-47.5 149.5T491 297q-87 0-151-59T243 67q15-6 36-9t54-3q129 0 204 8t131 29z"/><glyph glyph-name="sad.init" unicode="ص" horiz-adv-x="785" d="M4 0H0q-9 0-15 8t-6 19q0 12 6 20t15 8h7q44 0 82 13t61 36q-4 13-5.5 30t-1.5 37v86h48v-73q0-32 4-53.5T208 95q41 126 115 191.5T498 352q94 0 155.5-62.5T715 131q0-17-2-35t-7-38q-62-32-141.5-45T341 0q-69 0-111 15.5T167 64q-29-30-72-47T4 0zm664 92q0 94-47.5 149.5T491 297q-87 0-151-59T243 67q15-6 36-9t54-3q129 0 204 8t131 29z"/><glyph glyph-name="zad.isol" unicode="ض" horiz-adv-x="1115" arabic-form="isolated" d="M532 73q40 137 115 208t181 71q94 0 155.5-62.5T1045 131q0-17-2-35t-7-38q-62-32-141.5-45T671 0q-39 0-74.5 3T538 11q2-81 1-108.5t-4-56.5q-57-39-124-60t-134-21q-109 0-167 47T52-53q0 37 13.5 82t36.5 84l36-16q-17-35-27.5-73T100-42q0-69 46-103.5T283-180q58 0 115.5 14T500-127q0 98-15 186.5T437 252l47 15q19-65 29.5-107.5T532 73zm466 19q0 94-47.5 149.5T821 297q-89 0-153.5-61T570 58q17-2 40-2.5t53-.5q129 0 204 8t131 29zM871 477l-52-49-52 49 52 50z"/><glyph glyph-name="zad.fina" unicode="ض" horiz-adv-x="1159" arabic-form="final" d="M532 73q40 137 115 208t181 71q94 0 155.5-62.5T1045 131q0-12-1-25.5t-4-29.5q19-9 49-15t60-6h10V0h-9q-46 0-84 11.5T1004 43q-57-23-131.5-33T671 0q-39 0-74.5 3T538 11q2-81 1-108.5t-4-56.5q-57-39-124-60t-134-21q-109 0-167 47T52-53q0 37 13.5 82t36.5 84l36-16q-17-35-27.5-73T100-42q0-69 46-103.5T283-180q58 0 115.5 14T500-127q0 98-15 186.5T437 252l47 15q19-65 29.5-107.5T532 73zm466 19q0 94-47.5 149.5T821 297q-89 0-153.5-61T570 58q17-2 40-2.5t53-.5q129 0 204 8t131 29zM871 477l-52-49-52 49 52 50z"/><glyph glyph-name="zad.medi" unicode="ض" horiz-adv-x="829" arabic-form="medial" d="M4 0H0q-9 0-15 8t-6 19q0 12 6 20t15 8h7q44 0 82 13t61 36q-4 13-5.5 30t-1.5 37v86h48v-73q0-32 4-53.5T208 95q41 126 115 191.5T498 352q94 0 155.5-62.5T715 131q0-12-1-25.5T710 76q19-9 49-15t60-6h10V0h-9q-46 0-84 11.5T674 43q-57-23-131.5-33T341 0q-69 0-111 15.5T167 64q-29-30-72-47T4 0zm664 92q0 94-47.5 149.5T491 297q-87 0-151-59T243 67q15-6 36-9t54-3q129 0 204 8t131 29zM536 477l-52-49-52 49 52 50z"/><glyph glyph-name="zad.init" unicode="ض" horiz-adv-x="785" d="M4 0H0q-9 0-15 8t-6 19q0 12 6 20t15 8h7q44 0 82 13t61 36q-4 13-5.5 30t-1.5 37v86h48v-73q0-32 4-53.5T208 95q41 126 115 191.5T498 352q94 0 155.5-62.5T715 131q0-17-2-35t-7-38q-62-32-141.5-45T341 0q-69 0-111 15.5T167 64q-29-30-72-47T4 0zm664 92q0 94-47.5 149.5T491 297q-87 0-151-59T243 67q15-6 36-9t54-3q129 0 204 8t131 29zM534 477l-52-49-52 49 52 50z"/><glyph glyph-name="ta.isol" unicode="ط" horiz-adv-x="701" arabic-form="isolated" d="M414 352q94 0 155.5-62.5T631 131q0-17-2-35t-7-38q-62-32-141.5-45T257 0q-66 0-134.5 6.5T10 24l15 55q17-4 39-8t47-7q8 28 17 53t19 47v541h48V236q42 58 97 87t122 29zM584 92q0 94-47.5 149.5T407 297q-89 0-153.5-61T156 59q21-2 44-3t49-1q129 0 204 8t131 29z"/><glyph glyph-name="ta.fina" unicode="ط" horiz-adv-x="745" arabic-form="final" d="M257 0q-66 0-134.5 6.5T10 24l15 55q17-4 39-8t47-7q8 28 17 53t19 47v541h48V236q42 58 97 87t122 29q94 0 155.5-62.5T631 131q0-12-1-25.5T626 76q19-9 49-15t60-6h10V0h-9q-46 0-84 11.5T590 43q-57-23-131.5-33T257 0zm327 92q0 94-47.5 149.5T407 297q-89 0-153.5-61T156 59q21-2 44-3t49-1q129 0 204 8t131 29z"/><glyph glyph-name="ta.medi" unicode="ط" horiz-adv-x="725" arabic-form="medial" d="M237 0H0q-9 0-15 8t-6 19q0 12 6 20t15 8h89q7 28 16.5 55.5T127 164v541h48V236q42 58 97 87t122 29q94 0 155.5-62.5T611 131q0-12-1-25.5T606 76q19-9 49-15t60-6h10V0h-9q-46 0-84 11.5T570 43q-57-23-131.5-33T237 0zm327 92q0 94-47.5 149.5T387 297q-89 0-154-62T135 55h94q129 0 204 8t131 29z"/><glyph glyph-name="ta.init" unicode="ط" horiz-adv-x="681" d="M237 0H0q-9 0-15 8t-6 19q0 12 6 20t15 8h89q7 28 16.5 55.5T127 164v541h48V236q42 58 97 87t122 29q94 0 155.5-62.5T611 131q0-17-2-35t-7-38q-62-32-141.5-45T237 0zm327 92q0 94-47.5 149.5T387 297q-89 0-154-62T135 55h94q129 0 204 8t131 29z"/><glyph glyph-name="za.isol" unicode="ظ" horiz-adv-x="701" arabic-form="isolated" d="M414 352q94 0 155.5-62.5T631 131q0-17-2-35t-7-38q-62-32-141.5-45T257 0q-66 0-134.5 6.5T10 24l15 55q17-4 39-8t47-7q8 28 17 53t19 47v541h48V236q42 58 97 87t122 29zM584 92q0 94-47.5 149.5T407 297q-89 0-153.5-61T156 59q21-2 44-3t49-1q129 0 204 8t131 29zm-55 385-52-49-52 49 52 50z"/><glyph glyph-name="za.fina" unicode="ظ" horiz-adv-x="745" arabic-form="final" d="M257 0q-66 0-134.5 6.5T10 24l15 55q17-4 39-8t47-7q8 28 17 53t19 47v541h48V236q42 58 97 87t122 29q94 0 155.5-62.5T631 131q0-12-1-25.5T626 76q19-9 49-15t60-6h10V0h-9q-46 0-84 11.5T590 43q-57-23-131.5-33T257 0zm327 92q0 94-47.5 149.5T407 297q-89 0-153.5-61T156 59q21-2 44-3t49-1q129 0 204 8t131 29zm-55 385-52-49-52 49 52 50z"/><glyph glyph-name="za.medi" unicode="ظ" horiz-adv-x="725" arabic-form="medial" d="M237 0H0q-9 0-15 8t-6 19q0 12 6 20t15 8h89q7 28 16.5 55.5T127 164v541h48V236q42 58 97 87t122 29q94 0 155.5-62.5T611 131q0-12-1-25.5T606 76q19-9 49-15t60-6h10V0h-9q-46 0-84 11.5T570 43q-57-23-131.5-33T237 0zm327 92q0 94-47.5 149.5T387 297q-89 0-154-62T135 55h94q129 0 204 8t131 29zm-55 385-52-49-52 49 52 50z"/><glyph glyph-name="za.init" unicode="ظ" horiz-adv-x="681" d="M237 0H0q-9 0-15 8t-6 19q0 12 6 20t15 8h89q7 28 16.5 55.5T127 164v541h48V236q42 58 97 87t122 29q94 0 155.5-62.5T611 131q0-17-2-35t-7-38q-62-32-141.5-45T237 0zm327 92q0 94-47.5 149.5T387 297q-89 0-154-62T135 55h94q129 0 204 8t131 29zm-55 385-52-49-52 49 52 50z"/><glyph glyph-name="eyn.isol" unicode="ع" horiz-adv-x="574" arabic-form="isolated" d="M158 412q0-83 47.5-152.5T309 190q15 0 49.5 8T463 225l9-47-162-42q-108-28-157.5-70.5T103-43q0-77 68.5-118.5T368-203q48 0 93 5.5t93 16.5l-4-52q-38-12-86-18.5t-91-6.5q-149 0-232 56.5T58-44q0 65 43 117.5T225 158q-47 36-77.5 96T117 374q0 53 45.5 93T271 507q45 0 88.5-15t68.5-39l-18-34q-35 19-69 28.5t-65 9.5q-34 0-64-11.5T158 412z"/><glyph glyph-name="eyn.fina" unicode="ع" horiz-adv-x="560" arabic-form="final" d="M338-258q-143 0-226.5 48.5T28-82q0 57 44 98.5T219 100q-39 29-71 66t-58 81q-18-8-34.5-15.5T23 216L2 264q94 46 166 67t140 21q82 0 128.5-30.5T483 238q0-48-35.5-79T327 95q47-20 103.5-30T552 55h8V0h-8q-83 0-155 17.5T265 70Q160 32 116.5-2T73-82q0-54 70-87.5T338-203q48 0 93 5.5t93 16.5l-4-52q-37-11-87.5-18t-94.5-7zm-59 377q80 28 118 55.5t38 59.5q0 33-31.5 49.5T307 300q-38 0-81-8.5T134 265q28-47 64.5-83.5T279 119z"/><glyph glyph-name="eyn.medi" unicode="ع" horiz-adv-x="590" arabic-form="medial" d="M5 0H0q-9 0-15 8t-6 19q0 12 6 20t15 8h4q60 0 127 10t128 28q-41 28-75.5 67T120 247q-18-8-34.5-15.5T53 216l-21 48q94 46 166 67t140 21q83 0 129-30.5t46-83.5q0-41-35-79.5T377 87q45-16 96-24t109-8h8V0h-8q-77 0-144 15T313 59q-73-27-156-43T5 0zm460 234q0 33-31.5 49.5T337 300q-38 0-81-8.5T164 265q29-50 68.5-88t87.5-64q69 26 107 57.5t38 63.5z"/><glyph glyph-name="eyn.init" unicode="ع" horiz-adv-x="530" d="M9 0H0q-9 0-15 8t-6 19q0 12 6 20t15 8h30q36 0 75.5 4T185 70q-44 37-71.5 94T86 278q0 53 45.5 93T240 411q45 0 88.5-15t68.5-39l-18-34q-35 19-69 28.5t-65 9.5q-34 0-64-11.5T127 316q0-83 47.5-152.5T278 94q21 0 69 11.5T485 144l14-49Q359 49 231.5 24.5T9 0z"/><glyph glyph-name="gheyn.isol" unicode="غ" horiz-adv-x="574" arabic-form="isolated" d="M158 412q0-83 47.5-152.5T309 190q15 0 49.5 8T463 225l9-47-162-42q-108-28-157.5-70.5T103-43q0-77 68.5-118.5T368-203q48 0 93 5.5t93 16.5l-4-52q-38-12-86-18.5t-91-6.5q-149 0-232 56.5T58-44q0 65 43 117.5T225 158q-47 36-77.5 96T117 374q0 53 45.5 93T271 507q45 0 88.5-15t68.5-39l-18-34q-35 19-69 28.5t-65 9.5q-34 0-64-11.5T158 412zm163 220-52-49-52 49 52 50z"/><glyph glyph-name="gheyn.fina" unicode="غ" horiz-adv-x="560" arabic-form="final" d="M338-258q-143 0-226.5 48.5T28-82q0 57 44 98.5T219 100q-39 29-71 66t-58 81q-18-8-34.5-15.5T23 216L2 264q94 46 166 67t140 21q82 0 128.5-30.5T483 238q0-48-35.5-79T327 95q47-20 103.5-30T552 55h8V0h-8q-83 0-155 17.5T265 70Q160 32 116.5-2T73-82q0-54 70-87.5T338-203q48 0 93 5.5t93 16.5l-4-52q-37-11-87.5-18t-94.5-7zm-59 377q80 28 118 55.5t38 59.5q0 33-31.5 49.5T307 300q-38 0-81-8.5T134 265q28-47 64.5-83.5T279 119zm98 358-52-49-52 49 52 50z"/><glyph glyph-name="gheyn.medi" unicode="غ" horiz-adv-x="590" arabic-form="medial" d="M5 0H0q-9 0-15 8t-6 19q0 12 6 20t15 8h4q60 0 127 10t128 28q-41 28-75.5 67T120 247q-18-8-34.5-15.5T53 216l-21 48q94 46 166 67t140 21q83 0 129-30.5t46-83.5q0-41-35-79.5T377 87q45-16 96-24t109-8h8V0h-8q-77 0-144 15T313 59q-73-27-156-43T5 0zm460 234q0 33-31.5 49.5T337 300q-38 0-81-8.5T164 265q29-50 68.5-88t87.5-64q69 26 107 57.5t38 63.5zm-60 243-52-49-52 49 52 50z"/><glyph glyph-name="gheyn.init" unicode="غ" horiz-adv-x="530" d="M9 0H0q-9 0-15 8t-6 19q0 12 6 20t15 8h30q36 0 75.5 4T185 70q-44 37-71.5 94T86 278q0 53 45.5 93T240 411q45 0 88.5-15t68.5-39l-18-34q-35 19-69 28.5t-65 9.5q-34 0-64-11.5T127 316q0-83 47.5-152.5T278 94q21 0 69 11.5T485 144l14-49Q359 49 231.5 24.5T9 0zm281 535-52-49-52 49 52 50z"/><glyph glyph-name="feh.isol" unicode="ف" horiz-adv-x="811" arabic-form="isolated" d="m595 678-52-49-52 49 52 50zm-72-126q87 0 147.5-90.5T731 255q0-144-79.5-204.5T383-10q-163 0-243 47T60 179q0 30 12 63t33 60l33-22q-16-24-24-48.5t-8-51.5q0-69 71-102t218-33q156 0 222 42.5T687 233q-35-12-71.5-17.5T540 210q-88 0-133.5 33T361 338q0 83 49.5 148.5T523 552zm-1-57q-44 0-80.5-42.5T405 354q0-45 37-66t115-21q37 0 66 4.5t62 14.5q-10 87-56.5 148T522 495z"/><glyph glyph-name="feh.fina" unicode="ف" horiz-adv-x="834" arabic-form="final" d="m656 525-52-49-52 49 52 50zM106 180q0-68 68.5-101.5T383 45q43 0 83 4.5T543 63q-49 32-76 77t-27 95q0 73 45.5 119T604 400t118.5-46T768 235q0-47-24.5-90T672 68q31-6 64-9.5t69-3.5h29V0h-39q-52 0-100 8t-89 23Q559 11 503 .5T383-10q-163 0-243 47T60 179q0 30 12 63t33 60l33-22q-16-24-24-48.5t-8-51.5zm498 163q-57 0-88.5-28.5T484 235q0-45 33.5-84.5T611 87q54 26 83.5 64.5T724 235q0 50-32.5 79T604 343z"/><glyph glyph-name="feh.medi" unicode="ف" horiz-adv-x="473" arabic-form="medial" d="M30 0H0q-9 0-15 8t-6 19q0 12 6 20t15 8h42q34 0 64.5 3t58.5 9q-53 33-82.5 77T53 235q0 73 50.5 119T234 400q79 0 128-46t49-119q0-48-27-91t-78-75q32-7 66.5-10.5T444 55h29V0h-39q-55 0-105 8.5T235 33q-44-16-96-24.5T30 0zm204 343q-65 0-101-28.5T97 235q0-41 38-81t103-65q61 25 95 63t34 83q0 50-36 79t-97 29zm52 182-52-49-52 49 52 50z"/><glyph glyph-name="feh.init" unicode="ف" horiz-adv-x="470" d="M57 0H0q-9 0-15 8t-6 19q0 12 6 20t15 8h57q140 0 211 44t77 134q-34-12-70.5-17.5T199 210q-88 0-133.5 33T20 338q0 83 49.5 148.5T182 552q87 0 147.5-90.5T390 255q0-129-82-192T57 0zm124 495q-44 0-80.5-42.5T64 354q0-45 37-66t115-21q37 0 66 4.5t62 14.5q-10 87-56.5 148T181 495zm49 182-52-49-52 49 52 50z"/><glyph glyph-name="ghaf.isol" unicode="ق" horiz-adv-x="710" arabic-form="isolated" d="m424 460-52-49-52 49 52 50zm120 0-52-49-52 49 52 50zM422 332q87 0 147.5-90.5T630 35q0-145-73-219t-216-74q-138 0-209.5 55T60-41q0 30 12 63t33 60l33-22q-16-24-24-48.5T106-40q0-80 60-121.5T341-203q118 0 179 54t66 162Q551 1 514.5-4.5T439-10q-88 0-133.5 33T260 118q0 83 49.5 148.5T422 332zm-1-57q-44 0-80.5-42.5T304 134q0-45 37-66t115-21q37 0 66 4.5T584 66q-10 87-56.5 148T421 275z"/><glyph glyph-name="ghaf.fina" unicode="ق" horiz-adv-x="755" arabic-form="final" d="m424 460-52-49-52 49 52 50zm120 0-52-49-52 49 52 50zM755 55V0H629q-9-117-80-173.5T341-230q-142 0-211.5 47T60-41q0 30 12 63t33 60l33-22q-16-24-24-48.5T106-40q0-68 58-101.5T341-175q117 0 176.5 42.5T585 0H439q-89 0-134 30t-45 88q0 83 49.5 148.5T422 332q83 0 142-82.5T629 55h126zm-451 79q0-41 36.5-60T456 55h129q-7 90-54.5 155T421 275q-44 0-80.5-42.5T304 134z"/><glyph glyph-name="ghaf.medi" unicode="ق" horiz-adv-x="473" arabic-form="medial" d="M30 0H0q-9 0-15 8t-6 19q0 12 6 20t15 8h42q34 0 64.5 3t58.5 9q-53 33-82.5 77T53 235q0 73 50.5 119T234 400q79 0 128-46t49-119q0-48-27-91t-78-75q32-7 66.5-10.5T444 55h29V0h-39q-55 0-105 8.5T235 33q-44-16-96-24.5T30 0zm204 343q-65 0-101-28.5T97 235q0-41 38-81t103-65q61 25 95 63t34 83q0 50-36 79t-97 29zm-8 182-52-49-52 49 52 50zm120 0-52-49-52 49 52 50z"/><glyph glyph-name="ghaf.init" unicode="ق" horiz-adv-x="450" d="M57 0H0q-9 0-15 8t-6 19q0 12 6 20t15 8h57q140 0 211 44t77 134q-34-12-70.5-17.5T199 210q-88 0-133.5 33T20 338q0 83 49.5 148.5T182 552q87 0 147.5-90.5T390 255q0-129-82-192T57 0zm124 495q-44 0-80.5-42.5T64 354q0-45 37-66t115-21q37 0 66 4.5t62 14.5q-10 87-56.5 148T181 495zm-11 182-52-49-52 49 52 50zm120 0-52-49-52 49 52 50z"/><glyph glyph-name="kafArabic.isol" unicode="ك" horiz-adv-x="742" arabic-form="isolated" d="M680 59Q633 27 548 8.5T363-10q-150 0-226.5 47.5T60 179q0 30 12 63t33 60l33-22q-16-24-24-48.5t-8-51.5q0-68 64-101.5T363 45q84 0 158.5 11.5T641 89q6 41 8.5 77.5T652 243v462h48V243q0-48-5-95.5T680 59zM535 326q0-26-36.5-40T392 272q-22 0-48 2.5t-56 8.5l10 46q24-6 52.5-9t54.5-3q27 0 52 2.5t41 7.5q-10 10-29 22.5T411 384q-51 29-72 45.5T318 463q0 27 52.5 57.5T503 569l10-38q-54-13-92-29t-64-37l125-75q27-16 40-31.5t13-32.5z"/><glyph glyph-name="kafArabic.fina" unicode="ك" horiz-adv-x="821" arabic-form="final" d="M814 55h7V0h-7q-48 0-82.5 14.5T677 57Q628 26 542 8T353-10q-145 0-219 47.5T60 179q0 30 12 63t33 60l33-22q-16-24-24-48.5t-8-51.5q0-68 61.5-101.5T353 45q98 0 176.5 13.5T659 98q-4 11-5.5 24t-1.5 29v554h48V147q0-45 29-68.5T814 55zM535 326q0-26-36.5-40T392 272q-26 0-53.5 3t-50.5 8l10 46q24-6 52.5-9t54.5-3q27 0 52 2.5t41 7.5q-10 10-29 22.5T411 384q-51 29-72 45.5T318 463q0 27 52.5 57.5T503 569l10-38q-54-13-92-29t-64-37l125-75q27-16 40-31.5t13-32.5z"/><glyph glyph-name="kafArabic.medi" unicode="ك" horiz-adv-x="540" arabic-form="medial" d="M337 76q-49-33-142.5-54.5T0 0q-9 0-15 8t-6 19q0 12 6 20t15 8q103 0 179 14.5T304 112q-10 12-15 19t-9 13L54 465q-10 14-13.5 21.5T37 501q0 9 4.5 17T56 534q64 57 157 107.5T389 715l13-46q-86-27-170-71.5T86 500l198-277q67-93 119.5-130.5T535 55h5V0h-10q-58 0-105 18.5T337 76z"/><glyph glyph-name="kafArabic.init" unicode="ك" horiz-adv-x="423" d="M338 142q0-67-87.5-104.5T0 0q-9 0-15 8t-6 19q0 12 6 20t15 8q134 0 206 16.5t90 53.5q0 23-14 52.5T230 262L88 465q-10 14-13.5 21.5T71 501q0 9 4.5 17T90 534q64 57 157 107.5T423 715l13-46q-86-27-170-71.5T120 500q168-235 193-279t25-79z"/><glyph glyph-name="kaf.isol" unicode="ک" horiz-adv-x="779" arabic-form="isolated" d="M106 180q0-67 63-101t187-34q125 0 201.5 21t94.5 59q0 23-15 55t-51 82L444 465q-10 14-13.5 21.5T427 501q0 9 4.5 17t14.5 16q64 57 157 107.5T779 715l13-46q-86-27-170-71.5T476 500q168-235 193-279t25-79q0-72-87-112T358-10q-147 0-222.5 48T60 179q0 31 12 63t33 60l33-22q-15-22-23.5-48t-8.5-52z"/><glyph glyph-name="kaf.fina" unicode="ک" horiz-adv-x="887" arabic-form="final" d="M882 55h5V0h-10q-58 0-104.5 18T685 75q-50-37-141-61T357-10q-145 0-221 48.5T60 179q0 31 12 63t33 60l33-22q-15-22-23.5-48t-8.5-52q0-66 64-100.5T357 45q90 0 165.5 17T652 112q-7 8-13 16l-12 16-226 321q-10 14-13.5 21.5T384 501q0 9 4.5 17t14.5 16q64 57 157 107.5T736 715l13-46q-86-27-170-71.5T433 500l198-277q67-93 119.5-130.5T882 55z"/><glyph glyph-name="kaf.medi" unicode="ک" horiz-adv-x="540" arabic-form="medial" d="M337 76q-49-33-142.5-54.5T0 0q-9 0-15 8t-6 19q0 12 6 20t15 8q103 0 179 14.5T304 112q-10 12-15 19t-9 13L54 465q-10 14-13.5 21.5T37 501q0 9 4.5 17T56 534q64 57 157 107.5T389 715l13-46q-86-27-170-71.5T86 500l198-277q67-93 119.5-130.5T535 55h5V0h-10q-58 0-105 18.5T337 76z"/><glyph glyph-name="kaf.init" unicode="ک" horiz-adv-x="423" d="M338 142q0-67-87.5-104.5T0 0q-9 0-15 8t-6 19q0 12 6 20t15 8q134 0 206 16.5t90 53.5q0 23-14 52.5T230 262L88 465q-10 14-13.5 21.5T71 501q0 9 4.5 17T90 534q64 57 157 107.5T423 715l13-46q-86-27-170-71.5T120 500q168-235 193-279t25-79z"/><glyph glyph-name="gaf.isol" unicode="گ" horiz-adv-x="779" arabic-form="isolated" d="m459 616-26 36q54 39 122 77t130 64l19-38q-59-25-124.5-62T459 616zM106 180q0-67 63-101t187-34q125 0 201.5 21t94.5 59q0 23-15 55t-51 82L444 465q-10 14-13.5 21.5T427 501q0 9 4.5 17t14.5 16q64 57 157 107.5T779 715l13-46q-86-27-170-71.5T476 500q168-235 193-279t25-79q0-72-87-112T358-10q-147 0-222.5 48T60 179q0 31 12 63t33 60l33-22q-15-22-23.5-48t-8.5-52z"/><glyph glyph-name="gaf.fina" unicode="گ" horiz-adv-x="887" arabic-form="final" d="m416 616-26 36q54 39 122 77t130 64l19-38q-59-25-124.5-62T416 616zM882 55h5V0h-10q-58 0-104.5 18T685 75q-50-37-141-61T357-10q-145 0-221 48.5T60 179q0 31 12 63t33 60l33-22q-15-22-23.5-48t-8.5-52q0-66 64-100.5T357 45q91 0 166.5 17T652 112q-7 8-13 16l-12 16-226 321q-10 14-13.5 21.5T384 501q0 9 4.5 17t14.5 16q64 57 157 107.5T736 715l13-46q-86-27-170-71.5T433 500l198-277q67-93 119.5-130.5T882 55z"/><glyph glyph-name="gaf.medi" unicode="گ" horiz-adv-x="540" arabic-form="medial" d="m69 616-26 36q54 39 122 77t130 64l19-38q-59-25-124.5-62T69 616zM337 76q-50-33-143.5-54.5T0 0q-9 0-15 8t-6 19q0 12 6 20t15 8q103 0 179 14.5T304 112q-10 12-15 19t-9 13L54 465q-10 14-13.5 21.5T37 501q0 9 4.5 17T56 534q64 57 157 107.5T389 715l13-46q-86-27-170-71.5T86 500l198-277q67-93 119.5-130.5T535 55h5V0h-10q-58 0-105 18.5T337 76z"/><glyph glyph-name="gaf.init" unicode="گ" horiz-adv-x="423" d="m103 616-26 36q54 39 122 77t130 64l19-38q-59-25-124.5-62T103 616zm235-474q0-67-87.5-104.5T0 0q-9 0-15 8t-6 19q0 12 6 20t15 8q134 0 206 16.5t90 53.5q0 23-14 52.5T230 262L88 465q-10 14-13.5 21.5T71 501q0 9 4.5 17T90 534q64 57 157 107.5T423 715l13-46q-86-27-170-71.5T120 500q168-235 193-279t25-79z"/><glyph glyph-name="lam.isol" unicode="ل" horiz-adv-x="641" arabic-form="isolated" d="M481-70q6 38 9 75.5t3 81.5v618h48V87q0-48-5-95.5T521-97q-56-39-120-60t-129-21q-104 0-162 48.5T52 4q0 37 13.5 82t36.5 84l36-16q-17-35-27.5-73T100 15q0-68 45-103t133-35q53 0 106.5 14T481-70z"/><glyph glyph-name="lam.fina" unicode="ل" horiz-adv-x="662" arabic-form="final" d="M481-70q6 38 9 75.5t3 81.5v618h48V162q0-55 28-81t88-26h5V0h-20q-31 0-57.5 11T540 42q-2-36-6.5-71.5T521-97q-56-39-120-60t-129-21q-104 0-162 48.5T52 4q0 37 13.5 82t36.5 84l36-16q-17-35-27.5-73T100 15q0-68 45-103t133-35q53 0 106.5 14T481-70z"/><glyph glyph-name="lam.medi" unicode="ل" horiz-adv-x="328" arabic-form="medial" d="M4 0H0q-9 0-15 8t-6 19q0 12 6 20t15 8h7q50 0 89.5 15t62.5 43v592h48V162q0-55 28-81t88-26h5V0h-20q-43 0-76.5 20T183 73q-27-31-77-52T4 0z"/><glyph glyph-name="lam.init" unicode="ل" horiz-adv-x="307" d="M7 0H0q-9 0-15 8t-6 19q0 12 6 20t15 8h7q74 0 113 28.5t39 83.5v538h48V171q0-83-52-127T7 0z"/><glyph glyph-name="mim.isol" unicode="م" horiz-adv-x="642" arabic-form="isolated" d="M90-19q0-42 11.5-110T132-271l-47-13q-22 90-32.5 155T42-23q0 74 32 119.5t89 55.5q41 100 93 150t114 50q46 0 91-30t76-81q28-47 36.5-99.5T569 39q-22-23-60.5-36T425-10q-76 0-144.5 28T164 97q-37-8-55.5-36.5T90-19zM531 90q0 79-50.5 143T368 297q-49 0-89-38.5T205 138q46-46 101.5-69.5T425 45q52 0 79 11.5T531 90z"/><glyph glyph-name="mim.fina" unicode="م" horiz-adv-x="693" arabic-form="final" d="M90-19q0-42 11.5-110T132-271l-47-13q-22 90-32.5 155T42-23q0 74 32 119.5t89 55.5q41 100 93 150t114 50q61 0 113.5-49.5T571 162q27-70 47-88.5T688 55h5V0h-7q-47 0-74 11.5T563 50q-17-30-51.5-45T425-10q-76 0-145 28.5T164 97q-37-8-55.5-37T90-19zM531 90q0 79-50.5 143T368 297q-49 0-89-39t-74-120q46-46 101.5-69.5T425 45q52 0 79 11.5T531 90z"/><glyph glyph-name="mim.medi" unicode="م" horiz-adv-x="693" arabic-form="medial" d="M2 0H0q-9 0-15 8t-6 19q0 12 6 20t15 8h6q54 0 90 30.5T175 187q58 96 98.5 130.5T370 352q61 0 113.5-49.5T571 162q27-70 47-88.5T688 55h5V0h-7q-47 0-74 11.5T563 50q-17-30-51.5-45T425-10q-74 0-142.5 27.5T167 94q-39-50-76.5-72T2 0zm529 90q0 79-50.5 143T368 297q-45 0-75.5-27.5T218 169q-7-11-10-16t-7-11q46-47 103-72t121-25q52 0 79 11.5T531 90z"/><glyph glyph-name="mim.init" unicode="م" horiz-adv-x="642" d="M2 0H0q-9 0-15 8t-6 19q0 12 6 20t15 8h6q54 0 90 30.5T175 187q58 96 98.5 130.5T370 352q46 0 91-30t76-81q28-47 36.5-99.5T569 39q-22-23-60.5-36T425-10q-74 0-141.5 27.5T168 94q-39-51-76.5-72.5T2 0zm529 90q0 79-50.5 143T368 297q-45 0-75.5-27.5T218 169q-6-9-9.5-15t-7.5-12q46-47 103-72t121-25q52 0 79 11.5T531 90z"/><glyph glyph-name="noonGhuna.isol" unicode="ں" horiz-adv-x="703" arabic-form="isolated" d="m493 355 48 22q52-105 69.5-238T600-96q-40-37-112.5-58T328-175q-130 0-199 56.5T60 45q0 44 19 94.5T135 242l33-21q-34-57-47.5-95.5T107 51q0-88 55.5-129.5T335-120q70 0 129 13t102 39q13 97-6.5 208.5T493 355z"/><glyph glyph-name="noonGhuna.fina" unicode="ں" horiz-adv-x="757" arabic-form="final" d="M614 50q6-57 2.5-109T600-156q-40-37-112.5-58T328-235q-130 0-199 56.5T60-15q0 44 19 94.5T135 182l33-21q-34-57-47.5-95.5T107-9q0-88 55.5-129.5T335-180q70 0 129 13t102 39q13 97-6.5 208.5T493 295l48 22q19-49 31-81t22-60q29-80 57-100.5T751 55h6V0h-6q-54 0-84.5 11.5T614 50z"/><glyph glyph-name="noon.isol" unicode="ن" horiz-adv-x="703" arabic-form="isolated" d="m493 355 48 22q52-105 69.5-238T600-96q-40-37-112.5-58T328-175q-130 0-199 56.5T60 45q0 44 19 94.5T135 242l33-21q-34-57-47.5-95.5T107 51q0-88 55.5-129.5T335-120q70 0 129 13t102 39q13 97-6.5 208.5T493 355zm-99 163-52-49-52 49 52 50z"/><glyph glyph-name="noon.fina" unicode="ن" horiz-adv-x="757" arabic-form="final" d="M614 50q6-57 2.5-109T600-156q-40-37-112.5-58T328-235q-130 0-199 56.5T60-15q0 44 19 94.5T135 182l33-21q-34-57-47.5-95.5T107-9q0-88 55.5-129.5T335-180q70 0 129 13t102 39q13 97-6.5 208.5T493 295l48 22q19-49 31-81t22-60q29-80 57-100.5T751 55h6V0h-6q-54 0-84.5 11.5T614 50zM394 449l-52-49-52 49 52 50z"/><glyph glyph-name="noon.medi" unicode="ن" horiz-adv-x="358" arabic-form="medial" d="M4 0H0q-9 0-15 8t-6 19q0 12 6 20t15 8h7q50 0 89.5 15t62.5 43v144h48v-95q0-55 35.5-81T353 55h5V0h-20q-55 0-97 20t-57 54q-28-32-77.5-53T4 0zm233 432-52-49-52 49 52 50z"/><glyph glyph-name="noon.init" unicode="ن" horiz-adv-x="322" d="M11 0H0q-9 0-15 8t-6 19q0 12 6 20t15 8h5q58 0 107 9.5T201 93q0 92-4.5 128.5T183 301l48 11q15-75 15.5-135T233 59q-45-30-99.5-44.5T11 0zm193 477-52-49-52 49 52 50z"/><glyph glyph-name="vav.isol" unicode="و" horiz-adv-x="497" arabic-form="isolated" d="M372 246q23-41 36.5-89.5T422 65q0-64-20.5-121.5T341-158q-42-48-98-74t-115-26q-24 0-51.5 5T30-240l11 38q20-4 36-5.5t35-1.5q92 0 166 60t99 161Q348 1 318-4.5T257-10q-95 0-140 40.5T72 155t46 140.5T225 352q42 0 80-27.5t67-78.5zm-148 49q-46 0-77-38.5T116 154q0-57 32.5-82T258 47q32 0 58.5 4.5T375 66q-12 105-52.5 167T224 295z"/><glyph glyph-name="vav.fina" unicode="و" horiz-adv-x="506" arabic-form="final" d="M372 246q23-41 36.5-89.5T422 65V55h84V0h-90q-20-113-102.5-185.5T128-258q-24 0-51.5 5T30-240l11 38q20-4 36-5.5t35-1.5q88 0 161 57T374 0H256q-93 0-138.5 38.5T72 155q0 84 46 140.5T225 352q42 0 80-27.5t67-78.5zm-256-92q0-53 32.5-76T257 55h119q-10 109-51.5 174.5T224 295q-46 0-77-38.5T116 154z"/><glyph glyph-name="vavHamzeAbove.isol" unicode="ؤ" horiz-adv-x="497" arabic-form="isolated" d="M372 246q23-41 36.5-89.5T422 65q0-64-20.5-121.5T341-158q-42-48-98-74t-115-26q-24 0-51.5 5T30-240l11 38q20-4 36-5.5t35-1.5q92 0 166 60t99 161Q348 1 318-4.5T257-10q-95 0-140 40.5T72 155t46 140.5T225 352q42 0 80-27.5t67-78.5zm-148 49q-46 0-77-38.5T116 154q0-57 32.5-82T258 47q32 0 58.5 4.5T375 66q-12 105-52.5 167T224 295zm92 193v-38l-180-27v38l47 8q-10 14-14.5 29t-4.5 32q0 30 20.5 48.5T238 597q19 0 35.5-6.5T299 572l-15-27q-18 9-44.5 10.5T197 550q1-29 16-50t34-21q5 0 33 4t36 5z"/><glyph glyph-name="vavHamzeAbove.fina" unicode="ؤ" horiz-adv-x="506" arabic-form="final" d="M372 246q23-41 36.5-89.5T422 65V55h84V0h-90q-20-113-102.5-185.5T128-258q-24 0-51.5 5T30-240l11 38q20-4 36-5.5t35-1.5q88 0 161 57T374 0H256q-93 0-138.5 38.5T72 155q0 84 46 140.5T225 352q42 0 80-27.5t67-78.5zm-256-92q0-53 32.5-76T257 55h119q-10 109-51.5 174.5T224 295q-46 0-77-38.5T116 154zm200 334v-38l-180-27v38l47 8q-10 14-14.5 29t-4.5 32q0 30 20.5 48.5T238 597q19 0 35.5-6.5T299 572l-15-27q-18 9-44.5 10.5T197 550q1-29 16-50t34-21q5 0 33 4t36 5z"/><glyph glyph-name="heh.isol" unicode="ه" horiz-adv-x="470" arabic-form="isolated" d="M60 146q0 66 39 123.5T216 377q93-27 143.5-85T410 158q0-75-50-121.5T230-10q-77 0-123.5 43T60 146zm160 174q-57-35-85.5-77T106 153q0-50 33.5-79T231 45q63 0 98 31t35 87q0 52-36.5 91.5T220 320z"/><glyph glyph-name="heh.fina" unicode="ه" horiz-adv-x="481" arabic-form="final" d="M336 94q-23-15-54.5-23T218 63q-68 0-108.5 35.5T69 194q0 76 67 129t196 77v40h48V147q0-50 21.5-71T474 55h7V0h-7q-60 0-94 23.5T336 94zM115 196q0-38 26.5-58t76.5-20q32 0 61 6.5t53 18.5v199q-105-13-161-52t-56-94z"/><glyph glyph-name="heh.medi" unicode="ه" horiz-adv-x="490" arabic-form="medial" d="M98 0H0q-9 0-15 8t-6 19q0 12 6 20t15 8h95q1 67 27.5 146.5T194 351q22 35 34.5 47t26.5 12q13 0 24-8t29-33q48-63 68-111t20-101q0-25-8.5-50.5T362 55h128V0h-83q23-20 35-45t12-56q0-62-37-98t-101-36q-86 0-146 64T98 0zm250 156q0 49-23 97t-72 103q-49-70-79.5-154T143 55h116q39 0 64 28.5t25 72.5zm58-257q0 47-38 74T264 0H146q10-87 54.5-133.5T316-180q43 0 66.5 20.5T406-101z"/><glyph glyph-name="heh.init" unicode="ه" horiz-adv-x="623" d="M53 0H0q-9 0-15 8t-6 19q0 12 6 20t15 8h46q35 0 66 3t57 9q-58 39-88 84.5T51 248q0 73 47 117t125 44q10 0 19-1t17-3l21 45q127-55 205-150t78-190q0-57-27-93.5T465-20q-54 0-115.5 14T233 33q-38-16-84-24.5T53 0zm168 354q-57 0-89.5-28.5T99 248q0-46 34.5-87.5T231 87q55 24 83.5 65t28.5 96q0 48-33.5 77T221 354zM457 32q28 0 43 18.5t15 53.5q0 57-42.5 123T357 345q17-21 25.5-46t8.5-52q0-57-26-104t-76-80q42-15 85.5-23t82.5-8z"/><glyph glyph-name="tehArabic.isol" unicode="ة" horiz-adv-x="470" arabic-form="isolated" d="M60 146q0 66 39 123.5T216 377q93-27 143.5-85T410 158q0-75-50-121.5T230-10q-77 0-123.5 43T60 146zm160 174q-57-35-85.5-77T106 153q0-50 33.5-79T231 45q63 0 98 31t35 87q0 52-36.5 91.5T220 320zm-12 164-52-49-52 49 52 50zm120 0-52-49-52 49 52 50z"/><glyph glyph-name="tehArabic.fina" unicode="ة" horiz-adv-x="481" arabic-form="final" d="M336 94q-23-15-54.5-23T218 63q-68 0-108.5 35.5T69 194q0 76 67 129t196 77v40h48V147q0-50 21.5-71T474 55h7V0h-7q-60 0-94 23.5T336 94zM115 196q0-38 26.5-58t76.5-20q32 0 61 6.5t53 18.5v199q-105-13-161-52t-56-94zm169 369-52-49-52 49 52 50zm120 0-52-49-52 49 52 50z"/><glyph glyph-name="hehUrdu.isol" unicode="ہ" horiz-adv-x="470" arabic-form="isolated" d="M60 146q0 66 39 123.5T216 377q93-27 143.5-85T410 158q0-75-50-121.5T230-10q-77 0-123.5 43T60 146zm160 174q-57-35-85.5-77T106 153q0-50 33.5-79T231 45q63 0 98 31t35 87q0 52-36.5 91.5T220 320z"/><glyph glyph-name="hehUrdu.fina" unicode="ہ" horiz-adv-x="553" arabic-form="final" d="M340 153q63-60 104-79t88-19h21V0h-13q-60 0-110 21t-120 87q-54 50-84 64.5T164 187q-29 0-54.5-5.5T60 164l6 56q24 10 52.5 16t53.5 6q39 0 74.5-17t93.5-72z"/><glyph glyph-name="hehUrdu.medi" unicode="ہ" horiz-adv-x="555" arabic-form="medial" d="M7 0H0q-9 0-15 8t-6 19q0 12 6 20t15 8h7q76 0 120.5 50T192 261l49-7q-19-141 6.5-221.5T363-127Q347-43 392 6t138 49h25V0h-11Q444 0 413-39t-1-127l-34-39q-88 57-136.5 139.5T194 108q-30-53-78-80.5T7 0z"/><glyph glyph-name="hehUrdu.init" unicode="ہ" horiz-adv-x="319" d="M11 0H0q-9 0-15 8t-6 19q0 12 6 20t15 8h5q58 0 107 9.5T201 93q0 48-5 84t-16 74l48 11q14-53 15.5-102.5T233 59q-45-30-99.5-44.5T11 0zm145-112q0-8 3-12t11-5q12-1 20.5-11.5T199-166q0-16-10.5-27T163-204q-20 0-34.5 17.5T114-143q0 21 6.5 43.5T138-58l29-11q-5-12-8-24t-3-19z"/><glyph glyph-name="hehDocheshm.isol" unicode="ھ" horiz-adv-x="623" arabic-form="isolated" d="M242 29q-28-13-64-26T67-32L14-48-2 3l46 13q76 22 98.5 29T182 59q-64 38-97.5 86.5T51 248q0 73 47 117t125 44q10 0 19-1t17-3l21 45q127-55 205-150t78-190q0-57-27-93.5T465-20q-51 0-110 13T242 29zm-21 325q-57 0-89.5-28.5T99 248q0-48 36.5-90.5T239 84q55 28 79.5 67t24.5 97q0 48-33.5 77T221 354zM457 32q28 0 43 18.5t15 53.5q0 57-42.5 123T357 345q17-22 25.5-46.5T391 247q0-62-22.5-108T298 60q40-13 81-20.5t78-7.5z"/><glyph glyph-name="hehDocheshm.fina" unicode="ھ" horiz-adv-x="490" arabic-form="final" d="m18-19-4 54 81 7v10q0 67 27 147.5T194 351q22 35 34.5 47t26.5 12q13 0 24-8t29-33q48-63 68-111t20-101q0-25-8.5-50.5T362 55h128V0h-83q23-20 35-45t12-56q0-62-37-98t-101-36q-83 0-142.5 60.5T99-12zm235 375q-50-71-80-155T143 52v-5l102 9q49 4 76 30.5t27 69.5q0 49-23 97t-72 103zm153-457q0 53-42.5 81.5T247 2L147-7q11-83 55-128t114-45q43 0 66.5 20.5T406-101z"/><glyph glyph-name="hehDocheshm.medi" unicode="ھ" horiz-adv-x="490" arabic-form="medial" d="M98 0H0q-9 0-15 8t-6 19q0 12 6 20t15 8h95q1 67 27.5 146.5T194 351q22 35 34.5 47t26.5 12q13 0 24-8t29-33q48-63 68-111t20-101q0-25-8.5-50.5T362 55h128V0h-83q23-20 35-45t12-56q0-62-37-98t-101-36q-86 0-146 64T98 0zm250 156q0 49-23 97t-72 103q-49-70-79.5-154T143 55h116q39 0 64 28.5t25 72.5zm58-257q0 47-38 74T264 0H146q10-87 54.5-133.5T316-180q43 0 66.5 20.5T406-101z"/><glyph glyph-name="hehDocheshm.init" unicode="ھ" horiz-adv-x="623" d="M53 0H0q-9 0-15 8t-6 19q0 12 6 20t15 8h46q35 0 66 3t57 9q-58 39-88 84.5T51 248q0 73 47 117t125 44q10 0 19-1t17-3l21 45q127-55 205-150t78-190q0-57-27-93.5T465-20q-54 0-115.5 14T233 33q-38-16-84-24.5T53 0zm168 354q-57 0-89.5-28.5T99 248q0-46 34.5-87.5T231 87q55 24 83.5 65t28.5 96q0 48-33.5 77T221 354zM457 32q28 0 43 18.5t15 53.5q0 57-42.5 123T357 345q17-21 25.5-46t8.5-52q0-57-26-104t-76-80q42-15 85.5-23t82.5-8z"/><glyph glyph-name="hehHamzehAbove.fina" unicode="ۂ" horiz-adv-x="553" d="M340 153q63-60 104-79t88-19h21V0h-13q-60 0-110 21t-120 87q-54 50-84 64.5T164 187q-29 0-54.5-5.5T60 164l6 56q24 10 52.5 16t53.5 6q39 0 74.5-17t93.5-72zm-85 225v-38L75 313v38l47 8q-10 14-14.5 29t-4.5 32q0 30 20.5 48.5T177 487q19 0 35.5-6.5T238 462l-15-27q-18 9-44.5 10.5T136 440q1-29 16-50t34-21q5 0 33 4t36 5z"/><glyph glyph-name="hehTehUrdu.fina" unicode="ۃ" horiz-adv-x="553" d="M340 153q63-60 104-79t88-19h21V0h-13q-60 0-110 21t-120 87q-54 50-84 64.5T164 187q-29 0-54.5-5.5T60 164l6 56q24 10 52.5 16t53.5 6q39 0 74.5-17t93.5-72zM156 367l-52-49-52 49 52 50zm120 0-52-49-52 49 52 50z"/><glyph glyph-name="yeh.isol" unicode="ی" horiz-adv-x="704" arabic-form="isolated" d="M335-210q-135 0-205 55T60 7q0 30 12 63t33 60l33-22q-16-24-24-48.5T106 8q0-80 58.5-121.5T335-155q103 0 186 38t111 92q-3 22-26 41.5T507 69q-54 24-80 38.5T383 137q-33 25-49 55t-16 65q0 67 54 117t132 50q62 0 113-36t72-91l-32-25q-36 50-78 73.5T484 369q-52 0-85-33t-33-79q0-38 30.5-68T525 116q90-38 117.5-64T670-5q0-42-34.5-85T542-163q-45-23-97.5-35T335-210z"/><glyph glyph-name="yeh.fina" unicode="ی" horiz-adv-x="758" arabic-form="final" d="M409 0h-11l24 55h336V0H615q9-8 13.5-18t4.5-22q0-37-34-83t-89-80q-44-27-95.5-41T308-258q-118 0-183 54T60-53Q60-1 81 61.5T138 181l35-18q-30-55-47.5-109.5T108-42q0-79 52.5-120.5T314-203q103 1 178.5 47T590-37q-21 17-70 27T409 0z"/><glyph glyph-name="yeh.medi" unicode="ی" horiz-adv-x="358" arabic-form="medial" d="M4 0H0q-9 0-15 8t-6 19q0 12 6 20t15 8h7q50 0 89.5 15t62.5 43v144h48v-95q0-55 35.5-81T353 55h5V0h-20q-55 0-97 20t-57 54q-28-32-77.5-53T4 0zm173-126-52-49-52 49 52 50zm120 0-52-49-52 49 52 50z"/><glyph glyph-name="yeh.init" unicode="ی" horiz-adv-x="322" d="M11 0H0q-9 0-15 8t-6 19q0 12 6 20t15 8h5q58 0 107 9.5T201 93q0 92-4.5 128.5T183 301l48 11q15-75 15.5-135T233 59q-45-30-99.5-44.5T11 0zm160-126-52-49-52 49 52 50zm120 0-52-49-52 49 52 50z"/><glyph glyph-name="yehArabic.isol" unicode="ي" horiz-adv-x="704" arabic-form="isolated" d="M335-210q-135 0-205 55T60 7q0 30 12 63t33 60l33-22q-16-24-24-48.5T106 8q0-80 58.5-121.5T335-155q103 0 186 38t111 92q-3 22-26 41.5T507 69q-54 24-80 38.5T383 137q-33 25-49 55t-16 65q0 67 54 117t132 50q62 0 113-36t72-91l-32-25q-36 50-78 73.5T484 369q-52 0-85-33t-33-79q0-38 30.5-68T525 116q90-38 117.5-64T670-5q0-42-34.5-85T542-163q-45-23-97.5-35T335-210zm-2-116-52-49-52 49 52 50zm120 0-52-49-52 49 52 50z"/><glyph glyph-name="yehArabic.fina" unicode="ي" horiz-adv-x="758" arabic-form="final" d="M409 0h-11l24 55h336V0H615q9-8 13.5-18t4.5-22q0-37-34-83t-89-80q-44-27-95.5-41T308-258q-118 0-183 54T60-53Q60-1 81 61.5T138 181l35-18q-30-55-47.5-109.5T108-42q0-79 52.5-120.5T314-203q103 1 178.5 47T590-37q-21 17-70 27T409 0zM291-384l-52-49-52 49 52 50zm120 0-52-49-52 49 52 50z"/><glyph glyph-name="yehArabic.medi" unicode="ي" horiz-adv-x="358" arabic-form="medial" d="M4 0H0q-9 0-15 8t-6 19q0 12 6 20t15 8h7q50 0 89.5 15t62.5 43v144h48v-95q0-55 35.5-81T353 55h5V0h-20q-55 0-97 20t-57 54q-28-32-77.5-53T4 0zm173-126-52-49-52 49 52 50zm120 0-52-49-52 49 52 50z"/><glyph glyph-name="yehArabic.init" unicode="ي" horiz-adv-x="322" d="M11 0H0q-9 0-15 8t-6 19q0 12 6 20t15 8h5q58 0 107 9.5T201 93q0 92-4.5 128.5T183 301l48 11q15-75 15.5-135T233 59q-45-30-99.5-44.5T11 0zm160-126-52-49-52 49 52 50zm120 0-52-49-52 49 52 50z"/><glyph glyph-name="yehHamze.isol" unicode="ئ" horiz-adv-x="704" arabic-form="isolated" d="M335-210q-135 0-205 55T60 7q0 30 12 63t33 60l33-22q-16-24-24-48.5T106 8q0-80 58.5-121.5T335-155q103 0 186 38t111 92q-3 22-26 41.5T507 69q-54 24-80 38.5T383 137q-33 25-49 55t-16 65q0 67 54 117t132 50q62 0 113-36t72-91l-32-25q-36 50-78 73.5T484 369q-52 0-85-33t-33-79q0-38 30.5-68T525 116q90-38 117.5-64T670-5q0-42-34.5-85T542-163q-45-23-97.5-35T335-210zm-95 516v-38L60 241v38l47 8q-10 14-14.5 29T88 348q0 30 20.5 48.5T162 415q19 0 35.5-6.5T223 390l-15-27q-18 9-44.5 10.5T121 368q1-29 16-50t34-21q5 0 33 4t36 5z"/><glyph glyph-name="yehHamze.fina" unicode="ئ" horiz-adv-x="758" arabic-form="final" d="M409 0h-11l24 55h336V0H615q9-8 13.5-18t4.5-22q0-37-34-83t-89-80q-44-27-95.5-41T308-258q-118 0-183 54T60-53Q60-1 81 61.5T138 181l35-18q-30-55-47.5-109.5T108-42q0-79 52.5-120.5T314-203q103 1 178.5 47T590-37q-21 17-70 27T409 0zM281 326v-38l-180-27v38l47 8q-10 14-14.5 29t-4.5 32q0 30 20.5 48.5T203 435q19 0 35.5-6.5T264 410l-15-27q-18 9-44.5 10.5T162 388q1-29 16-50t34-21q5 0 33 4t36 5z"/><glyph glyph-name="yehHamze.medi" unicode="ئ" horiz-adv-x="358" arabic-form="medial" d="M4 0H0q-9 0-15 8t-6 19q0 12 6 20t15 8h7q50 0 89.5 15t62.5 43v144h48v-95q0-55 35.5-81T353 55h5V0h-20q-55 0-97 20t-57 54q-28-32-77.5-53T4 0zm272 443v-38L96 378v38l47 8q-10 14-14.5 29t-4.5 32q0 30 20.5 48.5T198 552q19 0 35.5-6.5T259 527l-15-27q-18 9-44.5 10.5T157 505q1-29 16-50t34-21q5 0 33 4t36 5z"/><glyph glyph-name="yehHamze.init" unicode="ئ" horiz-adv-x="322" d="M11 0H0q-9 0-15 8t-6 19q0 12 6 20t15 8h5q58 0 107 9.5T201 93q0 92-4.5 128.5T183 301l48 11q15-75 15.5-135T233 59q-45-30-99.5-44.5T11 0zm232 488v-38L63 423v38l47 8q-10 14-14.5 29T91 530q0 30 20.5 48.5T165 597q19 0 35.5-6.5T226 572l-15-27q-18 9-44.5 10.5T124 550q1-29 16-50t34-21q5 0 33 4t36 5z"/><glyph glyph-name="alefMaghsureh.isol" unicode="ى" horiz-adv-x="704" arabic-form="isolated" d="M335-210q-135 0-205 55T60 7q0 30 12 63t33 60l33-22q-16-24-24-48.5T106 8q0-80 58.5-121.5T335-155q103 0 186 38t111 92q-3 22-26 41.5T507 69q-54 24-80 38.5T383 137q-33 25-49 55t-16 65q0 67 54 117t132 50q62 0 113-36t72-91l-32-25q-36 50-78 73.5T484 369q-52 0-85-33t-33-79q0-38 30.5-68T525 116q90-38 117.5-64T670-5q0-42-34.5-85T542-163q-45-23-97.5-35T335-210z"/><glyph glyph-name="alefMaghsureh.fina" unicode="ى" horiz-adv-x="758" arabic-form="final" d="M409 0h-11l24 55h336V0H615q9-8 13.5-18t4.5-22q0-37-34-83t-89-80q-44-27-95.5-41T308-258q-118 0-183 54T60-53Q60-1 81 61.5T138 181l35-18q-30-55-47.5-109.5T108-42q0-79 52.5-120.5T314-203q103 1 178.5 47T590-37q-21 17-70 27T409 0z"/><glyph glyph-name="yehBaree.isol" unicode="ے" horiz-adv-x="591" arabic-form="isolated" d="M60 163q0 75 52 123.5T239 335q24 0 47.5-5t36.5-13l-18-50q-16 6-36.5 9.5T227 280q-53 0-86-31t-33-80q0-54 33.5-84T237 55h274l-6-55H245q-83 0-134 44.5T60 163z"/><glyph glyph-name="yehBaree.fina" unicode="ے" horiz-adv-x="513" arabic-form="final" d="M60-96q0 67 51.5 109T247 55h266V0H237q-63 0-96-25.5T108-99q0-51 33.5-77.5T240-203h228l-4-55H257q-95 0-146 42T60-96z"/><glyph glyph-name="yehBareeHamzehAbove.isol" unicode="ۓ" horiz-adv-x="591" arabic-form="isolated" d="M60 163q0 75 52 123.5T239 335q24 0 47.5-5t36.5-13l-18-50q-16 6-36.5 9.5T227 280q-53 0-86-31t-33-80q0-54 33.5-84T237 55h274l-6-55H245q-83 0-134 44.5T60 163zm261 298v-38l-180-27v38l47 8q-10 14-14.5 29t-4.5 32q0 30 20.5 48.5T243 570q19 0 35.5-6.5T304 545l-15-27q-18 9-44.5 10.5T202 523q1-29 16-50t34-21q5 0 33 4t36 5z"/><glyph glyph-name="yehBareeHamzehAbove.fina" unicode="ۓ" horiz-adv-x="513" arabic-form="final" d="M60-96q0 67 51.5 109T247 55h266V0H237q-63 0-96-25.5T108-99q0-51 33.5-77.5T240-203h228l-4-55H257q-95 0-146 42T60-96zm285 287v-38l-180-27v38l47 8q-10 14-14.5 29t-4.5 32q0 30 20.5 48.5T267 300q19 0 35.5-6.5T328 275l-15-27q-18 9-44.5 10.5T226 253q1-29 16-50t34-21q5 0 33 4t36 5z"/><glyph glyph-name="tashdid_zamehTanvin.cmps" unicode="ﱞ" arabic-form="isolated" d="M114 769q-14-9-28.5-13.5T58 751q-19 0-33 4.5T2 769q-18-10-32-14t-27-4q-32 0-47.5 18t-15.5 55v63h36v-66q0-18 6.5-25t24.5-7q10 0 19.5 3t18.5 9q-3 8-4 18.5t-1 25.5v34h36v-37q0-27 9.5-38.5T56 792q7 0 14.5 2t16.5 5q-2 21-6.5 41T70 877l37 14q11-30 12.5-61t-5.5-61zm-142 274q0 33 21 54.5t53 21.5q34 0 55-21.5t21-55.5q0-48-36.5-75T-16 940h-105v38H4q-15 12-23.5 29.5T-28 1043zm114-3q0 18-11 29.5T46 1081q-17 0-27.5-10.5T8 1043q0-20 10.5-34.5T50 985q19 8 27.5 21t8.5 34z"/><glyph glyph-name="tashdid_fatheh.cmps" unicode="ﱠ" arabic-form="isolated" d="M114 769q-14-9-28.5-13.5T58 751q-19 0-33 4.5T2 769q-18-10-32-14t-27-4q-32 0-47.5 18t-15.5 55v63h36v-66q0-18 6.5-25t24.5-7q10 0 19.5 3t18.5 9q-3 8-4 18.5t-1 25.5v34h36v-37q0-27 9.5-38.5T56 792q7 0 14.5 2t16.5 5q-2 21-6.5 41T70 877l37 14q11-30 12.5-61t-5.5-61zM91 990v-38l-180-27v38z"/><glyph glyph-name="tashdid_zameh.cmps" unicode="ﱡ" arabic-form="isolated" d="M114 769q-14-9-28.5-13.5T58 751q-19 0-33 4.5T2 769q-18-10-32-14t-27-4q-32 0-47.5 18t-15.5 55v63h36v-66q0-18 6.5-25t24.5-7q10 0 19.5 3t18.5 9q-3 8-4 18.5t-1 25.5v34h36v-37q0-27 9.5-38.5T56 792q7 0 14.5 2t16.5 5q-2 21-6.5 41T70 877l37 14q11-30 12.5-61t-5.5-61zM-16 930h-105v38q14 1 21.5 6t7.5 14q0 10-7.5 15t-21.5 5v38q28 2 46.5-12.5T-56 995q0-9-2.5-15.5T-66 968H4q-15 12-23.5 29.5T-28 1033q0 33 21 54.5t53 21.5q34 0 55-21.5t21-55.5q0-48-36.5-75T-16 930zm102 100q0 18-11 29.5T46 1071q-17 0-27.5-10.5T8 1033q0-20 10.5-34.5T50 975q19 8 27.5 21t8.5 34z"/><glyph glyph-name="fatheh_tashdid.cmps" unicode="ﱢ" arabic-form="isolated" d="M91 785v-38l-180-27v38zm13 94q-14-9-28.5-13.5T48 861q-19 0-33 4.5T-8 879q-18-10-32-14t-27-4q-32 0-47.5 18t-15.5 55v63h36v-66q0-18 6.5-25t24.5-7q10 0 19.5 3t18.5 9q-3 8-4 18.5t-1 25.5v34H6v-37q0-27 9.5-38.5T46 902q7 0 14.5 2t16.5 5q-2 21-6.5 41T60 987l37 14q11-30 12.5-61t-5.5-61z"/><glyph glyph-name="tashdid_superScriptAlef.cmps" unicode="ﱣ" arabic-form="isolated" d="M114 769q-14-9-28.5-13.5T58 751q-19 0-33 4.5T2 769q-18-10-32-14t-27-4q-32 0-47.5 18t-15.5 55v63h36v-66q0-18 6.5-25t24.5-7q10 0 19.5 3t18.5 9q-3 8-4 18.5t-1 25.5v34h36v-37q0-27 9.5-38.5T56 792q7 0 14.5 2t16.5 5q-2 21-6.5 41T70 877l37 14q11-30 12.5-61t-5.5-61zM-19 942v147h38V942h-38z"/><glyph glyph-name="fathehTanvin_tashdid.cmps" unicode="ﱟ" arabic-form="isolated" d="M91 865v-38l-180-27v38zm0-80v-38l-180-27v38zm13 164q-14-9-28.5-13.5T48 931q-19 0-33 4.5T-8 949q-18-10-32-14t-27-4q-32 0-47.5 18t-15.5 55v63h36v-66q0-18 6.5-25t24.5-7q10 0 19.5 3t18.5 9q-3 8-4 18.5t-1 25.5v34H6v-37q0-27 9.5-38.5T46 972q7 0 14.5 2t16.5 5q-2 21-6.5 41T60 1057l37 14q11-30 12.5-61t-5.5-61z"/><glyph glyph-name="rial" unicode="﷼" horiz-adv-x="1094" arabic-form="isolated" d="M248 372q0-43 26-64.5t77-21.5q34 0 69 11t73 34v374h48V363q13 9 27.5 20.5T613 419q31 25 47.5 37.5T691 479v226h48V511q47 29 90 42.5t86 13.5q26 0 57.5-6t53.5-15l-7-48q-47 13-66 16t-38 3q-41 0-83.5-15.5T739 453V147q0-50 26-71t88-21q40 0 74.5 8t79.5 30q0 92-4.5 128.5T989 301l48 11q15-75 15.5-135T1039 59q-52-34-93.5-46.5T853 0q-84 0-123 36.5T691 151v268q-11-8-63.5-49.5T541 306V87q0-48-5-95.5T521-97q-56-39-120-60t-129-21q-104 0-162 48.5T52 4q0 37 13.5 82t36.5 84l36-16q-17-35-27.5-73T100 15q0-68 45-103t133-35q53 0 106.5 14T481-70q6 38 9 75.5t3 81.5v191q-41-21-80-31.5T334 236q-61 0-97.5 34T200 361q0 31 13 70.5t37 81.5l36-16q-19-41-28.5-72t-9.5-53zm673-498-52-49-52 49 52 50zm120 0-52-49-52 49 52 50z"/><glyph glyph-name=".notdef" horiz-adv-x="682" d="M587 0H95v685h492V0zM147 638V47h388v591H147z"/><glyph glyph-name=".null"/><glyph glyph-name=".null"/><glyph glyph-name="CR"/><glyph glyph-name="space" horiz-adv-x="180"/><glyph glyph-name="uni00A0" horiz-adv-x="180"/><glyph glyph-name="uni200E" unicode="‎"/><glyph glyph-name="uni200F" unicode="‏"/><glyph glyph-name="A" unicode="A" horiz-adv-x="667" d="M642 0h-55l-86 209H163L78 0H25l283 685h51zM332 621 183 256h299z"/><glyph glyph-name="B" unicode="B" horiz-adv-x="609" d="M287 0H110v685h177q105 0 163.5-46.5T509 509q0-51-27.5-90T404 359q65-20 100-64t35-105q0-88-68-139T287 0zm168 509q0 59-44 94t-119 35H162V380h130q75 0 119 35t44 94zm30-319q0 68-50.5 105.5T292 333H162V47h130q92 0 142.5 37.5T485 190z"/><glyph glyph-name="C" unicode="C" horiz-adv-x="674" d="M116 342q0-128 81-215.5T395 39q59 0 113 25.5t97 74.5l36-37q-54-56-115.5-84T395-10Q253-10 157.5 91T62 342q0 151 95.5 252T395 695q67 0 127-26t110-76l-35-36q-43 44-94.5 66.5T395 646q-120 0-199.5-86.5T116 342z"/><glyph glyph-name="D" unicode="D" horiz-adv-x="700" d="M257 0H110v685h147q176 0 279-92.5T639 342 536 92 257 0zm328 342q0 137-87 216.5T262 638H162V47h100q149 0 236 79.5T585 342z"/><glyph glyph-name="E" unicode="E" horiz-adv-x="568" d="M508 0H110v685h398v-47H162V380h326v-47H162V47h346V0z"/><glyph glyph-name="F" unicode="F" horiz-adv-x="543" d="M162 0h-52v685h388v-47H162V360h316v-47H162V0z"/><glyph glyph-name="G" unicode="G" horiz-adv-x="754" d="M711 309q0-134-92-226.5T395-10Q253-10 157.5 91T62 342q0 151 95.5 252T395 695q67 0 127-26t110-76l-34-36q-43 43-95 66t-108 23q-120 0-199.5-86.5T116 342q0-129 80-216t199-87q106 0 182.5 71T660 285H385v47h325q1-8 1-12v-11z"/><glyph glyph-name="H" unicode="H" horiz-adv-x="732" d="M622 0h-52v333H162V0h-52v685h52V380h408v305h52V0z"/><glyph glyph-name="I" unicode="I" horiz-adv-x="272" d="M162 0h-52v685h52V0z"/><glyph glyph-name="J" unicode="J" horiz-adv-x="450" d="M187-10q-47 0-88 19T25 65l35 35q26-30 59-45.5T187 39q55 0 85.5 37T303 181v504h52V181q0-91-44.5-141T187-10z"/><glyph glyph-name="K" unicode="K" horiz-adv-x="622" d="M212 327h-50V0h-52v685h52V374h50q67 0 99.5 19T395 494l119 191h57L452 494q-35-56-58.5-85T348 363L596 0h-63L303 338q-18-6-40-8.5t-51-2.5z"/><glyph glyph-name="L" unicode="L" horiz-adv-x="498" d="M162 47h306V0H110v685h52V47z"/><glyph glyph-name="M" unicode="M" horiz-adv-x="938" d="M493 0h-50L219 595 134 0H84l102 685h50L471 65l231 620h50L854 0h-52l-87 591z"/><glyph glyph-name="N" unicode="N" horiz-adv-x="726" d="M616 0h-52L160 600V0h-50v685h52L566 85v600h50V0z"/><glyph glyph-name="O" unicode="O" horiz-adv-x="790" d="M62 342q0 151 95.5 252T395 695t237.5-101T728 342q0-150-95.5-251T395-10 157.5 91 62 342zm612 0q0 131-79.5 217.5T395 646t-199.5-86.5T116 342q0-130 79.5-216.5T395 39t199.5 86.5T674 342z"/><glyph glyph-name="P" unicode="P" horiz-adv-x="579" d="M162 0h-52v685h177q116 0 179-52.5T529 482q0-93-65-147.5T287 280H162V0zm313 482q0 75-48 115.5T292 638H162V327h130q88 0 135.5 40T475 482z"/><glyph glyph-name="Q" unicode="Q" horiz-adv-x="790" d="M621 79 730-48l-36-32L584 49q-40-29-88.5-44T395-10Q253-10 157.5 91T62 342q0 151 95.5 252T395 695t237.5-101T728 342q0-78-27.5-146T621 79zM395 646q-120 0-199.5-86.5T116 342q0-130 79.5-216.5T395 39q43 0 82.5 12.5T551 88L431 229l36 32 121-142q41 41 63.5 99T674 342q0 131-79.5 217.5T395 646z"/><glyph glyph-name="R" unicode="R" horiz-adv-x="600" d="M162 0h-52v685h195q97 0 155.5-51.5T519 497q0-66-39.5-115T377 316L559 0h-60L321 309H162V0zm303 497q0 64-42.5 102.5T310 638H162V356h148q70 0 112.5 38.5T465 497z"/><glyph glyph-name="S" unicode="S" horiz-adv-x="566" d="M291 646q-69 0-110.5-33.5T139 522q0-35 16.5-61t52.5-46q19-11 45.5-21.5T334 365q94-31 136-76.5T512 177q0-81-59.5-134T303-10q-76 0-139 29T49 106l34 39q48-54 102-80t118-26q68 0 112.5 39t44.5 99q0 48-33 80.5T303 320q-64 21-94.5 35T156 385q-35 25-52 59t-17 78q0 78 56.5 125.5T291 695q58 0 108-22t96-67l-33-38q-44 40-85 59t-86 19z"/><glyph glyph-name="T" unicode="T" horiz-adv-x="528" d="M238 638H20v47h488v-47H290V0h-52v638z"/><glyph glyph-name="U" unicode="U" horiz-adv-x="678" d="M339-10q-113 0-178.5 73T95 260v425h52V262q0-106 50.5-164.5T339 39t141.5 58.5T531 262v423h52V260q0-124-65.5-197T339-10z"/><glyph glyph-name="V" unicode="V" horiz-adv-x="609" d="M530 685h54L330 0h-51L25 685h56L305 67z"/><glyph glyph-name="W" unicode="W" horiz-adv-x="948" d="M660 0h-51L474 347 339 0h-51L25 685h55L317 66l132 344-107 275h54l80-212 80 212h50L501 416 636 68l234 617h53z"/><glyph glyph-name="X" unicode="X" horiz-adv-x="611" d="M581 0h-64L301 310 88 0H30l242 352L41 685h64l205-295 202 295h58L339 349z"/><glyph glyph-name="Y" unicode="Y" horiz-adv-x="569" d="M494 685h55L311 303V0h-52v303L20 685h58l208-333z"/><glyph glyph-name="Z" unicode="Z" horiz-adv-x="554" d="M110 47h399V0H45v37l389 601H58v47h441v-37z"/><glyph glyph-name="AE" unicode="Æ" horiz-adv-x="860" d="M623 47h177V0H587l-86 209H163L78 0H25l283 685h492v-47H378l107-258h295v-47H504zM332 621 183 256h299z"/><glyph glyph-name="OE" unicode="Œ" horiz-adv-x="997" d="M62 342q0 158 103 250.5T444 685h493v-47H591V380h326v-47H591V47h346V0H444Q268 0 165 92T62 342zm54 0q0-136 87-215.5T439 47h100v591H439q-149 0-236-79.5T116 342z"/><glyph glyph-name="Lslash" unicode="Ł" horiz-adv-x="513" d="M177 47h306V0H125v299l-91-42-19 41 110 51v336h52V374l164 76 19-41-183-85V47z"/><glyph glyph-name="Oslash" unicode="Ø" horiz-adv-x="790" d="M728 342q0-150-95.5-251T395-10q-60 0-115 20t-99 58L95-29 62 0l88 99q-43 48-65.5 110.5T62 342q0 151 95.5 252T395 695q61 0 115.5-20t98.5-59l86 97 33-29-88-99q43-48 65.5-110.5T728 342zM395 646q-120 0-199.5-86.5T116 342q0-59 17.5-111.5T185 138l390 440q-37 33-83 50.5T395 646zm0-607q120 0 199.5 86.5T674 342q0 59-17.5 111T606 546L215 106q37-33 83-50t97-17z"/><glyph glyph-name="Eth" unicode="Ð" horiz-adv-x="715" d="M15 322v45h110v318h147q176 0 279-92.5T654 342 551 92 272 0H125v322H15zm360 45v-45H177V47h100q149 0 236 79.5T600 342q0 137-87 216.5T277 638H177V367h198z"/><glyph glyph-name="Thorn" unicode="Þ" horiz-adv-x="584" d="M529 342q0-93-65-147.5T287 140H162V0h-52v685h52V545h125q116 0 179-52.5T529 342zm-54 0q0 75-48 115.5T292 498H162V187h130q88 0 135.5 40T475 342z"/><glyph glyph-name="uni0191" unicode="Ƒ" horiz-adv-x="503" d="M31-165q36 0 57.5 28.5T110-59v744h348v-47H162V360h276v-47H162V-64q0-65-36-105.5T31-210q-29 0-57.5 12T-77-165l31 34q18-16 38.5-25t38.5-9z"/><glyph glyph-name="uni1E9E" unicode="ẞ" horiz-adv-x="672" d="M622 209q0-96-59.5-157.5T411-10q-54 0-102 16.5T219 56l29 41q40-30 80-44.5T411 38q70 0 113.5 47.5T568 209q0 89-54 136.5T357 393l-19 39 155 188q-55 17-89 22t-69 5q-93 0-141.5-57T145 423V0H95v425q0 129 63 199.5T335 695q46 0 90-7.5T529 661l20-43-155-183q109-5 168.5-64.5T622 209z"/><glyph glyph-name="a" unicode="a" horiz-adv-x="582" d="M492 0h-40l-8 74q-29-40-72-62t-93-22q-95 0-159 66.5T56 220q0 98 64 164t159 66q50 0 93-22t72-62l8 74h40V0zM108 220q0-78 49-131t122-53q72 0 121.5 53T450 220t-49.5 131T279 404q-73 0-122-53t-49-131z"/><glyph glyph-name="b" unicode="b" horiz-adv-x="582" d="M303 450q95 0 159-66t64-164q0-97-64-163.5T303-10q-50 0-93 22t-72 62l-8-74H90v705h50V369q29 39 71.5 60t91.5 21zm0-46q-72 0-121.5-53T132 220t49.5-131T303 36q73 0 122 53t49 131-49 131-122 53z"/><glyph glyph-name="c" unicode="c" horiz-adv-x="481" d="M108 220q0-79 49.5-131.5T282 36q37 0 71 15t63 44l32-34q-35-36-76.5-53.5T282-10q-97 0-161.5 65.5T56 220t64.5 164.5T282 450q45 0 84-15t72-46l-32-34q-28 25-58.5 37T282 404q-75 0-124.5-52.5T108 220z"/><glyph glyph-name="d" unicode="d" horiz-adv-x="582" d="M492 0h-40l-8 74q-29-40-72-62t-93-22q-95 0-159 66.5T56 220q0 98 64 164t159 66q49 0 91.5-21t71.5-60v336h50V0zM108 220q0-78 49-131t122-53q72 0 121.5 53T450 220t-49.5 131T279 404q-73 0-122-53t-49-131z"/><glyph glyph-name="e" unicode="e" horiz-adv-x="529" d="m416 91 33-33q-34-35-74.5-51.5T283-10q-97 0-161.5 65.5T57 220q0 98 62 164t154 66q89 0 147.5-65.5T479 220v-8.5l-1-7.5H108q5-73 54-120.5T283 36q39 0 72.5 14T416 91zM273 404q-64 0-109.5-43.5T109 249h318q-8 69-51 112t-103 43z"/><glyph glyph-name="f" unicode="f" horiz-adv-x="341" d="M324 440v-45H166V0h-50v395H20v40l92 5-5 14q-15 38-21 63.5T80 563q0 69 41 110.5T230 715q33 0 65.5-13t58.5-37l-30-33q-19 17-44.5 27.5T230 670q-44 0-72-30t-28-77q0-19 6-43t21-66l5-14h162z"/><glyph glyph-name="g" unicode="g" horiz-adv-x="581" d="M519 0q0-93-64.5-151.5T287-210q-65 0-123 23.5T55-116l33 35q45-41 95-62t104-21q81 0 131.5 45.5T469 0q0 28-6 52.5T444 101q-29-43-75-67T268 10q-90 0-151.5 63.5T55 230t61.5 156.5T268 450q50 0 93-22t72-62l8 74h40V136l10-21q13-28 20.5-58T519 0zM107 230q0-74 46-124t115-50q73 0 122 47t49 117q0 78-49.5 131T268 404q-69 0-115-50t-46-124z"/><glyph glyph-name="h" unicode="h" horiz-adv-x="545" d="M290 404q-41 0-81-26t-69-73V0H90v705h50V369q30 38 71 59.5t84 21.5q80 0 124-50t44-141V0h-50v256q0 68-33 108t-90 40z"/><glyph glyph-name="i" unicode="i" horiz-adv-x="230" d="M155 584q0-16-11.5-28T115 544q-16 0-28 12t-12 28q0 17 12 28.5t28 11.5q17 0 28.5-11.5T155 584zM90 440h50V0H90v440z"/><glyph glyph-name="j" unicode="j" horiz-adv-x="230" d="M155 584q0-16-11.5-28T115 544q-16 0-28 12t-12 28q0 17 12 28.5t28 11.5q17 0 28.5-11.5T155 584zM11-165q36 0 57.5 28.5T90-59v499h50V-64q0-65-35.5-105.5T11-210q-29 0-57.5 12T-97-165l31 34q18-16 38.5-25t38.5-9z"/><glyph glyph-name="k" unicode="k" horiz-adv-x="490" d="M180 203h-40V0H90v705h50V248h40q61 0 95 21.5t59 74.5l45 96h54l-45-96q-19-40-38.5-66T308 236L463 0h-61L262 213q-17-5-37.5-7.5T180 203z"/><glyph glyph-name="l" unicode="l" horiz-adv-x="230" d="M90 705h50V0H90v705z"/><glyph glyph-name="m" unicode="m" horiz-adv-x="848" d="M285 405q-40 0-78-26.5T140 304V0H90v440h40l10-72q29 39 68.5 60.5T290 450q53 0 92.5-26.5T441 351q29 46 72 72.5t90 26.5q78 0 120.5-49.5T766 259V0h-50v256q0 70-31.5 109.5T598 405q-42 0-78.5-29T453 290V0h-50v256q0 70-31.5 109.5T285 405z"/><glyph glyph-name="n" unicode="n" horiz-adv-x="545" d="M290 404q-41 0-81-26t-69-73V0H90v440h40l10-72q29 39 70 60.5t85 21.5q80 0 124-50t44-141V0h-50v256q0 68-33 108t-90 40z"/><glyph glyph-name="o" unicode="o" horiz-adv-x="558" d="M501 220q0-99-63-164.5T279-10 120 55.5 57 220t63 164.5T279 450t159-65.5T501 220zm-392 0q0-79 48.5-131.5T279 36t121.5 52.5T449 220t-48 131.5T279 404t-122-52.5T109 220z"/><glyph glyph-name="p" unicode="p" horiz-adv-x="582" d="M526 220q0-98-64-164T303-10q-49 0-91.5 21T140 71v-271H90v640h40l8-74q29 40 72 62t93 22q95 0 159-66.5T526 220zM303 404q-72 0-121.5-53T132 220t49.5-131T303 36q73 0 122 53t49 131-49 131-122 53z"/><glyph glyph-name="q" unicode="q" horiz-adv-x="582" d="M452 440h40v-640h-50V71q-29-39-71.5-60T279-10q-95 0-159 66T56 220q0 97 64 163.5T279 450q50 0 93-22t72-62zM108 220q0-78 49-131t122-53q72 0 121.5 53T450 220t-49.5 131T279 404q-73 0-122-53t-49-131z"/><glyph glyph-name="r" unicode="r" horiz-adv-x="336" d="M290 397q-47 0-84.5-22.5T140 308V0H90v440h40l9-71q29 38 70.5 59.5T295 450q6 0 14-.5t13-1.5l-8-53q-5 1-12 1.5t-12 .5z"/><glyph glyph-name="s" unicode="s" horiz-adv-x="408" d="M65 334q0 52 38 84t99 32q38 0 73-13.5t64-39.5l-32-38q-22 21-49.5 33T202 404q-42 0-64.5-18T115 335q0-30 23-50t94-41q68-20 97-50.5t29-75.5q0-56-43-92T203-10q-46 0-84.5 17T45 59l33 37q30-32 59.5-46T203 36q48 0 76.5 22.5T308 118q0 28-19.5 46T206 202q-83 27-112 56.5T65 334z"/><glyph glyph-name="t" unicode="t" horiz-adv-x="387" d="M122 395H26v40l96 5h1l9 124h40V440h162v-45H172V128q0-43 20.5-68T248 35q21 0 42 10.5T330 76l29-31q-25-27-53.5-41T246-10q-57 0-90.5 37.5T122 128v267z"/><glyph glyph-name="u" unicode="u" horiz-adv-x="534" d="M444 0h-40l-9 68q-29-37-68.5-57.5T244-10q-78 0-120.5 47T81 171v269h50V174q0-66 31-102t87-36q41 0 79 25t66 71v308h50V0z"/><glyph glyph-name="v" unicode="v" horiz-adv-x="460" d="M387 440h51L255 0h-50L22 440h52L231 58z"/><glyph glyph-name="w" unicode="w" horiz-adv-x="737" d="M515 0h-50l-96 213L272 0h-50L22 440h54L249 60l92 203-80 177h54l57-125 56 125h50l-80-174 94-205 172 379h51z"/><glyph glyph-name="x" unicode="x" horiz-adv-x="441" d="M416 0h-62L217 188 80 0H25l166 225L35 440h62l126-174 128 174h55L250 229z"/><glyph glyph-name="y" unicode="y" horiz-adv-x="540" d="M478 0q0-91-63-150.5T256-210q-55 0-105 18t-94 54l28 37q40-32 82.5-48t88.5-16q75 0 123.5 46.5T428 0q0 28-6 52.5T404 100q-32-43-75-66.5T240 10q-78 0-120.5 47.5T77 191v249h50V194q0-66 31-102t87-36q41 0 79 25.5t66 71.5v287h50V136l10-21q13-27 20.5-57.5T478 0z"/><glyph glyph-name="z" unicode="z" horiz-adv-x="429" d="M104 45h285V0H40v35l275 360H50v45h329v-35z"/><glyph glyph-name="ae" unicode="æ" horiz-adv-x="910" d="m797 91 33-33q-34-35-74.5-51.5T664-10q-54 0-98.5 24T493 81l-5-81h-38l-5 77q-29-41-72-64t-94-23q-95 0-159 66.5T56 220q0 98 64 164t159 66q51 0 94.5-23t72.5-65l4 78h38l5-79q27 43 68.5 66t92.5 23q89 0 147.5-65.5T860 220v-8.5l-1-7.5H489q5-75 54-121.5T664 36q39 0 72.5 14T797 91zM654 404q-65 0-110.5-43T490 249h318q-8 69-51 112t-103 43zM108 220q0-78 49-131t122-53q72 0 121.5 53T450 220t-49.5 131T279 404q-73 0-122-53t-49-131z"/><glyph glyph-name="oe" unicode="œ" horiz-adv-x="923" d="m811 93 32-32q-36-36-76.5-53.5T677-10q-66 0-119 32.5T476 111q-28-57-80-89T279-10q-96 0-159 65.5T57 220t63 164.5T279 450q65 0 117-32t80-88q27 56 78 88t113 32q89 0 147.5-65.5T873 220v-8.5l-1-7.5H502q5-73 54-120.5T677 36q38 0 72 14.5T811 93zM109 220q0-79 48.5-131.5T279 36q74 0 123 52.5T451 220t-49 131.5T279 404t-122-52.5T109 220zm558 184q-64 0-109.5-43.5T503 249h318q-8 69-51 112t-103 43z"/><glyph glyph-name="lslash" unicode="ł" horiz-adv-x="267" d="m253 450 19-40-114-57V0h-50v329l-94-47-19 40 113 56v327h50V403z"/><glyph glyph-name="oslash" unicode="ø" horiz-adv-x="558" d="M501 220q0-99-63-164.5T279-10q-38 0-72.5 11.5T144 35L80-37 48-6l63 71q-26 32-40 71.5T57 220q0 99 63 164.5T279 450q38 0 72.5-11.5T414 405l64 72 32-31-63-71q26-32 40-71.5t14-83.5zM279 404q-74 0-122-52.5T109 220q0-33 9-62.5t27-54.5l237 266q-22 17-48 26t-55 9zm0-368q73 0 121.5 52.5T449 220q0 33-9.5 63T413 337L176 71q22-17 48-26t55-9z"/><glyph glyph-name="eth" unicode="ð" horiz-adv-x="559" d="M502 264q0-129-59-201.5T279-10q-95 0-158.5 65.5T57 220t63.5 164.5T279 450q51 0 93-20t73-59q-9 61-39 116.5T327 587l-83-77-28 30 79 74q-28 20-60 36t-67 26l14 39q41-11 77.5-29t68.5-42l76 71 28-30-72-67q69-64 105.5-154.5T502 264zm-393-44q0-80 48.5-132T279 36q72 0 121 54t49 133-48 130-122 51q-73 0-121.5-52T109 220z"/><glyph glyph-name="thorn" unicode="þ" horiz-adv-x="582" d="M526 220q0-98-64-164T303-10q-49 0-91.5 21T140 71v-271H90v905h50V369q29 39 71.5 60t91.5 21q95 0 159-66.5T526 220zM303 404q-72 0-121.5-53T132 220t49.5-131T303 36q73 0 122 53t49 131-49 131-122 53z"/><glyph glyph-name="uni0192" unicode="ƒ" horiz-adv-x="341" d="M324 440v-45H166V-64q0-65-35.5-105.5T37-210q-29 0-57.5 12T-71-165l31 34q18-16 38.5-25t38.5-9q36 0 57.5 28.5T116-59v454H20v40l92 5-5 14q-15 38-21 63.5T80 563q0 69 41 110.5T230 715q33 0 65.5-13t58.5-37l-30-33q-19 17-44.5 27.5T230 670q-44 0-72-30t-28-77q0-19 6-43t21-66l5-14h162z"/><glyph glyph-name="germandbls" unicode="ß" horiz-adv-x="609" d="M367 403q85-9 136.5-65T555 196q0-88-56-147T358-10q-41 0-75 12.5T214 44l31 38q27-23 55.5-34.5T358 36q63 0 104 45t41 115q0 75-51.5 119.5T310 365l-8 33q40 29 60 65t20 81q0 56-35 91t-93 35q-55 0-89-30t-34-77q0-19 6-43t21-66l9-24V0h-50v395H23v40l90 5-5 14q-15 38-21 63.5T81 563q0 69 47 110.5T254 715q83 0 131-46t48-125q0-45-17.5-81.5T367 403z"/><glyph glyph-name="dotlessi" unicode="ı" horiz-adv-x="230" d="M90 440h50V0H90v440z"/><glyph glyph-name="dotlessj" unicode="ȷ" horiz-adv-x="230" d="M11-165q36 0 57.5 28.5T90-59v499h50V-64q0-65-35.5-105.5T11-210q-29 0-57.5 12T-97-165l31 34q18-16 38.5-25t38.5-9z"/><glyph glyph-name="Aacute" unicode="Á" horiz-adv-x="667" d="M642 0h-55l-86 209H163L78 0H25l283 685h51zM332 621 183 256h299zm-68 134-22 31 154 121 32-46z"/><glyph glyph-name="Acircumflex" unicode="Â" horiz-adv-x="667" d="M642 0h-55l-86 209H163L78 0H25l283 685h51zM332 621 183 256h299zm2 284 144-119-26-32-119 90-117-90-26 32z"/><glyph glyph-name="Adieresis" unicode="Ä" horiz-adv-x="667" d="M642 0h-55l-86 209H163L78 0H25l283 685h51zM332 621 183 256h299zm-43 212q0-16-11.5-27.5T250 794t-27.5 11.5T211 833t11.5 27.5T250 872t27.5-11.5T289 833zm168 0q0-16-11.5-27.5T418 794t-27.5 11.5T379 833t11.5 27.5T418 872t27.5-11.5T457 833z"/><glyph glyph-name="Agrave" unicode="À" horiz-adv-x="667" d="M642 0h-55l-86 209H163L78 0H25l283 685h51zM332 621 183 256h299zm-58 286 154-121-22-31-164 106z"/><glyph glyph-name="Aring" unicode="Å" horiz-adv-x="667" d="M642 0h-55l-86 209H163L78 0H25l283 685h51zM332 621 183 256h299zm-94 212q0 38 28 65.5t68 27.5 68-27.5 28-65.5-28-65.5-68-27.5-68 27.5-28 65.5zm149 0q0 23-15.5 39T334 888t-37.5-16-15.5-39 15.5-39 37.5-16 37.5 16 15.5 39z"/><glyph glyph-name="Atilde" unicode="Ã" horiz-adv-x="667" d="M642 0h-55l-86 209H163L78 0H25l283 685h51zM332 621 183 256h299zm56 162q-14 0-28 5.5T321 810q-18 12-26 15.5t-15 3.5q-15 0-25-9.5T236 786l-38 18q14 35 34 53t47 18q13 0 26.5-5t37.5-21q19-13 28-16.5t16-3.5q13 0 22 10.5t21 39.5l38-16q-16-40-36-60t-44-20z"/><glyph glyph-name="Abreve" unicode="Ă" horiz-adv-x="667" d="M642 0h-55l-86 209H163L78 0H25l283 685h51zM332 621 183 256h299zm2 176q33 0 50 20.5t17 58.5v12h48v-22q0-50-32-81t-83-31q-50 0-82.5 32T219 868v20h48v-10q0-38 17.5-59.5T334 797z"/><glyph glyph-name="Amacron" unicode="Ā" horiz-adv-x="667" d="M642 0h-55l-86 209H163L78 0H25l283 685h51zM332 621 183 256h299zM219 847h230v-47H219v47z"/><glyph glyph-name="Aogonek" unicode="Ą" horiz-adv-x="667" d="m635-146 13-40q-11-5-24-7.5t-27-2.5q-36 0-57.5 21T518-118q0 33 18 63.5T587 0l-86 209H163L78 0H25l283 685h51L642 0q-37-25-56.5-52.5T566-108q0-20 10.5-32t28.5-12q9 0 16 1.5t14 4.5zM332 621 183 256h299z"/><glyph glyph-name="Ccedilla" unicode="Ç" horiz-adv-x="674" d="M468-132q0-34-25-56t-65-22q-19 0-37.5 4.5T303-192l14 40q17-8 31.5-11.5T378-167q19 0 30.5 9.5T420-132q0 18-13 26.5T367-97l-30 26 20 63Q229 6 145.5 105T62 342q0 151 95.5 252T395 695q67 0 127-26t110-76l-35-36q-43 44-94.5 66.5T395 646q-120 0-199.5-86.5T116 342q0-128 81-215.5T395 39q59 0 113 25.5t97 74.5l36-37q-53-55-114-83.5T400-10l-15-45q40-1 61.5-21t21.5-56z"/><glyph glyph-name="Cacute" unicode="Ć" horiz-adv-x="674" d="M116 342q0-128 81-215.5T395 39q59 0 113 25.5t97 74.5l36-37q-54-56-115.5-84T395-10Q253-10 157.5 91T62 342q0 151 95.5 252T395 695q67 0 127-26t110-76l-35-36q-43 44-94.5 66.5T395 646q-120 0-199.5-86.5T116 342zm201 413-22 31 154 121 32-46z"/><glyph glyph-name="Ccaron" unicode="Č" horiz-adv-x="674" d="M116 342q0-128 81-215.5T395 39q59 0 113 25.5t97 74.5l36-37q-54-56-115.5-84T395-10Q253-10 157.5 91T62 342q0 151 95.5 252T395 695q67 0 127-26t110-76l-35-36q-43 44-94.5 66.5T395 646q-120 0-199.5-86.5T116 342zm389 563 26-32-144-119-144 119 26 32 119-90z"/><glyph glyph-name="Ccircumflex" unicode="Ĉ" horiz-adv-x="674" d="M116 342q0-128 81-215.5T395 39q59 0 113 25.5t97 74.5l36-37q-54-56-115.5-84T395-10Q253-10 157.5 91T62 342q0 151 95.5 252T395 695q67 0 127-26t110-76l-35-36q-43 44-94.5 66.5T395 646q-120 0-199.5-86.5T116 342zm271 563 144-119-26-32-119 90-117-90-26 32z"/><glyph glyph-name="Cdotaccent" unicode="Ċ" horiz-adv-x="674" d="M116 342q0-128 81-215.5T395 39q59 0 113 25.5t97 74.5l36-37q-54-56-115.5-84T395-10Q253-10 157.5 91T62 342q0 151 95.5 252T395 695q67 0 127-26t110-76l-35-36q-43 44-94.5 66.5T395 646q-120 0-199.5-86.5T116 342zm315 491q0-18-13-31t-31-13-31 13-13 31 13 31 31 13 31-13 13-31z"/><glyph glyph-name="Dcaron" unicode="Ď" horiz-adv-x="700" d="M257 0H110v685h147q176 0 279-92.5T639 342 536 92 257 0zm328 342q0 137-87 216.5T262 638H162V47h100q149 0 236 79.5T585 342zM428 905l26-32-144-119-144 119 26 32 119-90z"/><glyph glyph-name="Dcroat" unicode="Đ" horiz-adv-x="715" d="M15 322v45h110v318h147q176 0 279-92.5T654 342 551 92 272 0H125v322H15zm360 45v-45H177V47h100q149 0 236 79.5T600 342q0 137-87 216.5T277 638H177V367h198z"/><glyph glyph-name="Eacute" unicode="É" horiz-adv-x="568" d="M508 0H110v685h398v-47H162V380h326v-47H162V47h346V0zM239 755l-22 31 154 121 32-46z"/><glyph glyph-name="Ecircumflex" unicode="Ê" horiz-adv-x="568" d="M508 0H110v685h398v-47H162V380h326v-47H162V47h346V0zM309 905l144-119-26-32-119 90-117-90-26 32z"/><glyph glyph-name="Edieresis" unicode="Ë" horiz-adv-x="568" d="M508 0H110v685h398v-47H162V380h326v-47H162V47h346V0zM264 833q0-16-11.5-27.5T225 794t-27.5 11.5T186 833t11.5 27.5T225 872t27.5-11.5T264 833zm168 0q0-16-11.5-27.5T393 794t-27.5 11.5T354 833t11.5 27.5T393 872t27.5-11.5T432 833z"/><glyph glyph-name="Egrave" unicode="È" horiz-adv-x="568" d="M508 0H110v685h398v-47H162V380h326v-47H162V47h346V0zM249 907l154-121-22-31-164 106z"/><glyph glyph-name="Ebreve" unicode="Ĕ" horiz-adv-x="568" d="M508 0H110v685h398v-47H162V380h326v-47H162V47h346V0zM309 797q33 0 50 20.5t17 58.5v12h48v-22q0-50-32-81t-83-31q-50 0-82.5 32T194 868v20h48v-10q0-38 17.5-59.5T309 797z"/><glyph glyph-name="Ecaron" unicode="Ě" horiz-adv-x="568" d="M508 0H110v685h398v-47H162V380h326v-47H162V47h346V0zm-81 905 26-32-144-119-144 119 26 32 119-90z"/><glyph glyph-name="Edotaccent" unicode="Ė" horiz-adv-x="568" d="M508 0H110v685h398v-47H162V380h326v-47H162V47h346V0zM353 833q0-18-13-31t-31-13-31 13-13 31 13 31 31 13 31-13 13-31z"/><glyph glyph-name="Emacron" unicode="Ē" horiz-adv-x="568" d="M508 0H110v685h398v-47H162V380h326v-47H162V47h346V0zM194 847h230v-47H194v47z"/><glyph glyph-name="Eogonek" unicode="Ę" horiz-adv-x="568" d="m451-146 13-40q-11-5-24-7.5t-27-2.5q-36 0-57.5 21T334-118q0 33 17.5 63T402 0H110v685h398v-47H162V380h326v-47H162V47h346V0h-50q-37-25-56.5-52.5T382-108q0-20 10.5-32t28.5-12q9 0 16 1.5t14 4.5z"/><glyph glyph-name="Gbreve" unicode="Ğ" horiz-adv-x="754" d="M711 309q0-134-92-226.5T395-10Q253-10 157.5 91T62 342q0 151 95.5 252T395 695q67 0 127-26t110-76l-34-36q-43 43-95 66t-108 23q-120 0-199.5-86.5T116 342q0-129 80-216t199-87q106 0 182.5 71T660 285H385v47h325q1-8 1-12v-11zM387 797q33 0 50 20.5t17 58.5v12h48v-22q0-50-32-81t-83-31q-50 0-82.5 32T272 868v20h48v-10q0-38 17.5-59.5T387 797z"/><glyph glyph-name="Gcircumflex" unicode="Ĝ" horiz-adv-x="754" d="M711 309q0-134-92-226.5T395-10Q253-10 157.5 91T62 342q0 151 95.5 252T395 695q67 0 127-26t110-76l-34-36q-43 43-95 66t-108 23q-120 0-199.5-86.5T116 342q0-129 80-216t199-87q106 0 182.5 71T660 285H385v47h325q1-8 1-12v-11zM387 905l144-119-26-32-119 90-117-90-26 32z"/><glyph glyph-name="Gcommaaccent" unicode="Ģ" horiz-adv-x="754" d="M711 309q0-134-92-226.5T395-10Q253-10 157.5 91T62 342q0 151 95.5 252T395 695q67 0 127-26t110-76l-34-36q-43 43-95 66t-108 23q-120 0-199.5-86.5T116 342q0-129 80-216t199-87q106 0 182.5 71T660 285H385v47h325q1-8 1-12v-11zM395-59q16 0 28-13t12-30q0-8-2-16.5t-5-15.5l-48-101h-37l35 100q-12 7-18.5 16T353-99q0 16 12.5 28T395-59z"/><glyph glyph-name="Gdotaccent" unicode="Ġ" horiz-adv-x="754" d="M711 309q0-134-92-226.5T395-10Q253-10 157.5 91T62 342q0 151 95.5 252T395 695q67 0 127-26t110-76l-34-36q-43 43-95 66t-108 23q-120 0-199.5-86.5T116 342q0-129 80-216t199-87q106 0 182.5 71T660 285H385v47h325q1-8 1-12v-11zM431 833q0-18-13-31t-31-13-31 13-13 31 13 31 31 13 31-13 13-31z"/><glyph glyph-name="Hbar" unicode="Ħ" horiz-adv-x="732" d="M570 333H162V0h-52v509H0v45h110v131h52V554h408v131h52V554h110v-45H622V0h-52v333zM162 509V380h408v129H162z"/><glyph glyph-name="Hcircumflex" unicode="Ĥ" horiz-adv-x="732" d="M622 0h-52v333H162V0h-52v685h52V380h408v305h52V0zM366 905l144-119-26-32-119 90-117-90-26 32z"/><glyph glyph-name="Iacute" unicode="Í" horiz-adv-x="272" d="M162 0h-52v685h52V0zM72 755l-22 31 154 121 32-46z"/><glyph glyph-name="Icircumflex" unicode="Î" horiz-adv-x="272" d="M162 0h-52v685h52V0zm-26 905 144-119-26-32-119 90-117-90-26 32z"/><glyph glyph-name="Idieresis" unicode="Ï" horiz-adv-x="272" d="M162 0h-52v685h52V0zM91 833q0-16-11.5-27.5T52 794t-27.5 11.5T13 833t11.5 27.5T52 872t27.5-11.5T91 833zm168 0q0-16-11.5-27.5T220 794t-27.5 11.5T181 833t11.5 27.5T220 872t27.5-11.5T259 833z"/><glyph glyph-name="Igrave" unicode="Ì" horiz-adv-x="272" d="M162 0h-52v685h52V0zM75 907l154-121-22-31L43 861z"/><glyph glyph-name="Ibreve" unicode="Ĭ" horiz-adv-x="272" d="M162 0h-52v685h52V0zm-26 797q33 0 50 20.5t17 58.5v12h48v-22q0-50-32-81t-83-31q-50 0-82.5 32T21 868v20h48v-10q0-38 17.5-59.5T136 797z"/><glyph glyph-name="Idotaccent" unicode="İ" horiz-adv-x="272" d="M162 0h-52v685h52V0zm18 833q0-18-13-31t-31-13-31 13-13 31 13 31 31 13 31-13 13-31z"/><glyph glyph-name="Imacron" unicode="Ī" horiz-adv-x="272" d="M162 0h-52v685h52V0zM21 847h230v-47H21v47z"/><glyph glyph-name="Iogonek" unicode="Į" horiz-adv-x="272" d="m155-146 13-40q-11-5-24-7.5t-27-2.5q-36 0-57.5 21T38-118q0 34 18.5 65.5T110 3v682h52V0q-37-25-56.5-52.5T86-108q0-20 10.5-32t28.5-12q9 0 16 1.5t14 4.5z"/><glyph glyph-name="Itilde" unicode="Ĩ" horiz-adv-x="272" d="M162 0h-52v685h52V0zm28 783q-14 0-28 5.5T123 810q-18 12-26 15.5T82 829q-15 0-25-9.5T38 786L0 804q14 35 34 53t47 18q13 0 26.5-5t37.5-21q19-13 28-16.5t16-3.5q13 0 22 10.5t21 39.5l38-16q-16-40-36-60t-44-20z"/><glyph glyph-name="Jcircumflex" unicode="Ĵ" horiz-adv-x="440" d="M177-10q-47 0-88 19T15 65l35 35q26-30 59-45.5T177 39q55 0 85.5 37T293 181v504h52V181q0-91-44.5-141T177-10zm139 915 144-119-26-32-119 90-117-90-26 32z"/><glyph glyph-name="IJ" unicode="Ĳ" horiz-adv-x="561" d="M162 314h-52v371h52V314zM298-10q-47 0-88 19t-74 56l35 35q26-30 59-45.5T298 39q55 0 85.5 37T414 181v504h52V181q0-91-44.5-141T298-10z"/><glyph glyph-name="Kcommaaccent" unicode="Ķ" horiz-adv-x="622" d="M212 327h-50V0h-52v685h52V374h50q67 0 99.5 19T395 494l119 191h57L452 494q-35-56-58.5-85T348 363L596 0h-63L303 338q-18-6-40-8.5t-51-2.5zM329-59q16 0 28-13t12-30q0-8-2-16.5t-5-15.5l-48-101h-37l35 100q-12 7-18.5 16T287-99q0 16 12.5 28T329-59z"/><glyph glyph-name="kgreenlandic.case" horiz-adv-x="675" d="M212 327h-50V0h-52v685h52V374h50q67 0 99.5 19T395 494l119 191h57L452 494q-35-56-58.5-85T348 363L596 0h-63L303 338q-18-6-40-8.5t-51-2.5zm362 148 76 210h35l-51-210h-60z"/><glyph glyph-name="Lacute" unicode="Ĺ" horiz-adv-x="498" d="M162 47h306V0H110v685h52V47zm-46 708-22 31 154 121 32-46z"/><glyph glyph-name="Lcaron" unicode="Ľ" horiz-adv-x="498" d="M162 47h306V0H110v685h52V47zm141 638-10-176h-40v176h50z"/><glyph glyph-name="Lcommaaccent" unicode="Ļ" horiz-adv-x="498" d="M162 47h306V0H110v685h52V47zM280-59q16 0 28-13t12-30q0-8-2-16.5t-5-15.5l-48-101h-37l35 100q-12 7-18.5 16T238-99q0 16 12.5 28T280-59z"/><glyph glyph-name="Ldot" unicode="Ŀ" horiz-adv-x="498" d="M162 47h306V0H110v685h52V47zm259 294q0-18-13-31t-31-13-31 13-13 31 13 31 31 13 31-13 13-31z"/><glyph glyph-name="Ntilde" unicode="Ñ" horiz-adv-x="726" d="M616 0h-52L160 600V0h-50v685h52L566 85v600h50V0zM417 783q-14 0-28 5.5T350 810q-18 12-26 15.5t-15 3.5q-15 0-25-9.5T265 786l-38 18q14 35 34 53t47 18q13 0 26.5-5t37.5-21q19-13 28-16.5t16-3.5q13 0 22 10.5t21 39.5l38-16q-16-40-36-60t-44-20z"/><glyph glyph-name="Nacute" unicode="Ń" horiz-adv-x="726" d="M616 0h-52L160 600V0h-50v685h52L566 85v600h50V0zM303 755l-22 31 154 121 32-46z"/><glyph glyph-name="Ncaron" unicode="Ň" horiz-adv-x="726" d="M616 0h-52L160 600V0h-50v685h52L566 85v600h50V0zM481 905l26-32-144-119-144 119 26 32 119-90z"/><glyph glyph-name="Ncommaaccent" unicode="Ņ" horiz-adv-x="726" d="M616 0h-52L160 600V0h-50v685h52L566 85v600h50V0zM361-59q16 0 28-13t12-30q0-8-2-16.5t-5-15.5l-48-101h-37l35 100q-12 7-18.5 16T319-99q0 16 12.5 28T361-59z"/><glyph glyph-name="Eng" unicode="Ŋ" horiz-adv-x="726" d="M566 85v600h50V-64q0-65-35.5-105.5T487-210q-29 0-57.5 12T379-165l31 36q18-16 38.5-25t38.5-9q36 0 56.5 27.5T564-59V0L160 600V0h-50v685h52z"/><glyph glyph-name="napostrophe.case" horiz-adv-x="760" d="M650 0h-52L194 600V0h-50v685h52L600 85v600h50V0zM76 685 0 475h-35l51 210h60z"/><glyph glyph-name="Oacute" unicode="Ó" horiz-adv-x="790" d="M62 342q0 151 95.5 252T395 695t237.5-101T728 342q0-150-95.5-251T395-10 157.5 91 62 342zm612 0q0 131-79.5 217.5T395 646t-199.5-86.5T116 342q0-130 79.5-216.5T395 39t199.5 86.5T674 342zM324 755l-22 31 154 121 32-46z"/><glyph glyph-name="Ocircumflex" unicode="Ô" horiz-adv-x="790" d="M62 342q0 151 95.5 252T395 695t237.5-101T728 342q0-150-95.5-251T395-10 157.5 91 62 342zm612 0q0 131-79.5 217.5T395 646t-199.5-86.5T116 342q0-130 79.5-216.5T395 39t199.5 86.5T674 342zM394 905l144-119-26-32-119 90-117-90-26 32z"/><glyph glyph-name="Odieresis" unicode="Ö" horiz-adv-x="790" d="M62 342q0 151 95.5 252T395 695t237.5-101T728 342q0-150-95.5-251T395-10 157.5 91 62 342zm612 0q0 131-79.5 217.5T395 646t-199.5-86.5T116 342q0-130 79.5-216.5T395 39t199.5 86.5T674 342zM349 833q0-16-11.5-27.5T310 794t-27.5 11.5T271 833t11.5 27.5T310 872t27.5-11.5T349 833zm168 0q0-16-11.5-27.5T478 794t-27.5 11.5T439 833t11.5 27.5T478 872t27.5-11.5T517 833z"/><glyph glyph-name="Ograve" unicode="Ò" horiz-adv-x="790" d="M62 342q0 151 95.5 252T395 695t237.5-101T728 342q0-150-95.5-251T395-10 157.5 91 62 342zm612 0q0 131-79.5 217.5T395 646t-199.5-86.5T116 342q0-130 79.5-216.5T395 39t199.5 86.5T674 342zM325 907l154-121-22-31-164 106z"/><glyph glyph-name="Otilde" unicode="Õ" horiz-adv-x="790" d="M62 342q0 151 95.5 252T395 695t237.5-101T728 342q0-150-95.5-251T395-10 157.5 91 62 342zm612 0q0 131-79.5 217.5T395 646t-199.5-86.5T116 342q0-130 79.5-216.5T395 39t199.5 86.5T674 342zM449 783q-14 0-28 5.5T382 810q-18 12-26 15.5t-15 3.5q-15 0-25-9.5T297 786l-38 18q14 35 34 53t47 18q13 0 26.5-5t37.5-21q19-13 28-16.5t16-3.5q13 0 22 10.5t21 39.5l38-16q-16-40-36-60t-44-20z"/><glyph glyph-name="Obreve" unicode="Ŏ" horiz-adv-x="790" d="M62 342q0 151 95.5 252T395 695t237.5-101T728 342q0-150-95.5-251T395-10 157.5 91 62 342zm612 0q0 131-79.5 217.5T395 646t-199.5-86.5T116 342q0-130 79.5-216.5T395 39t199.5 86.5T674 342zM394 797q33 0 50 20.5t17 58.5v12h48v-22q0-50-32-81t-83-31q-50 0-82.5 32T279 868v20h48v-10q0-38 17.5-59.5T394 797z"/><glyph glyph-name="Ohungarumlaut" unicode="Ő" horiz-adv-x="790" d="M62 342q0 151 95.5 252T395 695t237.5-101T728 342q0-150-95.5-251T395-10 157.5 91 62 342zm612 0q0 131-79.5 217.5T395 646t-199.5-86.5T116 342q0-130 79.5-216.5T395 39t199.5 86.5T674 342zM303 753l-27 22 106 159 43-30zm154 0-27 22 106 159 43-30z"/><glyph glyph-name="Omacron" unicode="Ō" horiz-adv-x="790" d="M62 342q0 151 95.5 252T395 695t237.5-101T728 342q0-150-95.5-251T395-10 157.5 91 62 342zm612 0q0 131-79.5 217.5T395 646t-199.5-86.5T116 342q0-130 79.5-216.5T395 39t199.5 86.5T674 342zM279 847h230v-47H279v47z"/><glyph glyph-name="Racute" unicode="Ŕ" horiz-adv-x="600" d="M162 0h-52v685h195q97 0 155.5-51.5T519 497q0-66-39.5-115T377 316L559 0h-60L321 309H162V0zm303 497q0 64-42.5 102.5T310 638H162V356h148q70 0 112.5 38.5T465 497zM239 755l-22 31 154 121 32-46z"/><glyph glyph-name="Rcaron" unicode="Ř" horiz-adv-x="600" d="M162 0h-52v685h195q97 0 155.5-51.5T519 497q0-66-39.5-115T377 316L559 0h-60L321 309H162V0zm303 497q0 64-42.5 102.5T310 638H162V356h148q70 0 112.5 38.5T465 497zm-67 408 26-32-144-119-144 119 26 32 119-90z"/><glyph glyph-name="Rcommaaccent" unicode="Ŗ" horiz-adv-x="600" d="M162 0h-52v685h195q97 0 155.5-51.5T519 497q0-66-39.5-115T377 316L559 0h-60L321 309H162V0zm303 497q0 64-42.5 102.5T310 638H162V356h148q70 0 112.5 38.5T465 497zM318-59q16 0 28-13t12-30q0-8-2-16.5t-5-15.5l-48-101h-37l35 100q-12 7-18.5 16T276-99q0 16 12.5 28T318-59z"/><glyph glyph-name="Scaron" unicode="Š" horiz-adv-x="566" d="M291 646q-69 0-110.5-33.5T139 522q0-35 16.5-61t52.5-46q19-11 45.5-21.5T334 365q94-31 136-76.5T512 177q0-81-59.5-134T303-10q-76 0-139 29T49 106l34 39q48-54 102-80t118-26q68 0 112.5 39t44.5 99q0 48-33 80.5T303 320q-64 21-94.5 35T156 385q-35 25-52 59t-17 78q0 78 56.5 125.5T291 695q58 0 108-22t96-67l-33-38q-44 40-85 59t-86 19zm107 259 26-32-144-119-144 119 26 32 119-90z"/><glyph glyph-name="Sacute" unicode="Ś" horiz-adv-x="566" d="M291 646q-69 0-110.5-33.5T139 522q0-35 16.5-61t52.5-46q19-11 45.5-21.5T334 365q94-31 136-76.5T512 177q0-81-59.5-134T303-10q-76 0-139 29T49 106l34 39q48-54 102-80t118-26q68 0 112.5 39t44.5 99q0 48-33 80.5T303 320q-64 21-94.5 35T156 385q-35 25-52 59t-17 78q0 78 56.5 125.5T291 695q58 0 108-22t96-67l-33-38q-44 40-85 59t-86 19zm-72 109-22 31 154 121 32-46z"/><glyph glyph-name="Scedilla" unicode="Ş" horiz-adv-x="566" d="M374-132q0-34-25-56t-65-22q-19 0-37.5 4.5T209-192l14 40q17-8 31.5-11.5T284-167q19 0 30.5 9.5T326-132q0 18-13 26.5T273-97l-30 26 20 63q-63 7-116.5 35.5T49 106l34 39q48-54 102-80t118-26q68 0 112.5 39t44.5 99q0 48-33 80.5T303 320q-64 21-94.5 35T156 385q-35 25-52 59t-17 78q0 78 56.5 125.5T291 695q58 0 108-22t96-67l-33-38q-44 40-85 59t-86 19q-69 0-110.5-33.5T139 522q0-35 16.5-61t52.5-46q19-11 45.5-21.5T334 365q94-31 136-76.5T512 177q0-80-59-133.5T306-10l-15-45q40-1 61.5-21t21.5-56z"/><glyph glyph-name="Scircumflex" unicode="Ŝ" horiz-adv-x="566" d="M291 646q-69 0-110.5-33.5T139 522q0-35 16.5-61t52.5-46q19-11 45.5-21.5T334 365q94-31 136-76.5T512 177q0-81-59.5-134T303-10q-76 0-139 29T49 106l34 39q48-54 102-80t118-26q68 0 112.5 39t44.5 99q0 48-33 80.5T303 320q-64 21-94.5 35T156 385q-35 25-52 59t-17 78q0 78 56.5 125.5T291 695q58 0 108-22t96-67l-33-38q-44 40-85 59t-86 19zm-15 259 144-119-26-32-119 90-117-90-26 32z"/><glyph glyph-name="uni0218" unicode="Ș" horiz-adv-x="566" d="M291 646q-69 0-110.5-33.5T139 522q0-35 16.5-61t52.5-46q19-11 45.5-21.5T334 365q94-31 136-76.5T512 177q0-81-59.5-134T303-10q-76 0-139 29T49 106l34 39q48-54 102-80t118-26q68 0 112.5 39t44.5 99q0 48-33 80.5T303 320q-64 21-94.5 35T156 385q-35 25-52 59t-17 78q0 78 56.5 125.5T291 695q58 0 108-22t96-67l-33-38q-44 40-85 59t-86 19zm-4-705q16 0 28-13t12-30q0-8-2-16.5t-5-15.5l-48-101h-37l35 100q-12 7-18.5 16T245-99q0 16 12.5 28T287-59z"/><glyph glyph-name="Tbar" unicode="Ŧ" horiz-adv-x="528" d="M238 638H20v47h488v-47H290V390h139v-45H290V0h-52v345H99v45h139v248z"/><glyph glyph-name="Tcaron" unicode="Ť" horiz-adv-x="528" d="M238 638H20v47h488v-47H290V0h-52v638zm140 267 26-32-144-119-144 119 26 32 119-90z"/><glyph glyph-name="uni0162" unicode="Ţ" horiz-adv-x="528" d="M238 638H20v47h488v-47H290V0h-52v638zm25-697q16 0 28-13t12-30q0-8-2-16.5t-5-15.5l-48-101h-37l35 100q-12 7-18.5 16T221-99q0 16 12.5 28T263-59z"/><glyph glyph-name="uni021A" unicode="Ț" horiz-adv-x="528" d="M238 638H20v47h488v-47H290V0h-52v638zm25-697q16 0 28-13t12-30q0-8-2-16.5t-5-15.5l-48-101h-37l35 100q-12 7-18.5 16T221-99q0 16 12.5 28T263-59z"/><glyph glyph-name="Uacute" unicode="Ú" horiz-adv-x="678" d="M339-10q-113 0-178.5 73T95 260v425h52V262q0-106 50.5-164.5T339 39t141.5 58.5T531 262v423h52V260q0-124-65.5-197T339-10zm-49 765-22 31 154 121 32-46z"/><glyph glyph-name="Ucircumflex" unicode="Û" horiz-adv-x="678" d="M339-10q-113 0-178.5 73T95 260v425h52V262q0-106 50.5-164.5T339 39t141.5 58.5T531 262v423h52V260q0-124-65.5-197T339-10zm0 915 144-119-26-32-119 90-117-90-26 32z"/><glyph glyph-name="Udieresis" unicode="Ü" horiz-adv-x="678" d="M339-10q-113 0-178.5 73T95 260v425h52V262q0-106 50.5-164.5T339 39t141.5 58.5T531 262v423h52V260q0-124-65.5-197T339-10zm-44 843q0-16-11.5-27.5T256 794t-27.5 11.5T217 833t11.5 27.5T256 872t27.5-11.5T295 833zm168 0q0-16-11.5-27.5T424 794t-27.5 11.5T385 833t11.5 27.5T424 872t27.5-11.5T463 833z"/><glyph glyph-name="Ugrave" unicode="Ù" horiz-adv-x="678" d="M339-10q-113 0-178.5 73T95 260v425h52V262q0-106 50.5-164.5T339 39t141.5 58.5T531 262v423h52V260q0-124-65.5-197T339-10zm-69 917 154-121-22-31-164 106z"/><glyph glyph-name="Ubreve" unicode="Ŭ" horiz-adv-x="678" d="M339-10q-113 0-178.5 73T95 260v425h52V262q0-106 50.5-164.5T339 39t141.5 58.5T531 262v423h52V260q0-124-65.5-197T339-10zm0 807q33 0 50 20.5t17 58.5v12h48v-22q0-50-32-81t-83-31q-50 0-82.5 32T224 868v20h48v-10q0-38 17.5-59.5T339 797z"/><glyph glyph-name="Uhungarumlaut" unicode="Ű" horiz-adv-x="678" d="M339-10q-113 0-178.5 73T95 260v425h52V262q0-106 50.5-164.5T339 39t141.5 58.5T531 262v423h52V260q0-124-65.5-197T339-10zm-92 763-27 22 106 159 43-30zm154 0-27 22 106 159 43-30z"/><glyph glyph-name="Umacron" unicode="Ū" horiz-adv-x="678" d="M339-10q-113 0-178.5 73T95 260v425h52V262q0-106 50.5-164.5T339 39t141.5 58.5T531 262v423h52V260q0-124-65.5-197T339-10zM224 847h230v-47H224v47z"/><glyph glyph-name="Uogonek" unicode="Ų" horiz-adv-x="678" d="M406-196q-36 0-57.5 21T327-118q0 31 15 58.5T389-5q-11-2-25.5-3.5T339-10q-113 0-178.5 73T95 260v425h52V262q0-106 50.5-164.5T339 39t141.5 58.5T531 262v423h52V260q0-72-22-126t-66-92q-6-5-33.5-28T420-23q-24-23-34.5-43.5T375-108q0-20 10.5-32t28.5-12q9 0 16 1.5t14 4.5l13-40q-11-5-24-7.5t-27-2.5z"/><glyph glyph-name="Uring" unicode="Ů" horiz-adv-x="678" d="M339-10q-113 0-178.5 73T95 260v425h52V262q0-106 50.5-164.5T339 39t141.5 58.5T531 262v423h52V260q0-124-65.5-197T339-10zm-96 843q0 38 28 65.5t68 27.5 68-27.5 28-65.5-28-65.5-68-27.5-68 27.5-28 65.5zm149 0q0 23-15.5 39T339 888t-37.5-16-15.5-39 15.5-39 37.5-16 37.5 16 15.5 39z"/><glyph glyph-name="Utilde" unicode="Ũ" horiz-adv-x="678" d="M339-10q-113 0-178.5 73T95 260v425h52V262q0-106 50.5-164.5T339 39t141.5 58.5T531 262v423h52V260q0-124-65.5-197T339-10zm55 793q-14 0-28 5.5T327 810q-18 12-26 15.5t-15 3.5q-15 0-25-9.5T242 786l-38 18q14 35 34 53t47 18q13 0 26.5-5t37.5-21q19-13 28-16.5t16-3.5q13 0 22 10.5t21 39.5l38-16q-16-40-36-60t-44-20z"/><glyph glyph-name="Wacute" unicode="Ẃ" horiz-adv-x="948" d="M660 0h-51L474 347 339 0h-51L25 685h55L317 66l132 344-107 275h54l80-212 80 212h50L501 416 636 68l234 617h53zM414 755l-22 31 154 121 32-46z"/><glyph glyph-name="Wcircumflex" unicode="Ŵ" horiz-adv-x="948" d="M660 0h-51L474 347 339 0h-51L25 685h55L317 66l132 344-107 275h54l80-212 80 212h50L501 416 636 68l234 617h53zM474 905l144-119-26-32-119 90-117-90-26 32z"/><glyph glyph-name="Wdieresis" unicode="Ẅ" horiz-adv-x="948" d="M660 0h-51L474 347 339 0h-51L25 685h55L317 66l132 344-107 275h54l80-212 80 212h50L501 416 636 68l234 617h53zM429 833q0-16-11.5-27.5T390 794t-27.5 11.5T351 833t11.5 27.5T390 872t27.5-11.5T429 833zm168 0q0-16-11.5-27.5T558 794t-27.5 11.5T519 833t11.5 27.5T558 872t27.5-11.5T597 833z"/><glyph glyph-name="Wgrave" unicode="Ẁ" horiz-adv-x="948" d="M660 0h-51L474 347 339 0h-51L25 685h55L317 66l132 344-107 275h54l80-212 80 212h50L501 416 636 68l234 617h53zM404 907l154-121-22-31-164 106z"/><glyph glyph-name="Yacute" unicode="Ý" horiz-adv-x="569" d="M494 685h55L311 303V0h-52v303L20 685h58l208-333zm-253 70-22 31 154 121 32-46z"/><glyph glyph-name="Ydieresis" unicode="Ÿ" horiz-adv-x="569" d="M494 685h55L311 303V0h-52v303L20 685h58l208-333zM239 833q0-16-11.5-27.5T200 794t-27.5 11.5T161 833t11.5 27.5T200 872t27.5-11.5T239 833zm168 0q0-16-11.5-27.5T368 794t-27.5 11.5T329 833t11.5 27.5T368 872t27.5-11.5T407 833z"/><glyph glyph-name="Ycircumflex" unicode="Ŷ" horiz-adv-x="569" d="M494 685h55L311 303V0h-52v303L20 685h58l208-333zM281 905l144-119-26-32-119 90-117-90-26 32z"/><glyph glyph-name="Ygrave" unicode="Ỳ" horiz-adv-x="569" d="M494 685h55L311 303V0h-52v303L20 685h58l208-333zM201 907l154-121-22-31-164 106z"/><glyph glyph-name="Zcaron" unicode="Ž" horiz-adv-x="554" d="M110 47h399V0H45v37l389 601H58v47h441v-37zm285 858 26-32-144-119-144 119 26 32 119-90z"/><glyph glyph-name="Zacute" unicode="Ź" horiz-adv-x="554" d="M110 47h399V0H45v37l389 601H58v47h441v-37zm117 708-22 31 154 121 32-46z"/><glyph glyph-name="Zdotaccent" unicode="Ż" horiz-adv-x="554" d="M110 47h399V0H45v37l389 601H58v47h441v-37zm211 786q0-18-13-31t-31-13-31 13-13 31 13 31 31 13 31-13 13-31z"/><glyph glyph-name="aacute" unicode="á" horiz-adv-x="582" d="M492 0h-40l-8 74q-29-40-72-62t-93-22q-95 0-159 66.5T56 220q0 98 64 164t159 66q50 0 93-22t72-62l8 74h40V0zM108 220q0-78 49-131t122-53q72 0 121.5 53T450 220t-49.5 131T279 404q-73 0-122-53t-49-131zm112 290-22 31 154 121 32-46z"/><glyph glyph-name="acircumflex" unicode="â" horiz-adv-x="582" d="M492 0h-40l-8 74q-29-40-72-62t-93-22q-95 0-159 66.5T56 220q0 98 64 164t159 66q50 0 93-22t72-62l8 74h40V0zM108 220q0-78 49-131t122-53q72 0 121.5 53T450 220t-49.5 131T279 404q-73 0-122-53t-49-131zm172 440 144-119-26-32-119 90-117-90-26 32z"/><glyph glyph-name="adieresis" unicode="ä" horiz-adv-x="582" d="M492 0h-40l-8 74q-29-40-72-62t-93-22q-95 0-159 66.5T56 220q0 98 64 164t159 66q50 0 93-22t72-62l8 74h40V0zM108 220q0-78 49-131t122-53q72 0 121.5 53T450 220t-49.5 131T279 404q-73 0-122-53t-49-131zm127 368q0-16-11.5-27.5T196 549t-27.5 11.5T157 588t11.5 27.5T196 627t27.5-11.5T235 588zm168 0q0-16-11.5-27.5T364 549t-27.5 11.5T325 588t11.5 27.5T364 627t27.5-11.5T403 588z"/><glyph glyph-name="agrave" unicode="à" horiz-adv-x="582" d="M492 0h-40l-8 74q-29-40-72-62t-93-22q-95 0-159 66.5T56 220q0 98 64 164t159 66q50 0 93-22t72-62l8 74h40V0zM108 220q0-78 49-131t122-53q72 0 121.5 53T450 220t-49.5 131T279 404q-73 0-122-53t-49-131zm112 442 154-121-22-31-164 106z"/><glyph glyph-name="aring" unicode="å" horiz-adv-x="582" d="M492 0h-40l-8 74q-29-40-72-62t-93-22q-95 0-159 66.5T56 220q0 98 64 164t159 66q50 0 93-22t72-62l8 74h40V0zM108 220q0-78 49-131t122-53q72 0 121.5 53T450 220t-49.5 131T279 404q-73 0-122-53t-49-131zm76 368q0 38 28 65.5t68 27.5 68-27.5 28-65.5-28-65.5-68-27.5-68 27.5-28 65.5zm149 0q0 23-15.5 39T280 643t-37.5-16-15.5-39 15.5-39 37.5-16 37.5 16 15.5 39z"/><glyph glyph-name="atilde" unicode="ã" horiz-adv-x="582" d="M492 0h-40l-8 74q-29-40-72-62t-93-22q-95 0-159 66.5T56 220q0 98 64 164t159 66q50 0 93-22t72-62l8 74h40V0zM108 220q0-78 49-131t122-53q72 0 121.5 53T450 220t-49.5 131T279 404q-73 0-122-53t-49-131zm230 318q-14 0-28 5.5T271 565q-18 12-26 15.5t-15 3.5q-15 0-25-9.5T186 541l-38 18q14 35 34 53t47 18q13 0 26.5-5t37.5-21q19-13 28-16.5t16-3.5q13 0 22 10.5t21 39.5l38-16q-16-40-36-60t-44-20z"/><glyph glyph-name="abreve" unicode="ă" horiz-adv-x="582" d="M492 0h-40l-8 74q-29-40-72-62t-93-22q-95 0-159 66.5T56 220q0 98 64 164t159 66q50 0 93-22t72-62l8 74h40V0zM108 220q0-78 49-131t122-53q72 0 121.5 53T450 220t-49.5 131T279 404q-73 0-122-53t-49-131zm175 332q33 0 50 20.5t17 58.5v12h48v-22q0-50-32-81t-83-31q-50 0-82.5 32T168 623v20h48v-10q0-38 17.5-59.5T283 552z"/><glyph glyph-name="amacron" unicode="ā" horiz-adv-x="582" d="M492 0h-40l-8 74q-29-40-72-62t-93-22q-95 0-159 66.5T56 220q0 98 64 164t159 66q50 0 93-22t72-62l8 74h40V0zM108 220q0-78 49-131t122-53q72 0 121.5 53T450 220t-49.5 131T279 404q-73 0-122-53t-49-131zm60 382h230v-47H168v47z"/><glyph glyph-name="aogonek" unicode="ą" horiz-adv-x="582" d="m485-146 13-40q-11-5-24-7.5t-27-2.5q-36 0-57.5 21T368-118q0 35 20 67.5T445 8l6 4-7 62q-29-40-72-62t-93-22q-95 0-159 66.5T56 220q0 98 64 164t159 66q50 0 93-22t72-62l8 74h40V0q-37-25-56.5-52.5T416-108q0-20 10.5-32t28.5-12q9 0 16 1.5t14 4.5zM108 220q0-78 49-131t122-53q72 0 121.5 53T450 220t-49.5 131T279 404q-73 0-122-53t-49-131z"/><glyph glyph-name="ccedilla" unicode="ç" horiz-adv-x="481" d="M359-132q0-34-25-56t-65-22q-19 0-37.5 4.5T194-192l14 40q17-8 31.5-11.5T269-167q19 0 30.5 9.5T311-132q0 18-13 26.5T258-97l-30 26 20 63Q163 4 109.5 67.5T56 220q0 99 64.5 164.5T282 450q45 0 84-15t72-46l-32-34q-28 25-58.5 37T282 404q-75 0-124.5-52.5T108 220t49.5-131.5T282 36q37 0 71 15t63 44l32-34q-33-34-72.5-51.5T291-10l-15-45q40-1 61.5-21t21.5-56z"/><glyph glyph-name="cacute" unicode="ć" horiz-adv-x="481" d="M108 220q0-79 49.5-131.5T282 36q37 0 71 15t63 44l32-34q-35-36-76.5-53.5T282-10q-97 0-161.5 65.5T56 220t64.5 164.5T282 450q45 0 84-15t72-46l-32-34q-28 25-58.5 37T282 404q-75 0-124.5-52.5T108 220zm74 290-22 31 154 121 32-46z"/><glyph glyph-name="ccaron" unicode="č" horiz-adv-x="481" d="M108 220q0-79 49.5-131.5T282 36q37 0 71 15t63 44l32-34q-35-36-76.5-53.5T282-10q-97 0-161.5 65.5T56 220t64.5 164.5T282 450q45 0 84-15t72-46l-32-34q-28 25-58.5 37T282 404q-75 0-124.5-52.5T108 220zm282 440 26-32-144-119-144 119 26 32 119-90z"/><glyph glyph-name="ccircumflex" unicode="ĉ" horiz-adv-x="481" d="M108 220q0-79 49.5-131.5T282 36q37 0 71 15t63 44l32-34q-35-36-76.5-53.5T282-10q-97 0-161.5 65.5T56 220t64.5 164.5T282 450q45 0 84-15t72-46l-32-34q-28 25-58.5 37T282 404q-75 0-124.5-52.5T108 220zm164 440 144-119-26-32-119 90-117-90-26 32z"/><glyph glyph-name="cdotaccent" unicode="ċ" horiz-adv-x="481" d="M108 220q0-79 49.5-131.5T282 36q37 0 71 15t63 44l32-34q-35-36-76.5-53.5T282-10q-97 0-161.5 65.5T56 220t64.5 164.5T282 450q45 0 84-15t72-46l-32-34q-28 25-58.5 37T282 404q-75 0-124.5-52.5T108 220zm208 368q0-18-13-31t-31-13-31 13-13 31 13 31 31 13 31-13 13-31z"/><glyph glyph-name="dcaron" unicode="ď" horiz-adv-x="599" d="M492 0h-40l-8 74q-29-40-72-62t-93-22q-95 0-159 66.5T56 220q0 98 64 164t159 66q49 0 91.5-21t71.5-60v336h50V0zM108 220q0-78 49-131t122-53q72 0 121.5 53T450 220t-49.5 131T279 404q-73 0-122-53t-49-131zm504 485-10-176h-40v176h50z"/><glyph glyph-name="dcroat" unicode="đ" horiz-adv-x="582" d="M492 0h-40l-8 74q-29-40-72-62t-93-22q-95 0-159 66.5T56 220q0 98 64 164t159 66q49 0 91.5-21t71.5-60v196H277v45h165v95h50v-95h75v-45h-75V0zM108 220q0-78 49-131t122-53q72 0 121.5 53T450 220t-49.5 131T279 404q-73 0-122-53t-49-131z"/><glyph glyph-name="eacute" unicode="é" horiz-adv-x="529" d="m416 91 33-33q-34-35-74.5-51.5T283-10q-97 0-161.5 65.5T57 220q0 98 62 164t154 66q89 0 147.5-65.5T479 220v-8.5l-1-7.5H108q5-73 54-120.5T283 36q39 0 72.5 14T416 91zM273 404q-64 0-109.5-43.5T109 249h318q-8 69-51 112t-103 43zm-74 106-22 31 154 121 32-46z"/><glyph glyph-name="ecircumflex" unicode="ê" horiz-adv-x="529" d="m416 91 33-33q-34-35-74.5-51.5T283-10q-97 0-161.5 65.5T57 220q0 98 62 164t154 66q89 0 147.5-65.5T479 220v-8.5l-1-7.5H108q5-73 54-120.5T283 36q39 0 72.5 14T416 91zM273 404q-64 0-109.5-43.5T109 249h318q-8 69-51 112t-103 43zm1 256 144-119-26-32-119 90-117-90-26 32z"/><glyph glyph-name="edieresis" unicode="ë" horiz-adv-x="529" d="m416 91 33-33q-34-35-74.5-51.5T283-10q-97 0-161.5 65.5T57 220q0 98 62 164t154 66q89 0 147.5-65.5T479 220v-8.5l-1-7.5H108q5-73 54-120.5T283 36q39 0 72.5 14T416 91zM273 404q-64 0-109.5-43.5T109 249h318q-8 69-51 112t-103 43zm-44 184q0-16-11.5-27.5T190 549t-27.5 11.5T151 588t11.5 27.5T190 627t27.5-11.5T229 588zm168 0q0-16-11.5-27.5T358 549t-27.5 11.5T319 588t11.5 27.5T358 627t27.5-11.5T397 588z"/><glyph glyph-name="egrave" unicode="è" horiz-adv-x="529" d="m416 91 33-33q-34-35-74.5-51.5T283-10q-97 0-161.5 65.5T57 220q0 98 62 164t154 66q89 0 147.5-65.5T479 220v-8.5l-1-7.5H108q5-73 54-120.5T283 36q39 0 72.5 14T416 91zM273 404q-64 0-109.5-43.5T109 249h318q-8 69-51 112t-103 43zm-69 258 154-121-22-31-164 106z"/><glyph glyph-name="ebreve" unicode="ĕ" horiz-adv-x="529" d="m416 91 33-33q-34-35-74.5-51.5T283-10q-97 0-161.5 65.5T57 220q0 98 62 164t154 66q89 0 147.5-65.5T479 220v-8.5l-1-7.5H108q5-73 54-120.5T283 36q39 0 72.5 14T416 91zM273 404q-64 0-109.5-43.5T109 249h318q-8 69-51 112t-103 43zm1 148q33 0 50 20.5t17 58.5v12h48v-22q0-50-32-81t-83-31q-50 0-82.5 32T159 623v20h48v-10q0-38 17.5-59.5T274 552z"/><glyph glyph-name="ecaron" unicode="ě" horiz-adv-x="529" d="m416 91 33-33q-34-35-74.5-51.5T283-10q-97 0-161.5 65.5T57 220q0 98 62 164t154 66q89 0 147.5-65.5T479 220v-8.5l-1-7.5H108q5-73 54-120.5T283 36q39 0 72.5 14T416 91zM273 404q-64 0-109.5-43.5T109 249h318q-8 69-51 112t-103 43zm119 256 26-32-144-119-144 119 26 32 119-90z"/><glyph glyph-name="edotaccent" unicode="ė" horiz-adv-x="529" d="m416 91 33-33q-34-35-74.5-51.5T283-10q-97 0-161.5 65.5T57 220q0 98 62 164t154 66q89 0 147.5-65.5T479 220v-8.5l-1-7.5H108q5-73 54-120.5T283 36q39 0 72.5 14T416 91zM273 404q-64 0-109.5-43.5T109 249h318q-8 69-51 112t-103 43zm35 184q0-18-13-31t-31-13-31 13-13 31 13 31 31 13 31-13 13-31z"/><glyph glyph-name="emacron" unicode="ē" horiz-adv-x="529" d="m416 91 33-33q-34-35-74.5-51.5T283-10q-97 0-161.5 65.5T57 220q0 98 62 164t154 66q89 0 147.5-65.5T479 220v-8.5l-1-7.5H108q5-73 54-120.5T283 36q39 0 72.5 14T416 91zM273 404q-64 0-109.5-43.5T109 249h318q-8 69-51 112t-103 43zM159 602h230v-47H159v47z"/><glyph glyph-name="eogonek" unicode="ę" horiz-adv-x="529" d="M337-108q0-20 10.5-32t28.5-12q11 0 23 4t24 11l16-38q-15-10-32.5-15.5T368-196q-36 0-57.5 21T289-118q0 26 12 55t34 58q-15-3-26-4t-26-1q-97 0-161.5 65.5T57 220q0 98 62 164t154 66q89 0 147.5-65.5T479 220v-8.5l-1-7.5H108q5-73 54-120.5T283 36q39 0 72.5 14T416 91l33-33-18-18q-49-49-71.5-84T337-108zm-64 512q-64 0-109.5-43.5T109 249h318q-8 69-51 112t-103 43z"/><glyph glyph-name="gbreve" unicode="ğ" horiz-adv-x="581" d="M519 0q0-93-64.5-151.5T287-210q-65 0-123 23.5T55-116l33 35q45-41 95-62t104-21q81 0 131.5 45.5T469 0q0 28-6 52.5T444 101q-29-43-75-67T268 10q-90 0-151.5 63.5T55 230t61.5 156.5T268 450q50 0 93-22t72-62l8 74h40V136l10-21q13-28 20.5-58T519 0zM107 230q0-74 46-124t115-50q73 0 122 47t49 117q0 78-49.5 131T268 404q-69 0-115-50t-46-124zm163 322q33 0 50 20.5t17 58.5v12h48v-22q0-50-32-81t-83-31q-50 0-82.5 32T155 623v20h48v-10q0-38 17.5-59.5T270 552z"/><glyph glyph-name="gcircumflex" unicode="ĝ" horiz-adv-x="581" d="M519 0q0-93-64.5-151.5T287-210q-65 0-123 23.5T55-116l33 35q45-41 95-62t104-21q81 0 131.5 45.5T469 0q0 28-6 52.5T444 101q-29-43-75-67T268 10q-90 0-151.5 63.5T55 230t61.5 156.5T268 450q50 0 93-22t72-62l8 74h40V136l10-21q13-28 20.5-58T519 0zM107 230q0-74 46-124t115-50q73 0 122 47t49 117q0 78-49.5 131T268 404q-69 0-115-50t-46-124zm163 430 144-119-26-32-119 90-117-90-26 32z"/><glyph glyph-name="gcommaaccent" unicode="ģ" horiz-adv-x="581" d="M519 0q0-93-64.5-151.5T287-210q-65 0-123 23.5T55-116l33 35q45-41 95-62t104-21q81 0 131.5 45.5T469 0q0 28-6 52.5T444 101q-29-43-75-67T268 10q-90 0-151.5 63.5T55 230t61.5 156.5T268 450q50 0 93-22t72-62l8 74h40V136l10-21q13-28 20.5-58T519 0zM107 230q0-74 46-124t115-50q73 0 122 47t49 117q0 78-49.5 131T268 404q-69 0-115-50t-46-124zm167 287q-16 0-28 13t-12 30q0 8 2 16.5t5 15.5l38 81h37l-25-80q12-7 18.5-16t6.5-20q0-16-12.5-28T274 517z"/><glyph glyph-name="gdotaccent" unicode="ġ" horiz-adv-x="581" d="M519 0q0-93-64.5-151.5T287-210q-65 0-123 23.5T55-116l33 35q45-41 95-62t104-21q81 0 131.5 45.5T469 0q0 28-6 52.5T444 101q-29-43-75-67T268 10q-90 0-151.5 63.5T55 230t61.5 156.5T268 450q50 0 93-22t72-62l8 74h40V136l10-21q13-28 20.5-58T519 0zM107 230q0-74 46-124t115-50q73 0 122 47t49 117q0 78-49.5 131T268 404q-69 0-115-50t-46-124zm207 358q0-18-13-31t-31-13-31 13-13 31 13 31 31 13 31-13 13-31z"/><glyph glyph-name="hbar" unicode="ħ" horiz-adv-x="545" d="M290 404q-41 0-81-26t-69-73V0H90v565H15v45h75v95h50v-95h165v-45H140V369q30 38 71 59.5t84 21.5q80 0 124-50t44-141V0h-50v256q0 68-33 108t-90 40z"/><glyph glyph-name="hcircumflex" unicode="ĥ" horiz-adv-x="545" d="M290 404q-41 0-81-26t-69-73V0H90v705h50V369q30 38 71 59.5t84 21.5q80 0 124-50t44-141V0h-50v256q0 68-33 108t-90 40zm-29 506 144-119-26-32-119 90-117-90-26 32z"/><glyph glyph-name="iacute" unicode="í" horiz-adv-x="230" d="M90 440h50V0H90v440zm-45 70-22 31 154 121 32-46z"/><glyph glyph-name="icircumflex" unicode="î" horiz-adv-x="230" d="M90 440h50V0H90v440zm25 220 144-119-26-32-119 90-117-90-26 32z"/><glyph glyph-name="idieresis" unicode="ï" horiz-adv-x="230" d="M90 440h50V0H90v440zM70 588q0-16-11.5-27.5T31 549 3.5 560.5-8 588t11.5 27.5T31 627t27.5-11.5T70 588zm168 0q0-16-11.5-27.5T199 549t-27.5 11.5T160 588t11.5 27.5T199 627t27.5-11.5T238 588z"/><glyph glyph-name="igrave" unicode="ì" horiz-adv-x="230" d="M90 440h50V0H90v440zM54 662l154-121-22-31L22 616z"/><glyph glyph-name="ibreve" unicode="ĭ" horiz-adv-x="230" d="M90 440h50V0H90v440zm25 112q33 0 50 20.5t17 58.5v12h48v-22q0-50-32-81t-83-31q-50 0-82.5 32T0 623v20h48v-10q0-38 17.5-59.5T115 552z"/><glyph glyph-name="i.dot" horiz-adv-x="230" d="M155 584q0-16-11.5-28T115 544q-16 0-28 12t-12 28q0 17 12 28.5t28 11.5q17 0 28.5-11.5T155 584zM90 440h50V0H90v440z"/><glyph glyph-name="imacron" unicode="ī" horiz-adv-x="230" d="M90 440h50V0H90v440zM0 602h230v-47H0v47z"/><glyph glyph-name="iogonek" unicode="į" horiz-adv-x="230" d="M155 584q0-16-11.5-28T115 544q-16 0-28 12t-12 28q0 17 12 28.5t28 11.5q17 0 28.5-11.5T155 584zm-22-730 13-40q-11-5-24-7.5T95-196q-36 0-57.5 21T16-118q0 35 19 66T90 4v436h50V0q-37-25-56.5-52.5T64-108q0-20 10.5-32t28.5-12q9 0 16 1.5t14 4.5z"/><glyph glyph-name="itilde" unicode="ĩ" horiz-adv-x="230" d="M90 440h50V0H90v440zm79 98q-14 0-28 5.5T102 565q-18 12-26 15.5T61 584q-15 0-25-9.5T17 541l-38 18q14 35 34 53t47 18q13 0 26.5-5t37.5-21q19-13 28-16.5t16-3.5q13 0 22 10.5t21 39.5l38-16q-16-40-36-60t-44-20z"/><glyph glyph-name="jcircumflex" unicode="ĵ" horiz-adv-x="230" d="M11-165q36 0 57.5 28.5T90-59v499h50V-64q0-65-35.5-105.5T11-210q-29 0-57.5 12T-97-165l31 34q18-16 38.5-25t38.5-9zm89 825 144-119-26-32-119 90-117-90-26 32z"/><glyph glyph-name="ij" unicode="ĳ" horiz-adv-x="430" d="M155 584q0-16-11.5-28T115 544q-16 0-28 12t-12 28q0 17 12 28.5t28 11.5q17 0 28.5-11.5T155 584zM90 440h50V0H90v440zm265 144q0-16-11.5-28T315 544q-16 0-28 12t-12 28q0 17 12 28.5t28 11.5q17 0 28.5-11.5T355 584zM211-165q36 0 57.5 28.5T290-59v499h50V-64q0-65-35.5-105.5T211-210q-29 0-57.5 12T103-165l31 34q18-16 38.5-25t38.5-9z"/><glyph glyph-name="kcommaaccent" unicode="ķ" horiz-adv-x="490" d="M180 203h-40V0H90v705h50V248h40q61 0 95 21.5t59 74.5l45 96h54l-45-96q-19-40-38.5-66T308 236L463 0h-61L262 213q-17-5-37.5-7.5T180 203zm66-262q16 0 28-13t12-30q0-8-2-16.5t-5-15.5l-48-101h-37l35 100q-12 7-18.5 16T204-99q0 16 12.5 28T246-59z"/><glyph glyph-name="kgreenlandic" unicode="ĸ" horiz-adv-x="490" d="M180 203h-40V0H90v440h50V248h40q61 0 95 21.5t59 74.5l45 96h54l-45-96q-19-40-38.5-66T308 236L463 0h-61L262 213q-17-5-37.5-7.5T180 203z"/><glyph glyph-name="lacute" unicode="ĺ" horiz-adv-x="230" d="M90 705h50V0H90v705zm-35 55-22 31 154 121 32-46z"/><glyph glyph-name="lcaron" unicode="ľ" horiz-adv-x="247" d="M90 705h50V0H90v705zm170 0-10-176h-40v176h50z"/><glyph glyph-name="lcommaaccent" unicode="ļ" horiz-adv-x="230" d="M90 705h50V0H90v705zm23-764q16 0 28-13t12-30q0-8-2-16.5t-5-15.5L98-235H61l35 100q-12 7-18.5 16T71-99q0 16 12.5 28T113-59z"/><glyph glyph-name="ldot" unicode="ŀ" horiz-adv-x="269" d="M90 705h50V0H90v705zm194-377q0-18-13-31t-31-13-31 13-13 31 13 31 31 13 31-13 13-31z"/><glyph glyph-name="ntilde" unicode="ñ" horiz-adv-x="545" d="M290 404q-41 0-81-26t-69-73V0H90v440h40l10-72q29 39 70 60.5t85 21.5q80 0 124-50t44-141V0h-50v256q0 68-33 108t-90 40zm47 134q-14 0-28 5.5T270 565q-18 12-26 15.5t-15 3.5q-15 0-25-9.5T185 541l-38 18q14 35 34 53t47 18q13 0 26.5-5t37.5-21q19-13 28-16.5t16-3.5q13 0 22 10.5t21 39.5l38-16q-16-40-36-60t-44-20z"/><glyph glyph-name="nacute" unicode="ń" horiz-adv-x="545" d="M290 404q-41 0-81-26t-69-73V0H90v440h40l10-72q29 39 70 60.5t85 21.5q80 0 124-50t44-141V0h-50v256q0 68-33 108t-90 40zm-77 106-22 31 154 121 32-46z"/><glyph glyph-name="ncaron" unicode="ň" horiz-adv-x="545" d="M290 404q-41 0-81-26t-69-73V0H90v440h40l10-72q29 39 70 60.5t85 21.5q80 0 124-50t44-141V0h-50v256q0 68-33 108t-90 40zm107 256 26-32-144-119-144 119 26 32 119-90z"/><glyph glyph-name="ncommaaccent" unicode="ņ" horiz-adv-x="545" d="M290 404q-41 0-81-26t-69-73V0H90v440h40l10-72q29 39 70 60.5t85 21.5q80 0 124-50t44-141V0h-50v256q0 68-33 108t-90 40zM271-59q16 0 28-13t12-30q0-8-2-16.5t-5-15.5l-48-101h-37l35 100q-12 7-18.5 16T229-99q0 16 12.5 28T271-59z"/><glyph glyph-name="eng" unicode="ŋ" horiz-adv-x="545" d="M295 450q80 0 124-50t44-141V-64q0-65-35.5-105.5T334-210q-29 0-57.5 12T226-165l31 34q18-16 38.5-25t38.5-9q36 0 57.5 28.5T413-59v315q0 68-33 108t-90 40q-41 0-81-26t-69-73V0H90v440h40l10-72q29 39 70 60.5t85 21.5z"/><glyph glyph-name="napostrophe" unicode="ŉ" horiz-adv-x="545" d="M290 404q-41 0-81-26t-69-73V0H90v440h40l10-72q29 39 70 60.5t85 21.5q80 0 124-50t44-141V0h-50v256q0 68-33 108t-90 40zM93 685 17 475h-35l51 210h60z"/><glyph glyph-name="oacute" unicode="ó" horiz-adv-x="558" d="M501 220q0-99-63-164.5T279-10 120 55.5 57 220t63 164.5T279 450t159-65.5T501 220zm-392 0q0-79 48.5-131.5T279 36t121.5 52.5T449 220t-48 131.5T279 404t-122-52.5T109 220zm100 290-22 31 154 121 32-46z"/><glyph glyph-name="ocircumflex" unicode="ô" horiz-adv-x="558" d="M501 220q0-99-63-164.5T279-10 120 55.5 57 220t63 164.5T279 450t159-65.5T501 220zm-392 0q0-79 48.5-131.5T279 36t121.5 52.5T449 220t-48 131.5T279 404t-122-52.5T109 220zm170 440 144-119-26-32-119 90-117-90-26 32z"/><glyph glyph-name="odieresis" unicode="ö" horiz-adv-x="558" d="M501 220q0-99-63-164.5T279-10 120 55.5 57 220t63 164.5T279 450t159-65.5T501 220zm-392 0q0-79 48.5-131.5T279 36t121.5 52.5T449 220t-48 131.5T279 404t-122-52.5T109 220zm125 368q0-16-11.5-27.5T195 549t-27.5 11.5T156 588t11.5 27.5T195 627t27.5-11.5T234 588zm168 0q0-16-11.5-27.5T363 549t-27.5 11.5T324 588t11.5 27.5T363 627t27.5-11.5T402 588z"/><glyph glyph-name="ograve" unicode="ò" horiz-adv-x="558" d="M501 220q0-99-63-164.5T279-10 120 55.5 57 220t63 164.5T279 450t159-65.5T501 220zm-392 0q0-79 48.5-131.5T279 36t121.5 52.5T449 220t-48 131.5T279 404t-122-52.5T109 220zm110 442 154-121-22-31-164 106z"/><glyph glyph-name="otilde" unicode="õ" horiz-adv-x="558" d="M501 220q0-99-63-164.5T279-10 120 55.5 57 220t63 164.5T279 450t159-65.5T501 220zm-392 0q0-79 48.5-131.5T279 36t121.5 52.5T449 220t-48 131.5T279 404t-122-52.5T109 220zm224 318q-14 0-28 5.5T266 565q-18 12-26 15.5t-15 3.5q-15 0-25-9.5T181 541l-38 18q14 35 34 53t47 18q13 0 26.5-5t37.5-21q19-13 28-16.5t16-3.5q13 0 22 10.5t21 39.5l38-16q-16-40-36-60t-44-20z"/><glyph glyph-name="obreve" unicode="ŏ" horiz-adv-x="558" d="M501 220q0-99-63-164.5T279-10 120 55.5 57 220t63 164.5T279 450t159-65.5T501 220zm-392 0q0-79 48.5-131.5T279 36t121.5 52.5T449 220t-48 131.5T279 404t-122-52.5T109 220zm170 332q33 0 50 20.5t17 58.5v12h48v-22q0-50-32-81t-83-31q-50 0-82.5 32T164 623v20h48v-10q0-38 17.5-59.5T279 552z"/><glyph glyph-name="ohungarumlaut" unicode="ő" horiz-adv-x="558" d="M501 220q0-99-63-164.5T279-10 120 55.5 57 220t63 164.5T279 450t159-65.5T501 220zm-392 0q0-79 48.5-131.5T279 36t121.5 52.5T449 220t-48 131.5T279 404t-122-52.5T109 220zm88 288-27 22 106 159 43-30zm154 0-27 22 106 159 43-30z"/><glyph glyph-name="omacron" unicode="ō" horiz-adv-x="558" d="M501 220q0-99-63-164.5T279-10 120 55.5 57 220t63 164.5T279 450t159-65.5T501 220zm-392 0q0-79 48.5-131.5T279 36t121.5 52.5T449 220t-48 131.5T279 404t-122-52.5T109 220zm55 382h230v-47H164v47z"/><glyph glyph-name="racute" unicode="ŕ" horiz-adv-x="336" d="M290 397q-47 0-84.5-22.5T140 308V0H90v440h40l9-71q29 38 70.5 59.5T295 450q6 0 14-.5t13-1.5l-8-53q-5 1-12 1.5t-12 .5zM143 510l-22 31 154 121 32-46z"/><glyph glyph-name="rcaron" unicode="ř" horiz-adv-x="336" d="M290 397q-47 0-84.5-22.5T140 308V0H90v440h40l9-71q29 38 70.5 59.5T295 450q6 0 14-.5t13-1.5l-8-53q-5 1-12 1.5t-12 .5zm11 263 26-32-144-119L39 628l26 32 119-90z"/><glyph glyph-name="rcommaaccent" unicode="ŗ" horiz-adv-x="336" d="M290 397q-47 0-84.5-22.5T140 308V0H90v440h40l9-71q29 38 70.5 59.5T295 450q6 0 14-.5t13-1.5l-8-53q-5 1-12 1.5t-12 .5zM111-59q16 0 28-13t12-30q0-8-2-16.5t-5-15.5L96-235H59l35 100q-12 7-18.5 16T69-99q0 16 12.5 28T111-59z"/><glyph glyph-name="scaron" unicode="š" horiz-adv-x="408" d="M65 334q0 52 38 84t99 32q38 0 73-13.5t64-39.5l-32-38q-22 21-49.5 33T202 404q-42 0-64.5-18T115 335q0-30 23-50t94-41q68-20 97-50.5t29-75.5q0-56-43-92T203-10q-46 0-84.5 17T45 59l33 37q30-32 59.5-46T203 36q48 0 76.5 22.5T308 118q0 28-19.5 46T206 202q-83 27-112 56.5T65 334zm257 326 26-32-144-119L60 628l26 32 119-90z"/><glyph glyph-name="sacute" unicode="ś" horiz-adv-x="408" d="M65 334q0 52 38 84t99 32q38 0 73-13.5t64-39.5l-32-38q-22 21-49.5 33T202 404q-42 0-64.5-18T115 335q0-30 23-50t94-41q68-20 97-50.5t29-75.5q0-56-43-92T203-10q-46 0-84.5 17T45 59l33 37q30-32 59.5-46T203 36q48 0 76.5 22.5T308 118q0 28-19.5 46T206 202q-83 27-112 56.5T65 334zm74 176-22 31 154 121 32-46z"/><glyph glyph-name="scedilla" unicode="ş" horiz-adv-x="408" d="M289-132q0-34-25-56t-65-22q-19 0-37.5 4.5T124-192l14 40q17-8 31.5-11.5T199-167q19 0 30.5 9.5T241-132q0 18-13 26.5T188-97l-30 26 20 62q-38 4-70.5 21T45 59l33 37q30-32 59.5-46T203 36q48 0 76.5 22.5T308 118q0 28-19.5 46T206 202q-83 27-112 56.5T65 334q0 52 38 84t99 32q38 0 73-13.5t64-39.5l-32-38q-22 21-49.5 33T202 404q-42 0-64.5-18T115 335q0-30 23-50t94-41q68-20 97-50.5t29-75.5q0-52-37.5-87.5T221-9l-15-46q40-1 61.5-21t21.5-56z"/><glyph glyph-name="scircumflex" unicode="ŝ" horiz-adv-x="408" d="M65 334q0 52 38 84t99 32q38 0 73-13.5t64-39.5l-32-38q-22 21-49.5 33T202 404q-42 0-64.5-18T115 335q0-30 23-50t94-41q68-20 97-50.5t29-75.5q0-56-43-92T203-10q-46 0-84.5 17T45 59l33 37q30-32 59.5-46T203 36q48 0 76.5 22.5T308 118q0 28-19.5 46T206 202q-83 27-112 56.5T65 334zm139 326 144-119-26-32-119 90-117-90-26 32z"/><glyph glyph-name="uni0219" unicode="ș" horiz-adv-x="408" d="M65 334q0 52 38 84t99 32q38 0 73-13.5t64-39.5l-32-38q-22 21-49.5 33T202 404q-42 0-64.5-18T115 335q0-30 23-50t94-41q68-20 97-50.5t29-75.5q0-56-43-92T203-10q-46 0-84.5 17T45 59l33 37q30-32 59.5-46T203 36q48 0 76.5 22.5T308 118q0 28-19.5 46T206 202q-83 27-112 56.5T65 334zM202-59q16 0 28-13t12-30q0-8-2-16.5t-5-15.5l-48-101h-37l35 100q-12 7-18.5 16T160-99q0 16 12.5 28T202-59z"/><glyph glyph-name="tbar" unicode="ŧ" horiz-adv-x="387" d="M122 395H26v40l96 5h1l9 124h40V440h162v-45H172V262h162v-43H172v-91q0-43 20.5-68T248 35q21 0 42 10.5T330 76l29-31q-25-27-53.5-41T246-10q-57 0-90.5 37.5T122 128v91H26v43h96v133z"/><glyph glyph-name="tcaron" unicode="ť" horiz-adv-x="387" d="M122 395H26v40l96 5h1l9 124h40V440h162v-45H172V128q0-43 20.5-68T248 35q21 0 42 10.5T330 76l29-31q-25-27-53.5-41T246-10q-57 0-90.5 37.5T122 128v267zm165 290-10-176h-40v176h50z"/><glyph glyph-name="uni0163" unicode="ţ" horiz-adv-x="387" d="M122 395H26v40l96 5h1l9 124h40V440h162v-45H172V128q0-43 20.5-68T248 35q21 0 42 10.5T330 76l29-31q-25-27-53.5-41T246-10q-57 0-90.5 37.5T122 128v267zm82-454q16 0 28-13t12-30q0-8-2-16.5t-5-15.5l-48-101h-37l35 100q-12 7-18.5 16T162-99q0 16 12.5 28T204-59z"/><glyph glyph-name="uni021B" unicode="ț" horiz-adv-x="387" d="M122 395H26v40l96 5h1l9 124h40V440h162v-45H172V128q0-43 20.5-68T248 35q21 0 42 10.5T330 76l29-31q-25-27-53.5-41T246-10q-57 0-90.5 37.5T122 128v267zm82-454q16 0 28-13t12-30q0-8-2-16.5t-5-15.5l-48-101h-37l35 100q-12 7-18.5 16T162-99q0 16 12.5 28T204-59z"/><glyph glyph-name="uacute" unicode="ú" horiz-adv-x="534" d="M444 0h-40l-9 68q-29-37-68.5-57.5T244-10q-78 0-120.5 47T81 171v269h50V174q0-66 31-102t87-36q41 0 79 25t66 71v308h50V0zM197 510l-22 31 154 121 32-46z"/><glyph glyph-name="ucircumflex" unicode="û" horiz-adv-x="534" d="M444 0h-40l-9 68q-29-37-68.5-57.5T244-10q-78 0-120.5 47T81 171v269h50V174q0-66 31-102t87-36q41 0 79 25t66 71v308h50V0zM267 660l144-119-26-32-119 90-117-90-26 32z"/><glyph glyph-name="udieresis" unicode="ü" horiz-adv-x="534" d="M444 0h-40l-9 68q-29-37-68.5-57.5T244-10q-78 0-120.5 47T81 171v269h50V174q0-66 31-102t87-36q41 0 79 25t66 71v308h50V0zM222 588q0-16-11.5-27.5T183 549t-27.5 11.5T144 588t11.5 27.5T183 627t27.5-11.5T222 588zm168 0q0-16-11.5-27.5T351 549t-27.5 11.5T312 588t11.5 27.5T351 627t27.5-11.5T390 588z"/><glyph glyph-name="ugrave" unicode="ù" horiz-adv-x="534" d="M444 0h-40l-9 68q-29-37-68.5-57.5T244-10q-78 0-120.5 47T81 171v269h50V174q0-66 31-102t87-36q41 0 79 25t66 71v308h50V0zM207 662l154-121-22-31-164 106z"/><glyph glyph-name="ubreve" unicode="ŭ" horiz-adv-x="534" d="M444 0h-40l-9 68q-29-37-68.5-57.5T244-10q-78 0-120.5 47T81 171v269h50V174q0-66 31-102t87-36q41 0 79 25t66 71v308h50V0zM267 552q33 0 50 20.5t17 58.5v12h48v-22q0-50-32-81t-83-31q-50 0-82.5 32T152 623v20h48v-10q0-38 17.5-59.5T267 552z"/><glyph glyph-name="uhungarumlaut" unicode="ű" horiz-adv-x="534" d="M444 0h-40l-9 68q-29-37-68.5-57.5T244-10q-78 0-120.5 47T81 171v269h50V174q0-66 31-102t87-36q41 0 79 25t66 71v308h50V0zM185 508l-27 22 106 159 43-30zm154 0-27 22 106 159 43-30z"/><glyph glyph-name="umacron" unicode="ū" horiz-adv-x="534" d="M444 0h-40l-9 68q-29-37-68.5-57.5T244-10q-78 0-120.5 47T81 171v269h50V174q0-66 31-102t87-36q41 0 79 25t66 71v308h50V0zM152 602h230v-47H152v47z"/><glyph glyph-name="uogonek" unicode="ų" horiz-adv-x="534" d="m437-146 13-40q-11-5-24-7.5t-27-2.5q-36 0-57.5 21T320-118q0 35 20 67.5T397 8l5 4-7 56q-29-37-68.5-57.5T244-10q-78 0-120.5 47T81 171v269h50V174q0-66 31-102t87-36q41 0 79 25t66 71v308h50V0q-37-25-56.5-52.5T368-108q0-20 10.5-32t28.5-12q9 0 16 1.5t14 4.5z"/><glyph glyph-name="uring" unicode="ů" horiz-adv-x="534" d="M444 0h-40l-9 68q-29-37-68.5-57.5T244-10q-78 0-120.5 47T81 171v269h50V174q0-66 31-102t87-36q41 0 79 25t66 71v308h50V0zM171 588q0 38 28 65.5t68 27.5 68-27.5 28-65.5-28-65.5-68-27.5-68 27.5-28 65.5zm149 0q0 23-15.5 39T267 643t-37.5-16-15.5-39 15.5-39 37.5-16 37.5 16 15.5 39z"/><glyph glyph-name="utilde" unicode="ũ" horiz-adv-x="534" d="M444 0h-40l-9 68q-29-37-68.5-57.5T244-10q-78 0-120.5 47T81 171v269h50V174q0-66 31-102t87-36q41 0 79 25t66 71v308h50V0zM321 538q-14 0-28 5.5T254 565q-18 12-26 15.5t-15 3.5q-15 0-25-9.5T169 541l-38 18q14 35 34 53t47 18q13 0 26.5-5t37.5-21q19-13 28-16.5t16-3.5q13 0 22 10.5t21 39.5l38-16q-16-40-36-60t-44-20z"/><glyph glyph-name="wacute" unicode="ẃ" horiz-adv-x="737" d="M515 0h-50l-96 213L272 0h-50L22 440h54L249 60l92 203-80 177h54l57-125 56 125h50l-80-174 94-205 172 379h51zM307 510l-22 31 154 121 32-46z"/><glyph glyph-name="wcircumflex" unicode="ŵ" horiz-adv-x="737" d="M515 0h-50l-96 213L272 0h-50L22 440h54L249 60l92 203-80 177h54l57-125 56 125h50l-80-174 94-205 172 379h51zM367 660l144-119-26-32-119 90-117-90-26 32z"/><glyph glyph-name="wdieresis" unicode="ẅ" horiz-adv-x="737" d="M515 0h-50l-96 213L272 0h-50L22 440h54L249 60l92 203-80 177h54l57-125 56 125h50l-80-174 94-205 172 379h51zM322 588q0-16-11.5-27.5T283 549t-27.5 11.5T244 588t11.5 27.5T283 627t27.5-11.5T322 588zm168 0q0-16-11.5-27.5T451 549t-27.5 11.5T412 588t11.5 27.5T451 627t27.5-11.5T490 588z"/><glyph glyph-name="wgrave" unicode="ẁ" horiz-adv-x="737" d="M515 0h-50l-96 213L272 0h-50L22 440h54L249 60l92 203-80 177h54l57-125 56 125h50l-80-174 94-205 172 379h51zM297 662l154-121-22-31-164 106z"/><glyph glyph-name="yacute" unicode="ý" horiz-adv-x="540" d="M478 0q0-91-63-150.5T256-210q-55 0-105 18t-94 54l28 37q40-32 82.5-48t88.5-16q75 0 123.5 46.5T428 0q0 28-6 52.5T404 100q-32-43-75-66.5T240 10q-78 0-120.5 47.5T77 191v249h50V194q0-66 31-102t87-36q41 0 79 25.5t66 71.5v287h50V136l10-21q13-27 20.5-57.5T478 0zM210 510l-22 31 154 121 32-46z"/><glyph glyph-name="ydieresis" unicode="ÿ" horiz-adv-x="540" d="M478 0q0-91-63-150.5T256-210q-55 0-105 18t-94 54l28 37q40-32 82.5-48t88.5-16q75 0 123.5 46.5T428 0q0 28-6 52.5T404 100q-32-43-75-66.5T240 10q-78 0-120.5 47.5T77 191v249h50V194q0-66 31-102t87-36q41 0 79 25.5t66 71.5v287h50V136l10-21q13-27 20.5-57.5T478 0zM215 588q0-16-11.5-27.5T176 549t-27.5 11.5T137 588t11.5 27.5T176 627t27.5-11.5T215 588zm168 0q0-16-11.5-27.5T344 549t-27.5 11.5T305 588t11.5 27.5T344 627t27.5-11.5T383 588z"/><glyph glyph-name="ycircumflex" unicode="ŷ" horiz-adv-x="540" d="M478 0q0-91-63-150.5T256-210q-55 0-105 18t-94 54l28 37q40-32 82.5-48t88.5-16q75 0 123.5 46.5T428 0q0 28-6 52.5T404 100q-32-43-75-66.5T240 10q-78 0-120.5 47.5T77 191v249h50V194q0-66 31-102t87-36q41 0 79 25.5t66 71.5v287h50V136l10-21q13-27 20.5-57.5T478 0zM260 660l144-119-26-32-119 90-117-90-26 32z"/><glyph glyph-name="ygrave" unicode="ỳ" horiz-adv-x="540" d="M478 0q0-91-63-150.5T256-210q-55 0-105 18t-94 54l28 37q40-32 82.5-48t88.5-16q75 0 123.5 46.5T428 0q0 28-6 52.5T404 100q-32-43-75-66.5T240 10q-78 0-120.5 47.5T77 191v249h50V194q0-66 31-102t87-36q41 0 79 25.5t66 71.5v287h50V136l10-21q13-27 20.5-57.5T478 0zM190 662l154-121-22-31-164 106z"/><glyph glyph-name="zcaron" unicode="ž" horiz-adv-x="429" d="M104 45h285V0H40v35l275 360H50v45h329v-35zm228 615 26-32-144-119L70 628l26 32 119-90z"/><glyph glyph-name="zacute" unicode="ź" horiz-adv-x="429" d="M104 45h285V0H40v35l275 360H50v45h329v-35zm59 465-22 31 154 121 32-46z"/><glyph glyph-name="zdotaccent" unicode="ż" horiz-adv-x="429" d="M104 45h285V0H40v35l275 360H50v45h329v-35zm150 543q0-18-13-31t-31-13-31 13-13 31 13 31 31 13 31-13 13-31z"/><glyph glyph-name="acute" unicode="´" horiz-adv-x="500" d="m180 510-22 31 154 121 32-46z"/><glyph glyph-name="grave" unicode="`" horiz-adv-x="500" d="m190 662 154-121-22-31-164 106z"/><glyph glyph-name="circumflex" unicode="ˆ" horiz-adv-x="500" d="m250 660 144-119-26-32-119 90-117-90-26 32z"/><glyph glyph-name="caron" unicode="ˇ" horiz-adv-x="500" d="m368 660 26-32-144-119-144 119 26 32 119-90z"/><glyph glyph-name="tilde" unicode="˜" horiz-adv-x="500" d="M304 538q-14 0-28 5.5T237 565q-18 12-26 15.5t-15 3.5q-15 0-25-9.5T152 541l-38 18q14 35 34 53t47 18q13 0 26.5-5t37.5-21q19-13 28-16.5t16-3.5q13 0 22 10.5t21 39.5l38-16q-16-40-36-60t-44-20z"/><glyph glyph-name="dieresis" unicode="¨" horiz-adv-x="500" d="M205 588q0-16-11.5-27.5T166 549t-27.5 11.5T127 588t11.5 27.5T166 627t27.5-11.5T205 588zm168 0q0-16-11.5-27.5T334 549t-27.5 11.5T295 588t11.5 27.5T334 627t27.5-11.5T373 588z"/><glyph glyph-name="ring" unicode="˚" horiz-adv-x="500" d="M154 588q0 38 28 65.5t68 27.5 68-27.5 28-65.5-28-65.5-68-27.5-68 27.5-28 65.5zm149 0q0 23-15.5 39T250 643t-37.5-16-15.5-39 15.5-39 37.5-16 37.5 16 15.5 39z"/><glyph glyph-name="cedilla" unicode="¸" horiz-adv-x="500" d="M325-132q0-34-25-56t-65-22q-19 0-37.5 4.5T160-192l14 40q17-8 31.5-11.5T235-167q19 0 30.5 9.5T277-132q0 18-13 26.5T224-97l-30 26 28 89h44l-24-73q40-1 61.5-21t21.5-56z"/><glyph glyph-name="hungarumlaut" unicode="˝" horiz-adv-x="500" d="m128 508-27 22 106 159 43-30zm154 0-27 22 106 159 43-30z"/><glyph glyph-name="breve" unicode="˘" horiz-adv-x="500" d="M250 552q33 0 50 20.5t17 58.5v12h48v-22q0-50-32-81t-83-31q-50 0-82.5 32T135 623v20h48v-10q0-38 17.5-59.5T250 552z"/><glyph glyph-name="macron" unicode="¯" horiz-adv-x="500" d="M135 602h230v-47H135v47z"/><glyph glyph-name="dotaccent" unicode="˙" horiz-adv-x="500" d="M294 588q0-18-13-31t-31-13-31 13-13 31 13 31 31 13 31-13 13-31z"/><glyph glyph-name="periodcentered" unicode="·" horiz-adv-x="298" d="M193 318q0-18-13-31t-31-13-31 13-13 31 13 31 31 13 31-13 13-31z"/><glyph glyph-name="ogonek" unicode="˛" horiz-adv-x="500" d="M178-118q0 35 19 66t55 56l50-4q-37-25-56.5-52.5T226-108q0-20 10.5-32t28.5-12q9 0 16 1.5t14 4.5l13-40q-11-5-24-7.5t-27-2.5q-36 0-57.5 21T178-118z"/><glyph glyph-name="commaaccent" unicode="" horiz-adv-x="500" d="M248-59q16 0 28-13t12-30q0-8-2-16.5t-5-15.5l-48-101h-37l35 100q-12 7-18.5 16T206-99q0 16 12.5 28T248-59z"/><glyph glyph-name="caron.alt" horiz-adv-x="500" d="m311 685-10-176h-40v176h50z"/><glyph glyph-name="revcommaaccent" horiz-adv-x="500" d="M254 517q-16 0-28 13t-12 30q0 8 2 16.5t5 15.5l38 81h37l-25-80q12-7 18.5-16t6.5-20q0-16-12.5-28T254 517z"/><glyph glyph-name="afii10017" unicode="А" horiz-adv-x="667" d="M642 0h-55l-86 209H163L78 0H25l283 685h51zM332 621 183 256h299z"/><glyph glyph-name="afii10018" unicode="Б" horiz-adv-x="594" d="M291 0H110v685h368v-47H162V384h129q109 0 173.5-51T529 192 464.5 51 291 0zm184 192q0 69-48 107t-131 38H162V47h134q83 0 131 38t48 107z"/><glyph glyph-name="afii10019" unicode="В" horiz-adv-x="609" d="M287 0H110v685h177q105 0 163.5-46.5T509 509q0-51-27.5-90T404 359q65-20 100-64t35-105q0-88-68-139T287 0zm168 509q0 59-44 94t-119 35H162V380h130q75 0 119 35t44 94zm30-319q0 68-50.5 105.5T292 333H162V47h130q92 0 142.5 37.5T485 190z"/><glyph glyph-name="afii10020" unicode="Г" horiz-adv-x="498" d="M162 0h-52v685h368v-47H162V0z"/><glyph glyph-name="afii10021" unicode="Д" horiz-adv-x="713" d="M331 685h51L633 47h55v-217h-52V0H77v-170H25V47h55zm24-65L132 47h447z"/><glyph glyph-name="afii10022" unicode="Е" horiz-adv-x="568" d="M508 0H110v685h398v-47H162V380h326v-47H162V47h346V0z"/><glyph glyph-name="afii10023" unicode="Ё" horiz-adv-x="568" d="M508 0H110v685h398v-47H162V380h326v-47H162V47h346V0zM239 833q0-16-11.5-27.5T200 794t-27.5 11.5T161 833t11.5 27.5T200 872t27.5-11.5T239 833zm168 0q0-16-11.5-27.5T368 794t-27.5 11.5T329 833t11.5 27.5T368 872t27.5-11.5T407 833z"/><glyph glyph-name="afii10024" unicode="Ж" horiz-adv-x="932" d="M440 327h-20q-25 0-44 2t-34 6L89 0H25l269 356q-24 16-49 45.5T179 494L55 685h58l123-191q53-82 86-101t98-19h20v311h52V374h20q65 0 98 19t86 101l123 191h58L753 494q-39-61-64.5-91T638 356L907 0h-64L590 335q-15-4-34-6t-44-2h-20V0h-52v327z"/><glyph glyph-name="afii10025" unicode="З" horiz-adv-x="611" d="M487 188q0 69-54.5 110T292 339H188v47h104q72 0 118.5 36t46.5 95-42.5 94T304 646q-57 0-108-24.5T106 552l-33 33q44 53 103.5 81.5T304 695q91 0 149-48.5T511 517q0-55-32-94.5T388 364q73-20 113-65.5T541 188q0-90-66.5-144T304-10q-73 0-135.5 28.5T62 100l37 34q38-46 91-70.5T304 39q81 0 132 40.5T487 188z"/><glyph glyph-name="afii10026" unicode="И" horiz-adv-x="719" d="M609 0h-49v609L162 0h-52v685h49V76l398 609h52V0z"/><glyph glyph-name="afii10027" unicode="Й" horiz-adv-x="719" d="M609 0h-49v609L162 0h-52v685h49V76l398 609h52V0zM370 754q-63 0-104 35t-41 89v20h48v-20q0-38 25.5-59.5T370 797q47 0 72 20.5t25 58.5v22h48v-22q0-54-41-88t-104-34z"/><glyph glyph-name="afii10028" unicode="К" horiz-adv-x="622" d="M212 327h-50V0h-52v685h52V374h50q67 0 99.5 19T395 494l119 191h57L452 494q-35-56-58.5-85T348 363L596 0h-63L303 338q-18-6-40-8.5t-51-2.5z"/><glyph glyph-name="afii10029" unicode="Л" horiz-adv-x="637" d="M612 0h-55L317 619 78 0H25l268 685h51z"/><glyph glyph-name="afii10030" unicode="М" horiz-adv-x="938" d="M493 0h-50L219 595 134 0H84l102 685h50L471 65l231 620h50L854 0h-52l-87 591z"/><glyph glyph-name="afii10031" unicode="Н" horiz-adv-x="732" d="M622 0h-52v333H162V0h-52v685h52V380h408v305h52V0z"/><glyph glyph-name="afii10032" unicode="О" horiz-adv-x="790" d="M62 342q0 151 95.5 252T395 695t237.5-101T728 342q0-150-95.5-251T395-10 157.5 91 62 342zm612 0q0 131-79.5 217.5T395 646t-199.5-86.5T116 342q0-130 79.5-216.5T395 39t199.5 86.5T674 342z"/><glyph glyph-name="afii10033" unicode="П" horiz-adv-x="727" d="M162 0h-52v685h507V0h-52v638H162V0z"/><glyph glyph-name="afii10034" unicode="Р" horiz-adv-x="579" d="M162 0h-52v685h177q116 0 179-52.5T529 482q0-93-65-147.5T287 280H162V0zm313 482q0 75-48 115.5T292 638H162V327h130q88 0 135.5 40T475 482z"/><glyph glyph-name="afii10035" unicode="С" horiz-adv-x="674" d="M116 342q0-128 81-215.5T395 39q59 0 113 25.5t97 74.5l36-37q-54-56-115.5-84T395-10Q253-10 157.5 91T62 342q0 151 95.5 252T395 695q67 0 127-26t110-76l-35-36q-43 44-94.5 66.5T395 646q-120 0-199.5-86.5T116 342z"/><glyph glyph-name="afii10036" unicode="Т" horiz-adv-x="528" d="M238 638H20v47h488v-47H290V0h-52v638z"/><glyph glyph-name="afii10037" unicode="У" horiz-adv-x="603" d="M519 685h53L266 0h-53l73 163L31 685h58l224-461z"/><glyph glyph-name="afii10038" unicode="Ф" horiz-adv-x="824" d="M769 357q0-123-89.5-200T448 80h-10V0h-52v80h-10q-141 0-231 77T55 357t90 200 231 77h10v71h52v-71h10q141 0 231-77t90-200zm-54 0q0 101-74.5 164.5T448 585h-10V129h10q118 0 192.5 63T715 357zm-606 0q0-101 74.5-164.5T376 129h10v456h-10q-118 0-192.5-63.5T109 357z"/><glyph glyph-name="afii10039" unicode="Х" horiz-adv-x="611" d="M581 0h-64L301 310 88 0H30l242 352L41 685h64l205-295 202 295h58L339 349z"/><glyph glyph-name="afii10040" unicode="Ц" horiz-adv-x="722" d="M560 685h52V47h100v-217h-52V0H110v685h52V47h398v638z"/><glyph glyph-name="afii10041" unicode="Ч" horiz-adv-x="684" d="M523 685h51V0h-51v347q-39-44-93.5-68T314 255q-102 0-163 63T90 490v195h52V490q0-88 46.5-138.5T314 301q64 0 119 29.5t90 81.5v273z"/><glyph glyph-name="afii10042" unicode="Ш" horiz-adv-x="912" d="M750 685h52V0H110v685h52V47h268v638h52V47h268v638z"/><glyph glyph-name="afii10043" unicode="Щ" horiz-adv-x="912" d="M750 685h52V47h100v-217h-52V0H110v685h52V47h268v638h52V47h268v638z"/><glyph glyph-name="afii10044" unicode="Ъ" horiz-adv-x="667" d="M188 638H20v47h220V384h159q109 0 173.5-51T637 192 572.5 51 399 0H188v638zm395-446q0 69-48 107t-131 38H240V47h164q83 0 131 38t48 107z"/><glyph glyph-name="afii10045" unicode="Ы" horiz-adv-x="855" d="M745 2h-52v685h52V2zM559 192q0-90-64.5-141T321 0H110v685h52V384h159q109 0 173.5-51T559 192zm-54 0q0 69-48 107t-131 38H162V47h164q83 0 131 38t48 107z"/><glyph glyph-name="afii10046" unicode="Ь" horiz-adv-x="589" d="M559 192q0-90-64.5-141T321 0H110v685h52V384h159q109 0 173.5-51T559 192zm-54 0q0 69-48 107t-131 38H162V47h164q83 0 131 38t48 107z"/><glyph glyph-name="afii10047" unicode="Э" horiz-adv-x="681" d="M308 695q142 0 237.5-101T641 342q0-150-95.5-251T308-10q-69 0-130.5 28T62 102l36 37q43-49 97-74.5T308 39q112 0 191.5 80.5T586 321H187v47h399q-8 121-86.5 199.5T308 646q-56 0-107.5-22.5T106 557l-35 36q50 50 110 76t127 26z"/><glyph glyph-name="afii10048" unicode="Ю" horiz-adv-x="1057" d="M662 695q142 0 237.5-101T995 342q0-150-95.5-251T662-10q-137 0-231 94T330 321H162V0h-52v685h52V368h168q9 142 102.5 234.5T662 695zm279-353q0 131-79.5 217.5T662 646t-199.5-86.5T383 342q0-130 79.5-216.5T662 39t199.5 86.5T941 342z"/><glyph glyph-name="afii10049" unicode="Я" horiz-adv-x="636" d="M90 497q0 85 58.5 136.5T304 685h222V0h-52v309H313L110 0H50l204 311q-71 11-117.5 62.5T90 497zm54 0q0-64 42.5-102.5T299 356h175v282H299q-70 0-112.5-38.5T144 497z"/><glyph glyph-name="afii10052" unicode="Ѓ" horiz-adv-x="498" d="M162 0h-52v685h368v-47H162V0zm78 755-22 31 154 121 32-46z"/><glyph glyph-name="afii10050" unicode="Ґ" horiz-adv-x="498" d="M426 685v140h52V638H162V0h-52v685h316z"/><glyph glyph-name="afii10051" unicode="Ђ" horiz-adv-x="737" d="M475 450q85 0 132.5-53T655 249V82q0-72-41.5-113.5T498-73q-28 0-50.5 8.5T398-34l31 34q15-15 31-21.5t35-6.5q50 0 79 29.5T603 82v164q0 74-35.5 116T470 404q-51 0-100-27t-80-74V0h-52v638H20v47h488v-47H290V368q32 38 81.5 60T475 450z"/><glyph glyph-name="afii10053" unicode="Є" horiz-adv-x="674" d="m605 139 36-37q-54-56-115.5-84T395-10Q253-10 157.5 91T62 342q0 151 95.5 252T395 695q67 0 127-26t110-76l-35-36q-43 44-94.5 66.5T395 646q-110 0-187.5-74.5T118 380h430v-47H116q3-125 83.5-209.5T395 39q59 0 113 25.5t97 74.5z"/><glyph glyph-name="afii10054" unicode="Ѕ" horiz-adv-x="566" d="M291 646q-69 0-110.5-33.5T139 522q0-35 16.5-61t52.5-46q19-11 45.5-21.5T334 365q94-31 136-76.5T512 177q0-81-59.5-134T303-10q-76 0-139 29T49 106l34 39q48-54 102-80t118-26q68 0 112.5 39t44.5 99q0 48-33 80.5T303 320q-64 21-94.5 35T156 385q-35 25-52 59t-17 78q0 78 56.5 125.5T291 695q58 0 108-22t96-67l-33-38q-44 40-85 59t-86 19z"/><glyph glyph-name="uni0400" unicode="Ѐ" horiz-adv-x="568" d="M508 0H110v685h398v-47H162V380h326v-47H162V47h346V0zM224 907l154-121-22-31-164 106z"/><glyph glyph-name="afii10055" unicode="І" horiz-adv-x="272" d="M162 0h-52v685h52V0z"/><glyph glyph-name="afii10056" unicode="Ї" horiz-adv-x="272" d="M162 0h-52v685h52V0zM91 833q0-16-11.5-27.5T52 794t-27.5 11.5T13 833t11.5 27.5T52 872t27.5-11.5T91 833zm168 0q0-16-11.5-27.5T220 794t-27.5 11.5T181 833t11.5 27.5T220 872t27.5-11.5T259 833z"/><glyph glyph-name="afii10057" unicode="Ј" horiz-adv-x="450" d="M187-10q-47 0-88 19T25 65l35 35q26-30 59-45.5T187 39q55 0 85.5 37T303 181v504h52V181q0-91-44.5-141T187-10z"/><glyph glyph-name="uni040D" unicode="Ѝ" horiz-adv-x="719" d="M609 0h-49v609L162 0h-52v685h49V76l398 609h52V0zM294 907l154-121-22-31-164 106z"/><glyph glyph-name="afii10061" unicode="Ќ" horiz-adv-x="622" d="M212 327h-50V0h-52v685h52V374h50q67 0 99.5 19T395 494l119 191h57L452 494q-35-56-58.5-85T348 363L596 0h-63L303 338q-18-6-40-8.5t-51-2.5zm58 428-22 31 154 121 32-46z"/><glyph glyph-name="afii10058" unicode="Љ" horiz-adv-x="946" d="M916 192q0-90-64.5-141T678 0H557L317 619 78 0H25l268 685h51l118-301h216q109 0 173.5-51T916 192zm-54 0q0 69-48 107t-131 38H480L594 47h89q83 0 131 38t48 107z"/><glyph glyph-name="afii10059" unicode="Њ" horiz-adv-x="1049" d="M570 333H162V0h-52v685h52V380h408v305h52V384h159q109 0 173.5-51t64.5-141-64.5-141T781 0H570v333zm395-141q0 69-48 107t-131 38H622V47h164q83 0 131 38t48 107z"/><glyph glyph-name="afii10060" unicode="Ћ" horiz-adv-x="717" d="M450 404q-45 0-88-26.5T290 304V0h-52v638H20v47h488v-47H290V368q30 39 74 60.5t91 21.5q86 0 133-50t47-141V0h-52v256q0 69-35.5 108.5T450 404z"/><glyph glyph-name="afii10062" unicode="Ў" horiz-adv-x="603" d="M519 685h53L266 0h-53l73 163L31 685h58l224-461zm-206 69q-63 0-104 35t-41 89v20h48v-20q0-38 25.5-59.5T313 797q47 0 72 20.5t25 58.5v22h48v-22q0-54-41-88t-104-34z"/><glyph glyph-name="afii10145" unicode="Џ" horiz-adv-x="722" d="M612 685V0H387v-170h-52V0H110v685h52V47h398v638h52z"/><glyph glyph-name="afii10146" unicode="Ѣ" horiz-adv-x="614" d="M135 585v125h52V585h202v-47H187V384h159q109 0 173.5-51T584 192 519.5 51 346 0H135v538H0v47h135zm395-393q0 69-48 107t-131 38H187V47h164q83 0 131 38t48 107z"/><glyph glyph-name="afii10147" unicode="Ѳ" horiz-adv-x="790" d="M62 342q0 151 95.5 252T395 695t237.5-101T728 342q0-150-95.5-251T395-10 157.5 91 62 342zm333 304q-114 0-192-79t-86-201h556q-8 122-86 201t-192 79zm0-607q114 0 192 79t86 201H117q8-122 86-201t192-79z"/><glyph glyph-name="afii10148" unicode="Ѵ" horiz-adv-x="657" d="M561 557 349 0h-51L35 685h56L324 65l190 508q25 64 57.5 92.5T653 695h4v-49q-33 0-55-20.5T561 557z"/><glyph glyph-name="afii10065" unicode="а" horiz-adv-x="582" d="M492 0h-40l-8 74q-29-40-72-62t-93-22q-95 0-159 66.5T56 220q0 98 64 164t159 66q50 0 93-22t72-62l8 74h40V0zM108 220q0-78 49-131t122-53q72 0 121.5 53T450 220t-49.5 131T279 404q-73 0-122-53t-49-131z"/><glyph glyph-name="afii10066" unicode="б" horiz-adv-x="558" d="M279 450q95 0 158.5-65.5T501 220 437.5 55.5 279-10 120.5 55.5 57 220q0 35 8 66t24 56q-16 35-22.5 64T60 469q0 70 46.5 118T245 660l207 55 12-44-207-55q-76-20-110.5-55T112 469q0-20 3.5-39.5T126 390q31 29 70 44.5t83 15.5zM109 220q0-80 48.5-132T279 36t121.5 52T449 220t-48.5 132T279 404t-121.5-52T109 220z"/><glyph glyph-name="afii10067" unicode="в" horiz-adv-x="538" d="M283 0H90v440h203q76 0 118-30t42-86q0-34-15.5-58T390 228q42-13 62.5-39.5T473 122q0-60-48.5-91T283 0zm118 321q0 36-24 55t-69 19H138V247h170q44 0 68.5 19t24.5 55zm20-198q0 40-28 59.5T308 202H138V45h170q57 0 85 19.5t28 58.5z"/><glyph glyph-name="afii10068" unicode="г" horiz-adv-x="413" d="M140 0H90v440h293v-45H140V0z"/><glyph glyph-name="afii10069" unicode="д" horiz-adv-x="532" d="M70-150H20V45h47l175 395h50L467 45h45v-195h-50V0H70v-150zm196 539L116 45h300z"/><glyph glyph-name="afii10070" unicode="е" horiz-adv-x="529" d="m416 91 33-33q-34-35-74.5-51.5T283-10q-97 0-161.5 65.5T57 220q0 98 62 164t154 66q89 0 147.5-65.5T479 220v-8.5l-1-7.5H108q5-73 54-120.5T283 36q39 0 72.5 14T416 91zM273 404q-64 0-109.5-43.5T109 249h318q-8 69-51 112t-103 43z"/><glyph glyph-name="afii10071" unicode="ё" horiz-adv-x="529" d="m416 91 33-33q-34-35-74.5-51.5T283-10q-97 0-161.5 65.5T57 220q0 98 62 164t154 66q89 0 147.5-65.5T479 220v-8.5l-1-7.5H108q5-73 54-120.5T283 36q39 0 72.5 14T416 91zM273 404q-64 0-109.5-43.5T109 249h318q-8 69-51 112t-103 43zm-50 184q0-16-11.5-27.5T184 549t-27.5 11.5T145 588t11.5 27.5T184 627t27.5-11.5T223 588zm168 0q0-16-11.5-27.5T352 549t-27.5 11.5T313 588t11.5 27.5T352 627t27.5-11.5T391 588z"/><glyph glyph-name="afii10072" unicode="ж" horiz-adv-x="722" d="M336 211h-48q-9 0-17 1l-16 2L96 0H35l173 233q-14 10-29 26.5T117 344l-67 96h56l67-96q43-62 63.5-75t51.5-13h48v184h50V256h48q31 0 51.5 13t63.5 75l67 96h56l-67-96q-47-68-62-84.5T514 233L687 0h-61L467 214q-7-1-15.5-2t-17.5-1h-48V0h-50v211z"/><glyph glyph-name="afii10073" unicode="з" horiz-adv-x="506" d="M389 121q0 41-41 62t-119 21h-72v45h72q66 0 105 20.5t39 57.5q0 35-34.5 56T249 404q-42 0-80.5-14T100 350l-31 33q37 33 82.5 50t97.5 17q77 0 125.5-33t48.5-90q0-34-23-59t-65-39q52-13 79-40.5t27-67.5q0-60-52.5-95.5T253-10q-61 0-111.5 19T55 64l34 33q29-30 71-45.5T253 36q62 0 99 22.5t37 62.5z"/><glyph glyph-name="afii10074" unicode="и" horiz-adv-x="551" d="M461 0h-48v370L138 0H90v440h48V69l275 371h48V0z"/><glyph glyph-name="afii10075" unicode="й" horiz-adv-x="551" d="M461 0h-48v370L138 0H90v440h48V69l275 371h48V0zM280 509q-63 0-104 35t-41 89v20h48v-20q0-38 25.5-59.5T280 552q47 0 72 20.5t25 58.5v22h48v-22q0-54-41-88t-104-34z"/><glyph glyph-name="afii10076" unicode="к" horiz-adv-x="506" d="M194 211h-54V0H90v440h50V256h54q42 0 75 20.5t66 67.5l67 96h56l-67-96q-30-43-52-67t-44-39L481 0h-62L248 217q-12-3-25.5-4.5T194 211z"/><glyph glyph-name="afii10077" unicode="л" horiz-adv-x="472" d="M452 0h-52L234 387 70 0H20l191 440h50z"/><glyph glyph-name="afii10078" unicode="м" horiz-adv-x="709" d="M379 0h-51L181 378 89 0H40l113 440h49L354 56l152 384h50L669 0h-50l-94 378z"/><glyph glyph-name="afii10079" unicode="н" horiz-adv-x="547" d="M457 0h-50v206H140V0H90v440h50V251h267v189h50V0z"/><glyph glyph-name="afii10080" unicode="о" horiz-adv-x="558" d="M501 220q0-99-63-164.5T279-10 120 55.5 57 220t63 164.5T279 450t159-65.5T501 220zm-392 0q0-79 48.5-131.5T279 36t121.5 52.5T449 220t-48 131.5T279 404t-122-52.5T109 220z"/><glyph glyph-name="afii10081" unicode="п" horiz-adv-x="550" d="M140 0H90v440h370V0h-50v395H140V0z"/><glyph glyph-name="afii10082" unicode="р" horiz-adv-x="582" d="M526 220q0-98-64-164T303-10q-49 0-91.5 21T140 71v-271H90v640h40l8-74q29 40 72 62t93 22q95 0 159-66.5T526 220zM303 404q-72 0-121.5-53T132 220t49.5-131T303 36q73 0 122 53t49 131-49 131-122 53z"/><glyph glyph-name="afii10083" unicode="с" horiz-adv-x="481" d="M108 220q0-79 49.5-131.5T282 36q37 0 71 15t63 44l32-34q-35-36-76.5-53.5T282-10q-97 0-161.5 65.5T56 220t64.5 164.5T282 450q45 0 84-15t72-46l-32-34q-28 25-58.5 37T282 404q-75 0-124.5-52.5T108 220z"/><glyph glyph-name="afii10084" unicode="т" horiz-adv-x="467" d="M208 395H30v45h407v-45H258V0h-50v395z"/><glyph glyph-name="afii10085" unicode="у" horiz-adv-x="540" d="M478 0q0-91-63-150.5T256-210q-55 0-105 18t-94 54l28 37q40-32 82.5-48t88.5-16q75 0 123.5 46.5T428 0q0 28-6 52.5T404 100q-32-43-75-66.5T240 10q-78 0-120.5 47.5T77 191v249h50V194q0-66 31-102t87-36q41 0 79 25.5t66 71.5v287h50V136l10-21q13-27 20.5-57.5T478 0z"/><glyph glyph-name="afii10086" unicode="ф" horiz-adv-x="670" d="M613 220q0-103-70-166.5T364-10h-5v-190h-48v190h-5q-109 0-179 63.5T57 220t70 166.5T306 450h5v193h48V450h5q109 0 179-63.5T613 220zm-50 0q0 81-56 132t-143 51h-5V37h5q87 0 143 51t56 132zm-456 0q0-81 56-132t143-51h5v366h-5q-87 0-143-51t-56-132z"/><glyph glyph-name="afii10087" unicode="х" horiz-adv-x="441" d="M416 0h-62L217 188 80 0H25l166 225L35 440h62l126-174 128 174h55L250 229z"/><glyph glyph-name="afii10088" unicode="ц" horiz-adv-x="545" d="M405 440h50V45h75v-195h-50V0H90v440h50V45h265v395z"/><glyph glyph-name="afii10088.alt" horiz-adv-x="530" d="M508-50v-65h-50v85q0 31-9.5 58.5T421 79q-33-43-76.5-66T252-10q-76 0-124 50.5T80 171v269h50V174q0-61 35-99.5T257 36q43 0 79.5 22t63.5 64v318h50V117l15-20q22-28 32.5-65T508-50z"/><glyph glyph-name="afii10089" unicode="ч" horiz-adv-x="505" d="M365 440h50V0h-50v212q-30-28-64.5-42.5T228 155q-72 0-117.5 42.5T65 309v131h50V309q0-48 31.5-78t81.5-30q41 0 76.5 15t60.5 44v180z"/><glyph glyph-name="afii10090" unicode="ш" horiz-adv-x="740" d="M600 440h50V0H90v440h50V45h205v395h50V45h205v395z"/><glyph glyph-name="afii10091" unicode="щ" horiz-adv-x="740" d="M600 440h50V45h75v-195h-50V0H90v440h50V45h205v395h50V45h205v395z"/><glyph glyph-name="afii10091.alt" horiz-adv-x="730" d="M708-50v-65h-50v85q0 29-8.5 55.5T624 76q-23-41-59-63.5T485-10q-43 0-77.5 19.5T356 63q-22-36-55.5-54.5T225-10q-64 0-104.5 39.5T80 131v309h50V134q0-43 27-70.5T227 36q36 0 65 21.5t48 62.5v320h50V134q0-43 27-70.5T487 36q36 0 65 21.5t48 62.5v320h50V117l15-20q22-28 32.5-65T708-50z"/><glyph glyph-name="afii10092" unicode="ъ" horiz-adv-x="535" d="M148 395H0v45h198V265h142q77 0 123.5-35.5T510 132q0-61-47-96.5T340 0H148v395zm310-263q0 39-29 63.5T355 220H198V45h157q45 0 74 24t29 63z"/><glyph glyph-name="afii10093" unicode="ы" horiz-adv-x="675" d="M454 132q0-61-47-96.5T284 0H92v440h50V265h142q77 0 123.5-35.5T454 132zm-52 0q0 39-29 63.5T299 220H142V45h157q45 0 74 24t29 63zm133 308h50V0h-50v440z"/><glyph glyph-name="afii10094" unicode="ь" horiz-adv-x="477" d="M452 132q0-61-47-96.5T282 0H90v440h50V265h142q77 0 123.5-35.5T452 132zm-52 0q0 39-29 63.5T297 220H140V45h157q45 0 74 24t29 63z"/><glyph glyph-name="afii10095" unicode="э" horiz-adv-x="519" d="M231 450q98 0 164.5-66T462 220 395.5 56 231-10q-50 0-93.5 18T60 61l32 34q28-28 64.5-43.5T231 36q70 0 120.5 47T409 201H146v45h262q-9 69-58.5 113.5T231 404q-36 0-69-12.5T102 355l-32 34q33 30 74 45.5t87 15.5z"/><glyph glyph-name="afii10096" unicode="ю" horiz-adv-x="763" d="M484 450q96 0 159-65.5T706 220 643 55.5 484-10q-91 0-154 61t-68 155H140V0H90v440h50V251h124q10 87 71.5 143T484 450zM314 220q0-79 48.5-131.5T484 36t121.5 52.5T654 220t-48 131.5T484 404t-122-52.5T314 220z"/><glyph glyph-name="afii10097" unicode="я" horiz-adv-x="519" d="M68 311q0 60 47 94.5T238 440h191V0h-50v183H255L115 0H55l144 186q-62 9-96.5 41.5T68 311zm52 0q0-38 28.5-60.5T223 228h156v167H223q-45 0-74-23t-29-61z"/><glyph glyph-name="afii10100" unicode="ѓ" horiz-adv-x="413" d="M140 0H90v440h293v-45H140V0zm50 510-22 31 154 121 32-46z"/><glyph glyph-name="afii10098" unicode="ґ" horiz-adv-x="413" d="M333 440v140h50V395H140V0H90v440h243z"/><glyph glyph-name="afii10099" unicode="ђ" horiz-adv-x="545" d="M310 310q72 0 112.5-42.5T463 149V-85q0-56-32.5-90.5T345-210q-28 0-50 8.5T248-172l31 35q15-15 31-21.5t35-6.5q32 0 50 21.5T413-85v231q0 54-30 86t-82 32q-37 0-74.5-26.5T160 165V0h-50v395H20v45h90v265h50V440h175v-45H160V229q30 39 69 60t81 21z"/><glyph glyph-name="afii10101" unicode="є" horiz-adv-x="518" d="m426 95 32-34q-34-35-77.5-53T287-10q-98 0-164.5 66T56 220t66.5 164T287 450q46 0 87-15.5t74-45.5l-32-34q-27 24-60 36.5T287 404q-69 0-118.5-44.5T110 246h262v-45H109q7-71 57.5-118T287 36q38 0 74.5 15.5T426 95z"/><glyph glyph-name="afii10102" unicode="ѕ" horiz-adv-x="408" d="M65 334q0 52 38 84t99 32q38 0 73-13.5t64-39.5l-32-38q-22 21-49.5 33T202 404q-42 0-64.5-18T115 335q0-30 23-50t94-41q68-20 97-50.5t29-75.5q0-56-43-92T203-10q-46 0-84.5 17T45 59l33 37q30-32 59.5-46T203 36q48 0 76.5 22.5T308 118q0 28-19.5 46T206 202q-83 27-112 56.5T65 334z"/><glyph glyph-name="uni0450" unicode="ѐ" horiz-adv-x="529" d="m416 91 33-33q-34-35-74.5-51.5T283-10q-97 0-161.5 65.5T57 220q0 98 62 164t154 66q89 0 147.5-65.5T479 220v-8.5l-1-7.5H108q5-73 54-120.5T283 36q39 0 72.5 14T416 91zM273 404q-64 0-109.5-43.5T109 249h318q-8 69-51 112t-103 43zm-69 258 154-121-22-31-164 106z"/><glyph glyph-name="afii10103" unicode="і" horiz-adv-x="230" d="M155 584q0-16-11.5-28T115 544q-16 0-28 12t-12 28q0 17 12 28.5t28 11.5q17 0 28.5-11.5T155 584zM90 440h50V0H90v440z"/><glyph glyph-name="afii10104" unicode="ї" horiz-adv-x="230" d="M90 440h50V0H90v440zM70 588q0-16-11.5-27.5T31 549 3.5 560.5-8 588t11.5 27.5T31 627t27.5-11.5T70 588zm168 0q0-16-11.5-27.5T199 549t-27.5 11.5T160 588t11.5 27.5T199 627t27.5-11.5T238 588z"/><glyph glyph-name="afii10105" unicode="ј" horiz-adv-x="230" d="M155 584q0-16-11.5-28T115 544q-16 0-28 12t-12 28q0 17 12 28.5t28 11.5q17 0 28.5-11.5T155 584zM11-165q36 0 57.5 28.5T90-59v499h50V-64q0-65-35.5-105.5T11-210q-29 0-57.5 12T-97-165l31 34q18-16 38.5-25t38.5-9z"/><glyph glyph-name="uni045D" unicode="ѝ" horiz-adv-x="551" d="m200 662 154-121-22-31-164 106zM461 0h-48v370L138 0H90v440h48V69l275 371h48V0z"/><glyph glyph-name="afii10109" unicode="ќ" horiz-adv-x="506" d="M194 211h-54V0H90v440h50V256h54q42 0 75 20.5t66 67.5l67 96h56l-67-96q-30-43-52-67t-44-39L481 0h-62L248 217q-12-3-25.5-4.5T194 211zm16 299-22 31 154 121 32-46z"/><glyph glyph-name="afii10106" unicode="љ" horiz-adv-x="716" d="M691 131q0-61-46.5-96T521 0H400L234 387 70 0H20l191 440h50l76-175h184q77 0 123.5-36t46.5-98zm-52 1q0 39-29 63.5T536 220H357l75-175h104q45 0 74 24t29 63z"/><glyph glyph-name="afii10107" unicode="њ" horiz-adv-x="802" d="M602 0H410v220H143V0H93v440h50V264h267v176h50V265h142q77 0 123.5-35.5T772 132q0-61-47-96.5T602 0zm118 132q0 39-29 63.5T617 220H460V45h157q45 0 74 24t29 63z"/><glyph glyph-name="afii10108" unicode="ћ" horiz-adv-x="545" d="M301 264q-38 0-75.5-26T160 165V0h-50v395H20v45h90v265h50V440h175v-45H160V229q29 38 68.5 59.5T310 310q72 0 112.5-42.5T463 149V0h-50v146q0 54-30 86t-82 32z"/><glyph glyph-name="afii10110" unicode="ў" horiz-adv-x="540" d="M478 0q0-91-63-150.5T256-210q-55 0-105 18t-94 54l28 37q40-32 82.5-48t88.5-16q75 0 123.5 46.5T428 0q0 28-6 52.5T404 100q-32-43-75-66.5T240 10q-78 0-120.5 47.5T77 191v249h50V194q0-66 31-102t87-36q41 0 79 25.5t66 71.5v287h50V136l10-21q13-27 20.5-57.5T478 0zM258 509q-63 0-104 35t-41 89v20h48v-20q0-38 25.5-59.5T258 552q47 0 72 20.5t25 58.5v22h48v-22q0-54-41-88t-104-34z"/><glyph glyph-name="afii10193" unicode="џ" horiz-adv-x="548" d="M408 440h50V0H299v-150h-50V0H90v440h50V45h268v395z"/><glyph glyph-name="afii10194" unicode="ѣ" horiz-adv-x="507" d="M472 132q0-61-47-96.5T302 0H110v395H20v45h90v265h50V440h185v-45H160V265h142q77 0 123.5-35.5T472 132zm-52 0q0 39-29 63.5T317 220H160V45h157q45 0 74 24t29 63z"/><glyph glyph-name="afii10195" unicode="ѳ" horiz-adv-x="558" d="M501 220q0-99-63-164.5T279-10 120 55.5 57 220t63 164.5T279 450t159-65.5T501 220zM279 404q-68 0-114.5-45T110 243h338q-8 71-54.5 116T279 404zm0-368q68 0 114.5 45T448 197H110q8-71 54.5-116T279 36z"/><glyph glyph-name="afii10196" unicode="ѵ" horiz-adv-x="465" d="M384 334 255 0h-50L32 440h52L232 60l108 287q21 54 50 78t73 25h2v-46q-28 0-47.5-17T384 334z"/><glyph glyph-name="breve_cyr" horiz-adv-x="500" d="M250 509q-63 0-104 35t-41 89v20h48v-20q0-38 25.5-59.5T250 552q47 0 72 20.5t25 58.5v22h48v-22q0-54-41-88t-104-34z"/><glyph glyph-name="alef:hb" unicode="א" horiz-adv-x="498" d="M488 0h-59L192 317q-51-27-68.5-66T106 130V0H55v130q0 89 23.5 137.5T165 352L40 520h59l184-246q67 31 90.5 71.5T397 475v45h51v-45q0-97-30-148t-108-89z"/><glyph glyph-name="bet:hb" unicode="ב" horiz-adv-x="525" d="M195 530q106 0 160.5-56T410 311V46h100V0H40v46h319v265q0 85-41.5 128.5T195 483q-39 0-72-3.5T50 467v47q47 9 78.5 12.5T195 530z"/><glyph glyph-name="gimel:hb" unicode="ג" horiz-adv-x="420" d="M75-2q-9 0-20 .5T40 0v43h25q75 0 118.5 35T262 202v155q0 60-27 93t-75 33q-25 0-51-7t-49-20l-20 39q32 18 62.5 26.5T165 530q68 0 108-44t40-119V202L355 0h-49l-26 126q-36-69-82.5-98.5T75-2z"/><glyph glyph-name="dalet:hb" unicode="ד" horiz-adv-x="470" d="M445 520v-46h-80V0h-51v474H20v46h425z"/><glyph glyph-name="he:hb" unicode="ה" horiz-adv-x="615" d="M285 530q117 0 178.5-62T525 289V0h-51v289q0 97-48.5 145.5T280 483q-42 0-89.5-6T95 460v45q45 12 93.5 18.5T285 530zM107 0v315l51 3V0h-51z"/><glyph glyph-name="vav:hb" unicode="ו" horiz-adv-x="261" d="M105 0v520h51V0h-51z"/><glyph glyph-name="zayin:hb" unicode="ז" horiz-adv-x="317" d="M160 249q0-63 13.5-116.5T222 0h-55q-30 63-45 126t-15 123q0 51 14.5 112T161 474H20v46h282v-46h-86q-26-53-41-113t-15-112z"/><glyph glyph-name="het:hb" unicode="ח" horiz-adv-x="615" d="M290 483q-32 0-69-7t-75-20V0H95v486q54 22 104.5 33t95.5 11q110 0 170-62.5T525 289V0h-51v289q0 96-46.5 145T290 483z"/><glyph glyph-name="tet:hb" unicode="ט" horiz-adv-x="577" d="M340 530q92 0 142-67.5T532 270q0-132-60-206T305-10q-106 0-165.5 74T80 270v250h51V270q0-112 45-172.5T305 37q83 0 128.5 60.5T479 270q0 104-37 158.5T335 483q-18 0-31.5-1t-28.5-4v45q14 3 31.5 5t33.5 2z"/><glyph glyph-name="yod:hb" unicode="י" horiz-adv-x="221" d="M85 267v253h51V269z"/><glyph glyph-name="finalkaf:hb" unicode="ך" horiz-adv-x="465" d="M160 530q106 0 160.5-56T375 311v-431h-51v431q0 85-41.5 128.5T160 483q-39 0-72-3.5T15 467v47q47 9 78.5 12.5T160 530z"/><glyph glyph-name="kaf:hb" unicode="כ" horiz-adv-x="490" d="M185 530q124 0 194.5-71.5T450 260 379.5 61.5 185-10q-31 0-71 5.5T40 10v46q35-8 73-13t72-5q100 0 156 58.5T397 260t-56 163.5T185 482q-34 0-72-5t-73-13v46q34 9 74 14.5t71 5.5z"/><glyph glyph-name="lamed:hb" unicode="ל" horiz-adv-x="468" d="m72 544 1-24h350v-40L195 0h-54l225 474H25v156h43q2-43 3-56.5t1-29.5z"/><glyph glyph-name="finalmem:hb" unicode="ם" horiz-adv-x="620" d="M300 530q110 0 170-62.5T530 289V0H100v486q54 22 104.5 33t95.5 11zm-5-47q-32 0-69-7t-75-20V46h328v243q0 96-46.5 145T295 483z"/><glyph glyph-name="mem:hb" unicode="מ" horiz-adv-x="625" d="M156 0h-51v520h41q3-17 5-34.5t4-34.5q39 37 88 58t95 21q91 0 144-51.5T535 340V0H335v46h149v289q0 71-38.5 109.5T336 483q-49 0-95.5-24T156 390V0z"/><glyph glyph-name="finalnun:hb" unicode="ן" horiz-adv-x="261" d="M105-120v640h51v-640h-51z"/><glyph glyph-name="nun:hb" unicode="נ" horiz-adv-x="393" d="M303 0H50v46h202v311q0 60-27 93t-75 33q-25 0-51-7t-49-20l-20 39q32 18 62.5 26.5T155 530q68 0 108-44t40-119V0z"/><glyph glyph-name="samekh:hb" unicode="ס" horiz-adv-x="577" d="M532 270q0-132-60-206T305-10q-106 0-165.5 74T80 270v216q54 22 107.5 33T290 530q116 0 179-67.5T532 270zm-53 0q0 105-49.5 159T285 483q-37 0-76.5-7T131 456V270q0-112 45-172.5T305 37t129 60.5T479 270z"/><glyph glyph-name="ayin:hb" unicode="ע" horiz-adv-x="600" d="M525 520V369q0-192-68-280.5T242 0H105v46h120L105 520h53L278 48q103 10 149.5 86T474 369v151h51z"/><glyph glyph-name="finalpe:hb" unicode="ף" horiz-adv-x="565" d="M424-120v409q0 96-46.5 145T240 483q-26 0-56.5-5.5T126 463V268l-51-2v229q45 17 90 26t80 9q110 0 170-62.5T475 289v-409h-51z"/><glyph glyph-name="pe:hb" unicode="פ" horiz-adv-x="550" d="m143 269-51-2v234q38 14 80 21.5t78 7.5q122 0 191-70t69-195q0-123-73.5-194T235 0H80v47h155q104 0 163 58t59 160q0 104-55.5 160.5T245 482q-25 0-52-3.5T143 468V269z"/><glyph glyph-name="finaltsadi:hb" unicode="ץ" horiz-adv-x="509" d="M444 520v-65q0-119-39.5-190T275 152v-272h-51v273q-62 78-102 162T50 520l49 10q32-115 62.5-183T254 189q76 38 107.5 98T393 455v65h51z"/><glyph glyph-name="tsadi:hb" unicode="צ" horiz-adv-x="509" d="M255 218q39-43 89.5-85.5T463 43l-7-43H45v46h335q-132 95-208.5 200.5T35 520h53q31-88 63-150.5T223 256q86 34 126.5 88T390 477v43h51v-45q0-90-47-155T255 218z"/><glyph glyph-name="qof:hb" unicode="ק" horiz-adv-x="553" d="M503 520v-40L366 0h-51l135 474H80v46h423zM80-120v386l52 1v-387H80z"/><glyph glyph-name="resh:hb" unicode="ר" horiz-adv-x="465" d="M375 311V0h-51v311q0 85-41.5 128.5T160 483q-39 0-72-3.5T15 467v47q47 9 78.5 12.5T160 530q106 0 160.5-56T375 311z"/><glyph glyph-name="shin:hb" unicode="ש" horiz-adv-x="704" d="M624 520V281q0-140-70.5-215.5T352-10 150.5 65.5 80 281v239h51V293q18-5 35-7.5t33-2.5q68 0 97.5 30.5T326 414v106h51V414q0-89-42-133.5T209 236q-18 0-37.5 3t-39.5 8q8-101 65-155.5T352 37q106 0 163.5 63.5T573 281v239h51z"/><glyph glyph-name="tav:hb" unicode="ת" horiz-adv-x="675" d="M330 483q-24 0-52.5-2t-61.5-7V136q0-73-33-106T77-3Q65-3 55-2T40 0v45q10-1 19.5-1.5T73 43q49 0 70.5 22t21.5 72v328q-27-4-57.5-10.5T40 439v45q75 22 153.5 34T335 530q130 0 190-58t60-183V0h-51v289q0 106-46.5 150T330 483z"/><glyph glyph-name="shinwithshinDot:hb" unicode="שׁ" horiz-adv-x="704" d="M624 520V281q0-140-70.5-215.5T352-10 150.5 65.5 80 281v239h51V293q18-5 35-7.5t33-2.5q68 0 97.5 30.5T326 414v106h51V414q0-89-42-133.5T209 236q-18 0-37.5 3t-39.5 8q8-101 65-155.5T352 37q106 0 163.5 63.5T573 281v239h51zm-25 95q-12 0-21 9t-9 21q0 13 8.5 21.5T599 675t21.5-8.5T629 645q0-12-9-21t-21-9z"/><glyph glyph-name="shinwithsinDot:hb" unicode="שׂ" horiz-adv-x="704" d="M624 520V281q0-140-70.5-215.5T352-10 150.5 65.5 80 281v239h51V293q18-5 35-7.5t33-2.5q68 0 97.5 30.5T326 414v106h51V414q0-89-42-133.5T209 236q-18 0-37.5 3t-39.5 8q8-101 65-155.5T352 37q106 0 163.5 63.5T573 281v239h51zm-518 95q-12 0-21 9t-9 21q0 13 8.5 21.5T106 675t21.5-8.5T136 645q0-12-9-21t-21-9z"/><glyph glyph-name="shinwithdageshandshinDot:hb" unicode="שּׁ" horiz-adv-x="704" d="M624 520V281q0-140-70.5-215.5T352-10 150.5 65.5 80 281v239h51V293q18-5 35-7.5t33-2.5q68 0 97.5 30.5T326 414v106h51V414q0-89-42-133.5T209 236q-18 0-37.5 3t-39.5 8q8-101 65-155.5T352 37q106 0 163.5 63.5T573 281v239h51zm-26 95q-12 0-21 9t-9 21q0 13 8.5 21.5T598 675t21.5-8.5T628 645q0-12-9-21t-21-9zM429 158q-12 0-21 9t-9 21q0 13 8.5 21.5T429 218t21.5-8.5T459 188q0-12-9-21t-21-9z"/><glyph glyph-name="shinwithdageshandsinDot:hb" unicode="שּׂ" horiz-adv-x="704" d="M624 520V281q0-140-70.5-215.5T352-10 150.5 65.5 80 281v239h51V293q18-5 35-7.5t33-2.5q68 0 97.5 30.5T326 414v106h51V414q0-89-42-133.5T209 236q-18 0-37.5 3t-39.5 8q8-101 65-155.5T352 37q106 0 163.5 63.5T573 281v239h51zm-518 95q-12 0-21 9t-9 21q0 13 8.5 21.5T106 675t21.5-8.5T136 645q0-12-9-21t-21-9zm323-457q-12 0-21 9t-9 21q0 13 8.5 21.5T429 218t21.5-8.5T459 188q0-12-9-21t-21-9z"/><glyph glyph-name="alefwithpatah:hb" unicode="אַ" horiz-adv-x="498" d="M488 0h-59L192 317q-51-27-68.5-66T106 130V0H55v130q0 89 23.5 137.5T165 352L40 520h59l184-246q67 31 90.5 71.5T397 475v45h51v-45q0-97-30-148t-108-89zM345-115H185v40h160v-40z"/><glyph glyph-name="alefwithqamats:hb" unicode="אָ" horiz-adv-x="498" d="M488 0h-59L192 317q-51-27-68.5-66T106 130V0H55v130q0 89 23.5 137.5T165 352L40 520h59l184-246q67 31 90.5 71.5T397 475v45h51v-45q0-97-30-148t-108-89zM243-115h-58v40h160v-40h-58v-80h-44v80z"/><glyph glyph-name="alefwithmapiq:hb" unicode="אּ" horiz-adv-x="498" d="M488 0h-59L192 317q-51-27-68.5-66T106 130V0H55v130q0 89 23.5 137.5T165 352L40 520h59l184-246q67 31 90.5 71.5T397 475v45h51v-45q0-97-30-148t-108-89zM207 97q-12 0-21 9t-9 21q0 13 8.5 21.5T207 157t21.5-8.5T237 127q0-12-9-21t-21-9z"/><glyph glyph-name="betwithdagesh:hb" unicode="בּ" horiz-adv-x="525" d="M195 530q106 0 160.5-56T410 311V46h100V0H40v46h319v265q0 85-41.5 128.5T195 483q-39 0-72-3.5T50 467v47q47 9 78.5 12.5T195 530zm-37-284q-12 0-21 9t-9 21q0 13 8.5 21.5T158 306t21.5-8.5T188 276q0-12-9-21t-21-9z"/><glyph glyph-name="gimelwithdagesh:hb" unicode="גּ" horiz-adv-x="420" d="M75-2q-9 0-20 .5T40 0v43h25q75 0 118.5 35T262 202v155q0 60-27 93t-75 33q-25 0-51-7t-49-20l-20 39q32 18 62.5 26.5T165 530q68 0 108-44t40-119V202L355 0h-49l-26 126q-36-69-82.5-98.5T75-2zm65 258q-12 0-21 9t-9 21q0 13 8.5 21.5T140 316t21.5-8.5T170 286q0-12-9-21t-21-9z"/><glyph glyph-name="daletwithdagesh:hb" unicode="דּ" horiz-adv-x="470" d="M445 520v-46h-80V0h-51v474H20v46h425zM146 215q-12 0-21 9t-9 21q0 13 8.5 21.5T146 275t21.5-8.5T176 245q0-12-9-21t-21-9z"/><glyph glyph-name="hewithmapiq:hb" unicode="הּ" horiz-adv-x="615" d="M285 530q117 0 178.5-62T525 289V0h-51v289q0 97-48.5 145.5T280 483q-42 0-89.5-6T95 460v45q45 12 93.5 18.5T285 530zM107 0v315l51 3V0h-51zm199 170q-12 0-21 9t-9 21q0 13 8.5 21.5T306 230t21.5-8.5T336 200q0-12-9-21t-21-9z"/><glyph glyph-name="vavwithdagesh:hb" unicode="וּ" horiz-adv-x="261" d="M105 0v520h51V0h-51zM0 245q-12 0-21 9t-9 21q0 13 8.5 21.5T0 305t21.5-8.5T30 275q0-12-9-21t-21-9z"/><glyph glyph-name="zayinwithdagesh:hb" unicode="זּ" horiz-adv-x="317" d="M160 249q0-63 13.5-116.5T222 0h-55q-30 63-45 126t-15 123q0 51 14.5 112T161 474H20v46h282v-46h-86q-26-53-41-113t-15-112zM0 215q-12 0-21 9t-9 21q0 13 8.5 21.5T0 275t21.5-8.5T30 245q0-12-9-21t-21-9z"/><glyph glyph-name="tetwithdagesh:hb" unicode="טּ" horiz-adv-x="577" d="M340 530q92 0 142-67.5T532 270q0-132-60-206T305-10q-106 0-165.5 74T80 270v250h51V270q0-112 45-172.5T305 37q83 0 128.5 60.5T479 270q0 104-37 158.5T335 483q-18 0-31.5-1t-28.5-4v45q14 3 31.5 5t33.5 2zm-35-285q-12 0-21 9t-9 21q0 13 8.5 21.5T305 305t21.5-8.5T335 275q0-12-9-21t-21-9z"/><glyph glyph-name="yodwithdagesh:hb" unicode="יּ" horiz-adv-x="221" d="M85 267v253h51V269zM0 370q-12 0-21 9t-9 21q0 13 8.5 21.5T0 430t21.5-8.5T30 400q0-12-9-21t-21-9z"/><glyph glyph-name="yodwithhiriq:hb" unicode="יִ" horiz-adv-x="221" d="M85 267v253h51V269zm25-142q-12 0-21 9t-9 21q0 13 8.5 21.5T110 185t21.5-8.5T140 155q0-12-9-21t-21-9z"/><glyph glyph-name="finalkafwithdagesh:hb" unicode="ךּ" horiz-adv-x="465" d="M160 530q106 0 160.5-56T375 311v-431h-51v431q0 85-41.5 128.5T160 483q-39 0-72-3.5T15 467v47q47 9 78.5 12.5T160 530zm-8-355q-12 0-21 9t-9 21q0 13 8.5 21.5T152 235t21.5-8.5T182 205q0-12-9-21t-21-9z"/><glyph glyph-name="kafwithdagesh:hb" unicode="כּ" horiz-adv-x="490" d="M185 530q124 0 194.5-71.5T450 260 379.5 61.5 185-10q-31 0-71 5.5T40 10v46q35-8 73-13t72-5q100 0 156 58.5T397 260t-56 163.5T185 482q-34 0-72-5t-73-13v46q34 9 74 14.5t71 5.5zm-4-301q-12 0-21 9t-9 21q0 13 8.5 21.5T181 289t21.5-8.5T211 259q0-12-9-21t-21-9z"/><glyph glyph-name="lamedwithdagesh:hb" unicode="לּ" horiz-adv-x="468" d="m72 544 1-24h350v-40L195 0h-54l225 474H25v156h43q2-43 3-56.5t1-29.5zm41-276q-12 0-21 9t-9 21q0 13 8.5 21.5T113 328t21.5-8.5T143 298q0-12-9-21t-21-9z"/><glyph glyph-name="memwithdagesh:hb" unicode="מּ" horiz-adv-x="625" d="M156 0h-51v520h41q3-17 5-34.5t4-34.5q39 37 88 58t95 21q91 0 144-51.5T535 340V0H335v46h149v289q0 71-38.5 109.5T336 483q-49 0-95.5-24T156 390V0zm159 215q-12 0-21 9t-9 21q0 13 8.5 21.5T315 275t21.5-8.5T345 245q0-12-9-21t-21-9z"/><glyph glyph-name="nunwithdagesh:hb" unicode="נּ" horiz-adv-x="393" d="M303 0H50v46h202v311q0 60-27 93t-75 33q-25 0-51-7t-49-20l-20 39q32 18 62.5 26.5T155 530q68 0 108-44t40-119V0zM130 245q-12 0-21 9t-9 21q0 13 8.5 21.5T130 305t21.5-8.5T160 275q0-12-9-21t-21-9z"/><glyph glyph-name="samekhwithdagesh:hb" unicode="סּ" horiz-adv-x="577" d="M532 270q0-132-60-206T305-10q-106 0-165.5 74T80 270v216q54 22 107.5 33T290 530q116 0 179-67.5T532 270zm-53 0q0 105-49.5 159T285 483q-37 0-76.5-7T131 456V270q0-112 45-172.5T305 37t129 60.5T479 270zm-174-25q-12 0-21 9t-9 21q0 13 8.5 21.5T305 305t21.5-8.5T335 275q0-12-9-21t-21-9z"/><glyph glyph-name="finalpewithdagesh:hb" unicode="ףּ" horiz-adv-x="565" d="M424-120v409q0 96-46.5 145T240 483q-26 0-56.5-5.5T126 463V268l-51-2v229q45 17 90 26t80 9q110 0 170-62.5T475 289v-409h-51zM265 323q-12 0-21 9t-9 21q0 13 8.5 21.5T265 383t21.5-8.5T295 353q0-12-9-21t-21-9z"/><glyph glyph-name="pewithdagesh:hb" unicode="פּ" horiz-adv-x="550" d="m143 269-51-2v234q38 14 80 21.5t78 7.5q122 0 191-70t69-195q0-123-73.5-194T235 0H80v47h155q104 0 163 58t59 160q0 104-55.5 160.5T245 482q-25 0-52-3.5T143 468V269zm151-27q-12 0-21 9t-9 21q0 13 8.5 21.5T294 302t21.5-8.5T324 272q0-12-9-21t-21-9z"/><glyph glyph-name="tsadiwithdagesh:hb" unicode="צּ" horiz-adv-x="509" d="M255 218q39-43 89.5-85.5T463 43l-7-43H45v46h335q-132 95-208.5 200.5T35 520h53q31-88 63-150.5T223 256q86 34 126.5 88T390 477v43h51v-45q0-90-47-155T255 218zM65 143q-12 0-21 9t-9 21q0 13 8.5 21.5T65 203t21.5-8.5T95 173q0-12-9-21t-21-9z"/><glyph glyph-name="qofwithdagesh:hb" unicode="קּ" horiz-adv-x="553" d="M503 520v-40L366 0h-51l135 474H80v46h423zM80-120v386l52 1v-387H80zm182 328q-12 0-21 9t-9 21q0 13 8.5 21.5T262 268t21.5-8.5T292 238q0-12-9-21t-21-9z"/><glyph glyph-name="reshwithdagesh:hb" unicode="רּ" horiz-adv-x="465" d="M375 311V0h-51v311q0 85-41.5 128.5T160 483q-39 0-72-3.5T15 467v47q47 9 78.5 12.5T160 530q106 0 160.5-56T375 311zm-223-86q-12 0-21 9t-9 21q0 13 8.5 21.5T152 285t21.5-8.5T182 255q0-12-9-21t-21-9z"/><glyph glyph-name="shinwithdagesh:hb" unicode="שּ" horiz-adv-x="704" d="M624 520V281q0-140-70.5-215.5T352-10 150.5 65.5 80 281v239h51V293q18-5 35-7.5t33-2.5q68 0 97.5 30.5T326 414v106h51V414q0-89-42-133.5T209 236q-18 0-37.5 3t-39.5 8q8-101 65-155.5T352 37q106 0 163.5 63.5T573 281v239h51zM429 158q-12 0-21 9t-9 21q0 13 8.5 21.5T429 218t21.5-8.5T459 188q0-12-9-21t-21-9z"/><glyph glyph-name="tavwithdagesh:hb" unicode="תּ" horiz-adv-x="675" d="M330 483q-24 0-52.5-2t-61.5-7V136q0-73-33-106T77-3Q65-3 55-2T40 0v45q10-1 19.5-1.5T73 43q49 0 70.5 22t21.5 72v328q-27-4-57.5-10.5T40 439v45q75 22 153.5 34T335 530q130 0 190-58t60-183V0h-51v289q0 106-46.5 150T330 483zm45-268q-12 0-21 9t-9 21q0 13 8.5 21.5T375 275t21.5-8.5T405 245q0-12-9-21t-21-9z"/><glyph glyph-name="vavwithholam:hb" unicode="וֹ" horiz-adv-x="261" d="M105 0v520h51V0h-51zm25 615q-12 0-21 9t-9 21q0 13 8.5 21.5T130 675t21.5-8.5T160 645q0-12-9-21t-21-9z"/><glyph glyph-name="yod_yod:hb" unicode="ײ" horiz-adv-x="471" d="M85 267v253h51V269zm250 0v253h51V269z"/><glyph glyph-name="yod_yod_patah:hb" unicode="ײַ" horiz-adv-x="471" d="M85 267v253h51V269zm250 0v253h51V269zm-25-111H150v44h160v-44z"/><glyph glyph-name="vav_yod:hb" unicode="ױ" horiz-adv-x="477" d="M85 267v253h51V269zM321 0v520h51V0h-51z"/><glyph glyph-name="vav_vav:hb" unicode="װ" horiz-adv-x="516" d="M105 0v520h51V0h-51zm255 0v520h51V0h-51z"/><glyph glyph-name="geresh:hb" unicode="׳" horiz-adv-x="180" d="M148 520 72 310H37l51 210h60z"/><glyph glyph-name="gershayim:hb" unicode="״" horiz-adv-x="330" d="M148 520 72 310H37l51 210h60zm150 0-76-210h-35l51 210h60z"/><glyph glyph-name="maqaf:hb" unicode="־" horiz-adv-x="450" d="M305 227H145v40h160v-40z"/><glyph glyph-name="sheva:hb" unicode="ְ" d="M0-125q-12 0-21 9t-9 21q0 13 8.5 21.5T0-65t21.5-8.5T30-95q0-12-9-21t-21-9zm0-100q-12 0-21 9t-9 21q0 13 8.5 21.5T0-165t21.5-8.5T30-195q0-12-9-21t-21-9z"/><glyph glyph-name="hatafSegol:hb" unicode="ֱ" d="M-120-125q-12 0-21 9t-9 21q0 13 8.5 21.5T-120-65t21.5-8.5T-90-95q0-12-9-21t-21-9zm120 0q-12 0-21 9t-9 21q0 13 8.5 21.5T0-65t21.5-8.5T30-95q0-12-9-21t-21-9zm120 0q-12 0-21 9t-9 21q0 13 8.5 21.5T120-65t21.5-8.5T150-95q0-12-9-21t-21-9zm-180-90q-12 0-21 9t-9 21q0 13 8.5 21.5T-60-155t21.5-8.5T-30-185q0-12-9-21t-21-9zm180-10q-12 0-21 9t-9 21q0 13 8.5 21.5T120-165t21.5-8.5T150-195q0-12-9-21t-21-9z"/><glyph glyph-name="hatafPatah:hb" unicode="ֲ" d="M120-125q-12 0-21 9t-9 21q0 13 8.5 21.5T120-65t21.5-8.5T150-95q0-12-9-21t-21-9zM20-115h-160v40H20v-40zm100-110q-12 0-21 9t-9 21q0 13 8.5 21.5T120-165t21.5-8.5T150-195q0-12-9-21t-21-9z"/><glyph glyph-name="hatafQamats:hb" unicode="ֳ" d="M120-125q-12 0-21 9t-9 21q0 13 8.5 21.5T120-65t21.5-8.5T150-95q0-12-9-21t-21-9zm-202 10h-58v40H20v-40h-58v-80h-44v80zm202-110q-12 0-21 9t-9 21q0 13 8.5 21.5T120-165t21.5-8.5T150-195q0-12-9-21t-21-9z"/><glyph glyph-name="hiriq:hb" unicode="ִ" d="M0-125q-12 0-21 9t-9 21q0 13 8.5 21.5T0-65t21.5-8.5T30-95q0-12-9-21t-21-9z"/><glyph glyph-name="tsere:hb" unicode="ֵ" d="M-60-125q-12 0-21 9t-9 21q0 13 8.5 21.5T-60-65t21.5-8.5T-30-95q0-12-9-21t-21-9zm120 0q-12 0-21 9t-9 21q0 13 8.5 21.5T60-65t21.5-8.5T90-95q0-12-9-21t-21-9z"/><glyph glyph-name="segol:hb" unicode="ֶ" d="M-60-125q-13 0-21.5 8.5T-90-95q0 12 9 21t21 9 21-9 9-21-9-21-21-9zm120 0q-12 0-21 9t-9 21 9 21 21 9 21-9 9-21q0-13-8.5-21.5T60-125zM0-215q-13 0-21.5 8.5T-30-185q0 12 9 21t21 9 21-9 9-21q0-13-8.5-21.5T0-215z"/><glyph glyph-name="patah:hb" unicode="ַ" d="M80-115H-80v40H80v-40z"/><glyph glyph-name="qamats:hb" unicode="ָ" d="M-22-115h-58v40H80v-40H22v-80h-44v80z"/><glyph glyph-name="holam:hb" unicode="ֹ" d="M0 615q-12 0-21 9t-9 21q0 13 8.5 21.5T0 675t21.5-8.5T30 645q0-12-9-21t-21-9z"/><glyph glyph-name="holamHaser:hb" unicode="ֺ" d="M0 615q-12 0-21 9t-9 21q0 13 8.5 21.5T0 675t21.5-8.5T30 645q0-12-9-21t-21-9z"/><glyph glyph-name="qubuts:hb" unicode="ֻ" d="M-75-125q-12 0-21 9t-9 21q0 13 8.5 21.5T-75-65t21.5-8.5T-45-95q0-12-9-21t-21-9zm75-85q-12 0-21 9t-9 21q0 13 8.5 21.5T0-150t21.5-8.5T30-180q0-12-9-21t-21-9zm75-85q-12 0-21 9t-9 21q0 13 8.5 21.5T75-235t21.5-8.5T105-265q0-12-9-21t-21-9z"/><glyph glyph-name="dagesh:hb" unicode="ּ" d="M0 215q-12 0-21 9t-9 21q0 13 8.5 21.5T0 275t21.5-8.5T30 245q0-12-9-21t-21-9z"/><glyph glyph-name="shinDot:hb" unicode="ׁ" d="M0 615q-12 0-21 9t-9 21q0 13 8.5 21.5T0 675t21.5-8.5T30 645q0-12-9-21t-21-9z"/><glyph glyph-name="sinDot:hb" unicode="ׂ" d="M0 615q-12 0-21 9t-9 21q0 13 8.5 21.5T0 675t21.5-8.5T30 645q0-12-9-21t-21-9z"/><glyph glyph-name="qamatsQatan:hb" unicode="ׇ" d="M-22-115h-58v40H80v-40H22v-80h-44v80z"/><glyph glyph-name="alefWavyHamzehAbove" unicode="ٲ" horiz-adv-x="248" d="M148 705V0h-48v705h48zm68 98L96 785q-15-2-29.5 0T29 796q-13 6-20 7.5T-4 805q-7 0-16-2t-32-10l4 40q14 7 25.5 10.5T-1 847q7 0 15-2.5t23-9.5q17-9 27-11.5t19-1.5q-10 14-14.5 29T64 883q0 30 20.5 48.5T138 950q19 0 35.5-6.5T199 925l-15-27q-18 9-44.5 10.5T97 903q1-29 16-50t34-21q5 0 33 4t36 5v-38z"/><glyph glyph-name="dotlessBeh" unicode="ٮ" horiz-adv-x="789" d="M383 45q88 0 164.5 12.5T668 93q0 92-4.5 128.5T650 301l48 11q15-75 15.5-135T700 59Q653 27 567.5 8.5T383-10q-163 0-243 47T60 179q0 30 12 63t33 60l33-22q-16-24-24-48.5t-8-51.5q0-68 68.5-101.5T383 45z"/><glyph glyph-name="dotlessFeh.medi" horiz-adv-x="473" d="M30 0H0q-9 0-15 8t-6 19q0 12 6 20t15 8h42q34 0 64.5 3t58.5 9q-53 33-82.5 77T53 235q0 73 50.5 119T234 400q79 0 128-46t49-119q0-48-27-91t-78-75q32-7 66.5-10.5T444 55h29V0h-39q-55 0-105 8.5T235 33q-44-16-96-24.5T30 0zm204 343q-65 0-101-28.5T97 235q0-41 38-81t103-65q61 25 95 63t34 83q0 50-36 79t-97 29z"/><glyph glyph-name="dotlessFeh.init" horiz-adv-x="450" d="M57 0H0q-9 0-15 8t-6 19q0 12 6 20t15 8h57q140 0 211 44t77 134q-34-12-70.5-17.5T199 210q-88 0-133.5 33T20 338q0 83 49.5 148.5T182 552q87 0 147.5-90.5T390 255q0-129-82-192T57 0zm124 495q-44 0-80.5-42.5T64 354q0-45 37-66t115-21q37 0 66 4.5t62 14.5q-10 87-56.5 148T181 495z"/><glyph glyph-name="hehHamzehAbove" unicode="ۂ" horiz-adv-x="470" d="M60 146q0 66 39 123.5T216 377q93-27 143.5-85T410 158q0-75-50-121.5T230-10q-77 0-123.5 43T60 146zm160 174q-57-35-85.5-77T106 153q0-50 33.5-79T231 45q63 0 98 31t35 87q0 52-36.5 91.5T220 320zm87 175v-38l-180-27v38l47 8q-10 14-14.5 29t-4.5 32q0 30 20.5 48.5T229 604q19 0 35.5-6.5T290 579l-15-27q-18 9-44.5 10.5T188 557q1-29 16-50t34-21q5 0 33 4t36 5z"/><glyph glyph-name="hehTehUrdu" unicode="ۃ" horiz-adv-x="470" d="M60 146q0 66 39 123.5T216 377q93-27 143.5-85T410 158q0-75-50-121.5T230-10q-77 0-123.5 43T60 146zm160 174q-57-35-85.5-77T106 153q0-50 33.5-79T231 45q63 0 98 31t35 87q0 52-36.5 91.5T220 320zm-12 164-52-49-52 49 52 50zm120 0-52-49-52 49 52 50z"/><glyph glyph-name="hamze" unicode="ء" horiz-adv-x="400" d="m327 124 12-44L30-8 17 38l90 28q-24 28-36 59.5T59 193q0 48 30.5 77t79.5 29q32 0 60.5-11.5T276 256l-19-31q-20 14-44 21t-47 7q-19 0-37.5-5T95 233q3-65 29-105.5T189 87q11 0 50 10.5t88 26.5z"/><glyph glyph-name="ah" unicode="آ" horiz-adv-x="248" d="M148 705V0h-48v705h48zm-20 128q18-7 27-9.5t16-2.5q11 0 21.5 2.5T219 833l-4-42q-14-7-24.5-10.5T168 777q-9 0-19 2.5T120 790t-28 10.5-16 2.5-16-2-32-10l4 42q14 7 25.5 10.5T79 847q9 0 19-2.5t30-11.5z"/><glyph glyph-name="alefHamzeAbove" unicode="أ" horiz-adv-x="248" d="M148 705V0h-48v705h48zm68 136v-38L36 776v38l47 8q-10 14-14.5 29T64 883q0 30 20.5 48.5T138 950q19 0 35.5-6.5T199 925l-15-27q-18 9-44.5 10.5T97 903q1-29 16-50t34-21q5 0 33 4t36 5z"/><glyph glyph-name="alefHamzeBelow" unicode="إ" horiz-adv-x="248" d="M148 705V0h-48v705h48zm68-861v-38L36-221v38l47 8q-10 14-14.5 29T64-114q0 30 20.5 48.5T138-47q19 0 35.5-6.5T199-72l-15-27q-18 9-44.5 10.5T97-94q1-29 16-50t34-21q5 0 33 4t36 5z"/><glyph glyph-name="alefWasleh" unicode="ٱ" horiz-adv-x="248" d="M148 705V0h-48v705h48zm-4 225q41 0 64-35.5t13-90.5q-12-12-26.5-18.5T164 779q-10 0-21.5 2.5T110 793t-31.5 11.5T58 807q-12 0-23.5-3T8 795l4 42q8 5 17.5 8.5T50 851q14 37 39 58t55 21zm42-89q0 18-14 32.5T140 888q-15 0-26.5-10T91 848q5-1 11-3.5t17-6.5q17-8 26.5-10.5T164 825q11 0 16.5 4t5.5 12z"/><glyph glyph-name="alef" unicode="ا" horiz-adv-x="248" d="M148 705V0h-48v705h48z"/><glyph glyph-name="beh" unicode="ب" horiz-adv-x="789" d="M383 45q88 0 164.5 12.5T668 93q0 92-4.5 128.5T650 301l48 11q15-75 15.5-135T700 59Q653 27 567.5 8.5T383-10q-163 0-243 47T60 179q0 30 12 63t33 60l33-22q-16-24-24-48.5t-8-51.5q0-68 68.5-101.5T383 45zm54-171-52-49-52 49 52 50z"/><glyph glyph-name="peh" unicode="پ" horiz-adv-x="789" d="M383 45q88 0 164.5 12.5T668 93q0 92-4.5 128.5T650 301l48 11q15-75 15.5-135T700 59Q653 27 567.5 8.5T383-10q-163 0-243 47T60 179q0 30 12 63t33 60l33-22q-16-24-24-48.5t-8-51.5q0-68 68.5-101.5T383 45zm-6-171-52-49-52 49 52 50zm120 0-52-49-52 49 52 50zm-60-90-52-49-52 49 52 50z"/><glyph glyph-name="teh" unicode="ت" horiz-adv-x="789" d="M383 45q88 0 164.5 12.5T668 93q0 92-4.5 128.5T650 301l48 11q15-75 15.5-135T700 59Q653 27 567.5 8.5T383-10q-163 0-243 47T60 179q0 30 12 63t33 60l33-22q-16-24-24-48.5t-8-51.5q0-68 68.5-101.5T383 45zm-6 414-52-49-52 49 52 50zm120 0-52-49-52 49 52 50z"/><glyph glyph-name="tehTa" unicode="ٹ" horiz-adv-x="789" d="M383 45q88 0 164.5 12.5T668 93q0 92-4.5 128.5T650 301l48 11q15-75 15.5-135T700 59Q653 27 567.5 8.5T383-10q-163 0-243 47T60 179q0 30 12 63t33 60l33-22q-16-24-24-48.5t-8-51.5q0-68 68.5-101.5T383 45zm51 511q33 0 54.5-24t21.5-61q0-16-3.5-28T495 421q-29-7-66-11t-79-4q-28 0-51 3.5T256 421l13 39q14-4 24-6t20-3q3 8 5 14t5 11v137h39v-92q16 18 34 26.5t38 8.5zm37-100q0 26-13 41t-35 15q-25 0-44.5-16T350 450q41 0 72 1.5t49 4.5z"/><glyph glyph-name="theh" unicode="ث" horiz-adv-x="789" d="M383 45q88 0 164.5 12.5T668 93q0 92-4.5 128.5T650 301l48 11q15-75 15.5-135T700 59Q653 27 567.5 8.5T383-10q-163 0-243 47T60 179q0 30 12 63t33 60l33-22q-16-24-24-48.5t-8-51.5q0-68 68.5-101.5T383 45zm54 504-52-49-52 49 52 50zm-60-90-52-49-52 49 52 50zm120 0-52-49-52 49 52 50z"/><glyph glyph-name="jim" unicode="ج" horiz-adv-x="697" d="M378-258q-153 0-236.5 57.5T58-39q0 135 123.5 221T531 286q-75 34-150 53.5T245 359q-57 0-101-8.5T55 323l-17 48q49 19 96 28t104 9q85 0 191.5-33.5T628 287l-13-46q-242-2-377-75T103-33q0-84 67-127t198-43q55 0 99 5.5t87 16.5l-4-52q-33-11-80.5-18t-91.5-7zm11 271-52-49-52 49 52 50z"/><glyph glyph-name="cheh" unicode="چ" horiz-adv-x="697" d="M378-258q-153 0-236.5 57.5T58-39q0 135 123.5 221T531 286q-75 34-150 53.5T245 359q-57 0-101-8.5T55 323l-17 48q49 19 96 28t104 9q85 0 191.5-33.5T628 287l-13-46q-242-2-377-75T103-33q0-84 67-127t198-43q55 0 99 5.5t87 16.5l-4-52q-33-11-80.5-18t-91.5-7zM329 38l-52-49-52 49 52 50zm120 0-52-49-52 49 52 50zm-60-90-52-49-52 49 52 50z"/><glyph glyph-name="hah" unicode="ح" horiz-adv-x="697" d="M378-258q-153 0-236.5 57.5T58-39q0 135 123.5 221T531 286q-75 34-150 53.5T245 359q-57 0-101-8.5T55 323l-17 48q49 19 96 28t104 9q85 0 191.5-33.5T628 287l-13-46q-242-2-377-75T103-33q0-84 67-127t198-43q55 0 99 5.5t87 16.5l-4-52q-33-11-80.5-18t-91.5-7z"/><glyph glyph-name="kheh" unicode="خ" horiz-adv-x="697" d="M378-258q-153 0-236.5 57.5T58-39q0 135 123.5 221T531 286q-75 34-150 53.5T245 359q-57 0-101-8.5T55 323l-17 48q49 19 96 28t104 9q85 0 191.5-33.5T628 287l-13-46q-242-2-377-75T103-33q0-84 67-127t198-43q55 0 99 5.5t87 16.5l-4-52q-33-11-80.5-18t-91.5-7zm-35 821-52-49-52 49 52 50z"/><glyph glyph-name="dal" unicode="د" horiz-adv-x="541" d="M477 43q-41-28-95.5-40.5T250-10q-69 0-130 11.5T20 34l25 55q49-22 104.5-33T263 45t98 6.5T434 73q-21 88-80.5 165.5T210 365l27 44q97-52 167-156.5T477 43z"/><glyph glyph-name="zal" unicode="ذ" horiz-adv-x="541" d="M477 43q-41-28-95.5-40.5T250-10q-69 0-130 11.5T20 34l25 55q49-22 104.5-33T263 45t98 6.5T434 73q-21 88-80.5 165.5T210 365l27 44q97-52 167-156.5T477 43zM244 546l-52-49-52 49 52 50z"/><glyph glyph-name="dalTa" unicode="ڈ" horiz-adv-x="541" d="M477 43q-41-28-95.5-40.5T250-10q-69 0-130 11.5T20 34l25 55q49-22 104.5-33T263 45t98 6.5T434 73q-21 88-80.5 165.5T210 365l27 44q97-52 167-156.5T477 43zM241 643q33 0 54.5-24t21.5-61q0-16-3.5-28T302 508q-29-7-66-11t-79-4q-28 0-51 3.5T63 508l13 39q14-4 24-6t20-3q3 8 5 14t5 11v137h39v-92q16 18 34 26.5t38 8.5zm37-100q0 26-13 41t-35 15q-25 0-44.5-16T157 537q41 0 72 1.5t49 4.5z"/><glyph glyph-name="reh" unicode="ر" horiz-adv-x="512" d="M412 65q0-63-20.5-119T331-155q-41-48-97-75.5T123-258q-27 0-53 4.5T20-240l11 38q20-4 37-5.5t34-1.5q94 0 169 62.5T369 20q-1 60-14.5 119T308 280l49 22q29-78 42-134t13-103z"/><glyph glyph-name="zeh" unicode="ز" horiz-adv-x="512" d="M412 65q0-63-20.5-119T331-155q-41-48-97-75.5T123-258q-27 0-53 4.5T20-240l11 38q20-4 37-5.5t34-1.5q94 0 169 62.5T369 20q-1 60-14.5 119T308 280l49 22q29-78 42-134t13-103zm-78 412-52-49-52 49 52 50z"/><glyph glyph-name="zheh" unicode="ژ" horiz-adv-x="512" d="M412 65q0-63-20.5-119T331-155q-41-48-97-75.5T123-258q-27 0-53 4.5T20-240l11 38q20-4 37-5.5t34-1.5q94 0 169 62.5T369 20q-1 60-14.5 119T308 280l49 22q29-78 42-134t13-103zm-78 502-52-49-52 49 52 50zm-60-90-52-49-52 49 52 50zm120 0-52-49-52 49 52 50z"/><glyph glyph-name="rehTa" unicode="ڑ" horiz-adv-x="512" d="M412 65q0-63-20.5-119T331-155q-41-48-97-75.5T123-258q-27 0-53 4.5T20-240l11 38q20-4 37-5.5t34-1.5q94 0 169 62.5T369 20q-1 60-14.5 119T308 280l49 22q29-78 42-134t13-103zm-81 509q33 0 54.5-24t21.5-61q0-16-3.5-28T392 439q-29-7-66-11t-79-4q-28 0-51 3.5T153 439l13 39q14-4 24-6t20-3q3 8 5 14t5 11v137h39v-92q16 18 34 26.5t38 8.5zm37-100q0 26-13 41t-35 15q-25 0-44.5-16T247 468q41 0 72 1.5t49 4.5z"/><glyph glyph-name="sin" unicode="س" horiz-adv-x="1152" d="M532 43q7-72 7.5-112t-4.5-85q-57-39-124-60t-134-21q-109 0-167 47T52-53q0 37 13.5 82t36.5 84l36-16q-17-35-27.5-73T100-42q0-69 46-103.5T283-180q58 0 115.5 14T500-127q0 105-14 188t-49 191l47 15 27-96q18-64 50.5-95T645 45q52 0 82.5 42.5T758 198v59h48v-61q0-77 27.5-114T919 45q37 0 66 9t51 27q0 104-4.5 140.5T1018 301l48 11q16-78 16.5-141T1068 47q-32-30-67-43.5T916-10q-48 0-81.5 23.5T784 83q-19-43-56.5-68T644-10q-35 0-63 13t-49 40z"/><glyph glyph-name="shin" unicode="ش" horiz-adv-x="1152" d="M532 43q7-72 7.5-112t-4.5-85q-57-39-124-60t-134-21q-109 0-167 47T52-53q0 37 13.5 82t36.5 84l36-16q-17-35-27.5-73T100-42q0-69 46-103.5T283-180q58 0 115.5 14T500-127q0 105-14 188t-49 191l47 15 27-96q18-64 50.5-95T645 45q52 0 82.5 42.5T758 198v59h48v-61q0-77 27.5-114T919 45q37 0 66 9t51 27q0 104-4.5 140.5T1018 301l48 11q16-78 16.5-141T1068 47q-32-30-67-43.5T916-10q-48 0-81.5 23.5T784 83q-19-43-56.5-68T644-10q-35 0-63 13t-49 40zm304 506-52-49-52 49 52 50zm-60-90-52-49-52 49 52 50zm120 0-52-49-52 49 52 50z"/><glyph glyph-name="sad" unicode="ص" horiz-adv-x="1115" d="M532 73q40 137 115 208t181 71q94 0 155.5-62.5T1045 131q0-17-2-35t-7-38q-62-32-141.5-45T671 0q-39 0-74.5 3T538 11q2-81 1-108.5t-4-56.5q-57-39-124-60t-134-21q-109 0-167 47T52-53q0 37 13.5 82t36.5 84l36-16q-17-35-27.5-73T100-42q0-69 46-103.5T283-180q58 0 115.5 14T500-127q0 98-15 186.5T437 252l47 15q19-65 29.5-107.5T532 73zm466 19q0 94-47.5 149.5T821 297q-89 0-153.5-61T570 58q17-2 40-2.5t53-.5q129 0 204 8t131 29z"/><glyph glyph-name="zad" unicode="ض" horiz-adv-x="1115" d="M532 73q40 137 115 208t181 71q94 0 155.5-62.5T1045 131q0-17-2-35t-7-38q-62-32-141.5-45T671 0q-39 0-74.5 3T538 11q2-81 1-108.5t-4-56.5q-57-39-124-60t-134-21q-109 0-167 47T52-53q0 37 13.5 82t36.5 84l36-16q-17-35-27.5-73T100-42q0-69 46-103.5T283-180q58 0 115.5 14T500-127q0 98-15 186.5T437 252l47 15q19-65 29.5-107.5T532 73zm466 19q0 94-47.5 149.5T821 297q-89 0-153.5-61T570 58q17-2 40-2.5t53-.5q129 0 204 8t131 29zM871 477l-52-49-52 49 52 50z"/><glyph glyph-name="ta" unicode="ط" horiz-adv-x="701" d="M414 352q94 0 155.5-62.5T631 131q0-17-2-35t-7-38q-62-32-141.5-45T257 0q-66 0-134.5 6.5T10 24l15 55q17-4 39-8t47-7q8 28 17 53t19 47v541h48V236q42 58 97 87t122 29zM584 92q0 94-47.5 149.5T407 297q-89 0-153.5-61T156 59q21-2 44-3t49-1q129 0 204 8t131 29z"/><glyph glyph-name="za" unicode="ظ" horiz-adv-x="701" d="M414 352q94 0 155.5-62.5T631 131q0-17-2-35t-7-38q-62-32-141.5-45T257 0q-66 0-134.5 6.5T10 24l15 55q17-4 39-8t47-7q8 28 17 53t19 47v541h48V236q42 58 97 87t122 29zM584 92q0 94-47.5 149.5T407 297q-89 0-153.5-61T156 59q21-2 44-3t49-1q129 0 204 8t131 29zm-55 385-52-49-52 49 52 50z"/><glyph glyph-name="eyn" unicode="ع" horiz-adv-x="574" d="M158 412q0-83 47.5-152.5T309 190q15 0 49.5 8T463 225l9-47-162-42q-108-28-157.5-70.5T103-43q0-77 68.5-118.5T368-203q48 0 93 5.5t93 16.5l-4-52q-38-12-86-18.5t-91-6.5q-149 0-232 56.5T58-44q0 65 43 117.5T225 158q-47 36-77.5 96T117 374q0 53 45.5 93T271 507q45 0 88.5-15t68.5-39l-18-34q-35 19-69 28.5t-65 9.5q-34 0-64-11.5T158 412z"/><glyph glyph-name="gheyn" unicode="غ" horiz-adv-x="574" d="M158 412q0-83 47.5-152.5T309 190q15 0 49.5 8T463 225l9-47-162-42q-108-28-157.5-70.5T103-43q0-77 68.5-118.5T368-203q48 0 93 5.5t93 16.5l-4-52q-38-12-86-18.5t-91-6.5q-149 0-232 56.5T58-44q0 65 43 117.5T225 158q-47 36-77.5 96T117 374q0 53 45.5 93T271 507q45 0 88.5-15t68.5-39l-18-34q-35 19-69 28.5t-65 9.5q-34 0-64-11.5T158 412zm163 220-52-49-52 49 52 50z"/><glyph glyph-name="feh" unicode="ف" horiz-adv-x="811" d="m595 678-52-49-52 49 52 50zm-72-126q87 0 147.5-90.5T731 255q0-144-79.5-204.5T383-10q-163 0-243 47T60 179q0 30 12 63t33 60l33-22q-16-24-24-48.5t-8-51.5q0-69 71-102t218-33q156 0 222 42.5T687 233q-35-12-71.5-17.5T540 210q-88 0-133.5 33T361 338q0 83 49.5 148.5T523 552zm-1-57q-44 0-80.5-42.5T405 354q0-45 37-66t115-21q37 0 66 4.5t62 14.5q-10 87-56.5 148T522 495z"/><glyph glyph-name="ghaf" unicode="ق" horiz-adv-x="710" d="m424 460-52-49-52 49 52 50zm120 0-52-49-52 49 52 50zM422 332q87 0 147.5-90.5T630 35q0-145-73-219t-216-74q-138 0-209.5 55T60-41q0 30 12 63t33 60l33-22q-16-24-24-48.5T106-40q0-80 60-121.5T341-203q118 0 179 54t66 162Q551 1 514.5-4.5T439-10q-88 0-133.5 33T260 118q0 83 49.5 148.5T422 332zm-1-57q-44 0-80.5-42.5T304 134q0-45 37-66t115-21q37 0 66 4.5T584 66q-10 87-56.5 148T421 275z"/><glyph glyph-name="kaf" unicode="ک" horiz-adv-x="779" d="M106 180q0-67 63-101t187-34q125 0 201.5 21t94.5 59q0 23-15 55t-51 82L444 465q-10 14-13.5 21.5T427 501q0 9 4.5 17t14.5 16q64 57 157 107.5T779 715l13-46q-86-27-170-71.5T476 500q168-235 193-279t25-79q0-72-87-112T358-10q-147 0-222.5 48T60 179q0 31 12 63t33 60l33-22q-15-22-23.5-48t-8.5-52z"/><glyph glyph-name="gaf" unicode="گ" horiz-adv-x="779" d="m459 616-26 36q54 39 122 77t130 64l19-38q-59-25-124.5-62T459 616zM106 180q0-67 63-101t187-34q125 0 201.5 21t94.5 59q0 23-15 55t-51 82L444 465q-10 14-13.5 21.5T427 501q0 9 4.5 17t14.5 16q64 57 157 107.5T779 715l13-46q-86-27-170-71.5T476 500q168-235 193-279t25-79q0-72-87-112T358-10q-147 0-222.5 48T60 179q0 31 12 63t33 60l33-22q-15-22-23.5-48t-8.5-52z"/><glyph glyph-name="kafArabic" unicode="ك" horiz-adv-x="742" d="M680 59Q633 27 548 8.5T363-10q-150 0-226.5 47.5T60 179q0 30 12 63t33 60l33-22q-16-24-24-48.5t-8-51.5q0-68 64-101.5T363 45q84 0 158.5 11.5T641 89q6 41 8.5 77.5T652 243v462h48V243q0-48-5-95.5T680 59zM535 326q0-26-36.5-40T392 272q-22 0-48 2.5t-56 8.5l10 46q24-6 52.5-9t54.5-3q27 0 52 2.5t41 7.5q-10 10-29 22.5T411 384q-51 29-72 45.5T318 463q0 27 52.5 57.5T503 569l10-38q-54-13-92-29t-64-37l125-75q27-16 40-31.5t13-32.5z"/><glyph glyph-name="lam" unicode="ل" horiz-adv-x="641" d="M481-70q6 38 9 75.5t3 81.5v618h48V87q0-48-5-95.5T521-97q-56-39-120-60t-129-21q-104 0-162 48.5T52 4q0 37 13.5 82t36.5 84l36-16q-17-35-27.5-73T100 15q0-68 45-103t133-35q53 0 106.5 14T481-70z"/><glyph glyph-name="mim" unicode="م" horiz-adv-x="642" d="M90-19q0-42 11.5-110T132-271l-47-13q-22 90-32.5 155T42-23q0 74 32 119.5t89 55.5q41 100 93 150t114 50q46 0 91-30t76-81q28-47 36.5-99.5T569 39q-22-23-60.5-36T425-10q-76 0-144.5 28T164 97q-37-8-55.5-36.5T90-19zM531 90q0 79-50.5 143T368 297q-49 0-89-38.5T205 138q46-46 101.5-69.5T425 45q52 0 79 11.5T531 90z"/><glyph glyph-name="noonGhuna" unicode="ں" horiz-adv-x="703" d="m493 355 48 22q52-105 69.5-238T600-96q-40-37-112.5-58T328-175q-130 0-199 56.5T60 45q0 44 19 94.5T135 242l33-21q-34-57-47.5-95.5T107 51q0-88 55.5-129.5T335-120q70 0 129 13t102 39q13 97-6.5 208.5T493 355z"/><glyph glyph-name="noon" unicode="ن" horiz-adv-x="703" d="m493 355 48 22q52-105 69.5-238T600-96q-40-37-112.5-58T328-175q-130 0-199 56.5T60 45q0 44 19 94.5T135 242l33-21q-34-57-47.5-95.5T107 51q0-88 55.5-129.5T335-120q70 0 129 13t102 39q13 97-6.5 208.5T493 355zm-99 163-52-49-52 49 52 50z"/><glyph glyph-name="vav" unicode="و" horiz-adv-x="497" d="M372 246q23-41 36.5-89.5T422 65q0-64-20.5-121.5T341-158q-42-48-98-74t-115-26q-24 0-51.5 5T30-240l11 38q20-4 36-5.5t35-1.5q92 0 166 60t99 161Q348 1 318-4.5T257-10q-95 0-140 40.5T72 155t46 140.5T225 352q42 0 80-27.5t67-78.5zm-148 49q-46 0-77-38.5T116 154q0-57 32.5-82T258 47q32 0 58.5 4.5T375 66q-12 105-52.5 167T224 295z"/><glyph glyph-name="vavHamzeAbove" unicode="ؤ" horiz-adv-x="497" d="M372 246q23-41 36.5-89.5T422 65q0-64-20.5-121.5T341-158q-42-48-98-74t-115-26q-24 0-51.5 5T30-240l11 38q20-4 36-5.5t35-1.5q92 0 166 60t99 161Q348 1 318-4.5T257-10q-95 0-140 40.5T72 155t46 140.5T225 352q42 0 80-27.5t67-78.5zm-148 49q-46 0-77-38.5T116 154q0-57 32.5-82T258 47q32 0 58.5 4.5T375 66q-12 105-52.5 167T224 295zm92 193v-38l-180-27v38l47 8q-10 14-14.5 29t-4.5 32q0 30 20.5 48.5T238 597q19 0 35.5-6.5T299 572l-15-27q-18 9-44.5 10.5T197 550q1-29 16-50t34-21q5 0 33 4t36 5z"/><glyph glyph-name="heh" unicode="ه" horiz-adv-x="623" d="M242 29q-28-13-64-26T67-32L14-48-2 3l46 13q76 22 98.5 29T182 59q-64 38-97.5 86.5T51 248q0 73 47 117t125 44q10 0 19-1t17-3l21 45q127-55 205-150t78-190q0-57-27-93.5T465-20q-51 0-110 13T242 29zm-21 325q-57 0-89.5-28.5T99 248q0-48 36.5-90.5T239 84q55 28 79.5 67t24.5 97q0 48-33.5 77T221 354zM457 32q28 0 43 18.5t15 53.5q0 57-42.5 123T357 345q17-22 25.5-46.5T391 247q0-62-22.5-108T298 60q40-13 81-20.5t78-7.5z"/><glyph glyph-name="tehArabic" unicode="ة" horiz-adv-x="470" d="M60 146q0 66 39 123.5T216 377q93-27 143.5-85T410 158q0-75-50-121.5T230-10q-77 0-123.5 43T60 146zm160 174q-57-35-85.5-77T106 153q0-50 33.5-79T231 45q63 0 98 31t35 87q0 52-36.5 91.5T220 320zm-12 164-52-49-52 49 52 50zm120 0-52-49-52 49 52 50z"/><glyph glyph-name="hehDocheshm" unicode="ھ" horiz-adv-x="623" d="M242 29q-28-13-64-26T67-32L14-48-2 3l46 13q76 22 98.5 29T182 59q-64 38-97.5 86.5T51 248q0 73 47 117t125 44q10 0 19-1t17-3l21 45q127-55 205-150t78-190q0-57-27-93.5T465-20q-51 0-110 13T242 29zm-21 325q-57 0-89.5-28.5T99 248q0-48 36.5-90.5T239 84q55 28 79.5 67t24.5 97q0 48-33.5 77T221 354zM457 32q28 0 43 18.5t15 53.5q0 57-42.5 123T357 345q17-22 25.5-46.5T391 247q0-62-22.5-108T298 60q40-13 81-20.5t78-7.5z"/><glyph glyph-name="hehUrdu" unicode="ہ" horiz-adv-x="470" d="M60 146q0 66 39 123.5T216 377q93-27 143.5-85T410 158q0-75-50-121.5T230-10q-77 0-123.5 43T60 146zm160 174q-57-35-85.5-77T106 153q0-50 33.5-79T231 45q63 0 98 31t35 87q0 52-36.5 91.5T220 320z"/><glyph glyph-name="yeh" unicode="ی" horiz-adv-x="704" d="M335-210q-135 0-205 55T60 7q0 30 12 63t33 60l33-22q-16-24-24-48.5T106 8q0-80 58.5-121.5T335-155q103 0 186 38t111 92q-3 22-26 41.5T507 69q-54 24-80 38.5T383 137q-33 25-49 55t-16 65q0 67 54 117t132 50q62 0 113-36t72-91l-32-25q-36 50-78 73.5T484 369q-52 0-85-33t-33-79q0-38 30.5-68T525 116q90-38 117.5-64T670-5q0-42-34.5-85T542-163q-45-23-97.5-35T335-210z"/><glyph glyph-name="yehArabic" unicode="ي" horiz-adv-x="704" d="M335-210q-135 0-205 55T60 7q0 30 12 63t33 60l33-22q-16-24-24-48.5T106 8q0-80 58.5-121.5T335-155q103 0 186 38t111 92q-3 22-26 41.5T507 69q-54 24-80 38.5T383 137q-33 25-49 55t-16 65q0 67 54 117t132 50q62 0 113-36t72-91l-32-25q-36 50-78 73.5T484 369q-52 0-85-33t-33-79q0-38 30.5-68T525 116q90-38 117.5-64T670-5q0-42-34.5-85T542-163q-45-23-97.5-35T335-210zm-2-116-52-49-52 49 52 50zm120 0-52-49-52 49 52 50z"/><glyph glyph-name="yehHamze" unicode="ئ" horiz-adv-x="704" d="M335-210q-135 0-205 55T60 7q0 30 12 63t33 60l33-22q-16-24-24-48.5T106 8q0-80 58.5-121.5T335-155q103 0 186 38t111 92q-3 22-26 41.5T507 69q-54 24-80 38.5T383 137q-33 25-49 55t-16 65q0 67 54 117t132 50q62 0 113-36t72-91l-32-25q-36 50-78 73.5T484 369q-52 0-85-33t-33-79q0-38 30.5-68T525 116q90-38 117.5-64T670-5q0-42-34.5-85T542-163q-45-23-97.5-35T335-210zm-95 516v-38L60 241v38l47 8q-10 14-14.5 29T88 348q0 30 20.5 48.5T162 415q19 0 35.5-6.5T223 390l-15-27q-18 9-44.5 10.5T121 368q1-29 16-50t34-21q5 0 33 4t36 5z"/></font>
</defs>
</svg>
