<svg><defs><font id="TRYClother-Bold" horiz-adv-x="0"><font-face font-family="TRY Clother" font-weight="700" panose-1="2 11 8 3 2 2 3 2 2 3" ascent="800" descent="-200" x-height="459" cap-height="685" bbox="-710 -522 1409 1213" underline-thickness="50" underline-position="-55" unicode-range="U+000D-FEFC"/><glyph glyph-name="fi" unicode="fi" horiz-adv-x="601" d="M282 596q-30 0-49-19t-19-49q0-14 4-31t13-38h304V0H402v345H247V0H114v345H17v109l87 5-2 5q-11 26-16 49t-5 44q0 71 49 114.5T258 715q44 0 91-17t93-50l-57-94q-31 22-56 32t-47 10z"/><glyph glyph-name="fl" unicode="fl" horiz-adv-x="601" d="M328 459V345h-81V0H114v345H17v109l87 5-3 7q-10 23-15 45.5T81 555q0 72 50 116t132 44q41 0 80.5-11t79.5-33l9 34h103V0H402v555q-32 21-60 31t-55 10q-32 0-52.5-19.5T214 526q0-15 4-31.5t13-35.5h97z"/><glyph glyph-name="lam.init_alef.fina" unicode="ﻟﺎ" horiz-adv-x="565" arabic-form="isolated" d="M180 134q-18 109-70.5 216T-41 579l104 76q92-114 152.5-250.5T286 144q43 13 63 44.5t20 87.5v429h119V270q0-136-76-208T193-10q-39 0-83 5T36 8l5 143q28-7 63.5-11t75.5-6z"/><glyph glyph-name="lam.medi_alef.fina" unicode="ﻠﺎ" horiz-adv-x="601" arabic-form="final" d="M180 134q-18 109-70.5 216T-41 579l104 76q92-114 152.5-250.5T286 145q44 13 63.5 44t19.5 88v428h119V252q0-60 22.5-84t78.5-24h12V0h-10q-61 0-99.5 23.5T438 93q-31-48-96.5-75.5T193-10q-39 0-83 5T36 8l5 143q29-7 66-11.5t73-5.5z"/><glyph glyph-name="lam.init_ah.fina" unicode="ﻟﺂ" horiz-adv-x="565" arabic-form="isolated" d="M5 755q11 0 23-3t37-13q20-8 30-10.5t17-2.5q14 0 27 2.5t33 9.5l-8-73q-17-9-31.5-13t-28.5-4q-11 0-23.5 3T44 664q-20 8-29.5 10.5T-2 677q-11 0-23-2t-37-10l8 73q16 9 31 13t28 4zm175-621q-16 102-62 199.5T-7 532l101 75q79-103 131-226.5T287 144q43 13 62.5 44t19.5 88v429h119V270q0-136-76.5-208T193-10q-39 0-83 5T36 8l5 143q28-7 63.5-11t75.5-6z"/><glyph glyph-name="lam.medi_ah.fina" unicode="ﻠﺂ" horiz-adv-x="601" arabic-form="final" d="M5 755q11 0 23-3t37-13q20-8 30-10.5t17-2.5q14 0 27 2.5t33 9.5l-8-73q-17-9-31.5-13t-28.5-4q-11 0-23.5 3T44 664q-20 8-29.5 10.5T-2 677q-11 0-23-2t-37-10l8 73q16 9 31 13t28 4zm175-621q-16 102-62 199.5T-7 532l101 75q80-104 131.5-226.5T287 145q43 13 62.5 44.5T369 277v428h119V252q0-60 22.5-84t78.5-24h12V0h-10q-61 0-99.5 23.5T438 93q-31-48-96.5-75.5T193-10q-39 0-83 5T36 8l5 143q29-7 66-11.5t73-5.5z"/><glyph glyph-name="lam.init_alefHamzeAbove.fina" unicode="ﻟﺄ" horiz-adv-x="565" arabic-form="isolated" d="M180 134q-16 102-62 199.5T-7 532l101 75q79-103 131-226.5T287 144q43 13 62.5 44t19.5 88v429h119V270q0-136-76.5-208T193-10q-39 0-83 5T36 8l5 143q28-7 63.5-11t75.5-6zm5 612v-73l-239-36v74l54 8q-10 17-15.5 36t-5.5 38q0 44 27 71t72 27q23 0 45-7t41-20l-19-57q-16 5-33 8t-31 3q-10 0-19-1.5T47 812q2-32 17.5-54.5T102 735q7 0 42 5t41 6z"/><glyph glyph-name="lam.medi_alefHamzeAbove.fina" unicode="ﻠﺄ" horiz-adv-x="601" arabic-form="final" d="M180 134q-16 102-62 199.5T-7 532l101 75q80-104 131.5-226.5T287 145q43 13 62.5 44.5T369 277v428h119V252q0-60 22.5-84t78.5-24h12V0h-10q-61 0-99.5 23.5T438 93q-31-48-96.5-75.5T193-10q-39 0-83 5T36 8l5 143q29-7 66-11.5t73-5.5zm5 612v-73l-239-36v74l54 8q-10 17-15.5 36t-5.5 38q0 44 27 71t72 27q23 0 45-7t41-20l-19-57q-16 5-33 8t-31 3q-10 0-19-1.5T47 812q2-32 17.5-54.5T102 735q7 0 42 5t41 6z"/><glyph glyph-name="lam.init_alefHamzeBelow.fina" unicode="ﻟﺈ" horiz-adv-x="565" arabic-form="isolated" d="M180 134q-18 109-70.5 216T-41 579l104 76q92-114 152.5-250.5T286 144q43 13 63 44.5t20 87.5v429h119V270q0-136-76-208T193-10q-39 0-83 5T36 8l5 143q28-7 63.5-11t75.5-6zm82-324v-74L23-300v74l55 8q-11 17-16.5 36T56-143q0 44 27.5 71T155-45q22 0 44-7t42-20l-19-58q-27 10-54.5 11.5T125-124q2-33 17-55.5t37-22.5q3 0 10.5 1t30.5 5q16 2 25 3.5t17 2.5z"/><glyph glyph-name="lam.medi_alefHamzeBelow.fina" unicode="ﻠﺈ" horiz-adv-x="601" arabic-form="final" d="M180 134q-18 109-70.5 216T-41 579l104 76q92-114 152.5-250.5T286 145q44 13 63.5 44t19.5 88v428h119V252q0-60 22.5-84t78.5-24h12V0h-10q-61 0-99.5 23.5T438 93q-31-48-96.5-75.5T193-10q-39 0-83 5T36 8l5 143q29-7 66-11.5t73-5.5zm82-324v-74L23-300v74l55 8q-11 17-16.5 36T56-143q0 44 27.5 71T155-45q22 0 44-7t42-20l-19-58q-27 10-54.5 11.5T125-124q2-33 17-55.5t37-22.5q3 0 10.5 1t30.5 5q16 2 25 3.5t17 2.5z"/><glyph glyph-name="allah" unicode="ﺍﻟﻠﻪ" horiz-adv-x="1374" arabic-form="isolated" d="M618 820v160h74V820h-74zm125-123q-3 23-8 42.5T725 773l57 21q11-34 13-72t-6-78q-17-11-37-17.5t-39-6.5-33 4.5-25 13.5q-18-9-34.5-13.5T586 620q-35 0-52.5 20T516 699v84h55v-71q0-14 5.5-19.5T597 687q7 0 15 2t15 5q-1 12-1.5 18.5T625 724v51h56v-52q0-18 7-25.5t23-7.5q7 0 15.5 2t16.5 5zm561 8V0h-119v705h119zm-288-93V247q0-125-51-186T809 0q-51 0-86 22t-54 65q-31-43-77.5-65T485 0q-54 0-93.5 24T332 94q-24-15-52-23t-58-8q-81 0-132 45T39 225q0 86 70 150.5T316 477v42h119V231q0-48 14.5-67.5T499 144q31 0 56.5 10t42.5 29v385h119V245q0-50 20.5-75.5T800 144q49 0 73 25.5t24 77.5v365h119zM150 241q0-26 23-39t68-13q16 0 35 2.5t40 6.5v144q-83-13-124.5-38T150 241z"/><glyph glyph-name="alef.isol" unicode="ا" horiz-adv-x="272" arabic-form="isolated" d="M195 705V0H76v705h119z"/><glyph glyph-name="alef.fina" unicode="ا" horiz-adv-x="290" arabic-form="final" d="M279 144h11V0h-25q-96 0-142.5 50T76 204v501h119V218q0-39 20-56.5t64-17.5z"/><glyph glyph-name="ah.isol" unicode="آ" horiz-adv-x="272" arabic-form="isolated" d="M195 705V0H76v705h119zM87 884q11 0 23-3t36-13q21-8 30.5-10.5T193 855q14 0 27 2.5t33 9.5l-8-74q-15-8-29.5-12t-29.5-4q-11 0-23.5 3T125 793q-20 7-29 9.5T80 805q-14 0-27.5-2.5T20 793l8 74q15 8 30 12.5t29 4.5z"/><glyph glyph-name="ah.fina" unicode="آ" horiz-adv-x="290" arabic-form="final" d="M279 144h11V0h-25q-96 0-142.5 50T76 204v501h119V218q0-39 20-56.5t64-17.5zM87 884q11 0 23-3t36-13q21-8 30.5-10.5T193 855q14 0 27 2.5t33 9.5l-8-74q-15-8-29.5-12t-29.5-4q-11 0-23.5 3T125 793q-20 7-29 9.5T80 805q-14 0-27.5-2.5T20 793l8 74q15 8 30 12.5t29 4.5z"/><glyph glyph-name="alefHamzeAbove.isol" unicode="أ" horiz-adv-x="272" arabic-form="isolated" d="M195 705V0H76v705h119zm61 170v-74L17 766v73l55 8q-11 17-16.5 36T50 922q0 44 27.5 71t71.5 27q23 0 45-7t41-20l-19-58q-26 9-54 11t-43-5q2-32 17.5-55t36.5-23q3 0 10.5 1t30.5 5q16 2 25 3.5t17 2.5z"/><glyph glyph-name="alefHamzeAbove.fina" unicode="أ" horiz-adv-x="290" arabic-form="final" d="M279 144h11V0h-25q-96 0-142.5 50T76 204v501h119V218q0-39 20-56.5t64-17.5zm-23 731v-74L17 766v73l55 8q-11 17-16.5 36T50 922q0 44 27.5 71t71.5 27q23 0 45-7t41-20l-19-58q-26 9-54 11t-43-5q2-32 17.5-55t36.5-23q3 0 10.5 1t30.5 5q16 2 25 3.5t17 2.5z"/><glyph glyph-name="alefHamzeBelow.isol" unicode="إ" horiz-adv-x="272" arabic-form="isolated" d="M195 705V0H76v705h119zm64-895v-74L20-300v74l55 8q-11 17-16.5 36T53-143q0 44 27.5 71T152-45q22 0 44-7t42-20l-19-58q-27 10-54.5 11.5T122-124q2-33 17-55.5t37-22.5q3 0 10.5 1t30.5 5q16 2 25 3.5t17 2.5z"/><glyph glyph-name="alefHamzeBelow.fina" unicode="إ" horiz-adv-x="290" arabic-form="final" d="M279 144h11V0h-25q-96 0-142.5 50T76 204v501h119V218q0-39 20-56.5t64-17.5zm-20-334v-74L20-300v74l55 8q-11 17-16.5 36T53-143q0 44 27.5 71T152-45q22 0 44-7t42-20l-19-58q-27 10-54.5 11.5T122-124q2-33 17-55.5t37-22.5q3 0 10.5 1t30.5 5q16 2 25 3.5t17 2.5z"/><glyph glyph-name="alefWavyHamzehAbove.fina" unicode="ٲ" horiz-adv-x="290" d="M279 144h11V0h-25q-96 0-142.5 50T76 204v501h119V218q0-39 20-56.5t64-17.5zm-23 657-134-20q-29-4-58.5-1T-11 798q-20 6-28.5 8t-14.5 2q-11 0-23-3t-30-9l8 71q17 9 31.5 13t28.5 4q11 0 23-3t36-14q20-8 30.5-11.5T70 851q-10 16-15 34t-5 37q0 44 27.5 71t71.5 27q23 0 45-7t41-20l-19-58q-27 10-54.5 11.5T119 941q2-33 17-55.5t37-22.5q3 0 10.5 1t30.5 5q16 2 25 3.5t17 2.5v-74z"/><glyph glyph-name="alefWasleh.isol" unicode="ٱ" horiz-adv-x="272" arabic-form="isolated" d="M195 705V0H76v705h119zm-19 279q45 0 71.5-50.5T261 810q-19-16-40.5-24.5T178 777q-12 0-25 3.5T117 794q-19 8-28 10.5T73 807q-13 0-26-2.5T13 795l8 73q12 7 24 11t27 6q15 45 43 72t61 27zm28-112q0 16-10.5 29T169 914q-12 0-22-10t-20-31q29-13 36.5-15t14.5-2q13 0 19.5 4t6.5 12z"/><glyph glyph-name="alefWasleh.fina" unicode="ٱ" horiz-adv-x="290" arabic-form="final" d="M279 144h11V0h-25q-96 0-142.5 50T76 204v501h119V218q0-39 20-56.5t64-17.5zM176 984q45 0 71.5-50.5T261 810q-19-16-40.5-24.5T178 777q-12 0-25 3.5T117 794q-19 8-28 10.5T73 807q-13 0-26-2.5T13 795l8 73q12 7 24 11t27 6q15 45 43 72t61 27zm28-112q0 16-10.5 29T169 914q-12 0-22-10t-20-31q29-13 36.5-15t14.5-2q13 0 19.5 4t6.5 12z"/><glyph glyph-name="dotlessBeh.init" unicode="ٮ" horiz-adv-x="357" d="M0 144h6q53 0 95.5 7t73.5 21q-4 48-13 92t-24 92l121 42q25-82 29-167T274 60q-50-29-118.5-44.5T7 0H0q-9 0-15 20.5T-21 71q0 31 6 52t15 21z"/><glyph glyph-name="dotlessBeh.medi" unicode="ٮ" horiz-adv-x="403" d="M403 144V0h-14q-62 0-107 23.5T219 89q-28-41-86.5-65T4 0H0q-9 0-15 20.5T-21 71q0 31 6 52t15 21h12q44 0 78 9.5t58 29.5v147h119v-79q0-54 30.5-80.5T392 144h11z"/><glyph glyph-name="dotlessBeh.fina" unicode="ٮ" horiz-adv-x="884" d="M884 0h-8q-57 0-102.5 16.5T698 63Q629 29 536 9.5T350-10q-154 0-232 54.5T40 207q0 42 15 85t42 81l84-43q-13-27-18-46.5t-5-39.5q0-58 53-84t171-26q75 0 139.5 10T638 174l-41 134 116 33 21-69q25-81 53.5-104.5T878 144h6V0z"/><glyph glyph-name="beh.isol" unicode="ب" horiz-adv-x="826" arabic-form="isolated" d="M158 243q0-58 56.5-83.5T398 134q72 0 139.5 9.5T644 169q-3 41-11 82t-23 89l121 42q23-75 26-156.5T743 60Q675 28 573.5 9T367-10q-163 0-245 55T40 208q0 41 15 84.5T97 373l84-44q-13-26-18-46t-5-40zm317-390-72-71-72 71 72 71z"/><glyph glyph-name="beh.fina" unicode="ب" horiz-adv-x="884" arabic-form="final" d="M884 0h-8q-57 0-102.5 16.5T698 63Q629 29 536 9.5T350-10q-154 0-232 54.5T40 207q0 42 15 85t42 81l84-43q-13-27-18-46.5t-5-39.5q0-58 53-84t171-26q75 0 139.5 10T638 174l-41 134 116 33 21-69q25-81 53.5-104.5T878 144h6V0zM472-147l-72-71-72 71 72 71z"/><glyph glyph-name="beh.medi" unicode="ب" horiz-adv-x="403" arabic-form="medial" d="M403 144V0h-14q-62 0-107 23.5T219 89q-28-41-86.5-65T4 0H0q-9 0-15 20.5T-21 71q0 31 6 52t15 21h12q44 0 78 9.5t58 29.5v147h119v-79q0-54 30.5-80.5T392 144h11zM275-147l-72-71-72 71 72 71z"/><glyph glyph-name="beh.init" unicode="ب" horiz-adv-x="357" d="M0 144h6q53 0 95.5 7t73.5 21q-4 48-13 92t-24 92l121 42q25-82 29-167T274 60q-50-29-118.5-44.5T7 0H0q-9 0-15 20.5T-21 71q0 31 6 52t15 21zm280-291-72-71-72 71 72 71z"/><glyph glyph-name="peh.isol" unicode="پ" horiz-adv-x="826" arabic-form="isolated" d="M158 243q0-58 56.5-83.5T398 134q72 0 139.5 9.5T644 169q-3 41-11 82t-23 89l121 42q23-75 26-156.5T743 60Q675 28 573.5 9T367-10q-163 0-245 55T40 208q0 41 15 84.5T97 373l84-44q-13-26-18-46t-5-40zm245-393-68-68-73 71 73 71 68-68 68 68 73-71-73-71zm72-127-72-71-72 71 72 72z"/><glyph glyph-name="peh.fina" unicode="پ" horiz-adv-x="884" arabic-form="final" d="M884 0h-8q-57 0-102.5 16.5T698 63Q629 29 536 9.5T350-10q-154 0-232 54.5T40 207q0 42 15 85t42 81l84-43q-13-27-18-46.5t-5-39.5q0-58 53-84t171-26q75 0 139.5 10T638 174l-41 134 116 33 21-69q25-81 53.5-104.5T878 144h6V0zM400-150l-68-68-73 71 73 71 68-68 68 68 73-71-73-71zm72-127-72-71-72 71 72 72z"/><glyph glyph-name="peh.medi" unicode="پ" horiz-adv-x="403" arabic-form="medial" d="M403 144V0h-14q-62 0-107 23.5T219 89q-28-41-86.5-65T4 0H0q-9 0-15 20.5T-21 71q0 31 6 52t15 21h12q44 0 78 9.5t58 29.5v147h119v-79q0-54 30.5-80.5T392 144h11zM203-150l-68-68-73 71 73 71 68-68 68 68 73-71-73-71zm72-127-72-71-72 71 72 72z"/><glyph glyph-name="peh.init" unicode="پ" horiz-adv-x="357" d="M0 144h6q53 0 95.5 7t73.5 21q-4 48-13 92t-24 92l121 42q25-82 29-167T274 60q-50-29-118.5-44.5T7 0H0q-9 0-15 20.5T-21 71q0 31 6 52t15 21zm208-294-68-68-73 71 73 71 68-68 68 68 73-71-73-71zm72-127-72-71-72 71 72 72z"/><glyph glyph-name="teh.isol" unicode="ت" horiz-adv-x="826" arabic-form="isolated" d="M158 243q0-58 56.5-83.5T398 134q72 0 139.5 9.5T644 169q-3 41-11 82t-23 89l121 42q23-75 26-156.5T743 60Q675 28 573.5 9T367-10q-163 0-245 55T40 208q0 41 15 84.5T97 373l84-44q-13-26-18-46t-5-40zm245 271-68-68-73 71 73 72 68-69 68 69 73-72-73-71z"/><glyph glyph-name="teh.fina" unicode="ت" horiz-adv-x="884" arabic-form="final" d="M884 0h-8q-57 0-102.5 16.5T698 63Q629 29 536 9.5T350-10q-154 0-232 54.5T40 207q0 42 15 85t42 81l84-43q-13-27-18-46.5t-5-39.5q0-58 53-84t171-26q75 0 139.5 10T638 174l-41 134 116 33 21-69q25-81 53.5-104.5T878 144h6V0zM400 514l-68-68-73 71 73 72 68-69 68 69 73-72-73-71z"/><glyph glyph-name="teh.medi" unicode="ت" horiz-adv-x="403" arabic-form="medial" d="M403 144V0h-14q-62 0-107 23.5T219 89q-28-41-86.5-65T4 0H0q-9 0-15 20.5T-21 71q0 31 6 52t15 21h12q44 0 78 9.5t58 29.5v147h119v-79q0-54 30.5-80.5T392 144h11zM203 506l-68-68-73 71 73 72 68-69 68 69 73-72-73-71z"/><glyph glyph-name="teh.init" unicode="ت" horiz-adv-x="357" d="M0 144h6q53 0 95.5 7t73.5 21q-4 48-13 92t-24 92l121 42q25-82 29-167T274 60q-50-29-118.5-44.5T7 0H0q-9 0-15 20.5T-21 71q0 31 6 52t15 21zm165 416-68-68-73 71 73 72 68-69 68 69 73-72-73-71z"/><glyph glyph-name="theh.isol" unicode="ث" horiz-adv-x="826" arabic-form="isolated" d="M158 243q0-58 56.5-83.5T398 134q72 0 139.5 9.5T644 169q-3 41-11 82t-23 89l121 42q23-75 26-156.5T743 60Q675 28 573.5 9T367-10q-163 0-245 55T40 208q0 41 15 84.5T97 373l84-44q-13-26-18-46t-5-40zm317 404-72-71-72 71 72 72zm-72-133-68-68-73 71 73 72 68-69 68 69 73-72-73-71z"/><glyph glyph-name="theh.fina" unicode="ث" horiz-adv-x="884" arabic-form="final" d="M884 0h-8q-57 0-102.5 16.5T698 63Q629 29 536 9.5T350-10q-154 0-232 54.5T40 207q0 42 15 85t42 81l84-43q-13-27-18-46.5t-5-39.5q0-58 53-84t171-26q75 0 139.5 10T638 174l-41 134 116 33 21-69q25-81 53.5-104.5T878 144h6V0zM472 647l-72-71-72 71 72 72zm-72-133-68-68-73 71 73 72 68-69 68 69 73-72-73-71z"/><glyph glyph-name="theh.medi" unicode="ث" horiz-adv-x="403" arabic-form="medial" d="M403 144V0h-14q-62 0-107 23.5T219 89q-28-41-86.5-65T4 0H0q-9 0-15 20.5T-21 71q0 31 6 52t15 21h12q44 0 78 9.5t58 29.5v147h119v-79q0-54 30.5-80.5T392 144h11zM275 639l-72-71-72 71 72 72zm-72-133-68-68-73 71 73 72 68-69 68 69 73-72-73-71z"/><glyph glyph-name="theh.init" unicode="ث" horiz-adv-x="357" d="M0 144h6q53 0 95.5 7t73.5 21q-4 48-13 92t-24 92l121 42q25-82 29-167T274 60q-50-29-118.5-44.5T7 0H0q-9 0-15 20.5T-21 71q0 31 6 52t15 21zm237 549-72-71-72 71 72 72zm-72-133-68-68-73 71 73 72 68-69 68 69 73-72-73-71z"/><glyph glyph-name="tehTa.isol" unicode="ٹ" horiz-adv-x="826" arabic-form="isolated" d="M158 243q0-58 56.5-83.5T398 134q72 0 139.5 9.5T644 169q-3 41-11 82t-23 89l121 42q23-75 26-156.5T743 60Q675 28 573.5 9T367-10q-163 0-245 55T40 208q0 41 15 84.5T97 373l84-44q-13-26-18-46t-5-40zm397 272q0-17-5.5-34T535 450q-32-8-76-12t-99-4q-32 0-63 4.5T242 452l21 62q15-4 25.5-6t20.5-3q3 11 6.5 21t8.5 19v159h64v-98q14 11 30 16t34 5q46 0 74.5-31t28.5-81zm-66-6q0 24-13 37.5T440 560q-24 0-42-15t-28-42q41 0 71 1.5t48 4.5z"/><glyph glyph-name="tehTa.fina" unicode="ٹ" horiz-adv-x="884" arabic-form="final" d="M884 0h-8q-57 0-102.5 16.5T698 63Q629 29 536 9.5T350-10q-154 0-232 54.5T40 207q0 42 15 85t42 81l84-43q-13-27-18-46.5t-5-39.5q0-58 53-84t171-26q75 0 139.5 10T638 174l-41 134 116 33 21-69q25-81 53.5-104.5T878 144h6V0zM552 515q0-17-5.5-34T532 450q-32-8-76-12t-99-4q-32 0-63 4.5T239 452l21 62q15-4 25.5-6t20.5-3q3 11 6.5 21t8.5 19v159h64v-98q14 11 30 16t34 5q46 0 74.5-31t28.5-81zm-66-6q0 24-13 37.5T437 560q-24 0-42-15t-28-42q41 0 71 1.5t48 4.5z"/><glyph glyph-name="tehTa.medi" unicode="ٹ" horiz-adv-x="403" arabic-form="medial" d="M403 144V0h-14q-62 0-107 23.5T219 89q-28-41-86.5-65T4 0H0q-9 0-15 20.5T-21 71q0 31 6 52t15 21h12q44 0 78 9.5t58 29.5v147h119v-79q0-54 30.5-80.5T392 144h11zm-48 362q0-17-5.5-34T335 441q-32-8-76-12t-99-4q-32 0-63 4.5T42 443l21 62q15-4 25.5-6t20.5-3q3 11 6.5 21t8.5 19v159h64v-98q14 11 30 16t34 5q46 0 74.5-31t28.5-81zm-66-6q0 24-13 37.5T240 551q-24 0-42-15t-28-42q41 0 71 1.5t48 4.5z"/><glyph glyph-name="tehTa.init" unicode="ٹ" horiz-adv-x="357" d="M0 144h6q53 0 95.5 7t73.5 21q-4 48-13 92t-24 92l121 42q25-82 29-167T274 60q-50-29-118.5-44.5T7 0H0q-9 0-15 20.5T-21 71q0 31 6 52t15 21zm317 417q0-17-5.5-34T297 496q-32-8-76-12t-99-4q-32 0-63 4.5T4 498l21 62q15-4 25.5-6t20.5-3q3 11 6.5 21t8.5 19v159h64v-98q14 11 30 16t34 5q46 0 74.5-31t28.5-81zm-66-6q0 24-13 37.5T202 606q-24 0-42-15t-28-42q41 0 71 1.5t48 4.5z"/><glyph glyph-name="jim.isol" unicode="ج" horiz-adv-x="726" arabic-form="isolated" d="m617-113-7-142q-52-13-106-19.5T397-281q-169 0-267 71.5T32-15q0 129 110 218t316 126q-53 12-98 18.5t-79 6.5q-59 0-114.5-11T57 310L21 434q61 23 118.5 34T261 479q89 0 208-33.5T690 359l-28-109q-238-2-372-67.5T156 8q0-72 57.5-108T385-136q62 0 117.5 5.5T617-113zM450 33l-72-71-72 71 72 72z"/><glyph glyph-name="jim.fina" unicode="ج" horiz-adv-x="726" arabic-form="final" d="m617-113-7-142q-52-13-106-19.5T397-281q-169 0-267 71.5T32-15q0 129 110 218t316 126q-53 12-98 18.5t-79 6.5q-59 0-114.5-11T57 310L21 434q61 23 118.5 34T261 479q89 0 208-33.5T690 359l-25-97q-35 0-61.5-1t-48.5-4q12-59 50.5-86T719 144h7V0h-10Q601 0 539.5 58.5T469 235q-150-24-231.5-84T156 8q0-72 57.5-108T385-136q62 0 117.5 5.5T617-113zM430 33l-72-71-72 71 72 72z"/><glyph glyph-name="jim.medi" unicode="ج" horiz-adv-x="726" arabic-form="medial" d="M269 480q102 0 214.5-30.5T692 366l-50-105q-26 14-48.5 24T551 302q-5-10-11-19.5T527 263q10-62 56-90.5T719 144h7V0h-10Q606 0 542 44.5T458 178Q372 92 254 46T3 0H0q-9 0-15 20.5T-21 71q0 31 6 52t15 21h6q138 0 254 51t173 143q-37 8-74.5 12t-77.5 4q-59 0-114.5-11T57 310L21 434q61 24 119.5 35T269 480zm172-627-72-71-72 71 72 71z"/><glyph glyph-name="jim.init" unicode="ج" horiz-adv-x="726" d="M269 480q102 0 214.5-30.5T692 366l-50-105q-26 14-48.5 24T551 302Q471 160 326 80T3 0H0q-9 0-15 20.5T-21 71q0 31 6 52t15 21h6q138 0 254 51t173 143q-37 8-74.5 12t-77.5 4q-59 0-114.5-11T57 310L21 434q61 24 119.5 35T269 480zm172-627-72-71-72 71 72 71z"/><glyph glyph-name="cheh.isol" unicode="چ" horiz-adv-x="726" arabic-form="isolated" d="m617-113-7-142q-52-13-106-19.5T397-281q-169 0-267 71.5T32-15q0 129 110 218t316 126q-53 12-98 18.5t-79 6.5q-59 0-114.5-11T57 310L21 434q61 23 118.5 34T261 479q89 0 208-33.5T690 359l-28-109q-238-2-372-67.5T156 8q0-72 57.5-108T385-136q62 0 117.5 5.5T617-113zM378 71l-61-59-64 62 64 64 61-61 61 61 64-64-64-62zm64-94-64-63-64 63 64 64z"/><glyph glyph-name="cheh.fina" unicode="چ" horiz-adv-x="726" arabic-form="final" d="m617-113-7-142q-52-13-106-19.5T397-281q-169 0-267 71.5T32-15q0 129 110 218t316 126q-53 12-98 18.5t-79 6.5q-59 0-114.5-11T57 310L21 434q61 23 118.5 34T261 479q89 0 208-33.5T690 359l-25-97q-35 0-61.5-1t-48.5-4q12-59 50.5-86T719 144h7V0h-10Q601 0 539.5 58.5T469 235q-150-24-231.5-84T156 8q0-72 57.5-108T385-136q62 0 117.5 5.5T617-113zM358 71l-61-59-64 62 64 64 61-61 61 61 64-64-64-62zm64-94-64-63-64 63 64 64z"/><glyph glyph-name="cheh.medi" unicode="چ" horiz-adv-x="726" arabic-form="medial" d="M269 480q102 0 214.5-30.5T692 366l-50-105q-26 14-48.5 24T551 302q-5-10-11-19.5T527 263q10-62 56-90.5T719 144h7V0h-10Q606 0 542 44.5T458 178Q372 92 254 46T3 0H0q-9 0-15 20.5T-21 71q0 31 6 52t15 21h6q138 0 254 51t173 143q-37 8-74.5 12t-77.5 4q-59 0-114.5-11T57 310L21 434q61 24 119.5 35T269 480zm100-630-68-68-73 71 73 71 68-68 68 68 73-71-73-71zm72-127-72-71-72 71 72 72z"/><glyph glyph-name="cheh.init" unicode="چ" horiz-adv-x="726" d="M269 480q102 0 214.5-30.5T692 366l-50-105q-26 14-48.5 24T551 302Q471 160 326 80T3 0H0q-9 0-15 20.5T-21 71q0 31 6 52t15 21h6q138 0 254 51t173 143q-37 8-74.5 12t-77.5 4q-59 0-114.5-11T57 310L21 434q61 24 119.5 35T269 480zm100-630-68-68-73 71 73 71 68-68 68 68 73-71-73-71zm72-127-72-71-72 71 72 72z"/><glyph glyph-name="hah.isol" unicode="ح" horiz-adv-x="726" arabic-form="isolated" d="m617-113-7-142q-52-13-106-19.5T397-281q-169 0-267 71.5T32-15q0 129 110 218t316 126q-53 12-98 18.5t-79 6.5q-59 0-114.5-11T57 310L21 434q61 23 118.5 34T261 479q89 0 208-33.5T690 359l-28-109q-238-2-372-67.5T156 8q0-72 57.5-108T385-136q62 0 117.5 5.5T617-113z"/><glyph glyph-name="hah.fina" unicode="ح" horiz-adv-x="726" arabic-form="final" d="m617-113-7-142q-52-13-106-19.5T397-281q-169 0-267 71.5T32-15q0 129 110 218t316 126q-53 12-98 18.5t-79 6.5q-59 0-114.5-11T57 310L21 434q61 23 118.5 34T261 479q89 0 208-33.5T690 359l-25-97q-35 0-61.5-1t-48.5-4q12-59 50.5-86T719 144h7V0h-10Q601 0 539.5 58.5T469 235q-150-24-231.5-84T156 8q0-72 57.5-108T385-136q62 0 117.5 5.5T617-113z"/><glyph glyph-name="hah.medi" unicode="ح" horiz-adv-x="726" arabic-form="medial" d="M269 480q102 0 214.5-30.5T692 366l-50-105q-26 14-48.5 24T551 302q-5-10-11-19.5T527 263q10-62 56-90.5T719 144h7V0h-10Q606 0 542 44.5T458 178Q372 92 254 46T3 0H0q-9 0-15 20.5T-21 71q0 31 6 52t15 21h6q138 0 254 51t173 143q-37 8-74.5 12t-77.5 4q-59 0-114.5-11T57 310L21 434q61 24 119.5 35T269 480z"/><glyph glyph-name="hah.init" unicode="ح" horiz-adv-x="726" d="M269 480q102 0 214.5-30.5T692 366l-50-105q-26 14-48.5 24T551 302Q471 160 326 80T3 0H0q-9 0-15 20.5T-21 71q0 31 6 52t15 21h6q138 0 254 51t173 143q-37 8-74.5 12t-77.5 4q-59 0-114.5-11T57 310L21 434q61 24 119.5 35T269 480z"/><glyph glyph-name="kheh.isol" unicode="خ" horiz-adv-x="726" arabic-form="isolated" d="m617-113-7-142q-52-13-106-19.5T397-281q-169 0-267 71.5T32-15q0 129 110 218t316 126q-53 12-98 18.5t-79 6.5q-59 0-114.5-11T57 310L21 434q61 23 118.5 34T261 479q89 0 208-33.5T690 359l-28-109q-238-2-372-67.5T156 8q0-72 57.5-108T385-136q62 0 117.5 5.5T617-113zM404 625l-72-71-72 71 72 72z"/><glyph glyph-name="kheh.fina" unicode="خ" horiz-adv-x="726" arabic-form="final" d="m617-113-7-142q-52-13-106-19.5T397-281q-169 0-267 71.5T32-15q0 129 110 218t316 126q-53 12-98 18.5t-79 6.5q-59 0-114.5-11T57 310L21 434q61 23 118.5 34T261 479q89 0 208-33.5T690 359l-25-97q-35 0-61.5-1t-48.5-4q12-59 50.5-86T719 144h7V0h-10Q601 0 539.5 58.5T469 235q-150-24-231.5-84T156 8q0-72 57.5-108T385-136q62 0 117.5 5.5T617-113zM404 625l-72-71-72 71 72 72z"/><glyph glyph-name="kheh.medi" unicode="خ" horiz-adv-x="726" arabic-form="medial" d="M269 480q102 0 214.5-30.5T692 366l-50-105q-26 14-48.5 24T551 302q-5-10-11-19.5T527 263q10-62 56-90.5T719 144h7V0h-10Q606 0 542 44.5T458 178Q372 92 254 46T3 0H0q-9 0-15 20.5T-21 71q0 31 6 52t15 21h6q138 0 254 51t173 143q-37 8-74.5 12t-77.5 4q-59 0-114.5-11T57 310L21 434q61 24 119.5 35T269 480zm135 145-72-71-72 71 72 72z"/><glyph glyph-name="kheh.init" unicode="خ" horiz-adv-x="726" d="M269 480q102 0 214.5-30.5T692 366l-50-105q-26 14-48.5 24T551 302Q471 160 326 80T3 0H0q-9 0-15 20.5T-21 71q0 31 6 52t15 21h6q138 0 254 51t173 143q-37 8-74.5 12t-77.5 4q-59 0-114.5-11T57 310L21 434q61 24 119.5 35T269 480zm135 145-72-71-72 71 72 72z"/><glyph glyph-name="dal.isol" unicode="د" horiz-adv-x="631" arabic-form="isolated" d="m213 398 73 124q125-65 204-192.5T559 66Q505 27 436 8.5T277-10q-76 0-145 12T19 35l54 134q50-17 100-26t100-9q58 0 97.5 6t70.5 20q-31 68-92.5 133T213 398z"/><glyph glyph-name="dal.fina" unicode="د" horiz-adv-x="665" arabic-form="final" d="M347 202 196 462l108 68 139-249q41-75 87-106t128-31h7V0h-12q-71 0-116 14.5T454 62q-43-37-94.5-54.5T244-10q-61 0-121.5 12T19 35l54 134q47-18 93.5-26.5T260 134q34 0 64.5 3.5T381 148q-12 17-20 29.5T347 202z"/><glyph glyph-name="zal.isol" unicode="ذ" horiz-adv-x="631" arabic-form="isolated" d="m213 398 73 124q125-65 204-192.5T559 66Q505 27 436 8.5T277-10q-76 0-145 12T19 35l54 134q50-17 100-26t100-9q58 0 97.5 6t70.5 20q-31 68-92.5 133T213 398zm130 279-72-71-72 71 72 72z"/><glyph glyph-name="zal.fina" unicode="ذ" horiz-adv-x="665" arabic-form="final" d="M347 202 196 462l108 68 139-249q41-75 87-106t128-31h7V0h-12q-71 0-116 14.5T454 62q-43-37-94.5-54.5T244-10q-61 0-121.5 12T19 35l54 134q47-18 93.5-26.5T260 134q34 0 64.5 3.5T381 148q-12 17-20 29.5T347 202zm-55 480-72-71-72 71 72 72z"/><glyph glyph-name="dalTa.isol" unicode="ڈ" horiz-adv-x="631" arabic-form="isolated" d="m213 398 73 124q125-65 204-192.5T559 66Q505 27 436 8.5T277-10q-76 0-145 12T19 35l54 134q50-17 100-26t100-9q58 0 97.5 6t70.5 20q-31 68-92.5 133T213 398zm210 277q0-17-5.5-34T403 610q-32-8-76-12t-99-4q-32 0-63 4.5T110 612l21 62q15-4 25.5-6t20.5-3q3 11 6.5 21t8.5 19v159h64v-98q14 11 30 16t34 5q46 0 74.5-31t28.5-81zm-66-6q0 24-13 37.5T308 720q-24 0-42-15t-28-42q41 0 71 1.5t48 4.5z"/><glyph glyph-name="dalTa.fina" unicode="ڈ" horiz-adv-x="665" arabic-form="final" d="M347 202 196 462l108 68 139-249q41-75 87-106t128-31h7V0h-12q-71 0-116 14.5T454 62q-43-37-94.5-54.5T244-10q-61 0-121.5 12T19 35l54 134q47-18 93.5-26.5T260 134q34 0 64.5 3.5T381 148q-12 17-20 29.5T347 202zm25 479q0-17-5.5-34T352 616q-32-8-76-12t-99-4q-32 0-63 4.5T59 618l21 62q15-4 25.5-6t20.5-3q3 11 6.5 21t8.5 19v159h64v-98q14 11 30 16t34 5q46 0 74.5-31t28.5-81zm-66-6q0 24-13 37.5T257 726q-24 0-42-15t-28-42q41 0 71 1.5t48 4.5z"/><glyph glyph-name="reh.isol" unicode="ر" horiz-adv-x="582" arabic-form="isolated" d="m311 311 125 55q37-89 55.5-157.5T510 89q0-71-23-135t-65-116q-47-56-109-87.5T187-281q-44 0-79.5 6.5T37-252l28 106q24-5 41.5-7t34.5-2q78 0 150.5 52.5T404 37q-5 47-29 117.5T311 311z"/><glyph glyph-name="reh.fina" unicode="ر" horiz-adv-x="613" arabic-form="final" d="M428 79q-17 22-33 51t-32 66l-50 116 113 48 50-121q24-57 50-76t82-19h5V0h-8q-29 0-54 4.5T504 18q-23-129-114.5-214T187-281q-44 0-79.5 6.5T37-252l28 106q24-5 41.5-7t34.5-2q87 0 163.5 62T428 79z"/><glyph glyph-name="zeh.isol" unicode="ز" horiz-adv-x="582" arabic-form="isolated" d="m311 311 125 55q37-89 55.5-157.5T510 89q0-71-23-135t-65-116q-47-56-109-87.5T187-281q-44 0-79.5 6.5T37-252l28 106q24-5 41.5-7t34.5-2q78 0 150.5 52.5T404 37q-5 47-29 117.5T311 311zm75 217-72-71-72 71 72 72z"/><glyph glyph-name="zeh.fina" unicode="ز" horiz-adv-x="613" arabic-form="final" d="M428 79q-17 22-33 51t-32 66l-50 116 113 48 50-121q24-57 50-76t82-19h5V0h-8q-29 0-54 4.5T504 18q-23-129-114.5-214T187-281q-44 0-79.5 6.5T37-252l28 106q24-5 41.5-7t34.5-2q87 0 163.5 62T428 79zm-42 449-72-71-72 71 72 72z"/><glyph glyph-name="zheh.isol" unicode="ژ" horiz-adv-x="582" arabic-form="isolated" d="m311 311 125 55q37-89 55.5-157.5T510 89q0-71-23-135t-65-116q-47-56-109-87.5T187-281q-44 0-79.5 6.5T37-252l28 106q24-5 41.5-7t34.5-2q78 0 150.5 52.5T404 37q-5 47-29 117.5T311 311zm75 347-72-71-72 71 72 72zm-72-133-68-68-73 71 73 72 68-69 68 69 73-72-73-71z"/><glyph glyph-name="zheh.fina" unicode="ژ" horiz-adv-x="613" arabic-form="final" d="M428 79q-17 22-33 51t-32 66l-50 116 113 48 50-121q24-57 50-76t82-19h5V0h-8q-29 0-54 4.5T504 18q-23-129-114.5-214T187-281q-44 0-79.5 6.5T37-252l28 106q24-5 41.5-7t34.5-2q87 0 163.5 62T428 79zm-42 579-72-71-72 71 72 72zm-72-133-68-68-73 71 73 72 68-69 68 69 73-72-73-71z"/><glyph glyph-name="rehTa.isol" unicode="ڑ" horiz-adv-x="582" arabic-form="isolated" d="m311 311 125 55q37-89 55.5-157.5T510 89q0-71-23-135t-65-116q-47-56-109-87.5T187-281q-44 0-79.5 6.5T37-252l28 106q24-5 41.5-7t34.5-2q78 0 150.5 52.5T404 37q-5 47-29 117.5T311 311zm155 215q0-17-5.5-34T446 461q-32-8-76-12t-99-4q-32 0-63 4.5T153 463l21 62q15-4 25.5-6t20.5-3q3 11 6.5 21t8.5 19v159h64v-98q14 11 30 16t34 5q46 0 74.5-31t28.5-81zm-66-6q0 24-13 37.5T351 571q-24 0-42-15t-28-42q41 0 71 1.5t48 4.5z"/><glyph glyph-name="rehTa.fina" unicode="ڑ" horiz-adv-x="613" arabic-form="final" d="M428 79q-17 22-33 51t-32 66l-50 116 113 48 50-121q24-57 50-76t82-19h5V0h-8q-29 0-54 4.5T504 18q-23-129-114.5-214T187-281q-44 0-79.5 6.5T37-252l28 106q24-5 41.5-7t34.5-2q87 0 163.5 62T428 79zm38 447q0-17-5.5-34T446 461q-32-8-76-12t-99-4q-32 0-63 4.5T153 463l21 62q15-4 25.5-6t20.5-3q3 11 6.5 21t8.5 19v159h64v-98q14 11 30 16t34 5q46 0 74.5-31t28.5-81zm-66-6q0 24-13 37.5T351 571q-24 0-42-15t-28-42q41 0 71 1.5t48 4.5z"/><glyph glyph-name="sin.isol" unicode="س" horiz-adv-x="1341" arabic-form="isolated" d="M640 21q3-53 3-94.5t-3-81.5q-61-47-143-74t-166-27q-122 0-191 58.5T71-35q0 44 15 92.5t45 98.5l91-40q-15-34-22.5-62T192 2q0-60 39.5-87.5T356-113q46 0 93 10.5T533-73q0 73-17.5 163.5T460 307l123 36 26-91q18-61 48-89.5t77-28.5q46 0 72.5 31t26.5 84v81h119v-81q0-57 23.5-86t69.5-29q29 0 53.5 8t48.5 26q-5 54-14 98.5t-24 89.5l121 42q25-82 29-167.5T1245 56q-39-33-82-49.5T1074-10q-56 0-94.5 25T919 91q-24-47-72.5-74T738-10q-33 0-57.5 7.5T640 21z"/><glyph glyph-name="sin.fina" unicode="س" horiz-adv-x="1409" arabic-form="final" d="M640 21q3-53 3-94.5t-3-81.5q-61-47-143-74t-166-27q-122 0-191 58.5T71-35q0 44 15 92.5t45 98.5l91-40q-15-34-22.5-62T192 2q0-60 39.5-87.5T356-113q46 0 93 10.5T533-73q0 73-17.5 163.5T460 307l123 36 26-90q18-61 48-90t77-29q46 0 72.5 31t26.5 84v81h119v-81q0-57 23.5-86t69.5-29q44 0 68.5 30.5T1138 249v126h119V269q0-69 30-97t112-28h10V0h-10q-65 0-110.5 22.5T1218 90q-19-45-61-72.5T1064-10q-55 0-95 24.5T907 86q-24-45-68.5-70.5T738-10q-33 0-57.5 7.5T640 21z"/><glyph glyph-name="sin.medi" unicode="س" horiz-adv-x="1018" arabic-form="medial" d="M-21 71q0 31 6 52t15 21h18q59 0 87 28.5t28 87.5v85h119v-96q0-57 24.5-86t72.5-29q44 0 68.5 30t24.5 85v81h120v-81q0-57 23.5-86t69.5-29q43 0 67.5 30t24.5 85v126h119V269q0-70 29.5-97.5T1009 144h9V0h-9q-67 0-112 22t-70 68q-19-46-60.5-73T674-10q-56 0-96 24t-62 71q-23-45-67-70T348-10 248 15.5 183 88q-23-42-70-65T5 0H0q-9 0-15 20.5T-21 71z"/><glyph glyph-name="sin.init" unicode="س" horiz-adv-x="952" d="M-21 71q0 31 6 52t15 21h18q59 0 87 28.5t28 87.5v85h119v-96q0-57 24.5-86t72.5-29q44 0 68.5 30t24.5 85v81h120v-81q0-57 23.5-86t69.5-29q32 0 59 7.5t46 21.5q-5 56-14 101.5T722 356l119 42q25-84 29-169.5T856 56q-34-32-76.5-49T690-10q-64 0-107.5 24T516 86q-22-45-66.5-70.5T348-10 248 15.5 183 88q-23-42-70-65T5 0H0q-9 0-15 20.5T-21 71z"/><glyph glyph-name="shin.isol" unicode="ش" horiz-adv-x="1341" arabic-form="isolated" d="M640 21q3-53 3-94.5t-3-81.5q-61-47-143-74t-166-27q-122 0-191 58.5T71-35q0 44 15 92.5t45 98.5l91-40q-15-34-22.5-62T192 2q0-60 39.5-87.5T356-113q46 0 93 10.5T533-73q0 73-17.5 163.5T460 307l123 36 26-91q18-61 48-89.5t77-28.5q46 0 72.5 31t26.5 84v81h119v-81q0-57 23.5-86t69.5-29q29 0 53.5 8t48.5 26q-5 54-14 98.5t-24 89.5l121 42q25-82 29-167.5T1245 56q-39-33-82-49.5T1074-10q-56 0-94.5 25T919 91q-24-47-72.5-74T738-10q-33 0-57.5 7.5T640 21zm321 626-72-71-72 71 72 72zm-72-133-68-68-73 71 73 72 68-69 68 69 73-72-73-71z"/><glyph glyph-name="shin.fina" unicode="ش" horiz-adv-x="1409" arabic-form="final" d="M640 21q3-53 3-94.5t-3-81.5q-61-47-143-74t-166-27q-122 0-191 58.5T71-35q0 44 15 92.5t45 98.5l91-40q-15-34-22.5-62T192 2q0-60 39.5-87.5T356-113q46 0 93 10.5T533-73q0 73-17.5 163.5T460 307l123 36 26-90q18-61 48-90t77-29q46 0 72.5 31t26.5 84v81h119v-81q0-57 23.5-86t69.5-29q44 0 68.5 30.5T1138 249v126h119V269q0-69 30-97t112-28h10V0h-10q-65 0-110.5 22.5T1218 90q-19-45-61-72.5T1064-10q-55 0-95 24.5T907 86q-24-45-68.5-70.5T738-10q-33 0-57.5 7.5T640 21zm321 626-72-71-72 71 72 72zm-72-133-68-68-73 71 73 72 68-69 68 69 73-72-73-71z"/><glyph glyph-name="shin.medi" unicode="ش" horiz-adv-x="1018" arabic-form="medial" d="M-21 71q0 31 6 52t15 21h18q59 0 87 28.5t28 87.5v85h119v-96q0-57 24.5-86t72.5-29q44 0 68.5 30t24.5 85v81h120v-81q0-57 23.5-86t69.5-29q43 0 67.5 30t24.5 85v126h119V269q0-70 29.5-97.5T1009 144h9V0h-9q-67 0-112 22t-70 68q-19-46-60.5-73T674-10q-56 0-96 24t-62 71q-23-45-67-70T348-10 248 15.5 183 88q-23-42-70-65T5 0H0q-9 0-15 20.5T-21 71zm594 576-72-71-72 71 72 72zm-72-133-68-68-73 71 73 72 68-69 68 69 73-72-73-71z"/><glyph glyph-name="shin.init" unicode="ش" horiz-adv-x="952" d="M-21 71q0 31 6 52t15 21h18q59 0 87 28.5t28 87.5v85h119v-96q0-57 24.5-86t72.5-29q44 0 68.5 30t24.5 85v81h120v-81q0-57 23.5-86t69.5-29q32 0 59 7.5t46 21.5q-5 56-14 101.5T722 356l119 42q25-84 29-169.5T856 56q-34-32-76.5-49T690-10q-64 0-107.5 24T516 86q-22-45-66.5-70.5T348-10 248 15.5 183 88q-23-42-70-65T5 0H0q-9 0-15 20.5T-21 71zm594 576-72-71-72 71 72 72zm-72-133-68-68-73 71 73 72 68-69 68 69 73-72-73-71z"/><glyph glyph-name="sad.isol" unicode="ص" horiz-adv-x="1275" arabic-form="isolated" d="M641 8q3-52 2.5-90.5T640-155q-61-47-143-74t-166-27q-122 0-191 58.5T71-35q0 44 15 92.5t45 98.5l91-40q-15-34-22.5-62T192 2q0-60 39.5-87.5T356-113q46 0 93 10.5T533-73q0 71-17.5 163.5T460 307l123 36q14-47 24.5-91t20.5-94q38 141 123.5 217T957 451q108 0 181-76t73-193q0-33-9.5-70.5T1176 44q-54-23-141-33.5T802 0q-48 0-90 2t-71 6zm446 159q0 67-40.5 108T940 316q-74 0-128.5-44T729 145q13-1 29-1h51q113 0 177 5.5t101 17.5z"/><glyph glyph-name="sad.fina" unicode="ص" horiz-adv-x="1318" arabic-form="final" d="M641 8q3-52 2.5-90.5T640-155q-61-47-143-74t-166-27q-122 0-191 58.5T71-35q0 44 15 92.5t45 98.5l91-40q-15-34-22.5-62T192 2q0-60 39.5-87.5T356-113q46 0 93 10.5T533-73q0 71-17.5 163.5T460 307l123 35q13-46 24-90t21-94q38 141 123.5 217T957 451q108 0 181-76t73-193v-15.5l-1-10.5q22-6 44.5-9t46.5-3h17V0h-12q-53 0-95.5 6.5T1128 28q-53-15-130-21.5T802 0q-48 0-90 2t-71 6zm446 159q0 67-40.5 108T940 316q-74 0-128.5-44T729 145q13-1 29-1h51q113 0 177 5.5t101 17.5z"/><glyph glyph-name="sad.medi" unicode="ص" horiz-adv-x="981" arabic-form="medial" d="M-21 71q0 31 6 52t15 21h12q41 0 74 9t56 26q-1 5-1 11.5V330h123v-90q0-32 6.5-51.5T292 159q37 140 122.5 216T620 451q109 0 182-75.5T875 182q0-4-.5-12.5T874 156q22-6 44.5-9t46.5-3h16V0h-11q-55 0-98 7t-83 22Q726 14 634 7T397 0q-86 0-141 18.5T174 76q-25-37-68.5-56.5T4 0H0q-9 0-15 20.5T-21 71zm772 96q0 67-40.5 108T603 316q-74 0-128-44.5T393 144q130 1 217 6.5T751 167z"/><glyph glyph-name="sad.init" unicode="ص" horiz-adv-x="938" d="M875 182q0-32-9.5-69.5T840 44q-62-23-163.5-33.5T397 0q-86 0-141 18.5T174 76q-25-37-68.5-56.5T4 0H0q-9 0-15 20.5T-21 71q0 31 6 52t15 21h12q41 0 74 9t56 26q-1 5-1 11.5V330h123v-90q0-32 6.5-51.5T292 159q37 140 122.5 216T620 451q109 0 182-75.5T875 182zm-124-15q0 67-40.5 108T603 316q-74 0-128-44.5T393 144q130 1 217 6.5T751 167z"/><glyph glyph-name="zad.isol" unicode="ض" horiz-adv-x="1275" arabic-form="isolated" d="M641 8q3-52 2.5-90.5T640-155q-61-47-143-74t-166-27q-122 0-191 58.5T71-35q0 44 15 92.5t45 98.5l91-40q-15-34-22.5-62T192 2q0-60 39.5-87.5T356-113q46 0 93 10.5T533-73q0 71-17.5 163.5T460 307l123 36q14-47 24.5-91t20.5-94q38 141 123.5 217T957 451q108 0 181-76t73-193q0-33-9.5-70.5T1176 44q-54-23-141-33.5T802 0q-48 0-90 2t-71 6zm446 159q0 67-40.5 108T940 316q-74 0-128.5-44T729 145q13-1 29-1h51q113 0 177 5.5t101 17.5zm-72 429-72-71-72 71 72 72z"/><glyph glyph-name="zad.fina" unicode="ض" horiz-adv-x="1318" arabic-form="final" d="M641 8q3-52 2.5-90.5T640-155q-61-47-143-74t-166-27q-122 0-191 58.5T71-35q0 44 15 92.5t45 98.5l91-40q-15-34-22.5-62T192 2q0-60 39.5-87.5T356-113q46 0 93 10.5T533-73q0 71-17.5 163.5T460 307l123 35q13-46 24-90t21-94q38 141 123.5 217T957 451q108 0 181-76t73-193v-15.5l-1-10.5q22-6 44.5-9t46.5-3h17V0h-12q-53 0-95.5 6.5T1128 28q-53-15-130-21.5T802 0q-48 0-90 2t-71 6zm446 159q0 67-40.5 108T940 316q-74 0-128.5-44T729 145q13-1 29-1h51q113 0 177 5.5t101 17.5zm-72 429-72-71-72 71 72 72z"/><glyph glyph-name="zad.medi" unicode="ض" horiz-adv-x="981" arabic-form="medial" d="M-21 71q0 31 6 52t15 21h12q41 0 74 9t56 26q-1 5-1 11.5V330h123v-90q0-32 6.5-51.5T292 159q37 140 122.5 216T620 451q109 0 182-75.5T875 182q0-4-.5-12.5T874 156q22-6 44.5-9t46.5-3h16V0h-11q-55 0-98 7t-83 22Q726 14 634 7T397 0q-86 0-141 18.5T174 76q-25-37-68.5-56.5T4 0H0q-9 0-15 20.5T-21 71zm772 96q0 67-40.5 108T603 316q-74 0-128-44.5T393 144q130 1 217 6.5T751 167zm-81 429-72-71-72 71 72 72z"/><glyph glyph-name="zad.init" unicode="ض" horiz-adv-x="938" d="M875 182q0-32-9.5-69.5T840 44q-62-23-163.5-33.5T397 0q-86 0-141 18.5T174 76q-25-37-68.5-56.5T4 0H0q-9 0-15 20.5T-21 71q0 31 6 52t15 21h12q41 0 74 9t56 26q-1 5-1 11.5V330h123v-90q0-32 6.5-51.5T292 159q37 140 122.5 216T620 451q109 0 182-75.5T875 182zm-124-15q0 67-40.5 108T603 316q-74 0-128-44.5T393 144q130 1 217 6.5T751 167zm-82 429-72-71-72 71 72 72z"/><glyph glyph-name="ta.isol" unicode="ط" horiz-adv-x="812" arabic-form="isolated" d="M748 182q0-33-9.5-70.5T713 44q-63-23-164-33.5T277 0q-76 0-147 10T10 38l50 134q21-7 44.5-12t49.5-9q8 29 18 55.5t21 49.5v449h119V381q39 35 84 52.5t97 17.5q109 0 182-75.5T748 182zm-124-15q0 67-40.5 108T476 316q-71 0-123.5-44T273 144q126 1 211.5 6.5T624 167z"/><glyph glyph-name="ta.fina" unicode="ط" horiz-adv-x="855" arabic-form="final" d="M277 0q-76 0-147 10T10 38l50 134q21-7 44.5-12t49.5-9q8 29 18 55.5t21 49.5v449h119V381q39 35 84 52.5t97 17.5q109 0 182-75.5T748 182v-15.5l-1-10.5q22-6 44.5-9t46.5-3h17V0h-12q-55 0-98 7t-83 22Q601 14 510.5 7T277 0zm347 167q0 67-40.5 108T476 316q-71 0-123.5-44T273 144q126 1 211.5 6.5T624 167z"/><glyph glyph-name="ta.medi" unicode="ط" horiz-adv-x="796" arabic-form="medial" d="M603 29Q541 14 451 7T218 0H0q-9 0-15 20.5T-21 71q0 31 6 52t15 21h93q7 30 17 58.5t24 55.5v447h119V381q39 35 84 52.5t97 17.5q109 0 182-75.5T689 182v-15.5l-1-10.5q22-6 44.5-9t46.5-3h17V0h-12q-55 0-98 7t-83 22zm-38 138q0 67-40.5 108T417 316q-71 0-123.5-44T214 144q126 1 211.5 6.5T565 167z"/><glyph glyph-name="ta.init" unicode="ط" horiz-adv-x="753" d="M655 44q-63-23-164.5-33.5T219 0H0q-9 0-15 20.5T-21 71q0 31 6 52t15 21h94q7 29 17 57t23 55v449h120V381q39 35 84 52.5t97 17.5q109 0 182-75.5T690 182q0-32-9.5-69.5T655 44zm-90 123q0 67-40.5 108T418 316q-71 0-124-44.5T214 144q127 1 212.5 6.5T565 167z"/><glyph glyph-name="za.isol" unicode="ظ" horiz-adv-x="812" arabic-form="isolated" d="M748 182q0-33-9.5-70.5T713 44q-63-23-164-33.5T277 0q-76 0-147 10T10 38l50 134q21-7 44.5-12t49.5-9q8 29 18 55.5t21 49.5v449h119V381q39 35 84 52.5t97 17.5q109 0 182-75.5T748 182zm-124-15q0 67-40.5 108T476 316q-71 0-123.5-44T273 144q126 1 211.5 6.5T624 167zm24 429-72-71-72 71 72 72z"/><glyph glyph-name="za.fina" unicode="ظ" horiz-adv-x="855" arabic-form="final" d="M277 0q-76 0-147 10T10 38l50 134q21-7 44.5-12t49.5-9q8 29 18 55.5t21 49.5v449h119V381q39 35 84 52.5t97 17.5q109 0 182-75.5T748 182v-15.5l-1-10.5q22-6 44.5-9t46.5-3h17V0h-12q-55 0-98 7t-83 22Q601 14 510.5 7T277 0zm347 167q0 67-40.5 108T476 316q-71 0-123.5-44T273 144q126 1 211.5 6.5T624 167zm24 429-72-71-72 71 72 72z"/><glyph glyph-name="za.medi" unicode="ظ" horiz-adv-x="796" arabic-form="medial" d="M603 29Q541 14 451 7T218 0H0q-9 0-15 20.5T-21 71q0 31 6 52t15 21h93q7 30 17 58.5t24 55.5v447h119V381q39 35 84 52.5t97 17.5q109 0 182-75.5T689 182v-15.5l-1-10.5q22-6 44.5-9t46.5-3h17V0h-12q-55 0-98 7t-83 22zm-38 138q0 67-40.5 108T417 316q-71 0-123.5-44T214 144q126 1 211.5 6.5T565 167zm16 429-72-71-72 71 72 72z"/><glyph glyph-name="za.init" unicode="ظ" horiz-adv-x="753" d="M655 44q-63-23-164.5-33.5T219 0H0q-9 0-15 20.5T-21 71q0 31 6 52t15 21h94q7 29 17 57t23 55v449h120V381q39 35 84 52.5t97 17.5q109 0 182-75.5T690 182q0-32-9.5-69.5T655 44zm-90 123q0 67-40.5 108T418 316q-71 0-124-44.5T214 144q127 1 212.5 6.5T565 167zm16 429-72-71-72 71 72 72z"/><glyph glyph-name="eyn.isol" unicode="ع" horiz-adv-x="665" arabic-form="isolated" d="M233 415q5-67 41-120.5t78-53.5q16 0 55.5 8.5T523 278l14-120-147-36Q267 92 217 60.5T167-22q0-56 58-85t172-29q57 0 112 5.5T625-113l-7-142q-46-12-102-19t-108-7q-167 0-263 66.5T49-32q0 65 37 116.5T198 175q-40 41-62 94.5T114 380q0 80 55.5 133T308 566q46 0 87.5-13t81.5-40l-31-103q-33 13-65 19.5t-61 6.5q-26 0-48-5.5T233 415z"/><glyph glyph-name="eyn.fina" unicode="ع" horiz-adv-x="640" arabic-form="final" d="M388-281q-166 0-261.5 58.5T31-63Q31 3 74 54t133 91q-28 28-52 62t-45 75q-1 0-25.5-10.5T43 253L0 373q92 44 180.5 67T345 463q111 0 169-39t58-114q0-45-23.5-84T477 154q32-5 71-7.5t85-2.5h7V0h-8Q522 0 438.5 19.5T289 80q-72-27-103.5-55T154-41q0-45 58-70t167-25q57 0 112 5.5T607-113l-7-142q-52-13-105.5-19.5T388-281zm61 560q0 29-28 44t-81 15q-30 0-60-4.5T218 320q27-49 62.5-82t83.5-54q42 22 63.5 46t21.5 49z"/><glyph glyph-name="eyn.medi" unicode="ع" horiz-adv-x="650" arabic-form="medial" d="M355 463q111 0 169-39t58-114q0-41-22-81t-66-76q33-5 70-7t79-2h7V0h-8q-97 0-173.5 15.5T331 62q-75-30-159-46T11 0H0q-9 0-15 20.5T-21 71q0 31 6 52t15 21h8q54 0 104.5 3t94.5 8q-24 25-45.5 56.5T120 282q-1 0-25.5-10.5T53 253L10 373q92 44 181 67t164 23zm104-184q0 28-28 43.5T350 338q-30 0-60-4.5T228 320q26-46 58.5-77.5T361 190q48 18 73 40.5t25 48.5z"/><glyph glyph-name="eyn.init" unicode="ع" horiz-adv-x="586" d="M323 187q25 0 85.5 14.5T540 240l36-134Q434 51 299 25.5T13 0H0q-9 0-15 20.5T-21 71q0 31 6 52t15 21h40q25 0 53 1t52 3q-29 39-45 85.5T84 328q0 80 55.5 133T278 514q46 0 87.5-13t81.5-40l-31-103q-33 13-65.5 19.5T289 384q-25 0-47-5.5T203 363q5-68 41-122t79-54z"/><glyph glyph-name="gheyn.isol" unicode="غ" horiz-adv-x="665" arabic-form="isolated" d="M233 415q5-67 41-120.5t78-53.5q16 0 55.5 8.5T523 278l14-120-147-36Q267 92 217 60.5T167-22q0-56 58-85t172-29q57 0 112 5.5T625-113l-7-142q-46-12-102-19t-108-7q-167 0-263 66.5T49-32q0 65 37 116.5T198 175q-40 41-62 94.5T114 380q0 80 55.5 133T308 566q46 0 87.5-13t81.5-40l-31-103q-33 13-65 19.5t-61 6.5q-26 0-48-5.5T233 415zm152 295-72-71-72 71 72 72z"/><glyph glyph-name="gheyn.fina" unicode="غ" horiz-adv-x="640" arabic-form="final" d="M388-281q-166 0-261.5 58.5T31-63Q31 3 74 54t133 91q-28 28-52 62t-45 75q-1 0-25.5-10.5T43 253L0 373q92 44 180.5 67T345 463q111 0 169-39t58-114q0-45-23.5-84T477 154q32-5 71-7.5t85-2.5h7V0h-8Q522 0 438.5 19.5T289 80q-72-27-103.5-55T154-41q0-45 58-70t167-25q57 0 112 5.5T607-113l-7-142q-52-13-105.5-19.5T388-281zm61 560q0 29-28 44t-81 15q-30 0-60-4.5T218 320q27-49 62.5-82t83.5-54q42 22 63.5 46t21.5 49zm-5 328-72-71-72 71 72 72z"/><glyph glyph-name="gheyn.medi" unicode="غ" horiz-adv-x="650" arabic-form="medial" d="M355 463q111 0 169-39t58-114q0-41-22-81t-66-76q33-5 70-7t79-2h7V0h-8q-97 0-173.5 15.5T331 62q-75-30-159-46T11 0H0q-9 0-15 20.5T-21 71q0 31 6 52t15 21h8q54 0 104.5 3t94.5 8q-24 25-45.5 56.5T120 282q-1 0-25.5-10.5T53 253L10 373q92 44 181 67t164 23zm104-184q0 28-28 43.5T350 338q-30 0-60-4.5T228 320q26-46 58.5-77.5T361 190q48 18 73 40.5t25 48.5zm-6 328-72-71-72 71 72 72z"/><glyph glyph-name="gheyn.init" unicode="غ" horiz-adv-x="586" d="M323 187q25 0 85.5 14.5T540 240l36-134Q434 51 299 25.5T13 0H0q-9 0-15 20.5T-21 71q0 31 6 52t15 21h40q25 0 53 1t52 3q-29 39-45 85.5T84 328q0 80 55.5 133T278 514q46 0 87.5-13t81.5-40l-31-103q-33 13-65.5 19.5T289 384q-25 0-47-5.5T203 363q5-68 41-122t79-54zm32 471-72-71-72 71 72 72z"/><glyph glyph-name="feh.isol" unicode="ف" horiz-adv-x="853" arabic-form="isolated" d="m635 750-73-71-72 71 72 72zM362 384q0 92 58 164t136 72q93 0 166.5-96.5T796 306q0-166-96-241T393-10q-172 0-262.5 61T40 227q0 40 15 82t42 78l84-44q-13-28-18-47.5t-5-40.5q0-63 60-92t191-29q133 0 199 29.5t79 93.5q-31-11-67-16.5t-76-5.5q-90 0-136 38t-46 111zm187 103q-31 0-53-24.5T474 404q0-29 23-42.5t73-13.5q29 0 57 3t55 10q-15 57-51.5 91.5T549 487z"/><glyph glyph-name="feh.fina" unicode="ف" horiz-adv-x="909" arabic-form="final" d="m718 612-73-71-72 71 72 72zM158 257q0-65 55-94t179-29q32 0 61.5 1.5T509 140q-33 36-50.5 75T441 293q0 80 56.5 130T646 473t148.5-50T851 293q0-36-16.5-73T787 149q25-2 51-3.5t52-1.5h19V0h-19q-66 0-128 12T646 48Q586 20 517 5T374-10q-165 0-249.5 60.5T40 228q0 39 15.5 81.5T97 387l84-44q-13-27-18-46.5t-5-39.5zm488 86q-43 0-66.5-18T556 275q0-30 25-56t72-43q41 18 62 43.5t21 55.5q0 32-23.5 50T646 343z"/><glyph glyph-name="feh.medi" unicode="ف" horiz-adv-x="539" arabic-form="medial" d="M520 144h19V0h-18q-70 0-135 12.5T265 49q-57-24-121.5-36.5T14 0H0q-9 0-15 20.5T-21 71q0 31 6 52t15 21h24q30 0 54 1t45 3q-29 32-44.5 69T63 293q0 80 58 130t152 50 151.5-50T482 293q0-37-17-73.5T415 149q26-3 52-4t53-1zM273 343q-45 0-70-18t-25-50q0-29 24.5-54t69.5-42q47 18 71.5 42.5T368 275q0 32-25 50t-70 18zm72 269-72-71-72 71 72 72z"/><glyph glyph-name="feh.init" unicode="ف" horiz-adv-x="528" d="M-21 71q0 31 6 52t15 21h95q128 0 192.5 27.5T363 257q-32-11-68-16.5t-76-5.5q-90 0-136 38T37 384q0 92 58 164t136 72q94 0 167-96.5T471 301q0-158-90-229.5T95 0H0q-9 0-15 20.5T-21 71zm242 416q-29 0-50.5-24.5T149 404q0-29 23-42.5t73-13.5q28 0 55.5 3t55.5 9q-15 59-51.5 93T221 487zm80 274-72-71-72 71 72 72z"/><glyph glyph-name="ghaf.isol" unicode="ق" horiz-adv-x="759" arabic-form="isolated" d="m468 513-69-67-72 71 72 72 69-68 69 68 72-72-72-71zm176-241q29-47 44-103t15-116q0-160-92.5-247T345-281q-143 0-224 66T40-34q0 44 15.5 90.5T97 139l84-44q-12-25-17.5-48T158 1q0-67 52-102t151-35q105 0 162 38t68 115Q561 3 526.5-4T450-11q-88 0-135 43.5T268 157q0 92 58 164t136 72q51 0 99-32t83-89zm-58-139q-14 61-49 95.5T456 263q-30 0-52.5-25.5T381 177q0-29 22.5-42t72.5-13q30 0 57.5 2.5T586 133z"/><glyph glyph-name="ghaf.fina" unicode="ق" horiz-adv-x="792" arabic-form="final" d="m468 533-69-67-72 71 72 72 69-68 69 68 72-72-72-71zM268 169q0 99 57.5 171.5T462 413q80 0 146-76t87-193h97V0h-92q-15-132-106-201.5T345-271q-144 0-224.5 63T40-34q0 44 15.5 90.5T97 139l84-44q-12-25-17.5-48T158 1q0-63 51.5-95.5T361-127t156 31.5T588 0H464q-91 0-143.5 45T268 169zm113 28q0-28 22.5-40.5T476 144h109q-14 65-49 102t-82 37q-30 0-51.5-25.5T381 197z"/><glyph glyph-name="ghaf.medi" unicode="ق" horiz-adv-x="539" arabic-form="medial" d="M520 144h19V0h-18q-70 0-135 12.5T265 49q-57-24-121.5-36.5T14 0H0q-9 0-15 20.5T-21 71q0 31 6 52t15 21h24q30 0 54 1t45 3q-29 32-44.5 69T63 293q0 80 58 130t152 50 151.5-50T482 293q0-37-17-73.5T415 149q26-3 52-4t53-1zM273 343q-45 0-70-18t-25-50q0-29 24.5-54t69.5-42q47 18 71.5 42.5T368 275q0 32-25 50t-70 18zm0 266-68-68-73 71 73 72 68-69 68 69 73-72-73-71z"/><glyph glyph-name="ghaf.init" unicode="ق" horiz-adv-x="539" d="M-21 71q0 31 6 52t15 21h95q128 0 192.5 27.5T363 257q-32-11-68-16.5t-76-5.5q-90 0-136 38T37 384q0 92 58 164t136 72q94 0 167-96.5T471 301q0-158-90-229.5T95 0H0q-9 0-15 20.5T-21 71zm242 416q-29 0-50.5-24.5T149 404q0-29 23-42.5t73-13.5q28 0 55.5 3t55.5 9q-15 59-51.5 93T221 487zm8 271-68-68-73 71 73 72 68-69 68 69 73-72-73-71z"/><glyph glyph-name="kafArabic.isol" unicode="ك" horiz-adv-x="800" arabic-form="isolated" d="M743 705V307q0-64-6.5-129.5T718 60Q652 28 555.5 9T360-10q-159 0-239.5 55T40 208q0 41 15 84.5T97 373l84-44q-13-26-18-46t-5-40q0-58 55-83.5T392 134q61 0 120.5 7t99.5 19q6 33 9 69.5t3 77.5v398h119zM540 340q0-37-34.5-55T401 267q-30 0-57.5 2.5T296 276l10 71q25-5 51-8t48-3q21 0 39.5 2t31.5 6q-8 7-24 16.5T405 387q-46 26-64 44t-18 42q0 37 44.5 67.5T500 596l16-71q-45-11-76-22.5T390 477l82-50q36-22 52-42t16-45z"/><glyph glyph-name="kafArabic.fina" unicode="ك" horiz-adv-x="837" arabic-form="final" d="M826 144h11V0h-24q-45 0-79 10.5T678 43Q613 18 528.5 4T356-10q-157 0-236.5 55T40 208q0 41 15 84.5T97 373l84-44q-13-26-18-46t-5-40q0-58 54-83.5T388 134q64 0 127.5 7.5T626 163q-1 16-1.5 24.5T624 204v501h119V218q0-39 19.5-56.5T826 144zM540 340q0-37-34.5-55T401 267q-30 0-57.5 2.5T296 276l10 71q25-5 51-8t48-3q21 0 39.5 2t31.5 6q-8 7-24 16.5T405 387q-46 26-64 44t-18 42q0 37 44.5 67.5T500 596l16-71q-45-11-76-22.5T390 477l82-50q36-22 52-42t16-45z"/><glyph glyph-name="kafArabic.medi" unicode="ك" horiz-adv-x="601" arabic-form="medial" d="M593 144h8V0h-17q-79 0-139.5 23.5T334 96q-50-45-138-70.5T0 0q-9 0-15 20.5T-21 71q0 31 6 52t15 21q86 0 151.5 9.5T262 181L79 415q-24 31-34.5 51T34 504q0 22 11.5 40.5T81 578q63 44 159.5 82.5T429 715l26-118q-80-18-152-44t-134-60l145-187q73-93 130.5-127.5T593 144z"/><glyph glyph-name="kafArabic.init" unicode="ك" horiz-adv-x="462" d="M0 0q-9 0-15 20.5T-21 71q0 31 6 52t15 21q97 0 165.5 9t88.5 25q-4 18-21.5 47T174 309L95 415q-25 34-35 53.5T50 504q0 22 11.5 40.5T97 578q62 44 159 82t191 55l26-118q-76-18-146-44t-136-60q110-136 150-201.5T381 173q0-86-95.5-129.5T0 0z"/><glyph glyph-name="kaf.isol" unicode="ک" horiz-adv-x="839" arabic-form="isolated" d="M158 243q0-56 50.5-82.5T366 134q89 0 164.5 13t99.5 31q-4 19-23 50.5T550 309l-78 106q-24 31-34.5 51T427 504q0 23 10.5 42t31.5 32q62 44 160 81.5T824 715l26-118q-74-16-144.5-42T567 493q112-137 151.5-202T758 173q0-90-101-136.5T359-10q-154 0-236.5 56.5T40 208q0 42 15 84.5T97 373l84-44q-12-25-17.5-45.5T158 243z"/><glyph glyph-name="kaf.fina" unicode="ک" horiz-adv-x="968" arabic-form="final" d="M960 144h8V0h-17q-78 0-137.5 23T703 94q-51-48-142.5-76T358-10q-152 0-235 57T40 208q0 42 15 84.5T97 373l84-44q-12-25-17.5-45.5T158 243q0-56 51-82.5T366 134q76 0 144.5 12T630 181L446 415q-24 29-34.5 49.5T401 504q0 22 11.5 40.5T448 578q63 44 159.5 82.5T796 715l26-118q-80-18-152-44t-134-60l145-187q73-93 130.5-127.5T960 144z"/><glyph glyph-name="kaf.medi" unicode="ک" horiz-adv-x="601" arabic-form="medial" d="M593 144h8V0h-17q-79 0-139.5 23.5T334 96q-50-45-138-70.5T0 0q-9 0-15 20.5T-21 71q0 31 6 52t15 21q86 0 151.5 9.5T262 181L79 415q-24 31-34.5 51T34 504q0 22 11.5 40.5T81 578q63 44 159.5 82.5T429 715l26-118q-80-18-152-44t-134-60l145-187q73-93 130.5-127.5T593 144z"/><glyph glyph-name="kaf.init" unicode="ک" horiz-adv-x="462" d="M0 0q-9 0-15 20.5T-21 71q0 31 6 52t15 21q97 0 165.5 9t88.5 25q-4 18-21.5 47T174 309L95 415q-25 34-35 53.5T50 504q0 22 11.5 40.5T97 578q62 44 159 82t191 55l26-118q-76-18-146-44t-136-60q110-136 150-201.5T381 173q0-86-95.5-129.5T0 0z"/><glyph glyph-name="gaf.isol" unicode="گ" horiz-adv-x="839" arabic-form="isolated" d="m449 651-23 74q58 32 136 62t154 49l21-76q-73-19-152-48.5T449 651zM158 243q0-56 50.5-82.5T366 134q89 0 164.5 13t99.5 31q-4 19-23 50.5T550 309l-78 106q-24 31-34.5 51T427 504q0 23 10.5 42t31.5 32q63 44 161 82t194 55l26-118q-76-18-147-44t-136-60q112-137 151.5-202T758 173q0-90-101-136.5T359-10q-154 0-236.5 56.5T40 208q0 42 15 84.5T97 373l84-44q-12-25-17.5-45.5T158 243z"/><glyph glyph-name="gaf.fina" unicode="گ" horiz-adv-x="968" arabic-form="final" d="m435 651-24 74q58 32 136.5 62T701 836l21-76q-73-19-151.5-48.5T435 651zm525-507h8V0h-17q-78 0-137.5 23T703 94q-51-48-142.5-76T358-10q-152 0-235 57T40 208q0 42 15 84.5T97 373l84-44q-12-25-17.5-45.5T158 243q0-56 51-82.5T366 134q76 0 144.5 12T630 181L446 415q-24 29-34.5 49.5T401 504q0 22 11.5 40.5T448 578q63 44 159.5 82.5T796 715l26-118q-80-18-152-44t-134-60l145-187q73-93 130.5-127.5T960 144z"/><glyph glyph-name="gaf.medi" unicode="گ" horiz-adv-x="601" arabic-form="medial" d="m76 651-23 74q58 32 136 62t154 49l21-76q-73-19-152-48.5T76 651zm517-507h8V0h-17q-79 0-139.5 23.5T334 96q-50-45-138-70.5T0 0q-9 0-15 20.5T-21 71q0 31 6 52t15 21q86 0 151.5 9.5T262 181L79 415q-24 31-34.5 51T34 504q0 22 11.5 40.5T81 578q63 44 159.5 82.5T429 715l26-118q-80-18-152-44t-134-60l145-187q73-93 130.5-127.5T593 144z"/><glyph glyph-name="gaf.init" unicode="گ" horiz-adv-x="462" d="m99 651-23 74q58 32 136 62t154 49l21-76q-74-19-153-48.5T99 651zM0 0q-9 0-15 20.5T-21 71q0 31 6 52t15 21q97 0 165.5 9t88.5 25q-4 18-21.5 47T174 309L95 415q-25 34-35 53.5T50 504q0 22 11.5 40.5T97 578q63 44 160 82.5T447 715l26-118q-76-18-146-44t-136-60q110-136 150-201.5T381 173q0-86-95.5-129.5T0 0z"/><glyph glyph-name="lam.isol" unicode="ل" horiz-adv-x="683" arabic-form="isolated" d="M475-25q6 29 9 69t3 98v563h119V146q0-77-6-139.5T583-102q-47-42-124.5-68.5T305-197q-119 0-188.5 59T47 23q0 44 15 92.5t45 99.5l91-40q-15-34-22.5-62T168 61q0-57 37.5-86T317-54q41 0 82 7.5T475-25z"/><glyph glyph-name="lam.fina" unicode="ل" horiz-adv-x="719" arabic-form="final" d="M475-25q6 29 9 69t3 98v563h119V251q0-54 25-80.5t77-26.5h11V0h-14q-30 0-56.5 8T602 31q-3-41-7.5-74T583-102q-47-42-124.5-68.5T305-197q-119 0-188.5 59T47 23q0 44 15 92.5t45 99.5l91-40q-15-34-22.5-62T168 61q0-57 37.5-86T317-54q41 0 82 7.5T475-25z"/><glyph glyph-name="lam.medi" unicode="ل" horiz-adv-x="359" arabic-form="medial" d="M359 144V0h-13q-53 0-91.5 22.5T199 86q-27-39-79.5-62.5T4 0H0q-9 0-15 20.5T-21 71q0 31 6 52t15 21h12q35 0 64 10t52 29v522h119V251q0-54 25-80.5t77-26.5h10z"/><glyph glyph-name="lam.init" unicode="ل" horiz-adv-x="324" d="M-21 71q0 31 6 52t15 21h9q57 0 88 28.5t31 83.5v449h119V253q0-128-58.5-190.5T9 0H0q-9 0-15 20.5T-21 71z"/><glyph glyph-name="mim.isol" unicode="م" horiz-adv-x="736" arabic-form="isolated" d="M156 0q0-46 13.5-116.5T203-249L81-284q-21 70-34 146T34-9q0 100 50 163t140 78q39 110 93.5 164.5T443 451q59 0 114.5-39T647 307q29-56 37-122t-6-135q-34-28-84-44T491-10q-76 0-148 27.5T217 94q-31-7-46-29.5T156 0zm337 127q37 0 55.5 8t18.5 25q0 55-38 102.5T444 310q-36 0-64.5-27.5T320 191q44-32 87-48t86-16z"/><glyph glyph-name="mim.fina" unicode="م" horiz-adv-x="784" arabic-form="final" d="M156 0q0-46 13.5-116.5T203-249L81-284q-21 70-34 146T34-9q0 100 50 163t140 78q39 111 94 165t127 54q63 0 114-45.5T662 254q33-65 55-87.5t61-22.5h6V0h-7q-39 0-69 12.5T648 53q-20-31-59.5-47T492-10q-75 0-146.5 27.5T217 94q-31-7-46-29.5T156 0zm337 127q38 0 56 8t18 25q0 55-38 102.5T444 310q-36 0-64-27t-59-92q44-32 87-48t85-16z"/><glyph glyph-name="mim.medi" unicode="م" horiz-adv-x="726" arabic-form="medial" d="M-21 71q0 31 6 52t15 21h6q56 0 92 27t80 95q76 119 116.5 152t92.5 33q62 0 112.5-45T602 258q36-70 58-92t60-22h6V0h-7q-39 0-69 12.5T590 53q-20-31-59.5-47T434-10q-69 0-137 23.5T176 79q-39-39-81.5-59T5 0H0q-9 0-15 20.5T-21 71zm460 56q36 0 53 8.5t17 25.5q0 54-37.5 101.5T389 310q-33 0-58-24t-71-94q44-33 89-49t90-16z"/><glyph glyph-name="mim.init" unicode="م" horiz-adv-x="679" d="M-21 71q0 31 6 52t15 21h6q61 0 98 27.5t72 88.5q69 121 110 156t100 35q60 0 115.5-39T591 307q29-56 37-122t-6-135q-34-28-84-44T434-10q-67 0-132 22T185 74q-37-37-82-55.5T5 0H0q-9 0-15 20.5T-21 71zm457 56q38 0 56.5 8.5T511 161q0 54-38.5 101.5T387 310q-33 0-59-24.5T261 187q41-29 85.5-44.5T436 127z"/><glyph glyph-name="noonGhuna.isol" unicode="ں" horiz-adv-x="744" arabic-form="isolated" d="M556-12q4 85-16 189.5T481 384l123 39q51-113 63.5-274T640-111q-50-42-125-64.5T347-198q-140 0-218 69.5T51 66q0 56 21.5 117T131 295l88-45q-24-43-36-82t-12-73q0-76 46-112t143-36q57 0 108 10.5T556-12z"/><glyph glyph-name="noonGhuna.fina" unicode="ں" horiz-adv-x="809" arabic-form="final" d="M667 48q2-66-4.5-121T640-171q-50-42-125-64.5T347-258q-140 0-218 69.5T51 6q0 56 21.5 117T131 235l88-45q-24-43-36-82t-12-73q0-76 46-112t143-36q57 0 108 10.5T556-72q4 88-17.5 197T475 340l124 39q4-12 9.5-28t15.5-49q6-18 8.5-26t4.5-15q23-71 57.5-94T802 144h7V0h-7q-53 0-83 11t-52 37z"/><glyph glyph-name="noon.isol" unicode="ن" horiz-adv-x="744" arabic-form="isolated" d="M556-12q4 85-16 189.5T481 384l123 39q51-113 63.5-274T640-111q-50-42-125-64.5T347-198q-140 0-218 69.5T51 66q0 56 21.5 117T131 295l88-45q-24-43-36-82t-12-73q0-76 46-112t143-36q57 0 108 10.5T556-12zM435 563l-72-71-72 71 72 72z"/><glyph glyph-name="noon.fina" unicode="ن" horiz-adv-x="809" arabic-form="final" d="M667 48q2-66-4.5-121T640-171q-50-42-125-64.5T347-258q-140 0-218 69.5T51 6q0 56 21.5 117T131 235l88-45q-24-43-36-82t-12-73q0-76 46-112t143-36q57 0 108 10.5T556-72q4 88-17.5 197T475 340l124 39q4-12 9.5-28t15.5-49q6-18 8.5-26t4.5-15q23-71 57.5-94T802 144h7V0h-7q-53 0-83 11t-52 37zM434 514l-72-71-72 71 72 72z"/><glyph glyph-name="noon.medi" unicode="ن" horiz-adv-x="403" arabic-form="medial" d="M403 144V0h-14q-62 0-107 23.5T219 89q-28-41-86.5-65T4 0H0q-9 0-15 20.5T-21 71q0 31 6 52t15 21h12q44 0 78 9.5t58 29.5v147h119v-79q0-54 30.5-80.5T392 144h11zM275 509l-72-71-72 71 72 72z"/><glyph glyph-name="noon.init" unicode="ن" horiz-adv-x="357" d="M0 144h6q53 0 95.5 7t73.5 21q-4 48-13 92t-24 92l121 42q25-82 29-167T274 60q-50-29-118.5-44.5T7 0H0q-9 0-15 20.5T-21 71q0 31 6 52t15 21zm237 419-72-71-72 71 72 72z"/><glyph glyph-name="vav.isol" unicode="و" horiz-adv-x="575" arabic-form="isolated" d="M68 198q0 102 59.5 177.5T268 451q51 0 99-35.5t81-98.5q26-49 40-107t14-121q0-71-23-136t-67-117q-47-55-109-86t-128-31q-41 0-78 7.5T30-252l27 106q19-4 37.5-6.5T129-155q79 0 147.5 45.5T386 17Q359 4 330-3t-58-7q-98 0-151 54T68 198zm196 110q-37 0-60.5-27T180 211q0-42 22.5-60t76.5-18q28 0 55 3t54 9q-13 80-44.5 121.5T264 308z"/><glyph glyph-name="vav.fina" unicode="و" horiz-adv-x="605" arabic-form="final" d="M68 198q0 101 59.5 177T268 451q85 0 151.5-88T499 144h106V0H493q-27-123-117-202t-201-79q-42 0-79 7.5T30-252l27 106q25-5 41-7t31-2q75 0 140.5 40.5T377 0h-99Q178 0 123 52T68 198zm112 13q0-36 22-51.5t76-15.5h110q-13 80-45 122t-79 42q-37 0-60.5-27T180 211z"/><glyph glyph-name="vavHamzeAbove.isol" unicode="ؤ" horiz-adv-x="575" arabic-form="isolated" d="M68 198q0 102 59.5 177.5T268 451q51 0 99-35.5t81-98.5q26-49 40-107t14-121q0-71-23-136t-67-117q-47-55-109-86t-128-31q-41 0-78 7.5T30-252l27 106q19-4 37.5-6.5T129-155q79 0 147.5 45.5T386 17Q359 4 330-3t-58-7q-98 0-151 54T68 198zm196 110q-37 0-60.5-27T180 211q0-42 22.5-60t76.5-18q28 0 55 3t54 9q-13 80-44.5 121.5T264 308zm124 306v-74l-239-35v73l55 8q-11 17-16.5 36t-5.5 39q0 44 27.5 71t71.5 27q23 0 45-7t41-20l-19-58q-26 9-54 11t-43-5q2-32 17.5-55t36.5-23q3 0 10.5 1t30.5 5q16 2 25 3.5t17 2.5z"/><glyph glyph-name="vavHamzeAbove.fina" unicode="ؤ" horiz-adv-x="605" arabic-form="final" d="M68 198q0 101 59.5 177T268 451q85 0 151.5-88T499 144h106V0H493q-27-123-117-202t-201-79q-42 0-79 7.5T30-252l27 106q25-5 41-7t31-2q75 0 140.5 40.5T377 0h-99Q178 0 123 52T68 198zm112 13q0-36 22-51.5t76-15.5h110q-13 80-45 122t-79 42q-37 0-60.5-27T180 211zm208 403v-74l-239-35v73l55 8q-11 17-16.5 36t-5.5 39q0 44 27.5 71t71.5 27q23 0 45-7t41-20l-19-58q-26 9-54 11t-43-5q2-32 17.5-55t36.5-23q3 0 10.5 1t30.5 5q16 2 25 3.5t17 2.5z"/><glyph glyph-name="heh.isol" unicode="ه" horiz-adv-x="519" arabic-form="isolated" d="M244 470q110-36 167.5-105T469 199q0-93-59.5-151T254-10q-93 0-148.5 52.5T50 181q0 84 49 157t145 132zm6-144q-40-27-61.5-58.5T167 205q0-33 24-52t66-19q44 0 69.5 21t25.5 56q0 34-25.5 62.5T250 326z"/><glyph glyph-name="heh.fina" unicode="ه" horiz-adv-x="523" arabic-form="final" d="M512 144h11V0h-24q-66 0-107 23t-60 71q-25-15-52.5-23T222 63q-81 0-132 47T39 232q0 90 70.5 156.5T316 492v47h119V218q0-41 17.5-57.5T512 144zM150 248q0-30 22.5-44.5T241 189q16 0 35 2.5t40 6.5v159q-83-13-124.5-40.5T150 248z"/><glyph glyph-name="heh.medi" unicode="ه" horiz-adv-x="603" arabic-form="medial" d="M548-88q0-83-51.5-136.5T365-278q-100 0-173 76T101 0H0q-9 0-15 20.5T-21 71q0 31 6 52t15 21h101q11 63 36 133t58 129q25 44 47 63.5t49 19.5q21 0 39-10.5t39-34.5q55-63 82-119t27-109q0-18-5-35.5T457 144h146V0h-80q13-20 19-41.5t6-46.5zM374 209q0 33-21 66t-67 75q-27-50-45-105.5T217 139h68q42 0 65.5 18.5T374 209zm71-280q0 36-30 56T330 5H221q13-74 50-110.5t98-36.5q35 0 55.5 19.5T445-71z"/><glyph glyph-name="heh.init" unicode="ه" horiz-adv-x="708" d="M-21 71q0 31 6 52t15 21h30q25 0 45 1t38 3q-30 34-45.5 72.5T52 300q0 83 53 134.5T244 486q13 0 26.5-2t27.5-6l37 70q156-78 239.5-177T658 169q0-79-38-134t-93-55q-66 0-137 17T257 44q-47-22-99.5-33T52 0H0q-9 0-15 20.5T-21 71zm275 298q-43 0-66-18.5T165 297q0-29 22-59t63-57q46 21 71 50.5t25 63.5-25 54-67 20zm232-260q28 0 42 15t14 45q0 35-27 76.5T436 332q3-13 4.5-26t1.5-26q0-42-17.5-81.5T374 125q29-8 57.5-12t54.5-4z"/><glyph glyph-name="tehArabic.isol" unicode="ة" horiz-adv-x="519" arabic-form="isolated" d="M244 470q110-36 167.5-105T469 199q0-93-59.5-151T254-10q-93 0-148.5 52.5T50 181q0 84 49 157t145 132zm6-144q-40-27-61.5-58.5T167 205q0-33 24-52t66-19q44 0 69.5 21t25.5 56q0 34-25.5 62.5T250 326zm-3 269-68-68-73 71 73 72 68-69 68 69 73-72-73-71z"/><glyph glyph-name="tehArabic.fina" unicode="ة" horiz-adv-x="523" arabic-form="final" d="M512 144h11V0h-24q-66 0-107 23t-60 71q-25-15-52.5-23T222 63q-81 0-132 47T39 232q0 90 70.5 156.5T316 492v47h119V218q0-41 17.5-57.5T512 144zM150 248q0-30 22.5-44.5T241 189q16 0 35 2.5t40 6.5v159q-83-13-124.5-40.5T150 248zm171 433-68-68-73 71 73 72 68-69 68 69 73-72-73-71z"/><glyph glyph-name="hehUrdu.isol" unicode="ہ" horiz-adv-x="519" arabic-form="isolated" d="M244 470q110-36 167.5-105T469 199q0-93-59.5-151T254-10q-93 0-148.5 52.5T50 181q0 84 49 157t145 132zm6-144q-40-27-61.5-58.5T167 205q0-33 24-52t66-19q44 0 69.5 21t25.5 56q0 34-25.5 62.5T250 326z"/><glyph glyph-name="hehUrdu.fina" unicode="ہ" horiz-adv-x="553" arabic-form="final" d="M342 241q65-60 105-78.5t85-18.5h21V0h-13q-70 0-128 23t-136 92q-52 46-79 59t-55 13-53-5.5T40 164l20 145q24 10 53 16t57 6q39 0 75.5-17t96.5-73z"/><glyph glyph-name="hehUrdu.medi" unicode="ہ" horiz-adv-x="608" arabic-form="medial" d="M-21 71q0 31 6 52t15 21h7q64 0 100 44t57 143l117-18q-20-142 6-227.5T399-75q-6 97 44.5 158T583 144h25V0h-11q-72 0-95.5-49t6.5-138l-85-76q-99 68-160.5 159T193 78q-33-39-77.5-58.5T14 0H0q-9 0-15 20.5T-21 71z"/><glyph glyph-name="hehUrdu.init" unicode="ہ" horiz-adv-x="376" d="m163 320 121 41q20-69 23-145.5T294 60q-51-29-124-44.5T7 0H0q-9 0-15 20.5T-21 71q0 31 6 52t15 21h6q59 0 107 7t82 21q-3 36-11 73t-21 75zm12-448q0-13 6-20t20-8q22-2 36.5-18.5T252-216q0-26-19-43.5T185-277q-39 0-65.5 31T93-166q0 28 8 59t22 58l68-20q-7-15-11.5-32t-4.5-27z"/><glyph glyph-name="hehDocheshm.isol" unicode="ھ" horiz-adv-x="724" arabic-form="isolated" d="M274 43q-35-17-74.5-33T117-20L49-42 5 83l56 19q9 3 19 6.5t29 10.5q15 5 22 7.5t13 4.5q-38 38-57 81t-19 88q0 83 52.5 134.5T260 486q13 0 26.5-2t27.5-6l37 70q156-78 239.5-177T674 169q0-79-38-134t-94-55q-65 0-135.5 16.5T274 43zm-5 326q-43 0-66-18.5T180 297q0-30 22.5-61t64.5-57q52 25 73 51t21 65q0 34-24.5 54T269 369zm122-245q29-8 57.5-12t53.5-4q28 0 41.5 15t13.5 46q0 35-27 76.5T451 332q3-12 4.5-25t1.5-27q0-44-16.5-82.5T391 124z"/><glyph glyph-name="hehDocheshm.fina" unicode="ھ" horiz-adv-x="629" arabic-form="final" d="M37-48 14 92l108 17q6 66 33 147t66 150q25 44 47 63.5t49 19.5q21 0 39-10.5t39-34.5q55-62 82-118t27-110q0-19-5-36.5T484 144h145V0h-83q14-19 21-39.5t7-44.5q0-84-52.5-139T391-278q-93 0-163.5 67T132-32zm363 259q0 33-20.5 65.5T313 350q-29-53-47.5-111.5T242 129l62 10q50 8 73 25t23 47zm71-282q0 43-39 62.5T323 0l-71-12q16-61 51.5-91t91.5-30q37 0 56.5 16T471-71z"/><glyph glyph-name="hehDocheshm.medi" unicode="ھ" horiz-adv-x="603" arabic-form="medial" d="M548-88q0-83-51.5-136.5T365-278q-100 0-173 76T101 0H0q-9 0-15 20.5T-21 71q0 31 6 52t15 21h101q11 63 36 133t58 129q25 44 47 63.5t49 19.5q21 0 39-10.5t39-34.5q55-63 82-119t27-109q0-18-5-35.5T457 144h146V0h-80q13-20 19-41.5t6-46.5zM374 209q0 33-21 66t-67 75q-27-50-45-105.5T217 139h68q42 0 65.5 18.5T374 209zm71-280q0 36-30 56T330 5H221q13-74 50-110.5t98-36.5q35 0 55.5 19.5T445-71z"/><glyph glyph-name="hehDocheshm.init" unicode="ھ" horiz-adv-x="708" d="M-21 71q0 31 6 52t15 21h30q25 0 45 1t38 3q-30 34-45.5 72.5T52 300q0 83 53 134.5T244 486q13 0 26.5-2t27.5-6l37 70q156-78 239.5-177T658 169q0-79-38-134t-93-55q-66 0-137 17T257 44q-47-22-99.5-33T52 0H0q-9 0-15 20.5T-21 71zm275 298q-43 0-66-18.5T165 297q0-29 22-59t63-57q46 21 71 50.5t25 63.5-25 54-67 20zm232-260q28 0 42 15t14 45q0 35-27 76.5T436 332q3-13 4.5-26t1.5-26q0-42-17.5-81.5T374 125q29-8 57.5-12t54.5-4z"/><glyph glyph-name="hehHamzehAbove.fina" unicode="ۂ" horiz-adv-x="553" d="M342 241q65-60 105-78.5t85-18.5h21V0h-13q-70 0-128 23t-136 92q-52 46-79 59t-55 13-53-5.5T40 164l20 145q24 10 53 16t57 6q39 0 75.5-17t96.5-73zm-59 255v-74L44 387v73l55 8q-11 17-16.5 36T77 543q0 44 27.5 71t71.5 27q23 0 45-7t41-20l-19-58q-26 9-54 11t-43-5q2-32 17.5-55t36.5-23q3 0 10.5 1t30.5 5q16 2 25 3.5t17 2.5z"/><glyph glyph-name="hehTehUrdu.fina" unicode="ۃ" horiz-adv-x="553" d="M342 241q65-60 105-78.5t85-18.5h21V0h-13q-70 0-128 23t-136 92q-52 46-79 59t-55 13-53-5.5T40 164l20 145q24 10 53 16t57 6q39 0 75.5-17t96.5-73zM163 467l-68-68-73 71 73 72 68-69 68 69 73-72-73-71z"/><glyph glyph-name="yeh.isol" unicode="ی" horiz-adv-x="764" arabic-form="isolated" d="M596-150q-51-29-110.5-44.5T364-210q-137 0-214 67.5T73 44q0 41 15 84.5t42 80.5l85-44q-12-23-18-46.5T191 71q0-66 44.5-101T364-65q75 0 148.5 25T609 16q-4 16-21.5 30T514 86q-52 24-77.5 39T393 157q-28 26-41.5 57T338 283q0 83 60 142t153 59q63 0 117.5-35.5T747 360l-72-71q-38 42-71.5 60T531 367q-35 0-56.5-19T453 300q0-26 22.5-47.5T574 196q97-45 128.5-80T734 37q0-50-37-100t-101-87z"/><glyph glyph-name="yeh.fina" unicode="ی" horiz-adv-x="805" arabic-form="final" d="M179 20q0-76 44-116t129-40q88 0 153.5 29.5T601-26q-18 12-58.5 19T456 0h-11l24 144h336V0H696q3-8 5-17.5t2-20.5q0-51-35-101t-96-85q-49-28-107.5-42.5T342-281q-131 0-206.5 73.5T60-10q0 71 26.5 146T163 284l85-42q-36-68-52.5-122T179 20z"/><glyph glyph-name="yeh.medi" unicode="ی" horiz-adv-x="403" arabic-form="medial" d="M403 144V0h-14q-62 0-107 23.5T219 89q-28-41-86.5-65T4 0H0q-9 0-15 20.5T-21 71q0 31 6 52t15 21h12q44 0 78 9.5t58 29.5v147h119v-79q0-54 30.5-80.5T392 144h11zM203-150l-68-68-73 71 73 71 68-68 68 68 73-71-73-71z"/><glyph glyph-name="yeh.init" unicode="ی" horiz-adv-x="357" d="M0 144h6q53 0 95.5 7t73.5 21q-4 48-13 92t-24 92l121 42q25-82 29-167T274 60q-50-29-118.5-44.5T7 0H0q-9 0-15 20.5T-21 71q0 31 6 52t15 21zm208-294-68-68-73 71 73 71 68-68 68 68 73-71-73-71z"/><glyph glyph-name="yehArabic.isol" unicode="ي" horiz-adv-x="764" arabic-form="isolated" d="M596-150q-51-29-110.5-44.5T364-210q-137 0-214 67.5T73 44q0 41 15 84.5t42 80.5l85-44q-12-23-18-46.5T191 71q0-66 44.5-101T364-65q75 0 148.5 25T609 16q-4 16-21.5 30T514 86q-52 24-77.5 39T393 157q-28 26-41.5 57T338 283q0 83 60 142t153 59q63 0 117.5-35.5T747 360l-72-71q-38 42-71.5 60T531 367q-35 0-56.5-19T453 300q0-26 22.5-47.5T574 196q97-45 128.5-80T734 37q0-50-37-100t-101-87zM366-350l-68-68-73 71 73 71 68-68 68 68 73-71-73-71z"/><glyph glyph-name="yehArabic.fina" unicode="ي" horiz-adv-x="805" arabic-form="final" d="M179 20q0-76 44-116t129-40q88 0 153.5 29.5T601-26q-18 12-58.5 19T456 0h-11l24 144h336V0H696q3-8 5-17.5t2-20.5q0-51-35-101t-96-85q-49-28-107.5-42.5T342-281q-131 0-206.5 73.5T60-10q0 71 26.5 146T163 284l85-42q-36-68-52.5-122T179 20zm170-444-68-68-73 71 73 71 68-68 68 68 73-71-73-71z"/><glyph glyph-name="yehArabic.medi" unicode="ي" horiz-adv-x="403" arabic-form="medial" d="M403 144V0h-14q-62 0-107 23.5T219 89q-28-41-86.5-65T4 0H0q-9 0-15 20.5T-21 71q0 31 6 52t15 21h12q44 0 78 9.5t58 29.5v147h119v-79q0-54 30.5-80.5T392 144h11zM203-150l-68-68-73 71 73 71 68-68 68 68 73-71-73-71z"/><glyph glyph-name="yehArabic.init" unicode="ي" horiz-adv-x="357" d="M0 144h6q53 0 95.5 7t73.5 21q-4 48-13 92t-24 92l121 42q25-82 29-167T274 60q-50-29-118.5-44.5T7 0H0q-9 0-15 20.5T-21 71q0 31 6 52t15 21zm208-294-68-68-73 71 73 71 68-68 68 68 73-71-73-71z"/><glyph glyph-name="yehHamze.isol" unicode="ئ" horiz-adv-x="764" arabic-form="isolated" d="M596-150q-51-29-110.5-44.5T364-210q-137 0-214 67.5T73 44q0 41 15 84.5t42 80.5l85-44q-12-23-18-46.5T191 71q0-66 44.5-101T364-65q75 0 148.5 25T609 16q-4 16-21.5 30T514 86q-52 24-77.5 39T393 157q-28 26-41.5 57T338 283q0 83 60 142t153 59q63 0 117.5-35.5T747 360l-72-71q-38 42-71.5 60T531 367q-35 0-56.5-19T453 300q0-26 22.5-47.5T574 196q97-45 128.5-80T734 37q0-50-37-100t-101-87zM286 386v-74L47 277v73l55 8q-11 17-16.5 36T80 433q0 44 27.5 71t71.5 27q23 0 45-7t41-20l-19-58q-26 9-54 11t-43-5q2-32 17.5-55t36.5-23q3 0 10.5 1t30.5 5q16 2 25 3.5t17 2.5z"/><glyph glyph-name="yehHamze.fina" unicode="ئ" horiz-adv-x="805" arabic-form="final" d="M179 20q0-76 44-116t129-40q88 0 153.5 29.5T601-26q-18 12-58.5 19T456 0h-11l24 144h336V0H696q3-8 5-17.5t2-20.5q0-51-35-101t-96-85q-49-28-107.5-42.5T342-281q-131 0-206.5 73.5T60-10q0 71 26.5 146T163 284l85-42q-36-68-52.5-122T179 20zm156 428v-74L96 339v73l55 8q-11 17-16.5 36t-5.5 39q0 44 27.5 71t71.5 27q23 0 45-7t41-20l-19-58q-26 9-54 11t-43-5q2-32 17.5-55t36.5-23q3 0 10.5 1t30.5 5q16 2 25 3.5t17 2.5z"/><glyph glyph-name="yehHamze.medi" unicode="ئ" horiz-adv-x="403" arabic-form="medial" d="M403 144V0h-14q-62 0-107 23.5T219 89q-28-41-86.5-65T4 0H0q-9 0-15 20.5T-21 71q0 31 6 52t15 21h12q44 0 78 9.5t58 29.5v147h119v-79q0-54 30.5-80.5T392 144h11zm-80 390v-74L84 425v73l55 8q-11 17-16.5 36t-5.5 39q0 44 27.5 71t71.5 27q23 0 45-7t41-20l-19-58q-26 9-54 11t-43-5q2-32 17.5-55t36.5-23q3 0 10.5 1t30.5 5q16 2 25 3.5t17 2.5z"/><glyph glyph-name="yehHamze.init" unicode="ئ" horiz-adv-x="357" d="M0 144h6q53 0 95.5 7t73.5 21q-4 48-13 92t-24 92l121 42q25-82 29-167T274 60q-50-29-118.5-44.5T7 0H0q-9 0-15 20.5T-21 71q0 31 6 52t15 21zm285 445v-74L46 480v73l55 8q-11 17-16.5 36T79 636q0 44 27.5 71t71.5 27q23 0 45-7t41-20l-19-58q-26 9-54 11t-43-5q2-32 17.5-55t36.5-23q3 0 10.5 1t30.5 5q16 2 25 3.5t17 2.5z"/><glyph glyph-name="alefMaghsureh.isol" unicode="ى" horiz-adv-x="764" arabic-form="isolated" d="M596-150q-51-29-110.5-44.5T364-210q-137 0-214 67.5T73 44q0 41 15 84.5t42 80.5l85-44q-12-23-18-46.5T191 71q0-66 44.5-101T364-65q75 0 148.5 25T609 16q-4 16-21.5 30T514 86q-52 24-77.5 39T393 157q-28 26-41.5 57T338 283q0 83 60 142t153 59q63 0 117.5-35.5T747 360l-72-71q-38 42-71.5 60T531 367q-35 0-56.5-19T453 300q0-26 22.5-47.5T574 196q97-45 128.5-80T734 37q0-50-37-100t-101-87z"/><glyph glyph-name="alefMaghsureh.fina" unicode="ى" horiz-adv-x="805" arabic-form="final" d="M179 20q0-76 44-116t129-40q88 0 153.5 29.5T601-26q-18 12-58.5 19T456 0h-11l24 144h336V0H696q3-8 5-17.5t2-20.5q0-51-35-101t-96-85q-49-28-107.5-42.5T342-281q-131 0-206.5 73.5T60-10q0 71 26.5 146T163 284l85-42q-36-68-52.5-122T179 20z"/><glyph glyph-name="yehBaree.isol" unicode="ے" horiz-adv-x="652" arabic-form="isolated" d="M560 0H294Q182 0 115.5 59.5T49 220q0 104 69.5 171T288 458q27 0 55.5-6.5T391 434l-37-131q-18 5-38 7.5t-40 2.5q-53 0-83-23.5T163 226q0-39 24.5-60.5T258 144h314z"/><glyph glyph-name="yehBaree.fina" unicode="ے" horiz-adv-x="572" arabic-form="final" d="M49-87q0 105 71.5 168T310 144h262V0H276q-53 0-81-20t-28-58q0-36 23.5-54.5T259-151h285l-7-145H288q-116 0-177.5 53.5T49-87z"/><glyph glyph-name="yehBareeHamzehAbove.isol" unicode="ۓ" horiz-adv-x="652" arabic-form="isolated" d="M560 0H294Q182 0 115.5 59.5T49 220q0 104 69.5 171T288 458q27 0 55.5-6.5T391 434l-37-131q-18 5-38 7.5t-40 2.5q-53 0-83-23.5T163 226q0-39 24.5-60.5T258 144h314zM398 613v-74l-239-35v73l55 8q-11 17-16.5 36t-5.5 39q0 44 27.5 71t71.5 27q23 0 45-7t41-20l-19-58q-26 9-54 11t-43-5q2-32 17.5-55t36.5-23q3 0 10.5 1t30.5 5q16 2 25 3.5t17 2.5z"/><glyph glyph-name="yehBareeHamzehAbove.fina" unicode="ۓ" horiz-adv-x="572" arabic-form="final" d="M49-87q0 105 71.5 168T310 144h262V0H276q-53 0-81-20t-28-58q0-36 23.5-54.5T259-151h285l-7-145H288q-116 0-177.5 53.5T49-87zm384 402v-74l-239-35v73l55 8q-11 17-16.5 36t-5.5 39q0 44 27.5 71t71.5 27q23 0 45-7t41-20l-19-58q-26 9-54 11t-43-5q2-32 17.5-55t36.5-23q3 0 10.5 1t30.5 5q16 2 25 3.5t17 2.5z"/><glyph glyph-name="tashdid_zamehTanvin.cmps" unicode="ﱞ" arabic-form="isolated" d="M140 773q-18-11-38-17.5T64 749t-32.5 4.5T6 767q-18-9-34.5-13.5T-62 749q-35 0-53 20t-18 58v85h56v-72q0-14 5.5-19t20.5-5q7 0 15 2t15 5q-1 5-1.5 11t-.5 18v52h55v-53q0-18 6.5-25t23.5-7q7 0 15.5 2t16.5 5q-3 18-7.5 37.5T76 902l56 21q12-33 14-71.5t-6-78.5zm-174 306q0 37 24 61t62 24q40 0 64.5-25.5T141 1072q0-57-43-88.5T-25 952h-109v71h122q-11 11-16.5 25.5T-34 1079zm92-50q14 7 21 17.5t7 25.5q0 14-9.5 23.5T52 1105q-14 0-22.5-8t-8.5-22 9.5-25.5T58 1029z"/><glyph glyph-name="tashdid_fatheh.cmps" unicode="ﱠ" arabic-form="isolated" d="M140 773q-18-11-38-17.5T64 749t-32.5 4.5T6 767q-18-9-34.5-13.5T-62 749q-35 0-53 20t-18 58v85h56v-72q0-14 5.5-19t20.5-5q7 0 15 2t15 5q-1 5-1.5 11t-.5 18v52h55v-53q0-18 6.5-25t23.5-7q7 0 15.5 2t16.5 5q-3 18-7.5 37.5T76 902l56 21q12-33 14-71.5t-6-78.5zm-20 284v-74l-239-36v74z"/><glyph glyph-name="tashdid_zameh.cmps" unicode="ﱡ" arabic-form="isolated" d="M140 773q-18-11-38-17.5T64 749t-32.5 4.5T6 767q-18-9-34.5-13.5T-62 749q-35 0-53 20t-18 58v85h56v-72q0-14 5.5-19t20.5-5q7 0 15 2t15 5q-1 5-1.5 11t-.5 18v52h55v-53q0-18 6.5-25t23.5-7q7 0 15.5 2t16.5 5q-3 18-7.5 37.5T76 902l56 21q12-33 14-71.5t-6-78.5zM-12 949h-128v63q18 2 26.5 6.5t8.5 12.5q0 9-9 13.5t-26 4.5v70q37 2 61-16t24-49q0-10-2.5-18.5T-66 1020H1q-11 11-16.5 25.5T-21 1076q0 37 24 61t62 24q40 0 65-25.5t25-66.5q0-57-43.5-88.5T-12 949zm83 77q14 7 21 17.5t7 25.5q0 14-9.5 23.5T65 1102q-14 0-22.5-8t-8.5-22 9.5-25.5T71 1026z"/><glyph glyph-name="fatheh_tashdid.cmps" unicode="ﱢ" arabic-form="isolated" d="M120 826v-74l-239-36v74zm10 83q-18-11-38-17.5T54 885t-32.5 4.5T-4 903q-18-9-34.5-13.5T-72 885q-35 0-53 20t-18 58v85h56v-72q0-14 5.5-19t20.5-5q7 0 15 2t15 5q-1 5-1.5 11t-.5 18v52h55v-53q0-18 6.5-25t23.5-7q7 0 15.5 2t16.5 5q-3 18-7.5 37.5T66 1038l56 21q12-33 14-71.5t-6-78.5z"/><glyph glyph-name="tashdid_superScriptAlef.cmps" unicode="ﱣ" arabic-form="isolated" d="M140 773q-18-11-38-17.5T64 749t-32.5 4.5T6 767q-18-9-34.5-13.5T-62 749q-35 0-53 20t-18 58v85h56v-72q0-14 5.5-19t20.5-5q7 0 15 2t15 5q-1 5-1.5 11t-.5 18v52h55v-53q0-18 6.5-25t23.5-7q7 0 15.5 2t16.5 5q-3 18-7.5 37.5T76 902l56 21q12-33 14-71.5t-6-78.5zM-34 979v160h72V979h-72z"/><glyph glyph-name="fathehTanvin_tashdid.cmps" unicode="ﱟ" arabic-form="isolated" d="M120 939v-74l-239-36v74zm0-113v-74l-239-36v74zm10 193q-18-11-38-17.5T54 995t-32.5 4.5T-4 1013q-18-9-34.5-13.5T-72 995q-35 0-53 20t-18 58v85h56v-72q0-14 5.5-19t20.5-5q7 0 15 2t15 5q-1 5-1.5 11t-.5 18v52h55v-53q0-18 6.5-25t23.5-7q7 0 15.5 2t16.5 5q-3 18-7.5 37.5T66 1148l56 21q12-33 14-71.5t-6-78.5z"/><glyph glyph-name="rial" unicode="﷼" horiz-adv-x="1206" arabic-form="isolated" d="M475-65q6 29 9 65.5t3 82.5v134q-32-12-64-18t-64-6q-74 0-118.5 43.5T196 355q0 42 15 89t45 99l91-41q-16-36-23-62t-7-47q0-34 17.5-51t51.5-17q24 0 49 5t52 16v359h119V416q11 8 23.5 17t37.5 28q24 19 36 28t23 16v200h119V578q38 18 75.5 26.5T994 613q26 0 58.5-5t56.5-13l-9-130q-31 9-54 12.5t-45 3.5q-38 0-76.5-10.5T845 438V218q0-41 19-57.5t64-16.5q26 0 48.5 5t59.5 23q-2 28-8 56.5t-24 87.5l122 42q21-70 23-145t-14-153q-58-33-109-46.5T915 0q-98 0-143.5 49T726 204v158q-47-34-77-55t-43-29V83q0-62-6-121t-17-104q-47-42-124.5-68.5T305-237q-120 0-189 59T47-16q0 44 15.5 93t44.5 98l91-40q-15-34-22.5-62T168 21q0-57 37.5-86T317-94q41 0 82 7.5T475-65zm493-86-68-67-73 71 73 71 68-67 69 67 73-71-73-71z"/><glyph glyph-name=".notdef" horiz-adv-x="682" d="M587 0H95v685h492V0zM147 638V47h388v591H147z"/><glyph glyph-name=".null"/><glyph glyph-name=".null"/><glyph glyph-name="CR"/><glyph glyph-name="space" horiz-adv-x="210"/><glyph glyph-name="uni00A0" horiz-adv-x="210"/><glyph glyph-name="uni200E" unicode="‎"/><glyph glyph-name="uni200F" unicode="‏"/><glyph glyph-name="A" unicode="A" horiz-adv-x="707" d="M695 0H553l-55 141H202L147 0H12l274 685h135zM350 523 248 259h204z"/><glyph glyph-name="B" unicode="B" horiz-adv-x="618" d="M310 0H83v685h217q115 0 179.5-48T544 503q0-47-25.5-84.5T445 356q61-25 95-67t34-94q0-90-71.5-142.5T310 0zm100 489q0 37-28 58t-77 21h-88V410h88q49 0 77 21t28 58zm30-284q0 42-33 65.5T315 294h-98V116h98q60 0 92.5 23.5T440 205z"/><glyph glyph-name="C" unicode="C" horiz-adv-x="668" d="M390 569q-89 0-148.5-65T182 342t59.5-161.5T390 116q49 0 90 19.5t81 61.5l86-92q-56-58-120-86.5T390-10Q241-10 141 90.5T41 342t100 252 249 101q70 0 133-27t114-79l-84-92q-36 36-76.5 54T390 569z"/><glyph glyph-name="D" unicode="D" horiz-adv-x="706" d="M276 0H83v685h193q182 0 285.5-91T665 342q0-160-103.5-251T276 0zm248 342q0 105-63 161.5T281 560h-61V124h61q116 0 179.5 57T524 342z"/><glyph glyph-name="E" unicode="E" horiz-adv-x="564" d="M514 0H83v685h431V563H220V411h268V289H220V122h294V0z"/><glyph glyph-name="F" unicode="F" horiz-adv-x="548" d="M220 0H83v685h428V563H220V391h264V269H220V0z"/><glyph glyph-name="G" unicode="G" horiz-adv-x="750" d="M718 330q0-145-94-242.5T390-10Q241-10 141 90.5T41 342t100 252 249 101q70 0 133-27t114-79l-84-92q-36 36-76.5 54T390 569q-89 0-148.5-65T182 342t59.5-161.5T390 116q67 0 116 36.5t68 99.5H375v122h341q1-8 1.5-20t.5-24z"/><glyph glyph-name="H" unicode="H" horiz-adv-x="744" d="M661 0H524v291H220V0H83v685h137V413h304v272h137V0z"/><glyph glyph-name="I" unicode="I" horiz-adv-x="303" d="M220 0H83v685h137V0z"/><glyph glyph-name="J" unicode="J" horiz-adv-x="502" d="M433 685V220q0-113-58-171.5T206-10q-55 0-104 22T11 77l84 92q24-27 52-40.5t58-13.5q43 0 67 27.5t24 78.5v464h137z"/><glyph glyph-name="K" unicode="K" horiz-adv-x="667" d="M233 289h-13V0H83v685h137V411h11q53 0 80 16.5t58 67.5l116 190h147L516 496q-25-41-46.5-71.5T428 371L655 0H498L316 298q-19-5-39.5-7t-43.5-2z"/><glyph glyph-name="L" unicode="L" horiz-adv-x="531" d="M220 122h287V0H83v685h137V122z"/><glyph glyph-name="M" unicode="M" horiz-adv-x="939" d="M534 0H401L243 457 177 0H44l109 685h134l183-537 182 537h133L895 0H758l-70 446z"/><glyph glyph-name="N" unicode="N" horiz-adv-x="732" d="M649 0H517L213 460V0H83v685h132l304-462v462h130V0z"/><glyph glyph-name="O" unicode="O" horiz-adv-x="780" d="M390-10Q241-10 141 90.5T41 342t100 252 249 101 249-101 100-252T639 90.5 390-10zm0 126q89 0 148.5 64.5T598 342t-59.5 162T390 569t-148.5-65T182 342t59.5-161.5T390 116z"/><glyph glyph-name="P" unicode="P" horiz-adv-x="591" d="M217 0H83v685h213q122 0 192-59.5T558 462q0-103-71-163t-191-60h-79V0zm203 462q0 48-32.5 74.5T297 563h-80V360h80q59 0 91 26.5t32 75.5z"/><glyph glyph-name="Q" unicode="Q" horiz-adv-x="780" d="M650 102 738-2l-94-81-93 110Q514 9 473.5-.5T390-10Q241-10 141 90.5T41 342t100 252 249 101 249-101 100-252q0-69-23-130.5T650 102zM390 569q-89 0-148.5-65T182 342t59.5-161.5T390 116q18 0 36.5 3.5T464 129l-97 114 94 80 99-116q19 29 28.5 63t9.5 72q0 97-59.5 162T390 569z"/><glyph glyph-name="R" unicode="R" horiz-adv-x="621" d="M217 0H83v685h226q112 0 180.5-56.5T558 479q0-64-31-111t-89-72L598 0H453L314 262h-97V0zm203 473q0 41-28.5 65.5T314 563h-97V383h97q49 0 77.5 24.5T420 473z"/><glyph glyph-name="S" unicode="S" horiz-adv-x="567" d="M285 576q-43 0-69-19.5T190 503q0-33 28-54.5T339 396q105-35 149-81.5T532 196q0-88-68.5-147T293-10q-76 0-143.5 27.5T30 98l74 92q41-41 88-61.5T293 108q47 0 75.5 22.5T397 190q0 30-26 50t-110 49q-116 39-161 86T55 498q0 85 65 141t164 56q63 0 121-24t105-70l-78-92q-38 35-73.5 51T285 576z"/><glyph glyph-name="T" unicode="T" horiz-adv-x="579" d="M221 563H20v122h539V563H358V0H221v563z"/><glyph glyph-name="U" unicode="U" horiz-adv-x="680" d="M611 685V273q0-130-73-206.5T340-10 142 66 69 273v412h137V275q0-76 35-118t99-42q63 0 98.5 42.5T474 275v410h137z"/><glyph glyph-name="V" unicode="V" horiz-adv-x="672" d="M523 685h136L403 0H269L13 685h143l184-515z"/><glyph glyph-name="W" unicode="W" horiz-adv-x="1002" d="M752 0H619L501 323 383 0H250L13 685h147l166-502 111 301-74 201h286l-73-198 109-311 167 509h137z"/><glyph glyph-name="X" unicode="X" horiz-adv-x="681" d="M662 0H505L336 249 167 0H18l244 360L42 685h157l146-215 145 215h149L419 360z"/><glyph glyph-name="Y" unicode="Y" horiz-adv-x="634" d="M480 685h144L386 283V0H249v283L10 685h153l159-270z"/><glyph glyph-name="Z" unicode="Z" horiz-adv-x="587" d="M204 121h344V0H38v104l334 459H51v122h487V580z"/><glyph glyph-name="AE" unicode="Æ" horiz-adv-x="908" d="M646 122h212V0H553l-55 141H202L147 0H12l274 685h572V563H470l61-152h300V289H579zM350 523 248 259h204z"/><glyph glyph-name="OE" unicode="Œ" horiz-adv-x="967" d="M41 342q0 161 103.5 252T430 685h487V563H623V411h268V289H623V122h294V0H430Q248 0 144.5 91T41 342zm141 0q0-106 63.5-163.5T425 121h61v442h-61q-117 0-180-57.5T182 342z"/><glyph glyph-name="Lslash" unicode="Ł" horiz-adv-x="564" d="M253 122h287V0H116v265l-72-26L8 347l108 39v299h137V436l129 47 36-108-165-60V122z"/><glyph glyph-name="Oslash" unicode="Ø" horiz-adv-x="780" d="M739 342q0-151-100-251.5T390-10q-52 0-100.5 13.5T200 43l-69-76-89 79 70 78q-35 46-53 101.5T41 342q0 151 100 252t249 101q52 0 100.5-13.5T580 642l69 76 89-80-70-77q35-46 53-102t18-117zM390 569q-89 0-148.5-65T182 342q0-31 6.5-59.5T208 229l283 314q-23 13-48.5 19.5T390 569zm0-453q89 0 148.5 64.5T598 342q0 31-6.5 59.5T572 455L289 142q23-13 48.5-19.5T390 116z"/><glyph glyph-name="Eth" unicode="Ð" horiz-adv-x="737" d="M18 281v122h96v282h193q182 0 285.5-91T696 342q0-160-103.5-251T307 0H114v281H18zm380 122V281H251V124h61q116 0 179.5 57T555 342q0 105-63 161.5T312 560h-61V403h147z"/><glyph glyph-name="Thorn" unicode="Þ" horiz-adv-x="599" d="M561 341q0-102-71-162.5T299 118h-79V0H83v685h137V564h79q122 0 192-59.5T561 341zm-138 0q0 48-32.5 74.5T300 442h-80V240h80q59 0 91 26.5t32 74.5z"/><glyph glyph-name="uni0191" unicode="Ƒ" horiz-adv-x="535" d="M21-89q29 0 46 22.5T84-5v690h414V563H221V391h257V269H221V-16q0-91-49.5-142.5T34-210q-37 0-74.5 13.5T-106-159l67 94q17-12 31.5-18T21-89z"/><glyph glyph-name="uni1E9E" unicode="ẞ" horiz-adv-x="707" d="M673 212q0-98-64-160T444-10q-51 0-97.5 16.5T252 59l69 102q29-22 58.5-33.5T434 116q49 0 75.5 24.5T536 212q0 50-40.5 77T380 316l-45 92 122 141q-25 12-56 18.5t-63 6.5q-66 0-101-43.5T202 403V0H70v405q0 135 72.5 212.5T340 695q49 0 102.5-13.5T545 643l50-99-100-121q83-19 130.5-75T673 212z"/><glyph glyph-name="a" unicode="a" horiz-adv-x="585" d="M519 0H402l-15 62q-25-35-61-53.5T249-10q-92 0-153.5 68.5T34 229q0 103 61.5 171.5T249 469q42 0 77.5-18.5T387 397l15 62h117V0zM164 229q0-52 32.5-86.5T278 108t81.5 34.5T392 229q0 53-32.5 87.5T278 351t-81.5-34.5T164 229z"/><glyph glyph-name="b" unicode="b" horiz-adv-x="585" d="M336 469q92 0 153.5-68.5T551 229q0-102-61.5-170.5T336-10q-41 0-77 18.5T198 62L183 0H66v705h133V398q25 35 60 53t77 18zm-29-118q-49 0-81.5-34.5T193 229q0-52 32.5-86.5T307 108t81.5 34.5T421 229q0 53-32.5 87.5T307 351z"/><glyph glyph-name="c" unicode="c" horiz-adv-x="479" d="M278 351q-49 0-81.5-34.5T164 229q0-52 32.5-86.5T278 108q27 0 51.5 11.5T377 154l85-86q-38-40-83.5-59T278-10q-105 0-174.5 68T34 229q0 104 69 172t175 68q48 0 92.5-18.5T452 398l-85-86q-21 20-43 29.5t-46 9.5z"/><glyph glyph-name="d" unicode="d" horiz-adv-x="585" d="M519 0H402l-15 62q-25-35-61-53.5T249-10q-92 0-153.5 68.5T34 229q0 103 61.5 171.5T249 469q42 0 77-18t60-53v307h133V0zM164 229q0-52 32.5-86.5T278 108t81.5 34.5T392 229q0 53-32.5 87.5T278 351t-81.5-34.5T164 229z"/><glyph glyph-name="e" unicode="e" horiz-adv-x="532" d="m399 147 65-84q-36-36-83.5-54.5T278-10q-105 0-174.5 68T34 229q0 102 67 171t167 69 167-69 67-171q0-14-1-26t-2-18H158q12-41 44-65t76-24q35 0 63.5 12t57.5 39zM268 363q-38 0-67-22.5T160 279h216q-12 39-40.5 61.5T268 363z"/><glyph glyph-name="f" unicode="f" horiz-adv-x="387" d="M375 459V345H247V0H114v345H16v109l87 5-2 5q-10 27-15 50t-5 43q0 71 48.5 114.5T258 715q39 0 78.5-13.5T412 663l-57-95q-16 13-35.5 20.5T282 596q-30 0-49-19t-19-49q0-14 4-31t13-38h144z"/><glyph glyph-name="g" unicode="g" horiz-adv-x="585" d="M552 13q0-99-77-161t-200-62q-64 0-124.5 19.5T36-134l61 99q40-30 83.5-45T269-95q68 0 110.5 31.5T422 18q0 19-5 34t-16 33q-25-45-64.5-70T249-10q-92 0-153.5 68.5T34 229q0 103 61.5 171.5T249 469q41 0 76.5-18.5T387 397l15 62h117V131l7-13q12-23 19-50.5t7-54.5zM164 229q0-53 32.5-87t81.5-34 81.5 34 32.5 87-32.5 87.5T278 351t-81.5-34.5T164 229z"/><glyph glyph-name="h" unicode="h" horiz-adv-x="571" d="M299 348q-29 0-54.5-16.5T199 284V0H66v705h133V394q27 35 64 55t77 20q82 0 129-53.5T516 268V0H383v249q0 47-22 73t-62 26z"/><glyph glyph-name="i" unicode="i" horiz-adv-x="265" d="M132 684q33 0 56.5-23.5T212 604t-23.5-56.5T132 524q-32 0-55.5 24T53 604q0 33 23.5 56.5T132 684zM66 459h133V0H66v459z"/><glyph glyph-name="j" unicode="j" horiz-adv-x="272" d="M139 684q33 0 56.5-23.5T219 604t-23.5-56.5T139 524t-56.5 23.5T59 604t23.5 56.5T139 684zM11-89q29 0 45.5 22.5T73-5v464h133V-16q0-91-48-142.5T24-210q-38 0-75 13.5t-65 37.5l66 94q17-12 32-18t29-6z"/><glyph glyph-name="k" unicode="k" horiz-adv-x="551" d="M219 176h-20V0H66v705h133V297h20q46 0 71 15.5t44 54.5l43 92h138l-43-90q-24-49-43-79.5T391 239L542 0H390L281 181q-12-3-26.5-4t-35.5-1z"/><glyph glyph-name="l" unicode="l" horiz-adv-x="265" d="M66 705h133V0H66v705z"/><glyph glyph-name="m" unicode="m" horiz-adv-x="871" d="M294 349q-27 0-51.5-16.5T199 284V0H66v459h117l16-65q27 36 62.5 55.5T335 469q50 0 88-22t59-63q31 40 73 62.5t87 22.5q80 0 125.5-53.5T813 268V0H680v249q0 48-20.5 74T601 349q-29 0-52.5-17T506 280V0H373v249q0 48-20.5 74T294 349z"/><glyph glyph-name="n" unicode="n" horiz-adv-x="574" d="M299 348q-29 0-54.5-16.5T199 284V0H66v459h117l16-66q27 36 64 56t77 20q82 0 129-53.5T516 268V0H383v249q0 47-22 73t-62 26z"/><glyph glyph-name="o" unicode="o" horiz-adv-x="556" d="M278 469q106 0 175-68t69-172q0-103-69.5-171T278-10 103.5 58 34 229q0 104 69 172t175 68zm0-118q-49 0-81.5-34.5T164 229q0-52 32.5-86.5T278 108t81.5 34.5T392 229q0 53-32.5 87.5T278 351z"/><glyph glyph-name="p" unicode="p" horiz-adv-x="585" d="M551 229q0-102-61.5-170.5T336-10q-42 0-77 18t-60 53v-261H66v659h117l15-62q25 35 60.5 53.5T336 469q92 0 153.5-68.5T551 229zM307 351q-49 0-81.5-34.5T193 229q0-52 32.5-86.5T307 108t81.5 34.5T421 229q0 53-32.5 87.5T307 351z"/><glyph glyph-name="q" unicode="q" horiz-adv-x="585" d="M402 459h117v-659H386V61q-25-35-60-53t-77-18q-92 0-153.5 68.5T34 229q0 103 61.5 171.5T249 469q42 0 77.5-18.5T387 397zM164 229q0-52 32.5-86.5T278 108t81.5 34.5T392 229q0 53-32.5 87.5T278 351t-81.5-34.5T164 229z"/><glyph glyph-name="r" unicode="r" horiz-adv-x="381" d="M299 329q-31 0-56-12.5T199 280V0H66v459h117l16-65q25 35 59 55t70 20q13 0 24-1.5t21-5.5l-35-139q-11 3-21 4.5t-18 1.5z"/><glyph glyph-name="s" unicode="s" horiz-adv-x="439" d="M202 184q-87 24-120 58t-33 88q0 61 50 100t128 39q46 0 90.5-14t80.5-39l-60-90q-25 19-56 30.5T225 368q-24 0-36.5-9T176 333q0-16 17-28t68-26q77-20 112.5-55t35.5-88q0-67-49.5-106.5T224-10q-55 0-104 16.5T24 57l61 91q32-26 68.5-41T224 92q27 0 42.5 11t15.5 29q0 16-14 26.5T202 184z"/><glyph glyph-name="t" unicode="t" horiz-adv-x="445" d="M110 345H18v109l92 5h7l16 131h110V459h148V345H243V183q0-34 15.5-53.5T302 110q15 0 30.5 6.5T365 137l63-94q-29-25-66.5-39T285-10q-83 0-129 50t-46 140v165z"/><glyph glyph-name="u" unicode="u" horiz-adv-x="567" d="M501 0H385l-16 62q-27-34-63.5-53T230-10q-80 0-126 52T58 185v274h133V205q0-45 21-69.5t59-24.5q29 0 53.5 15.5T368 172v287h133V0z"/><glyph glyph-name="v" unicode="v" horiz-adv-x="513" d="M371 459h132L323 0H189L9 459h141l109-307z"/><glyph glyph-name="w" unicode="w" horiz-adv-x="786" d="M609 0H472l-79 198L314 0H177L-3 459h131l127-331 78 201-52 130h229l-52-129 78-199 126 328h128z"/><glyph glyph-name="x" unicode="x" horiz-adv-x="520" d="M509 0H355L253 141 153 0H11l172 239L24 459h154l88-122 87 122h142L337 239z"/><glyph glyph-name="y" unicode="y" horiz-adv-x="567" d="M534 13q0-99-77-161t-200-62q-64 0-124.5 19.5T18-134l61 99q40-30 83.5-45T251-95q68 0 110.5 31.5T404 18q0 21-4 38.5T388 91q-26-47-68-74t-90-27q-80 0-126 52T58 185v274h133V205q0-45 21-69.5t59-24.5q29 0 53.5 15.5T368 172v287h133V151l6-14q13-30 20-62t7-62z"/><glyph glyph-name="z" unicode="z" horiz-adv-x="467" d="M197 114h235V0H34v97l219 248H44v114h378v-91z"/><glyph glyph-name="ae" unicode="æ" horiz-adv-x="912" d="m779 147 65-84q-36-36-80.5-54.5T668-10q-49 0-91 19.5T505 66L491 0h-89l-14 65q-25-36-61-55.5T249-10q-92 0-153.5 68.5T34 229q0 103 61.5 171.5T249 469q42 0 78-19.5t61-55.5l14 65h89l14-63q29 36 68 54.5t85 18.5q95 0 159.5-69T882 229q0-15-1-27t-2-17H537q14-41 46-65t75-24q35 0 63.5 12t57.5 39zM648 363q-37 0-65.5-22.5T539 279h218q-15 39-43.5 61.5T648 363zM165 229q0-52 32-86.5t81-34.5 81.5 34 32.5 87-32.5 87.5T278 351t-81-34.5-32-87.5z"/><glyph glyph-name="oe" unicode="œ" horiz-adv-x="882" d="m749 147 65-84q-36-36-80.5-54.5T638-10q-56 0-103.5 22.5T454 77q-31-42-77-64.5T278-10q-105 0-174.5 68T34 229q0 104 69 172t175 68q53 0 98.5-22.5T454 383q31 41 76 63.5t98 22.5q96 0 160-69.5T852 229q0-13-1-25.5t-2-18.5H507q14-41 46-65t75-24q35 0 63.5 12t57.5 39zM618 363q-38 0-66-22.5T509 279h218q-15 39-43 61.5T618 363zm-340-12q-49 0-81.5-34.5T164 229q0-52 32.5-86.5T278 108t81.5 34.5T392 229q0 53-32.5 87.5T278 351z"/><glyph glyph-name="lslash" unicode="ł" horiz-adv-x="350" d="m302 481 48-103-110-52V0H107v264l-59-28L0 339l107 50v316h133V452z"/><glyph glyph-name="oslash" unicode="ø" horiz-adv-x="556" d="M522 229q0-103-69.5-171T278-10q-30 0-58.5 6.5T165 15l-57-65-90 75 58 65q-21 30-31.5 65T34 229q0 104 69 172t175 68q30 0 58.5-6.5T391 444l57 65 90-76-58-65q21-29 31.5-64.5T522 229zM278 361q-54 0-89-37.5T154 229q0-12 1.5-22.5T160 185l152 171q-8 2-17 3.5t-17 1.5zm0-263q54 0 89 37t35 94q0 12-1.5 22.5T396 273L244 103q9-3 17.5-4t16.5-1z"/><glyph glyph-name="eth" unicode="ð" horiz-adv-x="557" d="M523 283q0-136-66.5-214.5T275-10q-104 0-172.5 66T34 223q0 100 63 165t161 65q38 0 70-12t60-36q-11 40-30 72t-46 57l-54-61-78 63 46 53q-20 8-39 14.5T148 614l27 91q32-6 61.5-15.5T294 667l50 58 78-64-42-48q70-58 106.5-142T523 283zm-248 52q-47 0-77-31.5T168 223t30-80.5 77-31.5 77.5 32 30.5 81-30.5 80-77.5 31z"/><glyph glyph-name="thorn" unicode="þ" horiz-adv-x="587" d="M551 229q0-103-61-171T336-10q-41 0-76 16.5T199 54v-254H66v905h133V405q26 31 61 47.5t76 16.5q93 0 154-68.5T551 229zM306 351q-49 0-81-34.5T193 229q0-52 32-86.5t81-34.5 81.5 34.5T420 229q0 53-32.5 87.5T306 351z"/><glyph glyph-name="uni0192" unicode="ƒ" horiz-adv-x="387" d="M375 459V345H247V-10q0-94-51-147T54-210q-36 0-74 14.5T-89-155l66 92q19-14 37-21.5T48-92q31 0 48.5 24T114-1v346H16v109l87 5-2 5q-10 27-15 50t-5 43q0 71 48.5 114.5T258 715q39 0 78.5-13.5T412 663l-57-95q-16 13-35.5 20.5T282 596q-30 0-49-19t-19-49q0-14 4-31t13-38h144z"/><glyph glyph-name="germandbls" unicode="ß" horiz-adv-x="672" d="M470 412q83-19 126-71.5T639 206q0-93-59.5-154.5T430-10q-42 0-76 10.5T286 35l47 96q20-14 40-21t38-7q42 0 67.5 28.5T504 208q0 55-36.5 88T369 331l-29 86q26 20 38 43.5t12 54.5q0 36-24.5 58.5T302 596q-38 0-63-20.5T214 524q0-16 4.5-33t14.5-36l14-27V0H114v345H16v109l87 5-2 4q-9 20-14.5 43T81 547q0 75 61 121.5T302 715q96 0 155.5-49T517 538q0-38-11.5-69.5T470 412z"/><glyph glyph-name="dotlessi" unicode="ı" horiz-adv-x="265" d="M66 459h133V0H66v459z"/><glyph glyph-name="dotlessj" unicode="ȷ" horiz-adv-x="272" d="M11-89q29 0 45.5 22.5T73-5v464h133V-16q0-91-48-142.5T24-210q-38 0-75 13.5t-65 37.5l66 94q17-12 32-18t29-6z"/><glyph glyph-name="Aacute" unicode="Á" horiz-adv-x="707" d="M695 0H553l-55 141H202L147 0H12l274 685h135zM350 523 248 259h204zm-62 221-45 71 184 138 60-99z"/><glyph glyph-name="Acircumflex" unicode="Â" horiz-adv-x="707" d="M695 0H553l-55 141H202L147 0H12l274 685h135zM350 523 248 259h204zm7 426 169-144-53-64-118 86-115-86-53 64z"/><glyph glyph-name="Adieresis" unicode="Ä" horiz-adv-x="707" d="M695 0H553l-55 141H202L147 0H12l274 685h135zM350 523 248 259h204zm-91 380q28 0 48.5-20.5T328 834t-20.5-49-48.5-21-49.5 21-21.5 49 21 48.5 50 20.5zm195 0q29 0 50-20.5t21-48.5-21-49-50-21q-28 0-48.5 21T385 834t20.5 48.5T454 903z"/><glyph glyph-name="Agrave" unicode="À" horiz-adv-x="707" d="M695 0H553l-55 141H202L147 0H12l274 685h135zM350 523 248 259h204zm-60 430 184-138-45-71-199 110z"/><glyph glyph-name="Aring" unicode="Å" horiz-adv-x="707" d="M695 0H553l-55 141H202L147 0H12l274 685h135zM350 523 248 259h204zm7 210q-50 0-84.5 33.5T238 848t34.5 81.5T357 963q49 0 83.5-33.5T475 848t-34.5-81.5T357 733zm0 68q19 0 32 13.5t13 33.5-13 33.5-32 13.5q-20 0-33-13t-13-34 13-34 33-13z"/><glyph glyph-name="Atilde" unicode="Ã" horiz-adv-x="707" d="M695 0H553l-55 141H202L147 0H12l274 685h135zM350 523 248 259h204zm100 389 78-36q-23-57-48.5-82T418 769q-15 0-29.5 4.5T349 791q-18 9-26.5 12t-16.5 3q-15 0-24.5-9.5T262 764l-78 36q21 54 47.5 79t62.5 25q15 0 29.5-4t39.5-17q18-9 27-12t17-3q14 0 23.5 10t19.5 34z"/><glyph glyph-name="Abreve" unicode="Ă" horiz-adv-x="707" d="M695 0H553l-55 141H202L147 0H12l274 685h135zM350 523 248 259h204zm-44 386v-10q0-31 13.5-47.5T357 835t37 16.5 13 46.5v11h96v-21q0-62-41-101.5T357 747q-65 0-106 39.5T210 889v20h96z"/><glyph glyph-name="Amacron" unicode="Ā" horiz-adv-x="707" d="M695 0H553l-55 141H202L147 0H12l274 685h135zM350 523 248 259h204zM219 876h275v-95H219v95z"/><glyph glyph-name="Aogonek" unicode="Ą" horiz-adv-x="707" d="m679-118 29-74q-19-9-37.5-13.5T634-210q-51 0-84 27t-33 70q0 32 19.5 61T592 0h-39l-55 141H202L147 0H12l274 685h135L695 0q-36-20-56-45t-20-49q0-14 8.5-22t22.5-8q8 0 15 1.5t14 4.5zM350 523 248 259h204z"/><glyph glyph-name="Ccedilla" unicode="Ç" horiz-adv-x="668" d="M486-126q0-42-31-67t-83-25q-28 0-50.5 5T273-197l22 66q19-9 32.5-12.5T353-147q14 0 22.5 7t8.5 18q0 13-8 19t-24 6l-38 40 16 52Q202 16 121.5 112.5T41 342q0 151 100 252t249 101q70 0 133-27t114-79l-84-92q-36 36-76.5 54T390 569q-89 0-148.5-65T182 342t59.5-161.5T390 116q49 0 90 19.5t81 61.5l86-92q-53-55-113.5-83.5T404-10l-9-29q42-4 66.5-27t24.5-60z"/><glyph glyph-name="Cacute" unicode="Ć" horiz-adv-x="668" d="M390 569q-89 0-148.5-65T182 342t59.5-161.5T390 116q49 0 90 19.5t81 61.5l86-92q-56-58-120-86.5T390-10Q241-10 141 90.5T41 342t100 252 249 101q70 0 133-27t114-79l-84-92q-36 36-76.5 54T390 569zm-90 175-45 71 184 138 60-99z"/><glyph glyph-name="Ccaron" unicode="Č" horiz-adv-x="668" d="M390 569q-89 0-148.5-65T182 342t59.5-161.5T390 116q49 0 90 19.5t81 61.5l86-92q-56-58-120-86.5T390-10Q241-10 141 90.5T41 342t100 252 249 101q70 0 133-27t114-79l-84-92q-36 36-76.5 54T390 569zm100 380 53-64-169-144-170 144 53 64 118-86z"/><glyph glyph-name="Ccircumflex" unicode="Ĉ" horiz-adv-x="668" d="M390 569q-89 0-148.5-65T182 342t59.5-161.5T390 116q49 0 90 19.5t81 61.5l86-92q-56-58-120-86.5T390-10Q241-10 141 90.5T41 342t100 252 249 101q70 0 133-27t114-79l-84-92q-36 36-76.5 54T390 569zm-16 380 169-144-53-64-118 86-115-86-53 64z"/><glyph glyph-name="Cdotaccent" unicode="Ċ" horiz-adv-x="668" d="M390 569q-89 0-148.5-65T182 342t59.5-161.5T390 116q49 0 90 19.5t81 61.5l86-92q-56-58-120-86.5T390-10Q241-10 141 90.5T41 342t100 252 249 101q70 0 133-27t114-79l-84-92q-36 36-76.5 54T390 569zm-15 346q31 0 54-23.5t23-54.5-23-54.5-54-23.5-54.5 23.5T297 837t23.5 54.5T375 915z"/><glyph glyph-name="Dcaron" unicode="Ď" horiz-adv-x="706" d="M276 0H83v685h193q182 0 285.5-91T665 342q0-160-103.5-251T276 0zm248 342q0 105-63 161.5T281 560h-61V124h61q116 0 179.5 57T524 342zm-77 607 53-64-169-144-170 144 53 64 118-86z"/><glyph glyph-name="Dcroat" unicode="Đ" horiz-adv-x="737" d="M18 281v122h96v282h193q182 0 285.5-91T696 342q0-160-103.5-251T307 0H114v281H18zm380 122V281H251V124h61q116 0 179.5 57T555 342q0 105-63 161.5T312 560h-61V403h147z"/><glyph glyph-name="Eacute" unicode="É" horiz-adv-x="564" d="M514 0H83v685h431V563H220V411h268V289H220V122h294V0zM227 744l-45 71 184 138 60-99z"/><glyph glyph-name="Ecircumflex" unicode="Ê" horiz-adv-x="564" d="M514 0H83v685h431V563H220V411h268V289H220V122h294V0zM300 949l169-144-53-64-118 86-115-86-53 64z"/><glyph glyph-name="Edieresis" unicode="Ë" horiz-adv-x="564" d="M514 0H83v685h431V563H220V411h268V289H220V122h294V0zM201 903q28 0 48.5-20.5T270 834t-20.5-49-48.5-21-49.5 21-21.5 49 21 48.5 50 20.5zm195 0q29 0 50-20.5t21-48.5-21-49-50-21q-28 0-48.5 21T327 834t20.5 48.5T396 903z"/><glyph glyph-name="Egrave" unicode="È" horiz-adv-x="564" d="M514 0H83v685h431V563H220V411h268V289H220V122h294V0zM234 953l184-138-45-71-199 110z"/><glyph glyph-name="Ebreve" unicode="Ĕ" horiz-adv-x="564" d="M514 0H83v685h431V563H220V411h268V289H220V122h294V0zM248 909v-10q0-31 13.5-47.5T299 835t37 16.5 13 46.5v11h96v-21q0-62-41-101.5T299 747q-65 0-106 39.5T152 889v20h96z"/><glyph glyph-name="Ecaron" unicode="Ě" horiz-adv-x="564" d="M514 0H83v685h431V563H220V411h268V289H220V122h294V0zm-99 949 53-64-169-144-170 144 53 64 118-86z"/><glyph glyph-name="Edotaccent" unicode="Ė" horiz-adv-x="564" d="M514 0H83v685h431V563H220V411h268V289H220V122h294V0zM299 915q31 0 54-23.5t23-54.5-23-54.5-54-23.5-54.5 23.5T221 837t23.5 54.5T299 915z"/><glyph glyph-name="Emacron" unicode="Ē" horiz-adv-x="564" d="M514 0H83v685h431V563H220V411h268V289H220V122h294V0zM161 876h275v-95H161v95z"/><glyph glyph-name="Eogonek" unicode="Ę" horiz-adv-x="564" d="m465-118 29-74q-19-9-37.5-13.5T420-210q-51 0-84 27t-33 70q0 32 19.5 61T378 0H83v685h431V563H220V411h268V289H220V122h294V0h-33q-36-20-56-45t-20-49q0-14 8.5-22t22.5-8q8 0 15 1.5t14 4.5z"/><glyph glyph-name="Gbreve" unicode="Ğ" horiz-adv-x="750" d="M718 330q0-145-94-242.5T390-10Q241-10 141 90.5T41 342t100 252 249 101q70 0 133-27t114-79l-84-92q-36 36-76.5 54T390 569q-89 0-148.5-65T182 342t59.5-161.5T390 116q67 0 116 36.5t68 99.5H375v122h341q1-8 1.5-20t.5-24zM326 909v-10q0-31 13.5-47.5T377 835t37 16.5 13 46.5v11h96v-21q0-62-41-101.5T377 747q-65 0-106 39.5T230 889v20h96z"/><glyph glyph-name="Gcircumflex" unicode="Ĝ" horiz-adv-x="750" d="M718 330q0-145-94-242.5T390-10Q241-10 141 90.5T41 342t100 252 249 101q70 0 133-27t114-79l-84-92q-36 36-76.5 54T390 569q-89 0-148.5-65T182 342t59.5-161.5T390 116q67 0 116 36.5t68 99.5H375v122h341q1-8 1.5-20t.5-24zM377 949l169-144-53-64-118 86-115-86-53 64z"/><glyph glyph-name="Gcommaaccent" unicode="Ģ" horiz-adv-x="750" d="M718 330q0-145-94-242.5T390-10Q241-10 141 90.5T41 342t100 252 249 101q70 0 133-27t114-79l-84-92q-36 36-76.5 54T390 569q-89 0-148.5-65T182 342t59.5-161.5T390 116q67 0 116 36.5t68 99.5H375v122h341q1-8 1.5-20t.5-24zM309-118q0 28 21 48.5T380-49q30 0 51.5-22t21.5-53q0-19-6-36.5T427-197l-59-93-65 31 41 81q-17 10-26 25.5t-9 34.5z"/><glyph glyph-name="Gdotaccent" unicode="Ġ" horiz-adv-x="750" d="M718 330q0-145-94-242.5T390-10Q241-10 141 90.5T41 342t100 252 249 101q70 0 133-27t114-79l-84-92q-36 36-76.5 54T390 569q-89 0-148.5-65T182 342t59.5-161.5T390 116q67 0 116 36.5t68 99.5H375v122h341q1-8 1.5-20t.5-24zM377 915q31 0 54-23.5t23-54.5-23-54.5-54-23.5-54.5 23.5T299 837t23.5 54.5T377 915z"/><glyph glyph-name="Hbar" unicode="Ħ" horiz-adv-x="744" d="M523 291H219V0H82v492h-92v112h92v81h137v-81h304v81h137v-81h94V492h-94V0H523v291zM219 492v-79h304v79H219z"/><glyph glyph-name="Hcircumflex" unicode="Ĥ" horiz-adv-x="744" d="M661 0H524v291H220V0H83v685h137V413h304v272h137V0zM372 949l169-144-53-64-118 86-115-86-53 64z"/><glyph glyph-name="Iacute" unicode="Í" horiz-adv-x="303" d="M220 0H83v685h137V0zM78 744l-45 71 184 138 60-99z"/><glyph glyph-name="Icircumflex" unicode="Î" horiz-adv-x="303" d="M220 0H83v685h137V0zm-68 949 169-144-53-64-118 86-115-86-53 64z"/><glyph glyph-name="Idieresis" unicode="Ï" horiz-adv-x="303" d="M220 0H83v685h137V0zM54 903q28 0 48.5-20.5T123 834t-20.5-49T54 764 4.5 785-17 834t21 48.5T54 903zm195 0q29 0 50-20.5t21-48.5-21-49-50-21q-28 0-48.5 21T180 834t20.5 48.5T249 903z"/><glyph glyph-name="Igrave" unicode="Ì" horiz-adv-x="303" d="M220 0H83v685h137V0zM91 953l184-138-45-71L31 854z"/><glyph glyph-name="Ibreve" unicode="Ĭ" horiz-adv-x="303" d="M220 0H83v685h137V0zM101 909v-10q0-31 13.5-47.5T152 835t37 16.5 13 46.5v11h96v-21q0-62-41-101.5T152 747q-65 0-106 39.5T5 889v20h96z"/><glyph glyph-name="Idotaccent" unicode="İ" horiz-adv-x="303" d="M220 0H83v685h137V0zm-68 915q31 0 54-23.5t23-54.5-23-54.5-54-23.5-54.5 23.5T74 837t23.5 54.5T152 915z"/><glyph glyph-name="Imacron" unicode="Ī" horiz-adv-x="303" d="M220 0H83v685h137V0zM14 876h275v-95H14v95z"/><glyph glyph-name="Iogonek" unicode="Į" horiz-adv-x="303" d="m204-118 29-74q-19-9-37.5-13.5T159-210q-51 0-84 27t-33 70q0 32 19.5 61T117 0H83v685h137V0q-36-20-56-45t-20-49q0-14 8.5-22t22.5-8q8 0 15 1.5t14 4.5z"/><glyph glyph-name="Itilde" unicode="Ĩ" horiz-adv-x="303" d="M220 0H83v685h137V0zm25 912 78-36q-23-57-48.5-82T213 769q-15 0-29.5 4.5T144 791q-18 9-26.5 12t-16.5 3q-15 0-24.5-9.5T57 764l-78 36q21 54 47.5 79T89 904q15 0 29.5-4t39.5-17q18-9 27-12t17-3q14 0 23.5 10t19.5 34z"/><glyph glyph-name="Jcircumflex" unicode="Ĵ" horiz-adv-x="499" d="M430 685V220q0-113-58-171.5T203-10q-55 0-104 22T8 77l84 92q24-27 52-40.5t58-13.5q43 0 67 27.5t24 78.5v464h137zm-71 264 169-144-53-64-118 86-115-86-53 64z"/><glyph glyph-name="IJ" unicode="Ĳ" horiz-adv-x="628" d="M220 311H83v374h137V311zm338 374V220q0-113-58-171.5T331-10q-55 0-104 22t-91 65l84 92q24-27 52-40.5t58-13.5q43 0 67 27.5t24 78.5v464h137z"/><glyph glyph-name="Kcommaaccent" unicode="Ķ" horiz-adv-x="667" d="M233 289h-13V0H83v685h137V411h11q53 0 80 16.5t58 67.5l116 190h147L516 496q-25-41-46.5-71.5T428 371L655 0H498L316 298q-19-5-39.5-7t-43.5-2zm44-407q0 28 21 48.5T348-49q30 0 51.5-22t21.5-53q0-19-6-36.5T395-197l-59-93-65 31 41 81q-17 10-26 25.5t-9 34.5z"/><glyph glyph-name="kgreenlandic.case" horiz-adv-x="792" d="M233 289h-13V0H83v685h137V411h11q53 0 80 16.5t58 67.5l116 190h147L516 496q-25-41-46.5-71.5T428 371L655 0H498L316 298q-19-5-39.5-7t-43.5-2zm382 146 82 250h95l-38-250H615z"/><glyph glyph-name="Lacute" unicode="Ĺ" horiz-adv-x="531" d="M220 122h287V0H83v685h137V122zM103 744l-45 71 184 138 60-99z"/><glyph glyph-name="Lcaron" unicode="Ľ" horiz-adv-x="531" d="M220 122h287V0H83v685h137V122zm202 563-17-191h-94v191h111z"/><glyph glyph-name="Lcommaaccent" unicode="Ļ" horiz-adv-x="531" d="M220 122h287V0H83v685h137V122zm-6-240q0 28 21 48.5T285-49q30 0 51.5-22t21.5-53q0-19-6-36.5T332-197l-59-93-65 31 41 81q-17 10-26 25.5t-9 34.5z"/><glyph glyph-name="Ldot" unicode="Ŀ" horiz-adv-x="531" d="M220 122h287V0H83v685h137V122zm193 325q32 0 55-22.5t23-54.5-23-55-55-23-55 23-23 55q0 31 23 54t55 23z"/><glyph glyph-name="Ntilde" unicode="Ñ" horiz-adv-x="732" d="M649 0H517L213 460V0H83v685h132l304-462v462h130V0zM459 912l78-36q-23-57-48.5-82T427 769q-15 0-29.5 4.5T358 791q-18 9-26.5 12t-16.5 3q-15 0-24.5-9.5T271 764l-78 36q21 54 47.5 79t62.5 25q15 0 29.5-4t39.5-17q18-9 27-12t17-3q14 0 23.5 10t19.5 34z"/><glyph glyph-name="Nacute" unicode="Ń" horiz-adv-x="732" d="M649 0H517L213 460V0H83v685h132l304-462v462h130V0zM303 744l-45 71 184 138 60-99z"/><glyph glyph-name="Ncaron" unicode="Ň" horiz-adv-x="732" d="M649 0H517L213 460V0H83v685h132l304-462v462h130V0zM482 949l53-64-169-144-170 144 53 64 118-86z"/><glyph glyph-name="Ncommaaccent" unicode="Ņ" horiz-adv-x="732" d="M649 0H517L213 460V0H83v685h132l304-462v462h130V0zM294-118q0 28 21 48.5T365-49q30 0 51.5-22t21.5-53q0-19-6-36.5T412-197l-59-93-65 31 41 81q-17 10-26 25.5t-9 34.5z"/><glyph glyph-name="Eng" unicode="Ŋ" horiz-adv-x="732" d="M519 223v462h130V-16q0-91-48-142.5T467-210q-38 0-76 13.5T325-159l67 95q17-12 32-18t29-6q30 0 47.5 22.5T518-5v5h-1L213 460V0H83v685h132z"/><glyph glyph-name="napostrophe.case" horiz-adv-x="835" d="M752 0H620L316 460V0H186v685h132l304-462v462h130V0zM146 685 63 435h-95L6 685h140z"/><glyph glyph-name="Oacute" unicode="Ó" horiz-adv-x="780" d="M390-10Q241-10 141 90.5T41 342t100 252 249 101 249-101 100-252T639 90.5 390-10zm0 126q89 0 148.5 64.5T598 342t-59.5 162T390 569t-148.5-65T182 342t59.5-161.5T390 116zm-76 628-45 71 184 138 60-99z"/><glyph glyph-name="Ocircumflex" unicode="Ô" horiz-adv-x="780" d="M390-10Q241-10 141 90.5T41 342t100 252 249 101 249-101 100-252T639 90.5 390-10zm0 126q89 0 148.5 64.5T598 342t-59.5 162T390 569t-148.5-65T182 342t59.5-161.5T390 116zm0 833 169-144-53-64-118 86-115-86-53 64z"/><glyph glyph-name="Odieresis" unicode="Ö" horiz-adv-x="780" d="M390-10Q241-10 141 90.5T41 342t100 252 249 101 249-101 100-252T639 90.5 390-10zm0 126q89 0 148.5 64.5T598 342t-59.5 162T390 569t-148.5-65T182 342t59.5-161.5T390 116zm-98 787q28 0 48.5-20.5T361 834t-20.5-49-48.5-21-49.5 21-21.5 49 21 48.5 50 20.5zm195 0q29 0 50-20.5t21-48.5-21-49-50-21q-28 0-48.5 21T418 834t20.5 48.5T487 903z"/><glyph glyph-name="Ograve" unicode="Ò" horiz-adv-x="780" d="M390-10Q241-10 141 90.5T41 342t100 252 249 101 249-101 100-252T639 90.5 390-10zm0 126q89 0 148.5 64.5T598 342t-59.5 162T390 569t-148.5-65T182 342t59.5-161.5T390 116zm-65 837 184-138-45-71-199 110z"/><glyph glyph-name="Otilde" unicode="Õ" horiz-adv-x="780" d="M390-10Q241-10 141 90.5T41 342t100 252 249 101 249-101 100-252T639 90.5 390-10zm0 126q89 0 148.5 64.5T598 342t-59.5 162T390 569t-148.5-65T182 342t59.5-161.5T390 116zm93 796 78-36q-23-57-48.5-82T451 769q-15 0-29.5 4.5T382 791q-18 9-26.5 12t-16.5 3q-15 0-24.5-9.5T295 764l-78 36q21 54 47.5 79t62.5 25q15 0 29.5-4t39.5-17q18-9 27-12t17-3q14 0 23.5 10t19.5 34z"/><glyph glyph-name="Obreve" unicode="Ŏ" horiz-adv-x="780" d="M390-10Q241-10 141 90.5T41 342t100 252 249 101 249-101 100-252T639 90.5 390-10zm0 126q89 0 148.5 64.5T598 342t-59.5 162T390 569t-148.5-65T182 342t59.5-161.5T390 116zm-51 793v-10q0-31 13.5-47.5T390 835t37 16.5 13 46.5v11h96v-21q0-62-41-101.5T390 747q-65 0-106 39.5T243 889v20h96z"/><glyph glyph-name="Ohungarumlaut" unicode="Ő" horiz-adv-x="780" d="M390-10Q241-10 141 90.5T41 342t100 252 249 101 249-101 100-252T639 90.5 390-10zm0 126q89 0 148.5 64.5T598 342t-59.5 162T390 569t-148.5-65T182 342t59.5-161.5T390 116zm-82 627-69 44 104 180 92-60zm187 0-69 44 104 180 93-60z"/><glyph glyph-name="Omacron" unicode="Ō" horiz-adv-x="780" d="M390-10Q241-10 141 90.5T41 342t100 252 249 101 249-101 100-252T639 90.5 390-10zm0 126q89 0 148.5 64.5T598 342t-59.5 162T390 569t-148.5-65T182 342t59.5-161.5T390 116zM252 876h275v-95H252v95z"/><glyph glyph-name="Racute" unicode="Ŕ" horiz-adv-x="621" d="M217 0H83v685h226q112 0 180.5-56.5T558 479q0-64-31-111t-89-72L598 0H453L314 262h-97V0zm203 473q0 41-28.5 65.5T314 563h-97V383h97q49 0 77.5 24.5T420 473zM245 744l-45 71 184 138 60-99z"/><glyph glyph-name="Rcaron" unicode="Ř" horiz-adv-x="621" d="M217 0H83v685h226q112 0 180.5-56.5T558 479q0-64-31-111t-89-72L598 0H453L314 262h-97V0zm203 473q0 41-28.5 65.5T314 563h-97V383h97q49 0 77.5 24.5T420 473zm-2 476 53-64-169-144-170 144 53 64 118-86z"/><glyph glyph-name="Rcommaaccent" unicode="Ŗ" horiz-adv-x="621" d="M217 0H83v685h226q112 0 180.5-56.5T558 479q0-64-31-111t-89-72L598 0H453L314 262h-97V0zm203 473q0 41-28.5 65.5T314 563h-97V383h97q49 0 77.5 24.5T420 473zM243-118q0 28 21 48.5T314-49q30 0 51.5-22t21.5-53q0-19-6-36.5T361-197l-59-93-65 31 41 81q-17 10-26 25.5t-9 34.5z"/><glyph glyph-name="Scaron" unicode="Š" horiz-adv-x="567" d="M285 576q-43 0-69-19.5T190 503q0-33 28-54.5T339 396q105-35 149-81.5T532 196q0-88-68.5-147T293-10q-76 0-143.5 27.5T30 98l74 92q41-41 88-61.5T293 108q47 0 75.5 22.5T397 190q0 30-26 50t-110 49q-116 39-161 86T55 498q0 85 65 141t164 56q63 0 121-24t105-70l-78-92q-38 35-73.5 51T285 576zm113 373 53-64-169-144-170 144 53 64 118-86z"/><glyph glyph-name="Sacute" unicode="Ś" horiz-adv-x="567" d="M285 576q-43 0-69-19.5T190 503q0-33 28-54.5T339 396q105-35 149-81.5T532 196q0-88-68.5-147T293-10q-76 0-143.5 27.5T30 98l74 92q41-41 88-61.5T293 108q47 0 75.5 22.5T397 190q0 30-26 50t-110 49q-116 39-161 86T55 498q0 85 65 141t164 56q63 0 121-24t105-70l-78-92q-38 35-73.5 51T285 576zm-71 168-45 71 184 138 60-99z"/><glyph glyph-name="Scedilla" unicode="Ş" horiz-adv-x="567" d="M400-126q0-42-31-67t-83-25q-28 0-50.5 5T187-197l22 66q19-9 32.5-12.5T267-147q14 0 22.5 7t8.5 18q0 13-8 19t-24 6l-38 40 15 50q-61 8-115.5 34.5T30 98l74 92q41-41 88-61.5T293 108q47 0 75.5 22.5T397 190q0 30-26 50t-110 49q-116 39-161 86T55 498q0 85 65 141t164 56q63 0 121-24t105-70l-78-92q-38 35-73.5 51T285 576q-43 0-69-19.5T190 503q0-33 28-54.5T339 396q105-35 149-81.5T532 196q0-82-60.5-139.5T318-9l-9-30q42-4 66.5-27t24.5-60z"/><glyph glyph-name="Scircumflex" unicode="Ŝ" horiz-adv-x="567" d="M285 576q-43 0-69-19.5T190 503q0-33 28-54.5T339 396q105-35 149-81.5T532 196q0-88-68.5-147T293-10q-76 0-143.5 27.5T30 98l74 92q41-41 88-61.5T293 108q47 0 75.5 22.5T397 190q0 30-26 50t-110 49q-116 39-161 86T55 498q0 85 65 141t164 56q63 0 121-24t105-70l-78-92q-38 35-73.5 51T285 576zm-4 373 169-144-53-64-118 86-115-86-53 64z"/><glyph glyph-name="uni0218" unicode="Ș" horiz-adv-x="567" d="M285 576q-43 0-69-19.5T190 503q0-33 28-54.5T339 396q105-35 149-81.5T532 196q0-88-68.5-147T293-10q-76 0-143.5 27.5T30 98l74 92q41-41 88-61.5T293 108q47 0 75.5 22.5T397 190q0 30-26 50t-110 49q-116 39-161 86T55 498q0 85 65 141t164 56q63 0 121-24t105-70l-78-92q-38 35-73.5 51T285 576zm-72-694q0 28 21 48.5T284-49q30 0 51.5-22t21.5-53q0-19-6-36.5T331-197l-59-93-65 31 41 81q-17 10-26 25.5t-9 34.5z"/><glyph glyph-name="Tbar" unicode="Ŧ" horiz-adv-x="579" d="M221 563H20v122h539V563H358V399h110V287H358V0H221v287H111v112h110v164z"/><glyph glyph-name="Tcaron" unicode="Ť" horiz-adv-x="579" d="M221 563H20v122h539V563H358V0H221v563zm183 386 53-64-169-144-170 144 53 64 118-86z"/><glyph glyph-name="uni0162" unicode="Ţ" horiz-adv-x="579" d="M221 563H20v122h539V563H358V0H221v563zm-3-681q0 28 21 48.5T289-49q30 0 51.5-22t21.5-53q0-19-6-36.5T336-197l-59-93-65 31 41 81q-17 10-26 25.5t-9 34.5z"/><glyph glyph-name="uni021A" unicode="Ț" horiz-adv-x="579" d="M221 563H20v122h539V563H358V0H221v563zm-3-681q0 28 21 48.5T289-49q30 0 51.5-22t21.5-53q0-19-6-36.5T336-197l-59-93-65 31 41 81q-17 10-26 25.5t-9 34.5z"/><glyph glyph-name="Uacute" unicode="Ú" horiz-adv-x="680" d="M611 685V273q0-130-73-206.5T340-10 142 66 69 273v412h137V275q0-76 35-118t99-42q63 0 98.5 42.5T474 275v410h137zm-327 59-45 71 184 138 60-99z"/><glyph glyph-name="Ucircumflex" unicode="Û" horiz-adv-x="680" d="M611 685V273q0-130-73-206.5T340-10 142 66 69 273v412h137V275q0-76 35-118t99-42q63 0 98.5 42.5T474 275v410h137zM340 949l169-144-53-64-118 86-115-86-53 64z"/><glyph glyph-name="Udieresis" unicode="Ü" horiz-adv-x="680" d="M611 685V273q0-130-73-206.5T340-10 142 66 69 273v412h137V275q0-76 35-118t99-42q63 0 98.5 42.5T474 275v410h137zM242 903q28 0 48.5-20.5T311 834t-20.5-49-48.5-21-49.5 21-21.5 49 21 48.5 50 20.5zm195 0q29 0 50-20.5t21-48.5-21-49-50-21q-28 0-48.5 21T368 834t20.5 48.5T437 903z"/><glyph glyph-name="Ugrave" unicode="Ù" horiz-adv-x="680" d="M611 685V273q0-130-73-206.5T340-10 142 66 69 273v412h137V275q0-76 35-118t99-42q63 0 98.5 42.5T474 275v410h137zM263 953l184-138-45-71-199 110z"/><glyph glyph-name="Ubreve" unicode="Ŭ" horiz-adv-x="680" d="M611 685V273q0-130-73-206.5T340-10 142 66 69 273v412h137V275q0-76 35-118t99-42q63 0 98.5 42.5T474 275v410h137zM289 909v-10q0-31 13.5-47.5T340 835t37 16.5 13 46.5v11h96v-21q0-62-41-101.5T340 747q-65 0-106 39.5T193 889v20h96z"/><glyph glyph-name="Uhungarumlaut" unicode="Ű" horiz-adv-x="680" d="M611 685V273q0-130-73-206.5T340-10 142 66 69 273v412h137V275q0-76 35-118t99-42q63 0 98.5 42.5T474 275v410h137zm-353 58-69 44 104 180 92-60zm187 0-69 44 104 180 93-60z"/><glyph glyph-name="Umacron" unicode="Ū" horiz-adv-x="680" d="M611 685V273q0-130-73-206.5T340-10 142 66 69 273v412h137V275q0-76 35-118t99-42q63 0 98.5 42.5T474 275v410h137zM202 876h275v-95H202v95z"/><glyph glyph-name="Uogonek" unicode="Ų" horiz-adv-x="680" d="M520 50q-53-46-78.5-81T416-94q0-14 8.5-22t22.5-8q8 0 15 1.5t14 4.5l29-74q-19-9-37.5-13.5T431-210q-51 0-84 27t-33 70q0 28 16.5 55.5T377-8q-8-1-19-1.5t-18-.5q-125 0-198 76T69 273v412h137V275q0-76 35-118t99-42q63 0 98.5 42.5T474 275v410h137V273q0-71-23-127.5T520 50z"/><glyph glyph-name="Uring" unicode="Ů" horiz-adv-x="680" d="M611 685V273q0-130-73-206.5T340-10 142 66 69 273v412h137V275q0-76 35-118t99-42q63 0 98.5 42.5T474 275v410h137zm-271 48q-50 0-84.5 33.5T221 848t34.5 81.5T340 963q49 0 83.5-33.5T458 848t-34.5-81.5T340 733zm0 68q19 0 32 13.5t13 33.5-13 33.5-32 13.5q-20 0-33-13t-13-34 13-34 33-13z"/><glyph glyph-name="Utilde" unicode="Ũ" horiz-adv-x="680" d="M611 685V273q0-130-73-206.5T340-10 142 66 69 273v412h137V275q0-76 35-118t99-42q63 0 98.5 42.5T474 275v410h137zM433 912l78-36q-23-57-48.5-82T401 769q-15 0-29.5 4.5T332 791q-18 9-26.5 12t-16.5 3q-15 0-24.5-9.5T245 764l-78 36q21 54 47.5 79t62.5 25q15 0 29.5-4t39.5-17q18-9 27-12t17-3q14 0 23.5 10t19.5 34z"/><glyph glyph-name="Wacute" unicode="Ẃ" horiz-adv-x="1002" d="M752 0H619L501 323 383 0H250L13 685h147l166-502 111 301-74 201h286l-73-198 109-311 167 509h137zM444 744l-45 71 184 138 60-99z"/><glyph glyph-name="Wcircumflex" unicode="Ŵ" horiz-adv-x="1002" d="M752 0H619L501 323 383 0H250L13 685h147l166-502 111 301-74 201h286l-73-198 109-311 167 509h137zM503 949l169-144-53-64-118 86-115-86-53 64z"/><glyph glyph-name="Wdieresis" unicode="Ẅ" horiz-adv-x="1002" d="M752 0H619L501 323 383 0H250L13 685h147l166-502 111 301-74 201h286l-73-198 109-311 167 509h137zM405 903q28 0 48.5-20.5T474 834t-20.5-49-48.5-21-49.5 21-21.5 49 21 48.5 50 20.5zm195 0q29 0 50-20.5t21-48.5-21-49-50-21q-28 0-48.5 21T531 834t20.5 48.5T600 903z"/><glyph glyph-name="Wgrave" unicode="Ẁ" horiz-adv-x="1002" d="M752 0H619L501 323 383 0H250L13 685h147l166-502 111 301-74 201h286l-73-198 109-311 167 509h137zM426 953l184-138-45-71-199 110z"/><glyph glyph-name="Yacute" unicode="Ý" horiz-adv-x="634" d="M480 685h144L386 283V0H249v283L10 685h153l159-270zm-210 59-45 71 184 138 60-99z"/><glyph glyph-name="Ydieresis" unicode="Ÿ" horiz-adv-x="634" d="M480 685h144L386 283V0H249v283L10 685h153l159-270zM220 903q28 0 48.5-20.5T289 834t-20.5-49-48.5-21-49.5 21-21.5 49 21 48.5 50 20.5zm195 0q29 0 50-20.5t21-48.5-21-49-50-21q-28 0-48.5 21T346 834t20.5 48.5T415 903z"/><glyph glyph-name="Ycircumflex" unicode="Ŷ" horiz-adv-x="634" d="M480 685h144L386 283V0H249v283L10 685h153l159-270zM317 949l169-144-53-64-118 86-115-86-53 64z"/><glyph glyph-name="Ygrave" unicode="Ỳ" horiz-adv-x="634" d="M480 685h144L386 283V0H249v283L10 685h153l159-270zM235 953l184-138-45-71-199 110z"/><glyph glyph-name="Zcaron" unicode="Ž" horiz-adv-x="587" d="M204 121h344V0H38v104l334 459H51v122h487V580zm205 828 53-64-169-144-170 144 53 64 118-86z"/><glyph glyph-name="Zacute" unicode="Ź" horiz-adv-x="587" d="M204 121h344V0H38v104l334 459H51v122h487V580zm34 623-45 71 184 138 60-99z"/><glyph glyph-name="Zdotaccent" unicode="Ż" horiz-adv-x="587" d="M204 121h344V0H38v104l334 459H51v122h487V580zm89 794q31 0 54-23.5t23-54.5-23-54.5-54-23.5-54.5 23.5T215 837t23.5 54.5T293 915z"/><glyph glyph-name="aacute" unicode="á" horiz-adv-x="585" d="M519 0H402l-15 62q-25-35-61-53.5T249-10q-92 0-153.5 68.5T34 229q0 103 61.5 171.5T249 469q42 0 77.5-18.5T387 397l15 62h117V0zM164 229q0-52 32.5-86.5T278 108t81.5 34.5T392 229q0 53-32.5 87.5T278 351t-81.5-34.5T164 229zm60 290-45 71 184 138 60-99z"/><glyph glyph-name="acircumflex" unicode="â" horiz-adv-x="585" d="M519 0H402l-15 62q-25-35-61-53.5T249-10q-92 0-153.5 68.5T34 229q0 103 61.5 171.5T249 469q42 0 77.5-18.5T387 397l15 62h117V0zM164 229q0-52 32.5-86.5T278 108t81.5 34.5T392 229q0 53-32.5 87.5T278 351t-81.5-34.5T164 229zm126 495 169-144-53-64-118 86-115-86-53 64z"/><glyph glyph-name="adieresis" unicode="ä" horiz-adv-x="585" d="M519 0H402l-15 62q-25-35-61-53.5T249-10q-92 0-153.5 68.5T34 229q0 103 61.5 171.5T249 469q42 0 77.5-18.5T387 397l15 62h117V0zM164 229q0-52 32.5-86.5T278 108t81.5 34.5T392 229q0 53-32.5 87.5T278 351t-81.5-34.5T164 229zm28 449q28 0 48.5-20.5T261 609t-20.5-49-48.5-21-49.5 21-21.5 49 21 48.5 50 20.5zm195 0q29 0 50-20.5t21-48.5-21-49-50-21q-28 0-48.5 21T318 609t20.5 48.5T387 678z"/><glyph glyph-name="agrave" unicode="à" horiz-adv-x="585" d="M519 0H402l-15 62q-25-35-61-53.5T249-10q-92 0-153.5 68.5T34 229q0 103 61.5 171.5T249 469q42 0 77.5-18.5T387 397l15 62h117V0zM164 229q0-52 32.5-86.5T278 108t81.5 34.5T392 229q0 53-32.5 87.5T278 351t-81.5-34.5T164 229zm58 499 184-138-45-71-199 110z"/><glyph glyph-name="aring" unicode="å" horiz-adv-x="585" d="M519 0H402l-15 62q-25-35-61-53.5T249-10q-92 0-153.5 68.5T34 229q0 103 61.5 171.5T249 469q42 0 77.5-18.5T387 397l15 62h117V0zM164 229q0-52 32.5-86.5T278 108t81.5 34.5T392 229q0 53-32.5 87.5T278 351t-81.5-34.5T164 229zm117 279q-50 0-84.5 33.5T162 623t34.5 81.5T281 738q49 0 83.5-33.5T399 623t-34.5-81.5T281 508zm0 68q19 0 32 13.5t13 33.5-13 33.5-32 13.5q-20 0-33-13t-13-34 13-34 33-13z"/><glyph glyph-name="atilde" unicode="ã" horiz-adv-x="585" d="M519 0H402l-15 62q-25-35-61-53.5T249-10q-92 0-153.5 68.5T34 229q0 103 61.5 171.5T249 469q42 0 77.5-18.5T387 397l15 62h117V0zM164 229q0-52 32.5-86.5T278 108t81.5 34.5T392 229q0 53-32.5 87.5T278 351t-81.5-34.5T164 229zm220 458 78-36q-23-57-48.5-82T352 544q-15 0-29.5 4.5T283 566q-18 9-26.5 12t-16.5 3q-15 0-24.5-9.5T196 539l-78 36q21 54 47.5 79t62.5 25q15 0 29.5-4t39.5-17q18-9 27-12t17-3q14 0 23.5 10t19.5 34z"/><glyph glyph-name="abreve" unicode="ă" horiz-adv-x="585" d="M519 0H402l-15 62q-25-35-61-53.5T249-10q-92 0-153.5 68.5T34 229q0 103 61.5 171.5T249 469q42 0 77.5-18.5T387 397l15 62h117V0zM164 229q0-52 32.5-86.5T278 108t81.5 34.5T392 229q0 53-32.5 87.5T278 351t-81.5-34.5T164 229zm76 455v-10q0-31 13.5-47.5T291 610t37 16.5 13 46.5v11h96v-21q0-62-41-101.5T291 522q-65 0-106 39.5T144 664v20h96z"/><glyph glyph-name="amacron" unicode="ā" horiz-adv-x="585" d="M519 0H402l-15 62q-25-35-61-53.5T249-10q-92 0-153.5 68.5T34 229q0 103 61.5 171.5T249 469q42 0 77.5-18.5T387 397l15 62h117V0zM164 229q0-52 32.5-86.5T278 108t81.5 34.5T392 229q0 53-32.5 87.5T278 351t-81.5-34.5T164 229zm-11 422h275v-95H153v95z"/><glyph glyph-name="aogonek" unicode="ą" horiz-adv-x="585" d="m503-118 29-74q-19-9-37.5-13.5T458-210q-51 0-84 27t-33 70q0 30 14.5 56.5T402 0l-15 62q-25-35-61-53.5T249-10q-92 0-153.5 68.5T34 229q0 103 61.5 171.5T249 469q42 0 77.5-18.5T387 397l15 62h117V0q-36-20-56-45t-20-49q0-14 8.5-22t22.5-8q8 0 15 1.5t14 4.5zM164 229q0-52 32.5-86.5T278 108t81.5 34.5T392 229q0 53-32.5 87.5T278 351t-81.5-34.5T164 229z"/><glyph glyph-name="ccedilla" unicode="ç" horiz-adv-x="479" d="M373-126q0-42-31-67t-83-25q-28 0-50.5 5T160-197l22 66q19-9 32.5-12.5T240-147q14 0 22.5 7t8.5 18q0 13-8 19t-24 6l-38 40 16 54Q135 15 84.5 79T34 229q0 104 69 172t175 68q48 0 92.5-18.5T452 398l-85-86q-21 20-43 29.5t-46 9.5q-49 0-81.5-34.5T164 229q0-52 32.5-86.5T278 108q27 0 51.5 11.5T377 154l85-86q-36-37-78-56.5T291-10l-9-29q42-4 66.5-27t24.5-60z"/><glyph glyph-name="cacute" unicode="ć" horiz-adv-x="479" d="M278 351q-49 0-81.5-34.5T164 229q0-52 32.5-86.5T278 108q27 0 51.5 11.5T377 154l85-86q-38-40-83.5-59T278-10q-105 0-174.5 68T34 229q0 104 69 172t175 68q48 0 92.5-18.5T452 398l-85-86q-21 20-43 29.5t-46 9.5zm-91 168-45 71 184 138 60-99z"/><glyph glyph-name="ccaron" unicode="č" horiz-adv-x="479" d="M278 351q-49 0-81.5-34.5T164 229q0-52 32.5-86.5T278 108q27 0 51.5 11.5T377 154l85-86q-38-40-83.5-59T278-10q-105 0-174.5 68T34 229q0 104 69 172t175 68q48 0 92.5-18.5T452 398l-85-86q-21 20-43 29.5t-46 9.5zm106 373 53-64-169-144L98 660l53 64 118-86z"/><glyph glyph-name="ccircumflex" unicode="ĉ" horiz-adv-x="479" d="M278 351q-49 0-81.5-34.5T164 229q0-52 32.5-86.5T278 108q27 0 51.5 11.5T377 154l85-86q-38-40-83.5-59T278-10q-105 0-174.5 68T34 229q0 104 69 172t175 68q48 0 92.5-18.5T452 398l-85-86q-21 20-43 29.5t-46 9.5zm-12 373 169-144-53-64-118 86-115-86-53 64z"/><glyph glyph-name="cdotaccent" unicode="ċ" horiz-adv-x="479" d="M278 351q-49 0-81.5-34.5T164 229q0-52 32.5-86.5T278 108q27 0 51.5 11.5T377 154l85-86q-38-40-83.5-59T278-10q-105 0-174.5 68T34 229q0 104 69 172t175 68q48 0 92.5-18.5T452 398l-85-86q-21 20-43 29.5t-46 9.5zm-11 339q31 0 54-23.5t23-54.5-23-54.5-54-23.5-54.5 23.5T189 612t23.5 54.5T267 690z"/><glyph glyph-name="dcaron" unicode="ď" horiz-adv-x="680" d="M519 0H402l-15 62q-25-35-61-53.5T249-10q-92 0-153.5 68.5T34 229q0 103 61.5 171.5T249 469q42 0 77-18t60-53v307h133V0zM164 229q0-52 32.5-86.5T278 108t81.5 34.5T392 229q0 53-32.5 87.5T278 351t-81.5-34.5T164 229zm527 476-17-191h-94v191h111z"/><glyph glyph-name="dcroat" unicode="đ" horiz-adv-x="600" d="M519 0H402l-15 62q-25-35-61-53.5T249-10q-92 0-153.5 68.5T34 229q0 103 61.5 171.5T249 469q42 0 77-18t60-53v132H239v102h147v73h133v-73h76V530h-76V0zM164 229q0-52 32.5-86.5T278 108t81.5 34.5T392 229q0 53-32.5 87.5T278 351t-81.5-34.5T164 229z"/><glyph glyph-name="eacute" unicode="é" horiz-adv-x="532" d="m399 147 65-84q-36-36-83.5-54.5T278-10q-105 0-174.5 68T34 229q0 102 67 171t167 69 167-69 67-171q0-14-1-26t-2-18H158q12-41 44-65t76-24q35 0 63.5 12t57.5 39zM268 363q-38 0-67-22.5T160 279h216q-12 39-40.5 61.5T268 363zm-75 156-45 71 184 138 60-99z"/><glyph glyph-name="ecircumflex" unicode="ê" horiz-adv-x="532" d="m399 147 65-84q-36-36-83.5-54.5T278-10q-105 0-174.5 68T34 229q0 102 67 171t167 69 167-69 67-171q0-14-1-26t-2-18H158q12-41 44-65t76-24q35 0 63.5 12t57.5 39zM268 363q-38 0-67-22.5T160 279h216q-12 39-40.5 61.5T268 363zm-2 361 169-144-53-64-118 86-115-86-53 64z"/><glyph glyph-name="edieresis" unicode="ë" horiz-adv-x="532" d="m399 147 65-84q-36-36-83.5-54.5T278-10q-105 0-174.5 68T34 229q0 102 67 171t167 69 167-69 67-171q0-14-1-26t-2-18H158q12-41 44-65t76-24q35 0 63.5 12t57.5 39zM268 363q-38 0-67-22.5T160 279h216q-12 39-40.5 61.5T268 363zM168 678q28 0 48.5-20.5T237 609t-20.5-49-48.5-21-49.5 21T97 609t21 48.5 50 20.5zm195 0q29 0 50-20.5t21-48.5-21-49-50-21q-28 0-48.5 21T294 609t20.5 48.5T363 678z"/><glyph glyph-name="egrave" unicode="è" horiz-adv-x="532" d="m399 147 65-84q-36-36-83.5-54.5T278-10q-105 0-174.5 68T34 229q0 102 67 171t167 69 167-69 67-171q0-14-1-26t-2-18H158q12-41 44-65t76-24q35 0 63.5 12t57.5 39zM268 363q-38 0-67-22.5T160 279h216q-12 39-40.5 61.5T268 363zm-76 365 184-138-45-71-199 110z"/><glyph glyph-name="ebreve" unicode="ĕ" horiz-adv-x="532" d="m399 147 65-84q-36-36-83.5-54.5T278-10q-105 0-174.5 68T34 229q0 102 67 171t167 69 167-69 67-171q0-14-1-26t-2-18H158q12-41 44-65t76-24q35 0 63.5 12t57.5 39zM268 363q-38 0-67-22.5T160 279h216q-12 39-40.5 61.5T268 363zm-53 321v-10q0-31 13.5-47.5T266 610t37 16.5 13 46.5v11h96v-21q0-62-41-101.5T266 522q-65 0-106 39.5T119 664v20h96z"/><glyph glyph-name="ecaron" unicode="ě" horiz-adv-x="532" d="m399 147 65-84q-36-36-83.5-54.5T278-10q-105 0-174.5 68T34 229q0 102 67 171t167 69 167-69 67-171q0-14-1-26t-2-18H158q12-41 44-65t76-24q35 0 63.5 12t57.5 39zM268 363q-38 0-67-22.5T160 279h216q-12 39-40.5 61.5T268 363zm114 361 53-64-169-144L96 660l53 64 118-86z"/><glyph glyph-name="edotaccent" unicode="ė" horiz-adv-x="532" d="m399 147 65-84q-36-36-83.5-54.5T278-10q-105 0-174.5 68T34 229q0 102 67 171t167 69 167-69 67-171q0-14-1-26t-2-18H158q12-41 44-65t76-24q35 0 63.5 12t57.5 39zM268 363q-38 0-67-22.5T160 279h216q-12 39-40.5 61.5T268 363zm-6 327q31 0 54-23.5t23-54.5-23-54.5-54-23.5-54.5 23.5T184 612t23.5 54.5T262 690z"/><glyph glyph-name="emacron" unicode="ē" horiz-adv-x="532" d="m399 147 65-84q-36-36-83.5-54.5T278-10q-105 0-174.5 68T34 229q0 102 67 171t167 69 167-69 67-171q0-14-1-26t-2-18H158q12-41 44-65t76-24q35 0 63.5 12t57.5 39zM268 363q-38 0-67-22.5T160 279h216q-12 39-40.5 61.5T268 363zM128 651h275v-95H128v95z"/><glyph glyph-name="eogonek" unicode="ę" horiz-adv-x="532" d="m420-118 29-74q-19-9-37.5-13.5T375-210q-51 0-84 27t-33 70q0 26 14 54.5T311-8q-4-1-15-1.5t-18-.5q-105 0-174.5 68T34 229q0 102 67 171t167 69 167-69 67-171q0-15-1-26.5t-2-17.5H158q12-41 44-65t76-24q35 0 63.5 12t57.5 39l65-84q-50-50-77-91t-27-66q0-14 8.5-22t22.5-8q8 0 15 1.5t14 4.5zM268 363q-37 0-66.5-23T160 279h216q-12 38-41.5 61T268 363z"/><glyph glyph-name="gbreve" unicode="ğ" horiz-adv-x="585" d="M552 13q0-99-77-161t-200-62q-64 0-124.5 19.5T36-134l61 99q40-30 83.5-45T269-95q68 0 110.5 31.5T422 18q0 19-5 34t-16 33q-25-45-64.5-70T249-10q-92 0-153.5 68.5T34 229q0 103 61.5 171.5T249 469q41 0 76.5-18.5T387 397l15 62h117V131l7-13q12-23 19-50.5t7-54.5zM164 229q0-53 32.5-87t81.5-34 81.5 34 32.5 87-32.5 87.5T278 351t-81.5-34.5T164 229zm71 455v-10q0-31 13.5-47.5T286 610t37 16.5 13 46.5v11h96v-21q0-62-41-101.5T286 522q-65 0-106 39.5T139 664v20h96z"/><glyph glyph-name="gcircumflex" unicode="ĝ" horiz-adv-x="585" d="M552 13q0-99-77-161t-200-62q-64 0-124.5 19.5T36-134l61 99q40-30 83.5-45T269-95q68 0 110.5 31.5T422 18q0 19-5 34t-16 33q-25-45-64.5-70T249-10q-92 0-153.5 68.5T34 229q0 103 61.5 171.5T249 469q41 0 76.5-18.5T387 397l15 62h117V131l7-13q12-23 19-50.5t7-54.5zM164 229q0-53 32.5-87t81.5-34 81.5 34 32.5 87-32.5 87.5T278 351t-81.5-34.5T164 229zm121 495 169-144-53-64-118 86-115-86-53 64z"/><glyph glyph-name="gcommaaccent" unicode="ģ" horiz-adv-x="585" d="M552 13q0-99-77-161t-200-62q-64 0-124.5 19.5T36-134l61 99q40-30 83.5-45T269-95q68 0 110.5 31.5T422 18q0 19-5 34t-16 33q-25-45-64.5-70T249-10q-92 0-153.5 68.5T34 229q0 103 61.5 171.5T249 469q41 0 76.5-18.5T387 397l15 62h117V131l7-13q12-23 19-50.5t7-54.5zM164 229q0-53 32.5-87t81.5-34 81.5 34 32.5 87-32.5 87.5T278 351t-81.5-34.5T164 229zm194 359q0-29-21-49.5T286 518t-51 22-21 54q0 19 6 36t19 37l56 86 66-31-38-75q17-10 26-25.5t9-33.5z"/><glyph glyph-name="gdotaccent" unicode="ġ" horiz-adv-x="585" d="M552 13q0-99-77-161t-200-62q-64 0-124.5 19.5T36-134l61 99q40-30 83.5-45T269-95q68 0 110.5 31.5T422 18q0 19-5 34t-16 33q-25-45-64.5-70T249-10q-92 0-153.5 68.5T34 229q0 103 61.5 171.5T249 469q41 0 76.5-18.5T387 397l15 62h117V131l7-13q12-23 19-50.5t7-54.5zM164 229q0-53 32.5-87t81.5-34 81.5 34 32.5 87-32.5 87.5T278 351t-81.5-34.5T164 229zm122 461q31 0 54-23.5t23-54.5-23-54.5-54-23.5-54.5 23.5T208 612t23.5 54.5T286 690z"/><glyph glyph-name="hbar" unicode="ħ" horiz-adv-x="583" d="M311 348q-29 0-54.5-16.5T211 284V0H78v535H5v91h73v79h133v-79h151v-91H211V394q27 35 64 55t77 20q82 0 129-53.5T528 268V0H395v249q0 47-22 73t-62 26z"/><glyph glyph-name="hcircumflex" unicode="ĥ" horiz-adv-x="571" d="M299 348q-29 0-54.5-16.5T199 284V0H66v705h133V394q27 35 64 55t77 20q82 0 129-53.5T516 268V0H383v249q0 47-22 73t-62 26zm-9 609 169-144-53-64-118 86-115-86-53 64z"/><glyph glyph-name="iacute" unicode="í" horiz-adv-x="265" d="M66 459h133V0H66v459zm-9 60-45 71 184 138 60-99z"/><glyph glyph-name="icircumflex" unicode="î" horiz-adv-x="265" d="M66 459h133V0H66v459zm67 265 169-144-53-64-118 86-115-86-53 64z"/><glyph glyph-name="idieresis" unicode="ï" horiz-adv-x="265" d="M66 459h133V0H66v459zM35 678q28 0 48.5-20.5T104 609t-20.5-49T35 539t-49.5 21-21.5 49 21 48.5T35 678zm195 0q29 0 50-20.5t21-48.5-21-49-50-21q-28 0-48.5 21T161 609t20.5 48.5T230 678z"/><glyph glyph-name="igrave" unicode="ì" horiz-adv-x="265" d="M66 459h133V0H66v459zm5 269 184-138-45-71L11 629z"/><glyph glyph-name="ibreve" unicode="ĭ" horiz-adv-x="265" d="M66 459h133V0H66v459zm16 225v-10q0-31 13.5-47.5T133 610t37 16.5 13 46.5v11h96v-21q0-62-41-101.5T133 522q-65 0-106 39.5T-14 664v20h96z"/><glyph glyph-name="i.dot" horiz-adv-x="265" d="M132 684q33 0 56.5-23.5T212 604t-23.5-56.5T132 524q-32 0-55.5 24T53 604q0 33 23.5 56.5T132 684zM66 459h133V0H66v459z"/><glyph glyph-name="imacron" unicode="ī" horiz-adv-x="265" d="M66 459h133V0H66v459zM-5 651h275v-95H-5v95z"/><glyph glyph-name="iogonek" unicode="į" horiz-adv-x="265" d="M132 684q33 0 56.5-23.5T212 604t-23.5-56.5T132 524q-32 0-55.5 24T53 604q0 33 23.5 56.5T132 684zm52-802 29-74q-19-9-37.5-13.5T139-210q-51 0-84 27t-33 70q0 32 19.5 61T97 0H66v459h133V0h1q-36-20-56-45t-20-49q0-14 8.5-22t22.5-8q8 0 15 1.5t14 4.5z"/><glyph glyph-name="itilde" unicode="ĩ" horiz-adv-x="265" d="M66 459h133V0H66v459zm160 228 78-36q-23-57-48.5-82T194 544q-15 0-29.5 4.5T125 566q-18 9-26.5 12T82 581q-15 0-24.5-9.5T38 539l-78 36q21 54 47.5 79T70 679q15 0 29.5-4t39.5-17q18-9 27-12t17-3q14 0 23.5 10t19.5 34z"/><glyph glyph-name="jcircumflex" unicode="ĵ" horiz-adv-x="272" d="M11-89q29 0 45.5 22.5T73-5v464h133V-16q0-91-48-142.5T24-210q-38 0-75 13.5t-65 37.5l66 94q17-12 32-18t29-6zm125 813 169-144-53-64-118 86-115-86-53 64z"/><glyph glyph-name="ij" unicode="ĳ" horiz-adv-x="541" d="M132 684q33 0 56.5-23.5T212 604t-23.5-56.5T132 524q-32 0-55.5 24T53 604q0 33 23.5 56.5T132 684zM66 459h133V0H66v459zm342 225q33 0 56.5-23.5T488 604t-23.5-56.5T408 524t-56.5 23.5T328 604t23.5 56.5T408 684zM280-89q29 0 45.5 22.5T342-5v464h133V-16q0-91-48-142.5T293-210q-38 0-75 13.5T153-159l66 94q17-12 32-18t29-6z"/><glyph glyph-name="kcommaaccent" unicode="ķ" horiz-adv-x="551" d="M219 176h-20V0H66v705h133V297h20q46 0 71 15.5t44 54.5l43 92h138l-43-90q-24-49-43-79.5T391 239L542 0H390L281 181q-12-3-26.5-4t-35.5-1zm0-294q0 28 21 48.5T290-49q30 0 51.5-22t21.5-53q0-19-6-36.5T337-197l-59-93-65 31 41 81q-17 10-26 25.5t-9 34.5z"/><glyph glyph-name="kgreenlandic" unicode="ĸ" horiz-adv-x="551" d="M219 176h-20V0H66v459h133V297h20q46 0 70.5 15t44.5 55l43 92h138l-43-90q-24-49-43-79.5T391 239L542 0H390L281 181q-12-3-26.5-4t-35.5-1z"/><glyph glyph-name="lacute" unicode="ĺ" horiz-adv-x="265" d="M66 705h133V0H66v705zm2 40-45 71 184 138 60-99z"/><glyph glyph-name="lcaron" unicode="ľ" horiz-adv-x="358" d="M66 705h133V0H66v705zm304 0-17-191h-94v191h111z"/><glyph glyph-name="lcommaaccent" unicode="ļ" horiz-adv-x="265" d="M66 705h133V0H66v705zm-4-823q0 28 21 48.5T133-49q30 0 51.5-22t21.5-53q0-19-6-36.5T180-197l-59-93-65 31 41 81q-17 10-26 25.5T62-118z"/><glyph glyph-name="ldot" unicode="ŀ" horiz-adv-x="375" d="M66 705h133V0H66v705zm256-300q32 0 55-22.5t23-54.5-23-55-55-23-55 23-23 55q0 31 23 54t55 23z"/><glyph glyph-name="ntilde" unicode="ñ" horiz-adv-x="574" d="M299 348q-29 0-54.5-16.5T199 284V0H66v459h117l16-66q27 36 64 56t77 20q82 0 129-53.5T516 268V0H383v249q0 47-22 73t-62 26zm84 339 78-36q-23-57-48.5-82T351 544q-15 0-29.5 4.5T282 566q-18 9-26.5 12t-16.5 3q-15 0-24.5-9.5T195 539l-78 36q21 54 47.5 79t62.5 25q15 0 29.5-4t39.5-17q18-9 27-12t17-3q14 0 23.5 10t19.5 34z"/><glyph glyph-name="nacute" unicode="ń" horiz-adv-x="574" d="M299 348q-29 0-54.5-16.5T199 284V0H66v459h117l16-66q27 36 64 56t77 20q82 0 129-53.5T516 268V0H383v249q0 47-22 73t-62 26zm-73 171-45 71 184 138 60-99z"/><glyph glyph-name="ncaron" unicode="ň" horiz-adv-x="574" d="M299 348q-29 0-54.5-16.5T199 284V0H66v459h117l16-66q27 36 64 56t77 20q82 0 129-53.5T516 268V0H383v249q0 47-22 73t-62 26zm106 376 53-64-169-144-170 144 53 64 118-86z"/><glyph glyph-name="ncommaaccent" unicode="ņ" horiz-adv-x="574" d="M299 348q-29 0-54.5-16.5T199 284V0H66v459h117l16-66q27 36 64 56t77 20q82 0 129-53.5T516 268V0H383v249q0 47-22 73t-62 26zm-84-466q0 28 21 48.5T286-49q30 0 51.5-22t21.5-53q0-19-6-36.5T333-197l-59-93-65 31 41 81q-17 10-26 25.5t-9 34.5z"/><glyph glyph-name="eng" unicode="ŋ" horiz-adv-x="574" d="M340 469q82 0 129-53.5T516 268V-16q0-91-48-142.5T334-210q-38 0-76 13.5T193-159l67 94q17-12 32-18t29-6q29 0 45.5 22.5T383-5v254q0 47-22 73t-62 26q-29 0-54.5-16.5T199 284V0H66v459h117l16-66q27 36 64 56t77 20z"/><glyph glyph-name="napostrophe" unicode="ŉ" horiz-adv-x="644" d="M368 348q-29 0-54.5-16.5T268 284V0H135v459h117l16-66q27 36 64 56t77 20q82 0 129-53.5T585 268V0H452v249q0 47-22 73t-62 26zM152 685 69 435h-95l38 250h140z"/><glyph glyph-name="oacute" unicode="ó" horiz-adv-x="556" d="M278 469q106 0 175-68t69-172q0-103-69.5-171T278-10 103.5 58 34 229q0 104 69 172t175 68zm0-118q-49 0-81.5-34.5T164 229q0-52 32.5-86.5T278 108t81.5 34.5T392 229q0 53-32.5 87.5T278 351zm-76 168-45 71 184 138 60-99z"/><glyph glyph-name="ocircumflex" unicode="ô" horiz-adv-x="556" d="M278 469q106 0 175-68t69-172q0-103-69.5-171T278-10 103.5 58 34 229q0 104 69 172t175 68zm0-118q-49 0-81.5-34.5T164 229q0-52 32.5-86.5T278 108t81.5 34.5T392 229q0 53-32.5 87.5T278 351zm0 373 169-144-53-64-118 86-115-86-53 64z"/><glyph glyph-name="odieresis" unicode="ö" horiz-adv-x="556" d="M278 469q106 0 175-68t69-172q0-103-69.5-171T278-10 103.5 58 34 229q0 104 69 172t175 68zm0-118q-49 0-81.5-34.5T164 229q0-52 32.5-86.5T278 108t81.5 34.5T392 229q0 53-32.5 87.5T278 351zm-98 327q28 0 48.5-20.5T249 609t-20.5-49-48.5-21-49.5 21-21.5 49 21 48.5 50 20.5zm195 0q29 0 50-20.5t21-48.5-21-49-50-21q-28 0-48.5 21T306 609t20.5 48.5T375 678z"/><glyph glyph-name="ograve" unicode="ò" horiz-adv-x="556" d="M278 469q106 0 175-68t69-172q0-103-69.5-171T278-10 103.5 58 34 229q0 104 69 172t175 68zm0-118q-49 0-81.5-34.5T164 229q0-52 32.5-86.5T278 108t81.5 34.5T392 229q0 53-32.5 87.5T278 351zm-68 377 184-138-45-71-199 110z"/><glyph glyph-name="otilde" unicode="õ" horiz-adv-x="556" d="M278 469q106 0 175-68t69-172q0-103-69.5-171T278-10 103.5 58 34 229q0 104 69 172t175 68zm0-118q-49 0-81.5-34.5T164 229q0-52 32.5-86.5T278 108t81.5 34.5T392 229q0 53-32.5 87.5T278 351zm92 336 78-36q-23-57-48.5-82T338 544q-15 0-29.5 4.5T269 566q-18 9-26.5 12t-16.5 3q-15 0-24.5-9.5T182 539l-78 36q21 54 47.5 79t62.5 25q15 0 29.5-4t39.5-17q18-9 27-12t17-3q14 0 23.5 10t19.5 34z"/><glyph glyph-name="obreve" unicode="ŏ" horiz-adv-x="556" d="M278 469q106 0 175-68t69-172q0-103-69.5-171T278-10 103.5 58 34 229q0 104 69 172t175 68zm0-118q-49 0-81.5-34.5T164 229q0-52 32.5-86.5T278 108t81.5 34.5T392 229q0 53-32.5 87.5T278 351zm-51 333v-10q0-31 13.5-47.5T278 610t37 16.5 13 46.5v11h96v-21q0-62-41-101.5T278 522q-65 0-106 39.5T131 664v20h96z"/><glyph glyph-name="ohungarumlaut" unicode="ő" horiz-adv-x="556" d="M278 469q106 0 175-68t69-172q0-103-69.5-171T278-10 103.5 58 34 229q0 104 69 172t175 68zm0-118q-49 0-81.5-34.5T164 229q0-52 32.5-86.5T278 108t81.5 34.5T392 229q0 53-32.5 87.5T278 351zm-85 167-69 44 104 180 92-60zm187 0-69 44 104 180 93-60z"/><glyph glyph-name="omacron" unicode="ō" horiz-adv-x="556" d="M278 469q106 0 175-68t69-172q0-103-69.5-171T278-10 103.5 58 34 229q0 104 69 172t175 68zm0-118q-49 0-81.5-34.5T164 229q0-52 32.5-86.5T278 108t81.5 34.5T392 229q0 53-32.5 87.5T278 351zM140 651h275v-95H140v95z"/><glyph glyph-name="racute" unicode="ŕ" horiz-adv-x="381" d="M299 329q-31 0-56-12.5T199 280V0H66v459h117l16-65q25 35 59 55t70 20q13 0 24-1.5t21-5.5l-35-139q-11 3-21 4.5t-18 1.5zM156 519l-45 71 184 138 60-99z"/><glyph glyph-name="rcaron" unicode="ř" horiz-adv-x="381" d="M299 329q-31 0-56-12.5T199 280V0H66v459h117l16-65q25 35 59 55t70 20q13 0 24-1.5t21-5.5l-35-139q-11 3-21 4.5t-18 1.5zm20 395 53-64-169-144L33 660l53 64 118-86z"/><glyph glyph-name="rcommaaccent" unicode="ŗ" horiz-adv-x="381" d="M299 329q-31 0-56-12.5T199 280V0H66v459h117l16-65q25 35 59 55t70 20q13 0 24-1.5t21-5.5l-35-139q-11 3-21 4.5t-18 1.5zM61-118q0 28 21 48.5T132-49q30 0 51.5-22t21.5-53q0-19-6-36.5T179-197l-59-93-65 31 41 81q-17 10-26 25.5T61-118z"/><glyph glyph-name="scaron" unicode="š" horiz-adv-x="439" d="M202 184q-87 24-120 58t-33 88q0 61 50 100t128 39q46 0 90.5-14t80.5-39l-60-90q-25 19-56 30.5T225 368q-24 0-36.5-9T176 333q0-16 17-28t68-26q77-20 112.5-55t35.5-88q0-67-49.5-106.5T224-10q-55 0-104 16.5T24 57l61 91q32-26 68.5-41T224 92q27 0 42.5 11t15.5 29q0 16-14 26.5T202 184zm150 540 53-64-169-144L66 660l53 64 118-86z"/><glyph glyph-name="sacute" unicode="ś" horiz-adv-x="439" d="M202 184q-87 24-120 58t-33 88q0 61 50 100t128 39q46 0 90.5-14t80.5-39l-60-90q-25 19-56 30.5T225 368q-24 0-36.5-9T176 333q0-16 17-28t68-26q77-20 112.5-55t35.5-88q0-67-49.5-106.5T224-10q-55 0-104 16.5T24 57l61 91q32-26 68.5-41T224 92q27 0 42.5 11t15.5 29q0 16-14 26.5T202 184zm-53 335-45 71 184 138 60-99z"/><glyph glyph-name="scedilla" unicode="ş" horiz-adv-x="439" d="M325-126q0-42-31-67t-83-25q-28 0-50.5 5T112-197l22 66q19-9 32.5-12.5T192-147q14 0 22.5 7t8.5 18q0 13-8 19t-24 6l-38 40 16 51q-39 7-75.5 22.5T24 57l61 91q32-26 68.5-41T224 92q27 0 42.5 11t15.5 29q0 16-14 26.5T202 184q-87 24-120 58t-33 88q0 61 50 100t128 39q46 0 90.5-14t80.5-39l-60-90q-25 19-56 30.5T225 368q-24 0-36.5-9T176 333q0-16 17-28t68-26q77-20 112.5-55t35.5-88q0-63-44-102T243-9l-9-30q42-4 66.5-27t24.5-60z"/><glyph glyph-name="scircumflex" unicode="ŝ" horiz-adv-x="439" d="M202 184q-87 24-120 58t-33 88q0 61 50 100t128 39q46 0 90.5-14t80.5-39l-60-90q-25 19-56 30.5T225 368q-24 0-36.5-9T176 333q0-16 17-28t68-26q77-20 112.5-55t35.5-88q0-67-49.5-106.5T224-10q-55 0-104 16.5T24 57l61 91q32-26 68.5-41T224 92q27 0 42.5 11t15.5 29q0 16-14 26.5T202 184zm27 540 169-144-53-64-118 86-115-86-53 64z"/><glyph glyph-name="uni0219" unicode="ș" horiz-adv-x="439" d="M202 184q-87 24-120 58t-33 88q0 61 50 100t128 39q46 0 90.5-14t80.5-39l-60-90q-25 19-56 30.5T225 368q-24 0-36.5-9T176 333q0-16 17-28t68-26q77-20 112.5-55t35.5-88q0-67-49.5-106.5T224-10q-55 0-104 16.5T24 57l61 91q32-26 68.5-41T224 92q27 0 42.5 11t15.5 29q0 16-14 26.5T202 184zm-57-302q0 28 21 48.5T216-49q30 0 51.5-22t21.5-53q0-19-6-36.5T263-197l-59-93-65 31 41 81q-17 10-26 25.5t-9 34.5z"/><glyph glyph-name="tbar" unicode="ŧ" horiz-adv-x="445" d="M110 352H18v102l92 5h7l16 131h110V459h148V352H243v-62h148V183H243q0-34 15.5-53.5T302 110q15 0 30.5 6.5T365 137l63-94q-29-25-66.5-39T285-10q-83 0-129 50t-46 140v3H18v107h92v62z"/><glyph glyph-name="tcaron" unicode="ť" horiz-adv-x="445" d="M110 345H18v109l92 5h7l16 131h110V459h148V345H243V183q0-34 15.5-53.5T302 110q15 0 30.5 6.5T365 137l63-94q-29-25-66.5-39T285-10q-83 0-129 50t-46 140v165zm292 353-17-191h-94v191h111z"/><glyph glyph-name="uni0163" unicode="ţ" horiz-adv-x="445" d="M110 345H18v109l92 5h7l16 131h110V459h148V345H243V183q0-34 15.5-53.5T302 110q15 0 30.5 6.5T365 137l63-94q-29-25-66.5-39T285-10q-83 0-129 50t-46 140v165zm46-463q0 28 21 48.5T227-49q30 0 51.5-22t21.5-53q0-19-6-36.5T274-197l-59-93-65 31 41 81q-17 10-26 25.5t-9 34.5z"/><glyph glyph-name="uni021B" unicode="ț" horiz-adv-x="445" d="M110 345H18v109l92 5h7l16 131h110V459h148V345H243V183q0-34 15.5-53.5T302 110q15 0 30.5 6.5T365 137l63-94q-29-25-66.5-39T285-10q-83 0-129 50t-46 140v165zm46-463q0 28 21 48.5T227-49q30 0 51.5-22t21.5-53q0-19-6-36.5T274-197l-59-93-65 31 41 81q-17 10-26 25.5t-9 34.5z"/><glyph glyph-name="uacute" unicode="ú" horiz-adv-x="567" d="M501 0H385l-16 62q-27-34-63.5-53T230-10q-80 0-126 52T58 185v274h133V205q0-45 21-69.5t59-24.5q29 0 53.5 15.5T368 172v287h133V0zM220 519l-45 71 184 138 60-99z"/><glyph glyph-name="ucircumflex" unicode="û" horiz-adv-x="567" d="M501 0H385l-16 62q-27-34-63.5-53T230-10q-80 0-126 52T58 185v274h133V205q0-45 21-69.5t59-24.5q29 0 53.5 15.5T368 172v287h133V0zM283 724l169-144-53-64-118 86-115-86-53 64z"/><glyph glyph-name="udieresis" unicode="ü" horiz-adv-x="567" d="M501 0H385l-16 62q-27-34-63.5-53T230-10q-80 0-126 52T58 185v274h133V205q0-45 21-69.5t59-24.5q29 0 53.5 15.5T368 172v287h133V0zM185 678q28 0 48.5-20.5T254 609t-20.5-49-48.5-21-49.5 21-21.5 49 21 48.5 50 20.5zm195 0q29 0 50-20.5t21-48.5-21-49-50-21q-28 0-48.5 21T311 609t20.5 48.5T380 678z"/><glyph glyph-name="ugrave" unicode="ù" horiz-adv-x="567" d="M501 0H385l-16 62q-27-34-63.5-53T230-10q-80 0-126 52T58 185v274h133V205q0-45 21-69.5t59-24.5q29 0 53.5 15.5T368 172v287h133V0zM215 728l184-138-45-71-199 110z"/><glyph glyph-name="ubreve" unicode="ŭ" horiz-adv-x="567" d="M501 0H385l-16 62q-27-34-63.5-53T230-10q-80 0-126 52T58 185v274h133V205q0-45 21-69.5t59-24.5q29 0 53.5 15.5T368 172v287h133V0zM232 684v-10q0-31 13.5-47.5T283 610t37 16.5 13 46.5v11h96v-21q0-62-41-101.5T283 522q-65 0-106 39.5T136 664v20h96z"/><glyph glyph-name="uhungarumlaut" unicode="ű" horiz-adv-x="567" d="M501 0H385l-16 62q-27-34-63.5-53T230-10q-80 0-126 52T58 185v274h133V205q0-45 21-69.5t59-24.5q29 0 53.5 15.5T368 172v287h133V0zM202 518l-69 44 104 180 92-60zm187 0-69 44 104 180 93-60z"/><glyph glyph-name="umacron" unicode="ū" horiz-adv-x="567" d="M501 0H385l-16 62q-27-34-63.5-53T230-10q-80 0-126 52T58 185v274h133V205q0-45 21-69.5t59-24.5q29 0 53.5 15.5T368 172v287h133V0zM145 651h275v-95H145v95z"/><glyph glyph-name="uogonek" unicode="ų" horiz-adv-x="567" d="m485-118 29-74q-19-9-37.5-13.5T440-210q-51 0-84 27t-33 70q0 31 14.5 57T385 1l-16 61q-27-34-63.5-53T230-10q-80 0-126 52T58 185v274h133V205q0-45 21-69.5t59-24.5q29 0 53.5 15.5T368 172v287h133V0q-36-20-56-45t-20-49q0-14 8.5-22t22.5-8q8 0 15 1.5t14 4.5z"/><glyph glyph-name="uring" unicode="ů" horiz-adv-x="567" d="M501 0H385l-16 62q-27-34-63.5-53T230-10q-80 0-126 52T58 185v274h133V205q0-45 21-69.5t59-24.5q29 0 53.5 15.5T368 172v287h133V0zM283 508q-50 0-84.5 33.5T164 623t34.5 81.5T283 738q49 0 83.5-33.5T401 623t-34.5-81.5T283 508zm0 68q19 0 32 13.5t13 33.5-13 33.5-32 13.5q-20 0-33-13t-13-34 13-34 33-13z"/><glyph glyph-name="utilde" unicode="ũ" horiz-adv-x="567" d="M501 0H385l-16 62q-27-34-63.5-53T230-10q-80 0-126 52T58 185v274h133V205q0-45 21-69.5t59-24.5q29 0 53.5 15.5T368 172v287h133V0zM376 687l78-36q-23-57-48.5-82T344 544q-15 0-29.5 4.5T275 566q-18 9-26.5 12t-16.5 3q-15 0-24.5-9.5T188 539l-78 36q21 54 47.5 79t62.5 25q15 0 29.5-4t39.5-17q18-9 27-12t17-3q14 0 23.5 10t19.5 34z"/><glyph glyph-name="wacute" unicode="ẃ" horiz-adv-x="786" d="M609 0H472l-79 198L314 0H177L-3 459h131l127-331 78 201-52 130h229l-52-129 78-199 126 328h128zM330 519l-45 71 184 138 60-99z"/><glyph glyph-name="wcircumflex" unicode="ŵ" horiz-adv-x="786" d="M609 0H472l-79 198L314 0H177L-3 459h131l127-331 78 201-52 130h229l-52-129 78-199 126 328h128zM390 724l169-144-53-64-118 86-115-86-53 64z"/><glyph glyph-name="wdieresis" unicode="ẅ" horiz-adv-x="786" d="M609 0H472l-79 198L314 0H177L-3 459h131l127-331 78 201-52 130h229l-52-129 78-199 126 328h128zM291 678q28 0 48.5-20.5T360 609t-20.5-49-48.5-21-49.5 21-21.5 49 21 48.5 50 20.5zm195 0q29 0 50-20.5t21-48.5-21-49-50-21q-28 0-48.5 21T417 609t20.5 48.5T486 678z"/><glyph glyph-name="wgrave" unicode="ẁ" horiz-adv-x="786" d="M609 0H472l-79 198L314 0H177L-3 459h131l127-331 78 201-52 130h229l-52-129 78-199 126 328h128zM319 728l184-138-45-71-199 110z"/><glyph glyph-name="yacute" unicode="ý" horiz-adv-x="567" d="M534 13q0-99-77-161t-200-62q-64 0-124.5 19.5T18-134l61 99q40-30 83.5-45T251-95q68 0 110.5 31.5T404 18q0 21-4 38.5T388 91q-26-47-68-74t-90-27q-80 0-126 52T58 185v274h133V205q0-45 21-69.5t59-24.5q29 0 53.5 15.5T368 172v287h133V151l6-14q13-30 20-62t7-62zM221 519l-45 71 184 138 60-99z"/><glyph glyph-name="ydieresis" unicode="ÿ" horiz-adv-x="567" d="M534 13q0-99-77-161t-200-62q-64 0-124.5 19.5T18-134l61 99q40-30 83.5-45T251-95q68 0 110.5 31.5T404 18q0 21-4 38.5T388 91q-26-47-68-74t-90-27q-80 0-126 52T58 185v274h133V205q0-45 21-69.5t59-24.5q29 0 53.5 15.5T368 172v287h133V151l6-14q13-30 20-62t7-62zM185 678q28 0 48.5-20.5T254 609t-20.5-49-48.5-21-49.5 21-21.5 49 21 48.5 50 20.5zm195 0q29 0 50-20.5t21-48.5-21-49-50-21q-28 0-48.5 21T311 609t20.5 48.5T380 678z"/><glyph glyph-name="ycircumflex" unicode="ŷ" horiz-adv-x="567" d="M534 13q0-99-77-161t-200-62q-64 0-124.5 19.5T18-134l61 99q40-30 83.5-45T251-95q68 0 110.5 31.5T404 18q0 21-4 38.5T388 91q-26-47-68-74t-90-27q-80 0-126 52T58 185v274h133V205q0-45 21-69.5t59-24.5q29 0 53.5 15.5T368 172v287h133V151l6-14q13-30 20-62t7-62zM283 724l169-144-53-64-118 86-115-86-53 64z"/><glyph glyph-name="ygrave" unicode="ỳ" horiz-adv-x="567" d="M534 13q0-99-77-161t-200-62q-64 0-124.5 19.5T18-134l61 99q40-30 83.5-45T251-95q68 0 110.5 31.5T404 18q0 21-4 38.5T388 91q-26-47-68-74t-90-27q-80 0-126 52T58 185v274h133V205q0-45 21-69.5t59-24.5q29 0 53.5 15.5T368 172v287h133V151l6-14q13-30 20-62t7-62zM200 728l184-138-45-71-199 110z"/><glyph glyph-name="zcaron" unicode="ž" horiz-adv-x="467" d="M197 114h235V0H34v97l219 248H44v114h378v-91zm153 610 53-64-169-144L64 660l53 64 118-86z"/><glyph glyph-name="zacute" unicode="ź" horiz-adv-x="467" d="M197 114h235V0H34v97l219 248H44v114h378v-91zm-20 405-45 71 184 138 60-99z"/><glyph glyph-name="zdotaccent" unicode="ż" horiz-adv-x="467" d="M197 114h235V0H34v97l219 248H44v114h378v-91zm36 576q31 0 54-23.5t23-54.5-23-54.5-54-23.5-54.5 23.5T155 612t23.5 54.5T233 690z"/><glyph glyph-name="acute" unicode="´" horiz-adv-x="500" d="m174 519-45 71 184 138 60-99z"/><glyph glyph-name="grave" unicode="`" horiz-adv-x="500" d="m189 728 184-138-45-71-199 110z"/><glyph glyph-name="circumflex" unicode="ˆ" horiz-adv-x="500" d="m250 724 169-144-53-64-118 86-115-86-53 64z"/><glyph glyph-name="caron" unicode="ˇ" horiz-adv-x="500" d="m366 724 53-64-169-144L80 660l53 64 118-86z"/><glyph glyph-name="tilde" unicode="˜" horiz-adv-x="500" d="m343 687 78-36q-23-57-48.5-82T311 544q-15 0-29.5 4.5T242 566q-18 9-26.5 12t-16.5 3q-15 0-24.5-9.5T155 539l-78 36q21 54 47.5 79t62.5 25q15 0 29.5-4t39.5-17q18-9 27-12t17-3q14 0 23.5 10t19.5 34z"/><glyph glyph-name="dieresis" unicode="¨" horiz-adv-x="500" d="M152 678q28 0 48.5-20.5T221 609t-20.5-49-48.5-21-49.5 21T81 609t21 48.5 50 20.5zm195 0q29 0 50-20.5t21-48.5-21-49-50-21q-28 0-48.5 21T278 609t20.5 48.5T347 678z"/><glyph glyph-name="ring" unicode="˚" horiz-adv-x="500" d="M250 508q-50 0-84.5 33.5T131 623t34.5 81.5T250 738q49 0 83.5-33.5T368 623t-34.5-81.5T250 508zm0 68q19 0 32 13.5t13 33.5-13 33.5-32 13.5q-20 0-33-13t-13-34 13-34 33-13z"/><glyph glyph-name="cedilla" unicode="¸" horiz-adv-x="500" d="M355-126q0-42-31-67t-83-25q-28 0-50.5 5T142-197l22 66q19-9 32.5-12.5T222-147q14 0 22.5 7t8.5 18q0 13-8 19t-24 6l-38 40 23 75h76l-18-57q42-4 66.5-27t24.5-60z"/><glyph glyph-name="hungarumlaut" unicode="˝" horiz-adv-x="500" d="m132 518-69 44 104 180 92-60zm187 0-69 44 104 180 93-60z"/><glyph glyph-name="breve" unicode="˘" horiz-adv-x="500" d="M199 684v-10q0-31 13.5-47.5T250 610t37 16.5 13 46.5v11h96v-21q0-62-41-101.5T250 522q-65 0-106 39.5T103 664v20h96z"/><glyph glyph-name="macron" unicode="¯" horiz-adv-x="500" d="M112 651h275v-95H112v95z"/><glyph glyph-name="dotaccent" unicode="˙" horiz-adv-x="500" d="M250 690q31 0 54-23.5t23-54.5-23-54.5-54-23.5-54.5 23.5T172 612t23.5 54.5T250 690z"/><glyph glyph-name="periodcentered" unicode="·" horiz-adv-x="323" d="M161 395q32 0 55-22.5t23-54.5-23-55-55-23-55 23-23 55q0 31 23 54t55 23z"/><glyph glyph-name="ogonek" unicode="˛" horiz-adv-x="500" d="M142-113q0 34 21 64t61 53l96-4q-36-20-56-45t-20-49q0-14 8.5-22t22.5-8q8 0 15 1.5t14 4.5l29-74q-19-9-37.5-13.5T259-210q-51 0-84 27t-33 70z"/><glyph glyph-name="commaaccent" unicode="" horiz-adv-x="500" d="M178-118q0 28 21 48.5T249-49q30 0 51.5-22t21.5-53q0-19-6-36.5T296-197l-59-93-65 31 41 81q-17 10-26 25.5t-9 34.5z"/><glyph glyph-name="caron.alt" horiz-adv-x="500" d="m416 685-17-191h-94v191h111z"/><glyph glyph-name="revcommaaccent" horiz-adv-x="500" d="M322 588q0-29-21-49.5T250 518t-51 22-21 54q0 19 6 36t19 37l56 86 66-31-38-75q17-10 26-25.5t9-33.5z"/><glyph glyph-name="afii10017" unicode="А" horiz-adv-x="707" d="M695 0H553l-55 141H202L147 0H12l274 685h135zM350 523 248 259h204z"/><glyph glyph-name="afii10018" unicode="Б" horiz-adv-x="609" d="M306 0H83v685h428V563H217V418h89q119 0 190-56.5T567 209q0-97-70.5-153T306 0zm123 209q0 42-32 65t-89 23h-91V121h91q57 0 89 23t32 65z"/><glyph glyph-name="afii10019" unicode="В" horiz-adv-x="618" d="M310 0H83v685h217q115 0 179.5-48T544 503q0-47-25.5-84.5T445 356q61-25 95-67t34-94q0-90-71.5-142.5T310 0zm100 489q0 37-28 58t-77 21h-88V410h88q49 0 77 21t28 58zm30-284q0 42-33 65.5T315 294h-98V116h98q60 0 92.5 23.5T440 205z"/><glyph glyph-name="afii10020" unicode="Г" horiz-adv-x="515" d="M220 0H83v685h412V563H220V0z"/><glyph glyph-name="afii10021" unicode="Д" horiz-adv-x="740" d="M302 685h135l217-563h65v-292H587V0H153v-170H21v292h64zm64-166L218 122h296z"/><glyph glyph-name="afii10022" unicode="Е" horiz-adv-x="564" d="M514 0H83v685h431V563H220V411h268V289H220V122h294V0z"/><glyph glyph-name="afii10023" unicode="Ё" horiz-adv-x="564" d="M514 0H83v685h431V563H220V411h268V289H220V122h294V0zM189 903q28 0 48.5-20.5T258 834t-20.5-49-48.5-21-49.5 21-21.5 49 21 48.5 50 20.5zm195 0q29 0 50-20.5t21-48.5-21-49-50-21q-28 0-48.5 21T315 834t20.5 48.5T384 903z"/><glyph glyph-name="afii10024" unicode="Ж" horiz-adv-x="1010" d="M437 289h-1q-19 0-36.5 1.5T367 295L173 0H12l242 362q-21 22-45 54t-54 80L35 685h146l119-190q32-52 57.5-68t77.5-16h2v274h137V411h1q52 0 77.5 16t57.5 68l119 190h146L855 496q-30-48-54-80t-45-54L998 0H837L644 295q-16-3-33.5-4.5T574 289V0H437v289z"/><glyph glyph-name="afii10025" unicode="З" horiz-adv-x="612" d="M433 201q0 43-37.5 66T290 290H186v122h94q60 0 95.5 21.5T411 492t-31.5 59-83.5 22q-44 0-92-21t-87-57l-70 95q54 50 120.5 77.5T303 695q110 0 176.5-50.5T546 511q0-51-28.5-91T436 356q64-22 98.5-65.5T569 189q0-89-73.5-144T303-10q-76 0-146 29T32 102l73 94q41-40 91.5-62t99.5-22q63 0 100 24t37 65z"/><glyph glyph-name="afii10026" unicode="И" horiz-adv-x="730" d="M646 0H517v484L215 0H83v685h129V202l303 483h131V0z"/><glyph glyph-name="afii10027" unicode="Й" horiz-adv-x="730" d="M646 0H517v484L215 0H83v685h129V202l303 483h131V0zM373 731q-72 0-119 39.5T207 871v24h101v-18q0-31 17-48t48-17q32 0 48.5 16t16.5 47v20h103v-26q0-62-47-100t-121-38z"/><glyph glyph-name="afii10028" unicode="К" horiz-adv-x="667" d="M233 289h-13V0H83v685h137V411h11q53 0 80 16.5t58 67.5l116 190h147L516 496q-25-41-46.5-71.5T428 371L655 0H498L316 298q-19-5-39.5-7t-43.5-2z"/><glyph glyph-name="afii10029" unicode="Л" horiz-adv-x="671" d="M659 0H516L332 517 147 0H12l256 685h135z"/><glyph glyph-name="afii10030" unicode="М" horiz-adv-x="939" d="M534 0H401L243 457 177 0H44l109 685h134l183-537 182 537h133L895 0H758l-70 446z"/><glyph glyph-name="afii10031" unicode="Н" horiz-adv-x="744" d="M661 0H524v291H220V0H83v685h137V413h304v272h137V0z"/><glyph glyph-name="afii10032" unicode="О" horiz-adv-x="780" d="M390-10Q241-10 141 90.5T41 342t100 252 249 101 249-101 100-252T639 90.5 390-10zm0 126q89 0 148.5 64.5T598 342t-59.5 162T390 569t-148.5-65T182 342t59.5-161.5T390 116z"/><glyph glyph-name="afii10033" unicode="П" horiz-adv-x="736" d="M220 0H83v685h570V0H516v563H220V0z"/><glyph glyph-name="afii10034" unicode="Р" horiz-adv-x="591" d="M217 0H83v685h213q122 0 192-59.5T558 462q0-103-71-163t-191-60h-79V0zm203 462q0 48-32.5 74.5T297 563h-80V360h80q59 0 91 26.5t32 75.5z"/><glyph glyph-name="afii10035" unicode="С" horiz-adv-x="668" d="M390 569q-89 0-148.5-65T182 342t59.5-161.5T390 116q49 0 90 19.5t81 61.5l86-92q-56-58-120-86.5T390-10Q241-10 141 90.5T41 342t100 252 249 101q70 0 133-27t114-79l-84-92q-36 36-76.5 54T390 569z"/><glyph glyph-name="afii10036" unicode="Т" horiz-adv-x="579" d="M221 563H20v122h539V563H358V0H221v563z"/><glyph glyph-name="afii10037" unicode="У" horiz-adv-x="652" d="M493 685h138L333 0H198l72 168L20 685h152l165-362z"/><glyph glyph-name="afii10038" unicode="Ф" horiz-adv-x="855" d="M820 347q0-123-91-198T493 72v-85H361v85q-145 2-235.5 77T35 347t91 198 235 77v83h132v-83q145-2 236-77t91-198zm-648 0q0-72 52.5-116.5T360 186h1v322h-1q-84 0-136-44t-52-117zm511 0q0 73-52.5 117T494 508h-1V186h1q84 0 136.5 44T683 347z"/><glyph glyph-name="afii10039" unicode="Х" horiz-adv-x="681" d="M662 0H505L336 249 167 0H18l244 360L42 685h157l146-215 145 215h149L419 360z"/><glyph glyph-name="afii10040" unicode="Ц" horiz-adv-x="747" d="M506 685h137V122h94v-292H605V0H83v685h137V122h286v563z"/><glyph glyph-name="afii10041" unicode="Ч" horiz-adv-x="703" d="M483 685h137V0H483v276q-37-16-78.5-25t-79.5-9q-114 0-181.5 66.5T76 486v199h137V499q0-66 36-101.5T350 362q37 0 70.5 8.5T483 396v289z"/><glyph glyph-name="afii10042" unicode="Ш" horiz-adv-x="937" d="M716 685h137V0H83v685h137V122h180v563h137V122h179v563z"/><glyph glyph-name="afii10043" unicode="Щ" horiz-adv-x="957" d="M716 685h137V122h94v-292H815V0H83v685h137V122h180v563h137V122h179v563z"/><glyph glyph-name="afii10044" unicode="Ъ" horiz-adv-x="706" d="M172 563H13v122h293V418h113q119 0 189.5-56.5T679 209q0-97-70.5-153T419 0H172v563zm370-354q0 42-32 65t-90 23H306V121h114q57 0 89.5 23t32.5 65z"/><glyph glyph-name="afii10045" unicode="Ы" horiz-adv-x="886" d="M803 2H666v685h137V2zM590 209q0-97-70.5-153T330 0H83v685h134V418h113q119 0 189.5-56.5T590 209zm-137 0q0 42-32 65t-90 23H217V121h114q57 0 89.5 23t32.5 65z"/><glyph glyph-name="afii10046" unicode="Ь" horiz-adv-x="617" d="M590 209q0-97-70.5-153T330 0H83v685h134V418h113q119 0 189.5-56.5T590 209zm-137 0q0 42-32 65t-90 23H217V121h114q57 0 89.5 23t32.5 65z"/><glyph glyph-name="afii10047" unicode="Э" horiz-adv-x="668" d="M278 695q149 0 249-101t100-252T527 90.5 278-10q-73 0-137 28.5T21 105l86 92q40-42 81-61.5t90-19.5q78 0 135.5 46T488 284H169v122h317q-19 74-76 118.5T278 569q-46 0-86.5-18T115 497l-84 92q51 52 114 79t133 27z"/><glyph glyph-name="afii10048" unicode="Ю" horiz-adv-x="1068" d="M678 695q149 0 249-101t100-252T927 90.5 678-10q-134 0-230 83T333 287H220V0H83v685h137V409h115q22 127 117.5 206.5T678 695zm0-579q89 0 148.5 64.5T886 342t-59.5 162T678 569t-148.5-65T470 342t59.5-161.5T678 116z"/><glyph glyph-name="afii10049" unicode="Я" horiz-adv-x="647" d="M64 479q0 93 68 149.5T312 685h251V0H430v262h-82L175 0H25l193 283q-72 20-113 72T64 479zm137-6q0-41 29-65.5t77-24.5h123v180H307q-48 0-77-24.5T201 473z"/><glyph glyph-name="afii10052" unicode="Ѓ" horiz-adv-x="515" d="M220 0H83v685h412V563H220V0zm7 744-45 71 184 138 60-99z"/><glyph glyph-name="afii10050" unicode="Ґ" horiz-adv-x="515" d="M363 685v157h132V563H220V0H83v685h280z"/><glyph glyph-name="afii10051" unicode="Ђ" horiz-adv-x="758" d="M530 436q86 0 136.5-55T717 232V68q0-90-52.5-142T522-126q-36 0-69 12.5T390-77l65 89q12-10 25-15.5T508-9q35 0 53.5 20.5T580 70v136q0 51-26.5 80T482 315q-37 0-70-19.5T358 241V0H221v563H20v122h539V563H358V354q29 38 75.5 60t96.5 22z"/><glyph glyph-name="afii10053" unicode="Є" horiz-adv-x="668" d="m561 197 86-92q-56-58-120-86.5T390-10Q241-10 141 90.5T41 342t100 252 249 101q70 0 133-27t114-79l-84-92q-36 36-76.5 54T390 569q-73 0-127.5-44.5T190 406h317V284H188q17-76 72.5-122T390 116q49 0 90 19.5t81 61.5z"/><glyph glyph-name="afii10054" unicode="Ѕ" horiz-adv-x="567" d="M285 576q-43 0-69-19.5T190 503q0-33 28-54.5T339 396q105-35 149-81.5T532 196q0-88-68.5-147T293-10q-76 0-143.5 27.5T30 98l74 92q41-41 88-61.5T293 108q47 0 75.5 22.5T397 190q0 30-26 50t-110 49q-116 39-161 86T55 498q0 85 65 141t164 56q63 0 121-24t105-70l-78-92q-38 35-73.5 51T285 576z"/><glyph glyph-name="uni0400" unicode="Ѐ" horiz-adv-x="564" d="M514 0H83v685h431V563H220V411h268V289H220V122h294V0zM224 953l184-138-45-71-199 110z"/><glyph glyph-name="afii10055" unicode="І" horiz-adv-x="303" d="M220 0H83v685h137V0z"/><glyph glyph-name="afii10056" unicode="Ї" horiz-adv-x="303" d="M220 0H83v685h137V0zM54 903q28 0 48.5-20.5T123 834t-20.5-49T54 764 4.5 785-17 834t21 48.5T54 903zm195 0q29 0 50-20.5t21-48.5-21-49-50-21q-28 0-48.5 21T180 834t20.5 48.5T249 903z"/><glyph glyph-name="afii10057" unicode="Ј" horiz-adv-x="502" d="M433 685V220q0-113-58-171.5T206-10q-55 0-104 22T11 77l84 92q24-27 52-40.5t58-13.5q43 0 67 27.5t24 78.5v464h137z"/><glyph glyph-name="uni040D" unicode="Ѝ" horiz-adv-x="730" d="M646 0H517v484L215 0H83v685h129V202l303 483h131V0zM293 953l184-138-45-71-199 110z"/><glyph glyph-name="afii10061" unicode="Ќ" horiz-adv-x="667" d="M233 289h-13V0H83v685h137V411h11q53 0 80 16.5t58 67.5l116 190h147L516 496q-25-41-46.5-71.5T428 371L655 0H498L316 298q-19-5-39.5-7t-43.5-2zm57 455-45 71 184 138 60-99z"/><glyph glyph-name="afii10058" unicode="Љ" horiz-adv-x="960" d="M933 209q0-97-70.5-153T673 0H516L332 517 147 0H12l256 685h135l100-267h170q119 0 189.5-56.5T933 209zm-137 0q0 42-32 65t-89 23H548l66-176h61q57 0 89 23t32 65z"/><glyph glyph-name="afii10059" unicode="Њ" horiz-adv-x="1062" d="M1034 209q0-97-70.5-153T774 0H524v291H220V0H83v685h137V413h304v272h137V418h113q119 0 189.5-56.5T1034 209zm-137 0q0 42-32 65t-90 23H661V121h114q57 0 89.5 23t32.5 65z"/><glyph glyph-name="afii10060" unicode="Ћ" horiz-adv-x="751" d="M475 315q-35 0-65.5-19T358 242V0H221v563H20v122h539V563H358V354q29 38 73.5 60t92.5 22q85 0 135.5-54.5T710 235V0H573v209q0 49-26.5 77.5T475 315z"/><glyph glyph-name="afii10062" unicode="Ў" horiz-adv-x="652" d="M493 685h138L333 0H198l72 168L20 685h152l165-362zm-157 56q-72 0-119 39.5T170 881v24h101v-18q0-31 17-48t48-17q32 0 48.5 16t16.5 47v20h103v-26q0-62-47-100t-121-38z"/><glyph glyph-name="afii10145" unicode="Џ" horiz-adv-x="735" d="M651 685V0H433v-170H301V0H83v685h137V122h294v563h137z"/><glyph glyph-name="afii10146" unicode="Ѣ" horiz-adv-x="682" d="M147 651v108h134V651h181V530H281V418h113q119 0 189.5-56.5T654 209q0-97-70.5-153T394 0H147v530H16v121h131zm370-442q0 42-32 65t-90 23H281V121h114q57 0 89.5 23t32.5 65z"/><glyph glyph-name="afii10147" unicode="Ѳ" horiz-adv-x="780" d="M390-10Q241-10 141 90.5T41 342t100 252 249 101 249-101 100-252T639 90.5 390-10zm0 579q-73 0-128-45.5T189 403h402q-18 75-73 120.5T390 569zm0-453q73 0 128.5 45.5T591 281H189q17-74 72.5-119.5T390 116z"/><glyph glyph-name="afii10148" unicode="Ѵ" horiz-adv-x="692" d="M604 510 412 0H277L19 685h143l186-516 141 392q24 67 63.5 100t96.5 34q6 0 14-1t18-3V568q-29 0-47.5-14T604 510z"/><glyph glyph-name="afii10065" unicode="а" horiz-adv-x="585" d="M519 0H402l-15 62q-25-35-61-53.5T249-10q-92 0-153.5 68.5T34 229q0 103 61.5 171.5T249 469q42 0 77.5-18.5T387 397l15 62h117V0zM164 229q0-52 32.5-86.5T278 108t81.5 34.5T392 229q0 53-32.5 87.5T278 351t-81.5-34.5T164 229z"/><glyph glyph-name="afii10066" unicode="б" horiz-adv-x="556" d="M278 469q106 0 175-68t69-172q0-103-69.5-171T278-10 103.5 58 34 229q0 32 7 61.5T62 346q-14 31-21 59.5T34 463q0 81 51.5 133.5T231 664l235 37 21-112-216-34q-61-10-89.5-31.5T153 464q0-7 .5-13t2.5-12q27 15 58 22.5t64 7.5zm0-118q-49 0-81.5-34.5T164 229t32.5-87 81.5-34 81.5 34 32.5 87-32.5 87.5T278 351z"/><glyph glyph-name="afii10067" unicode="в" horiz-adv-x="544" d="M303 0H66v459h254q76 0 121.5-32t45.5-86q0-35-22-62t-64-42q51-14 78.5-42t27.5-67q0-62-52.5-95T303 0zm54 324q0 20-18 30.5T286 365h-91v-84h91q35 0 53 11t18 32zm17-184q0 24-20.5 35.5T291 187h-96V94h96q42 0 62.5 11.5T374 140z"/><glyph glyph-name="afii10068" unicode="г" horiz-adv-x="423" d="M199 0H66v459h344V345H199V0z"/><glyph glyph-name="afii10069" unicode="д" horiz-adv-x="583" d="M570-143H452V0H131v-143H13v247h56l149 355h143l152-355h57v-247zM288 349l-97-245h195z"/><glyph glyph-name="afii10070" unicode="е" horiz-adv-x="532" d="m399 147 65-84q-36-36-83.5-54.5T278-10q-105 0-174.5 68T34 229q0 102 67 171t167 69 167-69 67-171q0-14-1-26t-2-18H158q12-41 44-65t76-24q35 0 63.5 12t57.5 39zM268 363q-38 0-67-22.5T160 279h216q-12 39-40.5 61.5T268 363z"/><glyph glyph-name="afii10071" unicode="ё" horiz-adv-x="532" d="m399 147 65-84q-36-36-83.5-54.5T278-10q-105 0-174.5 68T34 229q0 102 67 171t167 69 167-69 67-171q0-14-1-26t-2-18H158q12-41 44-65t76-24q35 0 63.5 12t57.5 39zM268 363q-38 0-67-22.5T160 279h216q-12 39-40.5 61.5T268 363zm-98 315q28 0 48.5-20.5T239 609t-20.5-49-48.5-21-49.5 21T99 609t21 48.5 50 20.5zm195 0q29 0 50-20.5t21-48.5-21-49-50-21q-28 0-48.5 21T296 609t20.5 48.5T365 678z"/><glyph glyph-name="afii10072" unicode="ж" horiz-adv-x="819" d="M345 183h-10q-7 0-15 .5t-20 1.5L174 0H19l170 239q-22 22-46.5 54T87 372l-57 87h139l57-87q28-43 49.5-59t51.5-16h18v162h130V297h18q30 0 50.5 15.5T593 372l58 87h138l-57-87q-33-50-57-81t-45-51L800 0H645L519 185l-21-1.5-13-.5h-10V0H345v183z"/><glyph glyph-name="afii10073" unicode="з" horiz-adv-x="507" d="M333 139q0 23-23 34.5T243 185h-85v94h82q40 0 61.5 11.5T323 323t-20.5 33.5T247 369q-36 0-70-13t-66-38l-59 78q48 37 97 55t103 18q89 0 144.5-34.5T452 344q0-33-21.5-61T369 237q49-14 75-42t26-67q0-62-60.5-100T249-10q-68 0-122.5 19.5T28 69l63 79q34-28 73.5-43T247 90q41 0 63.5 13t22.5 36z"/><glyph glyph-name="afii10074" unicode="и" horiz-adv-x="569" d="M503 0H381v278L189 0H66v459h123V182l192 277h122V0z"/><glyph glyph-name="afii10075" unicode="й" horiz-adv-x="569" d="M503 0H381v278L189 0H66v459h123V182l192 277h122V0zM285 516q-72 0-119 39.5T119 656v24h101v-18q0-31 17-48t48-17q32 0 48.5 16t16.5 47v20h103v-26q0-62-47-100t-121-38z"/><glyph glyph-name="afii10076" unicode="к" horiz-adv-x="559" d="M216 180h-17V0H66v459h133V294h18q37 0 63 17.5t53 60.5l55 87h141l-55-87q-24-41-46.5-72T384 247L548 0H392L277 185q-16-3-31-4t-30-1z"/><glyph glyph-name="afii10077" unicode="л" horiz-adv-x="518" d="M507 0H371L255 318 139 0H10l175 459h143z"/><glyph glyph-name="afii10078" unicode="м" horiz-adv-x="740" d="M429 0H308L201 299 144 0H15l105 459h133l117-305 112 305h133L725 0H593l-62 304z"/><glyph glyph-name="afii10079" unicode="н" horiz-adv-x="576" d="M510 0H379v178H198V0H66v459h132V292h181v167h131V0z"/><glyph glyph-name="afii10080" unicode="о" horiz-adv-x="556" d="M278 469q106 0 175-68t69-172q0-103-69.5-171T278-10 103.5 58 34 229q0 104 69 172t175 68zm0-118q-49 0-81.5-34.5T164 229q0-52 32.5-86.5T278 108t81.5 34.5T392 229q0 53-32.5 87.5T278 351z"/><glyph glyph-name="afii10081" unicode="п" horiz-adv-x="579" d="M198 0H66v459h447V0H381v345H198V0z"/><glyph glyph-name="afii10082" unicode="р" horiz-adv-x="585" d="M551 229q0-102-61.5-170.5T336-10q-42 0-77 18t-60 53v-261H66v659h117l15-62q25 35 60.5 53.5T336 469q92 0 153.5-68.5T551 229zM307 351q-49 0-81.5-34.5T193 229q0-52 32.5-86.5T307 108t81.5 34.5T421 229q0 53-32.5 87.5T307 351z"/><glyph glyph-name="afii10083" unicode="с" horiz-adv-x="479" d="M278 351q-49 0-81.5-34.5T164 229q0-52 32.5-86.5T278 108q27 0 51.5 11.5T377 154l85-86q-38-40-83.5-59T278-10q-105 0-174.5 68T34 229q0 104 69 172t175 68q48 0 92.5-18.5T452 398l-85-86q-21 20-43 29.5t-46 9.5z"/><glyph glyph-name="afii10084" unicode="т" horiz-adv-x="484" d="M176 345H23v114h438V345H308V0H176v345z"/><glyph glyph-name="afii10085" unicode="у" horiz-adv-x="567" d="M534 13q0-99-77-161t-200-62q-64 0-124.5 19.5T18-134l61 99q40-30 83.5-45T251-95q68 0 110.5 31.5T404 18q0 21-4 38.5T388 91q-26-47-68-74t-90-27q-80 0-126 52T58 185v274h133V205q0-45 21-69.5t59-24.5q29 0 53.5 15.5T368 172v287h133V151l6-14q13-30 20-62t7-62z"/><glyph glyph-name="afii10086" unicode="ф" horiz-adv-x="700" d="M666 229q0-102-71.5-169T412-10v-190H288v190Q177-7 105.5 60T34 229t71.5 169.5T288 469v201h124V469q111-3 182.5-70.5T666 229zm-124 0q0 55-36 90.5T412 357V102q58 2 94 37.5t36 89.5zm-384 0q0-54 36-89.5t94-37.5v255q-58-2-94-37.5T158 229z"/><glyph glyph-name="afii10087" unicode="х" horiz-adv-x="520" d="M509 0H355L253 141 153 0H11l172 239L24 459h154l88-122 87 122h142L337 239z"/><glyph glyph-name="afii10088" unicode="ц" horiz-adv-x="602" d="M588-143H464V0H66v459h132V114h174v345h132V114h84v-257z"/><glyph glyph-name="afii10088.alt" horiz-adv-x="587" d="M577-34q0-14-1-31.5t-3-43.5H444v93q0 25-5.5 46T421 67q-32-38-73.5-57.5T258-10q-87 0-143.5 55.5T58 187v272h133V205q0-44 22.5-69t61.5-25q29 0 53 14.5t43 42.5v291h133V153l20-27q27-35 40-74t13-86z"/><glyph glyph-name="afii10089" unicode="ч" horiz-adv-x="544" d="M345 459h133V0H345v194q-30-28-62.5-41T211 140q-78 0-125.5 51T38 326v133h133V345q0-39 21.5-61.5T251 261q28 0 50.5 10.5T345 305v154z"/><glyph glyph-name="afii10090" unicode="ш" horiz-adv-x="812" d="M614 459h132V0H66v459h132V114h142v345h132V114h142v345z"/><glyph glyph-name="afii10091" unicode="щ" horiz-adv-x="840" d="M830-143H707V0H66v459h132V114h142v345h132V114h142v345h132V114h84v-257z"/><glyph glyph-name="afii10091.alt" horiz-adv-x="820" d="M810-34q0-17-1.5-36.5T805-109H680v93q0 22-4.5 40.5T661 59q-28-34-64.5-51.5T516-10q-41 0-76.5 15T378 48q-27-29-61.5-43.5T242-10q-79 0-131.5 52T58 174v285h132V191q0-37 18.5-58.5T258 111q23 0 41.5 10.5T333 154q-1 3-1 7v298h132V191q0-37 18.5-58.5T532 111q22 0 40.5 10.5T606 153v306h132V153l19-27q28-40 40.5-78.5T810-34z"/><glyph glyph-name="afii10092" unicode="ъ" horiz-adv-x="581" d="M141 348H0v111h273V302h101q87 0 139-40.5T565 151 513.5 40.5 378 0H141v348zm294-197q0 28-22 42.5T350 208h-77V94h77q41 0 63 14.5t22 42.5z"/><glyph glyph-name="afii10093" unicode="ы" horiz-adv-x="753" d="M490 151q0-70-51.5-110.5T303 0H66v459h132V302h101q87 0 139-40.5T490 151zm-130 0q0 28-22 42.5T275 208h-77V94h77q41 0 63 14.5t22 42.5zm192 308h133V0H552v459z"/><glyph glyph-name="afii10094" unicode="ь" horiz-adv-x="505" d="M490 151q0-70-51.5-110.5T303 0H66v459h132V302h101q87 0 139-40.5T490 151zm-130 0q0 28-22 42.5T275 208h-77V94h77q41 0 63 14.5t22 42.5z"/><glyph glyph-name="afii10095" unicode="э" horiz-adv-x="505" d="M229 469q105 0 173.5-68T471 229 402 57.5 227-10q-59 0-109 20T32 68l77 76q23-23 52.5-35.5T223 96q45 0 79.5 25.5T349 189H151v84h197q-13 41-47 65.5T223 363q-29 0-56-10.5T119 323l-77 75q34 34 82.5 52.5T229 469z"/><glyph glyph-name="afii10096" unicode="ю" horiz-adv-x="786" d="M507 469q106 0 175-68t69-172q0-103-69.5-171T507-10q-91 0-156.5 52T268 178h-69V0H66v459h133V292h72q20 80 84.5 128.5T507 469zm0-118q-49 0-81.5-34.5T393 229q0-52 32.5-86.5T507 108t81.5 34.5T621 229q0 53-32.5 87.5T507 351z"/><glyph glyph-name="afii10097" unicode="я" horiz-adv-x="546" d="M52 310q0 69 53.5 109T247 459h235V0H351v159h-66L174 0H28l135 180q-54 15-82.5 48.5T52 310zm134-1q0-26 20.5-39.5T264 256h87v107h-87q-37 0-57.5-14T186 309z"/><glyph glyph-name="afii10100" unicode="ѓ" horiz-adv-x="426" d="M199 0H66v459h344V345H199V0zm-25 519-45 71 184 138 60-99z"/><glyph glyph-name="afii10098" unicode="ґ" horiz-adv-x="430" d="M199 0H66v459h226v147h121V345H199V0z"/><glyph glyph-name="afii10099" unicode="ђ" horiz-adv-x="585" d="M366 369q75 0 118-51t43-140V-25q0-87-46.5-136T352-210q-35 0-68 12t-63 36l65 91q11-11 25-16.5t28-5.5q28 0 43 18t15 52v182q0 42-21 65.5T316 248q-28 0-52.5-16.5T220 184V0H87v444H6v97h81v164h133V541h162v-97H220V293q28 36 66.5 56t79.5 20z"/><glyph glyph-name="afii10101" unicode="є" horiz-adv-x="491" d="m388 144 77-76q-37-39-83-58.5T280-10q-106 0-176.5 68T33 229t70.5 171.5T280 469q48 0 93-18.5t82-52.5l-77-75q-20 20-44.5 30T279 363q-42 0-74.5-24T159 274h187v-83H157q11-43 44.5-69T279 96q32 0 58.5 12t50.5 36z"/><glyph glyph-name="afii10102" unicode="ѕ" horiz-adv-x="439" d="M202 184q-87 24-120 58t-33 88q0 61 50 100t128 39q46 0 90.5-14t80.5-39l-60-90q-25 19-56 30.5T225 368q-24 0-36.5-9T176 333q0-16 17-28t68-26q77-20 112.5-55t35.5-88q0-67-49.5-106.5T224-10q-55 0-104 16.5T24 57l61 91q32-26 68.5-41T224 92q27 0 42.5 11t15.5 29q0 16-14 26.5T202 184z"/><glyph glyph-name="uni0450" unicode="ѐ" horiz-adv-x="532" d="m399 147 65-84q-36-36-83.5-54.5T278-10q-105 0-174.5 68T34 229q0 102 67 171t167 69 167-69 67-171q0-14-1-26t-2-18H158q12-41 44-65t76-24q35 0 63.5 12t57.5 39zM268 363q-38 0-67-22.5T160 279h216q-12 39-40.5 61.5T268 363zm-60 365 184-138-45-71-199 110z"/><glyph glyph-name="afii10103" unicode="і" horiz-adv-x="265" d="M132 684q33 0 56.5-23.5T212 604t-23.5-56.5T132 524q-32 0-55.5 24T53 604q0 33 23.5 56.5T132 684zM66 459h133V0H66v459z"/><glyph glyph-name="afii10104" unicode="ї" horiz-adv-x="265" d="M66 459h133V0H66v459zM35 678q28 0 48.5-20.5T104 609t-20.5-49T35 539t-49.5 21-21.5 49 21 48.5T35 678zm195 0q29 0 50-20.5t21-48.5-21-49-50-21q-28 0-48.5 21T161 609t20.5 48.5T230 678z"/><glyph glyph-name="afii10105" unicode="ј" horiz-adv-x="272" d="M139 684q33 0 56.5-23.5T219 604t-23.5-56.5T139 524t-56.5 23.5T59 604t23.5 56.5T139 684zM11-89q29 0 45.5 22.5T73-5v464h133V-16q0-91-48-142.5T24-210q-38 0-75 13.5t-65 37.5l66 94q17-12 32-18t29-6z"/><glyph glyph-name="uni045D" unicode="ѝ" horiz-adv-x="570" d="m224 728 184-138-45-71-199 110zM503 0H381v278L189 0H66v459h123V182l192 277h122V0z"/><glyph glyph-name="afii10109" unicode="ќ" horiz-adv-x="559" d="M216 180h-17V0H66v459h133V294h18q37 0 63 17.5t53 60.5l55 87h141l-55-87q-24-41-46.5-72T384 247L548 0H392L277 185q-16-3-31-4t-30-1zm7 339-45 71 184 138 60-99z"/><glyph glyph-name="afii10106" unicode="љ" horiz-adv-x="751" d="M736 151q0-70-52-110.5T546 0H371L255 318 139 0H10l175 459h143l61-157h153q88 0 141-40t53-111zm-133 0q0 27-21 41t-64 14h-91l43-110h48q43 0 64 14t21 41z"/><glyph glyph-name="afii10107" unicode="њ" horiz-adv-x="825" d="M621 0H384v187H199V0H67v459h132V294h185v165h132V302h101q87 0 139-40.5T808 151 756.5 40.5 621 0zm57 151q0 28-22 42.5T593 208h-77V94h77q41 0 63 14.5t22 42.5z"/><glyph glyph-name="afii10108" unicode="ћ" horiz-adv-x="585" d="M316 248q-28 0-52.5-16.5T220 184V0H87v444H6v97h81v164h133V541h162v-97H220V293q28 36 66.5 56t79.5 20q75 0 118-51t43-140V0H397v159q0 42-21 65.5T316 248z"/><glyph glyph-name="afii10110" unicode="ў" horiz-adv-x="567" d="M534 13q0-99-77-161t-200-62q-64 0-124.5 19.5T18-134l61 99q40-30 83.5-45T251-95q68 0 110.5 31.5T404 18q0 21-4 38.5T388 91q-26-47-68-74t-90-27q-80 0-126 52T58 185v274h133V205q0-45 21-69.5t59-24.5q29 0 53.5 15.5T368 172v287h133V151l6-14q13-30 20-62t7-62zM275 516q-72 0-119 39.5T109 656v24h101v-18q0-31 17-48t48-17q32 0 48.5 16t16.5 47v20h103v-26q0-62-47-100t-121-38z"/><glyph glyph-name="afii10193" unicode="џ" horiz-adv-x="571" d="M373 459h132V0H347v-143H224V0H66v459h132V111h175v348z"/><glyph glyph-name="afii10194" unicode="ѣ" horiz-adv-x="529" d="M514 151q0-70-51.5-110.5T327 0H90v415H10v94h81v196h132V509h156v-94H223v-1h-1V302h101q87 0 139-40.5T514 151zm-130 0q0 28-22 42.5T299 208h-77V94h77q41 0 63 14.5t22 42.5z"/><glyph glyph-name="afii10195" unicode="ѳ" horiz-adv-x="556" d="M278 469q106 0 175-68t69-172q0-103-69.5-171T278-10 103.5 58 34 229q0 104 69 172t175 68zm0-108q-39 0-70-21.5T163 281h230q-14 37-45 58.5T278 361zm0-263q39 0 69.5 21.5T393 177H163q15-36 45.5-57.5T278 98z"/><glyph glyph-name="afii10196" unicode="ѵ" horiz-adv-x="512" d="M439 305 322 0H189L12 459h143l103-303 66 185q23 65 60.5 96.5T477 469q12 0 18-.5t11-1.5V358q-24 0-40-12.5T439 305z"/><glyph glyph-name="breve_cyr" horiz-adv-x="167" d="M83 516q-72 0-119 39.5T-83 656v24H18v-18q0-31 17-48t48-17q32 0 48.5 16t16.5 47v20h103v-26q0-62-47-100T83 516z"/><glyph glyph-name="alef:hb" unicode="א" horiz-adv-x="593" d="M587 0H425L219 290q-21-19-29.5-49t-8.5-83V0H45v139q0 85 25.5 138t82.5 87L30 539h162l154-218q32 21 44.5 53t12.5 94v71h137v-59q0-90-30-145.5T413 244z"/><glyph glyph-name="bet:hb" unicode="ב" horiz-adv-x="571" d="M56 418v113q42 9 82 13.5t76 4.5q121 0 185-61.5T463 309V115h86V0H46v115h273v188q0 62-33.5 96T191 433q-31 0-64-3.5T56 418z"/><glyph glyph-name="gimel:hb" unicode="ג" horiz-adv-x="440" d="M165 549q93 0 143-53.5T358 342V217L402 0H276l-26 117q-28-61-71.5-92.5T78-7Q64-7 49-5T27 0v110h22q58 0 96 25t69 84v124q0 44-20 68t-57 24q-19 0-39-4.5T57 417l-31 99q34 16 68.5 24.5T165 549z"/><glyph glyph-name="dalet:hb" unicode="ד" horiz-adv-x="513" d="M491 539V424h-80V0H268v424H16v115h475z"/><glyph glyph-name="he:hb" unicode="ה" horiz-adv-x="621" d="M273 549q142 0 213.5-67.5T558 281V0H414v281q0 76-39 114t-117 38q-42 0-91.5-7.5T68 405v114q55 15 107.5 22.5T273 549zM75 0v284l137 4V0H75z"/><glyph glyph-name="vav:hb" unicode="ו" horiz-adv-x="300" d="M78 0v539h143V0H78z"/><glyph glyph-name="zayin:hb" unicode="ז" horiz-adv-x="356" d="M20 424v115h321V424h-79q-17-49-25.5-98.5T228 229q0-55 12-108.5T279 0H134q-25 58-38 114T83 223q0 48 12.5 98.5T132 424H20z"/><glyph glyph-name="het:hb" unicode="ח" horiz-adv-x="638" d="M307 433q-23 0-46.5-4.5T215 415V0H71v499q63 24 127.5 37T316 549q127 0 192.5-65T574 294V0H431v297q0 67-31 101.5T307 433z"/><glyph glyph-name="tet:hb" unicode="ט" horiz-adv-x="625" d="M288 430v110q14 4 34.5 6.5T363 549q106 0 165-71.5T587 279q0-137-70-213T321-10q-124 0-192.5 74.5T60 273v266h143V273q0-81 30.5-124t87.5-43q58 0 88 44t30 129q0 72-27.5 114T337 435q-15 0-27-1t-22-4z"/><glyph glyph-name="yod:hb" unicode="י" horiz-adv-x="256" d="M58 232v307h140V235z"/><glyph glyph-name="finalkaf:hb" unicode="ך" horiz-adv-x="498" d="M185 549q122 0 185.5-61.5T434 309v-448H291v442q0 62-34 96t-95 34q-30 0-63-3.5T28 418v113q41 9 81.5 13.5T185 549z"/><glyph glyph-name="kaf:hb" unicode="כ" horiz-adv-x="516" d="M194 549q135 0 212-74.5T483 269 406.5 64 194-10q-35 0-77.5 5.5T40 10v117q37-9 70-13t68-4q74 0 115.5 42T335 269q0 76-41.5 118T178 429q-35 0-68-4t-70-13v117q34 9 76.5 14.5T194 549z"/><glyph glyph-name="lamed:hb" unicode="ל" horiz-adv-x="514" d="M31 649h129q2-20 3.5-47l3.5-63h309V433L274 0H123l201 424H31v225z"/><glyph glyph-name="finalmem:hb" unicode="ם" horiz-adv-x="639" d="M317 549q127 0 193-65t66-190V0H73v499q62 24 127 37t117 13zm-8-116q-23 0-47.5-5T213 414V111h223v186q0 67-32 101.5T309 433z"/><glyph glyph-name="mem:hb" unicode="מ" horiz-adv-x="643" d="M218 0H78v539h113q3-17 6-35.5t6-36.5q36 39 83 60.5t97 21.5q88 0 143-58t55-151V0H335v111h106v220q0 48-25.5 75T345 433q-34 0-67.5-17T218 370V0z"/><glyph glyph-name="finalnun:hb" unicode="ן" horiz-adv-x="300" d="M78-139v678h143v-678H78z"/><glyph glyph-name="nun:hb" unicode="נ" horiz-adv-x="406" d="M343 0H40v115h160v228q0 44-20 68t-58 24q-15 0-31.5-4T57 420L26 520q30 14 61.5 21.5T150 549q93 0 143-53.5T343 342V0z"/><glyph glyph-name="samekh:hb" unicode="ס" horiz-adv-x="618" d="M313 549q127 0 197-72.5T580 273q0-134-69-208.5T318-10q-122 0-190 74.5T60 273v226q64 24 131 37t122 13zm5-443q58 0 88 42.5T436 273q0 76-34.5 118T304 433q-25 0-51.5-5T200 413V273q0-80 30.5-123.5T318 106z"/><glyph glyph-name="ayin:hb" unicode="ע" horiz-adv-x="606" d="M558 539V388q0-202-85.5-295T200 0H58v115h107L58 539h147l91-418q63 19 90.5 79.5T414 382v157h144z"/><glyph glyph-name="finalpe:hb" unicode="ף" horiz-adv-x="591" d="M528-139H384v422q0 72-33.5 111T256 433q-16 0-34.5-3.5T185 420V268l-137-3v239q51 20 111.5 32.5T264 549q126 0 195-70t69-196v-422z"/><glyph glyph-name="pe:hb" unicode="פ" horiz-adv-x="589" d="m207 276-137-4v234q50 19 108 31t101 12q131 0 204-72.5T556 274q0-126-80-200T258 0H63v115h175q77 0 124 43.5T409 274q0 75-36.5 117.5T271 434q-16 0-32-2.5t-32-7.5V276z"/><glyph glyph-name="finaltsadi:hb" unicode="ץ" horiz-adv-x="540" d="M501 539v-78q0-106-38.5-176T342 173v-312H198v294q-65 71-106.5 159T23 526l136 23q29-102 54.5-167.5T276 247q45 29 63.5 73T358 441v98h143z"/><glyph glyph-name="tsadi:hb" unicode="צ" horiz-adv-x="546" d="M325 242q34-35 77.5-68.5T501 107L482 0H51v115l268-5q-123 71-191.5 172.5T28 539h144q17-67 39.5-121T264 318q54 26 78.5 65t24.5 99v57h133v-45q0-99-42.5-160T325 242z"/><glyph glyph-name="qof:hb" unicode="ק" horiz-adv-x="607" d="M557 539V433L458 0H318l96 424H66v115h491zM70-139v404l140 3v-407H70z"/><glyph glyph-name="resh:hb" unicode="ר" horiz-adv-x="498" d="M434 309V0H291v303q0 62-34 96t-95 34q-30 0-63-3.5T28 418v113q41 9 81.5 13.5T185 549q122 0 185.5-61.5T434 309z"/><glyph glyph-name="shin:hb" unicode="ש" horiz-adv-x="770" d="M60 539h136V333q11-3 23-4.5t23-1.5q40 0 58 20t18 63v129h133V408q0-95-41.5-141.5T282 220q-20 0-38.5 2.5T206 230q17-61 63-92.5T385 106q91 0 139.5 52.5T573 310v229h137V323q0-159-85.5-246T385-10q-155 0-240 87T60 323v216z"/><glyph glyph-name="tav:hb" unicode="ת" horiz-adv-x="698" d="M354 433q-17 0-34.5-1t-34.5-3V182q0-98-42-143.5T110-7Q89-7 73-5.5T43 0v108q10-1 17.5-1.5T85 106q35 0 49 15.5t14 52.5v237q-51-10-71-14.5T40 388v113q73 22 161.5 35T362 549q138 0 205-64t67-196V0H491v299q0 70-32.5 102T354 433z"/><glyph glyph-name="shinwithshinDot:hb" unicode="שׁ" horiz-adv-x="770" d="M60 539h136V333q11-3 23-4.5t23-1.5q40 0 58 20t18 63v129h133V408q0-95-41.5-141.5T282 220q-20 0-38.5 2.5T206 230q17-61 63-92.5T385 106q91 0 139.5 52.5T573 310v229h137V323q0-159-85.5-246T385-10q-155 0-240 87T60 323v216zm618 106q0-15-10.5-26T642 608t-25.5 11-10.5 26 10.5 25.5T642 681t25.5-10.5T678 645z"/><glyph glyph-name="shinwithsinDot:hb" unicode="שׂ" horiz-adv-x="770" d="M60 539h136V333q11-3 23-4.5t23-1.5q40 0 58 20t18 63v129h133V408q0-95-41.5-141.5T282 220q-20 0-38.5 2.5T206 230q17-61 63-92.5T385 106q91 0 139.5 52.5T573 310v229h137V323q0-159-85.5-246T385-10q-155 0-240 87T60 323v216zm104 106q0-15-10.5-26T128 608t-25.5 11T92 645t10.5 25.5T128 681t25.5-10.5T164 645z"/><glyph glyph-name="shinwithdageshandshinDot:hb" unicode="שּׁ" horiz-adv-x="770" d="M60 539h136V333q11-3 23-4.5t23-1.5q40 0 58 20t18 63v129h133V408q0-95-41.5-141.5T282 220q-20 0-38.5 2.5T206 230q17-61 63-92.5T385 106q91 0 139.5 52.5T573 310v229h137V323q0-159-85.5-246T385-10q-155 0-240 87T60 323v216zm617 106q0-15-10.5-26T641 608t-25.5 11-10.5 26 10.5 25.5T641 681t25.5-10.5T677 645zM508 218q0-15-10.5-26T472 181t-25.5 11-10.5 26 10.5 25.5T472 254t25.5-10.5T508 218z"/><glyph glyph-name="shinwithdageshandsinDot:hb" unicode="שּׂ" horiz-adv-x="770" d="M60 539h136V333q11-3 23-4.5t23-1.5q40 0 58 20t18 63v129h133V408q0-95-41.5-141.5T282 220q-20 0-38.5 2.5T206 230q17-61 63-92.5T385 106q91 0 139.5 52.5T573 310v229h137V323q0-159-85.5-246T385-10q-155 0-240 87T60 323v216zm104 106q0-15-10.5-26T128 608t-25.5 11T92 645t10.5 25.5T128 681t25.5-10.5T164 645zm344-427q0-15-10.5-26T472 181t-25.5 11-10.5 26 10.5 25.5T472 254t25.5-10.5T508 218z"/><glyph glyph-name="alefwithpatah:hb" unicode="אַ" horiz-adv-x="593" d="M587 0H425L219 290q-21-19-29.5-49t-8.5-83V0H45v139q0 85 25.5 138t82.5 87L30 539h162l154-218q32 21 44.5 53t12.5 94v71h137v-59q0-90-30-145.5T413 244zM405-120H233v51h172v-51z"/><glyph glyph-name="alefwithqamats:hb" unicode="אָ" horiz-adv-x="593" d="M587 0H425L219 290q-21-19-29.5-49t-8.5-83V0H45v139q0 85 25.5 138t82.5 87L30 539h162l154-218q32 21 44.5 53t12.5 94v71h137v-59q0-90-30-145.5T413 244zM292-120h-59v51h172v-51h-59v-71h-54v71z"/><glyph glyph-name="alefwithmapiq:hb" unicode="אּ" horiz-adv-x="593" d="M587 0H425L219 290q-21-19-29.5-49t-8.5-83V0H45v139q0 85 25.5 138t82.5 87L30 539h162l154-218q32 21 44.5 53t12.5 94v71h137v-59q0-90-30-145.5T413 244zM294 98q0-15-10.5-25.5T258 62t-25.5 10.5T222 98q0 16 10.5 26.5T258 135t25.5-10.5T294 98z"/><glyph glyph-name="betwithdagesh:hb" unicode="בּ" horiz-adv-x="571" d="M56 418v113q42 9 82 13.5t76 4.5q121 0 185-61.5T463 309V115h86V0H46v115h273v188q0 62-33.5 96T191 433q-31 0-64-3.5T56 418zm136-143q0-15-10.5-26T156 238t-25.5 11-10.5 26 10.5 25.5T156 311t25.5-10.5T192 275z"/><glyph glyph-name="gimelwithdagesh:hb" unicode="גּ" horiz-adv-x="440" d="M165 549q93 0 143-53.5T358 342V217L402 0H276l-26 117q-28-61-71.5-92.5T78-7Q64-7 49-5T27 0v110h22q58 0 96 25t69 84v124q0 44-20 68t-57 24q-19 0-39-4.5T57 417l-31 99q34 16 68.5 24.5T165 549zm-19-263q0-15-10.5-26T110 249t-25.5 11T74 286t10.5 25.5T110 322t25.5-10.5T146 286z"/><glyph glyph-name="daletwithdagesh:hb" unicode="דּ" horiz-adv-x="516" d="M491 539V424h-80V0H268v424H16v115h475zM175 245q0-15-10.5-26T139 208t-25.5 11-10.5 26 10.5 25.5T139 281t25.5-10.5T175 245z"/><glyph glyph-name="hewithmapiq:hb" unicode="הּ" horiz-adv-x="621" d="M273 549q142 0 213.5-67.5T558 281V0H414v281q0 76-39 114t-117 38q-42 0-91.5-7.5T68 405v114q55 15 107.5 22.5T273 549zM75 0v284l137 4V0H75zm269 200q0-15-10.5-26T308 163t-25.5 11-10.5 26 10.5 25.5T308 236t25.5-10.5T344 200z"/><glyph glyph-name="vavwithdagesh:hb" unicode="וּ" horiz-adv-x="300" d="M78 0v539h143V0H78zM36 275q0-15-10.5-26T0 238t-25.5 11-10.5 26 10.5 25.5T0 311t25.5-10.5T36 275z"/><glyph glyph-name="zayinwithdagesh:hb" unicode="זּ" horiz-adv-x="362" d="M20 424v115h321V424h-79q-17-49-25.5-98.5T228 229q0-55 12-108.5T279 0H134q-25 58-38 114T83 223q0 48 12.5 98.5T132 424H20zm16-202q0-15-10.5-26T0 185t-25.5 11-10.5 26 10.5 25.5T0 258t25.5-10.5T36 222z"/><glyph glyph-name="tetwithdagesh:hb" unicode="טּ" horiz-adv-x="625" d="M288 430v110q14 4 34.5 6.5T363 549q106 0 165-71.5T587 279q0-137-70-213T321-10q-124 0-192.5 74.5T60 273v266h143V273q0-81 30.5-124t87.5-43q58 0 88 44t30 129q0 72-27.5 114T337 435q-15 0-27-1t-22-4zm69-155q0-15-10.5-26T321 238t-25.5 11-10.5 26 10.5 25.5T321 311t25.5-10.5T357 275z"/><glyph glyph-name="yodwithdagesh:hb" unicode="יּ" horiz-adv-x="256" d="M58 232v307h140V235zM18 386q0-15-10.5-26T-18 349t-25.5 11-10.5 26 10.5 25.5T-18 422t25.5-10.5T18 386z"/><glyph glyph-name="yodwithhiriq:hb" unicode="יִ" horiz-adv-x="256" d="M58 232v307h140V235zm106-84q0-15-10.5-25.5T128 112t-25.5 10.5T92 148q0 16 10.5 26.5T128 185t25.5-10.5T164 148z"/><glyph glyph-name="finalkafwithdagesh:hb" unicode="ךּ" horiz-adv-x="498" d="M185 549q122 0 185.5-61.5T434 309v-448H291v442q0 62-34 96t-95 34q-30 0-63-3.5T28 418v113q41 9 81.5 13.5T185 549zm-5-337q0-15-10.5-26T144 175t-25.5 11-10.5 26 10.5 25.5T144 248t25.5-10.5T180 212z"/><glyph glyph-name="kafwithdagesh:hb" unicode="כּ" horiz-adv-x="516" d="M194 549q135 0 212-74.5T483 269 406.5 64 194-10q-35 0-77.5 5.5T40 10v117q37-9 70-13t68-4q74 0 115.5 42T335 269q0 76-41.5 118T178 429q-35 0-68-4t-70-13v117q34 9 76.5 14.5T194 549zm12-280q0-15-10.5-26T170 232t-25.5 11-10.5 26 10.5 25.5T170 305t25.5-10.5T206 269z"/><glyph glyph-name="lamedwithdagesh:hb" unicode="לּ" horiz-adv-x="514" d="M31 649h129q2-20 3.5-47l3.5-63h309V433L274 0H123l201 424H31v225zm125-358q0-15-10.5-26T120 254t-25.5 11T84 291t10.5 25.5T120 327t25.5-10.5T156 291z"/><glyph glyph-name="memwithdagesh:hb" unicode="מּ" horiz-adv-x="643" d="M218 0H78v539h113q3-17 6-35.5t6-36.5q36 39 83 60.5t97 21.5q88 0 143-58t55-151V0H335v111h106v220q0 48-25.5 75T345 433q-34 0-67.5-17T218 370V0zm146 254q0-15-10.5-26T328 217t-25.5 11-10.5 26 10.5 25.5T328 290t25.5-10.5T364 254z"/><glyph glyph-name="nunwithdagesh:hb" unicode="נּ" horiz-adv-x="406" d="M343 0H40v115h160v228q0 44-20 68t-58 24q-15 0-31.5-4T57 420L26 520q30 14 61.5 21.5T150 549q93 0 143-53.5T343 342V0zM132 278q0-15-10.5-26T96 241t-25.5 11T60 278t10.5 25.5T96 314t25.5-10.5T132 278z"/><glyph glyph-name="samekhwithdagesh:hb" unicode="סּ" horiz-adv-x="618" d="M313 549q127 0 197-72.5T580 273q0-134-69-208.5T318-10q-122 0-190 74.5T60 273v226q64 24 131 37t122 13zm5-443q58 0 88 42.5T436 273q0 76-34.5 118T304 433q-25 0-51.5-5T200 413V273q0-80 30.5-123.5T318 106zm36 169q0-15-10.5-26T318 238t-25.5 11-10.5 26 10.5 25.5T318 311t25.5-10.5T354 275z"/><glyph glyph-name="finalpewithdagesh:hb" unicode="ףּ" horiz-adv-x="591" d="M528-139H384v422q0 72-33.5 111T256 433q-16 0-34.5-3.5T185 420V268l-137-3v239q51 20 111.5 32.5T264 549q126 0 195-70t69-196v-422zM314 333q0-15-10.5-26T278 296t-25.5 11-10.5 26 10.5 25.5T278 369t25.5-10.5T314 333z"/><glyph glyph-name="pewithdagesh:hb" unicode="פּ" horiz-adv-x="589" d="m207 276-137-4v234q50 19 108 31t101 12q131 0 204-72.5T556 274q0-126-80-200T258 0H63v115h175q77 0 124 43.5T409 274q0 75-36.5 117.5T271 434q-16 0-32-2.5t-32-7.5V276zm132 18q0-15-10.5-26T303 257t-25.5 11-10.5 26 10.5 25.5T303 330t25.5-10.5T339 294z"/><glyph glyph-name="tsadiwithdagesh:hb" unicode="צּ" horiz-adv-x="546" d="M325 242q34-35 77.5-68.5T501 107L482 0H51v115l268-5q-123 71-191.5 172.5T28 539h144q17-67 39.5-121T264 318q54 26 78.5 65t24.5 99v57h133v-45q0-99-42.5-160T325 242zm-218-39q0-15-10.5-26T71 166t-25.5 11T35 203t10.5 25.5T71 239t25.5-10.5T107 203z"/><glyph glyph-name="qofwithdagesh:hb" unicode="קּ" horiz-adv-x="607" d="M557 539V433L458 0H318l96 424H66v115h491zM70-139v404l140 3v-407H70zm256 378q0-15-10.5-26T290 202t-25.5 11-10.5 26 10.5 25.5T290 275t25.5-10.5T326 239z"/><glyph glyph-name="reshwithdagesh:hb" unicode="רּ" horiz-adv-x="498" d="M434 309V0H291v303q0 62-34 96t-95 34q-30 0-63-3.5T28 418v113q41 9 81.5 13.5T185 549q122 0 185.5-61.5T434 309zm-254-80q0-15-10.5-26T144 192t-25.5 11-10.5 26 10.5 25.5T144 265t25.5-10.5T180 229z"/><glyph glyph-name="shinwithdagesh:hb" unicode="שּ" horiz-adv-x="770" d="M60 539h136V333q11-3 23-4.5t23-1.5q40 0 58 20t18 63v129h133V408q0-95-41.5-141.5T282 220q-20 0-38.5 2.5T206 230q17-61 63-92.5T385 106q91 0 139.5 52.5T573 310v229h137V323q0-159-85.5-246T385-10q-155 0-240 87T60 323v216zm448-321q0-15-10.5-26T472 181t-25.5 11-10.5 26 10.5 25.5T472 254t25.5-10.5T508 218z"/><glyph glyph-name="tavwithdagesh:hb" unicode="תּ" horiz-adv-x="698" d="M354 433q-17 0-34.5-1t-34.5-3V182q0-98-42-143.5T110-7Q89-7 73-5.5T43 0v108q10-1 17.5-1.5T85 106q35 0 49 15.5t14 52.5v237q-51-10-71-14.5T40 388v113q73 22 161.5 35T362 549q138 0 205-64t67-196V0H491v299q0 70-32.5 102T354 433zm70-188q0-15-10.5-26T388 208t-25.5 11-10.5 26 10.5 25.5T388 281t25.5-10.5T424 245z"/><glyph glyph-name="vavwithholam:hb" unicode="וֹ" horiz-adv-x="300" d="M78 0v539h143V0H78zm107 645q0-15-10.5-26T149 608t-25.5 11-10.5 26 10.5 25.5T149 681t25.5-10.5T185 645z"/><glyph glyph-name="yod_yod:hb" unicode="ײ" horiz-adv-x="520" d="M58 232v307h140V235zm263 0v307h140V235z"/><glyph glyph-name="yod_yod_patah:hb" unicode="ײַ" horiz-adv-x="520" d="M58 232v307h140V235zm263 0v307h140V235zm28-111H175v52h174v-52z"/><glyph glyph-name="vav_yod:hb" unicode="ױ" horiz-adv-x="538" d="M58 232v307h140V235zM316 0v539h143V0H316z"/><glyph glyph-name="vav_vav:hb" unicode="װ" horiz-adv-x="568" d="M78 0v539h143V0H78zm268 0v539h143V0H346z"/><glyph glyph-name="geresh:hb" unicode="׳" horiz-adv-x="221" d="m205 540-83-250H27l38 250h140z"/><glyph glyph-name="gershayim:hb" unicode="״" horiz-adv-x="429" d="m206 539-83-250H28l38 250h140zm207 0-83-250h-95l38 250h140z"/><glyph glyph-name="maqaf:hb" unicode="־" horiz-adv-x="450" d="M311 220H138v50h173v-50z"/><glyph glyph-name="sheva:hb" unicode="ְ" d="M36-95q0-15-10.5-25.5T0-131t-25.5 10.5T-36-95q0 16 10.5 26.5T0-58t25.5-10.5T36-95zm0-106q0-15-10.5-26T0-238t-25.5 11-10.5 26 10.5 25.5T0-165t25.5-10.5T36-201z"/><glyph glyph-name="hatafSegol:hb" unicode="ֱ" d="M-83-95q0-15-11-25.5t-26-10.5-25.5 10.5T-156-95q0 16 10.5 26.5T-120-58q16 0 26.5-10.5T-83-95zm119 0q0-15-10.5-25.5T0-131t-25.5 10.5T-36-95q0 16 10.5 26.5T0-58t25.5-10.5T36-95zm120 0q0-15-10.5-25.5T120-131t-26 10.5T83-95q0 16 10.5 26.5T120-58q15 0 25.5-10.5T156-95zm-179-96q0-15-11-26t-26-11-25.5 11-10.5 26 10.5 25.5T-60-155q16 0 26.5-10.5T-23-191zm179-10q0-15-10.5-26T120-238t-26 11-11 26 10.5 25.5T120-165q15 0 25.5-10.5T156-201z"/><glyph glyph-name="hatafPatah:hb" unicode="ֲ" d="M156-95q0-15-10.5-25.5T120-131t-26 10.5T83-95q0 16 10.5 26.5T120-58q15 0 25.5-10.5T156-95zM33-120h-173v51H33v-51zm123-81q0-15-10.5-26T120-238t-26 11-11 26 10.5 25.5T120-165q15 0 25.5-10.5T156-201z"/><glyph glyph-name="hatafQamats:hb" unicode="ֳ" d="M156-95q0-15-10.5-25.5T120-131t-26 10.5T83-95q0 16 10.5 26.5T120-58q15 0 25.5-10.5T156-95zm-236-25h-60v51H33v-51h-59v-71h-54v71zm236-81q0-15-10.5-26T120-238t-26 11-11 26 10.5 25.5T120-165q15 0 25.5-10.5T156-201z"/><glyph glyph-name="hiriq:hb" unicode="ִ" d="M36-95q0-15-10.5-25.5T0-131t-25.5 10.5T-36-95q0 16 10.5 26.5T0-58t25.5-10.5T36-95z"/><glyph glyph-name="tsere:hb" unicode="ֵ" d="M-23-95q0-15-11-25.5T-60-131t-25.5 10.5T-96-95q0 16 10.5 26.5T-60-58q16 0 26.5-10.5T-23-95zm119 0q0-15-10.5-25.5T60-131t-26 10.5T23-95q0 16 10.5 26.5T60-58q15 0 25.5-10.5T96-95z"/><glyph glyph-name="segol:hb" unicode="ֶ" d="M-23-95q0-15-10.5-25.5T-60-131q-15 0-25.5 10.5T-96-95t10.5 26T-60-58t26-11 11-26zm119 0q0-15-10.5-25.5T60-131q-16 0-26.5 10.5T23-95t11 26 26 11 25.5-11T96-95zm-60-96q0-15-10.5-26T0-228t-25.5 11-10.5 26 10.5 25.5T0-155t25.5-10.5T36-191z"/><glyph glyph-name="patah:hb" unicode="ַ" d="M86-120H-86v51H86v-51z"/><glyph glyph-name="qamats:hb" unicode="ָ" d="M-27-120h-59v51H86v-51H27v-71h-54v71z"/><glyph glyph-name="holam:hb" unicode="ֹ" d="M36 645q0-15-10.5-26T0 608t-25.5 11-10.5 26 10.5 25.5T0 681t25.5-10.5T36 645z"/><glyph glyph-name="holamHaser:hb" unicode="ֺ" d="M36 645q0-15-10.5-26T0 608t-25.5 11-10.5 26 10.5 25.5T0 681t25.5-10.5T36 645z"/><glyph glyph-name="qubuts:hb" unicode="ֻ" d="M-38-95q0-15-11-25.5T-75-131t-25.5 10.5T-111-95q0 16 10.5 26.5T-75-58q16 0 26.5-10.5T-38-95zm74-85q0-15-10.5-25.5T0-216t-25.5 10.5T-36-180q0 16 10.5 26.5T0-143t25.5-10.5T36-180zm75-85q0-15-10.5-25.5T75-301t-26 10.5T38-265q0 16 10.5 26.5T75-228q15 0 25.5-10.5T111-265z"/><glyph glyph-name="dagesh:hb" unicode="ּ" d="M36 245q0-15-10.5-26T0 208t-25.5 11-10.5 26 10.5 25.5T0 281t25.5-10.5T36 245z"/><glyph glyph-name="shinDot:hb" unicode="ׁ" d="M36 645q0-15-10.5-26T0 608t-25.5 11-10.5 26 10.5 25.5T0 681t25.5-10.5T36 645z"/><glyph glyph-name="sinDot:hb" unicode="ׂ" d="M36 645q0-15-10.5-26T0 608t-25.5 11-10.5 26 10.5 25.5T0 681t25.5-10.5T36 645z"/><glyph glyph-name="qamatsQatan:hb" unicode="ׇ" d="M-27-120h-59v51H86v-51H27v-71h-54v71z"/><glyph glyph-name="alefWavyHamzehAbove" unicode="ٲ" horiz-adv-x="272" d="M195 705V0H76v705h119zm61 96-134-20q-29-4-58.5-1T-11 798q-20 6-28.5 8t-14.5 2q-11 0-23-3t-30-9l8 71q17 9 31.5 13t28.5 4q11 0 23-3t36-14q20-8 30.5-11.5T70 851q-10 16-15 34t-5 37q0 44 27.5 71t71.5 27q23 0 45-7t41-20l-19-58q-27 10-54.5 11.5T119 941q2-33 17-55.5t37-22.5q3 0 10.5 1t30.5 5q16 2 25 3.5t17 2.5v-74z"/><glyph glyph-name="dotlessBeh" unicode="ٮ" horiz-adv-x="826" d="M158 243q0-58 56.5-83.5T398 134q72 0 139.5 9.5T644 169q-3 41-11 82t-23 89l121 42q23-75 26-156.5T743 60Q675 28 573.5 9T367-10q-163 0-245 55T40 208q0 41 15 84.5T97 373l84-44q-13-26-18-46t-5-40z"/><glyph glyph-name="dotlessFeh.medi" horiz-adv-x="539" d="M520 144h19V0h-18q-70 0-135 12.5T265 49q-57-24-121.5-36.5T14 0H0q-9 0-15 20.5T-21 71q0 31 6 52t15 21h24q30 0 54 1t45 3q-29 32-44.5 69T63 293q0 80 58 130t152 50 151.5-50T482 293q0-37-17-73.5T415 149q26-3 52-4t53-1zM273 343q-45 0-70-18t-25-50q0-29 24.5-54t69.5-42q47 18 71.5 42.5T368 275q0 32-25 50t-70 18z"/><glyph glyph-name="dotlessFeh.init" horiz-adv-x="539" d="M-21 71q0 31 6 52t15 21h95q128 0 192.5 27.5T363 257q-32-11-68-16.5t-76-5.5q-90 0-136 38T37 384q0 92 58 164t136 72q94 0 167-96.5T471 301q0-158-90-229.5T95 0H0q-9 0-15 20.5T-21 71zm242 416q-29 0-50.5-24.5T149 404q0-29 23-42.5t73-13.5q28 0 55.5 3t55.5 9q-15 59-51.5 93T221 487z"/><glyph glyph-name="hehHamzehAbove" unicode="ۂ" horiz-adv-x="519" d="M244 470q110-36 167.5-105T469 199q0-93-59.5-151T254-10q-93 0-148.5 52.5T50 181q0 84 49 157t145 132zm6-144q-40-27-61.5-58.5T167 205q0-33 24-52t66-19q44 0 69.5 21t25.5 56q0 34-25.5 62.5T250 326zm117 299v-74l-239-35v73l55 8q-11 17-16.5 36t-5.5 39q0 44 27.5 71t71.5 27q23 0 45-7t41-20l-19-58q-26 9-54 11t-43-5q2-32 17.5-55t36.5-23q3 0 10.5 1t30.5 5q16 2 25 3.5t17 2.5z"/><glyph glyph-name="hehTehUrdu" unicode="ۃ" horiz-adv-x="519" d="M244 470q110-36 167.5-105T469 199q0-93-59.5-151T254-10q-93 0-148.5 52.5T50 181q0 84 49 157t145 132zm6-144q-40-27-61.5-58.5T167 205q0-33 24-52t66-19q44 0 69.5 21t25.5 56q0 34-25.5 62.5T250 326zm-3 269-68-68-73 71 73 72 68-69 68 69 73-72-73-71z"/><glyph glyph-name="hamze" unicode="ء" horiz-adv-x="540" d="m438 189 34-98L95-32 62 69l103 33q-27 32-42 71.5T108 251q0 64 40 103t104 39q34 0 66-10.5t59-30.5l-25-80q-19 10-44.5 15t-50.5 5q-16 0-30.5-2.5T202 282q3-55 32-94.5t66-39.5q14 0 51.5 11t86.5 30z"/><glyph glyph-name="ah" unicode="آ" horiz-adv-x="272" d="M195 705V0H76v705h119zM87 884q11 0 23-3t36-13q21-8 30.5-10.5T193 855q14 0 27 2.5t33 9.5l-8-74q-15-8-29.5-12t-29.5-4q-11 0-23.5 3T125 793q-20 7-29 9.5T80 805q-14 0-27.5-2.5T20 793l8 74q15 8 30 12.5t29 4.5z"/><glyph glyph-name="alefHamzeAbove" unicode="أ" horiz-adv-x="272" d="M195 705V0H76v705h119zm61 170v-74L17 766v73l55 8q-11 17-16.5 36T50 922q0 44 27.5 71t71.5 27q23 0 45-7t41-20l-19-58q-26 9-54 11t-43-5q2-32 17.5-55t36.5-23q3 0 10.5 1t30.5 5q16 2 25 3.5t17 2.5z"/><glyph glyph-name="alefHamzeBelow" unicode="إ" horiz-adv-x="272" d="M195 705V0H76v705h119zm64-895v-74L20-300v74l55 8q-11 17-16.5 36T53-143q0 44 27.5 71T152-45q22 0 44-7t42-20l-19-58q-27 10-54.5 11.5T122-124q2-33 17-55.5t37-22.5q3 0 10.5 1t30.5 5q16 2 25 3.5t17 2.5z"/><glyph glyph-name="alefWasleh" unicode="ٱ" horiz-adv-x="272" d="M195 705V0H76v705h119zm-19 279q45 0 71.5-50.5T261 810q-19-16-40.5-24.5T178 777q-12 0-25 3.5T117 794q-19 8-28 10.5T73 807q-13 0-26-2.5T13 795l8 73q12 7 24 11t27 6q15 45 43 72t61 27zm28-112q0 16-10.5 29T169 914q-12 0-22-10t-20-31q29-13 36.5-15t14.5-2q13 0 19.5 4t6.5 12z"/><glyph glyph-name="alef" unicode="ا" horiz-adv-x="272" d="M195 705V0H76v705h119z"/><glyph glyph-name="beh" unicode="ب" horiz-adv-x="826" d="M158 243q0-58 56.5-83.5T398 134q72 0 139.5 9.5T644 169q-3 41-11 82t-23 89l121 42q23-75 26-156.5T743 60Q675 28 573.5 9T367-10q-163 0-245 55T40 208q0 41 15 84.5T97 373l84-44q-13-26-18-46t-5-40zm317-390-72-71-72 71 72 71z"/><glyph glyph-name="peh" unicode="پ" horiz-adv-x="826" d="M158 243q0-58 56.5-83.5T398 134q72 0 139.5 9.5T644 169q-3 41-11 82t-23 89l121 42q23-75 26-156.5T743 60Q675 28 573.5 9T367-10q-163 0-245 55T40 208q0 41 15 84.5T97 373l84-44q-13-26-18-46t-5-40zm245-393-68-68-73 71 73 71 68-68 68 68 73-71-73-71zm72-127-72-71-72 71 72 72z"/><glyph glyph-name="teh" unicode="ت" horiz-adv-x="826" d="M158 243q0-58 56.5-83.5T398 134q72 0 139.5 9.5T644 169q-3 41-11 82t-23 89l121 42q23-75 26-156.5T743 60Q675 28 573.5 9T367-10q-163 0-245 55T40 208q0 41 15 84.5T97 373l84-44q-13-26-18-46t-5-40zm245 271-68-68-73 71 73 72 68-69 68 69 73-72-73-71z"/><glyph glyph-name="tehTa" unicode="ٹ" horiz-adv-x="826" d="M158 243q0-58 56.5-83.5T398 134q72 0 139.5 9.5T644 169q-3 41-11 82t-23 89l121 42q23-75 26-156.5T743 60Q675 28 573.5 9T367-10q-163 0-245 55T40 208q0 41 15 84.5T97 373l84-44q-13-26-18-46t-5-40zm397 272q0-17-5.5-34T535 450q-32-8-76-12t-99-4q-32 0-63 4.5T242 452l21 62q15-4 25.5-6t20.5-3q3 11 6.5 21t8.5 19v159h64v-98q14 11 30 16t34 5q46 0 74.5-31t28.5-81zm-66-6q0 24-13 37.5T440 560q-24 0-42-15t-28-42q41 0 71 1.5t48 4.5z"/><glyph glyph-name="theh" unicode="ث" horiz-adv-x="826" d="M158 243q0-58 56.5-83.5T398 134q72 0 139.5 9.5T644 169q-3 41-11 82t-23 89l121 42q23-75 26-156.5T743 60Q675 28 573.5 9T367-10q-163 0-245 55T40 208q0 41 15 84.5T97 373l84-44q-13-26-18-46t-5-40zm317 404-72-71-72 71 72 72zm-72-133-68-68-73 71 73 72 68-69 68 69 73-72-73-71z"/><glyph glyph-name="jim" unicode="ج" horiz-adv-x="726" d="m617-113-7-142q-52-13-106-19.5T397-281q-169 0-267 71.5T32-15q0 129 110 218t316 126q-53 12-98 18.5t-79 6.5q-59 0-114.5-11T57 310L21 434q61 23 118.5 34T261 479q89 0 208-33.5T690 359l-28-109q-238-2-372-67.5T156 8q0-72 57.5-108T385-136q62 0 117.5 5.5T617-113zM450 33l-72-71-72 71 72 72z"/><glyph glyph-name="cheh" unicode="چ" horiz-adv-x="726" d="m617-113-7-142q-52-13-106-19.5T397-281q-169 0-267 71.5T32-15q0 129 110 218t316 126q-53 12-98 18.5t-79 6.5q-59 0-114.5-11T57 310L21 434q61 23 118.5 34T261 479q89 0 208-33.5T690 359l-28-109q-238-2-372-67.5T156 8q0-72 57.5-108T385-136q62 0 117.5 5.5T617-113zM378 71l-61-59-64 62 64 64 61-61 61 61 64-64-64-62zm64-94-64-63-64 63 64 64z"/><glyph glyph-name="hah" unicode="ح" horiz-adv-x="726" d="m617-113-7-142q-52-13-106-19.5T397-281q-169 0-267 71.5T32-15q0 129 110 218t316 126q-53 12-98 18.5t-79 6.5q-59 0-114.5-11T57 310L21 434q61 23 118.5 34T261 479q89 0 208-33.5T690 359l-28-109q-238-2-372-67.5T156 8q0-72 57.5-108T385-136q62 0 117.5 5.5T617-113z"/><glyph glyph-name="kheh" unicode="خ" horiz-adv-x="726" d="m617-113-7-142q-52-13-106-19.5T397-281q-169 0-267 71.5T32-15q0 129 110 218t316 126q-53 12-98 18.5t-79 6.5q-59 0-114.5-11T57 310L21 434q61 23 118.5 34T261 479q89 0 208-33.5T690 359l-28-109q-238-2-372-67.5T156 8q0-72 57.5-108T385-136q62 0 117.5 5.5T617-113zM404 625l-72-71-72 71 72 72z"/><glyph glyph-name="dal" unicode="د" horiz-adv-x="631" d="m213 398 73 124q125-65 204-192.5T559 66Q505 27 436 8.5T277-10q-76 0-145 12T19 35l54 134q50-17 100-26t100-9q58 0 97.5 6t70.5 20q-31 68-92.5 133T213 398z"/><glyph glyph-name="zal" unicode="ذ" horiz-adv-x="631" d="m213 398 73 124q125-65 204-192.5T559 66Q505 27 436 8.5T277-10q-76 0-145 12T19 35l54 134q50-17 100-26t100-9q58 0 97.5 6t70.5 20q-31 68-92.5 133T213 398zm130 279-72-71-72 71 72 72z"/><glyph glyph-name="dalTa" unicode="ڈ" horiz-adv-x="631" d="m213 398 73 124q125-65 204-192.5T559 66Q505 27 436 8.5T277-10q-76 0-145 12T19 35l54 134q50-17 100-26t100-9q58 0 97.5 6t70.5 20q-31 68-92.5 133T213 398zm210 277q0-17-5.5-34T403 610q-32-8-76-12t-99-4q-32 0-63 4.5T110 612l21 62q15-4 25.5-6t20.5-3q3 11 6.5 21t8.5 19v159h64v-98q14 11 30 16t34 5q46 0 74.5-31t28.5-81zm-66-6q0 24-13 37.5T308 720q-24 0-42-15t-28-42q41 0 71 1.5t48 4.5z"/><glyph glyph-name="reh" unicode="ر" horiz-adv-x="582" d="m311 311 125 55q37-89 55.5-157.5T510 89q0-71-23-135t-65-116q-47-56-109-87.5T187-281q-44 0-79.5 6.5T37-252l28 106q24-5 41.5-7t34.5-2q78 0 150.5 52.5T404 37q-5 47-29 117.5T311 311z"/><glyph glyph-name="zeh" unicode="ز" horiz-adv-x="582" d="m311 311 125 55q37-89 55.5-157.5T510 89q0-71-23-135t-65-116q-47-56-109-87.5T187-281q-44 0-79.5 6.5T37-252l28 106q24-5 41.5-7t34.5-2q78 0 150.5 52.5T404 37q-5 47-29 117.5T311 311zm75 217-72-71-72 71 72 72z"/><glyph glyph-name="zheh" unicode="ژ" horiz-adv-x="582" d="m311 311 125 55q37-89 55.5-157.5T510 89q0-71-23-135t-65-116q-47-56-109-87.5T187-281q-44 0-79.5 6.5T37-252l28 106q24-5 41.5-7t34.5-2q78 0 150.5 52.5T404 37q-5 47-29 117.5T311 311zm75 347-72-71-72 71 72 72zm-72-133-68-68-73 71 73 72 68-69 68 69 73-72-73-71z"/><glyph glyph-name="rehTa" unicode="ڑ" horiz-adv-x="582" d="m311 311 125 55q37-89 55.5-157.5T510 89q0-71-23-135t-65-116q-47-56-109-87.5T187-281q-44 0-79.5 6.5T37-252l28 106q24-5 41.5-7t34.5-2q78 0 150.5 52.5T404 37q-5 47-29 117.5T311 311zm155 215q0-17-5.5-34T446 461q-32-8-76-12t-99-4q-32 0-63 4.5T153 463l21 62q15-4 25.5-6t20.5-3q3 11 6.5 21t8.5 19v159h64v-98q14 11 30 16t34 5q46 0 74.5-31t28.5-81zm-66-6q0 24-13 37.5T351 571q-24 0-42-15t-28-42q41 0 71 1.5t48 4.5z"/><glyph glyph-name="sin" unicode="س" horiz-adv-x="1341" d="M640 21q3-53 3-94.5t-3-81.5q-61-47-143-74t-166-27q-122 0-191 58.5T71-35q0 44 15 92.5t45 98.5l91-40q-15-34-22.5-62T192 2q0-60 39.5-87.5T356-113q46 0 93 10.5T533-73q0 73-17.5 163.5T460 307l123 36 26-91q18-61 48-89.5t77-28.5q46 0 72.5 31t26.5 84v81h119v-81q0-57 23.5-86t69.5-29q29 0 53.5 8t48.5 26q-5 54-14 98.5t-24 89.5l121 42q25-82 29-167.5T1245 56q-39-33-82-49.5T1074-10q-56 0-94.5 25T919 91q-24-47-72.5-74T738-10q-33 0-57.5 7.5T640 21z"/><glyph glyph-name="shin" unicode="ش" horiz-adv-x="1341" d="M640 21q3-53 3-94.5t-3-81.5q-61-47-143-74t-166-27q-122 0-191 58.5T71-35q0 44 15 92.5t45 98.5l91-40q-15-34-22.5-62T192 2q0-60 39.5-87.5T356-113q46 0 93 10.5T533-73q0 73-17.5 163.5T460 307l123 36 26-91q18-61 48-89.5t77-28.5q46 0 72.5 31t26.5 84v81h119v-81q0-57 23.5-86t69.5-29q29 0 53.5 8t48.5 26q-5 54-14 98.5t-24 89.5l121 42q25-82 29-167.5T1245 56q-39-33-82-49.5T1074-10q-56 0-94.5 25T919 91q-24-47-72.5-74T738-10q-33 0-57.5 7.5T640 21zm321 626-72-71-72 71 72 72zm-72-133-68-68-73 71 73 72 68-69 68 69 73-72-73-71z"/><glyph glyph-name="sad" unicode="ص" horiz-adv-x="1275" d="M641 8q3-52 2.5-90.5T640-155q-61-47-143-74t-166-27q-122 0-191 58.5T71-35q0 44 15 92.5t45 98.5l91-40q-15-34-22.5-62T192 2q0-60 39.5-87.5T356-113q46 0 93 10.5T533-73q0 71-17.5 163.5T460 307l123 36q14-47 24.5-91t20.5-94q38 141 123.5 217T957 451q108 0 181-76t73-193q0-33-9.5-70.5T1176 44q-54-23-141-33.5T802 0q-48 0-90 2t-71 6zm446 159q0 67-40.5 108T940 316q-74 0-128.5-44T729 145q13-1 29-1h51q113 0 177 5.5t101 17.5z"/><glyph glyph-name="zad" unicode="ض" horiz-adv-x="1275" d="M641 8q3-52 2.5-90.5T640-155q-61-47-143-74t-166-27q-122 0-191 58.5T71-35q0 44 15 92.5t45 98.5l91-40q-15-34-22.5-62T192 2q0-60 39.5-87.5T356-113q46 0 93 10.5T533-73q0 71-17.5 163.5T460 307l123 36q14-47 24.5-91t20.5-94q38 141 123.5 217T957 451q108 0 181-76t73-193q0-33-9.5-70.5T1176 44q-54-23-141-33.5T802 0q-48 0-90 2t-71 6zm446 159q0 67-40.5 108T940 316q-74 0-128.5-44T729 145q13-1 29-1h51q113 0 177 5.5t101 17.5zm-72 429-72-71-72 71 72 72z"/><glyph glyph-name="ta" unicode="ط" horiz-adv-x="812" d="M748 182q0-33-9.5-70.5T713 44q-63-23-164-33.5T277 0q-76 0-147 10T10 38l50 134q21-7 44.5-12t49.5-9q8 29 18 55.5t21 49.5v449h119V381q39 35 84 52.5t97 17.5q109 0 182-75.5T748 182zm-124-15q0 67-40.5 108T476 316q-71 0-123.5-44T273 144q126 1 211.5 6.5T624 167z"/><glyph glyph-name="za" unicode="ظ" horiz-adv-x="812" d="M748 182q0-33-9.5-70.5T713 44q-63-23-164-33.5T277 0q-76 0-147 10T10 38l50 134q21-7 44.5-12t49.5-9q8 29 18 55.5t21 49.5v449h119V381q39 35 84 52.5t97 17.5q109 0 182-75.5T748 182zm-124-15q0 67-40.5 108T476 316q-71 0-123.5-44T273 144q126 1 211.5 6.5T624 167zm24 429-72-71-72 71 72 72z"/><glyph glyph-name="eyn" unicode="ع" horiz-adv-x="665" d="M233 415q5-67 41-120.5t78-53.5q16 0 55.5 8.5T523 278l14-120-147-36Q267 92 217 60.5T167-22q0-56 58-85t172-29q57 0 112 5.5T625-113l-7-142q-46-12-102-19t-108-7q-167 0-263 66.5T49-32q0 65 37 116.5T198 175q-40 41-62 94.5T114 380q0 80 55.5 133T308 566q46 0 87.5-13t81.5-40l-31-103q-33 13-65 19.5t-61 6.5q-26 0-48-5.5T233 415z"/><glyph glyph-name="gheyn" unicode="غ" horiz-adv-x="665" d="M233 415q5-67 41-120.5t78-53.5q16 0 55.5 8.5T523 278l14-120-147-36Q267 92 217 60.5T167-22q0-56 58-85t172-29q57 0 112 5.5T625-113l-7-142q-46-12-102-19t-108-7q-167 0-263 66.5T49-32q0 65 37 116.5T198 175q-40 41-62 94.5T114 380q0 80 55.5 133T308 566q46 0 87.5-13t81.5-40l-31-103q-33 13-65 19.5t-61 6.5q-26 0-48-5.5T233 415zm152 295-72-71-72 71 72 72z"/><glyph glyph-name="feh" unicode="ف" horiz-adv-x="853" d="m635 750-73-71-72 71 72 72zM362 384q0 92 58 164t136 72q93 0 166.5-96.5T796 306q0-166-96-241T393-10q-172 0-262.5 61T40 227q0 40 15 82t42 78l84-44q-13-28-18-47.5t-5-40.5q0-63 60-92t191-29q133 0 199 29.5t79 93.5q-31-11-67-16.5t-76-5.5q-90 0-136 38t-46 111zm187 103q-31 0-53-24.5T474 404q0-29 23-42.5t73-13.5q29 0 57 3t55 10q-15 57-51.5 91.5T549 487z"/><glyph glyph-name="ghaf" unicode="ق" horiz-adv-x="759" d="m468 513-69-67-72 71 72 72 69-68 69 68 72-72-72-71zm176-241q29-47 44-103t15-116q0-160-92.5-247T345-281q-143 0-224 66T40-34q0 44 15.5 90.5T97 139l84-44q-12-25-17.5-48T158 1q0-67 52-102t151-35q105 0 162 38t68 115Q561 3 526.5-4T450-11q-88 0-135 43.5T268 157q0 92 58 164t136 72q51 0 99-32t83-89zm-58-139q-14 61-49 95.5T456 263q-30 0-52.5-25.5T381 177q0-29 22.5-42t72.5-13q30 0 57.5 2.5T586 133z"/><glyph glyph-name="kaf" unicode="ک" horiz-adv-x="839" d="M158 243q0-56 50.5-82.5T366 134q89 0 164.5 13t99.5 31q-4 19-23 50.5T550 309l-78 106q-24 31-34.5 51T427 504q0 23 10.5 42t31.5 32q62 44 160 81.5T824 715l26-118q-74-16-144.5-42T567 493q112-137 151.5-202T758 173q0-90-101-136.5T359-10q-154 0-236.5 56.5T40 208q0 42 15 84.5T97 373l84-44q-12-25-17.5-45.5T158 243z"/><glyph glyph-name="gaf" unicode="گ" horiz-adv-x="877" d="m449 651-23 74q58 32 136 62t154 49l21-76q-73-19-152-48.5T449 651zM158 243q0-56 50.5-82.5T366 134q89 0 164.5 13t99.5 31q-4 19-23 50.5T550 309l-78 106q-24 31-34.5 51T427 504q0 23 10.5 42t31.5 32q63 44 161 82t194 55l26-118q-76-18-147-44t-136-60q112-137 151.5-202T758 173q0-90-101-136.5T359-10q-154 0-236.5 56.5T40 208q0 42 15 84.5T97 373l84-44q-12-25-17.5-45.5T158 243z"/><glyph glyph-name="kafArabic" unicode="ك" horiz-adv-x="800" d="M743 705V307q0-64-6.5-129.5T718 60Q652 28 555.5 9T360-10q-159 0-239.5 55T40 208q0 41 15 84.5T97 373l84-44q-13-26-18-46t-5-40q0-58 55-83.5T392 134q61 0 120.5 7t99.5 19q6 33 9 69.5t3 77.5v398h119zM540 340q0-37-34.5-55T401 267q-30 0-57.5 2.5T296 276l10 71q25-5 51-8t48-3q21 0 39.5 2t31.5 6q-8 7-24 16.5T405 387q-46 26-64 44t-18 42q0 37 44.5 67.5T500 596l16-71q-45-11-76-22.5T390 477l82-50q36-22 52-42t16-45z"/><glyph glyph-name="lam" unicode="ل" horiz-adv-x="683" d="M475-25q6 29 9 69t3 98v563h119V146q0-77-6-139.5T583-102q-47-42-124.5-68.5T305-197q-119 0-188.5 59T47 23q0 44 15 92.5t45 99.5l91-40q-15-34-22.5-62T168 61q0-57 37.5-86T317-54q41 0 82 7.5T475-25z"/><glyph glyph-name="mim" unicode="م" horiz-adv-x="736" d="M156 0q0-46 13.5-116.5T203-249L81-284q-21 70-34 146T34-9q0 100 50 163t140 78q39 110 93.5 164.5T443 451q59 0 114.5-39T647 307q29-56 37-122t-6-135q-34-28-84-44T491-10q-76 0-148 27.5T217 94q-31-7-46-29.5T156 0zm337 127q37 0 55.5 8t18.5 25q0 55-38 102.5T444 310q-36 0-64.5-27.5T320 191q44-32 87-48t86-16z"/><glyph glyph-name="noonGhuna" unicode="ں" horiz-adv-x="744" d="M556-12q4 85-16 189.5T481 384l123 39q51-113 63.5-274T640-111q-50-42-125-64.5T347-198q-140 0-218 69.5T51 66q0 56 21.5 117T131 295l88-45q-24-43-36-82t-12-73q0-76 46-112t143-36q57 0 108 10.5T556-12z"/><glyph glyph-name="noon" unicode="ن" horiz-adv-x="744" d="M556-12q4 85-16 189.5T481 384l123 39q51-113 63.5-274T640-111q-50-42-125-64.5T347-198q-140 0-218 69.5T51 66q0 56 21.5 117T131 295l88-45q-24-43-36-82t-12-73q0-76 46-112t143-36q57 0 108 10.5T556-12zM435 563l-72-71-72 71 72 72z"/><glyph glyph-name="vav" unicode="و" horiz-adv-x="575" d="M68 198q0 102 59.5 177.5T268 451q51 0 99-35.5t81-98.5q26-49 40-107t14-121q0-71-23-136t-67-117q-47-55-109-86t-128-31q-41 0-78 7.5T30-252l27 106q19-4 37.5-6.5T129-155q79 0 147.5 45.5T386 17Q359 4 330-3t-58-7q-98 0-151 54T68 198zm196 110q-37 0-60.5-27T180 211q0-42 22.5-60t76.5-18q28 0 55 3t54 9q-13 80-44.5 121.5T264 308z"/><glyph glyph-name="vavHamzeAbove" unicode="ؤ" horiz-adv-x="575" d="M68 198q0 102 59.5 177.5T268 451q51 0 99-35.5t81-98.5q26-49 40-107t14-121q0-71-23-136t-67-117q-47-55-109-86t-128-31q-41 0-78 7.5T30-252l27 106q19-4 37.5-6.5T129-155q79 0 147.5 45.5T386 17Q359 4 330-3t-58-7q-98 0-151 54T68 198zm196 110q-37 0-60.5-27T180 211q0-42 22.5-60t76.5-18q28 0 55 3t54 9q-13 80-44.5 121.5T264 308zm124 306v-74l-239-35v73l55 8q-11 17-16.5 36t-5.5 39q0 44 27.5 71t71.5 27q23 0 45-7t41-20l-19-58q-26 9-54 11t-43-5q2-32 17.5-55t36.5-23q3 0 10.5 1t30.5 5q16 2 25 3.5t17 2.5z"/><glyph glyph-name="heh" unicode="ه" horiz-adv-x="724" d="M274 43q-35-17-74.5-33T117-20L49-42 5 83l56 19q9 3 19 6.5t29 10.5q15 5 22 7.5t13 4.5q-38 38-57 81t-19 88q0 83 52.5 134.5T260 486q13 0 26.5-2t27.5-6l37 70q156-78 239.5-177T674 169q0-79-38-134t-94-55q-65 0-135.5 16.5T274 43zm-5 326q-43 0-66-18.5T180 297q0-30 22.5-61t64.5-57q52 25 73 51t21 65q0 34-24.5 54T269 369zm122-245q29-8 57.5-12t53.5-4q28 0 41.5 15t13.5 46q0 35-27 76.5T451 332q3-12 4.5-25t1.5-27q0-44-16.5-82.5T391 124z"/><glyph glyph-name="tehArabic" unicode="ة" horiz-adv-x="519" d="M244 470q110-36 167.5-105T469 199q0-93-59.5-151T254-10q-93 0-148.5 52.5T50 181q0 84 49 157t145 132zm6-144q-40-27-61.5-58.5T167 205q0-33 24-52t66-19q44 0 69.5 21t25.5 56q0 34-25.5 62.5T250 326zm-3 269-68-68-73 71 73 72 68-69 68 69 73-72-73-71z"/><glyph glyph-name="hehDocheshm" unicode="ھ" horiz-adv-x="724" d="M274 43q-35-17-74.5-33T117-20L49-42 5 83l56 19q9 3 19 6.5t29 10.5q15 5 22 7.5t13 4.5q-38 38-57 81t-19 88q0 83 52.5 134.5T260 486q13 0 26.5-2t27.5-6l37 70q156-78 239.5-177T674 169q0-79-38-134t-94-55q-65 0-135.5 16.5T274 43zm-5 326q-43 0-66-18.5T180 297q0-30 22.5-61t64.5-57q52 25 73 51t21 65q0 34-24.5 54T269 369zm122-245q29-8 57.5-12t53.5-4q28 0 41.5 15t13.5 46q0 35-27 76.5T451 332q3-12 4.5-25t1.5-27q0-44-16.5-82.5T391 124z"/><glyph glyph-name="hehUrdu" unicode="ہ" horiz-adv-x="519" d="M244 470q110-36 167.5-105T469 199q0-93-59.5-151T254-10q-93 0-148.5 52.5T50 181q0 84 49 157t145 132zm6-144q-40-27-61.5-58.5T167 205q0-33 24-52t66-19q44 0 69.5 21t25.5 56q0 34-25.5 62.5T250 326z"/></font>
</defs>
</svg>
