<svg width="595" height="595" fill="none" xmlns="http://www.w3.org/2000/svg"><g filter="url(#a)"><circle cx="435.787" cy="282.098" r="4" transform="rotate(90 435.787 282.098)" fill="#EB5737" fill-opacity=".3"/><circle cx="406.182" cy="384.388" r="4" transform="rotate(135 406.182 384.388)" fill="#EB5737" fill-opacity=".3"/><circle cx="312.905" cy="435.782" r="4" transform="rotate(-180 312.905 435.782)" fill="#EB5737" fill-opacity=".3"/><circle cx="210.613" cy="406.17" r="4" transform="rotate(-135 210.613 406.17)" fill="#EB5737" fill-opacity=".3"/><circle cx="159.221" cy="312.9" r="4" transform="rotate(-90 159.221 312.9)" fill="#EB5737" fill-opacity=".3"/><circle cx="188.836" cy="210.608" r="4" transform="rotate(-45 188.836 210.608)" fill="#EB5737" fill-opacity=".3"/><circle cx="282.1" cy="159.216" r="4" fill="#EB5737" fill-opacity=".3"/><circle cx="384.399" cy="188.824" r="4" transform="rotate(45 384.399 188.824)" fill="#EB5737" fill-opacity=".3"/><circle cx="439.267" cy="133.953" r="3.5" transform="rotate(45 439.267 133.953)" stroke="#EB5737" stroke-opacity=".3"/><circle cx="491.07" cy="200.651" r="3.5" transform="rotate(67.5 491.07 200.651)" stroke="#EB5737" stroke-opacity=".3"/><circle cx="513.394" cy="282.095" r="3.5" transform="rotate(90 513.394 282.095)" stroke="#EB5737" stroke-opacity=".3"/><circle cx="502.857" cy="365.887" r="3.5" transform="rotate(112.5 502.857 365.887)" stroke="#EB5737" stroke-opacity=".3"/><circle cx="461.044" cy="439.266" r="3.5" transform="rotate(135 461.044 439.266)" stroke="#EB5737" stroke-opacity=".3"/><circle cx="394.353" cy="491.061" r="3.5" transform="rotate(157.5 394.353 491.061)" stroke="#EB5737" stroke-opacity=".3"/><circle cx="312.899" cy="513.388" r="3.5" transform="rotate(180 312.899 513.388)" stroke="#EB5737" stroke-opacity=".3"/><circle cx="229.107" cy="502.852" r="3.5" transform="rotate(-157.5 229.107 502.852)" stroke="#EB5737" stroke-opacity=".3"/><circle cx="155.739" cy="461.05" r="3.5" transform="rotate(-135 155.739 461.05)" stroke="#EB5737" stroke-opacity=".3"/><circle cx="103.936" cy="394.351" r="3.5" transform="rotate(-112.5 103.936 394.351)" stroke="#EB5737" stroke-opacity=".3"/><circle cx="81.609" cy="312.903" r="3.5" transform="rotate(-90 81.61 312.903)" stroke="#EB5737" stroke-opacity=".3"/><circle cx="92.139" cy="229.111" r="3.5" transform="rotate(-67.5 92.139 229.111)" stroke="#EB5737" stroke-opacity=".3"/><circle cx="133.956" cy="155.734" r="3.5" transform="rotate(-45 133.956 155.734)" stroke="#EB5737" stroke-opacity=".3"/><circle cx="200.657" cy="103.937" r="3.5" transform="rotate(-22.5 200.657 103.937)" stroke="#EB5737" stroke-opacity=".3"/><circle cx="282.094" cy="81.607" r="3.5" stroke="#EB5737" stroke-opacity=".3"/><circle cx="365.893" cy="92.15" r="3.5" transform="rotate(22.5 365.893 92.15)" stroke="#EB5737" stroke-opacity=".3"/></g><circle cx="430.917" cy="35.621" r="4" transform="rotate(30 430.917 35.621)" fill="#EB5737" fill-opacity=".3"/><circle cx="494.155" cy="79.071" r="4" transform="rotate(45 494.155 79.071)" fill="#EB5737" fill-opacity=".3"/><circle cx="543.983" cy="137.412" r="4" transform="rotate(60 543.983 137.412)" fill="#EB5737" fill-opacity=".3"/><circle cx="577.018" cy="206.656" r="4" transform="rotate(75 577.018 206.656)" fill="#EB5737" fill-opacity=".3"/><circle cx="591" cy="282.099" r="4" transform="rotate(90 591 282.099)" fill="#EB5737" fill-opacity=".3"/><circle cx="584.979" cy="358.584" r="4" transform="rotate(105 584.979 358.584)" fill="#EB5737" fill-opacity=".3"/><circle cx="559.379" cy="430.91" r="4" transform="rotate(120 559.379 430.91)" fill="#EB5737" fill-opacity=".3"/><circle cx="515.922" cy="494.145" r="4" transform="rotate(135 515.922 494.145)" fill="#EB5737" fill-opacity=".3"/><circle cx="457.583" cy="543.98" r="4" transform="rotate(150 457.583 543.98)" fill="#EB5737" fill-opacity=".3"/><circle cx="388.337" cy="577.015" r="4" transform="rotate(165 388.337 577.015)" fill="#EB5737" fill-opacity=".3"/><circle cx="312.899" cy="591" r="4" transform="rotate(180 312.899 591)" fill="#EB5737" fill-opacity=".3"/><circle cx="236.417" cy="584.986" r="4" transform="rotate(-165 236.417 584.986)" fill="#EB5737" fill-opacity=".3"/><circle cx="164.083" cy="559.375" r="4" transform="rotate(-150 164.083 559.375)" fill="#EB5737" fill-opacity=".3"/><circle cx="100.845" cy="515.929" r="4" transform="rotate(-135 100.845 515.929)" fill="#EB5737" fill-opacity=".3"/><circle cx="51.017" cy="457.59" r="4" transform="rotate(-120 51.017 457.59)" fill="#EB5737" fill-opacity=".3"/><circle cx="17.992" cy="388.339" r="4" transform="rotate(-105 17.992 388.339)" fill="#EB5737" fill-opacity=".3"/><circle cx="4" cy="312.901" r="4" transform="rotate(-90 4 312.901)" fill="#EB5737" fill-opacity=".3"/><circle cx="10.021" cy="236.416" r="4" transform="rotate(-75 10.021 236.416)" fill="#EB5737" fill-opacity=".3"/><circle cx="35.621" cy="164.088" r="4" transform="rotate(-60 35.621 164.088)" fill="#EB5737" fill-opacity=".3"/><circle cx="79.078" cy="100.855" r="4" transform="rotate(-45 79.078 100.855)" fill="#EB5737" fill-opacity=".3"/><circle cx="137.417" cy="51.024" r="4" transform="rotate(-30 137.417 51.024)" fill="#EB5737" fill-opacity=".3"/><circle cx="206.663" cy="17.988" r="4" transform="rotate(-15 206.663 17.988)" fill="#EB5737" fill-opacity=".3"/><circle cx="282.101" cy="4" r="4" fill="#EB5737" fill-opacity=".3"/><circle cx="358.583" cy="10.014" r="4" transform="rotate(15 358.583 10.014)" fill="#EB5737" fill-opacity=".3"/><defs><filter id="a" x="72.609" y="72.606" width="449.785" height="449.783" filterUnits="userSpaceOnUse" color-interpolation-filters="sRGB"><feFlood flood-opacity="0" result="BackgroundImageFix"/><feBlend in="SourceGraphic" in2="BackgroundImageFix" result="shape"/><feGaussianBlur stdDeviation="2.5" result="effect1_foregroundBlur_2_197"/></filter></defs></svg>