<svg width="461" height="587" fill="none" xmlns="http://www.w3.org/2000/svg"><path opacity=".034" d="M40.843 200.605c1.914-6.112 8.38-9.341 19.083-9.465 10.626-.122 25.09 2.829 42.399 8.561 34.602 11.459 80.367 33.962 129.078 64.808 48.711 30.846 91.09 64.159 120.228 93.063 14.575 14.458 25.794 27.771 32.839 39.083 7.096 11.395 9.732 20.388 7.818 26.5-1.915 6.112-8.38 9.342-19.084 9.465-10.626.122-25.091-2.829-42.399-8.56-34.602-11.459-80.367-33.963-129.078-64.809-48.711-30.845-91.09-64.158-120.228-93.063-14.575-14.458-25.793-27.77-32.838-39.083-7.096-11.395-9.733-20.388-7.818-26.5Z" stroke="#B4462E" stroke-opacity=".15" stroke-width="2"/><path opacity=".069" d="M46.652 181.062c1.17-2.878 3.42-4.941 6.766-6.153 3.354-1.215 7.757-1.555 13.122-1.027 10.727 1.056 25.108 5.562 42.161 13.12 34.091 15.108 78.662 42.322 125.619 78.071 46.957 35.749 87.358 73.227 114.718 104.902 13.685 15.845 24.068 30.192 30.383 42.11 3.157 5.96 5.269 11.261 6.284 15.801 1.013 4.532.92 8.237-.249 11.115-1.17 2.878-3.42 4.941-6.767 6.153-3.353 1.215-7.757 1.555-13.121 1.027-10.728-1.056-25.109-5.562-42.162-13.119-34.09-15.109-78.662-42.322-125.618-78.072-46.957-35.749-87.358-73.227-114.718-104.902-13.686-15.844-24.069-30.192-30.383-42.11-3.157-5.96-5.27-11.26-6.285-15.801-1.013-4.532-.92-8.236.25-11.115Z" stroke="#B4462E" stroke-opacity=".15" stroke-width="2"/><path opacity=".103" d="M53.762 162.497c1.37-2.683 3.77-4.462 7.23-5.285 3.467-.824 7.932-.672 13.307.442 10.746 2.227 24.935 8.256 41.602 17.581 33.319 18.644 76.357 50.361 121.202 90.742 44.844 40.381 82.96 81.739 108.332 115.945 12.692 17.11 22.16 32.384 27.694 44.818 2.768 6.218 4.527 11.67 5.233 16.252.705 4.573.349 8.192-1.022 10.876-1.37 2.683-3.77 4.462-7.23 5.285-3.466.824-7.932.672-13.306-.442-10.747-2.227-24.936-8.255-41.602-17.581-33.319-18.644-76.357-50.361-121.202-90.742-44.845-40.381-82.96-81.739-108.333-115.945-12.691-17.11-22.16-32.384-27.694-44.818-2.768-6.218-4.527-11.67-5.233-16.252-.704-4.573-.348-8.192 1.022-10.876Z" stroke="#B4462E" stroke-opacity=".15" stroke-width="2"/><path opacity=".138" d="M62.106 145.037c1.557-2.47 4.088-3.954 7.636-4.381 3.552-.428 8.046.216 13.39 1.907 10.683 3.383 24.571 10.888 40.724 21.912 32.293 22.037 73.47 58.018 115.861 102.723 42.391 44.706 77.929 89.63 101.12 126.106 11.601 18.246 20.081 34.33 24.793 47.185 2.357 6.429 3.75 11.992 4.141 16.579.39 4.581-.224 8.087-1.781 10.557-1.557 2.47-4.088 3.954-7.636 4.381-3.553.428-8.046-.216-13.39-1.908-10.684-3.382-24.571-10.887-40.725-21.911-32.293-22.038-73.469-58.018-115.86-102.724-42.391-44.705-77.929-89.629-101.12-126.106-11.601-18.245-20.081-34.329-24.793-47.184-2.357-6.429-3.75-11.992-4.141-16.579-.39-4.581.224-8.087 1.78-10.557Z" stroke="#B4462E" stroke-opacity=".15" stroke-width="2"/><path opacity=".172" d="M71.61 128.805c1.728-2.24 4.371-3.422 7.98-3.45 3.613-.028 8.1 1.104 13.372 3.361 10.539 4.512 24.019 13.438 39.536 26.076 31.021 25.265 70.021 65.234 109.635 113.924 39.614 48.691 72.304 96.839 93.137 135.308 10.42 19.242 17.847 36.014 21.7 49.191 1.928 6.592 2.943 12.224 3.016 16.782.074 4.554-.792 7.92-2.521 10.161-1.728 2.24-4.371 3.421-7.98 3.45-3.613.028-8.1-1.104-13.372-3.361-10.539-4.513-24.019-13.438-39.536-26.076-31.021-25.265-70.022-65.234-109.635-113.925-39.614-48.69-72.304-96.838-93.137-135.307-10.42-19.242-17.847-36.014-21.7-49.192-1.928-6.591-2.943-12.223-3.016-16.781-.074-4.555.792-7.921 2.52-10.161Z" stroke="#B4462E" stroke-opacity=".15" stroke-width="2"/><path opacity=".207" d="M82.208 113.909c1.884-1.998 4.619-2.871 8.263-2.499 3.644.372 8.091 1.983 13.251 4.789 10.313 5.609 23.283 15.887 38.045 30.043 29.511 28.3 66.039 71.954 102.573 124.259 36.535 52.304 66.128 103.309 84.442 143.478 9.161 20.093 15.477 37.424 18.441 50.824 1.483 6.704 2.112 12.361 1.867 16.856-.244 4.494-1.353 7.695-3.237 9.692-1.885 1.998-4.62 2.871-8.264 2.499-3.644-.372-8.091-1.983-13.25-4.789-10.314-5.609-23.284-15.887-38.045-30.043-29.512-28.3-66.039-71.954-102.574-124.258-36.534-52.305-66.127-103.31-84.442-143.479-9.16-20.093-15.477-37.424-18.44-50.824-1.484-6.704-2.113-12.361-1.868-16.856.245-4.494 1.353-7.695 3.238-9.692Z" stroke="#B4462E" stroke-opacity=".15" stroke-width="2"/><path opacity=".241" d="M93.818 100.45c2.024-1.744 4.832-2.305 8.483-1.535 3.649.77 8.021 2.848 13.029 6.181 10.009 6.664 22.368 18.217 36.262 33.783 27.777 31.119 61.552 78.127 94.729 133.647 33.177 55.519 59.446 108.994 75.102 150.557 7.832 20.789 12.988 38.549 15.04 52.068 1.026 6.764 1.265 12.403.704 16.801-.562 4.399-1.903 7.413-3.928 9.157-2.024 1.745-4.831 2.305-8.482 1.535-3.649-.769-8.022-2.847-13.029-6.181-10.009-6.663-22.369-18.216-36.263-33.782-27.776-31.12-61.552-78.127-94.729-133.647-33.177-55.52-59.446-108.995-75.102-150.557-7.831-20.79-12.988-38.549-15.04-52.069-1.026-6.763-1.265-12.403-.703-16.8.562-4.4 1.903-7.414 3.927-9.158Z" stroke="#B4462E" stroke-opacity=".15" stroke-width="2"/><path opacity=".276" d="M106.334 88.518c2.149-1.483 5.009-1.728 8.639-.566 3.626 1.161 7.891 3.69 12.708 7.527 9.627 7.667 21.282 20.407 34.202 37.265 25.829 33.702 56.595 83.704 86.161 142.017 29.567 58.313 52.312 113.849 65.19 156.489 6.441 21.328 10.399 39.379 11.522 52.915.561 6.772.408 12.35-.466 16.617-.875 4.271-2.437 7.077-4.586 8.56-2.149 1.482-5.009 1.728-8.639.565-3.626-1.161-7.891-3.69-12.707-7.526-9.628-7.668-21.283-20.407-34.202-37.265-25.83-33.702-56.596-83.704-86.162-142.017-29.567-58.313-52.312-113.85-65.19-156.489-6.441-21.328-10.398-39.38-11.521-52.915-.562-6.772-.409-12.351.465-16.617.875-4.271 2.437-7.077 4.586-8.56Z" stroke="#B4462E" stroke-opacity=".15" stroke-width="2"/><path opacity=".31" d="M119.664 78.19c2.259-1.216 5.153-1.145 8.734.402 3.575 1.544 7.699 4.506 12.288 8.815 9.172 8.613 20.032 22.442 31.879 40.463 23.685 36.028 51.207 88.643 76.937 149.305 25.731 60.662 44.778 117.837 54.779 161.228 5.003 21.704 7.73 39.91 7.916 53.358.092 6.728-.453 12.202-1.633 16.305-1.182 4.109-2.952 6.69-5.21 7.905-2.259 1.215-5.153 1.145-8.734-.402-3.575-1.545-7.699-4.507-12.288-8.816-9.172-8.612-20.032-22.441-31.879-40.462-23.685-36.028-51.207-88.644-76.937-149.306-25.731-60.661-44.778-117.837-54.779-161.228-5.003-21.704-7.73-39.909-7.915-53.357-.093-6.728.452-12.203 1.632-16.306 1.182-4.109 2.952-6.69 5.21-7.904Z" stroke="#B4462E" stroke-opacity=".15" stroke-width="2"/><path opacity=".345" d="M133.714 69.529c2.354-.944 5.263-.557 8.767 1.362 3.497 1.916 7.448 5.288 11.774 10.037 8.646 9.492 18.628 24.305 29.313 43.352 21.36 38.079 45.427 92.907 67.125 155.456 21.698 62.548 36.903 120.927 43.951 164.738 3.525 21.914 5.001 40.135 4.247 53.391-.377 6.633-1.31 11.961-2.787 15.869-1.479 3.916-3.443 6.254-5.798 7.197-2.354.943-5.263.556-8.767-1.363-3.497-1.916-7.448-5.288-11.773-10.037-8.646-9.492-18.629-24.305-29.313-43.351-21.36-38.079-45.428-92.908-67.126-155.457-21.698-62.548-36.903-120.927-43.95-164.738-3.526-21.914-5.002-40.134-4.248-53.391.378-6.633 1.31-11.961 2.787-15.869 1.48-3.915 3.444-6.253 5.798-7.196Z" stroke="#B4462E" stroke-opacity=".15" stroke-width="2"/><path opacity=".379" d="M148.351 62.588c2.437-.667 5.342.034 8.741 2.311 3.392 2.272 7.139 6.028 11.168 11.181 8.054 10.299 17.083 25.982 26.522 45.909 18.872 39.84 39.301 96.463 56.802 160.422 17.501 63.959 28.746 123.096 32.787 166.994 2.021 21.957 2.235 40.052.547 53.016-.845 6.487-2.158 11.627-3.92 15.31-1.766 3.69-3.909 5.772-6.346 6.439-2.437.667-5.342-.034-8.741-2.311-3.391-2.272-7.139-6.028-11.168-11.181-8.054-10.299-17.082-25.982-26.522-45.909-18.872-39.84-39.301-96.463-56.802-160.422-17.501-63.959-28.746-123.096-32.787-166.994-2.021-21.957-2.235-40.052-.547-53.016.845-6.487 2.158-11.627 3.92-15.31 1.766-3.69 3.909-5.772 6.346-6.439Z" stroke="#B4462E" stroke-opacity=".15" stroke-width="2"/><path opacity=".414" d="M163.47 57.407c2.507-.388 5.388.625 8.654 3.242 3.261 2.611 6.777 6.722 10.479 12.239 7.398 11.026 15.404 27.459 23.527 48.115 16.24 41.297 32.876 99.283 46.046 164.166 13.17 64.882 20.37 124.325 21.373 167.975.501 21.833-.549 39.665-3.158 52.236-1.305 6.29-2.989 11.204-5.023 14.633-2.039 3.436-4.346 5.249-6.852 5.636-2.507.387-5.387-.625-8.654-3.242-3.261-2.611-6.776-6.722-10.478-12.239-7.399-11.026-15.405-27.459-23.527-48.115-16.24-41.297-32.876-99.283-46.046-164.166-13.17-64.882-20.371-124.325-21.373-167.975-.502-21.833.548-39.665 3.157-52.236 1.305-6.29 2.989-11.204 5.024-14.633 2.038-3.436 4.345-5.25 6.851-5.636Z" stroke="#B4462E" stroke-opacity=".15" stroke-width="2"/><path opacity=".448" d="M178.955 54.01c2.562-.104 5.399 1.216 8.508 4.15 3.105 2.932 6.361 7.365 9.707 13.204 6.688 11.669 13.609 28.726 20.354 49.953 13.483 42.439 26.199 101.346 34.938 166.657 8.739 65.312 11.84 124.609 9.797 167.677-1.022 21.542-3.328 38.974-6.837 51.057-1.756 6.045-3.797 10.694-6.088 13.843-2.295 3.155-4.75 4.689-7.312 4.793-2.563.104-5.4-1.216-8.509-4.151-3.105-2.931-6.361-7.365-9.707-13.203-6.687-11.669-13.609-28.727-20.353-49.954-13.484-42.438-26.2-101.346-34.939-166.657s-11.84-124.609-9.797-167.676c1.022-21.542 3.328-38.975 6.838-51.057 1.755-6.045 3.796-10.694 6.087-13.843 2.295-3.155 4.75-4.69 7.313-4.793Z" stroke="#B4462E" stroke-opacity=".15" stroke-width="2"/><path opacity=".483" d="M194.678 52.412c2.604.182 5.378 1.802 8.305 5.033 2.925 3.227 5.897 7.95 8.861 14.065 5.925 12.221 11.71 29.773 17.024 51.409 10.626 43.256 19.324 102.636 23.566 167.878 4.241 65.243 3.219 123.943-1.853 166.101-2.537 21.086-6.082 37.985-10.465 49.486-2.193 5.754-4.575 10.102-7.105 12.948-2.532 2.849-5.119 4.094-7.724 3.912-2.604-.183-5.377-1.803-8.305-5.033-2.924-3.227-5.896-7.95-8.861-14.065-5.925-12.222-11.709-29.773-17.024-51.41-10.625-43.255-19.324-102.635-23.565-167.878-4.242-65.242-3.219-123.942 1.853-166.1 2.537-21.087 6.082-37.986 10.465-49.487 2.192-5.754 4.575-10.102 7.105-12.948 2.532-2.848 5.119-4.093 7.723-3.911Z" stroke="#B4462E" stroke-opacity=".15" stroke-width="2"/><path opacity=".517" d="M210.516 52.607c2.63.47 5.319 2.382 8.043 5.883 2.722 3.499 5.388 8.474 7.948 14.818 5.117 12.68 9.721 30.592 13.565 52.472 7.686 43.743 12.302 103.143 12.014 167.82-.288 64.677-5.426 122.332-13.489 163.258-4.033 20.471-8.788 36.707-14.011 47.538-2.612 5.419-5.318 9.433-8.067 11.954-2.75 2.521-5.452 3.468-8.082 2.997-2.63-.47-5.319-2.381-8.043-5.882-2.722-3.499-5.387-8.474-7.947-14.818-5.118-12.681-9.721-30.592-13.566-52.472-7.686-43.744-12.302-103.143-12.013-167.82.288-64.677 5.425-122.332 13.488-163.258 4.033-20.471 8.789-36.707 14.011-47.539 2.613-5.418 5.318-9.433 8.067-11.953 2.75-2.521 5.452-3.468 8.082-2.998Z" stroke="#B4462E" stroke-opacity=".15" stroke-width="2"/><path opacity=".552" d="M226.343 54.582c2.639.76 5.223 2.95 7.722 6.694 2.499 3.744 4.837 8.934 6.974 15.458 4.271 13.043 7.659 31.176 10.004 53.133 4.688 43.897 5.187 102.864.371 166.482-4.815 63.619-14.028 119.789-25.02 159.172-5.498 19.699-11.427 35.149-17.448 45.228-3.013 5.042-6.02 8.692-8.967 10.868-2.947 2.175-5.746 2.816-8.384 2.056-2.639-.76-5.223-2.951-7.722-6.694-2.499-3.744-4.838-8.934-6.974-15.458-4.271-13.042-7.659-31.175-10.004-53.133-4.689-43.897-5.187-102.864-.372-166.482 4.815-63.619 14.028-119.789 25.02-159.171 5.498-19.7 11.428-35.15 17.449-45.228 3.012-5.042 6.02-8.693 8.967-10.868 2.947-2.175 5.745-2.817 8.384-2.057Z" stroke="#B4462E" stroke-opacity=".15" stroke-width="2"/><path opacity=".586" d="M242.039 58.306c2.628 1.048 5.087 3.504 7.343 7.462 2.257 3.96 4.251 9.324 5.948 15.978 3.392 13.304 5.539 31.521 6.368 53.388 1.655 43.716-1.968 101.8-11.273 163.876-9.305 62.076-22.523 116.334-36.359 153.872-6.921 18.777-13.979 33.323-20.753 42.573-3.388 4.627-6.674 7.885-9.797 9.7-3.121 1.813-5.997 2.142-8.626 1.094-2.628-1.048-5.087-3.505-7.343-7.462-2.257-3.961-4.251-9.324-5.948-15.979-3.392-13.304-5.539-31.52-6.367-53.387-1.656-43.717 1.967-101.801 11.272-163.876 9.306-62.076 22.524-116.334 36.36-153.873 6.92-18.777 13.978-33.322 20.752-42.572 3.388-4.627 6.674-7.885 9.797-9.7 3.121-1.814 5.998-2.142 8.626-1.094Z" stroke="#B4462E" stroke-opacity=".15" stroke-width="2"/><path opacity=".621" d="M257.471 63.735c2.598 1.333 4.912 4.038 6.908 8.18 1.998 4.147 3.632 9.644 4.877 16.378 2.489 13.463 3.379 31.623 2.684 53.233-1.389 43.202-9.104 99.962-22.829 160.022-13.724 60.06-30.846 111.992-47.42 147.401-8.29 17.712-16.422 31.243-23.895 39.593-3.738 4.177-7.278 7.019-10.553 8.459-3.272 1.439-6.206 1.45-8.804.117-2.597-1.333-4.911-4.038-6.907-8.179-1.999-4.147-3.633-9.644-4.877-16.378-2.489-13.463-3.379-31.624-2.684-53.234 1.389-43.202 9.104-99.961 22.829-160.021 13.724-60.061 30.845-111.993 47.42-147.402 8.29-17.712 16.422-31.242 23.895-39.593 3.738-4.176 7.278-7.019 10.553-8.459 3.271-1.438 6.206-1.45 8.803-.117Z" stroke="#B4462E" stroke-opacity=".15" stroke-width="2"/><path opacity=".655" d="M272.528 70.814c2.546 1.612 4.695 4.546 6.417 8.84 1.725 4.303 2.987 9.892 3.77 16.653 1.567 13.519 1.194 31.485-1.018 52.674-4.422 42.358-16.171 97.36-34.209 154.948-18.038 57.587-38.932 106.798-58.118 139.808-9.596 16.512-18.739 28.925-26.855 36.313-4.059 3.695-7.824 6.099-11.227 7.154-3.398 1.054-6.369.745-8.915-.867-2.545-1.612-4.694-4.546-6.416-8.841-1.725-4.302-2.987-9.891-3.771-16.652-1.566-13.519-1.194-31.486 1.018-52.674 4.423-42.358 16.172-97.36 34.21-154.948 18.038-57.587 38.932-106.798 58.117-139.808 9.597-16.512 18.74-28.925 26.856-36.313 4.058-3.695 7.824-6.1 11.227-7.155 3.397-1.053 6.369-.744 8.914.868Z" stroke="#B4462E" stroke-opacity=".15" stroke-width="2"/><path opacity=".69" d="M287.084 79.476c2.472 1.882 4.438 5.023 5.874 9.439 1.438 4.425 2.319 10.062 2.635 16.799.634 13.473-.998 31.108-4.71 51.713-7.422 41.192-23.113 94.018-45.327 148.695-22.215 54.676-46.721 100.791-68.371 131.151-10.829 15.187-20.913 26.387-29.608 32.758-4.348 3.185-8.311 5.135-11.816 5.796-3.498.661-6.485.031-8.957-1.851-2.472-1.882-4.438-5.023-5.873-9.439-1.439-4.425-2.319-10.063-2.636-16.799-.634-13.473.998-31.108 4.711-51.713 7.421-41.192 23.113-94.019 45.327-148.695 22.214-54.676 46.721-100.791 68.37-131.151 10.829-15.187 20.913-26.387 29.608-32.758 4.348-3.185 8.312-5.135 11.817-5.797 3.498-.66 6.484-.03 8.956 1.852Z" stroke="#B4462E" stroke-opacity=".15" stroke-width="2"/><path opacity=".724" d="M301.028 89.637c4.759 4.286 7.069 13.369 6.763 26.789-.304 13.323-3.182 30.493-8.365 50.357-10.363 39.713-29.878 89.961-56.098 141.31-26.22 51.349-54.152 94.018-78.1 121.498-11.979 13.745-22.926 23.649-32.134 28.954-9.276 5.344-16.484 5.856-21.244 1.57-4.76-4.286-7.069-13.368-6.763-26.789.304-13.323 3.182-30.493 8.365-50.357 10.363-39.713 29.877-89.961 56.098-141.31 26.22-51.349 54.152-94.018 78.1-121.498 11.979-13.745 22.926-23.65 32.134-28.954 9.276-5.344 16.484-5.855 21.244-1.57Z" stroke="#B4462E" stroke-opacity=".15" stroke-width="2"/><path opacity=".759" d="M314.246 101.206c4.522 4.769 6.207 13.983 4.961 27.137-1.238 13.073-5.339 29.647-11.954 48.62-13.224 37.931-36.412 85.219-66.438 132.851-30.027 47.631-61.171 86.529-87.234 110.92-13.037 12.2-24.763 20.733-34.414 24.933-9.71 4.226-17.027 3.947-21.55-.822-4.522-4.769-6.206-13.983-4.96-27.137 1.237-13.072 5.338-29.647 11.953-48.62 13.224-37.93 36.412-85.219 66.439-132.85 30.026-47.632 61.17-86.53 87.233-110.92 13.037-12.201 24.763-20.734 34.414-24.934 9.711-4.226 17.028-3.947 21.55.822Z" stroke="#B4462E" stroke-opacity=".15" stroke-width="2"/><path opacity=".793" d="M326.637 114.08c4.246 5.218 5.29 14.49 3.117 27.28-2.162 12.723-7.454 28.576-15.45 46.513-15.983 35.861-42.667 79.83-76.271 123.382-33.603 43.551-67.721 78.384-95.701 99.501-13.995 10.563-26.41 17.66-36.43 20.725-10.073 3.08-17.444 2.008-21.69-3.21-4.245-5.218-5.29-14.49-3.116-27.28 2.162-12.723 7.454-28.576 15.45-46.513 15.983-35.861 42.667-79.83 76.271-123.382 33.603-43.551 67.721-78.384 95.701-99.501 13.995-10.562 26.41-17.66 36.43-20.725 10.073-3.08 17.444-2.008 21.689 3.21Z" stroke="#B4462E" stroke-opacity=".15" stroke-width="2"/><path opacity=".828" d="M338.103 128.144c3.931 5.628 4.326 14.883 1.244 27.215-3.068 12.277-9.511 27.289-18.826 44.055C301.9 232.933 271.924 273.25 235 312.39c-36.925 39.141-73.757 69.643-103.438 87.327-14.847 8.846-27.858 14.456-38.17 16.362-10.359 1.915-17.729.054-21.66-5.574-3.93-5.628-4.326-14.883-1.244-27.215 3.069-12.278 9.512-27.289 18.826-44.055 18.622-33.519 48.598-73.836 85.522-112.977 36.925-39.14 73.756-69.642 103.438-87.326 14.847-8.846 27.857-14.456 38.17-16.362 10.359-1.915 17.728-.054 21.659 5.574Z" stroke="#B4462E" stroke-opacity=".15" stroke-width="2"/><path opacity=".862" d="M348.556 143.28c3.581 5.993 3.324 15.157-.642 26.941-3.952 11.739-11.496 25.797-22.058 41.264-21.116 30.923-54.156 67.281-94.12 101.714-39.964 34.434-79.229 60.374-110.388 74.492-15.585 7.062-29.091 11.142-39.618 11.877-10.568.738-17.88-1.904-21.461-7.897-3.581-5.993-3.324-15.157.642-26.941 3.951-11.74 11.496-25.797 22.058-41.265 21.116-30.923 54.156-67.281 94.12-101.714 39.964-34.433 79.229-60.374 110.388-74.492 15.585-7.061 29.091-11.141 39.618-11.876 10.568-.738 17.88 1.903 21.461 7.897Z" stroke="#B4462E" stroke-opacity=".15" stroke-width="2"/><path opacity=".897" d="M357.912 159.353c3.2 6.311 2.292 15.31-2.528 26.46-4.804 11.113-13.391 24.11-25.121 38.163-23.451 28.093-59.303 60.216-102.002 89.681-42.699 29.464-84.099 50.648-116.497 61.093-16.206 5.225-30.105 7.745-40.767 7.304-10.698-.443-17.895-3.848-21.095-10.159-3.2-6.311-2.292-15.31 2.528-26.46 4.804-11.113 13.391-24.11 25.12-38.162 23.451-28.094 59.304-60.217 102.003-89.682 42.699-29.464 84.098-50.648 116.497-61.093 16.206-5.225 30.105-7.745 40.767-7.304 10.698.443 17.895 3.849 21.095 10.159Z" stroke="#B4462E" stroke-opacity=".15" stroke-width="2"/><path opacity=".931" d="M366.097 176.23c2.79 6.578 1.239 15.339-4.397 25.773-5.62 10.404-15.185 22.243-27.993 34.773-25.607 25.051-63.999 52.698-109.109 76.97-45.11 24.272-88.329 40.539-121.721 47.233-16.703 3.348-30.89 4.29-41.607 2.677-10.748-1.618-17.775-5.765-20.564-12.342-2.79-6.577-1.24-15.339 4.397-25.773 5.62-10.404 15.185-22.243 27.993-34.773 25.607-25.051 63.999-52.697 109.109-76.97 45.109-24.272 88.328-40.538 121.721-47.232 16.703-3.349 30.89-4.291 41.607-2.678 10.748 1.619 17.774 5.765 20.564 12.342Z" stroke="#B4462E" stroke-opacity=".15" stroke-width="2"/><path opacity=".966" d="M373.047 193.774c2.355 6.789.174 15.243-6.236 24.885-6.393 9.616-16.864 20.208-30.654 31.122-27.567 21.82-68.208 44.78-115.385 63.676-47.178 18.896-91.889 30.122-126.022 33.015-17.074 1.448-31.442.805-42.133-1.968-10.72-2.781-17.518-7.639-19.874-14.428-2.355-6.79-.174-15.244 6.236-24.886 6.393-9.616 16.864-20.208 30.653-31.122 27.568-21.82 68.209-44.779 115.386-63.676 47.178-18.896 91.889-30.122 126.022-33.015 17.073-1.448 31.442-.805 42.133 1.968 10.72 2.781 17.518 7.639 19.874 14.429Z" stroke="#B4462E" stroke-opacity=".15" stroke-width="2"/><path d="M378.706 211.827c1.901 6.946-.891 15.025-8.028 23.805-7.118 8.755-18.416 18.021-33.082 27.236-29.32 18.423-71.9 36.523-120.788 49.9-48.887 13.376-94.751 19.478-129.367 18.549-17.314-.465-31.756-2.687-42.34-6.599-10.612-3.923-17.128-9.456-19.029-16.401-1.9-6.945.891-15.025 8.028-23.804 7.118-8.756 18.416-18.021 33.082-27.237 29.32-18.423 71.901-36.522 120.788-49.899 48.888-13.377 94.751-19.478 129.367-18.549 17.315.464 31.756 2.687 42.34 6.599 10.612 3.922 17.129 9.455 19.029 16.4Z" stroke="#B4462E" stroke-opacity=".15" stroke-width="2"/></svg>