<svg width="622" height="622" fill="none" xmlns="http://www.w3.org/2000/svg"><path opacity=".034" d="M117.328 307.194c-15.974-6.431-13.521-29.77 3.441-32.739l95.489-16.713c9.63-1.686 16.186-10.709 14.813-20.39l-13.612-95.979c-2.418-17.05 19.021-26.595 30.074-13.39l62.218 74.339c6.275 7.498 17.368 8.663 25.065 2.634l76.314-59.778c13.557-10.619 32.542 3.175 26.632 19.35l-33.269 91.052c-3.356 9.183 1.181 19.372 10.25 23.023l89.927 36.202c15.975 6.431 13.522 29.77-3.441 32.739l-95.488 16.713c-9.631 1.686-16.187 10.709-14.814 20.389l13.612 95.98c2.418 17.05-19.021 26.595-30.073 13.389l-62.218-74.338c-6.276-7.498-17.368-8.664-25.065-2.634l-76.315 59.778c-13.556 10.619-32.542-3.175-26.632-19.35l33.27-91.052c3.355-9.183-1.181-19.372-10.251-23.024l-89.927-36.201Z" stroke="#EB5737" stroke-opacity=".2"/><path opacity=".069" d="M120.86 297.548c-15.616-7.258-11.945-30.436 5.15-32.513l94.087-11.433c9.706-1.179 16.725-9.847 15.861-19.586l-8.379-94.408c-1.523-17.153 20.386-25.563 30.732-11.798l56.945 75.766c5.874 7.816 16.89 9.561 24.892 3.943l77.571-54.461c14.093-9.895 32.331 4.874 25.583 20.717l-37.143 87.198c-3.832 8.995.165 19.408 9.032 23.529l85.949 39.948c15.616 7.257 11.945 30.436-5.15 32.513l-94.087 11.433c-9.706 1.179-16.725 9.847-15.86 19.586l8.379 94.408c1.522 17.153-20.387 25.563-30.733 11.797l-56.945-75.765c-5.874-7.816-16.89-9.561-24.892-3.943l-77.57 54.461c-14.094 9.895-32.332-4.874-25.583-20.717l37.143-87.198c3.831-8.995-.166-19.408-9.032-23.529l-85.95-39.948Z" stroke="#EB5737" stroke-opacity=".2"/><path opacity=".103" d="M124.865 288.262c-15.215-8.065-10.336-31.02 6.844-32.2l92.401-6.345c9.755-.669 17.218-8.958 16.864-18.729l-3.348-92.558c-.623-17.209 21.696-24.461 31.307-10.173l51.696 76.85c5.457 8.112 16.367 10.431 24.652 5.24l78.483-49.179c14.592-9.144 32.032 6.559 24.464 22.027l-40.706 83.194c-4.297 8.782-.85 19.39 7.788 23.969l81.832 43.379c15.215 8.066 10.336 31.021-6.844 32.2l-92.401 6.345c-9.755.67-17.218 8.958-16.864 18.729l3.348 92.558c.623 17.21-21.696 24.461-31.308 10.173l-51.695-76.85c-5.457-8.112-16.367-10.431-24.652-5.239l-78.483 49.179c-14.593 9.143-32.032-6.559-24.464-22.027l40.706-83.195c4.297-8.782.85-19.39-7.788-23.969l-81.832-43.379Z" stroke="#EB5737" stroke-opacity=".2"/><path opacity=".138" d="M129.304 279.354c-14.772-8.85-8.698-31.518 8.52-31.797l90.446-1.465c9.776-.159 17.663-8.045 17.821-17.821l1.466-90.447c.278-17.218 22.946-23.291 31.797-8.52l46.492 77.597c5.025 8.387 15.799 11.273 24.344 6.523l79.061-43.955c15.051-8.367 31.645 8.227 23.278 23.278l-43.955 79.061c-4.75 8.545-1.864 19.319 6.523 24.344l77.597 46.492c14.771 8.851 8.698 31.519-8.52 31.797l-90.447 1.466c-9.776.158-17.662 8.045-17.821 17.821l-1.465 90.446c-.279 17.218-22.947 23.292-31.797 8.52l-46.493-77.596c-5.025-8.387-15.798-11.274-24.343-6.523l-79.062 43.954c-15.051 8.368-31.645-8.226-23.277-23.277l43.954-79.062c4.751-8.545 1.864-19.318-6.523-24.343l-77.596-46.493Z" stroke="#EB5737" stroke-opacity=".2"/><path opacity=".172" d="M134.162 270.849c-14.289-9.612-7.037-31.931 10.172-31.308l88.24 3.192c9.771.353 18.06-7.11 18.729-16.864l6.049-88.09c1.18-17.18 24.135-22.059 32.2-6.845l41.355 78.015c4.58 8.638 15.187 12.085 23.969 7.788l79.313-38.807c15.468-7.568 31.171 9.871 22.027 24.464l-46.884 74.822c-5.192 8.285-2.873 19.194 5.24 24.652l73.264 49.283c14.288 9.612 7.036 31.931-10.173 31.308l-88.24-3.192c-9.771-.354-18.059 7.109-18.729 16.863l-6.049 88.091c-1.179 17.18-24.134 22.059-32.2 6.844l-41.355-78.014c-4.579-8.639-15.187-12.085-23.969-7.788l-79.313 38.807c-15.468 7.568-31.171-9.872-22.027-24.464l46.885-74.822c5.191-8.285 2.872-19.195-5.24-24.652l-73.264-49.283Z" stroke="#EB5737" stroke-opacity=".2"/><path opacity=".207" d="M139.409 262.761c-13.766-10.346-5.356-32.255 11.797-30.732l85.8 7.615c9.739.864 18.407-6.155 19.586-15.861l10.39-85.508c2.077-17.095 25.256-20.766 32.514-5.15l36.305 78.113c4.121 8.866 14.534 12.863 23.529 9.031l79.247-33.756c15.843-6.748 30.612 11.49 20.717 25.583l-49.495 70.498c-5.618 8.002-3.873 19.018 3.942 24.892l68.858 51.752c13.766 10.347 5.356 32.255-11.797 30.733l-85.8-7.615c-9.739-.864-18.407 6.155-19.586 15.86l-10.391 85.509c-2.077 17.094-25.255 20.765-32.513 5.149l-36.306-78.112c-4.12-8.866-14.533-12.863-23.528-9.032l-79.248 33.756c-15.843 6.749-30.611-11.489-20.716-25.583l49.495-70.497c5.618-8.002 3.873-19.018-3.943-24.893l-68.857-51.752Z" stroke="#EB5737" stroke-opacity=".2"/><path opacity=".241" d="M145.003 255.109c-13.205-11.052-3.66-32.491 13.39-30.073l83.144 11.792c9.681 1.373 18.704-5.183 20.39-14.814l14.478-82.719c2.969-16.963 26.308-19.416 32.739-3.441l31.36 77.901c3.652 9.07 13.841 13.607 23.024 10.251l78.876-28.821c16.175-5.91 29.969 13.076 19.35 26.632l-51.785 66.11c-6.029 7.697-4.863 18.789 2.635 25.064l64.397 53.899c13.206 11.052 3.661 32.491-13.389 30.073l-83.145-11.792c-9.68-1.373-18.703 5.183-20.389 14.814l-14.479 82.719c-2.969 16.962-26.308 19.415-32.738 3.441L281.5 408.244c-3.651-9.07-13.84-13.607-23.024-10.251L179.6 426.814c-16.174 5.91-29.968-13.076-19.349-26.632l51.784-66.11c6.029-7.697 4.863-18.789-2.634-25.065l-64.398-53.898Z" stroke="#EB5737" stroke-opacity=".2"/><path opacity=".276" d="M150.917 247.908c-12.609-11.728-1.955-32.638 14.945-29.331l80.293 15.712c9.596 1.878 18.95-4.197 21.137-13.726l18.305-79.742c3.852-16.784 27.288-18.012 32.874-1.723l26.539 77.392c3.172 9.248 13.109 14.312 22.456 11.442l78.211-24.019c16.461-5.056 29.243 14.626 17.929 27.608l-53.754 61.68c-6.423 7.371-5.84 18.509 1.319 25.168l59.907 55.723c12.609 11.729 1.955 32.639-14.945 29.332l-80.294-15.713c-9.595-1.877-18.949 4.197-21.136 13.727l-18.305 79.742c-3.852 16.784-27.288 18.012-32.874 1.723l-26.539-77.392c-3.172-9.249-13.11-14.312-22.456-11.442l-78.211 24.019c-16.462 5.055-29.243-14.626-17.929-27.608l53.754-61.68c6.423-7.371 5.84-18.509-1.319-25.168l-59.907-55.724Z" stroke="#EB5737" stroke-opacity=".2"/><path opacity=".31" d="M157.13 241.169c-11.978-12.372-.244-32.696 16.459-28.509l77.265 19.367c9.484 2.378 19.143-3.199 21.827-12.601l21.859-76.597c4.726-16.559 28.194-16.559 32.92 0l21.859 76.597c2.684 9.402 12.343 14.979 21.826 12.601l77.266-19.367c16.703-4.187 28.437 16.136 16.459 28.509l-55.405 57.23c-6.801 7.024-6.801 18.178 0 25.202l55.405 57.23c11.978 12.372.244 32.696-16.459 28.509l-77.266-19.368c-9.483-2.377-19.142 3.2-21.826 12.602l-21.859 76.597c-4.726 16.559-28.194 16.559-32.92 0l-21.859-76.597c-2.684-9.402-12.343-14.979-21.827-12.602l-77.265 19.368c-16.703 4.187-28.437-16.137-16.459-28.509l55.405-57.23c6.801-7.024 6.801-18.178 0-25.202l-55.405-57.23Z" stroke="#EB5737" stroke-opacity=".2"/><path opacity=".345" d="M163.603 234.901c-11.314-12.982 1.467-32.664 17.929-27.608l74.08 22.75c9.346 2.871 19.284-2.193 22.456-11.442l25.138-73.304c5.586-16.289 29.021-15.061 32.874 1.723l17.337 75.53c2.188 9.53 11.542 15.604 21.137 13.727l76.053-14.883c16.9-3.307 27.554 17.603 14.945 29.332l-56.743 52.78c-7.159 6.659-7.743 17.797-1.319 25.168l50.915 58.422c11.314 12.982-1.468 32.664-17.929 27.609l-74.081-22.751c-9.346-2.87-19.284 2.193-22.455 11.442l-25.138 73.305c-5.586 16.289-29.022 15.061-32.874-1.723l-17.338-75.531c-2.187-9.529-11.541-15.604-21.137-13.726l-76.052 14.882c-16.9 3.307-27.554-17.603-14.945-29.331l56.742-52.78c7.159-6.66 7.743-17.798 1.319-25.169l-50.914-58.422Z" stroke="#EB5737" stroke-opacity=".2"/><path opacity=".379" d="M170.297 229.118c-10.619-13.557 3.175-32.543 19.349-26.633l70.759 25.855c9.184 3.356 19.373-1.181 23.024-10.251l28.133-69.884c6.431-15.974 29.77-13.521 32.739 3.441l12.988 74.207c1.686 9.63 10.71 16.186 20.39 14.813l74.588-10.578c17.05-2.418 26.595 19.021 13.389 30.073l-57.77 48.352c-7.498 6.275-8.663 17.367-2.634 25.064l46.455 59.306c10.619 13.557-3.175 32.542-19.35 26.632l-70.759-25.854c-9.183-3.356-19.372 1.181-23.023 10.25l-28.133 69.885c-6.431 15.974-29.77 13.521-32.739-3.441l-12.989-74.207c-1.685-9.63-10.709-16.186-20.389-14.813l-74.588 10.578c-17.05 2.418-26.595-19.021-13.39-30.073l57.771-48.352c7.497-6.275 8.663-17.367 2.634-25.064l-46.455-59.306Z" stroke="#EB5737" stroke-opacity=".2"/><path opacity=".414" d="M177.184 223.819c-9.894-14.093 4.874-32.331 20.717-25.583l67.321 28.676c8.995 3.832 19.408-.165 23.529-9.032l30.841-66.357c7.258-15.616 30.437-11.945 32.514 5.15l8.826 72.64c1.18 9.706 9.848 16.725 19.587 15.86l72.887-6.469c17.153-1.522 25.563 20.387 11.797 30.733l-58.494 43.964c-7.816 5.874-9.561 16.89-3.943 24.892l42.046 59.888c9.895 14.093-4.874 32.331-20.716 25.583l-67.322-28.676c-8.995-3.832-19.407.165-23.528 9.032l-30.842 66.357c-7.258 15.616-30.436 11.944-32.513-5.15l-8.827-72.64c-1.179-9.706-9.847-16.725-19.586-15.86l-72.887 6.469c-17.153 1.522-25.563-20.387-11.798-30.733l58.495-43.964c7.816-5.874 9.561-16.89 3.943-24.892l-42.047-59.888Z" stroke="#EB5737" stroke-opacity=".2"/><path opacity=".448" d="M184.239 219.013c-9.144-14.592 6.559-32.032 22.027-24.464l63.787 31.211c8.783 4.297 19.39.85 23.969-7.788l33.26-62.743c8.066-15.215 31.021-10.336 32.2 6.844l4.865 70.847c.67 9.754 8.958 17.217 18.729 16.863l70.967-2.567c17.209-.623 24.461 21.696 10.173 31.308l-58.923 39.636c-8.113 5.457-10.431 16.367-5.24 24.652l37.707 60.175c9.144 14.593-6.559 32.032-22.027 24.464l-63.787-31.21c-8.783-4.297-19.39-.851-23.97 7.788l-33.26 62.743c-8.065 15.214-31.02 10.335-32.199-6.845l-4.865-70.846c-.67-9.754-8.958-17.218-18.729-16.864l-70.967 2.567c-17.209.623-24.461-21.696-10.173-31.308l58.923-39.636c8.112-5.457 10.431-16.367 5.24-24.652l-37.707-60.175Z" stroke="#EB5737" stroke-opacity=".2"/><path opacity=".483" d="M191.425 214.7c-8.367-15.051 8.227-31.645 23.278-23.277l60.178 33.456c8.545 4.751 19.319 1.864 24.344-6.523l35.387-59.063c8.851-14.772 31.519-8.698 31.798 8.52l1.115 68.844c.158 9.776 8.045 17.662 17.821 17.821l68.844 1.115c17.218.279 23.292 22.947 8.52 31.797l-59.063 35.388c-8.387 5.025-11.274 15.799-6.523 24.344L430.58 407.3c8.368 15.051-8.227 31.645-23.277 23.277l-60.178-33.456c-8.546-4.751-19.319-1.864-24.344 6.523l-35.388 59.063c-8.85 14.772-31.518 8.698-31.797-8.52l-1.116-68.844c-.158-9.776-8.045-17.662-17.82-17.821l-68.844-1.115c-17.218-.279-23.292-22.947-8.52-31.797l59.063-35.388c8.387-5.025 11.273-15.799 6.522-24.344L191.425 214.7Z" stroke="#EB5737" stroke-opacity=".2"/><path opacity=".517" d="M198.704 210.88c-7.569-15.468 9.871-31.171 24.463-22.027l56.514 35.413c8.285 5.191 19.195 2.872 24.652-5.24l37.225-55.338c9.611-14.288 31.93-7.036 31.308 10.173l-2.412 66.649c-.353 9.77 7.11 18.059 16.864 18.729l66.536 4.568c17.18 1.18 22.059 24.135 6.844 32.2l-58.925 31.236c-8.638 4.58-12.085 15.187-7.788 23.97l29.311 59.905c7.569 15.468-9.871 31.171-24.463 22.028l-56.514-35.413c-8.285-5.191-19.195-2.872-24.652 5.24l-37.225 55.337c-9.611 14.289-31.93 7.037-31.308-10.172l2.412-66.649c.353-9.771-7.11-18.059-16.864-18.729l-66.536-4.569c-17.18-1.18-22.059-24.134-6.844-32.2l58.925-31.236c8.638-4.579 12.085-15.187 7.788-23.969l-29.311-59.906Z" stroke="#EB5737" stroke-opacity=".2"/><path opacity=".552" d="M206.053 207.553c-6.749-15.843 11.489-30.612 25.582-20.717l52.815 37.08c8.002 5.618 19.018 3.874 24.893-3.942l38.771-51.586c10.346-13.766 32.255-5.356 30.733 11.797l-5.705 64.279c-.865 9.739 6.154 18.407 15.86 19.586l64.061 7.784c17.094 2.077 20.766 25.256 5.15 32.514l-58.52 27.199c-8.867 4.121-12.864 14.533-9.032 23.528l25.289 59.371c6.748 15.843-11.489 30.611-25.583 20.716l-52.815-37.08c-8.002-5.618-19.018-3.873-24.892 3.943l-38.772 51.586c-10.346 13.765-32.255 5.355-30.732-11.797l5.705-64.28c.864-9.739-6.155-18.406-15.861-19.586l-64.06-7.784c-17.095-2.077-20.766-25.256-5.15-32.514l58.52-27.198c8.866-4.121 12.863-14.534 9.032-23.529l-25.289-59.37Z" stroke="#EB5737" stroke-opacity=".2"/><path opacity=".586" d="M213.437 204.714c-5.91-16.174 13.075-29.968 26.632-19.349l49.101 38.461c7.697 6.029 18.789 4.863 25.064-2.634l40.032-47.83c11.052-13.205 32.491-3.66 30.073 13.39l-8.758 61.753c-1.373 9.68 5.183 18.704 14.813 20.389l61.438 10.754c16.962 2.969 19.415 26.308 3.441 32.738l-57.859 23.293c-9.07 3.651-13.607 13.84-10.251 23.023l21.406 58.583c5.91 16.175-13.076 29.969-26.632 19.35l-49.101-38.462c-7.697-6.029-18.79-4.863-25.065 2.635l-40.031 47.829c-11.053 13.206-32.491 3.66-30.073-13.389l8.758-61.754c1.372-9.68-5.183-18.703-14.814-20.389l-61.437-10.753c-16.963-2.969-19.416-26.308-3.441-32.739l57.859-23.292c9.069-3.651 13.606-13.841 10.25-23.024l-21.405-58.583Z" stroke="#EB5737" stroke-opacity=".2"/><path opacity=".621" d="M220.824 202.357c-5.056-16.462 14.626-29.243 27.608-17.929l45.392 39.559c7.371 6.423 18.509 5.84 25.168-1.319L360 178.581c11.729-12.609 32.638-1.955 29.331 14.945l-11.563 59.09c-1.877 9.595 4.197 18.949 13.727 21.137l58.684 13.47c16.784 3.853 18.012 27.288 1.723 32.874l-56.955 19.532c-9.248 3.171-14.312 13.109-11.442 22.455l17.677 57.558c5.055 16.461-14.627 29.243-27.609 17.929l-45.392-39.559c-7.37-6.424-18.509-5.84-25.168 1.319l-41.008 44.087c-11.728 12.609-32.638 1.955-29.331-14.945l11.563-59.09c1.878-9.595-4.197-18.949-13.726-21.137l-58.685-13.471c-16.784-3.852-18.012-27.288-1.723-32.874l56.955-19.531c9.249-3.171 14.312-13.109 11.442-22.455l-17.676-57.558Z" stroke="#EB5737" stroke-opacity=".2"/><path opacity=".655" d="M228.184 200.475c-4.187-16.703 16.136-28.437 28.509-16.459l41.707 40.377c7.024 6.801 18.178 6.801 25.202 0l41.707-40.377c12.373-11.978 32.696-.244 28.509 16.459l-14.114 56.309c-2.377 9.483 3.199 19.143 12.601 21.826l55.822 15.93c16.559 4.726 16.559 28.194 0 32.92l-55.822 15.93c-9.402 2.683-14.978 12.343-12.601 21.826l14.114 56.308c4.187 16.704-16.136 28.438-28.509 16.46l-41.707-40.377c-7.024-6.801-18.178-6.801-25.202 0l-41.707 40.377c-12.373 11.978-32.696.244-28.509-16.46l14.114-56.308c2.377-9.483-3.199-19.143-12.601-21.826l-55.822-15.93c-16.559-4.726-16.559-28.194 0-32.92l55.822-15.93c9.402-2.683 14.978-12.343 12.601-21.826l-14.114-56.309Z" stroke="#EB5737" stroke-opacity=".2"/><path opacity=".69" d="M235.486 199.046c-3.307-16.9 17.602-27.554 29.331-14.945l38.065 40.923c6.659 7.159 17.797 7.743 25.168 1.319l42.134-36.72c12.983-11.314 32.664 1.468 27.609 17.929l-16.408 53.427c-2.87 9.347 2.193 19.284 11.442 22.456l52.867 18.129c16.29 5.586 15.061 29.022-1.723 32.874l-54.472 12.504c-9.53 2.188-15.604 11.542-13.727 21.137l10.733 54.849c3.307 16.9-17.602 27.554-29.331 14.945l-38.065-40.922c-6.659-7.159-17.797-7.743-25.168-1.319l-42.135 36.719c-12.982 11.314-32.663-1.467-27.608-17.929l16.408-53.427c2.87-9.346-2.193-19.284-11.442-22.455l-52.867-18.13c-16.29-5.586-15.061-29.021 1.722-32.874l54.473-12.504c9.53-2.187 15.604-11.541 13.727-21.137l-10.733-54.849Z" stroke="#EB5737" stroke-opacity=".2"/><path opacity=".724" d="M242.715 198.085c-2.418-17.05 19.021-26.595 30.074-13.39l34.484 41.203c6.275 7.497 17.368 8.663 25.065 2.634l42.297-33.132c13.557-10.619 32.542 3.175 26.632 19.349l-18.439 50.466c-3.356 9.183 1.181 19.373 10.25 23.024l49.842 20.064c15.975 6.431 13.522 29.77-3.441 32.739l-52.924 9.264c-9.631 1.685-16.187 10.709-14.814 20.389l7.545 53.197c2.418 17.05-19.021 26.595-30.074 13.389l-34.484-41.202c-6.275-7.498-17.368-8.663-25.065-2.634l-42.297 33.132c-13.557 10.619-32.542-3.175-26.632-19.35l18.439-50.465c3.356-9.184-1.181-19.373-10.25-23.024l-49.842-20.065c-15.975-6.431-13.522-29.77 3.441-32.739l52.924-9.263c9.631-1.686 16.187-10.709 14.814-20.389l-7.545-53.197Z" stroke="#EB5737" stroke-opacity=".2"/><path opacity=".759" d="M249.827 197.564c-1.523-17.153 20.386-25.563 30.732-11.797l30.983 41.223c5.875 7.816 16.891 9.561 24.893 3.943l42.205-29.632c14.094-9.895 32.331 4.874 25.583 20.717l-20.209 47.444c-3.832 8.995.165 19.408 9.032 23.528l46.764 21.736c15.616 7.258 11.945 30.436-5.15 32.513l-51.192 6.221c-9.705 1.179-16.725 9.847-15.86 19.586l4.559 51.367c1.522 17.152-20.387 25.562-30.733 11.797l-30.983-41.224c-5.874-7.816-16.89-9.56-24.892-3.942l-42.205 29.631c-14.094 9.895-32.332-4.874-25.583-20.716l20.209-47.444c3.831-8.995-.166-19.408-9.032-23.529l-46.764-21.735c-15.616-7.258-11.945-30.437 5.149-32.514l51.192-6.22c9.706-1.18 16.725-9.847 15.861-19.586l-4.559-51.367Z" stroke="#EB5737" stroke-opacity=".2"/><path opacity=".793" d="M256.81 197.47c-.622-17.209 21.697-24.461 31.308-10.172l27.578 40.996c5.457 8.112 16.366 10.431 24.651 5.239l41.868-26.234c14.592-9.144 32.032 6.559 24.464 22.027l-21.715 44.38c-4.297 8.782-.851 19.39 7.788 23.969l43.654 23.141c15.214 8.065 10.335 31.02-6.845 32.2l-49.292 3.385c-9.754.669-17.217 8.958-16.864 18.729l1.787 49.375c.622 17.209-21.697 24.461-31.308 10.173l-27.577-40.996c-5.457-8.112-16.367-10.431-24.652-5.24l-41.868 26.235c-14.592 9.144-32.032-6.559-24.463-22.027l21.715-44.38c4.297-8.783.85-19.39-7.788-23.97l-43.654-23.14c-15.215-8.066-10.336-31.02 6.844-32.2l49.292-3.385c9.754-.67 17.217-8.958 16.864-18.729l-1.787-49.376Z" stroke="#EB5737" stroke-opacity=".2"/><path opacity=".828" d="M263.632 197.789c.279-17.218 22.947-23.292 31.797-8.52l24.284 40.529c5.025 8.387 15.798 11.274 24.343 6.523l41.295-22.958c15.051-8.367 31.645 8.227 23.277 23.278l-22.957 41.294c-4.751 8.546-1.864 19.319 6.522 24.344l40.53 24.284c14.772 8.85 8.698 31.518-8.52 31.797l-47.241.765c-9.776.159-17.663 8.045-17.821 17.821l-.766 47.241c-.278 17.219-22.946 23.292-31.797 8.521l-24.283-40.53c-5.025-8.387-15.799-11.274-24.344-6.523l-41.295 22.958c-15.051 8.368-31.645-8.227-23.277-23.277l22.958-41.295c4.75-8.545 1.864-19.319-6.523-24.344l-40.53-24.283c-14.772-8.851-8.698-31.519 8.52-31.798l47.242-.765c9.775-.158 17.662-8.045 17.821-17.821l.765-47.241Z" stroke="#EB5737" stroke-opacity=".2"/><path opacity=".862" d="M270.266 198.502c1.18-17.18 24.134-22.059 32.2-6.844l21.117 39.836c4.579 8.638 15.187 12.085 23.969 7.788l40.499-19.816c15.468-7.568 31.171 9.871 22.027 24.464l-23.94 38.205c-5.192 8.285-2.873 19.195 5.24 24.652l37.41 25.166c14.288 9.611 7.036 31.93-10.173 31.308l-45.057-1.631c-9.771-.353-18.06 7.11-18.729 16.864l-3.089 44.981c-1.18 17.18-24.134 22.059-32.2 6.845l-21.117-39.836c-4.579-8.639-15.186-12.085-23.969-7.788l-40.499 19.815c-15.468 7.569-31.171-9.871-22.027-24.463l23.94-38.206c5.192-8.285 2.873-19.195-5.239-24.652l-37.411-25.165c-14.288-9.612-7.036-31.931 10.173-31.308l45.057 1.63c9.771.353 18.06-7.11 18.729-16.864l3.089-44.981Z" stroke="#EB5737" stroke-opacity=".2"/><path opacity=".897" d="M276.69 199.59c2.077-17.094 25.256-20.765 32.514-5.149l18.092 38.927c4.121 8.866 14.534 12.863 23.529 9.032l39.493-16.823c15.843-6.748 30.611 11.49 20.716 25.583l-24.665 35.133c-5.618 8.002-3.874 19.018 3.942 24.892l34.315 25.791c13.766 10.346 5.356 32.255-11.797 30.732l-42.758-3.795c-9.739-.864-18.407 6.155-19.586 15.861l-5.178 42.613c-2.077 17.094-25.256 20.765-32.514 5.149L294.7 388.609c-4.121-8.866-14.533-12.863-23.528-9.032L231.679 396.4c-15.843 6.748-30.612-11.49-20.717-25.583l24.666-35.133c5.618-8.001 3.873-19.018-3.943-24.892l-34.315-25.791c-13.765-10.346-5.355-32.255 11.798-30.732l42.758 3.795c9.739.864 18.407-6.155 19.586-15.861l5.178-42.613Z" stroke="#EB5737" stroke-opacity=".2"/><path opacity=".931" d="M282.894 201.035c2.969-16.962 26.308-19.415 32.738-3.441l15.224 37.817c3.651 9.07 13.84 13.606 23.024 10.251l38.289-13.991c16.175-5.91 29.969 13.075 19.35 26.632l-25.138 32.092c-6.029 7.697-4.864 18.79 2.634 25.065l31.261 26.164c13.206 11.053 3.661 32.491-13.389 30.073l-40.362-5.724c-9.68-1.373-18.704 5.183-20.389 14.814l-7.029 40.155c-2.969 16.963-26.308 19.416-32.739 3.441l-15.223-37.816c-3.652-9.07-13.841-13.607-23.024-10.251l-38.29 13.991c-16.174 5.91-29.968-13.076-19.349-26.632l25.138-32.093c6.029-7.697 4.863-18.789-2.634-25.064l-31.262-26.165c-13.205-11.052-3.66-32.491 13.39-30.073l40.362 5.724c9.68 1.373 18.703-5.183 20.389-14.813l7.029-40.156Z" stroke="#EB5737" stroke-opacity=".2"/><path opacity=".966" d="M288.849 202.816c3.853-16.784 27.289-18.012 32.874-1.723l12.523 36.517c3.172 9.249 13.11 14.312 22.456 11.442l36.904-11.333c16.462-5.056 29.243 14.626 17.929 27.608l-25.364 29.104c-6.423 7.371-5.84 18.509 1.319 25.168l28.267 26.293c12.609 11.729 1.955 32.638-14.945 29.331l-37.886-7.413c-9.595-1.878-18.95 4.197-21.137 13.726l-8.637 37.627c-3.853 16.783-27.288 18.012-32.874 1.722l-12.523-36.517c-3.171-9.249-13.109-14.312-22.455-11.442l-36.905 11.333c-16.461 5.056-29.243-14.626-17.929-27.608l25.364-29.104c6.424-7.371 5.84-18.509-1.319-25.168l-28.267-26.293c-12.609-11.729-1.955-32.638 14.945-29.331l37.887 7.414c9.595 1.877 18.949-4.197 21.136-13.727l8.637-37.626Z" stroke="#EB5737" stroke-opacity=".2"/><path d="M294.543 204.909c4.726-16.56 28.193-16.56 32.919 0l10.001 35.045c2.684 9.402 12.343 14.979 21.827 12.601l35.351-8.861c16.703-4.187 28.437 16.137 16.459 28.509l-25.349 26.184c-6.801 7.025-6.801 18.178 0 25.203l25.349 26.184c11.978 12.372.244 32.696-16.459 28.509l-35.351-8.861c-9.484-2.377-19.143 3.199-21.827 12.601l-10.001 35.046c-4.726 16.559-28.193 16.559-32.919 0l-10.002-35.046c-2.683-9.402-12.342-14.978-21.826-12.601l-35.351 8.861c-16.703 4.187-28.437-16.136-16.459-28.509l25.349-26.184c6.801-7.025 6.801-18.178 0-25.203l-25.349-26.184c-11.978-12.372-.244-32.696 16.459-28.509l35.351 8.861c9.484 2.378 19.143-3.199 21.826-12.601l10.002-35.045Z" stroke="#EB5737" stroke-opacity=".2"/></svg>